<svg id="Layer_1" enable-background="new 0 0 128 128" height="512" viewBox="0 0 128 128" width="512" xmlns="http://www.w3.org/2000/svg"><path d="m113.979 60.149c2.145-15.542-2.132-26.782-7.141-34.259-2.011-3.675-4.328-6.708-6.568-9.138-1.091-1.183-2.776-1.466-4.195-.708-1.403.752-2.093 2.297-1.716 3.844 1.521 6.236 2.493 16.196-1.507 28.227-.367 1.105-1.254 2.996-1.94 4.294-.248.469-.078 1.039.369 1.313-.19.303-.389.601-.591.897-.443-.304-1.05-.211-1.372.225-.818 1.111-1.755 2.209-2.786 3.264h-.001c-.366.375-.742.742-1.126 1.102-.4.374-.421.997-.054 1.4-.361.321-.734.632-1.108.942-.346-.421-.962-.491-1.39-.154-.304.24-.615.475-.927.708-.803-.71-1.73-1.299-2.781-1.754 3.922-4.784 6.28-10.898 6.28-17.552 0-3.947-.811-7.747-2.413-11.314 1.308-.302 2.531-.804 3.59-1.478 4.578-2.889 6.195-8.645 3.605-12.83-1.547-2.514-4.359-4.014-7.522-4.014-1.941 0-3.868.565-5.574 1.636-1.806 1.14-3.325 2.833-4.297 4.758-4.506-2.942-9.709-4.491-15.123-4.491-5.395 0-10.582 1.539-15.079 4.462-.973-1.913-2.487-3.597-4.283-4.729-1.704-1.069-3.631-1.635-5.572-1.635-3.165 0-5.978 1.501-7.523 4.013-2.59 4.186-.973 9.941 3.602 12.829 1.046.665 2.251 1.163 3.541 1.467-1.606 3.57-2.419 7.375-2.419 11.327 0 6.816 2.476 13.062 6.571 17.896-6.144 3.249-7.36 11.714-7.245 18.52-1.547 2.622-2.696 5.299-3.384 7.864-.545 1.172-.901 3.096-.901 5.277 0 .685.036 1.345.101 1.964-.354.134-.7.284-1.037.451.011-.265.018-.532.018-.806 0-3.573-.954-6.47-2.132-6.47s-2.132 2.897-2.132 6.47c0 1.423.153 2.735.41 3.803-1.728 2.054-2.774 4.701-2.774 7.589 0 6.512 5.297 11.81 11.809 11.81 2.124 0 4.113-.571 5.837-1.556.089.075.175.152.268.221 1.799 1.336 4.686 2.941 8.215 3.001.08.001.159.002.237.002 3.234 0 5.74-1.131 7.284-2.093 1.402-.872 2.253-2.516 2.221-4.294l-.105-4.679c.156.031.317.049.483.049l9.502.022-.101 4.612c-.032 1.773.819 3.417 2.22 4.288 1.545.963 4.051 2.094 7.285 2.094.079 0 .158-.001.237-.002 3.53-.06 6.417-1.665 8.216-3.001.093-.069.179-.147.268-.221 1.724.985 3.713 1.556 5.836 1.556 6.512 0 11.809-5.298 11.809-11.81 0-2.958-1.101-5.658-2.904-7.732.151-.667.261-1.424.321-2.239 7.546-7.898 15.429-19.592 17.588-35.238z" fill="#e6e7e8"/><path d="m95.535 13.43c-1.719-1.864-4.805-.242-4.205 2.221 1.611 6.608 2.495 16.675-1.53 28.779-2.049 6.162-6.561 11.085-11.987 14.99 7.02 7.322 3.348 25.273 3.348 25.273l-1.516 12.297c8.671-6.426 24.165-20.878 27.335-43.841 2.752-19.943-5.069-32.805-11.445-39.719z" fill="#fff"/><path d="m98.535 16.43c-1.719-1.864-4.805-.242-4.205 2.221 1.611 6.608 2.495 16.675-1.53 28.779-2.136 6.423-6.946 11.504-12.681 15.485 1.718 3.8 2.089 8.636 1.984 12.786.002-.094.006-.186.008-.281 2.646 4.356 4.165 8.918 4.165 12.884 0 .94-.087 1.817-.253 2.64 1.662.456 3.161 1.296 4.4 2.423 8.093-7.867 17.207-20.204 19.555-37.218 2.754-19.943-5.067-32.805-11.443-39.719z" fill="#6dc9f7"/><path d="m25.262 90.549c.959 0 1.884.137 2.769.372l-.769-6.223s-.847-4.154-.949-9.277c-2.646 4.356-4.164 8.918-4.164 12.884 0 .94.087 1.818.253 2.64.912-.251 1.868-.396 2.86-.396z" fill="#d4fbff"/><path d="m50.274 83.22c-.624-1.403-1.61-5.47-2.584-9.919l.283 15.742c.001 0 .001-.001.002-.002 1.116-.809 3.559-2.986 2.299-5.821z" fill="#d4fbff"/><path d="m59.606 92.671c-.911.354-1.951.09-2.688-.553l-1.393-1.213c-1.051-.916-2.616-.916-3.668 0l-1.393 1.213c-.667.581-1.581.848-2.425.632l.173 9.602c1.945.064 3.949.092 6 .092s4.055-.028 5.999-.092l.187-10.353c-.141.275-.385.514-.792.672z" fill="#d4fbff"/><path d="m59.407 89.041c.45.326.791.781.972 1.307.017.05.031.104.047.156l.408-22.594c-1.266 6.156-2.852 13.344-3.726 15.31-1.26 2.835 1.183 5.012 2.299 5.821z" fill="#d4fbff"/><path d="m80.393 90.921c.886-.235 1.811-.372 2.77-.372.992 0 1.948.145 2.86.395.165-.822.253-1.699.253-2.64 0-3.966-1.518-8.528-4.165-12.884-.103 5.122-.951 9.273-.951 9.273z" fill="#d4fbff"/><path d="m30.123 107.847-2.091-16.927c-.885-.234-1.81-.372-2.769-.372-5.97 0-10.809 4.84-10.809 10.809 0 5.97 4.839 10.809 10.809 10.809 2.214 0 4.27-.668 5.984-1.81-.606-.693-1.014-1.572-1.124-2.509z" fill="#6dc9f7"/><path d="m28.862 97.641c-.933-.903-2.199-1.465-3.6-1.465-2.862 0-5.182 2.32-5.182 5.182s2.32 5.182 5.182 5.182c1.862 0 3.481-.99 4.394-2.465z" fill="#ffd7e5"/><path d="m83.164 90.549c-.959 0-1.885.137-2.77.372l-2.087 16.923c-.116.938-.523 1.817-1.126 2.514 1.714 1.142 3.77 1.81 5.984 1.81 5.97 0 10.809-4.839 10.809-10.809-.001-5.97-4.84-10.81-10.81-10.81z" fill="#6dc9f7"/><path d="m83.164 96.177c-1.401 0-2.667.561-3.599 1.464l-.794 6.437c.914 1.473 2.532 2.462 4.393 2.462 2.862 0 5.182-2.32 5.182-5.182-.001-2.861-2.321-5.181-5.182-5.181z" fill="#ffd7e5"/><path d="m47.777 92.671c-1.154-.449-1.049-1.524-.774-2.323.181-.525.521-.979.97-1.305l-.283-15.742c-.667-3.046-1.328-6.269-1.862-8.947-.625-.192-1.238-.412-1.842-.648-.227-.089-.448-.188-.672-.283-.363-.154-.723-.31-1.077-.479-.283-.134-.561-.276-.838-.42-.269-.14-.534-.284-.797-.433-.323-.182-.642-.366-.956-.561-.166-.103-.327-.212-.49-.319-1.819-1.182-3.484-2.577-4.961-4.154-11.7 4.349-6.93 27.641-6.93 27.641l2.86 23.15c.15 1.27.84 2.44 1.84 3.18.2.15.42.3.65.46 1.03.69 2.38 1.42 3.96 1.88.2.06.41.12.63.17.75.17 1.55.28 2.4.3.56.01 1.09-.02 1.6-.08.17-.01.34-.04.5-.06 1.6-.24 2.94-.76 4-1.3.31-.17.61-.34.87-.5 1.11-.69 1.78-1.99 1.75-3.43l-.285-15.718c-.088-.023-.177-.045-.263-.079z" fill="#6dc9f7"/><path d="m73.436 56.798c-1.112 1.219-2.338 2.33-3.657 3.326-.119.09-.235.185-.355.273-.322.235-.654.457-.986.678-.219.146-.439.291-.663.431-.295.183-.594.36-.897.532-.286.163-.576.319-.868.472-.269.14-.538.28-.813.412-.366.175-.739.336-1.113.495-.222.094-.44.194-.665.282-.611.239-1.231.461-1.863.656-.221 1.107-.465 2.312-.721 3.555l-.408 22.594c.146.485.207 1.041-.027 1.496l-.297 16.473c-.026 1.437.646 2.735 1.749 3.422 1.502.935 3.887 1.992 6.977 1.94 3.31-.056 6.015-1.6 7.636-2.804.998-.741 1.686-1.913 1.843-3.186l2.856-23.151c-.003-.001 4.981-24.332-7.728-27.896z" fill="#6dc9f7"/><path d="m85.357 13.702c-1.361-2.213-3.857-3.539-6.672-3.539-1.752 0-3.495.512-5.04 1.481-1.996 1.26-3.582 3.225-4.4 5.418-4.383-3.142-9.75-4.997-15.554-4.997-5.783 0-11.133 1.843-15.507 4.964-.821-2.18-2.401-4.132-4.387-5.385-1.545-.969-3.288-1.481-5.04-1.481-2.815 0-5.311 1.326-6.672 3.539-2.302 3.721-.823 8.864 3.289 11.459 1.304.83 2.869 1.359 4.47 1.56-1.842 3.629-2.886 7.73-2.886 12.078 0 12.027 7.944 22.198 18.87 25.556 1.316 6.589 3.396 16.501 4.446 18.865 1.26 2.835-1.183 5.012-2.299 5.822-.45.326-.791.781-.972 1.307-.276.799-.381 1.874.774 2.323.911.354 1.951.09 2.688-.553l1.393-1.213c1.051-.916 2.616-.916 3.668 0l1.393 1.213c.737.642 1.777.907 2.688.553 1.154-.449 1.049-1.524.774-2.323-.181-.526-.522-.98-.972-1.307-1.116-.809-3.559-2.986-2.299-5.822 1.051-2.364 3.13-12.276 4.446-18.865 10.926-3.358 18.87-13.528 18.87-25.556 0-4.345-1.043-8.444-2.883-12.071 1.621-.195 3.207-.727 4.527-1.566 4.11-2.595 5.589-7.739 3.287-11.46z" fill="#6dc9f7"/><path d="m35.243 18.328c-1.782 1.502-3.296 3.284-4.463 5.272-1.301-.072-2.619-.477-3.679-1.152-2.637-1.664-3.661-4.822-2.281-7.053.775-1.26 2.254-2.015 3.938-2.015 1.149 0 2.298.342 3.332.99 1.496.944 2.627 2.446 3.153 3.958z" fill="#fa759e"/><path d="m72.199 18.328c1.782 1.502 3.296 3.284 4.463 5.272 1.301-.072 2.619-.477 3.679-1.152 2.637-1.664 3.661-4.822 2.281-7.053-.775-1.26-2.254-2.015-3.938-2.015-1.149 0-2.298.342-3.332.99-1.496.944-2.627 2.446-3.153 3.958z" fill="#fa759e"/><g fill="#3a2c60"><path d="m96.271 12.752c-1.091-1.183-2.776-1.466-4.195-.708-1.404.753-2.093 2.297-1.716 3.844 1.52 6.237 2.493 16.197-1.507 28.228-.369 1.106-1.255 2.997-1.941 4.293-.258.488-.072 1.093.416 1.352s1.094.072 1.352-.416c.702-1.326 1.649-3.331 2.071-4.598 4.15-12.48 3.135-22.84 1.553-29.332-.194-.797.243-1.353.718-1.606.485-.262 1.209-.319 1.78.3 6.57 7.127 13.845 19.662 11.188 38.905-1.863 13.498-8.003 23.969-14.487 31.584-.34-.695-.749-1.101-1.189-1.101-.969 0-1.786 1.965-2.045 4.653-.346.355-.692.709-1.035 1.049.017-.296.044-.585.044-.893 0-.147-.019-.302-.023-.45-.008-.335-.025-.662-.05-.98-.012-.142-.021-.283-.036-.427-.047-.466-.113-.907-.192-1.322-.552-3.161-1.875-6.577-3.839-9.906.086-5.299-.645-11.579-3.858-15.64.271-.203.547-.401.812-.611.434-.343.507-.971.166-1.404-.343-.434-.972-.507-1.405-.166-.312.246-.639.478-.959.716-.806-.709-1.725-1.308-2.778-1.761 3.931-4.785 6.31-10.891 6.31-17.554 0-3.947-.811-7.747-2.413-11.314 1.309-.302 2.532-.804 3.591-1.478 4.578-2.889 6.195-8.644 3.606-12.829-1.546-2.513-4.358-4.014-7.523-4.014-1.94 0-3.867.564-5.574 1.635-1.805 1.139-3.324 2.833-4.296 4.758-4.506-2.942-9.708-4.491-15.123-4.491-5.396 0-10.583 1.539-15.079 4.463-.973-1.913-2.487-3.597-4.284-4.731-1.704-1.068-3.63-1.633-5.571-1.633-3.166 0-5.978 1.501-7.522 4.013-2.59 4.186-.973 9.94 3.602 12.828 1.046.665 2.251 1.163 3.54 1.467-1.606 3.571-2.419 7.375-2.419 11.327 0 6.825 2.495 13.067 6.6 17.902-6.159 3.244-7.383 11.712-7.27 18.522-1.547 2.623-2.702 5.3-3.391 7.864-.543 1.173-.898 3.093-.898 5.269 0 .69.047 1.338.113 1.96-.36.136-.711.288-1.053.457.011-.265.021-.532.021-.807 0-3.573-.954-6.47-2.132-6.47s-2.132 2.896-2.132 6.47c0 1.425.157 2.73.414 3.799-1.731 2.055-2.778 4.703-2.778 7.594 0 6.512 5.297 11.81 11.809 11.81 2.123 0 4.112-.572 5.834-1.558.089.075.176.153.27.223 1.799 1.336 4.686 2.941 8.215 3.001.08.001.159.002.237.002 3.233 0 5.739-1.131 7.285-2.093 1.401-.872 2.252-2.516 2.22-4.293l-.114-5.076c1.648.045 3.316.07 5.003.07 1.686 0 3.353-.025 5-.07l-.112 5.08c-.032 1.772.819 3.416 2.221 4.289 1.546.961 4.052 2.092 7.285 2.092.079 0 .158-.001.237-.002 3.53-.06 6.416-1.665 8.215-3.001.094-.07.18-.147.269-.223 1.723.986 3.711 1.558 5.835 1.558 6.512 0 11.81-5.298 11.81-11.81 0-2.961-1.104-5.664-2.911-7.739.237-1.041.382-2.291.382-3.653 0-1.126-.095-2.185-.262-3.107 6.99-7.924 13.783-19.05 15.788-33.573 2.762-20.02-4.838-33.094-11.7-40.537zm-12.016 69.711c-.74 1.015-1.256 3.269-1.256 5.894 0 .412.015.812.04 1.201-.339.004-.672.027-1.003.06.027-.408.044-.828.044-1.261 0-.708-.049-1.375-.118-2.012l.179-1.451c.062-.302.513-2.591.789-5.764.527 1.119.969 2.233 1.325 3.333zm-53.519-55.29c.147-.29.144-.634-.008-.921-.153-.288-.436-.482-.759-.523-1.5-.188-2.904-.677-4.061-1.413-3.654-2.306-4.987-6.83-2.97-10.089 1.179-1.918 3.355-3.063 5.82-3.063 1.564 0 3.123.459 4.506 1.326 1.785 1.127 3.238 2.91 3.985 4.893.109.291.348.514.645.604.295.088.619.037.872-.144 4.38-3.126 9.542-4.778 14.926-4.778 5.405 0 10.581 1.663 14.971 4.81.253.182.576.233.874.145.298-.091.537-.315.646-.607.744-1.994 2.201-3.788 3.994-4.92 1.386-.869 2.945-1.328 4.509-1.328 2.465 0 4.641 1.145 5.82 3.063 0 .001.001.002.001.003 2.015 3.256.682 7.78-2.975 10.088-1.169.744-2.59 1.234-4.109 1.417-.324.039-.608.234-.762.521-.154.288-.158.633-.01.924 1.841 3.631 2.775 7.54 2.775 11.619 0 10.741-6.621 19.953-15.991 23.802l1.966-4.671c.214-.509-.024-1.095-.533-1.31-.511-.212-1.095.024-1.31.534l-2.973 7.061c-.026.062-.046.126-.059.191-2.033 10.161-3.57 16.698-4.33 18.407-1.082 2.433-.1 5.063 2.625 7.036.288.21.501.495.615.825.301.873.018.983-.19 1.064-.521.199-1.176.055-1.669-.375l-1.393-1.213c-1.419-1.236-3.561-1.236-4.981 0l-1.393 1.213c-.494.43-1.15.575-1.669.374-.208-.08-.491-.19-.19-1.063.114-.33.327-.615.613-.824 2.726-1.974 3.708-4.604 2.626-7.037-.771-1.734-2.409-8.743-4.493-19.228-.015-.074-.038-.146-.069-.215l-2.81-6.239c-.227-.504-.818-.728-1.322-.502-.503.228-.728.819-.501 1.322l2.121 4.71c-9.456-3.809-16.155-13.06-16.155-23.863-.003-4.081.931-7.994 2.775-11.626zm-4.464 57.641.105.853c-.124.819-.196 1.727-.196 2.689 0 .43.017.846.044 1.251-.318-.028-.636-.058-.962-.058-.013 0-.026.002-.039.002.025-.388.039-.786.039-1.195 0-2.491-.465-4.65-1.144-5.731.363-1.149.824-2.317 1.376-3.489.273 3.144.719 5.4.777 5.678zm-10.819 16.544c0-5.408 4.4-9.809 9.809-9.809.638 0 1.259.068 1.863.185l2.002 16.231c.09.73.325 1.429.673 2.061-1.36.717-2.897 1.141-4.538 1.141-5.409.001-9.809-4.4-9.809-9.809zm30.594 9.687c-.128.079-.27.16-.412.241-.242-2.76-1.012-4.789-1.932-4.789-1.067 0-1.938 2.739-2.004 6.184-.159.026-.327.041-.492.061-.057-3.475-.931-6.245-2.005-6.245-1.048 0-1.908 2.639-2.001 5.997-.218-.056-.435-.112-.645-.179-.118-3.272-.965-5.818-1.995-5.818-.811 0-1.508 1.581-1.826 3.855-.058-.042-.123-.085-.178-.126-.784-.583-1.325-1.52-1.446-2.506l-2.869-23.229c-.046-.226-4.291-21.667 5.725-26.251 3.04 3.081 6.79 5.45 10.987 6.849 1.487 7.42 3.379 16.228 4.405 18.536.929 2.091-.836 3.783-1.973 4.606-.622.451-1.081 1.07-1.33 1.79-.518 1.503-.166 2.726.928 3.368l.339 15.1c.021 1.074-.469 2.054-1.276 2.556zm8.166-9.601c-1.745 0-3.418-.027-5.048-.072l-.17-7.575c.757-.077 1.504-.383 2.127-.926l1.393-1.213c.671-.584 1.683-.584 2.354 0l1.393 1.213c.91.792 2.08 1.107 3.164.886l-.168 7.615c-1.629.046-3.301.072-5.045.072zm21.654 8.783c-.086.064-.186.13-.277.195-.313-2.314-1.018-3.925-1.837-3.925-1.032 0-1.882 2.562-1.996 5.849-.21.065-.424.125-.643.179-.089-3.373-.95-6.028-2.001-6.028-1.072 0-1.946 2.764-2.004 6.233-.166-.021-.332-.043-.492-.071-.069-3.436-.938-6.163-2.003-6.163-.913 0-1.68 1.998-1.927 4.727-.103-.06-.211-.12-.306-.179-.808-.503-1.297-1.482-1.278-2.551l.363-16.547c.096-.388.113-.816.028-1.281l.005-.204c.006-.285-.11-.542-.297-.728-.264-.595-.67-1.114-1.206-1.503-1.135-.822-2.901-2.515-1.971-4.605 1.034-2.327 2.953-11.297 4.405-18.536 4.333-1.444 8.189-3.922 11.279-7.15 10.973 3.84 6.523 26.322 6.463 26.63l-2.855 23.151c-.125.988-.666 1.925-1.45 2.507zm7.296.941c-1.641 0-3.178-.424-4.538-1.141.349-.633.583-1.331.674-2.061l1.999-16.231c.605-.117 1.227-.185 1.865-.185 5.409 0 9.81 4.4 9.81 9.809 0 5.408-4.4 9.809-9.81 9.809z"/><path d="m82.532 54.107s-.001 0-.001.001c-.366.374-.742.741-1.126 1.102-.403.377-.424 1.01-.046 1.413.197.21.463.316.73.316.245 0 .491-.09.684-.271.406-.38.802-.767 1.188-1.16 0 0 .001-.001.001-.001 1.097-1.122 2.096-2.293 2.968-3.477.327-.445.232-1.071-.213-1.398-.445-.326-1.07-.231-1.398.213-.818 1.108-1.755 2.206-2.787 3.262z"/><path d="m49.041 54.307c.135.034 2.287.567 4.959.567 1.39 0 2.92-.145 4.38-.579.529-.157.831-.714.673-1.243-.158-.53-.716-.831-1.244-.673-3.73 1.109-8.233 0-8.278-.012-.535-.136-1.079.188-1.214.725-.134.536.189 1.08.724 1.215z"/><path d="m57.271 59.997c-3.242.962-7.161-.002-7.199-.012-.537-.134-1.079.188-1.214.725-.135.535.188 1.079.724 1.215.119.03 2.02.502 4.382.502 1.23 0 2.585-.128 3.878-.514.529-.157.831-.714.673-1.243-.158-.531-.716-.83-1.244-.673z"/><path d="m56.742 66.929c-2.757.82-6.109-.003-6.143-.012-.538-.134-1.079.19-1.214.726-.135.535.188 1.078.724 1.214.104.026 1.759.437 3.817.437 1.073 0 2.256-.111 3.386-.448.529-.157.831-.714.673-1.243-.157-.532-.713-.832-1.243-.674z"/><path d="m41.972 34.155c1.455 0 2.634-1.191 2.634-2.66s-1.179-2.66-2.634-2.66-2.634 1.191-2.634 2.66c0 1.47 1.179 2.66 2.634 2.66z"/><path d="m65.47 34.155c1.455 0 2.634-1.191 2.634-2.66s-1.179-2.66-2.634-2.66-2.634 1.191-2.634 2.66c.001 1.47 1.18 2.66 2.634 2.66z"/></g><ellipse cx="39.132" cy="37.848" fill="#ffd7e5" rx="1.548" ry="1.055"/><ellipse cx="68.31" cy="37.848" fill="#ffd7e5" rx="1.548" ry="1.055"/></svg>