<svg id="Layer_1" enable-background="new 0 0 128 128" height="512" viewBox="0 0 128 128" width="512" xmlns="http://www.w3.org/2000/svg"><path d="m116.866 91.388c-.136-.234-.36-.404-.622-.47-.585-.147-14.002-3.42-25.784 2.098-.317-1.687-.74-3.411-1.296-5.174-.437-1.556-.918-2.893-1.431-3.973-.002-.004-.005-.009-.007-.014-2.854-7.021-7.353-13.927-12.353-18.957-.408-.411-.821-.877-1.235-1.365.956-.743 19.312-15.661 19.312-15.661.266-.225.396-.571.343-.915-.077-.508-1.028-6.586-3.105-13.443 6.497-9.857 2.33-22.364 2.138-22.925-.145-.419-.547-.675-.99-.674-3.319.147-11.819.72-16.769 2.813-10.365-2.932-29.439-2.741-38.668.572-4.984-2.252-13.206-3.261-16.456-3.584-.461-.045-.91.243-1.053.694-.197.627-4.65 15.17 3.074 25.212-1.653 5.953-2.422 10.88-2.491 11.335-.053.344.077.69.343.915.606.511 9.301 7.845 18.252 14.841-.644.81-1.284 1.551-1.915 2.185-9.328 9.384-19.851 29.165-14.074 43.795.217.718 1.548 4.421 2.679 6.728-3.747 1.285-5.719 4.299-5.583 8.611.017.54.459.969.999.969h71.84c.54 0 .982-.429.999-.969.066-2.092-.373-3.873-1.262-5.305 2.849-1.052 5.689-2.374 8.459-3.974 12.22-7.055 16.573-21.96 16.753-22.591.073-.261.038-.54-.097-.774z" fill="#e6e7e8"/><path d="m83.97 88.655c.448 2.958.537 5.883.148 8.675-.124 2.279-.441 4.469-1.007 6.411-.696 2.386-1.69 4.549-2.884 6.449 1.443.319 3.011.958 4.192 2.207 3.08-1.043 6.325-2.495 9.564-4.365 12.009-6.933 16.291-21.999 16.291-21.999s-14.449-3.634-26.304 2.622z" fill="#6dc9f7"/><path d="m110.274 86.033s-12.115-3.044-23.261 1.244c.435 1.844-.721 6.624-.721 6.624s9.256-1.559 9.987-.525c.778 1.099-5.078 8.347-5.078 8.347s5.895 1.977 8.459 1.977c7.712-7.477 10.614-17.667 10.614-17.667z" fill="#d4fbff"/><path d="m28.078 9.778c.695-.462 1.561-.881 2.552-1.263-5.513-2.564-16.513-3.659-16.513-3.659s-4.712 14.954 3.231 24.706c2.114-7.468 5.591-16.367 10.73-19.784z" fill="#fff"/><path d="m73.735 9.778c4.672 3.106 7.97 10.744 10.12 17.719 6.682-9.64 2.299-22.439 2.299-22.439s-11.334.503-16.737 2.858c1.757.525 3.238 1.144 4.318 1.862z" fill="#fff"/><path d="m28.078 9.778c.028-.019.062-.035.091-.054-5.278-1.292-11.052-1.869-11.052-1.869s-3.493 11.093.61 20.402c2.142-7.171 5.508-15.259 10.351-18.479z" fill="#0089ef"/><path d="m84.789 30.727 1.025 1.149c8.168-9.747 3.341-23.818 3.341-23.818s-9.036.401-14.819 2.163c5.072 3.89 8.456 13.113 10.453 20.506z" fill="#0089ef"/><path d="m80.227 110.189c1.195-1.899 2.189-4.063 2.884-6.449.566-1.941.884-4.132 1.007-6.411.668-4.801-.041-9.992-1.644-15.073-.412-1.47-.876-2.771-1.371-3.814l-.002.002c-2.931-7.24-7.476-13.982-12.163-18.697-.651-.655-1.304-1.408-1.958-2.228-5.533 4.276-10.94 8.223-14.333 10.119-1.083.6-2.398.6-3.481 0-3.615-2.019-9.515-6.366-15.419-10.96-.874 1.151-1.745 2.196-2.614 3.069-9.939 9.999-19.258 29.114-13.837 42.764.102.413 2.013 5.778 3.208 7.677-2.866.633-6.229 2.526-6.059 7.955h71.84c.171-5.428-3.193-7.32-6.058-7.954z" fill="#6dc9f7"/><path d="m65.833 111.339c-.001-.017-.002-.033-.004-.049-.122-1.664-.309-3.281-.547-4.849h-1.513c-1.483 0-2.686-1.203-2.686-2.686v-11.11c-2.671-5.151-6.216-8.296-10.11-8.296-3.969 0-7.578 3.262-10.265 8.59v10.816c0 1.483-1.202 2.686-2.686 2.686h-1.359c-.233 1.529-.416 3.105-.538 4.725-.004.051-.008.104-.011.16-.212 3.146 2.288 5.822 5.442 5.822h18.835c3.15-.001 5.664-2.667 5.442-5.809z" fill="#d4fbff"/><path d="m87.079 41.252s-3.825-25.145-13.344-31.474c-8.027-5.336-37.631-5.336-45.657 0-9.519 6.329-13.344 31.474-13.344 31.474s24.999 21.118 34.432 26.387c1.083.6 2.398.6 3.481 0 9.434-5.27 34.432-26.387 34.432-26.387z" fill="#6dc9f7"/><path d="m21.296 18.734c-3.739 7.835-5.732 17.79-6.348 21.253.174.632.364 1.273.564 1.918 3.772 3.163 20.587 17.167 30.272 23.627.709-6.14-1.185-15.316-5.538-24.738-5.442-11.779-13.081-20.384-18.95-22.06z" fill="#d4fbff"/><path d="m80.114 18.734c3.739 7.835 5.732 17.79 6.348 21.253-.174.632-.364 1.273-.564 1.918-3.392 3.502-20.435 17.304-30.272 23.627-.709-6.14 1.185-15.316 5.538-24.738 5.442-11.779 13.082-20.384 18.95-22.06z" fill="#d4fbff"/><g fill="#3a2c60"><path d="m111.14 85.533c-.136-.234-.36-.404-.622-.47-.585-.147-14.001-3.413-25.783 2.105-.317-1.689-.74-3.416-1.297-5.182-.437-1.556-.918-2.893-1.431-3.973-.002-.004-.005-.009-.007-.014-2.854-7.021-7.353-13.927-12.353-18.957-.408-.41-.82-.877-1.234-1.366.956-.743 1.945-1.517 2.97-2.326.433-.342.507-.971.165-1.404s-.971-.507-1.405-.165c-6.071 4.793-10.896 8.391-14.429 10.762h-9.611c-9.942-6.68-27.325-21.201-30.29-23.691.626-3.683 4.535-24.736 12.818-30.242 7.704-5.121 36.848-5.12 44.55 0 8.284 5.507 12.193 26.56 12.819 30.243-.858.721-2.931 2.457-5.686 4.722-.427.351-.488.981-.138 1.408.349.425.98.488 1.407.137 3.676-3.021 6.141-5.104 6.141-5.104.266-.225.396-.571.343-.915-.077-.508-1.029-6.59-3.107-13.451 6.493-9.856 2.332-22.357 2.14-22.918-.145-.419-.547-.675-.99-.674-3.318.147-11.802.726-16.751 2.819-10.365-2.937-29.467-2.747-38.698.571-4.983-2.252-13.195-3.264-16.445-3.588-.461-.045-.91.243-1.053.694-.197.627-4.65 15.17 3.074 25.212-1.653 5.953-2.422 10.88-2.491 11.335-.053.344.077.69.343.915.606.511 9.3 7.844 18.251 14.84-.644.811-1.283 1.552-1.914 2.187-9.328 9.384-19.851 29.165-14.074 43.795.217.718 1.548 4.421 2.679 6.728-3.747 1.285-5.719 4.299-5.583 8.611.017.54.459.969.999.969h71.84c.54 0 .982-.429.999-.969.066-2.095-.374-3.877-1.264-5.31 2.85-1.051 5.691-2.368 8.462-3.969 12.22-7.055 16.573-21.96 16.753-22.591.073-.261.037-.54-.097-.774zm-25.718-79.438c.708 2.548 2.686 11.437-1.289 18.973-2.203-6.509-5.412-13.177-9.844-16.124-.53-.352-1.15-.681-1.846-.988 3.43-.922 8.242-1.605 12.979-1.861zm-70.566-.157c4.853.532 9.8 1.503 13.255 2.656-.202.115-.406.23-.587.35-4.939 3.284-8.362 11.19-10.563 18.345-5.001-7.878-2.851-18.42-2.105-21.351zm.602 111.207c.194-3.24 1.961-5.25 5.264-5.979.003-.001.006-.004.009-.004.004-.001.008 0 .011 0 .018-.004 1.987-.442 3.421.654.182.139.395.206.606.206.301 0 .599-.135.796-.393.335-.439.251-1.066-.188-1.402-1.532-1.171-3.337-1.216-4.34-1.125-1.107-2.087-2.641-6.357-2.769-6.829-.011-.044-.024-.088-.041-.131-5.479-13.794 4.664-32.683 13.616-41.69.697-.701 1.387-1.499 2.077-2.366 5.662 4.382 11.242 8.462 14.761 10.427.696.386 1.46.579 2.225.579s1.53-.193 2.229-.581c2.908-1.624 7.504-4.85 13.695-9.611.465.551.931 1.08 1.399 1.552 4.835 4.865 9.189 11.56 11.945 18.367.017.041.035.08.057.118.453.967.884 2.174 1.289 3.62 1.678 5.319 2.218 10.243 1.599 14.719-.125 2.33-.451 4.411-.968 6.184-.587 2.012-1.421 3.908-2.46 5.66-1.12-.077-3.268-.02-4.696 1.314-.403.377-.425 1.01-.048 1.413.196.211.463.317.73.317.245 0 .49-.089.683-.27.987-.924 2.902-.849 3.643-.734.003.001.005.003.007.004 3.303.729 5.069 2.739 5.264 5.979h-69.816zm78.024-9.98c-2.887 1.667-5.848 3.041-8.811 4.086-.118-.105-.247-.199-.373-.297-.053-.042-.104-.086-.159-.126-.31-.229-.642-.437-.993-.627-.073-.039-.149-.076-.224-.114-.372-.188-.758-.361-1.173-.506.971-1.737 1.75-3.602 2.321-5.561.56-1.921.911-4.154 1.037-6.553.087-.628.149-1.267.193-1.913.005-.08.005-.162.01-.242.035-.596.053-1.199.051-1.809 0-.023-.001-.046-.001-.069-.006-1.369-.108-2.776-.298-4.215 9.432-4.657 20.503-3.087 23.916-2.438-1.2 3.451-5.752 14.76-15.496 20.384z"/><path d="m40.708 81.231c-.553 0-1 .448-1 1v21.523c0 .93-.757 1.686-1.687 1.686h-1.179v-3.322c0-.552-.447-1-1-1s-1 .448-1 1v3.322h-2.814v-3.322c0-.552-.447-1-1-1s-1 .448-1 1v3.322h-3.846c-.014 0-.03 0-.047.001-.351-.686-.169-3.466-.007-5.931.338-5.184.851-13.017-1.27-20.789-.146-.534-.698-.845-1.228-.702-.533.146-.848.695-.702 1.228 2.032 7.45 1.553 14.78 1.203 20.132-.276 4.224-.429 6.551.674 7.589.243.229.645.481 1.229.481.064 0 .131-.003.2-.01h11.785c2.033 0 3.687-1.653 3.687-3.686v-21.522c.002-.552-.445-1-.998-1z"/><path d="m75.754 107.45c.585 0 .986-.252 1.229-.481 1.103-1.039.95-3.365.674-7.589-.35-5.352-.829-12.682 1.203-20.131.146-.533-.169-1.083-.702-1.228-.528-.144-1.082.167-1.228.702-2.12 7.772-1.607 15.605-1.269 20.788.161 2.466.343 5.247-.008 5.932-.016 0-.031-.001-.047-.001h-3.846v-3.322c0-.552-.447-1-1-1s-1 .448-1 1v3.322h-2.814v-3.322c0-.552-.447-1-1-1s-1 .448-1 1v3.322h-1.179c-.93 0-1.686-.756-1.686-1.686v-21.525c0-.552-.447-1-1-1s-1 .448-1 1v21.523c0 2.033 1.653 3.686 3.686 3.686h11.785c.071.007.137.01.202.01z"/><circle cx="31.692" cy="41.213" r="2.499"/><circle cx="70.125" cy="41.213" r="2.499"/><path d="m76.958 48.317c-1.076.875-2.209 1.789-3.374 2.725-.431.346-.5.975-.154 1.406.198.246.488.374.781.374.219 0 .44-.072.625-.22 1.169-.938 2.304-1.855 3.384-2.732.429-.348.493-.978.146-1.406-.349-.43-.978-.496-1.408-.147z"/></g></svg>