<svg id="Layer_1" enable-background="new 0 0 128 128" height="512" viewBox="0 0 128 128" width="512" xmlns="http://www.w3.org/2000/svg"><path d="m92.104 61.359c3.814-5.539 6.084-12.36 6.084-19.54 0-7.091-2.211-13.634-5.94-18.898-.055-.104-.112-.206-.168-.31 2.286-1.83 3.756-4.638 3.756-7.787 0-5.501-4.476-9.977-9.977-9.977-3.343 0-6.301 1.658-8.112 4.19-3.752-1.736-7.89-2.705-12.24-2.705s-8.488.969-12.24 2.705c-1.811-2.531-4.769-4.19-8.112-4.19-5.501 0-9.977 4.476-9.977 9.977 0 3.149 1.47 5.958 3.756 7.788-2.607 4.774-4.107 10.307-4.107 16.207 0 7.852 2.601 15.176 6.883 20.979-5.375 4.397-18.619 17.263-17.644 36.643.147 2.668 1.436 7.374 5.142 8.478-.716 4.353.759 9.749 4.362 14.382 2.708 3.483 6.202 6.037 9.839 7.19 1.394.442 2.748.661 4.031.661 2.187 0 4.167-.636 5.777-1.889.996-.774 1.779-1.745 2.361-2.855 1.595-1.363 2.825-3.336 3.583-5.624 2.11.313 4.403.488 6.91.488 3.804 0 7.128-.394 10.038-1.08.73 2.525 2.022 4.714 3.739 6.193.595 1.129 1.391 2.103 2.387 2.878h.001c1.627 1.265 3.616 1.864 5.757 1.864 4.648 0 10.006-2.83 13.891-7.827 4.199-5.402 5.512-11.841 3.823-16.452 1.508-1.922 2.126-4.622 2.226-6.413.878-17.444-9.774-29.614-15.829-35.076z" fill="#e6e7e8"/><path d="m61.508 3.332c-16.392 0-29.68 14.097-29.68 31.487s13.288 32.696 29.68 32.696 29.68-15.306 29.68-32.696-13.289-31.487-29.68-31.487z" fill="#fff"/><path d="m85.644 56.545c3.485-5.387 5.543-11.893 5.543-18.726 0-17.39-13.288-31.487-29.68-31.487s-29.68 14.097-29.68 31.487c0 7.057 2.188 13.77 5.884 19.256-5.573 4.679-17.57 16.952-16.647 35.31 0 0 .416 7.261 5.328 7.728-1.109 4.2.247 9.788 3.967 14.573 5.344 6.874 13.513 9.465 18.244 5.786.936-.728 1.659-1.652 2.189-2.71 1.685-1.379 2.969-3.555 3.661-6.1 2.322.394 4.852.609 7.618.609 4.07 0 7.637-.458 10.761-1.287.638 2.834 1.997 5.276 3.829 6.776.53 1.059 1.253 1.984 2.19 2.712 4.732 3.679 12.9 1.088 18.244-5.786 4.166-5.358 5.367-11.723 3.459-16.016 2.145-2.254 2.38-6.285 2.38-6.285.961-19.101-12.066-31.614-17.29-35.84z" fill="#fa759e"/><path d="m36.227 18.323c3.022-5.202 7.431-9.398 12.68-12.014-1.557-2.666-4.44-4.462-7.75-4.462-4.958 0-8.977 4.019-8.977 8.977-.001 3.137 1.61 5.894 4.047 7.499z" fill="#fa759e"/><path d="m38.591 14.81c1.904-2.452 4.155-4.587 6.667-6.334-.819-1.426-2.339-2.397-4.102-2.397-2.622 0-4.747 2.125-4.747 4.747 0 1.674.872 3.139 2.182 3.984z" fill="#ffd7e5"/><path d="m86.789 18.323c2.437-1.605 4.047-4.362 4.047-7.498 0-4.958-4.019-8.977-8.977-8.977-3.31 0-6.193 1.796-7.75 4.462 5.249 2.615 9.658 6.811 12.68 12.013z" fill="#fa759e"/><path d="m84.424 14.81c1.31-.845 2.182-2.31 2.182-3.985 0-2.622-2.125-4.747-4.747-4.747-1.762 0-3.283.971-4.102 2.397 2.513 1.748 4.763 3.883 6.667 6.335z" fill="#ffd7e5"/><path d="m63.278 32.757h-3.541c-5.488 0-9.937 4.449-9.937 9.937v11.816c0 3.343 2.71 6.053 6.053 6.053h11.308c3.343 0 6.053-2.71 6.053-6.053v-11.816c.001-5.488-4.448-9.937-9.936-9.937z" fill="#ffd7e5"/><path d="m103.04 81.764c-.121-.539-.656-.876-1.193-.759-.539.12-.879.654-.76 1.193.735 3.306 1.021 6.717.85 10.13-.004.069-.446 6.829-4.83 6.828-.035 0-.07 0-.105-.001-5.039-.123-6.979-5.877-9.225-12.541-1.845-5.475-3.753-11.136-7.736-14.531-.42-.357-1.052-.309-1.409.113-.358.42-.309 1.051.112 1.41 3.562 3.036 5.38 8.43 7.138 13.647.778 2.309 1.545 4.571 2.446 6.582-3.275 1.2-6.547 3.56-9.155 6.915-2.708 3.483-4.321 7.499-4.543 11.308-.023.4-.02.788-.013 1.174-.982-2.288-1.407-5.082-1.078-7.834.065-.548-.326-1.046-.875-1.112-.553-.059-1.046.327-1.111.875-.205 1.719-.156 3.438.114 5.07-2.89.674-6.072 1.04-9.593 1.04-2.267 0-4.392-.154-6.397-.436.366-1.815.459-3.752.226-5.69-.065-.548-.566-.938-1.112-.873-.548.066-.939.564-.873 1.112.335 2.784-.099 5.611-1.102 7.915.102-3.977-1.418-8.548-4.529-12.55-2.708-3.483-6.202-6.037-9.839-7.19-.826-.262-1.634-.431-2.424-.531.753-1.803 1.422-3.771 2.098-5.776 1.758-5.217 3.576-10.611 7.138-13.647.42-.358.471-.99.113-1.41-.358-.421-.991-.471-1.41-.113-3.983 3.395-5.892 9.056-7.737 14.53-2.246 6.664-4.185 12.418-9.225 12.541-.036 0-.07.001-.105.001-4.382 0-4.825-6.759-4.829-6.822-.892-17.745 10.779-29.796 16.235-34.428-.39-.542-.764-1.098-1.123-1.665-5.668 4.778-18.053 17.438-17.11 36.199.147 2.661 1.428 7.352 5.112 8.471-.16.968-.214 1.998-.151 3.081.221 3.809 1.834 7.825 4.542 11.308 3.886 4.998 9.242 7.827 13.891 7.827 2.14 0 4.131-.601 5.757-1.865.996-.774 1.779-1.745 2.361-2.855 1.597-1.365 2.828-3.341 3.585-5.632 2.111.314 4.398.496 6.908.496 3.812 0 7.117-.413 10.03-1.102.729 2.535 2.024 4.733 3.747 6.216.595 1.128 1.391 2.102 2.387 2.877 1.611 1.252 3.591 1.889 5.777 1.889 1.283 0 2.638-.219 4.031-.661 3.637-1.154 7.131-3.708 9.839-7.19s4.321-7.499 4.543-11.308c.11-1.9-.153-3.626-.72-5.143 1.508-1.922 2.127-4.623 2.226-6.414.18-3.597-.121-7.187-.894-10.669zm-55.05 37.92c-4.289 3.334-11.844.817-16.841-5.611-2.462-3.167-3.927-6.788-4.125-10.196-.056-.972.004-1.884.158-2.734 3.859-.152 6.198-2.673 7.97-6.208.861.065 1.761.24 2.687.533 3.255 1.032 6.403 3.345 8.865 6.511 4.998 6.428 5.575 14.371 1.286 17.705zm52.44-15.807c-.198 3.409-1.663 7.03-4.124 10.196-2.462 3.167-5.61 5.479-8.865 6.511-3.122.991-5.955.67-7.976-.9h-.001c-2.021-1.571-3.029-4.237-2.839-7.508.197-3.409 1.662-7.03 4.124-10.197 2.435-3.131 5.475-5.318 8.449-6.368 1.752 3.218 4.063 5.454 7.753 5.544.055.001.109.002.164.002 1.173 0 2.154-.32 2.982-.836.29 1.071.408 2.264.333 3.556z" fill="#3a2c60"/><path d="m99.855 77.882c.145.412.531.671.944.671.109 0 .221-.018.329-.056.521-.182.797-.752.615-1.274-.933-2.672-2.167-5.313-3.67-7.85-.28-.475-.892-.632-1.37-.351-.475.281-.632.895-.351 1.37 1.437 2.423 2.614 4.943 3.503 7.49z" fill="#3a2c60"/><path d="m86.186 55.691c-.349.577-.718 1.14-1.099 1.692 2.138 1.74 5.573 4.869 8.769 9.231.196.268.5.409.808.409.205 0 .412-.063.59-.193.445-.326.542-.952.216-1.397-3.436-4.69-7.066-7.96-9.284-9.742z" fill="#3a2c60"/><path d="m61.508 68.515c16.629 0 30.679-15.431 30.679-33.696 0-5.903-1.502-11.439-4.112-16.215 2.364-1.888 3.761-4.727 3.761-7.78 0-5.501-4.476-9.977-9.978-9.977-3.22 0-6.236 1.594-8.098 4.196-3.756-1.74-7.898-2.712-12.253-2.712s-8.497.972-12.253 2.712c-1.863-2.601-4.879-4.196-8.098-4.196-5.501 0-9.977 4.476-9.977 9.977 0 3.054 1.397 5.893 3.76 7.78-2.61 4.776-4.112 10.311-4.112 16.214.001 18.266 14.051 33.697 30.681 33.697zm14.055-62.574c1.501-1.929 3.829-3.093 6.296-3.093 4.398 0 7.978 3.579 7.978 7.977 0 2.338-1.018 4.526-2.765 6.034-.565-.901-1.18-1.757-1.822-2.589-.039-.05-.076-.101-.115-.15-.299-.383-.606-.757-.92-1.125-.007-.008-.014-.016-.021-.024-.988-1.151-2.05-2.224-3.182-3.211 0 0-.001-.001-.001-.001-.359-.314-.726-.618-1.099-.915-.059-.047-.119-.092-.178-.139-.996-.779-2.036-1.495-3.12-2.145-.236-.142-.471-.284-.711-.419-.114-.064-.224-.137-.34-.2zm14.624 28.878c0 17.181-13.134 31.696-28.679 31.696-15.546 0-28.68-14.515-28.68-31.696 0-16.811 12.866-30.487 28.68-30.487 15.814 0 28.679 13.677 28.679 30.487zm-54.244-17.96c-1.747-1.507-2.764-3.696-2.764-6.034 0-4.398 3.579-7.977 7.977-7.977 2.467 0 4.795 1.164 6.296 3.093-.116.063-.227.137-.342.202-.238.135-.472.275-.707.416-1.086.651-2.128 1.368-3.125 2.149-.058.046-.117.09-.175.137-.373.296-.74.601-1.099.915-.001.001-.001.001-.002.002-1.129.986-2.189 2.056-3.176 3.205-.01.011-.019.022-.029.033-.313.365-.618.738-.915 1.118-.041.052-.081.106-.121.159-.64.828-1.254 1.683-1.818 2.582z" fill="#3a2c60"/><path d="m60.508 37.575v14.161c0 2.154-1.753 3.907-3.907 3.907s-3.907-1.753-3.907-3.907c0-.552-.448-1-1-1s-1 .448-1 1c0 3.257 2.65 5.907 5.907 5.907 2.043 0 3.846-1.043 4.907-2.623 1.061 1.581 2.864 2.623 4.907 2.623 3.257 0 5.907-2.65 5.907-5.907 0-.552-.447-1-1-1s-1 .448-1 1c0 2.154-1.753 3.907-3.907 3.907s-3.907-1.753-3.907-3.907v-14.161l4.358-4.358c.28-.28.082-.76-.315-.76h-10.087c-.396 0-.595.479-.315.76z" fill="#3a2c60"/><path d="m52.175 26.602c1.312 0 2.375-1.063 2.375-2.375s-1.063-2.375-2.375-2.375-2.375 1.063-2.375 2.375 1.064 2.375 2.375 2.375z" fill="#3a2c60"/><path d="m70.84 26.602c1.312 0 2.375-1.063 2.375-2.375s-1.063-2.375-2.375-2.375-2.375 1.063-2.375 2.375 1.063 2.375 2.375 2.375z" fill="#3a2c60"/><g fill="#ffd7e5"><circle cx="76.757" cy="42.465" r=".724"/><circle cx="81.409" cy="44.593" r=".724"/><circle cx="81.031" cy="40.104" r=".724"/><circle cx="46.533" cy="42.465" r=".724"/><circle cx="41.88" cy="44.593" r=".724"/><circle cx="42.258" cy="40.104" r=".724"/><path d="m71.082 69.06c-.106-.083-.222-.153-.331-.233-2.91 1.087-6.015 1.688-9.243 1.688-2.951 0-5.799-.503-8.49-1.418-6.458 5.109-11.414 21.964 9.054 21.964 20.515 0 15.49-16.934 9.01-22.001z"/><ellipse cx="42.243" cy="113.075" rx="6.345" ry="6.743" transform="matrix(.84 -.542 .542 .84 -54.575 40.986)"/><path d="m31.058 104.682c-1.163 0-2.106.943-2.106 2.106s.943 2.106 2.106 2.106 2.106-.943 2.106-2.106-.943-2.106-2.106-2.106z"/><path d="m36.796 102.576c0-1.163-.943-2.106-2.106-2.106s-2.106.943-2.106 2.106.943 2.106 2.106 2.106 2.106-.943 2.106-2.106z"/><path d="m39.246 102.576c1.163 0 2.106-.943 2.106-2.106s-.943-2.106-2.106-2.106-2.106.943-2.106 2.106.943 2.106 2.106 2.106z"/><ellipse cx="85.212" cy="113.075" rx="6.743" ry="6.345" transform="matrix(.542 -.84 .84 .542 -56.003 123.343)"/><path d="m96.397 104.682c-1.163 0-2.106.943-2.106 2.106s.943 2.106 2.106 2.106 2.106-.943 2.106-2.106c-.001-1.163-.943-2.106-2.106-2.106z"/><path d="m92.765 100.47c-1.163 0-2.106.943-2.106 2.106s.943 2.106 2.106 2.106 2.106-.943 2.106-2.106-.943-2.106-2.106-2.106z"/><path d="m88.209 102.576c1.163 0 2.106-.943 2.106-2.106s-.943-2.106-2.106-2.106-2.106.943-2.106 2.106.943 2.106 2.106 2.106z"/></g></svg>