<svg id="Layer_1" enable-background="new 0 0 128 128" height="512" viewBox="0 0 128 128" width="512" xmlns="http://www.w3.org/2000/svg"><path d="m101.547 85.259h-19.786c-.577-10.566-5.154-20.684-9.554-28.115 2.943-2.057 5.009-4.656 6.179-7.792h5.815c.573 0 1.038-.464 1.038-1.038s-.465-1.038-1.038-1.038h-5.198c.141-.597.254-1.21.339-1.841h4.859c.573 0 1.038-.464 1.038-1.038s-.465-1.038-1.038-1.038h-4.679c.022-.6.022-1.214-.003-1.841h4.681c.573 0 1.038-.464 1.038-1.038s-.465-1.038-1.038-1.038h-4.835c-.635-5.627-3.722-8.869-5.977-11.237-.361-.379-.707-.742-1.027-1.097-.04-.044-.067-.102-.104-.148 1.638-.182 3.381-.758 4.617-2.2 1.603-1.87 2.394-6.556 1.63-9.643-.45-1.817-1.394-3.056-2.728-3.584-4.584-1.814-8.269.104-10.62 2.46-4.592-3.439-13.386-3.064-13.675-3.05-.383-.016-8.954-.381-13.593 2.911-2.356-2.291-5.989-4.097-10.482-2.32-1.335.528-2.278 1.767-2.728 3.584-.765 3.087.027 7.773 1.63 9.643 1.162 1.355 2.771 1.948 4.32 2.166-.045.058-.079.128-.128.182-.32.356-.666.718-1.027 1.097-2.255 2.368-5.342 5.61-5.977 11.237h-4.622c-.573 0-1.038.464-1.038 1.038s.465 1.038 1.038 1.038h4.469c-.024.627-.024 1.241-.003 1.841h-4.467c-.573 0-1.038.464-1.038 1.038s.465 1.038 1.038 1.038h4.647c.084.631.198 1.244.339 1.841h-4.986c-.573 0-1.038.464-1.038 1.038s.465 1.038 1.038 1.038h5.602c1.167 3.127 3.224 5.72 6.153 7.774-2.121 3.426-4.153 7.137-5.798 11.289-.211.532-1.267 3.533-1.436 4.082-.896 2.92-1.513 5.876-1.834 8.784-.061.558-.424 4.105-.446 4.677-.253 6.597 1.121 12.678 4.085 18.081-.09.681-.139 1.336-.149 1.991-.015.915.15 1.792.44 2.609l-6.624 3.882c-.956.56-1.399 1.659-1.102 2.734.292 1.057 1.231 1.806 2.309 1.751 1.463-.016 3.3.214 3.716 1.37.811 2.253 1.95 2.918 3.252 2.918.919 0 1.919-.332 2.942-.672 1.008-.333 2.151-.712 3.532-.967 1.607-.296 3.215.051 4.774 1.031.822.518 1.83.493 2.631-.064.797-.554 1.185-1.525.988-2.474l-1.721-8.312c-.032-.156-.083-.304-.143-.447 3.125.298 8.947.821 11.4.821h.005c2.63 0 8.773-.487 12.364-.794-.054.134-.099.273-.13.419l-1.722 8.314c-.196.948.193 1.919.99 2.473.8.556 1.808.58 2.631.064 1.558-.98 3.165-1.324 4.774-1.031 1.381.254 2.523.633 3.531.967 1.023.339 2.024.672 2.943.672 1.302 0 2.441-.666 3.251-2.918.405-1.126 2.155-1.371 3.6-1.371.046 0 .092.001.138.001 1.08 0 1.997-.701 2.288-1.751.296-1.075-.147-2.174-1.103-2.734l-2.526-1.48h19.067c7.108 0 12.891-5.783 12.891-12.891s-5.78-12.892-12.889-12.892z" fill="#e6e7e8"/><path d="m66.41 21.839c1.794.062 4.103-.242 5.527-1.904 1.871-2.182 2.839-10.191-.692-11.587-4.861-1.922-8.316.811-10.128 2.935 4.221 3.869 4.28 7.823 5.293 10.556z" fill="#fa759e"/><path d="m66.41 21.839c1.794.062 4.103-.241 5.527-1.904 1.447-1.688 2.344-6.851 1.047-9.754-3.383.304-6.398 3.341-8.229 6.247.829 2.03 1.097 3.905 1.655 5.411z" fill="#ffd7e5"/><path d="m28.15 21.845c1.03-2.773 1.063-6.804 5.471-10.729-1.847-2.096-5.248-4.64-9.982-2.769-3.531 1.396-2.562 9.405-.692 11.587 1.34 1.565 3.462 1.925 5.203 1.911z" fill="#fa759e"/><path d="m28.15 21.845c.586-1.579.857-3.566 1.786-5.709-1.845-2.815-4.766-5.661-8.036-5.955-1.297 2.903-.4 8.066 1.047 9.754 1.34 1.564 3.462 1.924 5.203 1.91z" fill="#ffd7e5"/><path d="m97.397 82.147h-17.667c.163 5.197-.687 10.481-3.093 15.562-.004.009-.005.02-.002.03.379 1.179.68 2.547.77 4.084.089 1.518-.457 2.947-1.415 4.032h21.407c6.547 0 11.854-5.307 11.854-11.854s-5.308-11.854-11.854-11.854z" fill="#0089ef"/><path d="m35.088 106.216c-.323.284-.643.546-.949.763-1.417 1.001-3.218 1.291-4.9.81-1.287.354-2.69.267-3.969-.319-1.159-.531-2.044-1.45-2.613-2.548l-7.415 4.345c-1.197.701-.714 2.564.673 2.552 2.161-.019 4.124.451 4.702 2.057 1.462 4.061 3.523 1.537 8.562.611 2.203-.405 4.089.277 5.514 1.172 1.015.638 2.295-.274 2.052-1.448z" fill="#0089ef"/><path d="m80.332 109.267-6.969-4.084c-.996 1.521-2.713 2.573-4.734 2.631-1.221.035-2.408-.377-3.432-1.042-.751-.488-1.56-1.147-2.331-2.008l-1.029.042c-.628.026-1.159.476-1.286 1.092l-1.721 8.313c-.243 1.174 1.037 2.086 2.052 1.448 1.425-.896 3.31-1.577 5.514-1.172 5.038.927 7.1 3.45 8.562-.611.578-1.606 2.54-2.075 4.702-2.057 1.386.012 1.868-1.851.672-2.552z" fill="#0089ef"/><path d="m73.507 97.723c-.003-.01-.002-.021.002-.03 7.588-16.021-.234-34.075-6.837-44.986-1.738 1.088-3.495 1.817-4.938 2.335-5.03 1.806-14.348.022-14.453.002-.104.02-9.422 1.804-14.453-.002-1.436-.515-3.181-1.239-4.91-2.317-6.875 11.366-15.061 30.468-5.799 46.953.004.008.006.017.005.026-.103.69-.173 1.42-.186 2.194-.038 2.34 1.205 4.596 3.332 5.571 1.902.872 4.085.665 5.741-.506.929-.656 1.973-1.609 2.886-2.938.01-.015.028-.022.046-.019 0 0 10.019 1.018 13.358 1.018 3.726 0 14.903-1.019 14.903-1.019.017-.003.034.003.044.017.943 1.243 1.994 2.127 2.949 2.748 1.024.666 2.211 1.078 3.432 1.042 3.32-.095 5.831-2.867 5.648-6.007-.09-1.536-.391-2.903-.77-4.082z" fill="#fff"/><path d="m76.635 97.738c-.003-.01-.002-.02.002-.03 7.967-16.821-1.054-35.886-7.815-46.568-2.362 2.008-5.041 3.167-7.089 3.902-5.03 1.806-14.348.022-14.453.002-.104.02-9.422 1.804-14.453-.002-.772-.277-1.634-.615-2.534-1.035-6.693 11.482-13.972 29.799-5.046 45.686.005.008.006.017.005.026-.103.69-.173 1.42-.186 2.194-.038 2.34 1.205 4.596 3.332 5.572 1.902.872 4.085.665 5.741-.506.929-.657 1.973-1.609 2.886-2.938.01-.015.028-.022.046-.019 0 0 10.019 1.018 13.358 1.018 3.726 0 14.903-1.019 14.903-1.019.017-.004.034.003.044.017.943 1.243 1.994 2.127 2.949 2.748 1.024.666 2.211 1.078 3.432 1.042 3.32-.096 5.831-2.867 5.648-6.007-.09-1.537-.391-2.904-.77-4.083z" fill="#fa759e"/><path d="m60.913 82.662c-2.175.786-4.662.142-6.231-1.643-.924-1.051-1.435-2.408-1.435-3.793 0-.185.007-.37.028-.554.077-.791.256-1.703.594-2.674-2.006-1.269-4.228-1.983-6.568-1.983-2.339 0-4.559.712-6.563 1.977.339.973.518 1.887.596 2.679.021.185.028.369.028.554 0 1.385-.512 2.742-1.435 3.793-1.572 1.789-4.065 2.43-6.243 1.638-1.546 3.467-2.453 7.552-2.459 11.942v.057c0 3.775.659 7.33 1.818 10.46.292-.334.58-.69.855-1.091.01-.015.028-.022.046-.019 0 0 10.018 1.018 13.358 1.018 3.372 0 12.848-.834 14.616-.993.779-2.408 1.277-5.034 1.411-7.806.028-.519.043-1.044.043-1.57-.002-4.408-.909-8.512-2.459-11.992z" fill="#ffd7e5"/><path d="m74.185 35.413c-.692-6.139-4.41-9.166-6.745-11.76s-.973-7.717-6.615-12.646c-4.123-3.602-13.44-3.183-13.545-3.178-.105-.005-9.421-.424-13.545 3.178-5.642 4.929-4.28 10.052-6.615 12.646s-6.053 5.62-6.745 11.76c-1.512 13.418 7.393 17.813 12.452 19.629 5.03 1.806 14.348.022 14.453.002.104.02 9.422 1.804 14.452-.002 5.06-1.816 13.965-6.21 12.453-19.629z" fill="#fa759e"/><path d="m47.281 55.044c.08.015 5.603 1.067 10.439.735 1.371-1.703 2.186-3.75 2.186-5.966 0-5.887-5.644-12.114-12.605-12.114-6.962 0-12.605 6.226-12.605 12.114 0 2.217.815 4.265 2.186 5.969 4.826.324 10.319-.723 10.399-.738z" fill="#ffd7e5"/><path d="m44.188 54.313-3.131.154v9.289c0 1.729 1.402 3.131 3.131 3.131s3.131-1.402 3.131-3.131v-9.289z" fill="#d4fbff"/><path d="m50.331 54.468h-3.131v9.289c0 1.729 1.402 3.131 3.131 3.131 1.729 0 3.131-1.402 3.131-3.131v-9.289z" fill="#d4fbff"/><path d="m40.031 80.876c-.038.046-.065.098-.104.143-1.064 1.211-2.553 1.892-4.078 1.966l-.263.219s3.482 2.762 5.437 2.394c1.441-.271-.089-3.2-.992-4.722z" fill="#0089ef"/><path d="m42.138 76.422-.807 1.139c-.072 1.204-.519 2.364-1.293 3.305 1.283.468 3.752 1.217 5.047.601 1.796-.856-2.947-5.045-2.947-5.045z" fill="#0089ef"/><path d="m54.682 81.019c-.924-1.051-1.435-2.408-1.435-3.793 0-.044.006-.087.007-.131l-.376-.616s-5.016 3.858-3.282 4.833c1.261.71 3.813.112 5.113-.268-.009-.009-.019-.016-.027-.025z" fill="#0089ef"/><path d="m54.682 81.019c-.224-.255-.422-.53-.597-.818l-.216-.115s-2.364 5.869-.375 5.83c1.55-.031 3.614-2.105 4.452-3.021-1.231-.24-2.391-.882-3.264-1.876z" fill="#0089ef"/><path d="m59.797 34.962c-1.108 0-2.007.613-2.007 1.368 0 .756.899 1.368 2.007 1.368s2.007-.613 2.007-1.368-.899-1.368-2.007-1.368z" fill="#ffd7e5"/><ellipse cx="35.53" cy="36.331" fill="#ffd7e5" rx="2.007" ry="1.368"/><g fill="#3a2c60"><path d="m97.397 81.147h-17.71c.037.665.064 1.332.067 2h17.643c5.985 0 10.854 4.869 10.854 10.854s-4.869 10.854-10.854 10.854h-20.7c-.181.324-.401.623-.641.906-.168.198-.349.386-.542.561-.048.043-.092.09-.142.131-.256.216-.528.415-.821.585l5.275 3.092c.216.126.199.326.169.434-.047.172-.182.219-.327.256-3.098.017-4.993.886-5.652 2.717-.709 1.974-1.099 1.846-3.635 1.004-1.018-.338-2.285-.758-3.805-1.037-.501-.093-1.001-.139-1.498-.139-1.612 0-3.197.484-4.729 1.447-.159.099-.297.048-.384-.011-.063-.044-.202-.168-.157-.388l1.721-8.313c.035-.167.178-.289.349-.296l.56-.023c.666.691 1.406 1.304 2.213 1.829 1.271.825 2.661 1.22 4.006 1.203 1.883-.055 3.614-.842 4.874-2.216 1.229-1.341 1.848-3.063 1.744-4.85-.078-1.324-.312-2.65-.704-3.967 7.304-15.884.145-33.472-6.567-44.797 2.96-2.061 5.034-4.67 6.204-7.82h5.842c.552 0 1-.447 1-1s-.448-1-1-1h-5.246c.148-.621.267-1.26.354-1.917h4.892c.552 0 1-.447 1-1s-.448-1-1-1h-4.719c.023-.625.026-1.262-.001-1.916h4.72c.552 0 1-.447 1-1s-.448-1-1-1h-4.869c-.001-.01-.001-.02-.002-.03-.632-5.617-3.716-8.855-5.968-11.22-.361-.378-.707-.741-1.027-1.097-.055-.062-.094-.14-.145-.206 1.649-.172 3.412-.739 4.657-2.192 1.596-1.862 2.384-6.533 1.622-9.61-.447-1.804-1.383-3.034-2.706-3.557-4.581-1.811-8.257.119-10.598 2.478-4.558-3.443-13.39-3.082-13.688-3.067-.379-.013-8.989-.367-13.596 2.926-2.346-2.294-5.969-4.114-10.461-2.337-1.323.522-2.258 1.753-2.705 3.557-.763 3.078.025 7.748 1.622 9.61 1.172 1.368 2.801 1.947 4.363 2.154-.059.079-.106.171-.171.244-.32.355-.666.719-1.027 1.097-2.252 2.364-5.336 5.603-5.968 11.22-.001.01-.001.02-.002.03h-4.657c-.552 0-1 .447-1 1s.448 1 1 1h4.508c-.026.654-.024 1.291-.001 1.916h-4.507c-.552 0-1 .447-1 1s.448 1 1 1h4.68c.087.657.206 1.296.354 1.917h-5.034c-.552 0-1 .447-1 1s.448 1 1 1h5.63c1.167 3.143 3.234 5.747 6.183 7.805-2.129 3.435-4.171 7.148-5.821 11.31-.204.513.048 1.094.561 1.298.513.201 1.094-.049 1.298-.562 1.595-4.024 3.581-7.634 5.655-10.982 1.288.732 2.698 1.389 4.26 1.95 2.142.769 4.953.93 7.566.847v6.926c0 2.277 1.854 4.131 4.131 4.131 1.224 0 2.314-.546 3.071-1.395.757.849 1.847 1.395 3.071 1.395 2.278 0 4.131-1.854 4.131-4.131v-6.941c.413.014.82.037 1.24.037 2.251 0 4.551-.217 6.369-.869 1.554-.558 2.956-1.21 4.238-1.938 6.526 11.022 13.468 28.075 6.288 43.236-.102.226-.118.511-.042.746.405 1.26.648 2.55.723 3.837.073 1.241-.361 2.442-1.222 3.381-.891.973-2.119 1.529-3.457 1.567-.951.033-1.929-.277-2.858-.88-1.036-.675-1.944-1.521-2.695-2.511-.21-.28-.579-.432-.935-.412v-.001c-.111.011-11.174 1.015-14.812 1.015-3.25 0-13.157-1.003-13.193-1.005-.382-.064-.815.118-1.035.439-.727 1.06-1.615 1.964-2.638 2.688-1.372.968-3.191 1.126-4.748.412-1.703-.78-2.781-2.604-2.748-4.646.01-.671.067-1.346.172-2.045.038-.225-.008-.481-.12-.681-2.89-5.145-4.232-10.965-3.989-17.301.021-.552-.409-1.017-.961-1.037-.57-.033-1.017.409-1.038.961-.253 6.594 1.121 12.671 4.086 18.072-.09.685-.14 1.342-.15 1.998-.015.921.153 1.805.448 2.626l-6.649 3.896c-.942.552-1.378 1.634-1.086 2.691.287 1.041 1.222 1.706 2.272 1.725 1.469-.003 3.328.218 3.752 1.395.803 2.231 1.932 2.892 3.224 2.892.912-.001 1.906-.33 2.923-.667 1.009-.335 2.153-.714 3.537-.969 1.617-.295 3.233.05 4.8 1.035.81.508 1.802.484 2.59-.062.785-.545 1.168-1.501.974-2.437l-1.721-8.313c-.021-.1-.053-.194-.086-.289-.573.615-1.155 1.122-1.702 1.516l1.551 7.492c.045.22-.094.344-.157.388-.088.059-.226.109-.384.011-2.005-1.26-4.101-1.702-6.227-1.309-1.52.279-2.787.699-3.805 1.037-2.533.841-2.923.972-3.635-1.004-.649-1.804-2.504-2.718-5.514-2.718-.045 0-.091.001-.137.001-.172-.027-.28-.085-.328-.256-.03-.107-.047-.308.169-.435l6.574-3.853c.655.896 1.507 1.632 2.531 2.102.912.418 1.888.624 2.858.624 1.374 0 2.734-.413 3.878-1.222 1.066-.755 2.007-1.671 2.799-2.725 2.159.214 9.975.969 12.913.969 2.659 0 8.91-.498 12.448-.8-.068.152-.142.301-.177.469l-1.721 8.313c-.194.936.189 1.892.974 2.437.788.546 1.78.569 2.589.062 1.566-.985 3.18-1.33 4.801-1.035 1.384.255 2.527.634 3.537.969 1.017.337 2.011.667 2.923.667 1.292-.001 2.42-.66 3.224-2.892.413-1.146 2.178-1.396 3.635-1.396.046 0 .09-.002.138.001 1.063 0 1.966-.69 2.251-1.725.292-1.058-.144-2.14-1.085-2.69l-2.644-1.55h19.204c7.088 0 12.854-5.767 12.854-12.854s-5.763-12.847-12.851-12.847zm-26.52-71.869c.879.348 1.301 1.377 1.5 2.179.654 2.639-.126 6.575-1.199 7.828-1.005 1.173-2.61 1.517-4.043 1.556-.128-.423-.251-.869-.379-1.362-.622-2.395-1.388-5.318-4.247-8.249 1.73-1.74 4.565-3.455 8.368-1.952zm-47.171 10.007c-1.073-1.253-1.853-5.189-1.199-7.828.199-.802.62-1.831 1.499-2.179 1.025-.405 1.98-.576 2.863-.576 2.291 0 4.081 1.156 5.339 2.371-2.987 2.983-3.769 5.968-4.402 8.406-.125.483-.246.921-.371 1.338-1.354-.082-2.805-.453-3.729-1.532zm20.482 46.603c-1.175 0-2.131-.956-2.131-2.131v-8.575c.491.174 1.011.286 1.56.286.954 0 1.84-.289 2.583-.779v9.068c0 .175.03.341.052.51-.231.928-1.065 1.621-2.064 1.621zm6.143 0c-.999 0-1.833-.693-2.063-1.621.021-.169.052-.335.052-.51v-9.164c.769.546 1.702.875 2.715.875.501 0 .974-.1 1.427-.245v8.534c0 1.175-.956 2.131-2.131 2.131zm11.064-11.787c-1.903.683-4.496.813-6.933.725v-.358c0-.142-.031-.276-.085-.398.843-.852 1.366-2.021 1.366-3.311 0-.553-.448-1-1-1s-1 .447-1 1c0 1.494-1.215 2.709-2.708 2.709s-2.709-1.215-2.709-2.709v-7.599c0-.025-.012-.045-.014-.07.955-.162 1.871-.602 2.608-1.338l2.156-2.156c.257-.257.331-.59.267-1.079-.244-1.857-1.925-3.191-3.798-3.191h-4.088c-1.873 0-3.554 1.334-3.798 3.191-.064.489.01.822.267 1.079l2.156 2.156c.65.649 1.442 1.059 2.273 1.262-.008.05-.029.094-.029.146v7.599c0 1.494-1.215 2.709-2.709 2.709s-2.708-1.215-2.708-2.709c0-.553-.448-1-1-1s-1 .447-1 1c0 1.249.497 2.378 1.293 3.222-.084.146-.144.306-.144.487v.359c-2.424.085-4.999-.047-6.891-.726-5.376-1.929-8.903-4.889-10.655-8.937h1.156c.552 0 1-.447 1-1s-.448-1-1-1h-1.864c-.166-.615-.288-1.258-.385-1.917h2.249c.552 0 1-.447 1-1s-.448-1-1-1h-2.436c-.025-.623-.031-1.258-.002-1.916h2.437c.552 0 1-.447 1-1s-.448-1-1-1h-2.264c.608-4.824 3.255-7.622 5.396-9.87.375-.393.733-.771 1.065-1.139 1.054-1.171 1.454-2.711 1.877-4.341.654-2.521 1.396-5.377 4.652-8.222 3.077-2.688 9.554-2.946 11.986-2.946.566 0 .913.014.948.015.09-.003 9.045-.382 12.84 2.932 3.256 2.845 3.998 5.701 4.652 8.222.423 1.63.823 3.17 1.877 4.341.332.368.69.746 1.065 1.139 2.14 2.248 4.788 5.046 5.396 9.87h-2.052c-.552 0-1 .447-1 1s.448 1 1 1h2.225c.029.658.024 1.293-.002 1.916h-2.224c-.552 0-1 .447-1 1s.448 1 1 1h2.037c-.096.659-.218 1.302-.385 1.917h-1.652c-.552 0-1 .447-1 1s.448 1 1 1h.945c-1.751 4.046-5.277 7.006-10.654 8.936z"/><path d="m79.126 90.061c-.137.713-.303 1.425-.49 2.136l2.928 2.211-4.835 3.651c.198.658.366 1.371.489 2.136l6.005-4.534 3.529 2.665-.626.473c-.441.333-.528.96-.195 1.4.196.261.496.397.799.397.209 0 .421-.065.602-.202l1.08-.816 1.08.816c.18.137.392.202.602.202.303 0 .603-.137.799-.397.333-.44.246-1.067-.195-1.4l-.626-.473 3.529-2.664 6.268 4.733c.18.137.392.202.602.202.303 0 .603-.137.799-.397.333-.44.246-1.067-.195-1.4l-5.814-4.39 5.814-4.39c.441-.333.528-.96.195-1.4-.332-.441-.96-.53-1.4-.195l-6.268 4.733-3.529-2.664.626-.473c.441-.333.528-.96.195-1.4-.332-.441-.96-.53-1.4-.195l-1.08.816-1.08-.816c-.442-.335-1.069-.246-1.4.195-.333.44-.246 1.067.195 1.4l.626.473-3.529 2.665zm9.285 1.682 3.529 2.665-3.529 2.665-3.529-2.665z"/><path d="m18.444 78.245c.503 0 .936-.379.993-.891.305-2.777.896-5.606 1.756-8.41.162-.527-.135-1.087-.663-1.249-.53-.163-1.087.135-1.25.663-.896 2.923-1.513 5.876-1.832 8.777-.06.549.336 1.043.885 1.104.038.004.075.006.111.006z"/><path d="m39.182 26.761c-1.561 0-2.827 1.266-2.827 2.827s1.266 2.827 2.827 2.827 2.827-1.266 2.827-2.827-1.266-2.827-2.827-2.827z"/><path d="m56.548 26.761c-1.561 0-2.827 1.266-2.827 2.827s1.266 2.827 2.827 2.827 2.827-1.266 2.827-2.827-1.265-2.827-2.827-2.827z"/><path d="m34.121 81.453c-.815-.439-1.578-.945-2.269-1.503-.429-.349-1.059-.28-1.406.148-.347.43-.28 1.06.149 1.406.786.636 1.652 1.21 2.574 1.707.53.288 1.091.487 1.664.615.044.053.074.117.13.161.591.469 3.453 2.643 5.689 2.643.19 0 .375-.016.554-.05.586-.109 1.031-.461 1.254-.989.332-.79.031-1.958-.46-3.104.597.124 1.216.21 1.809.21.623 0 1.212-.093 1.706-.328.538-.257.878-.711.958-1.278.236-1.685-2.296-4.184-3.539-5.299-.489-3.051-2.261-7.04-7.624-10.125-.479-.273-1.09-.109-1.365.369-.275.479-.11 1.09.368 1.365 5.095 2.93 6.475 6.712 6.737 9.386.017.146.021.292.021.438 0 1.15-.421 2.263-1.186 3.134-1.455 1.658-3.879 2.118-5.764 1.094zm4.024 2.266c.645-.185 1.263-.465 1.835-.836.358.743.597 1.385.635 1.751-.627-.002-1.559-.399-2.47-.915zm6.299-3.08c-.527.14-1.357.046-2.233-.157.33-.595.571-1.231.709-1.895.768.831 1.359 1.614 1.524 2.052z"/><path d="m60.295 67.401c.479-.275.644-.887.368-1.365-.274-.48-.886-.644-1.365-.369-5.621 3.233-7.297 7.458-7.684 10.541-1.397 1.153-3.486 3.138-3.379 4.636.041.572.35 1.048.87 1.34.595.335 1.355.458 2.151.458.247 0 .498-.015.748-.036-.329 1.373-.468 2.801.081 3.596.318.462.811.714 1.39.714h.04c1.73-.034 3.682-1.776 4.785-2.927.013 0 .026.002.039.002 1.065 0 2.131-.253 3.099-.778.924-.498 1.791-1.072 2.576-1.708.43-.347.497-.977.149-1.406s-.977-.498-1.406-.148c-.69.558-1.454 1.063-2.271 1.504-1.883 1.023-4.307.563-5.762-1.095-.765-.871-1.187-1.984-1.187-3.134 0-.146.005-.292.024-.456.259-2.657 1.639-6.439 6.734-9.369zm-10.005 13.128c.179-.389.731-1.042 1.453-1.744.147.612.369 1.202.681 1.752-.847.128-1.639.156-2.134-.008zm3.406 4.36c-.046-.446.114-1.351.405-2.384.546.433 1.148.774 1.784 1.019-.775.676-1.587 1.237-2.189 1.365z"/></g></svg>