<svg id="Layer_1" enable-background="new 0 0 128 128" height="512" viewBox="0 0 128 128" width="512" xmlns="http://www.w3.org/2000/svg"><path d="m117.721 78.974c.225-.335.433-.68.619-1.041.053-.104.101-.21.15-.316.197-.416.37-.846.518-1.292.015-.046.031-.091.045-.137 1.706-5.353-.046-12.748-4.96-19.902-.021-.031-.044-.061-.065-.091-.307-.444-.611-.887-.942-1.329-.024-.032-.059-.049-.086-.077-.774-1.031-1.606-2.047-2.505-3.041-.015-.018-.019-.041-.035-.059-.482-.53-.981-1.054-1.498-1.57-.59-.59-1.199-1.156-1.816-1.708-.102-.091-.202-.183-.304-.272-.623-.548-1.256-1.074-1.9-1.579-.025-.02-.05-.038-.075-.057-.297-.232-.594-.466-.894-.688-.039-.029-.085-.037-.127-.059-.945-.69-1.897-1.338-2.858-1.919-.034-.027-.056-.063-.094-.086-2.929-1.772-5.841-2.999-8.601-3.694-4.278-6.35-10.067-11.067-16.671-13.293 1.719-2.982 4.231-6.247 6.058-6.701.317 1.309 1.49 2.288 2.896 2.288 1.647 0 2.987-1.34 2.987-2.987 0-1.646-1.34-2.986-2.987-2.986-1.158 0-2.153.669-2.649 1.635-3.441.198-6.856 5.622-8.269 8.161-2.149-.549-4.373-.838-6.65-.838s-4.501.289-6.65.838c-1.413-2.539-4.829-7.962-8.269-8.161-.495-.966-1.49-1.635-2.649-1.635-1.647 0-2.987 1.34-2.987 2.986 0 1.647 1.34 2.987 2.987 2.987 1.406 0 2.581-.98 2.897-2.292 1.828.447 4.339 3.721 6.057 6.705-6.621 2.232-12.422 6.966-16.704 13.34-5.47 1.384-11.444 4.826-16.636 10.017-10.452 10.452-13.833 24.079-7.537 30.375 2.125 2.126 5.087 3.215 8.601 3.215 1.648-.001 3.417-.24 5.277-.725 1.604-.417 3.224-1.021 4.838-1.762.318 1.021.66 2.028 1.041 3.008 4.588 14.437 15.676 24.738 28.74 25.238l-.03 5.151c-.003.553.442 1.003.994 1.006h.006c.55 0 .997-.444 1-.994l.03-5.163c13.058-.507 24.14-10.806 28.727-25.238.38-.98.723-1.987 1.041-3.008 1.614.741 3.234 1.345 4.838 1.762 1.86.484 3.629.725 5.277.725 3.513 0 6.476-1.089 8.601-3.215.37-.37.7-.771 1.005-1.189.08-.109.145-.224.218-.333z" fill="#e6e7e8"/><circle cx="45.442" cy="15.362" fill="#ffd7e5" r="1.987"/><path d="m80.577 13.375c-1.097 0-1.987.889-1.987 1.987 0 1.097.89 1.987 1.987 1.987s1.987-.89 1.987-1.987c0-1.098-.889-1.987-1.987-1.987z" fill="#ffd7e5"/><path d="m104.256 46.827c-5.199-5.199-11.161-8.596-16.532-9.872 4.552 6.924 7.286 15.793 7.286 25.462 0 4.702-.652 9.212-1.84 13.404 7.383 3.707 14.619 3.972 18.623-.033 5.916-5.916 2.542-18.883-7.537-28.961z" fill="#fff"/><path d="m107.256 49.827c-5.646-5.646-12.198-9.185-17.909-10.168 3.568 6.466 5.662 14.304 5.662 22.759 0 5.113-.772 9.996-2.165 14.492 8.464 5.438 17.342 6.485 21.949 1.878 5.916-5.916 2.542-18.883-7.537-28.961z" fill="#ffd7e5"/><path d="m31.01 62.417c0-9.669 2.734-18.539 7.286-25.462-5.372 1.276-11.333 4.673-16.532 9.872-10.08 10.078-13.454 23.045-7.538 28.961 4.005 4.005 11.24 3.74 18.623.033-1.187-4.193-1.839-8.702-1.839-13.404z" fill="#fff"/><path d="m31.01 62.417c0-8.455 2.095-16.293 5.662-22.759-5.711.983-12.263 4.522-17.909 10.168-10.079 10.079-13.453 23.046-7.537 28.962 4.606 4.606 13.485 3.559 21.949-1.878-1.393-4.497-2.165-9.381-2.165-14.493z" fill="#ffd7e5"/><ellipse cx="63.01" cy="62.417" fill="#fff" rx="32" ry="40.083"/><ellipse cx="63.01" cy="65.417" fill="#fa759e" rx="32" ry="40.083"/><g fill="#3a2c60"><path d="m103.548 47.533c.494.494.971.994 1.432 1.502.197.217.468.327.741.327.24 0 .48-.086.672-.26.409-.371.439-1.004.068-1.413-.482-.529-.98-1.053-1.498-1.57-1.571-1.571-3.25-3.02-4.988-4.304-.443-.329-1.07-.233-1.398.209-.328.444-.234 1.07.21 1.398 1.658 1.227 3.26 2.61 4.761 4.111z"/><path d="m109.087 50.866c-.332-.443-.957-.531-1.4-.2-.442.331-.531.958-.2 1.399 6.608 8.813 8.122 18.493 3.599 23.016-3.573 3.574-10.018 3.395-16.744.208 1.077-4.052 1.668-8.376 1.668-12.872 0-8.87-2.277-17.084-6.131-23.807 1.94.679 3.95 1.621 5.982 2.851.472.285 1.087.135 1.373-.338s.135-1.087-.338-1.373c-2.929-1.772-5.841-2.999-8.599-3.693-4.278-6.35-10.066-11.067-16.67-13.294 1.716-2.983 4.225-6.251 6.055-6.705.316 1.311 1.49 2.291 2.896 2.291 1.647 0 2.987-1.34 2.987-2.987 0-1.646-1.34-2.986-2.987-2.986-1.159 0-2.154.67-2.649 1.636-3.452.197-6.863 5.627-8.269 8.16-2.148-.549-4.372-.838-6.649-.838s-4.501.289-6.65.838c-1.408-2.533-4.825-7.962-8.269-8.16-.495-.966-1.49-1.636-2.649-1.636-1.647 0-2.987 1.34-2.987 2.986 0 1.647 1.34 2.987 2.987 2.987 1.407 0 2.583-.981 2.897-2.294 1.83.448 4.337 3.724 6.053 6.708-6.63 2.236-12.438 6.979-16.72 13.366-5.466 1.382-11.428 4.802-16.617 9.99-10.452 10.452-13.833 24.079-7.537 30.376 2.147 2.147 5.145 3.169 8.581 3.169 3.12 0 6.601-.858 10.128-2.468 4.666 15.009 16.213 25.774 29.8 26.272l-.042 7.15c-.003.553.442 1.003.994 1.006h.006c.55 0 .997-.444 1-.994l.042-7.163c13.572-.515 25.102-11.275 29.764-26.27 3.527 1.61 7.008 2.467 10.128 2.467 3.435-.001 6.434-1.022 8.581-3.169 5.316-5.317 3.913-15.857-3.414-25.629zm-28.51-36.491c.544 0 .987.442.987.986s-.443.987-.987.987-.987-.443-.987-.987.443-.986.987-.986zm-35.135 1.974c-.544 0-.987-.443-.987-.987s.443-.986.987-.986.987.442.987.986-.443.987-.987.987zm45.949 61.765h-56.762c-1.418-4.059-2.302-8.477-2.544-13.114h61.85c-.242 4.637-1.126 9.054-2.544 13.114zm-28.381-54.781c14.304 0 26.371 12.281 29.93 28.917h-59.86c3.559-16.636 15.626-28.917 29.93-28.917zm-48.077 51.748c-5.516-5.518-2.135-17.875 7.537-27.548 4.307-4.307 9.141-7.343 13.671-8.924-3.854 6.722-6.131 14.938-6.131 23.807 0 4.496.591 8.82 1.668 12.872-6.726 3.187-13.172 3.366-16.745-.207zm48.077 26.419c-8.207 0-15.673-4.049-21.225-10.636h42.449c-5.551 6.587-13.017 10.636-21.224 10.636z"/><path d="m70.257 37.115c1.4.849 3.223.403 4.073-.997.849-1.4.403-3.223-.997-4.073-1.4-.849-3.223-.403-4.073.997-.849 1.4-.403 3.224.997 4.073z"/><path d="m52.686 37.115c1.4.849 3.223.403 4.073-.997.849-1.4.403-3.223-.997-4.073-1.4-.849-3.223-.403-4.073.997-.849 1.4-.403 3.224.997 4.073z"/></g></svg>