<svg id="Layer_1" enable-background="new 0 0 128 128" height="512" viewBox="0 0 128 128" width="512" xmlns="http://www.w3.org/2000/svg"><path d="m115.462 82.144c-.41-8.909-7.886-13.4-13.794-15.559v-8.509c0-1.063-.075-2.109-.184-3.145 5.879-2.183 13.212-6.669 13.621-15.488 4.128-1.353 10.008-4.465 10.008-11.228 0-1.55-1.232-2.811-2.748-2.811s-2.748 1.261-2.748 2.811c0 5.25-9.074 6.592-9.162 6.604-1.2.162-2.107 1.105-2.326 2.261-.223.487-.357 1.024-.357 1.596 0 5.16-5.273 7.973-9.467 9.395-.67-.722-1.614-1.172-2.66-1.172h-1.105c-.594-7.739-6.608-14.557-15.43-18.015h5.604c2.163 0 3.923-1.807 3.923-4.026 0-.008-.001-.022-.002-.038.001-.02.002-.039.002-.055v-11.145c0-2.16-1.712-3.917-3.816-3.917s-3.816 1.757-3.816 3.917v7.211h-30.009v-7.211c0-2.16-1.712-3.917-3.816-3.917s-3.816 1.757-3.816 3.917l.005 11.14c-.003.034-.005.071-.005.099 0 2.22 1.76 4.026 3.923 4.026h5.604c-8.822 3.458-14.835 10.276-15.429 18.015h-1.105c-1.046 0-1.99.45-2.66 1.173-4.194-1.422-9.467-4.234-9.467-9.395 0-.572-.134-1.109-.357-1.596-.218-1.156-1.125-2.099-2.323-2.261-.091-.014-9.166-1.354-9.166-6.604 0-1.55-1.232-2.811-2.748-2.811s-2.748 1.261-2.748 2.811c0 6.763 5.882 9.876 10.008 11.228.452 9.756 9.383 14.209 15.436 16.109v10.364c-6.052 1.835-15.336 6.271-15.794 16.226-4.128 1.357-10.008 4.475-10.008 11.222 0 1.55 1.233 2.811 2.748 2.811s2.748-1.261 2.748-2.811c0-5.187 9.07-6.591 9.164-6.604 1.199-.163 2.106-1.106 2.324-2.26.223-.487.358-1.024.358-1.597 0-4.788 4.505-7.551 8.499-9.06.151 3.359.791 6.587 1.846 9.612-4.685 3.575-13.86 12.221-10.063 22.739-3.272 2.925-7.5 8.187-4.937 14.385.291.703.834 1.243 1.529 1.521.325.13.663.194 1.002.194.371 0 .742-.078 1.093-.233 1.378-.61 2.022-2.258 1.438-3.672-1.976-4.777 5.851-9.787 5.931-9.836 1.028-.631 1.496-1.856 1.26-3 .02-.537-.06-1.085-.277-1.61-2.226-5.384 2.87-10.722 6.369-13.594 3.08 4.845 7.36 8.801 12.401 11.417 4.929 3.458 10.863 5.483 17.231 5.483h3.617c10.876 0 20.477-5.91 25.977-14.776 2.98 3.001 5.782 7.219 4.025 11.47-.218.525-.298 1.073-.278 1.61-.237 1.144.231 2.37 1.26 3 .08.049 7.906 5.059 5.932 9.835-.586 1.414.059 3.062 1.437 3.673.351.155.722.233 1.093.233.339 0 .678-.064 1.003-.194.695-.278 1.238-.819 1.528-1.522 2.566-6.204-1.661-11.462-4.936-14.386 3.235-8.968-2.96-16.576-7.765-20.84 1.023-3.167 1.585-6.548 1.585-10.06v-.574c3.345 1.625 6.461 4.205 6.461 8.185 0 .572.134 1.109.357 1.596.218 1.155 1.126 2.098 2.326 2.261.092.013 9.162 1.416 9.162 6.604 0 1.55 1.232 2.811 2.748 2.811s2.748-1.261 2.748-2.811c-.004-6.744-5.883-9.863-10.012-11.222z" fill="#e6e7e8"/><g fill="#fa759e"><path d="m106.811 35.416c-.865 0-1.617-.665-1.731-1.578-.123-.99.551-1.898 1.507-2.027.1-.014 10.029-1.442 10.029-7.595 0-1 .782-1.81 1.748-1.81s1.748.81 1.748 1.81c0 9.327-12.54 11.113-13.074 11.185-.077.01-.153.015-.227.015z"/><path d="m107.453 31.898c-1.482 0-2.683 1.244-2.683 2.778 0 6.068-6.289 9.14-10.828 10.568.154.271.265.572.319.897.253 1.524.383 3.09.396 4.681 5.933-1.724 15.478-6.062 15.478-16.146 0-1.534-1.2-2.778-2.682-2.778z"/><path d="m107.169 78.166c-.865 0-1.617.665-1.731 1.578-.123.99.551 1.898 1.507 2.027.1.014 10.029 1.442 10.029 7.595 0 1 .782 1.81 1.748 1.81s1.748-.81 1.748-1.81c0-9.327-12.54-11.113-13.074-11.185-.077-.01-.152-.015-.227-.015z"/><path d="m94.667 62.658v5.637c0 .053-.004.105-.004.157 4.503 1.477 10.464 4.547 10.464 10.454 0 1.535 1.201 2.778 2.683 2.778s2.683-1.243 2.683-2.778c.001-10.282-9.926-14.593-15.826-16.248z"/><path d="m99.89 100.48c-.796-.353-1.739-.048-2.191.745-.49.86-.215 1.969.615 2.478.087.053 8.671 5.414 6.332 11.07-.38.919.031 1.983.919 2.376.888.394 1.915-.032 2.295-.951 3.545-8.574-7.303-15.328-7.767-15.612-.066-.04-.134-.075-.203-.106z"/><path d="m95.74 82.375c-.658 1.828-1.475 3.576-2.43 5.231 3.242 3.223 6.417 7.901 4.423 12.722-.583 1.411.048 3.043 1.41 3.648 1.362.604 2.939-.05 3.522-1.46 3.533-8.543-2.241-15.904-6.925-20.141z"/><path d="m17.189 35.416c.865 0 1.617-.665 1.731-1.578.123-.99-.551-1.898-1.507-2.027-.1-.014-10.029-1.442-10.029-7.595 0-1-.782-1.81-1.748-1.81s-1.748.81-1.748 1.81c0 9.327 12.54 11.113 13.074 11.185.076.01.152.015.227.015z"/><path d="m29.739 46.142c.054-.325.164-.627.319-.897-4.539-1.428-10.828-4.5-10.828-10.568 0-1.535-1.201-2.778-2.683-2.778s-2.683 1.244-2.683 2.778c0 10.084 9.546 14.422 15.478 16.146.014-1.592.144-3.157.397-4.681z"/><path d="m16.83 78.166c.865 0 1.617.665 1.731 1.578.123.99-.551 1.898-1.507 2.027-.1.014-10.029 1.442-10.029 7.595 0 1-.782 1.81-1.748 1.81s-1.748-.81-1.748-1.81c0-9.327 12.54-11.113 13.074-11.185.077-.01.153-.015.227-.015z"/><path d="m29.332 68.294v-5.637c-5.899 1.655-15.826 5.967-15.826 16.248 0 1.535 1.201 2.778 2.683 2.778s2.683-1.243 2.683-2.778c0-5.907 5.961-8.977 10.464-10.454 0-.052-.004-.104-.004-.157z"/><path d="m24.109 100.48c.796-.353 1.739-.048 2.191.745.49.86.215 1.969-.615 2.478-.087.053-8.671 5.414-6.332 11.07.38.919-.031 1.983-.919 2.376-.888.394-1.915-.032-2.295-.951-3.545-8.574 7.303-15.328 7.767-15.612.067-.04.135-.075.203-.106z"/><path d="m33.833 84.861c-.944-1.6-1.748-3.295-2.412-5.061-4.35 3.178-14.508 12.025-10.088 22.716.583 1.411 2.16 2.064 3.522 1.46s1.994-2.237 1.41-3.648c-2.674-6.469 3.958-12.684 7.568-15.467z"/><path d="m34.418 43.899h55.164c-.164-9.902-9.609-18.131-22.123-20.014h13.254c1.608 0 2.923-1.362 2.923-3.027 0-.016-.004-.031-.005-.046 0-.016.005-.031.005-.046v-11.146c0-1.604-1.267-2.917-2.816-2.917s-2.816 1.313-2.816 2.917v8.211h-32.008v-8.211c0-1.604-1.267-2.917-2.816-2.917s-2.816 1.313-2.816 2.917v11.145c0 .016.004.031.005.046 0 .016-.005.031-.005.046 0 1.665 1.315 3.027 2.923 3.027h13.254c-12.515 1.884-21.959 10.113-22.123 20.015z"/></g><path d="m94.667 51.076v17.218c0 17.576-13.887 31.957-30.859 31.957h-3.617c-16.973 0-30.859-14.381-30.859-31.957v-17.218c0-1.68.14-3.329.407-4.935.217-1.305 1.339-2.243 2.618-2.243h59.286c1.279 0 2.401.937 2.618 2.243.266 1.606.406 3.256.406 4.935z" fill="#fff"/><path d="m97.667 54.076v17.218c0 17.576-13.887 31.957-30.859 31.957h-3.617c-16.973 0-30.859-14.381-30.859-31.957v-17.218c0-1.68.14-3.329.407-4.935.217-1.305 1.339-2.243 2.618-2.243h59.286c1.279 0 2.401.937 2.618 2.243.266 1.606.406 3.256.406 4.935z" fill="#6dc9f7"/><path d="m111.455 78.143c-.411-8.924-7.864-13.414-13.787-15.569v2.139c5.413 2.108 11.827 6.273 11.827 14.192 0 .98-.755 1.778-1.684 1.778-.928 0-1.683-.798-1.683-1.778 0-5.294-4.148-8.487-8.46-10.378v2.201c3.414 1.657 6.46 4.237 6.46 8.177 0 .572.134 1.11.357 1.596.218 1.156 1.126 2.098 2.322 2.259.092.013 9.166 1.354 9.166 6.605 0 1.549 1.232 2.81 2.748 2.81s2.748-1.261 2.748-2.81c.001-6.751-5.884-9.865-10.014-11.222zm7.267 12.033c-.412 0-.748-.363-.748-.81 0-4.468-4.377-6.719-7.583-7.771.39-.394.684-.881.874-1.419 3.563 1.239 8.205 3.871 8.205 9.19 0 .447-.336.81-.748.81z" fill="#3a2c60"/><path d="m103.854 102.204c3.254-8.987-2.906-16.568-7.768-20.863-.222.688-.464 1.367-.729 2.034 4.459 4.114 9.611 10.951 6.384 18.758-.184.443-.521.781-.948.952-.403.161-.846.153-1.245-.023-.868-.386-1.268-1.44-.892-2.352 2.237-5.409-1.224-10.499-4.84-14.015-.329.615-.68 1.214-1.046 1.803 2.897 2.945 5.791 7.209 4.039 11.448-.217.524-.298 1.071-.278 1.607-.238 1.144.23 2.371 1.256 2.999.079.049 7.935 5 5.935 9.838-.585 1.415.061 3.063 1.438 3.673.351.155.721.233 1.093.233.338 0 .677-.064 1.001-.194.695-.278 1.239-.818 1.529-1.522 2.565-6.201-1.654-11.452-4.929-14.376zm3.081 13.612c-.083.2-.234.354-.425.43-.174.069-.365.066-.54-.011-.395-.175-.574-.66-.4-1.081 1.717-4.152-1.446-7.979-3.998-10.231.506-.209.943-.528 1.305-.924 2.811 2.597 6.085 6.917 4.058 11.817z" fill="#3a2c60"/><path d="m84.021 91.027c-1.313 1.258-2.744 2.399-4.251 3.396-.46.304-.587.925-.282 1.386.192.291.511.448.835.448.189 0 .381-.054.551-.166 1.605-1.062 3.13-2.278 4.53-3.618.399-.382.413-1.015.031-1.414-.38-.399-1.015-.412-1.414-.032z" fill="#3a2c60"/><path d="m95.668 51.076c0-1.355-.115-2.713-.292-4.061.004.001.008.002.012.003-.045-.344-.084-.691-.14-1.029-.001-.004-.001-.007-.001-.011 0-.001 0-.001-.001-.002-.006-.035-.011-.069-.019-.104 6.81-2.383 10.542-6.333 10.542-11.195 0-.98.755-1.777 1.684-1.777.928 0 1.683.797 1.683 1.777 0 7.996-6.57 12.159-11.936 14.23.02.079.048.154.061.236.098.592.161 1.196.224 1.8 5.811-2.153 13.199-6.637 13.612-15.497 4.129-1.351 10.015-4.459 10.015-11.229 0-1.55-1.232-2.811-2.748-2.811s-2.748 1.261-2.748 2.811c0 5.25-9.074 6.592-9.162 6.604-1.199.162-2.107 1.104-2.326 2.26-.223.487-.358 1.024-.358 1.597 0 5.063-4.998 7.884-9.466 9.396-.67-.722-1.614-1.172-2.661-1.172h-1.12c-.594-7.738-6.592-14.557-15.413-18.015h5.604c2.163 0 3.923-1.807 3.923-4.027 0-.008-.001-.021-.002-.037.001-.02.002-.039.002-.055v-11.148c0-2.16-1.712-3.917-3.816-3.917s-3.818 1.757-3.818 3.917v7.211h-30.007v-7.211c0-2.16-1.712-3.917-3.816-3.917s-3.816 1.757-3.816 3.917v11.146c0 .014 0 .029.001.046-.001.017-.001.032-.001.046 0 2.221 1.76 4.027 3.923 4.027h5.604c-8.821 3.458-14.82 10.277-15.414 18.015h-1.12c-1.046 0-1.99.45-2.661 1.172-4.469-1.512-9.467-4.333-9.467-9.396 0-.572-.134-1.109-.357-1.596-.218-1.155-1.125-2.098-2.322-2.259-.091-.014-9.167-1.354-9.167-6.604 0-1.55-1.232-2.811-2.748-2.811s-2.748 1.261-2.748 2.811c0 6.76 5.873 9.87 9.999 11.223.449 9.83 9.497 14.265 15.445 16.122v10.348c-6.082 1.834-15.354 6.261-15.804 16.239-4.127 1.36-9.998 4.475-9.998 11.218 0 1.549 1.232 2.81 2.748 2.81s2.748-1.261 2.748-2.81c0-5.252 9.075-6.592 9.163-6.604 1.2-.162 2.107-1.105 2.326-2.26.223-.487.357-1.024.357-1.596 0-4.716 4.362-7.481 8.499-9.047.152 3.353.791 6.575 1.845 9.595-4.809 3.656-13.87 12.242-10.066 22.749-3.273 2.924-7.496 8.179-4.933 14.379.291.703.834 1.243 1.529 1.521.325.13.663.194 1.002.194.371 0 .742-.078 1.093-.233 1.377-.61 2.022-2.258 1.438-3.673-2.001-4.838 5.854-9.789 5.93-9.836 1.029-.63 1.498-1.855 1.261-2.999.02-.537-.06-1.084-.278-1.609-2.247-5.434 3.132-10.909 6.374-13.586 5.701 8.961 15.505 14.892 26.627 14.892h3.617c4.379 0 8.63-.914 12.633-2.717.503-.228.728-.819.501-1.323-.228-.503-.816-.728-1.323-.501-3.742 1.687-7.717 2.541-11.811 2.541h-.809v-54.355h28.643c.811 0 1.496.591 1.632 1.406.261 1.573.394 3.178.394 4.771v17.218c0 7.258-2.499 14.327-7.037 19.905-.349.428-.284 1.058.145 1.406.43.351 1.059.284 1.406-.145 4.828-5.934 7.486-13.45 7.486-21.167v-17.217zm21.947-26.86c0-.447.336-.811.748-.811s.748.363.748.811c0 5.332-4.639 7.959-8.204 9.195-.189-.541-.484-1.03-.876-1.425 3.206-1.051 7.584-3.302 7.584-7.77zm-60.925.658c.518-.078.887-.542.848-1.063-.039-.522-.474-.926-.997-.926h-13.254c-1.047 0-1.902-.887-1.923-1.986.002-.03.004-.062.004-.087 0-.026-.002-.059-.004-.092v-11.1c0-1.057.814-1.917 1.816-1.917s1.816.86 1.816 1.917v8.211c0 .553.448 1 1 1h32.007c.553 0 1-.447 1-1v-8.211c0-1.057.814-1.917 1.816-1.917s1.816.86 1.816 1.917v11.094c-.001.014-.002.025-.003.035-.003.042-.003.083 0 .125.001.008.001.019.002.029-.022 1.097-.876 1.981-1.922 1.981h-13.253c-.523 0-.958.403-.997.926-.039.521.331.985.849 1.063 11.774 1.771 20.454 9.244 21.219 18.025h-53.06c.765-8.78 9.445-16.252 21.22-18.024zm-51.802-.658c0-.447.335-.811.748-.811.412 0 .748.363.748.811 0 4.471 4.377 6.721 7.583 7.771-.391.395-.685.884-.874 1.424-3.564-1.235-8.205-3.863-8.205-9.195zm9.976 10.46c0-.98.755-1.777 1.683-1.777s1.683.797 1.683 1.777c0 4.862 3.733 8.813 10.542 11.195-.007.035-.013.07-.019.106-.117.705-.2 1.429-.268 2.16-.028.292-.048.583-.068.875-.01.156-.028.308-.036.465-5.551-1.833-13.517-5.999-13.517-14.801zm-8.838 54.69c0 .446-.335.81-.748.81-.412 0-.748-.363-.748-.81 0-5.319 4.643-7.951 8.205-9.19.189.538.482 1.024.872 1.418-3.205 1.05-7.581 3.3-7.581 7.772zm11.846-10.461c0 .98-.755 1.778-1.683 1.778s-1.683-.798-1.683-1.778c0-8.924 8.147-13.087 13.826-14.903v3.735c-4.929 1.74-10.46 5.054-10.46 11.168zm.557 36.249c.174.421-.005.906-.4 1.081-.173.075-.366.081-.541.011-.191-.077-.341-.229-.424-.43-2.025-4.898 1.249-9.219 4.059-11.816.362.396.798.715 1.304.924-2.551 2.251-5.715 6.078-3.998 10.23zm6.913-14.443c.377.91-.023 1.965-.892 2.351-.398.178-.84.186-1.245.023-.428-.171-.764-.509-.947-.951-3.82-9.238 4.092-17.117 8.707-20.735.465 1.106.99 2.178 1.565 3.217-4.168 3.369-9.917 9.495-7.188 16.095zm35.658-1.459h-.809c-16.464 0-29.859-13.888-29.859-30.957v-17.219c0-1.595.132-3.199.393-4.771.135-.815.822-1.406 1.632-1.406h28.643z" fill="#3a2c60"/><circle cx="51.622" cy="34.842" fill="#3a2c60" r="3.323"/><path d="m72.377 37.99c1.835 0 3.323-1.488 3.323-3.323s-1.488-3.323-3.323-3.323-3.323 1.488-3.323 3.323 1.488 3.323 3.323 3.323z" fill="#3a2c60"/></svg>