<svg id="Layer_1" enable-background="new 0 0 128 128" height="512" viewBox="0 0 128 128" width="512" xmlns="http://www.w3.org/2000/svg"><path d="m97.737 113.088c.581 8.087 11.705 7.534 11.705 7.534s0 0-1.964-6.539c-.96-3.195-3.22-4.372-5.282-4.747-.052-.094-.113-.185-.198-.261-2.518-2.215-4.403-4.786-5.788-7.164 1.636-7.298 2.073-16.604-.57-24.058.756-.796 1.489-1.607 2.191-2.433.348-.41 2.194-2.767 2.384-3.029 1.057-1.457 1.992-2.93 2.779-4.375.257-.472 1.646-3.476 1.835-3.978 1.078-2.861 1.625-5.727 1.625-8.517 0-9.662-2.983-18.602-8.022-25.875 1.098-1.347 2.09-2.882 2.962-4.625 3.523-7.038 1.75-14.597-.84-18.931-.49-.824-1.636-1.147-2.506-.704-.262.134-1.528.91-.615 3.036.49 1.142.265 6.964-2.836 11.291-.748 1.043-1.612 1.894-2.565 2.595-7.382-6.764-17.023-10.875-27.568-10.875-10.257 0-19.663 3.887-26.963 10.325-.188-.169-.381-.331-.558-.516-4.059-4.226-4.317-11.257-4.194-12.918.631-1.28.155-2.3-.633-2.76-.899-.525-2.061-.282-2.544.527-2.59 4.334-4.363 11.892-.841 18.931.703 1.404 1.481 2.677 2.33 3.825-5.382 7.412-8.587 16.656-8.587 26.675 0 7.67 4.024 14.823 9.567 21.042-3.21 7.697-2.789 17.766-1.027 25.514.104.775 1.212 8.735 2.193 12.215-2.892 1.205-6.006 4.194-6.345 11.422-.012.266.085.524.268.717.183.192.438.301.704.301h71.517c.266 0 .521-.109.704-.301.183-.193.28-.451.268-.717-.338-7.228-3.452-10.217-6.344-11.422.302-1.072.616-2.57.91-4.151.861 1.006 1.808 1.998 2.848 2.946z" fill="#e6e7e8"/><path d="m90.419 103.95c1.254 1.677 2.725 3.347 4.476 4.887l2.57-2.922c-2.714-2.387-4.717-5.175-6.162-7.719-.096.708-.443 3.147-.884 5.754z" fill="#ffd7e5"/><path d="m89.831 111.347c-.523-.228-.781-.817-.631-1.368.952-3.485 2.071-11.492 2.127-11.969 1.68-7.359 2.159-16.875-.688-24.293-12.15 12.593-30.065 21.026-30.065 21.026s-19.13-9.005-31.261-22.3c-3.435 7.577-3.008 17.778-1.23 25.567.055.468 1.136 8.203 2.076 11.78.173.659-.134 1.347-.753 1.634-2.53 1.173-5.156 3.951-5.461 10.443h35.193 1.132 35.193c-.311-6.639-3.05-9.394-5.632-10.52z" fill="#ffd7e5"/><path d="m60.574 8.514c-22.653 0-41.016 19.303-41.016 43.115s41.016 43.114 41.016 43.114 41.016-19.303 41.016-43.114-18.364-43.115-41.016-43.115z" fill="#fa759e"/><path d="m40.839 26.815h.058c.111-2.004.51-3.765 1.155-5.306-13.658.665-14.46-14.706-14.143-17.362.963-1.686-.951-2.187-1.392-1.45-2.007 3.359-4.406 10.803-.805 17.997 4.001 7.994 9.946 10.43 15.127 10.879z" fill="#6dc9f7"/><path d="m95.828 2.697c-.44-.737-2.304-.676-1.392 1.45 1.021 2.379-.37 17.031-12.856 17.376 1.308 1.982 2.131 4.416 2.296 7.405l.012 2.295c4.544-.958 9.346-3.738 12.745-10.528 3.6-7.194 1.202-14.638-.805-17.998z" fill="#6dc9f7"/><path d="m83.904 34.3.029 5.537c0 1.981-1.605 3.586-3.586 3.586-.265 0-.519-.039-.767-.094-.014.151-.022.297-.038.45-.019.185-.057.372-.08.558 2.181 1.433 5.384 1.739 10.1-.725.001 0 .285-7.462-5.658-9.312z" fill="#ffd7e5"/><path d="m44.425 41.31c-1.98 0-3.586-1.605-3.586-3.586v-3.821c-8.414.367-8.057 9.71-8.057 9.71 7.427 3.88 11.115.908 12.936-2.556-.402.157-.834.253-1.293.253z" fill="#ffd7e5"/><path d="m76.967 40.985c-.481 1.414-1.805 2.438-3.381 2.438s-2.9-1.024-3.381-2.438c-.481 1.414-1.805 2.438-3.381 2.438s-2.9-1.024-3.381-2.438c-.481 1.414-1.805 2.438-3.381 2.438s-2.9-1.024-3.381-2.438c-.481 1.414-1.805 2.438-3.381 2.438s-2.9-1.024-3.381-2.438c-.481 1.414-1.805 2.438-3.381 2.438-1.929 0-3.49-1.526-3.571-3.435-.037 1.194.01 2.456.149 3.792.678 6.489 3.463 13.399 7.106 18.259.742.99 1.152 2.157 1.237 3.327.938-1.856 2.858-3.131 5.079-3.131h9.267c2.496 0 4.612 1.609 5.381 3.844-.061-1.401.357-2.849 1.25-4.04 3.643-4.86 6.428-11.77 7.106-18.259.016-.153.024-.299.038-.45-1.226-.272-2.214-1.169-2.613-2.345z" fill="#ffd7e5"/><path d="m81.763 26.815c-.595-10.783-9.501-14.566-20.433-14.566s-19.838 3.783-20.433 14.566h-.058v10.909c0 1.981 1.606 3.586 3.586 3.586 1.576 0 2.9-1.024 3.381-2.437.481 1.414 1.805 2.437 3.381 2.437s2.9-1.024 3.381-2.437c.481 1.414 1.805 2.437 3.381 2.437s2.9-1.024 3.381-2.437c.481 1.414 1.805 2.437 3.381 2.437s2.9-1.024 3.381-2.437c.481 1.414 1.805 2.437 3.381 2.437s2.9-1.024 3.381-2.437c.481 1.414 1.805 2.437 3.381 2.437 1.98 0 3.586-1.605 3.586-3.586z" fill="#fff"/><path d="m83.876 28.928c-.595-10.783-9.501-14.566-20.433-14.566s-19.839 3.783-20.433 14.566h-.058v10.909c0 1.981 1.606 3.586 3.586 3.586 1.576 0 2.9-1.024 3.381-2.437.481 1.414 1.805 2.437 3.381 2.437s2.9-1.024 3.381-2.437c.481 1.414 1.805 2.437 3.381 2.437s2.9-1.024 3.381-2.437c.481 1.414 1.805 2.437 3.381 2.437s2.9-1.024 3.381-2.437c.481 1.414 1.805 2.437 3.381 2.437s2.9-1.024 3.381-2.437c.481 1.414 1.805 2.437 3.381 2.437 1.98 0 3.586-1.605 3.586-3.586z" fill="#fa759e"/><path d="m65.806 62.234h-9.267c-3.145 0-5.694 2.549-5.694 5.694s2.549 5.694 5.694 5.694h9.267c3.145 0 5.694-2.549 5.694-5.694s-2.55-5.694-5.694-5.694z" fill="#fa759e"/><g fill="#3a2c60"><path d="m93.847 109.227c.606 8.056 11.704 7.503 11.704 7.503s0 0-1.964-6.538c-.953-3.173-3.188-4.354-5.239-4.738-.057-.108-.129-.209-.223-.291-2.194-1.929-4.13-4.347-5.773-7.17 1.63-7.292 2.067-16.582-.569-24.028.75-.791 1.48-1.597 2.177-2.418.357-.422.306-1.053-.115-1.41-.423-.357-1.053-.305-1.41.115-10.772 12.692-28.859 21.904-31.861 23.38-4.33-2.133-40.016-20.373-40.016-42.004 0-9.387 2.948-18.055 7.901-25.065 3.021 3.345 6.824 5.31 11.38 5.888v.544c-1.61.203-3.022.724-4.202 1.606-4.042 3.017-3.863 8.806-3.854 9.051.014.358.219.682.536.848 2.483 1.298 4.741 1.947 6.752 1.947 1.196 0 2.299-.244 3.317-.704.966 5.951 3.569 12.273 7.035 16.896.569.759.896 1.656 1.002 2.577-.37.83-.58 1.747-.58 2.713 0 3.69 3.003 6.693 6.694 6.693h.691 8.197.378c3.69 0 6.693-3.003 6.693-6.693 0-.684-.104-1.344-.296-1.966-.036-1.177.311-2.359 1.033-3.324 3.438-4.586 6.03-10.847 7.015-16.756.935.375 1.942.565 3.022.565 2.011 0 4.269-.65 6.752-1.947.317-.166.522-.489.536-.848.01-.245.188-6.034-3.854-9.051-.826-.617-1.772-1.047-2.809-1.332l.011 2.091c.58.211 1.117.483 1.593.836 2.551 1.896 2.98 5.427 3.049 6.807-3.261 1.591-5.95 1.853-8.01.805.011-.137.015-.27.027-.407-.075.005-.146.022-.222.022-.207 0-.408-.024-.604-.059-.066-.014-.131-.029-.197-.044.012.003.022.007.034.01v.001c-.349-.079-.68-.204-.982-.376-.019.243-.023.474-.049.721-.641 6.123-3.289 12.93-6.912 17.764-.43.574-.756 1.21-.997 1.873-1.22-1.277-2.934-2.077-4.834-2.077h-9.267c-1.784 0-3.402.705-4.603 1.846-.233-.579-.533-1.135-.913-1.642-3.624-4.834-6.272-11.641-6.912-17.763-.046-.441-.062-.86-.088-1.286-.04-.04-.067-.09-.105-.131.169.019.334.051.508.051 1.314 0 2.532-.566 3.381-1.504.849.938 2.066 1.504 3.381 1.504s2.532-.566 3.381-1.504c.849.938 2.066 1.504 3.381 1.504s2.532-.566 3.381-1.505c.85.938 2.066 1.505 3.381 1.505s2.532-.566 3.381-1.505c.85.938 2.067 1.505 3.382 1.505s2.531-.566 3.381-1.505c.849.938 2.065 1.505 3.381 1.505 2.528 0 4.586-2.058 4.586-4.591l-.058-10.911c0-.017-.001-.033-.002-.05-.097-1.769-.427-3.39-.958-4.872.121.198.247.392.358.599 4.238-.265 7.722-2.131 10.148-5.514 3.163-4.412 3.816-10.398 3.194-12.777 1.722 3.492 3.304 9.921.235 16.052-2.772 5.537-6.693 8.826-11.856 9.952l.011 2.045c3.622-.711 6.729-2.37 9.31-4.957 4.646 6.879 7.387 15.278 7.387 24.341 0 2.551-.504 5.183-1.498 7.822-.195.517.066 1.094.583 1.288.516.194 1.095-.067 1.288-.583 1.08-2.866 1.627-5.735 1.627-8.527 0-9.658-2.983-18.592-8.018-25.865 1.096-1.346 2.085-2.882 2.955-4.622 3.527-7.049 1.751-14.618-.842-18.958-.499-.834-1.66-1.162-2.541-.714-.267.136-1.55.923-.628 3.071.489 1.139.263 6.948-2.834 11.267-.741 1.034-1.598 1.879-2.543 2.572-7.384-6.758-17.023-10.866-27.565-10.866-10.255 0-19.65 3.893-26.951 10.325-.185-.167-.375-.326-.55-.509-4.049-4.216-4.309-11.225-4.187-12.892.636-1.293.153-2.324-.645-2.79-.905-.533-2.09-.287-2.582.534v.001c-2.593 4.341-4.368 11.91-.841 18.958.702 1.403 1.481 2.672 2.331 3.818-5.379 7.414-8.59 16.65-8.59 26.668 0 7.676 4.026 14.834 9.572 21.057-3.206 7.702-2.794 17.758-1.031 25.504.107.795 1.208 8.704 2.187 12.195-2.893 1.215-6 4.214-6.338 11.437-.013.273.087.539.275.737.188.197.45.31.724.31h71.517c.273 0 .535-.112.724-.31.188-.198.288-.464.275-.737-.338-7.223-3.445-10.222-6.338-11.437.298-1.063.607-2.536.896-4.091.901 1.062 1.846 2.042 2.825 2.935zm-37.308-45.992h9.267c2.588 0 4.693 2.105 4.693 4.693s-2.105 4.693-4.693 4.693h-9.267c-2.589 0-4.694-2.105-4.694-4.693s2.105-4.693 4.694-4.693zm-14.434-19.588c-.041.024-.077.054-.118.077-2.085 1.158-4.839.915-8.195-.722.064-1.375.485-4.891 3.042-6.799.838-.626 1.845-1.022 3.006-1.204v2.724c0 1.629.86 3.053 2.144 3.867.016.671.053 1.354.121 2.057zm36.13-3.337c-1.098 0-2.076-.707-2.435-1.76-.138-.405-.518-.678-.946-.678s-.809.272-.946.678c-.359 1.053-1.337 1.76-2.435 1.76s-2.076-.707-2.436-1.76c-.138-.405-.519-.678-.946-.678-.429 0-.809.272-.946.678-.358 1.053-1.337 1.76-2.435 1.76s-2.075-.707-2.435-1.76c-.138-.405-.519-.678-.946-.678-.429 0-.809.272-.946.678-.358 1.053-1.337 1.76-2.435 1.76s-2.076-.707-2.435-1.76c-.138-.405-.518-.678-.946-.678s-.809.272-.946.678c-.358 1.053-1.337 1.76-2.435 1.76-1.099 0-2.076-.707-2.434-1.759-.139-.406-.519-.679-.947-.679s-.809.272-.947.679c-.357 1.052-1.335 1.759-2.434 1.759-1.426 0-2.586-1.16-2.586-2.586v-10.574c.031-.088.051-.182.056-.28.621-11.258 10.911-13.621 19.435-13.621 8.518 0 18.799 2.36 19.434 13.597l.058 10.879c0 1.425-1.161 2.585-2.586 2.585zm-17.661-30.796c9.812 0 18.799 3.749 25.767 9.94-1.511.695-3.223 1.042-5.121 1.051-2.893-6.012-9.724-9.257-19.891-9.257-10.178 0-17.009 3.254-19.896 9.279-2.365.034-4.424-.462-6.161-1.477 6.902-5.948 15.706-9.536 25.302-9.536zm-33.662-5.461c-.201 1.776.011 9.763 4.718 14.662 2.328 2.424 5.364 3.674 9.027 3.786-.379 1.218-.637 2.518-.737 3.919-.053.121-.081.255-.081.395v3.643c-5.853-.81-10.219-4.188-13.232-10.21-3.111-6.215-1.443-12.737.305-16.195zm64.565 99.637c.015-.089.028-.173.042-.261.03-.18.058-.355.086-.531.105-.649.205-1.281.292-1.85 1.075 1.583 2.256 3.014 3.524 4.297-.74.074-1.215.194-1.215.194-.086.354-.156.695-.213 1.027-.871-.893-1.719-1.838-2.516-2.876zm-62.401-5.795c-.004-.036-.01-.072-.019-.107-1.633-7.147-2.088-16.33.574-23.476 11.941 12.474 29.405 20.814 30.516 21.337.135.063.28.095.426.095s.291-.031.426-.095c.188-.089 17.093-8.128 29.211-20.08 2.173 6.943 1.68 15.484.141 22.219-.008.035-.015.07-.019.105-.005.041-.015.119-.027.212-.104.765-.447 3.158-.873 5.677v.003c-.466 2.762-1.031 5.688-1.487 6.844-.051.127-.072.261-.068.395-.882-.215-1.8-.341-2.749-.341-.64 0-3.495.294-6.992.704v-3.26c0-.553-.447-1-1-1s-1 .447-1 1v3.499c-3.454.419-7.214.911-9.996 1.331v-12.537c0-.553-.447-1-1-1s-1 .447-1 1v12.854c-.012.002-.026.004-.039.007v7.586h-9.567v-7.586c-.037-.006-.078-.013-.116-.02v-12.841c0-.553-.447-1-1-1s-1 .447-1 1v12.524c-2.601-.391-6.034-.843-9.273-1.24v-3.578c0-.553-.447-1-1-1s-1 .447-1 1v3.337c-3.787-.449-6.959-.78-7.637-.78-.685 0-1.349.076-2.001.19-.01-.082-.011-.166-.042-.244-.933-2.357-2.313-12.088-2.389-12.734z"/><path d="m97.37 63.181c-.75 1.377-1.64 2.776-2.645 4.159-.324.447-.225 1.072.222 1.397.178.129.384.19.587.19.31 0 .614-.143.811-.412 1.055-1.453 1.991-2.926 2.781-4.378.265-.485.085-1.093-.399-1.356-.487-.264-1.094-.084-1.357.4z"/><path d="m48.95 42.93c-1.389 0-2.515 1.126-2.515 2.515s1.126 2.515 2.515 2.515 2.515-1.126 2.515-2.515-1.126-2.515-2.515-2.515z"/><path d="m71.499 45.444c0 1.389 1.126 2.515 2.515 2.515s2.515-1.126 2.515-2.515-1.126-2.515-2.515-2.515c-1.389.001-2.515 1.127-2.515 2.515z"/><circle cx="57.314" cy="67.928" r="2.218"/><path d="m65.661 70.146c1.225 0 2.218-.993 2.218-2.218s-.993-2.218-2.218-2.218-2.218.993-2.218 2.218.993 2.218 2.218 2.218z"/></g></svg>