<svg id="Layer_1" enable-background="new 0 0 128 128" height="512" viewBox="0 0 128 128" width="512" xmlns="http://www.w3.org/2000/svg"><path d="m115.943 75.109 1.639-1.289c7.77-6.114 8.866-18.347 3.049-27.202l-.897-1.365c-.077-.117-.173-.252-.256-.375-.394-.779-.818-1.548-1.306-2.291l-.898-1.366c-1.713-2.608-4.959-6.692-7.38-9.658-1.736-2.128-4.614-2.872-7.159-1.855-3.393 1.357-7.933 3.287-10.293 4.777l-1.595 1.007c-8.025 5.07-13.664 13.37-16.533 23.048v-4.525c0-3.433-1.884-6.43-4.669-8.026l6.817-26.762c.186-.509.426-1.005.715-1.472 1.805-2.928 5.653-3.841 8.58-2.038 2.234 1.377 2.933 4.316 1.557 6.55-1.035 1.681-3.247 2.208-4.928 1.172-.787-.485-1.227-1.32-1.249-2.182.359.173.756.278 1.181.278 1.508 0 2.731-1.223 2.731-2.731s-1.223-2.731-2.731-2.731c-1.437 0-2.603 1.114-2.71 2.524-.005.008-.014.012-.019.02-1.42 2.304-.7 5.335 1.605 6.757 2.751 1.694 6.362.833 8.055-1.915 2.033-3.302 1.002-7.642-2.3-9.677-3.995-2.459-9.244-1.21-11.706 2.78-.368.598-.676 1.234-.947 1.996l-6.769 26.549c-.786-.218-1.61-.343-2.464-.343-.908 0-1.785.137-2.615.382l-7.418-26.698c-.24-.653-.547-1.287-.914-1.885-2.461-3.994-7.713-5.24-11.706-2.781-1.6.986-2.719 2.535-3.154 4.362-.435 1.828-.131 3.716.854 5.314 1.693 2.748 5.308 3.606 8.055 1.915 2.167-1.336 2.908-4.089 1.812-6.33.007-.08.024-.158.024-.24 0-1.508-1.223-2.731-2.731-2.731s-2.731 1.223-2.731 2.731 1.223 2.731 2.731 2.731c.334 0 .65-.069.945-.178-.053.826-.487 1.616-1.243 2.082-1.68 1.036-3.893.509-4.928-1.172-1.377-2.234-.679-5.173 1.557-6.55 2.928-1.803 6.776-.889 8.58 2.037.287.468.528.964.687 1.389l7.479 26.928c-2.71 1.615-4.535 4.567-4.535 7.945v1.96c-.938-2.01-2.017-3.915-3.217-5.705-3.176-6.073-7.66-11.205-13.317-14.778l-1.594-1.007c-2.362-1.491-6.902-3.422-10.294-4.777-2.544-1.02-5.422-.274-7.158 1.855-2.421 2.965-5.666 7.047-7.381 9.658l-.896 1.366c-6.239 9.497-4.761 22.38 3.296 28.719l.853.671-.433.721c-6.915 11.565-5.068 27.65 4.117 35.857l.49.438c2.497 2.231 7.406 5.362 11.083 7.597.162.098.331.173.498.257 1.221.78 2.426 1.527 3.5 2.181 2.419 1.47 5.526 1.028 7.453-1.045 3.422-3.682 8.549-9.588 10.837-14.202l1.223-2.466c.941-1.989 1.744-4.001 2.436-6.022 1.651 2.539 4.508 4.225 7.756 4.225 5.102 0 9.253-4.151 9.253-9.253v-.739c.852 3.012 1.959 5.988 3.331 8.885l1.223 2.465c2.297 4.631 7.261 10.426 11.023 14.471 1.029 1.108 2.353 1.821 3.758 2.112.163.177.326.354.482.522 1.927 2.073 5.035 2.515 7.453 1.045 3.542-2.153 8.465-5.284 10.916-7.473l.491-.439c9.018-8.056 10.412-23.533 3.898-34.425z" fill="#e6e7e8"/><path d="m9.253 37.299c1.713-2.608 5.04-6.781 7.311-9.564 1.414-1.732 3.781-2.347 5.858-1.517 3.199 1.279 7.784 3.215 10.108 4.683l1.595 1.008c17.103 10.803 24.041 37.68 12.791 61.451l-1.223 2.466c-2.288 4.613-7.415 10.519-10.837 14.201-1.927 2.073-5.035 2.515-7.453 1.045-3.542-2.153-8.465-5.284-10.916-7.473l-.491-.438c-9.018-8.057-10.412-23.533-3.898-34.425l.945-1.58-1.639-1.289c-7.77-6.114-8.866-18.347-3.049-27.202z" fill="#fff"/><path d="m111.781 37.299c-1.713-2.608-5.04-6.781-7.311-9.564-1.414-1.732-3.781-2.347-5.858-1.517-3.199 1.279-7.784 3.215-10.108 4.683l-1.595 1.008c-17.103 10.803-24.041 37.68-12.791 61.451l1.223 2.466c2.288 4.613 7.415 10.519 10.837 14.201 1.927 2.073 5.035 2.515 7.453 1.045 3.542-2.153 8.465-5.284 10.916-7.473l.491-.438c9.018-8.057 10.412-23.533 3.898-34.425l-.945-1.58 1.639-1.289c7.77-6.114 8.866-18.347 3.049-27.202z" fill="#fff"/><path d="m12.661 40.707c1.713-2.608 5.04-6.781 7.311-9.564 1.414-1.732 3.781-2.347 5.858-1.517 3.199 1.279 7.784 3.215 10.108 4.683l1.595 1.008c17.104 10.804 24.042 37.681 12.793 61.452l-1.223 2.466c-2.288 4.613-7.415 10.519-10.837 14.201-1.927 2.073-5.035 2.515-7.453 1.045-3.542-2.153-8.465-5.284-10.916-7.473l-.491-.438c-9.018-8.057-10.412-23.533-3.898-34.425l.945-1.58-1.639-1.289c-7.77-6.114-8.866-18.347-3.049-27.202z" fill="#fa759e"/><path d="m115.19 40.707c-1.713-2.608-5.04-6.781-7.311-9.564-1.414-1.732-3.781-2.347-5.858-1.517-3.199 1.279-7.784 3.215-10.108 4.683l-1.595 1.008c-17.104 10.804-24.042 37.681-12.792 61.451l1.223 2.466c2.288 4.613 7.415 10.519 10.837 14.201 1.927 2.073 5.035 2.515 7.453 1.045 3.542-2.153 8.465-5.284 10.916-7.473l.491-.438c9.018-8.057 10.412-23.533 3.898-34.425l-.945-1.58 1.639-1.289c7.77-6.114 8.866-18.347 3.049-27.202z" fill="#fa759e"/><path d="m60.517 41.355c-4.483 0-8.116 3.634-8.116 8.116v36.247c0 4.483 3.634 8.116 8.116 8.116 4.483 0 8.116-3.634 8.116-8.116v-36.247c0-4.482-3.633-8.116-8.116-8.116z" fill="#6dc9f7"/><g fill="#3a2c60"><path d="m46.787 93.621c-.493-.248-1.095-.043-1.34.451l-.649 1.31c-.521 1.05-1.231 2.238-2.109 3.529-.311.457-.191 1.079.265 1.39.173.117.368.173.562.173.32 0 .635-.153.828-.438.929-1.367 1.685-2.634 2.246-3.766l.649-1.31c.246-.494.043-1.094-.452-1.339z"/><path d="m109.3 67.398.947-.745c8.002-6.297 9.468-19.099 3.268-28.538l-.897-1.365c-1.711-2.604-4.953-6.683-7.372-9.647-1.697-2.078-4.511-2.811-7.003-1.813-3.383 1.352-7.911 3.275-10.271 4.767l-1.595 1.007c-8.261 5.218-13.977 13.876-16.743 23.933v-5.523c0-3.42-1.896-6.403-4.69-7.962l6.862-26.918c.187-.5.425-.988.71-1.452 1.844-2.992 5.776-3.925 8.767-2.083 2.299 1.417 3.018 4.439 1.602 6.738-1.075 1.747-3.368 2.29-5.115 1.216-.851-.524-1.311-1.437-1.31-2.37.391.216.834.35 1.313.35 1.508 0 2.731-1.223 2.731-2.731s-1.223-2.731-2.731-2.731-2.731 1.223-2.731 2.731c0 .036.009.07.011.106-1.208 2.211-.501 5.011 1.669 6.348 2.686 1.652 6.212.814 7.867-1.87 1.994-3.237.982-7.495-2.256-9.49-3.93-2.421-9.097-1.193-11.519 2.738-.364.593-.668 1.219-.902 1.86-.012.031-.021.063-.029.096l-6.802 26.682c-.814-.239-1.672-.373-2.562-.373-.943 0-1.853.144-2.709.411l-7.452-26.815c-.236-.646-.539-1.272-.902-1.861-2.426-3.934-7.591-5.164-11.521-2.742-1.569.967-2.667 2.486-3.094 4.278-.426 1.793-.128 3.644.839 5.212.801 1.301 2.061 2.211 3.546 2.564 1.486.355 3.021.107 4.321-.694 2.044-1.26 2.786-3.816 1.858-5.957.03-.162.05-.327.05-.497 0-1.508-1.223-2.731-2.731-2.731s-2.731 1.223-2.731 2.731 1.223 2.731 2.731 2.731c.388 0 .756-.083 1.09-.229-.037.89-.502 1.747-1.316 2.249-.845.521-1.844.682-2.81.451-.966-.229-1.785-.821-2.306-1.667-.687-1.113-.898-2.428-.596-3.7s1.082-2.352 2.196-3.038c2.989-1.842 6.924-.909 8.767 2.083.293.475.537.979.702 1.423l7.507 27.027c-2.721 1.579-4.559 4.518-4.559 7.883v5.034c-2.829-9.847-8.561-18.274-16.743-23.443l-1.595-1.007c-2.358-1.49-6.887-3.414-10.271-4.767-2.491-.996-5.307-.267-7.003 1.814-2.422 2.966-5.666 7.048-7.373 9.646l-.894 1.367c-6.201 9.439-4.735 22.241 3.267 28.538l.947.745-.493.824c-6.884 11.512-5.049 27.52 4.09 35.684l.491.439c2.488 2.223 7.39 5.351 11.063 7.582 1.109.674 2.353 1.001 3.589 1.001 1.889 0 3.763-.764 5.116-2.22 1.917-2.064 3.659-4.057 5.18-5.922.349-.429.284-1.059-.144-1.407-.428-.35-1.058-.283-1.407.144-1.493 1.832-3.207 3.792-5.094 5.824-1.598 1.719-4.205 2.084-6.201.871-3.602-2.188-8.394-5.243-10.769-7.364l-.491-.439c-8.46-7.558-10.123-22.436-3.706-33.166l.653-1.093h22.044c.553 0 1-.447 1-1s-.447-1-1-1h-22.266l-1.367-1.075c-7.206-5.67-8.477-17.274-2.831-25.868l.896-1.365c1.66-2.526 4.859-6.55 7.251-9.48 1.141-1.4 3.033-1.89 4.711-1.221 4.673 1.867 8.204 3.501 9.944 4.601l1.595 1.007c11.073 6.994 17.423 20.298 17.812 34.887v3.042c-.183 6.071-1.389 12.302-3.714 18.341-.198.516.059 1.095.574 1.293.514.194 1.094-.059 1.293-.574.722-1.876 1.33-3.771 1.847-5.674v1.65c0 5.026 4.09 9.116 9.116 9.116s9.116-4.09 9.116-9.116v-1.8c.882 3.353 2.067 6.669 3.589 9.886l1.224 2.466c2.288 4.614 7.245 10.398 11 14.438 1.354 1.457 3.227 2.22 5.116 2.22 1.236 0 2.479-.327 3.589-1.001 3.672-2.231 8.571-5.357 11.062-7.582l.491-.438c9.14-8.166 10.975-24.174 4.091-35.685zm-41.667 18.321c0 3.924-3.192 7.116-7.116 7.116s-7.116-3.192-7.116-7.116v-15.205c.022-.88.019-1.756 0-2.628v-18.415c0-3.924 3.192-7.116 7.116-7.116s7.116 3.192 7.116 7.116zm36.738 16.696-.491.438c-2.378 2.124-7.168 5.178-10.769 7.365-1.996 1.213-4.604.846-6.201-.871-3-3.229-8.377-9.335-10.674-13.966l-1.215-2.449c-10.514-22.215-4.94-49.211 12.423-60.179l1.595-1.007c1.741-1.101 5.273-2.734 9.945-4.601.499-.199 1.019-.296 1.53-.296 1.207 0 2.38.534 3.182 1.517 2.389 2.928 5.586 6.949 7.249 9.48l.897 1.365c5.645 8.594 4.374 20.198-2.832 25.868l-1.367 1.075h-20.933c-.553 0-1 .447-1 1s.447 1 1 1h20.713l.654 1.094c6.417 10.73 4.754 25.608-3.706 33.167z"/><path d="m58.86 53.387c0-1.16-.941-2.101-2.101-2.101s-2.101.94-2.101 2.101c0 1.16.941 2.101 2.101 2.101s2.101-.94 2.101-2.101z"/><path d="m62.174 53.387c0 1.16.941 2.101 2.101 2.101s2.101-.941 2.101-2.101-.941-2.101-2.101-2.101c-1.16.001-2.101.941-2.101 2.101z"/><path d="m62.732 59.33c-.553 0-1 .447-1 1 0 .67-.545 1.216-1.215 1.216s-1.215-.546-1.215-1.216c0-.553-.447-1-1-1s-1 .447-1 1c0 1.773 1.442 3.216 3.215 3.216s3.215-1.442 3.215-3.216c0-.553-.448-1-1-1z"/></g></svg>