<svg id="Layer_1" enable-background="new 0 0 128 128" height="512" viewBox="0 0 128 128" width="512" xmlns="http://www.w3.org/2000/svg"><path d="m107.765 63.175c1.191-2.764.733-6.59-2.221-8.777-2.166-1.599-4.733-2.119-7.233-1.458-2.685.71-4.995 2.733-6.183 5.412-1.801 4.064-.963 7.871-.289 10.93.211.959.41 1.864.538 2.759.405 2.833.022 5.688-.953 7.104-.068.099-.144.184-.216.277-.264-.352-.528-.704-.82-1.036-.258-.294-.712-.744-1.518-1.505-.831-.785-1.24-1.921-1.095-3.037.368-2.843.555-5.758.555-8.665 0-5.978-.778-11.741-2.214-17.028 1.258-1.204 1.975-2.702 1.91-4.321-.021-.546-.288-1.323-1.436-1.926-.707-.371-1.729-.639-2.915-.821-2.161-5.057-5.01-9.434-8.451-12.782-2.104-2.047-4.637-9.602-4.637-10.837 0-5.6-4.556-10.155-10.155-10.155-5.6 0-10.155 4.556-10.155 10.155 0 1.235-2.533 8.79-4.637 10.837-3.385 3.294-6.196 7.586-8.344 12.54-2.683.21-5.335.903-5.447 2.803-.117 1.975.936 3.791 2.728 5.125-1.329 5.115-2.041 10.666-2.041 16.409 0 2.911.188 5.831.558 8.68.149 1.146-.281 2.303-1.149 3.092-.717.652-1.156 1.081-1.466 1.436-6.159 7.021-5.978 18.474-3.751 26.868.104.59.696 3.126 1.332 5.372.415 1.465-.108 3.009-1.289 3.833l-.109.077c-1.105.793-1.824 1.903-2.13 3.131-1.057 1.413-1.644 3.338-1.081 5.95l3.318.011c.906.629 2.001.99 3.189.99h24.738c.854.049 1.735.075 2.646.075.909 0 1.849-.027 2.814-.075h30.754c1.188 0 2.283-.361 3.19-.99l3.088-.01c.499-2.316.095-4.093-.74-5.451-.213-1.427-.988-2.73-2.242-3.63l-.583.812.577-.817c-.005-.003-.087-.061-.092-.064-1.191-.832-1.715-2.376-1.301-3.841.637-2.245 1.229-4.782 1.333-5.372 1.543-5.816 2.099-13.098.249-19.359 1.01-.785 1.925-1.724 2.699-2.848 2.929-4.253 2.346-10.245 2.098-11.98-.167-1.159-.413-2.276-.631-3.264-.573-2.605-1.025-4.663-.14-6.663.34-.766.989-1.375 1.653-1.551.275-.071.941-.208 1.164.109.13.188.048.714-.063.996-.276.66-.327 1.293-.24 1.879-1.413 1.311-2.764 4.505 1.839 11.898 0-.002 8.935-4.384 4.997-11.297z" fill="#e6e7e8"/><path d="m100.95 51.203c-1.919-1.418-4.186-1.878-6.384-1.297-2.394.634-4.459 2.447-5.524 4.851-1.667 3.762-.902 7.24-.226 10.309.215.978.418 1.902.552 2.833.446 3.111.006 6.178-1.12 7.814-.357.519-.753.929-1.162 1.285.904 1.396 1.608 2.914 2.137 4.517 1.161-.788 2.19-1.797 3.042-3.035 2.723-3.955 2.167-9.627 1.931-11.272-.159-1.109-.391-2.167-.617-3.189-.588-2.675-1.096-4.985-.077-7.285.464-1.048 1.351-1.858 2.312-2.112.76-.201 1.723-.235 2.239.505.53.76.039 1.953.039 1.953-1.184 2.833 2.888 4.986 4.439 2.335.013-.023.027-.046.04-.069 1.365-2.408 1.129-6.109-1.621-8.143z" fill="#fa759e"/><path d="m89.623 111.348c-.029-.021-.058-.042-.087-.062-1.567-1.093-2.21-3.095-1.69-4.933.688-2.43 1.275-5.013 1.316-5.31 2.165-8.127 2.415-19.226-3.525-25.998-.264-.301-.778-.8-1.453-1.438-1.059-1.001-1.587-2.446-1.399-3.892.357-2.758.546-5.612.546-8.537 0-15.29-5.121-28.687-12.802-36.16-2.291-2.229-4.939-10.059-4.939-11.554 0-5.056-4.099-9.155-9.155-9.155s-9.155 4.099-9.155 9.155c0 1.495-2.648 9.325-4.939 11.554-7.681 7.473-12.802 20.87-12.802 36.16 0 2.93.19 5.789.549 8.551.192 1.48-.364 2.957-1.469 3.961-.589.535-1.068.992-1.387 1.355-5.94 6.772-5.69 17.872-3.525 25.998.041.298.628 2.881 1.316 5.31.52 1.838-.123 3.84-1.69 4.933-.029.021-.058.041-.087.062-3.59 2.577-1.705 8.268 2.714 8.268h29.89 1.172 29.89c4.416 0 6.3-5.692 2.711-8.268z" fill="#fa759e"/><path d="m69.169 38.467c2.224 1.977 4.143 4.547 5.638 7.494 4.679-.246 8.347-2.948 8.222-6.092-.092-2.268-8.87-2.568-13.86-1.402z" fill="#ffd7e5"/><path d="m38.746 45.955c1.037-2.729 2.416-5.233 4.066-7.371-4.952-1.283-13.83-1.16-13.964 1.118-.188 3.178 3.514 5.982 8.268 6.262.556.034 1.1.027 1.63-.009z" fill="#ffd7e5"/><path d="m55.936 31.245c-10.667 0-19.314 12.713-19.314 26.253s8.647 22.781 19.314 22.781 19.314-9.24 19.314-22.781c0-13.54-8.647-26.253-19.314-26.253z" fill="#fff"/><path d="m58.936 34.245c-10.667 0-19.314 12.713-19.314 26.253s8.647 22.781 19.314 22.781 19.314-9.24 19.314-22.781c0-13.54-8.647-26.253-19.314-26.253z" fill="#fa759e"/><path d="m70.413 66.095c-1.524-1.426-2.914-3-4.021-4.825-1.992-3.284-5.908-8.098-10.457-8.098s-8.465 4.814-10.457 8.097c-1.107 1.825-2.496 3.399-4.021 4.825-1.456 1.361-2.29 2.947-2.29 4.638 0 5.075 7.507 11.901 16.768 11.901s16.767-6.827 16.767-11.901c.002-1.69-.833-3.275-2.289-4.637z" fill="#ffd7e5"/><circle cx="51.216" cy="64.1" fill="#fa759e" r=".672"/><circle cx="49.871" cy="67.976" fill="#fa759e" r=".672"/><circle cx="52.572" cy="67.976" fill="#fa759e" r=".672"/><circle cx="60.611" cy="64.1" fill="#fa759e" r=".672"/><circle cx="59.266" cy="67.976" fill="#fa759e" r=".672"/><circle cx="61.968" cy="67.976" fill="#fa759e" r=".672"/><g fill="#3a2c60"><path d="m103.758 59.194c1.201-2.766.747-6.604-2.213-8.795 0 0 0-.001-.001-.001-2.167-1.6-4.733-2.119-7.233-1.458-2.685.71-4.995 2.733-6.183 5.412-1.8 4.063-.962 7.87-.286 10.94.21.955.408 1.858.536 2.748.405 2.833.022 5.688-.954 7.105-.066.096-.144.183-.217.274-.264-.352-.528-.703-.82-1.036-.26-.296-.7-.731-1.517-1.504-.831-.785-1.24-1.921-1.095-3.037.367-2.838.554-5.753.554-8.665 0-5.978-.783-11.738-2.22-17.024 1.263-1.203 1.982-2.703 1.917-4.325-.021-.546-.288-1.323-1.436-1.925-.711-.374-1.734-.646-2.928-.828-2.159-5.053-5.001-9.431-8.439-12.776-2.104-2.047-4.637-9.602-4.637-10.837 0-5.6-4.556-10.155-10.155-10.155s-10.153 4.557-10.153 10.157c0 1.235-2.533 8.79-4.637 10.837-3.385 3.294-6.195 7.586-8.343 12.54-2.684.21-5.337.903-5.449 2.803-.117 1.981.943 3.802 2.745 5.137-1.33 5.115-2.057 10.653-2.057 16.397 0 2.911.188 5.831.558 8.68.149 1.146-.281 2.303-1.149 3.092-.717.652-1.156 1.081-1.466 1.436-6.159 7.021-5.978 18.474-3.751 26.868.104.59.696 3.126 1.332 5.372.415 1.465-.108 3.009-1.282 3.829l-.116.081c-1.105.793-1.824 1.903-2.13 3.131-1.057 1.413-1.644 3.338-1.081 5.95l3.318.011c.906.629 2.001.99 3.189.99h24.738c.854.049 1.735.075 2.646.075.909 0 1.849-.027 2.814-.075h30.753c1.189 0 2.284-.361 3.19-.99l3.087-.01c.499-2.316.095-4.092-.739-5.45-.213-1.427-.988-2.73-2.242-3.63-.003-.002-.095-.066-.099-.069-1.192-.832-1.714-2.376-1.3-3.841.636-2.248 1.229-4.782 1.332-5.372 1.543-5.818 2.099-13.102.247-19.364 1.032-.796 1.944-1.743 2.701-2.843 2.932-4.256 2.347-10.246 2.098-11.979-.165-1.157-.412-2.276-.63-3.265-.573-2.605-1.025-4.663-.14-6.664.339-.765.988-1.373 1.653-1.55.277-.072.942-.208 1.163.11.131.188.049.712-.063.995-.276.661-.328 1.295-.24 1.882-1.413 1.309-2.766 4.5 1.839 11.895.001-.003 8.897-4.379 4.991-11.279zm-60.722-33.46c2.517-2.449 5.242-10.476 5.242-12.271 0-4.497 3.658-8.155 8.155-8.155s8.155 3.658 8.155 8.155c0 1.795 2.726 9.821 5.242 12.271 3.023 2.942 5.56 6.741 7.554 11.118-2.648-.142-5.65.059-8.029.564-.086-.105-.175-.205-.263-.308.402-.132.657-.298.704-.496.11-.463-.899-.987-2.52-1.42-.369-.347-.746-.679-1.131-.994 2.133-.947 3.41-1.94 3.011-2.475-.442-.592-2.789-.427-5.559.327 2.126-1.713 3.195-3.374 2.409-3.853-.734-.447-2.843.28-5.027 1.659.279-1.438.034-2.501-.733-2.658-.971-.198-2.459 1.127-3.559 3.073-.25-.014-.5-.028-.751-.028-.304 0-.606.013-.908.033-1.1-1.949-2.59-3.277-3.562-3.079-.767.156-1.011 1.22-.733 2.658-2.184-1.38-4.293-2.106-5.027-1.659-.787.479.283 2.14 2.409 3.853-2.77-.754-5.117-.919-5.559-.327-.406.543.915 1.561 3.112 2.521-.343.283-.679.578-1.009.887-1.757.444-2.858.997-2.743 1.481.052.218.354.397.831.535-.09.106-.181.208-.27.316-1.753-.392-3.617-.563-4.82-.634-.582-.035-1.324-.065-2.133-.066 1.987-4.338 4.509-8.106 7.512-11.028zm28.549 44.024c.079.329.119.657.119.976 0 3.275-4.053 8.813-10.403 10.036-.042.009-.082.019-.122.032-3.376 1.105-7.11 1.105-10.486 0-.04-.014-.081-.023-.122-.031-6.351-1.225-10.403-6.763-10.403-10.037 0-.321.04-.649.118-.975.055-.23.027-.473-.079-.684-1.716-3.412-2.586-7.307-2.586-11.577 0-6.767 2.167-13.114 5.561-17.754.988.404 3.807.06 6.819-.88.879-.274 1.687-.573 2.398-.877-.1.791.068 1.442.532 1.71.727.42 1.906-.241 2.775-1.491.847 1.093 1.921 1.646 2.6 1.254.458-.264.627-.904.535-1.681.815.375 1.789.749 2.869 1.086 3.145.982 6.073 1.311 6.933.82 3.421 4.645 5.608 11.017 5.608 17.814 0 4.271-.87 8.166-2.587 11.577-.106.21-.134.451-.079.682zm-36.024-30.993c.613 0 1.274.019 1.984.061 1.4.083 2.59.236 3.593.421-1.196 1.734-2.233 3.661-3.077 5.733-.292.006-.587.006-.887-.012-4.125-.244-7.48-2.628-7.339-5.161.221-.403 2.15-1.042 5.726-1.042zm52.634 62.019c-.01.035-.019.082-.024.118-.044.284-.615 2.803-1.287 5.178-.438 1.547-.182 3.149.622 4.448-1.172-.418-2.052-.555-2.052-.555l-7.45-.02 5.051-9.268c.265-.485.086-1.093-.399-1.356-.488-.266-1.092-.085-1.356.399l-7.288 13.373c-1.144 2.098-3.083 3.646-5.321 4.249-1.45.391-3.11.689-4.952.899 3.718-2.277 6.213-6.365 6.213-11.035v-27.755c-.64.501-1.307.958-2 1.366v26.39c0 6.034-4.909 10.943-10.943 10.943s-10.943-4.909-10.943-10.943v-3.979c0-.553-.448-1-1-1s-1 .447-1 1v3.979c0 4.925 2.766 9.214 6.825 11.401h-.097c-2.475-.143-4.687-.496-6.599-1.067-2.243-.67-4.094-2.17-5.212-4.222l-7.412-13.599c-.264-.484-.872-.664-1.356-.399-.485.265-.664.872-.399 1.356l5.051 9.267-7.68.02s-.73.113-1.746.449c.743-1.271.974-2.833.547-4.342-.672-2.374-1.245-4.894-1.288-5.175-.006-.04-.014-.081-.024-.121-2.105-7.9-2.341-18.638 3.311-25.081.327-.373.87-.876 1.307-1.273 1.353-1.229 2.021-3.035 1.788-4.83-.359-2.764-.541-5.597-.541-8.422 0-5.371.651-10.55 1.844-15.345 1.356.623 2.945 1.027 4.675 1.13.09.006.178.004.268.008-1.089 3.275-1.703 6.843-1.703 10.527 0 4.455.889 8.544 2.644 12.16-.064.358-.097.719-.097 1.075 0 3.059 2.309 6.798 5.895 9.339v8.573c0 .553.448 1 1 1s1-.447 1-1v-7.362c1.259.648 2.621 1.153 4.067 1.438 1.871.605 3.824.913 5.806.913s3.934-.308 5.805-.913c6.851-1.35 11.962-7.431 11.962-11.988 0-.354-.032-.715-.098-1.075 1.755-3.615 2.645-7.704 2.645-12.16 0-6.898-2.146-13.391-5.557-18.309 1.024-.171 2.237-.306 3.671-.363 4.854-.195 7.426.653 7.664 1.083.103 2.58-3.298 4.899-7.427 5.064-.11.004-.215-.009-.324-.008.353.635.685 1.29.996 1.962 1.938-.157 3.688-.696 5.106-1.502 1.261 4.908 1.95 10.228 1.95 15.752 0 2.826-.181 5.655-.538 8.407-.227 1.75.411 3.524 1.705 4.748.504.478 1.118 1.064 1.388 1.37 5.647 6.445 5.412 17.183 3.307 25.083zm7.363-47.13c-1.25.331-2.388 1.356-2.971 2.674-1.151 2.6-.585 5.176.015 7.905.221.999.448 2.033.603 3.116.224 1.553.756 6.903-1.764 10.562-.509.738-1.094 1.399-1.749 1.976-.034-.084-.075-.163-.109-.246-.354-.858-.749-1.696-1.214-2.492.26-.277.493-.565.702-.869 1.28-1.858 1.773-5.124 1.287-8.523-.139-.963-.345-1.9-.565-2.905-.674-3.061-1.371-6.226.163-9.688.944-2.13 2.763-3.733 4.866-4.289 1.902-.5 3.864-.098 5.534 1.134 2.305 1.706 2.494 4.819 1.312 6.901-.631 1.079-1.677.629-1.879.528-.491-.244-1.207-.936-.772-1.977.071-.174.676-1.732-.144-2.905-.663-.953-1.872-1.281-3.315-.902z"/><path d="m48.933 19.133c.073.016.146.023.218.023.458 0 .872-.317.975-.783l.988-4.445c.12-.539-.22-1.073-.759-1.193-.539-.118-1.074.221-1.193.76l-.988 4.445c-.12.539.22 1.073.759 1.193z"/><path d="m53.793 19.749c.552 0 1-.447 1-1v-4.643c0-.553-.448-1-1-1s-1 .447-1 1v4.643c0 .553.448 1 1 1z"/><path d="m58.238 19.749c.552 0 1-.447 1-1v-4.643c0-.553-.448-1-1-1s-1 .447-1 1v4.643c0 .553.447 1 1 1z"/><path d="m62.978 19.156c.063 0 .126-.006.189-.018.542-.104.897-.629.793-1.171l-.91-4.741c-.104-.542-.626-.893-1.17-.794-.542.104-.897.629-.793 1.171l.91 4.741c.092.479.511.812.981.812z"/><path d="m45.064 93.151c-.552 0-1 .447-1 1v5.084c0 .553.448 1 1 1s1-.447 1-1v-5.084c0-.552-.448-1-1-1z"/><path d="m65.377 68.479c-.552 0-1 .447-1 1 0 2.052-1.669 3.721-3.72 3.721s-3.72-1.669-3.72-3.729l-.072-8.133c.979-.143 2.013-.536 3.039-1.314.44-.334.526-.961.193-1.401-.333-.438-.961-.526-1.401-.192-2.808 2.129-5.37.12-5.489.023-.425-.349-1.052-.287-1.404.136-.352.426-.292 1.057.133 1.408.61.505 1.658 1.073 2.929 1.301l.072 8.182c0 2.052-1.669 3.721-3.721 3.721s-3.721-1.669-3.721-3.721c0-.553-.448-1-1-1s-1 .447-1 1c0 2.585 1.725 4.772 4.083 5.479.175 2.564 1.885 4.591 3.986 4.591h4.906c2.116 0 3.836-2.055 3.991-4.645 2.272-.758 3.917-2.901 3.917-5.425-.001-.555-.449-1.002-1.001-1.002zm-6.907 9.069h-4.906c-.947 0-1.764-1.033-1.969-2.368 1.801-.119 3.377-1.07 4.341-2.476.992 1.448 2.633 2.413 4.5 2.484-.206 1.331-1.021 2.36-1.966 2.36z"/><path d="m47.043 48.555c0-1.418-1.149-2.568-2.568-2.568s-2.568 1.15-2.568 2.568 1.15 2.568 2.568 2.568 2.568-1.15 2.568-2.568z"/><path d="m67.012 45.987c-1.418 0-2.568 1.15-2.568 2.568s1.15 2.568 2.568 2.568 2.568-1.15 2.568-2.568-1.151-2.568-2.568-2.568z"/></g></svg>