<svg id="Layer_1" enable-background="new 0 0 128 128" height="512" viewBox="0 0 128 128" width="512" xmlns="http://www.w3.org/2000/svg"><path d="m115.181 87.428c0-.001 0-.001 0 0-1.329-3.614-3.984-6.248-7.477-7.419-3.767-1.263-8.127-.66-11.664 1.613-1.693 1.089-3.149 2.417-4.418 4.016-2.292-8.637-7.115-17.02-12.834-21.92-.242-.207-.494-.405-.744-.606 5.198-5.254 9.715-11.684 12.169-18.326h5.199c.552 0 1-.448 1-1s-.448-1-1-1h-4.526c.404-1.331.721-2.666.938-3.998h3.589c.552 0 1-.448 1-1s-.448-1-1-1h-3.336c.061-.703.1-1.405.1-2.104 0-.643-.024-1.272-.059-1.894h3.295c.552 0 1-.448 1-1s-.448-1-1-1h-3.478c-.283-2.284-.815-4.413-1.604-6.373 4.426-7.496 2.204-16.122 1.059-17.876-1.459-2.233-7.503-1.142-10.495-.252-2.236.665-5.753 2.022-6.749 4.154-5.051-1.672-11.106-2.539-18.116-2.539-7.841 0-14.491 1.081-19.872 3.167-1.302-2.676-6.413-4.398-8.136-4.91-1.762-.524-7.627-2.059-9.114.218-1.07 1.638-3.789 12.226 2.067 20.25-.385 1.322-.668 2.709-.848 4.161h-3.908c-.552 0-1 .448-1 1s.448 1 1 1h3.725c-.036.622-.059 1.25-.059 1.894 0 .699.041 1.401.105 2.104h-3.77c-.552 0-1 .448-1 1s.448 1 1 1h4.035c.227 1.334.561 2.668.984 3.998h-5.019c-.552 0-1 .448-1 1s.448 1 1 1h5.63c.031 0 .058-.015.089-.018.466 1.205 1.002 2.4 1.6 3.583.087.275.218.53.387.762 2.641 4.975 6.343 9.682 10.392 13.711-.374.291-.741.588-1.097.893-1.123.961-2.238 2.085-3.316 3.341-.36.419-.312 1.051.107 1.41.006.005.015.007.021.012-.357.439-.708.892-1.054 1.359-.006-.004-.009-.011-.015-.016-.451-.317-1.075-.209-1.393.243-1.502 2.136-2.863 4.48-4.045 6.969-.237.499-.024 1.095.475 1.332.006.003.013.001.019.004-.227.503-.445 1.011-.656 1.525-.006-.003-.01-.008-.017-.011-.515-.199-1.094.057-1.294.571-1.23 3.174-2.11 6.391-2.618 9.566-3.936 4.305-4.975 12.758-2.513 20.726.653 2.112 1.557 4.093 2.694 5.904-2.06 1.136-4.05 3.349-3.916 7.654.017.54.459.969 1 .969h12.58c.014.014.022.033.036.046.254.239.674.503 1.288.503.07 0 .142-.003.216-.011h13.05c1.33 0 2.502-.662 3.223-1.668 2.791.356 5.763.542 8.908.542 3.014 0 5.871-.171 8.564-.5.724.98 1.878 1.625 3.188 1.625h13.051c.075.007.146.011.216.011.614 0 1.034-.264 1.288-.503.014-.013.023-.033.036-.046h12.586c.54 0 .982-.429 1-.969.135-4.306-1.856-6.518-3.916-7.654 1.137-1.811 2.042-3.792 2.694-5.904 1.378-4.462 1.668-9.05.969-12.991 1.404-3.664 2.56-6.566 5.361-8.368 1.164-.748 2.628-.994 3.73-.624.618.208 1.659.682 1.682 1.531.018.665-.818 1.397-1.104 1.596-2.414 1.627-2.536 4.444-1.409 6.385.758 1.306 2.184 2.374 3.912 2.374.663 0 1.37-.158 2.101-.519l.113-.057c4.04-2.062 7.058-7.358 5.118-12.646z" fill="#e6e7e8"/><path d="m110.242 83.772c-1.222-3.323-3.657-5.743-6.855-6.815-3.484-1.167-7.523-.604-10.805 1.506-2.426 1.561-4.122 3.487-5.418 5.543.209.98.396 1.964.535 2.951 1.47 1.727 2.439 4.073 2.938 6.722.004-.012.009-.024.014-.035 1.453-3.795 2.708-7.073 5.847-9.093 1.43-.92 3.189-1.201 4.589-.731 1.106.371 2.327 1.114 2.363 2.452.037 1.374-1.544 2.452-1.544 2.452-3.779 2.547-.487 8.536 3.597 6.516.035-.018.07-.035.106-.053 3.655-1.87 6.381-6.65 4.633-11.415z" fill="#ffd7e5"/><path d="m86.539 113.07c1.344-1.92 2.451-4.148 3.213-6.615 2.209-7.149 1.593-15.216-2.054-19.499-1.494-10.627-7.244-21.068-13.561-26.479-.416-.356-.841-.7-1.273-1.032-6.764 6.645-14.682 11.116-20.836 11.116-5.559 0-13.562-4.587-20.529-11.379-.556.414-1.104.841-1.634 1.295-6.224 5.332-11.901 15.545-13.496 26.008-4.032 4.136-4.792 12.545-2.497 19.97.762 2.467 1.87 4.695 3.213 6.615-2.325.899-4.526 2.884-4.391 7.208h14.758c1.683.29 3.386.227 5.035-.282 1.45-.448 2.748-1.193 3.874-2.175 4.367 1.198 9.539 1.87 15.639 1.87 5.968 0 11.047-.646 15.354-1.795 1.105.943 2.37 1.663 3.781 2.099 1.649.51 3.352.572 5.035.282h14.76c.135-4.323-2.066-6.308-4.391-7.207z" fill="#ffd7e5"/><path d="m75.837 96.132c-.839-.202-1.683.315-1.885 1.154s.315 1.683 1.154 1.885 1.683-.315 1.885-1.154-.315-1.683-1.154-1.885z" fill="#fa759e"/><path d="m24.574 98.29c-.839-.202-1.683.315-1.885 1.154s.315 1.683 1.154 1.885 1.683-.315 1.885-1.154-.315-1.683-1.154-1.885z" fill="#fa759e"/><path d="m76.97 106.295c-.839-.202-1.683.315-1.885 1.155-.202.839.315 1.683 1.154 1.885s1.683-.315 1.885-1.154c.202-.84-.315-1.684-1.154-1.886z" fill="#fa759e"/><path d="m16.322 105.2c-1.196 0-2.166.97-2.166 2.166s.97 2.166 2.166 2.166 2.166-.97 2.166-2.166-.97-2.166-2.166-2.166z" fill="#fa759e"/><path d="m91.036 119.996c0-4.356-3.78-7.888-8.442-7.888-2.282 0-4.349.85-5.869 2.225-.57.601-1.044 1.336-1.376 2.227.006-.116.026-.228.026-.345 0-4.38-4.295-7.931-9.592-7.931-.578 0-1.142.044-1.691.125.161-.962.311-1.953.431-3.004.224-1.966.35-4.186.399-6.493.265-4.864-.016-10.121-.651-15.268-.163-1.489-.347-2.807-.543-3.863l-.001.002c-.256-1.616-.544-3.204-.857-4.751-.425-2.101.686-4.22 2.753-5.135 4.205-1.863 6.845-4.528 6.845-7.494 0-.727-.169-1.434-.47-2.118-6.566 6.181-14.077 10.276-19.97 10.276-5.62 0-13.738-4.688-20.758-11.602-.804 1.076-1.256 2.233-1.256 3.443 0 3.031 2.753 5.749 7.117 7.617 2.099.898 3.227 3.042 2.802 5.162-1.881 9.401-2.846 20.281-1.494 28.98.024.246.295 2.225.611 4.206-.466-.05-.94-.083-1.424-.083-5.427 0-9.857 3.27-10.21 7.402-1.507-2.153-4.106-3.578-7.065-3.578-2.282 0-4.349.85-5.869 2.225-1.178 1.243-1.965 3.043-1.877 5.663h16.014.174 14.232 3.591.019 10.497.216 2.715 14.152c.278-.423.494-.876.677-1.341-.039.424-.061.864-.045 1.341z" fill="#fff"/><path d="m88.123 99.81c-1.196 0-2.166.97-2.166 2.166s.97 2.166 2.166 2.166 2.166-.97 2.166-2.166-.97-2.166-2.166-2.166z" fill="#fa759e"/><path d="m31.956 70.749c-.843-1.166-2.761-1.218-4.284-.117s-2.075 2.939-1.232 4.105 2.761 1.218 4.284.117 2.074-2.939 1.232-4.105z" fill="#fa759e"/><path d="m76.73 63.711c-2.087 1.867-2.773 4.594-1.478 6.385 1.316 1.82 4.188 2 6.641.529-1.635-2.496-3.364-4.817-5.163-6.914z" fill="#fa759e"/><path d="m21.349 81.046c-1.196 0-2.166.97-2.166 2.166s.97 2.166 2.166 2.166 2.166-.97 2.166-2.166-.97-2.166-2.166-2.166z" fill="#fa759e"/><path d="m84.662 91.702c-1.196 0-2.166.97-2.166 2.166s.97 2.166 2.166 2.166 2.166-.97 2.166-2.166-.97-2.166-2.166-2.166z" fill="#fa759e"/><path d="m33.974 110.241c-3.463.866-6.918 2.465-8.556 5.999-.123 2.993.066 4.74 1.349 4.578h13.105c1.642 0 2.973-1.331 2.973-2.973v-5.52c-2.56-1.85-5.837-2.59-8.871-2.084z" fill="#fff"/><path d="m69.454 110.241c3.463.866 6.918 2.465 8.556 5.999.123 2.993-.066 4.74-1.349 4.578h-13.105c-1.642 0-2.973-1.331-2.973-2.973v-5.52c2.559-1.85 5.836-2.59 8.871-2.084z" fill="#fff"/><path d="m31.216 8.614.249-.279c-.003-3.841-14.111-7.873-15.721-5.407-.868 1.329-3.695 11.722 2.351 19.5 2.097-6.549 6.8-11.027 13.121-13.814z" fill="#fff"/><path d="m85.193 20.38c4.771-7.466 2.176-16.036 1.358-17.289-1.611-2.467-15.683.693-15.686 4.534l.26.292c6.47 2.442 11.47 6.476 14.068 12.463z" fill="#fff"/><path d="m31.872 8.337c-4.177-2.481-11.866-4.093-13.03-2.31-.704 1.078-2.696 8.123-.203 14.896 2.39-5.949 7.089-10.033 13.233-12.586z" fill="#fa759e"/><path d="m86.604 24.898.363.408c6.556-7.823 3.568-17.76 2.681-19.117-1.421-2.177-12.543.029-15.138 3.218 6.208 3.19 10.598 8.217 12.094 15.491z" fill="#fa759e"/><path d="m52.029 4.907c-19.411 0-35.147 7.042-35.147 25.779s23.21 39.876 35.147 39.876c13.391 0 35.147-21.139 35.147-39.876 0-18.738-15.736-25.779-35.147-25.779z" fill="#fff"/><path d="m87.176 30.685c0-18.737-15.736-25.779-35.147-25.779s-35.147 7.041-35.147 25.779c0 7.668 2.638 14.894 7.083 20.758 1.763.973 3.888 1.816 6.456 2.506 2.011.54 4.005-.058 5.384-1.339 3.062-2.842 7.23-8.283 11.407-8.276l9.646.016c4.163.007 8.324 5.441 11.362 8.286 1.376 1.289 3.372 1.896 5.39 1.365 2.521-.664 4.616-1.472 6.362-2.404 4.516-5.891 7.204-13.175 7.204-20.912z" fill="#ffd7e5"/><g fill="#fa759e"><path d="m84.418 30.634c-1.196 0-2.166.97-2.166 2.166s.97 2.166 2.166 2.166 2.166-.97 2.166-2.166-.97-2.166-2.166-2.166z"/><path d="m27.746 14.468c-.993-.239-1.991.373-2.23 1.366s.373 1.991 1.366 2.23 1.991-.373 2.23-1.366c.238-.993-.373-1.991-1.366-2.23z"/><path d="m22.699 40.952c-.209-.05-.418-.074-.625-.074-1.207 0-2.305.825-2.599 2.049-.344 1.433.542 2.879 1.975 3.224 1.432.344 2.879-.541 3.224-1.975.344-1.433-.542-2.879-1.975-3.224z"/><path d="m78.892 43.437c-.993-.239-1.991.373-2.23 1.366s.373 1.991 1.366 2.23 1.991-.373 2.23-1.366c.238-.993-.373-1.992-1.366-2.23z"/><path d="m81.215 18.178c-.25-.073-.501-.107-.748-.107-1.446 0-2.761 1.196-3.113 2.97-.412 2.078.649 4.174 2.365 4.674 1.716.498 3.448-.785 3.862-2.863.411-2.078-.65-4.175-2.366-4.674z"/><path d="m72.202 11.067c-1.196 0-2.166.97-2.166 2.166s.97 2.166 2.166 2.166 2.166-.97 2.166-2.166-.969-2.166-2.166-2.166z"/><path d="m65.42 17.975c-1.196 0-2.166.97-2.166 2.166s.97 2.166 2.166 2.166 2.166-.97 2.166-2.166-.97-2.166-2.166-2.166z"/><path d="m75.504 29.56c-1.196 0-2.166.97-2.166 2.166s.97 2.166 2.166 2.166 2.166-.97 2.166-2.166c0-1.197-.97-2.166-2.166-2.166z"/><path d="m22.408 29.406c-1.196 0-2.166.97-2.166 2.166s.97 2.166 2.166 2.166 2.166-.97 2.166-2.166c0-1.197-.969-2.166-2.166-2.166z"/><path d="m63.253 5.762c-1.196 0-2.166.97-2.166 2.166s.97 2.166 2.166 2.166 2.166-.97 2.166-2.166-.969-2.166-2.166-2.166z"/><path d="m41.806 11.704c-1.196 0-2.166.97-2.166 2.166s.97 2.166 2.166 2.166 2.166-.97 2.166-2.166-.97-2.166-2.166-2.166z"/><path d="m32.35 46.352c-1.196 0-2.166.97-2.166 2.166s.97 2.166 2.166 2.166 2.166-.97 2.166-2.166-.97-2.166-2.166-2.166z"/><path d="m30.39 24.309c-1.196 0-2.166.97-2.166 2.166s.97 2.166 2.166 2.166 2.166-.97 2.166-2.166-.969-2.166-2.166-2.166z"/><path d="m34.516 35.166c-1.196 0-2.166.97-2.166 2.166s.97 2.166 2.166 2.166 2.166-.97 2.166-2.166-.969-2.166-2.166-2.166z"/><path d="m67.87 35.568c-1.196 0-2.166.97-2.166 2.166s.97 2.166 2.166 2.166 2.166-.97 2.166-2.166-.97-2.166-2.166-2.166z"/><path d="m39.644 5.762c-1.196 0-2.166.97-2.166 2.166s.97 2.166 2.166 2.166 2.166-.97 2.166-2.166-.97-2.166-2.166-2.166z"/></g><path d="m111.181 83.428c0-.001 0-.001 0 0-1.329-3.614-3.984-6.248-7.477-7.419-3.769-1.262-8.128-.659-11.664 1.614-1.697 1.092-3.138 2.45-4.406 4.061-2.287-8.653-7.117-17.057-12.846-21.965-.242-.207-.495-.404-.745-.605 5.198-5.254 9.716-11.684 12.17-18.327h5.199c.552 0 1-.448 1-1s-.448-1-1-1h-4.526c.404-1.331.721-2.665.938-3.997h3.589c.552 0 1-.448 1-1s-.448-1-1-1h-3.336c.061-.704.101-1.406.101-2.104 0-.643-.024-1.272-.059-1.894h3.295c.552 0 1-.448 1-1s-.448-1-1-1h-3.478c-.283-2.286-.816-4.416-1.606-6.377 4.425-7.496 2.206-16.118 1.061-17.871-1.459-2.234-7.502-1.142-10.494-.253-2.236.665-5.752 2.023-6.746 4.156-5.052-1.673-11.108-2.54-18.12-2.54-7.851 0-14.509 1.083-19.894 3.175-1.296-2.678-6.391-4.406-8.115-4.918-1.761-.525-7.627-2.058-9.114.218-1.07 1.638-3.789 12.226 2.067 20.25-.385 1.322-.668 2.709-.848 4.161h-3.909c-.552 0-1 .448-1 1s.448 1 1 1h3.725c-.036.622-.059 1.25-.059 1.894 0 .699.041 1.401.105 2.104h-3.771c-.552 0-1 .448-1 1s.448 1 1 1h4.035c.227 1.334.561 2.668.984 3.997h-5.02c-.552 0-1 .448-1 1s.448 1 1 1h5.63c.031 0 .058-.015.088-.018 2.539 6.561 7.174 12.879 12.391 18.069-.375.289-.753.576-1.109.881-1.123.961-2.238 2.085-3.316 3.341-.36.419-.312 1.051.107 1.41.42.361 1.051.312 1.41-.107 1.011-1.179 2.054-2.23 3.099-3.125.411-.352.838-.672 1.263-.995 7.245 6.787 15.291 11.32 20.249 11.32 5.675 0 13.593-4.424 20.574-11.038.297.234.595.465.885.713 6.518 5.584 11.831 15.976 13.221 25.859.026.188.106.365.229.509 3.28 3.852 4.045 11.482 1.86 18.555-.65 2.103-1.581 4.052-2.746 5.821-1.034-.036-2.707.162-4.193 1.514-.409.371-.438 1.004-.067 1.413.197.217.468.327.74.327.24 0 .48-.086.672-.26 1.09-.99 2.33-1.039 2.951-.988.009.004.015.013.024.016 2.348.908 3.577 2.638 3.739 5.275h-10.769c.185-1.425.057-3.46-.127-6.27-.388-5.932-.919-14.057 1.335-22.32.145-.533-.169-1.083-.702-1.228-.534-.143-1.083.169-1.228.702-2.342 8.586-1.775 17.247-1.401 22.977.181 2.764.406 6.205-.042 6.687-.042-.005-.083-.008-.125-.008h-5.473v-3.784c0-.552-.448-1-1-1s-1 .448-1 1v3.784h-2.221v-3.784c0-.552-.448-1-1-1s-1 .448-1 1v3.784h-1.412c-1.088 0-1.973-.885-1.973-1.973v-23.828c0-.552-.448-1-1-1s-1 .448-1 1v23.826c0 .141.027.275.042.413-2.466.281-5.07.434-7.82.434-2.892 0-5.62-.17-8.195-.48.011-.123.037-.242.037-.367v-23.826c0-.552-.448-1-1-1s-1 .448-1 1v23.826c0 1.088-.885 1.973-1.973 1.973l-1.412.006v-3.79c0-.552-.448-1-1-1s-1 .448-1 1v3.798l-2.221.009v-3.807c0-.552-.448-1-1-1s-1 .448-1 1v3.814l-5.549.022c-.496-.527-.271-3.967-.09-6.731.375-5.73.941-14.391-1.401-22.977-.146-.533-.693-.848-1.228-.702-.533.146-.847.695-.702 1.228 2.254 8.264 1.723 16.388 1.335 22.32-.184 2.81-.312 4.845-.127 6.27h-10.768c.16-2.616 1.375-4.337 3.687-5.251.29-.058 1.899-.31 3.281.947.192.174.433.26.672.26.272 0 .543-.11.74-.327.372-.409.342-1.042-.067-1.413-1.611-1.465-3.441-1.577-4.439-1.501-1.169-1.772-2.103-3.725-2.754-5.833-2.302-7.448-1.373-15.252 2.258-18.977.146-.15.241-.341.273-.547.478-3.132 1.337-6.313 2.555-9.455.199-.515-.056-1.094-.571-1.294-.514-.199-1.094.057-1.294.571-1.23 3.174-2.11 6.391-2.618 9.566-3.936 4.305-4.975 12.758-2.513 20.726.653 2.113 1.557 4.094 2.694 5.904-2.06 1.137-4.05 3.349-3.916 7.654.017.54.459.969 1 .969h12.584c.014.014.022.033.036.046.254.24.674.504 1.289.504.069 0 .141-.003.216-.011h13.05c1.332 0 2.506-.664 3.227-1.673 2.791.356 5.759.547 8.903.547 3.014 0 5.865-.178 8.557-.507.724.985 1.881 1.633 3.194 1.633h13.051c.075.007.146.011.216.011.614 0 1.034-.264 1.289-.504.014-.013.023-.033.036-.046h12.586c.54 0 .983-.429 1-.969.134-4.305-1.856-6.518-3.916-7.654 1.137-1.811 2.042-3.792 2.694-5.904 1.378-4.462 1.668-9.05.969-12.991 1.404-3.664 2.56-6.566 5.361-8.368 1.165-.748 2.628-.994 3.729-.625.619.208 1.659.683 1.682 1.531.018.665-.818 1.397-1.104 1.596-2.414 1.627-2.536 4.444-1.409 6.385.758 1.306 2.184 2.374 3.912 2.374.663 0 1.37-.158 2.101-.519l.113-.057c4.041-2.064 7.059-7.36 5.119-12.648zm-34.298-79.039c4.633-1.504 8.404-1.338 8.83-.751.474.725 2.816 7.811-.435 14.546-2.657-4.934-7.111-8.652-13.229-11.055.49-.78 2.037-1.832 4.834-2.74zm-60.305-.911c.156-.188.71-.307 1.562-.307 1.505 0 3.94.37 6.748 1.38 3.069 1.104 4.894 2.39 5.41 3.3-6.026 2.757-10.238 6.927-12.493 12.393-4.185-6.999-1.999-15.583-1.227-16.766zm49.392 60.013v-12.663c0-1.591-.666-3.129-1.826-4.219l-1.307-1.228c-.76-.713-1.195-1.719-1.195-2.761v-6.609c0-.548.116-1.079.344-1.578l1.464-3.195c.419.207.884.333 1.383.333 1.738 0 3.147-1.409 3.147-3.147s-1.409-3.147-3.147-3.147-3.147 1.409-3.147 3.147c0 .453.099.88.271 1.269l-1.79 3.907c-.349.762-.526 1.573-.526 2.411v6.609c0 1.592.666 3.13 1.826 4.219l1.307 1.228c.76.713 1.195 1.72 1.195 2.761v14.047c0 .009.005.017.005.026-4.36 2.91-8.61 4.661-11.947 4.661-2.893 0-7.009-1.778-11.385-4.734v-14.326c0-.835.349-1.641.957-2.212l1.782-1.673c1.01-.947 1.589-2.285 1.589-3.67v-7.1c0-.718-.158-1.443-.457-2.096l-2.611-5.699c-.187-1.559-1.499-2.772-3.109-2.772-1.738 0-3.147 1.409-3.147 3.147s1.409 3.147 3.147 3.147c.827 0 1.573-.325 2.134-.847l1.767 3.858c.18.394.275.83.275 1.263v7.1c0 .835-.349 1.641-.958 2.212l-1.783 1.674c-1.009.948-1.588 2.286-1.588 3.67v12.907c-10.08-7.508-20.762-20.69-20.762-32.723 0-21.56 21.394-24.779 34.147-24.779s34.147 3.219 34.147 24.779c.004 11.946-10.065 25.267-20.202 32.803zm39.181 30.805-.092.046c-1.589.787-2.821-.083-3.393-1.068-.662-1.139-.672-2.732.801-3.725.208-.142 2.031-1.439 1.981-3.305-.041-1.529-1.122-2.727-3.044-3.374-.548-.184-1.139-.273-1.745-.273-1.253 0-2.571.384-3.703 1.112-2.557 1.645-3.968 4.067-5.133 6.79-.547-1.505-1.275-2.848-2.175-3.965-.003-.021-.008-.043-.011-.065-.064-.425-.143-.874-.23-1.34-.057-.31-.115-.62-.179-.931 1.344-2.04 2.948-3.644 4.894-4.895 3.03-1.948 6.749-2.47 9.946-1.399 2.905.974 5.12 3.18 6.235 6.212 1.558 4.248-.886 8.511-4.152 10.18z" fill="#3a2c60"/><path d="m19.997 74.369c.138.066.284.097.428.097.374 0 .733-.211.904-.571 1.132-2.384 2.435-4.63 3.874-6.676.318-.452.209-1.075-.243-1.393s-1.076-.209-1.393.243c-1.504 2.138-2.865 4.482-4.045 6.969-.236.498-.024 1.094.475 1.331z" fill="#3a2c60"/><path d="m58.775 59.338c-.552 0-1 .448-1 1 0 1.309-1.064 2.373-2.373 2.373s-2.373-1.064-2.373-2.373v-5.097l5.345-5.345c.332-.332.097-.9-.373-.9h-11.945c-.469 0-.705.568-.373.9l5.345 5.345v5.097c0 1.309-1.064 2.373-2.373 2.373s-2.373-1.064-2.373-2.373c0-.552-.448-1-1-1s-1 .448-1 1c0 2.411 1.962 4.373 4.373 4.373 1.365 0 2.57-.642 3.373-1.624.803.983 2.008 1.624 3.373 1.624 2.411 0 4.373-1.962 4.373-4.373.001-.552-.447-1-.999-1z" fill="#3a2c60"/><path d="m83.55 79.137c-.157-.265-.337-.511-.533-.737-1.15-1.319-2.885-1.917-4.188-1.347-1.525.668-1.889 2.689-.811 4.506 1.078 1.815 3.196 2.751 4.722 2.084 1.524-.667 1.888-2.689.81-4.506z" fill="#fa759e"/><path d="m56.15 23.848c-.79-.19-1.585.297-1.775 1.087s.297 1.585 1.087 1.775 1.585-.297 1.775-1.087c.19-.791-.297-1.585-1.087-1.775z" fill="#fa759e"/><path d="m54.599 6.13c-.993-.239-1.991.373-2.23 1.365-.239.993.373 1.991 1.366 2.23s1.991-.373 2.23-1.366c.238-.991-.373-1.99-1.366-2.229z" fill="#fa759e"/><path d="m19.031 92.07c-.993-.239-1.991.373-2.23 1.366s.373 1.991 1.366 2.23 1.991-.373 2.23-1.365c.238-.994-.373-1.992-1.366-2.231z" fill="#fa759e"/><path d="m19.036 99.44c-.839-.202-1.683.315-1.885 1.155-.202.839.315 1.683 1.154 1.885s1.683-.315 1.885-1.154c.202-.84-.315-1.684-1.154-1.886z" fill="#fa759e"/><path d="m84.535 104.336c-.839-.202-1.683.315-1.885 1.155-.202.839.315 1.683 1.154 1.885s1.683-.315 1.885-1.154c.202-.84-.315-1.684-1.154-1.886z" fill="#fa759e"/><path d="m34.849 96.132c-.839-.202-1.683.315-1.885 1.154s.315 1.683 1.154 1.885 1.683-.315 1.885-1.154-.314-1.683-1.154-1.885z" fill="#fa759e"/><path d="m32.925 104.135c-.839-.202-1.683.315-1.885 1.154s.315 1.683 1.154 1.885 1.683-.315 1.885-1.154c.202-.84-.314-1.684-1.154-1.885z" fill="#fa759e"/><path d="m35.953 88.13c-.839-.202-1.683.315-1.885 1.154s.315 1.683 1.154 1.885 1.683-.315 1.885-1.154-.315-1.683-1.154-1.885z" fill="#fa759e"/><path d="m74.701 88.13c-.839-.202-1.683.315-1.885 1.154s.315 1.683 1.154 1.885 1.683-.315 1.885-1.154c.203-.839-.314-1.683-1.154-1.885z" fill="#fa759e"/></svg>