<svg id="Layer_1" enable-background="new 0 0 128 128" height="512" viewBox="0 0 128 128" width="512" xmlns="http://www.w3.org/2000/svg"><path d="m121.528 57.509c-.295-.293-.742-.372-1.12-.201-.103.048-10.416 4.592-23.345-3.437-.465-.288-3.099-2.132-3.529-2.468l-6.004-4.678c-.436-.339-2.987-2.327-3.423-2.667l-4.206-3.277c-.852-.663-1.643-1.346-2.353-2.03-2.942-2.836-12.613-11.101-25.453-11.414-.127-2.899-.846-6.534-3.596-7.056-2.449-.469-4.121 1.169-5.122 3.014-1.098-2.369-3.135-5.444-6.12-4.89-3.042.558-3.855 4.533-4.046 7.335-2.654-2.841-7.633-7.292-11.158-5.213-2.887 1.706-3.75 5.582-2.369 10.635 1.114 4.077 3.543 8.363 6.104 10.295-2.125 3.331-3.648 7.101-4.392 11.154-.099.536-.187 1.078-.269 1.622l-9.205 1.98c-.1.021-.196.058-.285.108-.928.529-1.475 1.483-1.462 2.552.013 1.067.582 2.008 1.522 2.514.906.488 4.596 1.274 7.49 1.84-1.104 2.192-3.282 6.904-3.282 9.962 0 4.202 2.3 7.138 5.594 7.138.939 0 1.801-.254 2.558-.703 4.5 10.182 13.684 18.669 29.696 21.635.043.008.085.013.128.021l3.72 4.928c.142.188.284.365.426.53l-4.255.296c-.551.039-.966.517-.928 1.067.039.551.528.955 1.067.929l5.363-.373-2.311 2.678c-.36.418-.314 1.05.104 1.41.189.163.421.243.653.243.281 0 .56-.117.758-.347l3.879-4.495c.025-.029.039-.064.061-.096.666-.45 1.224-1.255 1.679-2.394l.825 1.093c.672.889 1.341 1.513 2.005 1.884l-1.187 3.725c-.168.526.123 1.089.649 1.257.101.032.203.047.304.047.423 0 .817-.271.952-.696l1.281-4.019c.164-.042.323-.1.476-.174l4.732 3.766c.435.345 1.062.272 1.405-.159.344-.433.272-1.062-.159-1.405l-4.537-3.611c.389-.632.725-1.435 1.002-2.431.04-.099.063-.205.069-.316l.173-3.185c32.58-5.705 49.453-42.367 49.648-42.802.171-.382.088-.828-.207-1.121z" fill="#e6e7e8"/><path d="m50.44 96.358 3.96 5.247c3.877 5.137 5.212-1.877 5.197-1.585l.155-2.843c-2.988.009-6.093-.254-9.312-.819z" fill="#6dc9f7"/><path d="m19.701 72.152c-1.373-4.108-2.014-8.365-2.142-12.48-.522-.718-.872-1.159-.872-1.159s-3.781 6.88-3.781 10.675 2.04 6.138 4.594 6.138c1.295 0 2.471-.607 3.318-1.697-.515-.363-.915-.873-1.117-1.477z" fill="#6dc9f7"/><path d="m18.019 51.064-9.885 2.126c-1.294.737-1.272 2.61.039 3.316 1.02.549 6.803 1.669 9.361 2.147-.028-2.625.154-5.179.485-7.589z" fill="#fa759e"/><path d="m23.193 37.167c4.407-6.436 11.216-11.068 19.197-12.42 1.612-.274 3.185-.398 4.716-.411-.006-2.681-.423-6.622-2.794-7.072-3.625-.688-4.938 4.813-4.938 4.813s-2.188-7.375-5.938-6.688-3.25 9-3.25 9-7.5-9.438-11.625-7c-6.017 3.556.032 17.427 4.632 19.778z" fill="#fa759e"/><path d="m57.952 97.152 3.768 4.992c3.877 5.137 5.212-1.877 5.197-1.585l.215-3.96c-2.932.455-5.991.657-9.18.553z" fill="#6dc9f7"/><path d="m116.824 54.218s-12.721 5.805-27.904-6.025l-13.633-10.623c-.845-.659-1.661-1.356-2.432-2.099-3.252-3.135-15.177-13.322-30.467-10.726-12.239 2.078-21.765 11.838-24.008 24.048-3.032 16.51.851 41.795 31.556 47.482 44.318 8.206 66.888-42.057 66.888-42.057z" fill="#fa759e"/><path d="m74.153 38.789-1.816 7.809c-.442 1.9-2.52 2.912-4.288 2.087-2.035-.949-4.368.536-4.368 2.782v1.946c0 1.696-1.375 3.07-3.07 3.07h-4.115c-1.696 0-3.07 1.375-3.07 3.07v2.099c0 1.879-1.673 3.317-3.531 3.035l-5.658-.859c-1.353-.205-2.678.509-3.25 1.753l-1.898 4.127c-.7 1.522-2.49 2.202-4.023 1.528l-4.03-1.769c-1.485-.652-3.222-.036-3.964 1.406l-1.026 1.993c-.753 1.463-2.525 2.072-4.018 1.382l-.72-.333c-.752-.348-1.345-.979-1.607-1.765-2.65-7.93-2.593-16.42-1.323-23.357 2.247-12.212 11.769-21.974 24.012-24.049 15.29-2.598 27.212 7.59 30.462 10.723.135.131.272.26.41.388.804.746 1.139 1.867.891 2.934z" fill="#ffd7e5"/><path d="m55.242 65.676c-2.198 1.418-3.736 4.404-3.741 7.02-.013 5.647 5.698 13.568 17.487 13.015 19.618-.921 21.092-17.316 19.986-18.513-1.105-1.197-6.724 3.868-10.868 1.842-8.929-4.365-15.658-8.013-22.864-3.364z" fill="#fff"/><path d="m55.242 68.676c-2.198 1.418-3.736 4.404-3.741 7.02-.013 5.647 5.698 13.568 17.487 13.015 19.618-.921 21.092-17.316 19.986-18.513-1.105-1.197-6.724 3.868-10.868 1.842-8.929-4.365-15.658-8.013-22.864-3.364z" fill="#6dc9f7"/><g fill="#3a2c60"><path d="m88.306 48.982c.183.142.398.211.613.211.298 0 .593-.133.79-.386.339-.436.261-1.063-.175-1.403l-6.004-4.678c-.437-.338-1.064-.262-1.403.175-.339.436-.261 1.063.175 1.403z"/><path d="m117.529 53.511c-.293-.294-.739-.375-1.118-.204-.103.048-10.47 4.562-23.348-3.436-.469-.29-1.085-.146-1.377.322-.291.469-.147 1.086.322 1.377 10.209 6.338 18.847 5.371 22.852 4.347-4.908 9.366-26.907 46.379-64.742 39.373-36.14-6.691-31.959-39.757-30.754-46.317 2.189-11.919 11.509-21.259 23.191-23.242 14.795-2.522 26.401 7.372 29.605 10.46.759.732 1.604 1.462 2.512 2.169l4.206 3.277c.436.337 1.064.26 1.403-.175.339-.436.261-1.063-.175-1.403l-4.205-3.277c-.853-.664-1.645-1.348-2.354-2.03-2.943-2.837-12.619-11.107-25.465-11.414-.216-5.276-2.041-6.763-3.585-7.056-2.449-.468-4.121 1.17-5.122 3.014-1.098-2.369-3.135-5.436-6.12-4.89-3.042.558-3.855 4.533-4.046 7.335-2.654-2.841-7.633-7.293-11.158-5.213-2.064 1.22-3.104 3.516-3.008 6.64.154 5.043 3.414 11.74 6.755 14.275-2.131 3.335-3.657 7.111-4.403 11.17-.098.536-.186 1.077-.269 1.621l-9.205 1.98c-.1.021-.195.058-.284.108-.929.528-1.476 1.481-1.463 2.551.013 1.068.582 2.009 1.522 2.516.728.391 3.251 1.009 7.491 1.836-1.104 2.192-3.283 6.906-3.283 9.964 0 4.202 2.3 7.138 5.594 7.138.918 0 1.786-.246 2.557-.705 4.499 10.183 13.684 18.671 29.697 21.637.043.008.085.013.127.021l3.72 4.93c.142.188.284.364.425.529l-4.255.296c-.551.039-.967.517-.928 1.067.039.552.517.941 1.067.929l5.363-.374-2.311 2.678c-.36.418-.314 1.05.104 1.41.189.163.421.243.653.243.281 0 .56-.117.758-.347l3.879-4.495c.027-.031.041-.068.064-.101.664-.452 1.22-1.255 1.674-2.392l.827 1.096c.672.89 1.341 1.514 2.005 1.884l-1.187 3.726c-.168.526.123 1.089.649 1.257.101.032.203.047.304.047.423 0 .817-.271.952-.696l1.281-4.02c.164-.042.322-.099.476-.174l4.733 3.766c.435.345 1.062.272 1.405-.159.344-.433.272-1.062-.159-1.405l-4.537-3.61c.389-.632.726-1.436 1.003-2.434.039-.098.063-.202.068-.313 0-.001 0-.002.001-.003l.173-3.185c32.58-5.705 49.453-42.366 49.648-42.801.172-.381.09-.825-.205-1.118zm-100.485-30.406c-.073-2.384.609-4.018 2.027-4.855.307-.182.657-.266 1.04-.266 2.674 0 6.938 4.066 9.293 7.026.271.342.733.469 1.141.312.407-.156.667-.559.64-.993-.146-2.424.257-7.558 2.432-7.957 2.338-.432 4.295 4.3 4.799 5.989.129.434.537.75.986.714.452-.013.84-.327.945-.767.01-.046 1.151-4.553 3.778-4.063 1.115.212 1.827 2.099 1.958 5.113-.614.025-1.234.07-1.861.135-.048.005-.096.009-.144.014-.615.066-1.233.145-1.859.251-.049.008-.096.022-.145.031-.65.114-1.291.253-1.927.407-.136.033-.273.065-.408.1-.699.18-1.388.384-2.068.613-.013.004-.025.009-.038.013-4.302 1.456-8.196 3.876-11.455 7.11-.092.091-.186.179-.277.271-.417.424-.822.862-1.217 1.313-.225.256-.442.518-.66.781-.15.184-.298.37-.445.558-.221.281-.45.555-.662.844-2.629-2.061-5.729-8.009-5.873-12.694zm-8.867 31.744c-.002-.144.031-.481.345-.719l8.33-1.792c-.088.793-.152 1.593-.204 2.396-.008.124-.015.248-.022.372-.039.674-.065 1.35-.077 2.029-.002.104-.01.209-.012.313-5.131-.981-7.46-1.59-7.889-1.821-.42-.226-.469-.62-.471-.778zm9.323 19.477c-2.116 0-3.594-2.112-3.594-5.138 0-2.335 1.619-6.075 2.703-8.317.007.124.024.244.031.367.044.67.1 1.34.172 2.01.07.672.16 1.334.257 1.993.01.063.018.126.028.188.371 2.445.908 4.807 1.655 7.041.08.24.188.467.313.685.07.193.144.385.217.577-.53.382-1.138.594-1.782.594zm41.106 25.504c-.003.012-.006.023-.01.034-.652 2.389-1.425 2.603-1.511 2.619-.329.063-.991-.294-1.887-1.481l-2.478-3.283c.065.009.129.012.193.02.834.105 1.661.191 2.479.256.28.023.558.04.837.058.401.025.804.054 1.201.07l1.181 1.565zm7.461-2.069-.143 2.61c-.003.011-.006.021-.009.032-.652 2.389-1.425 2.603-1.511 2.619-.327.066-.991-.295-1.887-1.481l-2.54-3.364c.232-.002.462-.021.694-.026.49-.011.976-.03 1.459-.056.717-.036 1.431-.091 2.144-.157.232-.022.465-.043.696-.069.366-.039.734-.061 1.097-.108z"/><path d="m32.045 41.037c-.956 1.577-.454 3.63 1.123 4.587 1.577.956 3.63.454 4.587-1.123.956-1.577.454-3.63-1.123-4.587-1.577-.956-3.63-.453-4.587 1.123z"/><path d="m85.482 66.988c-2.165.967-4.86 2.168-6.937 1.154l-1.081-.529c-8.591-4.215-15.376-7.541-22.765-2.777-2.427 1.565-4.193 4.871-4.2 7.859-.007 3.213 1.608 6.679 4.319 9.271 2.32 2.218 6.418 4.773 12.984 4.773.401 0 .812-.01 1.23-.029 13.205-.62 18.165-7.994 19.945-12.335 1.331-3.244 1.666-6.842.729-7.856-.923-1.004-2.38-.354-4.224.469zm.319 9.207c-2.29 3.633-7.074 8.059-16.86 8.518-6.581.312-10.56-2.109-12.739-4.191-2.324-2.223-3.708-5.146-3.702-7.822.005-2.32 1.417-4.978 3.284-6.182 0-.001 0-.001 0-.001 2.195-1.416 4.342-2.006 6.55-2.006 4.265 0 8.755 2.203 14.25 4.897l1.083.531c2.918 1.423 6.219-.048 8.631-1.124.638-.285 1.467-.654 1.927-.769.161 1.148-.193 4.61-2.424 8.149z"/></g></svg>