<svg id="Layer_1" enable-background="new 0 0 128 128" height="512" viewBox="0 0 128 128" width="512" xmlns="http://www.w3.org/2000/svg"><path d="m109.585 64.22c-3.007-2.222-6.568-2.939-10.023-2.024-3.73.987-6.943 3.803-8.596 7.531-2.528 5.706-1.391 10.873-.388 15.433.305 1.387.593 2.695.78 3.997.396 2.764.265 5.538-.287 7.722-.217-2.977-.828-6.102-1.853-9.35-.44-1.57-.926-2.92-1.445-4.013-.003-.007-.007-.015-.011-.021-2.602-6.401-6.563-12.692-11.021-17.594 3.027-2.809 5.987-6.11 8.471-9.583h6.603c.552 0 1-.447 1-1s-.448-1-1-1h-5.24c.775-1.196 1.481-2.404 2.112-3.612h3.128c.552 0 1-.447 1-1s-.448-1-1-1h-2.16c.541-1.215.996-2.423 1.34-3.611h.821c.552 0 1-.447 1-1s-.448-1-1-1h-.342c.191-1.022.294-2.024.294-2.997 0-4.957-1.178-9.44-3.277-13.323 3.914-7.34 1.172-15.063.53-16.047-1.732-2.651-9.559-.362-9.892-.263-1.09.324-2.504.823-3.746 1.508-5.41-3.207-12.07-5.028-19.505-5.028-8.01 0-15.122 2.111-20.739 5.795-1.905-1.255-4.378-2.077-5.453-2.396-1.66-.493-7.184-1.937-8.601.23-1 1.531-3.517 11.378 1.868 18.898-.631 2.412-.966 4.961-.966 7.624 0 1.936.377 3.953 1.035 5.996h-3.322c-.552 0-1 .447-1 1s.448 1 1 1h3.977c.025 0 .046-.012.071-.014.491 1.209 1.07 2.421 1.725 3.626h-5.773c-.552 0-1 .447-1 1s.448 1 1 1h6.588c.108 0 .206-.03.304-.061.759 1.244 1.584 2.473 2.462 3.674h-9.354c-.552 0-1 .447-1 1s.448 1 1 1h10.66c.068 0 .128-.026.193-.039 1.971 2.477 4.117 4.795 6.256 6.835-.379.441-.757.863-1.131 1.239-9.422 9.479-20.05 29.459-14.217 44.236.219.725 1.567 4.477 2.711 6.807-3.788 1.294-5.781 4.338-5.645 8.693.017.54.459.969 1 .969h72.582c.54 0 .982-.429 1-.969.136-4.337-1.84-7.373-5.597-8.677.754-1.349 1.391-2.774 1.909-4.259 3.158-1.236 5.861-3.384 7.916-6.369 4.118-5.979 3.292-14.45 2.94-16.904-.232-1.628-.57-3.162-.899-4.655-.84-3.822-1.504-6.842-.174-9.847.54-1.218 1.585-2.188 2.664-2.474.603-.159 1.683-.329 2.141.331.333.478.111 1.457-.046 1.848-1.094 2.619.315 4.979 2.274 5.955 1.823.909 4.444.761 5.882-1.696l.072-.124c2.172-3.832 1.793-9.742-2.606-12.997z" fill="#e6e7e8"/><path d="m104.991 61.025c-2.757-2.037-6.015-2.698-9.173-1.863-3.439.91-6.406 3.515-7.938 6.97-2.395 5.406-1.295 10.403-.325 14.812.309 1.406.601 2.733.793 4.07.64 4.47.009 8.877-1.609 11.227-.202.293-.413.56-.629.816-.042.663-.103 1.32-.193 1.97-.125 2.302-.446 4.516-1.018 6.477-.087.299-.193.584-.289.877 3.167-1.135 5.871-3.216 7.901-6.165 3.913-5.682 3.113-13.833 2.774-16.196-.228-1.594-.562-3.113-.886-4.582-.845-3.843-1.575-7.162-.111-10.467.667-1.506 1.941-2.669 3.323-3.034 1.092-.289 2.476-.338 3.217.725.761 1.092.056 2.806.056 2.806-1.701 4.071 4.15 7.163 6.378 3.355.019-.033.038-.066.057-.099 1.962-3.458 1.623-8.776-2.328-11.699z" fill="#ffd7e5"/><path d="m15.525 120.057h72.582c.171-5.485-3.227-7.398-6.122-8.037 1.207-1.919 2.211-4.105 2.914-6.516.572-1.961.893-4.175 1.018-6.477.675-4.851-.041-10.095-1.661-15.229-.417-1.485-.885-2.8-1.385-3.853l-.002.002c-2.961-7.314-7.553-14.126-12.288-18.89-.481-.484-.963-1.024-1.446-1.6-1.53 1.383-3.07 2.638-4.566 3.719-7.562 5.463-17.819 5.463-25.381 0-1.642-1.186-3.337-2.583-5.015-4.13-.597.735-1.193 1.413-1.787 2.011-10.042 10.102-19.457 29.415-13.98 43.206.103.417 2.034 5.838 3.241 7.757-2.895.639-6.293 2.551-6.122 8.037z" fill="#ffd7e5"/><path d="m88.621 120.057c0-4.345-3.523-7.868-7.868-7.868-2.127 0-4.053.848-5.469 2.219-.531.6-.973 1.333-1.283 2.221.006-.115.025-.228.025-.344 0-4.369-4.003-7.91-8.94-7.91-4.145 0-7.621 2.5-8.633 5.886-.162-3.153-.223-8.008.066-15.497-1.338-1.305-2.927-2.071-4.636-2.071-1.036 0-2.982.634-3.901 1.143-.197 4.74-.233 10.368-.385 15.29-1.472-2.796-4.834-4.751-8.751-4.751-5.058 0-9.187 3.261-9.516 7.383-1.405-2.147-3.827-3.569-6.585-3.569-2.127 0-4.053.848-5.469 2.219-1.098 1.24-1.831 3.036-1.749 5.649h14.923.162 16.611.017 9.783c.042-.047.031-.158-.01-.4.071.133.132.271.211.4h15.721c.259-.422.461-.874.631-1.338-.036.423-.057.862-.042 1.338z" fill="#fff"/><path d="m31.17 9.996c-3.477-2.704-12.05-4.709-13.247-2.875-.808 1.238-3.43 10.876 2.122 18.142 1.789-6.367 5.759-11.585 11.125-15.267z" fill="#fa759e"/><path d="m78.1 14.916c2.284 1.95 4.233 4.223 5.772 6.776 3.098-6.514 1.014-13.344.312-14.42-1.158-1.772-9.189-.438-12.856 1.904 2.572 1.589 4.847 3.522 6.772 5.74z" fill="#fa759e"/><path d="m51.878 3.944c-18.165 0-32.89 11.618-32.89 29.152 0 10.112 10.939 23.389 20.2 30.079 7.562 5.463 17.819 5.463 25.381 0 9.261-6.69 20.2-19.967 20.2-30.079-.001-17.534-14.726-29.152-32.891-29.152z" fill="#fff"/><path d="m54.878 6.944c-18.165 0-32.89 11.618-32.89 29.152 0 10.112 10.939 23.389 20.2 30.079 7.562 5.463 17.819 5.463 25.381 0 9.261-6.69 20.2-19.967 20.2-30.079-.001-17.534-14.726-29.152-32.891-29.152z" fill="#ffd7e5"/><path d="m55.248 36.332h-6.741c-5.304 0-9.603 4.3-9.603 9.603v15.092c0 .802.162 1.566.454 2.261 2.588 1.833 5.483 3.023 8.474 3.589h8.092c2.991-.566 5.886-1.756 8.474-3.589.292-.696.454-1.459.454-2.261v-15.092c0-5.304-4.3-9.603-9.604-9.603z" fill="#fff"/><g fill="#fa759e"><circle cx="46.246" cy="46.038" r=".802"/><circle cx="41.09" cy="48.396" r=".802"/><circle cx="41.509" cy="43.421" r=".802"/><circle cx="57.226" cy="45.908" r=".802"/><circle cx="62.382" cy="48.266" r=".802"/><circle cx="61.963" cy="43.291" r=".802"/></g><path d="m105.586 60.221c-3.006-2.221-6.565-2.94-10.023-2.026-3.729.987-6.943 3.803-8.596 7.532-2.528 5.706-1.391 10.873-.388 15.433.305 1.387.593 2.695.78 3.997.395 2.755.261 5.51-.29 7.685-.22-2.965-.829-6.077-1.85-9.313-.441-1.573-.927-2.924-1.445-4.014-.002-.004-.004-.008-.006-.012-2.602-6.403-6.564-12.698-11.026-17.603-.495.459-.991.905-1.488 1.337 4.325 4.751 8.169 10.864 10.688 17.085.016.04.035.079.056.115.458.978.895 2.199 1.305 3.662 1.695 5.375 2.241 10.351 1.616 14.873-.128 2.359-.458 4.463-.979 6.252-.6 2.058-1.455 3.996-2.523 5.785-.677-.112-2.985-.345-4.71 1.267-.404.377-.425 1.01-.048 1.413.197.211.463.317.73.317.245 0 .49-.089.683-.27 1.203-1.126 3.045-.752 3.097-.741.181.042.356.015.521-.039.029.009.05.033.08.04 3.345.739 5.133 2.775 5.327 6.061h-11.59c.384-1.487.238-3.84.01-7.335-.409-6.25-.968-14.809 1.407-23.518.145-.532-.169-1.082-.702-1.228-.535-.146-1.082.169-1.228.702-2.463 9.031-1.867 18.144-1.473 24.173.192 2.94.432 6.601-.104 7.096-.042-.005-.083-.008-.125-.008h-5.814v-4.037c0-.553-.448-1-1-1s-1 .447-1 1v4.037h-2.444v-4.037c0-.553-.448-1-1-1s-1 .447-1 1v4.037h-1.539c-1.175 0-2.13-.955-2.13-2.13v-3.804c0-.553-.448-1-1-1s-1 .447-1 1v3.804c0 .829.251 1.599.674 2.247h-8.445c.423-.648.674-1.418.674-2.247v-25.084c0-.553-.448-1-1-1s-1 .447-1 1v25.085c0 1.175-.956 2.13-2.13 2.13h-1.539v-4.037c0-.553-.448-1-1-1s-1 .447-1 1v4.037h-2.444v-4.037c0-.553-.448-1-1-1s-1 .447-1 1v4.037h-5.814c-.042 0-.077.034-.119.039-.542-.526-.302-4.187-.11-7.127.394-6.03.99-15.143-1.473-24.173-.146-.533-.693-.851-1.228-.702-.533.146-.847.695-.702 1.228 2.375 8.709 1.815 17.268 1.407 23.517-.229 3.495-.374 5.849.01 7.336h-11.59c.193-3.285 1.981-5.321 5.327-6.061.001 0 .002-.001.004-.002h.004c.017-.006 1.879-.391 3.092.742.193.181.438.27.683.27.267 0 .534-.106.73-.317.377-.403.356-1.036-.048-1.413-1.387-1.296-3.152-1.399-4.143-1.331-1.12-2.104-2.678-6.442-2.808-6.921-.011-.044-.025-.088-.042-.13-5.537-13.941 4.712-33.03 13.759-42.132.395-.397.788-.837 1.18-1.292 1.49 1.336 2.954 2.524 4.328 3.516 3.97 2.868 8.623 4.303 13.275 4.303 4.653 0 9.306-1.435 13.276-4.303 3.772-2.725 8.221-6.904 12.02-11.67h10.644c.552 0 1-.447 1-1s-.448-1-1-1h-9.114c.868-1.187 1.684-2.401 2.436-3.63.031.003.058.018.09.018h6.588c.552 0 1-.447 1-1s-.448-1-1-1h-5.532c.652-1.2 1.229-2.407 1.719-3.612h3.813c.552 0 1-.447 1-1s-.448-1-1-1h-3.084c.658-2.043 1.035-4.061 1.035-5.996 0-10.03-4.704-18.475-12.421-23.855.336-.151.7-.302 1.106-.45 4.292-1.564 8.395-1.563 8.892-.971.425.651 2.466 6.814-.107 12.88.446.671.867 1.36 1.252 2.072 3.914-7.339 1.172-15.063.53-16.047-1.731-2.65-9.558-.361-9.891-.264-1.09.324-2.493.83-3.733 1.517-5.412-3.213-12.078-5.037-19.519-5.037-8.013 0-15.128 2.113-20.745 5.799-1.905-1.255-4.374-2.081-5.449-2.4-1.659-.493-7.183-1.934-8.599.231-1 1.531-3.517 11.377 1.868 18.897-.631 2.412-.966 4.961-.966 7.624 0 1.936.377 3.953 1.035 5.996h-3.321c-.552 0-1 .447-1 1s.448 1 1 1h3.976c.025 0 .046-.012.071-.014.491 1.21 1.071 2.422 1.725 3.627h-5.772c-.552 0-1 .447-1 1s.448 1 1 1h6.588c.108 0 .206-.03.304-.061.759 1.244 1.584 2.473 2.462 3.674h-9.354c-.552 0-1 .447-1 1s.448 1 1 1h10.659c.069 0 .129-.026.193-.039 1.971 2.477 4.117 4.794 6.255 6.834-.379.442-.756.865-1.13 1.24-9.422 9.479-20.05 29.459-14.217 44.236.218.724 1.568 4.478 2.711 6.807-3.788 1.294-5.782 4.338-5.646 8.693.017.54.459.969 1 .969h72.582c.54 0 .982-.429 1-.969.136-4.337-1.84-7.374-5.598-8.677.759-1.356 1.398-2.79 1.917-4.282 3.167-1.247 5.897-3.424 7.909-6.345 4.118-5.98 3.292-14.451 2.94-16.905-.235-1.644-.573-3.175-.899-4.657-.84-3.821-1.504-6.841-.173-9.845.539-1.217 1.584-2.188 2.664-2.473.602-.16 1.682-.329 2.141.331.333.478.11 1.458-.046 1.848-1.094 2.619.315 4.979 2.274 5.955 1.822.909 4.443.762 5.895-1.718l.059-.104c2.173-3.83 1.794-9.738-2.604-12.993zm-86.835-52.542c.161-.169.665-.271 1.422-.271 1.55 0 4.159.427 7.046 1.581.846.338 1.547.681 2.14 1.016-4.426 3.369-7.752 7.8-9.629 12.983-3.844-6.753-1.378-14.695-.979-15.309zm1.236 25.417c0-16.313 13.412-28.152 31.891-28.152s31.89 11.84 31.89 28.152c0 9.374-10.06 22.243-19.786 29.27-7.24 5.23-16.969 5.232-24.209 0-9.726-7.027-19.786-19.896-19.786-29.27zm86.465 39.13-.053.092c-.855 1.464-2.296 1.415-3.271.93-1.128-.563-1.974-1.83-1.318-3.399.093-.227.882-2.262-.161-3.758-.854-1.227-2.379-1.623-4.292-1.12-1.669.44-3.194 1.818-3.982 3.596-1.596 3.604-.797 7.238.049 11.087.318 1.445.648 2.94.873 4.509.325 2.272 1.099 10.105-2.608 15.487-1.488 2.161-3.339 3.824-5.521 4.963.015-.064.027-.133.041-.198.034-.152.064-.309.096-.464.07-.336.134-.677.193-1.027.03-.176.058-.353.084-.531.054-.361.101-.729.143-1.102.018-.162.039-.321.055-.484.053-.537.098-1.083.128-1.64.07-.51.126-1.044.17-1.617.003-.036.008-.07.011-.106.161-.201.32-.41.474-.634 1.752-2.547 2.449-7.231 1.775-11.936-.197-1.376-.493-2.72-.806-4.144-.937-4.259-2-9.086.263-14.192 1.41-3.18 4.131-5.576 7.279-6.409 2.857-.758 5.814-.151 8.322 1.7 3.507 2.595 3.798 7.325 2.056 10.397z" fill="#3a2c60"/><path d="m56.365 102.945c-.552 0-1 .447-1 1v4.43c0 .553.448 1 1 1s1-.447 1-1v-4.43c0-.552-.448-1-1-1z" fill="#3a2c60"/><path d="m57.365 91.725c0-.553-.448-1-1-1s-1 .447-1 1v7.04c0 .553.448 1 1 1s1-.447 1-1z" fill="#3a2c60"/><path d="m42.64 30.29c0-1.626-1.318-2.945-2.945-2.945-1.626 0-2.945 1.318-2.945 2.945s1.318 2.945 2.945 2.945 2.945-1.318 2.945-2.945z" fill="#3a2c60"/><circle cx="64.06" cy="30.29" fill="#3a2c60" r="2.945"/><path d="m46.439 57.822c-2.447 0-4.438-1.991-4.438-4.438 0-.553-.448-1-1-1s-1 .447-1 1c0 3.55 2.888 6.438 6.438 6.438 2.288 0 4.296-1.204 5.438-3.007 1.142 1.804 3.15 3.007 5.438 3.007 3.55 0 6.438-2.889 6.438-6.438 0-.553-.448-1-1-1s-1 .447-1 1c0 2.447-1.991 4.438-4.438 4.438s-4.438-1.991-4.438-4.438v-11.636l4.938-4.938c.311-.311.091-.842-.349-.842h-11.177c-.439 0-.659.531-.349.842l4.938 4.938v11.635c0 2.448-1.991 4.439-4.439 4.439z" fill="#3a2c60"/></svg>