<svg id="Layer_1" enable-background="new 0 0 128 128" height="512" viewBox="0 0 128 128" width="512" xmlns="http://www.w3.org/2000/svg"><path d="m115.487 80.597c1.196-3.463.469-7.949-3.08-10.575-2.784-2.057-6.082-2.723-9.286-1.876-3.454.915-6.429 3.521-7.958 6.972-2.336 5.272-1.287 10.039-.361 14.245.28 1.273.544 2.476.715 3.668.345 2.41.26 4.837-.184 6.787-.256-2.44-.797-4.983-1.627-7.612-.407-1.45-.856-2.696-1.334-3.703-.002-.004-.004-.008-.006-.012-1.024-2.52-2.281-5.022-3.7-7.416 1.454-1.71 2.336-3.922 2.336-6.342 0-2.599-1.019-4.956-2.67-6.71-1.021-2.778-3.142-5.026-5.843-6.199 4.953-7.096 8.075-16.183 8.075-24.375 0-1.107-.066-2.174-.183-3.209 1.398.298 2.883.459 4.422.459.074 0 .149 0 .223-.001 3.954-.04 7.675-1.115 10.476-3.029 2.924-1.998 4.519-4.671 4.49-7.528-.046-4.66-12.598-4.775-15.116-4.746-3.765.038-7.282.429-9.905 1.102-.477.122-.912.256-1.322.395-.551-.475-1.134-.924-1.748-1.347 1.639-4.559 2.401-8.345 2.242-11.248-.091-1.66-1.311-2.936-2.968-3.103-1.65-.17-3.096.838-3.514 2.441-.917 3.515-3.131 6.834-4.143 8.228-3.141-.801-6.679-1.216-10.591-1.216-3.913 0-7.451.415-10.592 1.216-1.012-1.392-3.224-4.704-4.143-8.228-.419-1.604-1.864-2.61-3.513-2.441-1.656.166-2.877 1.442-2.968 3.103-.159 2.903.603 6.69 2.242 11.248-.591.407-1.154.838-1.687 1.293-.546-.197-1.139-.381-1.816-.541-2.635-.621-6.159-.941-9.924-.904-3.764.038-7.28.43-9.901 1.103-3.413.877-5.136 2.204-5.118 3.945.028 2.857 1.676 5.498 4.64 7.437 2.785 1.822 6.438 2.819 10.308 2.819.076 0 .151 0 .227-.001 1.685-.017 3.299-.233 4.81-.603-.128 1.079-.199 2.194-.199 3.353 0 8.192 3.122 17.279 8.075 24.375-3.828 1.663-6.513 5.477-6.513 9.91 0 2.228.679 4.301 1.84 6.023-6.575 9.593-11.667 23.197-7.458 33.867.204.68 1.401 4.027 2.456 6.188-3.463 1.219-5.284 4.032-5.158 8.044.017.54.459.969 1 .969h66.753c.54 0 .982-.429 1-.969.125-3.994-1.679-6.8-5.112-8.027.805-1.453 1.459-3.004 1.966-4.623 2.791-1.159 5.185-3.102 7.021-5.767 3.805-5.525 3.042-13.341 2.718-15.604-.217-1.517-.542-2.989-.829-4.29-.77-3.5-1.377-6.265-.164-9.003.487-1.098 1.428-1.973 2.397-2.229.535-.14 1.489-.292 1.882.272.287.412.087 1.278-.051 1.623-.117.281-.196.558-.255.831-1.986 1.029-5.154 4.202 1.718 13.043-.003.001 11.281-4.439 6.908-11.482z" fill="#e6e7e8"/><path d="m107.813 66.827c-2.536-1.874-5.532-2.482-8.436-1.714-3.163.837-5.892 3.233-7.3 6.411-2.203 4.972-1.191 9.568-.299 13.623.284 1.293.553 2.514.729 3.743.589 4.111.008 8.164-1.48 10.325-.178.258-.364.495-.553.721-.029.858-.087 1.71-.203 2.546-.115 2.117-.41 4.153-.936 5.957-.001.003-.002.005-.003.008 2.8-1.063 5.192-2.946 7.003-5.577 3.599-5.226 2.863-12.722 2.552-14.896-.21-1.466-.517-2.863-.815-4.214-.777-3.535-1.448-6.587-.102-9.627.614-1.385 1.785-2.455 3.056-2.791 1.004-.265 2.277-.311 2.958.667.7 1.004.052 2.58.052 2.58-1.565 3.744 3.817 6.588 5.866 3.086.018-.03.035-.061.053-.091 1.804-3.178 1.492-8.069-2.142-10.757z" fill="#fff"/><path d="m25.532 121.824h66.753c.158-5.045-2.967-6.804-5.63-7.392 1.11-1.765 2.034-3.776 2.68-5.992.526-1.804.821-3.84.936-5.957.621-4.461-.038-9.284-1.527-14.006-.383-1.366-.814-2.575-1.274-3.544l-.002.002c-1.553-3.835-3.601-7.506-5.876-10.777-1.797 2.066-4.439 3.378-7.392 3.378h-30.545c-3.157 0-5.958-1.499-7.751-3.818-6.907 9.735-11.798 23.319-7.722 33.581.094.384 1.871 5.369 2.981 7.134-2.664.587-5.789 2.346-5.631 7.391z" fill="#fff"/><path d="m49.716 80.535c2.502 2.039 5.691 3.267 9.171 3.267s6.669-1.228 9.171-3.267z" fill="#fa759e"/><g fill="#fff"><path d="m38.494 17.995c-6.576-2.803-26.031-1.885-25.988 2.437.052 5.195 6.394 9.344 14.165 9.266 2.167-.022 4.208-.379 6.035-.983.826-4.542 2.865-8.078 5.788-10.72z"/><path d="m79.41 18.038c2.938 2.674 4.975 6.258 5.774 10.867 1.782.524 3.753.814 5.833.793 7.771-.078 14.028-4.353 13.976-9.548-.042-4.225-18.655-4.827-25.583-2.112z"/><path d="m43.655 57.931h30.545c.957 0 1.879.143 2.753.399 5.293-7.147 8.612-16.651 8.612-24.881 0-15.607-11.926-21.801-26.637-21.801s-26.637 6.194-26.637 21.801c0 8.23 3.319 17.734 8.612 24.881.873-.255 1.795-.399 2.752-.399z"/><path d="m47.383 36.838c-1.822 0-3.298 1.477-3.298 3.298 0 1.822 1.477 3.298 3.298 3.298s3.298-1.477 3.298-3.298c.001-1.821-1.476-3.298-3.298-3.298z"/><path d="m74.2 57.931h-30.545c-5.413 0-9.802 4.388-9.802 9.802s4.388 9.802 9.802 9.802h30.545c5.413 0 9.802-4.388 9.802-9.802s-4.388-9.802-9.802-9.802z"/></g><path d="m77.2 60.931h-30.545c-5.413 0-9.802 4.388-9.802 9.802s4.388 9.802 9.802 9.802h30.545c5.413 0 9.802-4.388 9.802-9.802s-4.388-9.802-9.802-9.802z" fill="#ffd7e5"/><path d="m48.082 13.188s-3.585-4.422-4.858-9.3c-.661-2.533-4.372-2.15-4.515.464-.144 2.622.479 6.437 2.598 11.99 0 0 5.638.698 6.775-3.154z" fill="#ffd7e5"/><path d="m69.773 13.188s3.585-4.422 4.858-9.3c.661-2.533 4.372-2.15 4.515.464.144 2.622-.479 6.437-2.598 11.99 0 0-5.638.698-6.775-3.154z" fill="#ffd7e5"/><circle cx="47.383" cy="68.25" fill="#fa759e" r="4.543"/><circle cx="70.472" cy="68.25" fill="#fa759e" r="4.543"/><path d="m52.73 89.286h11.945c.291-.736.451-1.538.451-2.377 0-3.576-2.899-6.475-6.475-6.475s-6.475 2.899-6.475 6.475c0 .843.161 1.649.455 2.387.033-.002.065-.01.099-.01z" fill="#ffd7e5"/><path d="m65.125 89.286h-12.395c-.918 0-1.662.744-1.662 1.662s.744 1.662 1.662 1.662h12.395c.918 0 1.662-.744 1.662-1.662s-.744-1.662-1.662-1.662z" fill="#ffd7e5"/><circle cx="58.651" cy="98.346" fill="#fa759e" r="2.517"/><path d="m111.484 76.61c1.202-3.465.477-7.959-3.076-10.587-2.784-2.058-6.083-2.725-9.286-1.876-3.453.914-6.428 3.521-7.958 6.972-2.336 5.273-1.287 10.039-.36 14.249.279 1.272.543 2.474.714 3.665.343 2.393.25 4.785-.189 6.723-.259-2.42-.8-4.943-1.622-7.549-.406-1.449-.855-2.695-1.333-3.703-.002-.004-.004-.008-.006-.012-1.005-2.473-2.278-4.974-3.718-7.397-.426.498-.905.947-1.421 1.351-1.664 1.303-3.75 2.09-6.027 2.09h-4.442c-.002.086-.009.171-.009.257 0 4.825 3.147 8.91 7.499 10.328-.035.065-.079.124-.1.198-2.087 7.653-1.79 15.358-1.447 20.865-4.909.563-11.388 1.34-14.61 2.268v-10.549c0-.552-.448-1-1-1s-1 .448-1 1v14.229c0 1.047.421 1.994 1.097 2.692h-8.561c.676-.698 1.097-1.646 1.097-2.692v-14.229c0-.552-.448-1-1-1s-1 .448-1 1v10.125c-4.777-.689-9.634-1.267-14.645-1.284.356-5.537.747-13.509-1.411-21.425-.053-.194-.172-.345-.312-.469 3.964-1.62 6.759-5.51 6.759-10.057 0-.204-.011-.405-.022-.607-1.563-.423-2.959-1.23-4.103-2.304 1.146.415 2.376.653 3.664.653h30.544c5.956 0 10.802-4.846 10.802-10.802 0-4.429-2.681-8.239-6.503-9.905 1.409-2.022 2.64-4.13 3.637-6.213.239-.498.028-1.095-.47-1.333-.496-.239-1.094-.028-1.333.47-1.036 2.164-2.334 4.355-3.825 6.433-.744-.163-1.515-.254-2.307-.254h-30.546c-.816 0-1.608.099-2.373.271-2.048-2.855-3.785-6.078-5.109-9.457 2.646.715 8.97 2.303 9.751 2.482 5.592 1.287 11.211-.307 14.258-5.28.361-.589.719-1.187.952-1.838.827-2.312.005-4.823-.76-7.236-.291-.918-.574-1.821-.755-2.694-.584-2.814-1.233-5.614-1.834-8.424-.171-.798-2.057-9.05-1.988-11.991 1.152-.082 2.219-.116 3.131-.116 2.56 0 6.247.232 10.029 1.219 1.186 3.097 4.725 3.528 6.573 3.528.639 0 1.075-.051 1.141-.059.035-.004.067-.019.102-.027 4.431 3.044 7.792 8.02 7.792 16.14 0 1.268-.083 2.594-.245 3.94-.066.548.325 1.046.873 1.112.542.063 1.046-.324 1.112-.873.172-1.425.259-2.831.259-4.179 0-1.114-.064-2.188-.182-3.228 1.435.309 2.913.478 4.421.478.074 0 .149 0 .223-.001 8.31-.083 15.024-4.819 14.967-10.558-.006-.639-.273-1.576-1.51-2.41-4.367-2.947-18.527-2.969-24.848-.837-.548-.472-1.126-.919-1.736-1.34 1.641-4.562 2.404-8.351 2.245-11.256-.091-1.661-1.312-2.937-2.968-3.103-1.65-.171-3.095.838-3.513 2.441-.922 3.535-3.156 6.87-4.16 8.25-3.142-.802-6.661-1.238-10.575-1.238-3.915 0-7.434.436-10.576 1.238-1.004-1.378-3.235-4.706-4.159-8.25-.418-1.603-1.866-2.612-3.514-2.441-1.657.167-2.877 1.442-2.968 3.103-.159 2.905.603 6.694 2.245 11.255-.588.405-1.145.835-1.675 1.287-6.103-2.181-20.58-2.001-25.198 1.083-1.314.878-1.583 1.855-1.576 2.52.057 5.687 6.744 10.256 14.952 10.256.074 0 .149 0 .223-.001 1.647-.016 3.258-.216 4.808-.594-.127 1.076-.198 2.189-.198 3.345 0 8.194 3.13 17.274 8.086 24.37-3.833 1.661-6.524 5.478-6.524 9.914 0 2.218.673 4.28 1.824 5.997-6.483 9.389-11.728 23.029-7.442 33.893.204.678 1.403 4.028 2.456 6.188-3.463 1.219-5.284 4.033-5.158 8.044.017.54.459.969 1 .969h66.753c.54 0 .982-.429 1-.969.125-3.993-1.679-6.8-5.112-8.028.809-1.457 1.464-3.014 1.971-4.638 2.83-1.176 5.192-3.103 7.016-5.751 3.805-5.525 3.042-13.341 2.717-15.604-.215-1.503-.526-2.919-.828-4.287-.77-3.501-1.378-6.266-.164-9.007.486-1.097 1.427-1.972 2.396-2.229.534-.141 1.49-.293 1.883.272.287.412.087 1.278-.051 1.623-.117.281-.196.558-.255.831-1.986 1.029-5.154 4.202 1.717 13.043-.001.001 11.254-4.434 6.907-11.469zm-8.119-57.222c.233.158.625.467.628.772.046 4.636-5.779 8.466-12.987 8.538-1.693.027-3.365-.181-4.955-.59-.009-.047-.022-.091-.032-.137-.07-.338-.149-.67-.233-.999-.034-.132-.066-.265-.102-.396-.086-.312-.179-.618-.277-.922-.044-.137-.087-.275-.133-.41-.102-.296-.213-.586-.327-.874-.052-.132-.103-.265-.157-.395-.123-.293-.256-.579-.392-.863-.054-.114-.107-.229-.163-.342-.154-.307-.319-.606-.488-.902-.046-.08-.089-.161-.135-.24-.202-.342-.415-.675-.637-1.002-.018-.026-.034-.053-.052-.08-.498-.725-1.044-1.414-1.64-2.064 6.467-1.749 18.725-1.359 22.082.906zm-27.767-15.247c.205-.786.84-1.01 1.378-.956.537.054 1.126.403 1.171 1.222.15 2.745-.626 6.438-2.309 10.981-1.228.041-3.996-.098-4.933-2.031.967-1.285 3.608-5.056 4.693-9.216zm-28.215 39.294c-1.822 0-3.298-1.477-3.298-3.298 0-1.822 1.477-3.298 3.298-3.298s3.298 1.477 3.298 3.298c.001 1.821-1.476 3.298-3.298 3.298zm-7.675-39.028c.045-.819.634-1.168 1.171-1.222.533-.05 1.173.17 1.378.956 1.085 4.16 3.725 7.931 4.691 9.216-.935 1.921-3.706 2.06-4.932 2.03-1.682-4.544-2.458-8.235-2.308-10.98zm-7.869 23.532c-1.65.486-3.389.741-5.178.759-7.225.1-13.109-3.64-13.155-8.275-.003-.326.429-.664.688-.836 2.16-1.442 7.583-2.21 12.925-2.21 3.531 0 7.025.336 9.516 1.035-1.195 1.29-2.195 2.733-2.997 4.32-.016.033-.031.066-.047.099-.179.36-.35.726-.509 1.1-.026.061-.048.124-.074.185-.146.353-.285.711-.412 1.077-.024.069-.045.14-.068.21-.123.366-.239.736-.344 1.115-.018.063-.032.128-.049.192-.105.391-.201.787-.286 1.191-.003.012-.007.025-.01.038zm11.816 30.992h30.545c4.854 0 8.802 3.949 8.802 8.802s-3.948 8.802-8.802 8.802h-30.545c-4.854 0-8.802-3.948-8.802-8.802s3.948-8.802 8.802-8.802zm-14.503 48.127c-.011-.044-.024-.087-.042-.13-1.966-4.951-1.704-10.66-.234-16.207 1.34.592 2.814.937 4.373.937.859 0 1.691-.11 2.493-.299-.037.156-.049.319-.004.485 2.181 7.996 1.667 15.86 1.292 21.602-.019.291-.035.551-.053.826-.679-.087-1.379-.135-2.097-.135-.942 0-1.851.087-2.723.235-.01-.166-.059-.329-.15-.473-1.01-1.608-2.722-6.358-2.855-6.841zm56.656 6.841c-.113.18-.158.388-.145.594-1.06-.227-2.188-.356-3.363-.356-.498 0-.984.03-1.465.072-.016-.255-.031-.494-.049-.763-.375-5.742-.89-13.605 1.292-21.602.028-.102.025-.204.02-.305.497.07 1.001.118 1.517.118 1.686 0 3.273-.402 4.697-1.088 1.139 4.249 1.464 8.211.96 11.858-.117 2.164-.419 4.092-.897 5.731-.599 2.054-1.462 3.985-2.567 5.741zm14.962-43.522c-1.558.413-2.981 1.697-3.714 3.353-1.479 3.339-.741 6.694.04 10.246.293 1.333.597 2.711.801 4.141.298 2.082 1.008 9.259-2.385 14.186-1.288 1.87-2.873 3.333-4.729 4.369.02-.104.031-.218.05-.324.074-.413.138-.836.195-1.268.025-.188.052-.373.073-.565.069-.616.125-1.244.159-1.889 0-.002 0-.004 0-.005.056-.398.098-.82.133-1.262.031-.347.052-.699.068-1.052.133-.167.262-.341.388-.524 1.648-2.394 2.279-6.622 1.646-11.034-.181-1.264-.453-2.5-.742-3.816-.859-3.904-1.833-8.33.236-13.002 1.287-2.902 3.77-5.089 6.642-5.849 2.607-.688 5.3-.138 7.585 1.551 3.189 2.36 3.454 6.664 1.82 9.542-.759 1.297-2.039 1.253-2.903.824-1.004-.501-1.757-1.628-1.174-3.024.087-.213.828-2.122-.156-3.533-.806-1.162-2.238-1.538-4.033-1.065z" fill="#3a2c60"/><path d="m66.354 80.535c-.727.481-1.5.886-2.303 1.219-1.362-1.426-3.277-2.32-5.4-2.32-2.044 0-3.898.826-5.248 2.16-.686-.305-1.356-.644-1.983-1.059h-3.213c1.17 1.107 2.505 2.007 3.94 2.702-.616 1.086-.972 2.337-.972 3.672 0 .598.08 1.183.217 1.75-.789.463-1.326 1.31-1.326 2.289 0 1.468 1.194 2.663 2.662 2.663h4.921v1.381c-1.45.434-2.517 1.765-2.517 3.355 0 1.939 1.578 3.518 3.517 3.518s3.517-1.578 3.517-3.518c0-1.59-1.067-2.921-2.517-3.355v-1.381h5.474c1.468 0 2.662-1.194 2.662-2.663 0-1.176-.771-2.164-1.831-2.516.106-.496.17-1.004.17-1.523 0-1.268-.319-2.461-.879-3.508 1.58-.711 3.048-1.663 4.319-2.866zm-6.186 17.811c0 .837-.681 1.518-1.517 1.518s-1.517-.681-1.517-1.518c0-.836.681-1.517 1.517-1.517s1.517.68 1.517 1.517zm-1.517-16.912c3.019 0 5.475 2.456 5.475 5.475 0 .472-.068.932-.185 1.377h-10.58c-.117-.445-.185-.905-.185-1.377 0-3.019 2.456-5.475 5.475-5.475zm6.474 10.177h-12.395c-.365 0-.662-.297-.662-.663s.297-.662.662-.662h12.396c.365 0 .662.297.662.662s-.298.663-.663.663z" fill="#3a2c60"/><path d="m83.714 40.955c-.485 2.229-1.167 4.476-2.028 6.679-.201.515.053 1.095.567 1.295.12.047.243.069.364.069.4 0 .777-.242.932-.636.9-2.301 1.613-4.65 2.12-6.982.118-.54-.225-1.072-.765-1.189-.541-.12-1.073.224-1.19.764z" fill="#3a2c60"/><path d="m67.173 40.137c0 1.822 1.477 3.298 3.298 3.298s3.298-1.477 3.298-3.298c0-1.822-1.477-3.298-3.298-3.298s-3.298 1.476-3.298 3.298z" fill="#3a2c60"/></svg>