<svg id="Layer_1" enable-background="new 0 0 128 128" height="512" viewBox="0 0 128 128" width="512" xmlns="http://www.w3.org/2000/svg"><path d="m113.766 81.655c3.271-3.383 4.996-7.915 5.126-13.471.04-1.717-1.218-3.152-2.777-3.198-.726-.042-1.414.221-1.967.731-.628.58-1 1.421-1.021 2.309-.09 3.838-1.211 6.899-3.334 9.1-1.679 1.74-3.801 2.803-5.856 3.46-.281-1.55-.719-3.058-1.302-4.515.547-.133 1.08-.337 1.581-.625 4.113-2.363 9.256-7.041 11.342-16.037 7.046-4.897 9.765-15.904 5.999-26.579-3.534-10.017-11.853-16.981-20.262-16.981-.038 0-.077 0-.115 0-.274.002-.536.117-.723.317-.188.201-.284.47-.268.743l1.526 25.067-14.091-13.133c-.26-.242-.629-.329-.969-.227-.341.103-.602.377-.685.723-1.187 4.896-.825 10.468 1.017 15.688 2.08 5.897 5.809 10.828 10.499 13.883 1.497.976 3.036 1.717 4.587 2.234-1.177 1.957-2.607 3.156-3.84 3.883-.557.329-1.044.734-1.46 1.192-4.133-5.315-10.352-9.544-17.857-11.843v-1.244c0-.92-.753-1.674-1.674-1.674-.112 0-.22.012-.326.033v-1.138c1.786-.927 3.012-2.792 3.012-4.939 0-3.068-2.497-5.565-5.566-5.565-3.068 0-5.565 2.497-5.565 5.565 0 2.05 1.118 3.84 2.772 4.806v2.59c-3.302-.411-6.615-.43-9.875-.119-.196-.707-.84-1.233-1.607-1.233-.112 0-.22.012-.326.033v-1.236c1.687-.957 2.829-2.767 2.829-4.841 0-3.068-2.497-5.565-5.565-5.565s-5.565 2.497-5.565 5.565c0 2.125 1.198 3.974 2.954 4.912v3.643c-.32.077-.55.138-1.13.326-.525.171-3.077 1.066-3.59 1.273-1.996.808-3.908 1.77-5.685 2.858-.471.289-3.137 2.172-3.573 2.508-2.033 1.563-3.778 3.279-5.246 5.119-.248-.204-.513-.393-.797-.56-1.633-.963-3.612-2.752-4.888-6.034 1.859-.56 3.701-1.445 5.473-2.669 4.604-3.182 8.196-8.213 10.115-14.165 1.698-5.269 1.907-10.848.587-15.709-.093-.343-.361-.611-.704-.703-.345-.095-.709.003-.963.252l-13.729 13.515.84-25.1c.009-.274-.095-.54-.288-.735-.192-.195-.434-.291-.732-.298-8.446.167-16.631 7.377-19.904 17.533-1.918 5.952-1.94 12.134-.061 17.405 1.359 3.812 3.606 6.809 6.474 8.781.004.026.004.052.009.079 1.694 10.474 7.345 15.715 11.786 18.269.57.327 1.182.543 1.808.67-.294 1.448-.46 2.936-.495 4.46-2.515-.575-5.366-1.703-7.501-3.917-2.123-2.201-3.245-5.263-3.334-9.1-.021-.888-.393-1.729-1.021-2.309-.554-.512-1.255-.769-1.941-.733-1.586.048-2.843 1.483-2.802 3.2.129 5.556 1.854 10.088 5.125 13.471 3.666 3.79 8.478 5.292 12.194 5.87.084.33.184.655.282.981-3.752.546-8.718 2.029-12.476 5.916-3.271 3.382-4.996 7.914-5.125 13.47-.041 1.717 1.216 3.152 2.775 3.198.049.003.097.005.145.005.663 0 1.305-.258 1.822-.734.628-.58 1-1.422 1.021-2.311.089-3.837 1.211-6.898 3.334-9.1 3.321-3.443 8.378-4.269 11.197-4.45.353.577.733 1.141 1.132 1.696-3.137.835-6.601 2.392-9.397 5.283-3.271 3.381-4.996 7.913-5.125 13.47-.041 1.717 1.217 3.152 2.775 3.198.049.003.097.005.145.005.664 0 1.306-.258 1.823-.735.628-.579 1-1.422 1.021-2.31.09-3.838 1.211-6.899 3.334-9.1 3.039-3.152 7.532-4.109 10.434-4.389 1.88 1.61 3.979 3.052 6.267 4.287 6.203 4.318 14.307 6.94 23.182 6.94 11.092 0 20.984-4.088 27.456-10.477 2.226.637 4.591 1.737 6.426 3.639 2.123 2.2 3.244 5.262 3.334 9.1.021.888.394 1.73 1.021 2.31.518.479 1.16.736 1.804.736.046 0 .091-.002.137-.004 1.585-.048 2.843-1.483 2.803-3.2-.13-5.557-1.854-10.088-5.126-13.47-1.89-1.955-4.086-3.292-6.28-4.218.473-.753.903-1.526 1.291-2.316 2.612.542 5.665 1.667 7.921 4.005 2.123 2.2 3.244 5.262 3.334 9.1.021.888.394 1.73 1.021 2.31.518.479 1.16.736 1.804.736.046 0 .091-.002.137-.004 1.585-.048 2.843-1.483 2.803-3.2-.131-5.557-1.854-10.088-5.126-13.47-2.941-3.041-6.619-4.604-9.878-5.406.13-.669.222-1.347.292-2.03 3.185-.823 6.732-2.382 9.585-5.332z" fill="#e6e7e8"/><path d="m107.789 56.236c-2.675.944-5.495.99-8.248.291-1.359 2.801-3.22 4.43-4.8 5.361-.834.492-1.487 1.194-1.925 2.007 1.582 2.252 2.786 4.694 3.548 7.274 1.098.193 2.276.031 3.355-.589 4.136-2.377 9.041-6.984 10.961-15.789-.897.585-1.856 1.08-2.891 1.445z" fill="#ffd7e5"/><path d="m97.188 12.848c7.846-.059 15.941 6.436 19.426 16.315 4.151 11.767.202 23.889-8.825 27.073s-19.708-3.776-23.859-15.542c-1.85-5.244-2.093-10.556-.988-15.119 15.925 14.841 15.925 14.841 15.925 14.841z" fill="#fa759e"/><path d="m29.884 62.355c-1.958-1.155-4.35-3.378-5.679-7.585-2.492.575-5.041.528-7.49-.261-1.12-.361-2.165-.862-3.132-1.48.011.152.003.302.027.456 1.613 9.97 6.892 15.03 11.297 17.562.831.478 1.721.68 2.588.664.771-2.868 2.086-5.574 3.859-8.044-.398-.516-.887-.969-1.47-1.312z" fill="#ffd7e5"/><path d="m26.125 10.846c-7.845.156-15.759 6.87-18.972 16.84-3.828 11.876.452 23.885 9.562 26.822 9.11 2.936 19.597-4.314 23.425-16.19 1.706-5.293 1.804-10.609.574-15.14-15.514 15.271-15.514 15.271-15.514 15.271z" fill="#fa759e"/><path d="m112.059 61.985c-1.019-.057-1.904.894-1.932 2.065-.096 4.097-1.312 7.384-3.614 9.771-1.848 1.917-4.183 3.06-6.419 3.755.138 1.012.216 2.038.216 3.079 0 .425-.017.847-.04 1.267 2.942-.804 6.18-2.276 8.777-4.962 3.091-3.196 4.721-7.501 4.845-12.798.028-1.172-.793-2.146-1.833-2.177z" fill="#ffd7e5"/><path d="m26.723 78.255c-2.921-.506-6.573-1.687-9.222-4.434-2.302-2.387-3.518-5.674-3.614-9.771-.028-1.171-.913-2.122-1.932-2.065-1.04.031-1.86 1.006-1.833 2.177.124 5.297 1.754 9.603 4.845 12.798 3.702 3.827 8.706 5.194 12.296 5.669-.317-1.425-.501-2.885-.54-4.374z" fill="#ffd7e5"/><path d="m28.048 85.354c-3.613.375-9.102 1.648-13.081 5.763-3.091 3.196-4.721 7.501-4.845 12.798-.028 1.171.793 2.146 1.833 2.177 1.019.057 1.904-.894 1.932-2.065.096-4.097 1.312-7.384 3.614-9.771 3.793-3.933 9.652-4.668 12.456-4.783-.765-1.321-1.404-2.697-1.909-4.119z" fill="#ffd7e5"/><path d="m109.047 91.117c-2.775-2.87-6.283-4.355-9.379-5.12-.331 1.379-.788 2.721-1.361 4.021 2.717.595 5.857 1.803 8.206 4.238 2.302 2.387 3.518 5.674 3.614 9.771.028 1.171.913 2.122 1.932 2.065 1.04-.031 1.86-1.006 1.833-2.177-.124-5.297-1.754-9.603-4.845-12.798z" fill="#ffd7e5"/><path d="m32.262 92.829c-3.322.681-7.308 2.159-10.39 5.346-3.091 3.196-4.721 7.501-4.845 12.798-.028 1.171.793 2.146 1.833 2.177 1.019.057 1.904-.894 1.932-2.065.096-4.097 1.312-7.384 3.614-9.771 3.389-3.513 8.418-4.471 11.454-4.719-1.329-1.169-2.528-2.432-3.598-3.766z" fill="#ffd7e5"/><path d="m102.143 98.174c-1.83-1.892-3.979-3.171-6.118-4.05-.822 1.204-1.75 2.354-2.775 3.444 2.217.697 4.527 1.845 6.359 3.745 2.302 2.387 3.518 5.674 3.614 9.771.028 1.171.913 2.122 1.932 2.065 1.04-.031 1.86-1.005 1.833-2.177-.124-5.297-1.754-9.602-4.845-12.798z" fill="#ffd7e5"/><path d="m71.916 50.597v-4.465c0-.147-.025-.286-.061-.422-.47.164-.967.271-1.493.271-.606 0-1.182-.124-1.711-.338-.048.156-.082.318-.082.49v3.825c-2.127-.319-4.318-.494-6.562-.494-2.484 0-4.907.207-7.247.597v-3.928c0-.166-.032-.323-.077-.474-.515.202-1.072.322-1.659.322-.545 0-1.061-.112-1.545-.287-.039.141-.066.286-.066.438v4.625c-14.321 3.593-24.709 14.276-24.709 26.898 0 15.57 15.806 28.191 35.303 28.191s35.303-12.622 35.303-28.191c0-12.823-10.722-23.638-25.394-27.058z" fill="#fff"/><path d="m74.916 53.596v-4.465c0-.92-.753-1.674-1.674-1.674-.92 0-1.674.753-1.674 1.674v3.825c-2.127-.319-4.318-.494-6.562-.494-2.484 0-4.907.207-7.247.597v-3.928c0-.92-.753-1.674-1.674-1.674s-1.674.753-1.674 1.674v4.625c-14.321 3.593-24.709 14.276-24.709 26.898 0 15.57 15.806 28.191 35.303 28.191s35.303-12.622 35.303-28.191c.002-12.821-10.72-23.636-25.392-27.058z" fill="#fa759e"/><circle cx="53.025" cy="41.414" fill="#fa759e" r="4.566"/><circle cx="70.362" cy="41.414" fill="#fa759e" r="4.566"/><g fill="#3a2c60"><path d="m117.557 28.83c-3.533-10.017-11.852-16.981-20.262-16.981-.038 0-.077 0-.115 0-.274.002-.536.117-.723.317-.188.201-.284.47-.268.743l1.526 25.067-14.092-13.133c-.26-.241-.626-.328-.969-.227-.341.103-.602.377-.685.723-1.187 4.896-.825 10.468 1.017 15.688 2.845 8.062 8.69 13.938 15.067 16.078-.995 1.668-2.262 3.004-3.82 3.923-.546.321-1.032.73-1.452 1.202-4.495-5.786-11.458-10.292-19.866-12.419v-3.456c1.786-.927 3.012-2.792 3.012-4.94 0-3.068-2.497-5.565-5.565-5.565-3.069 0-5.566 2.497-5.566 5.565 0 2.051 1.117 3.841 2.772 4.807v2.589c-3.956-.492-7.933-.454-11.808.086v-2.64c1.687-.958 2.83-2.767 2.83-4.842 0-3.068-2.497-5.565-5.565-5.565s-5.566 2.497-5.566 5.565c0 2.126 1.199 3.975 2.955 4.913v3.642c-.32.077-.55.138-1.13.326-.525.171-.813.734-.643 1.26.171.525.733.813 1.26.643.588-.19.767-.233 1.129-.319l.627-.152c.445-.111.757-.511.757-.97v-3.811c.201.022.405.035.611.035.25 0 .494-.022.736-.054v3.134c0 .294.129.573.354.763s.521.269.811.224c4.4-.732 8.981-.779 13.496-.101.288.04.58-.041.801-.231s.348-.467.348-.758v-3.039c.26.038.524.063.794.063.187 0 .372-.01.554-.028v3.644c0 .465.32.868.772.974 14.495 3.377 24.619 14.104 24.619 26.081 0 14.993-15.388 27.191-34.303 27.191s-34.303-12.198-34.303-27.191c0-7.512 3.44-14.129 9.949-19.134.438-.337.52-.965.183-1.402-.336-.439-.965-.52-1.402-.184-2.037 1.566-3.786 3.286-5.256 5.131-.248-.213-.508-.408-.787-.573-1.541-.909-3.563-2.697-4.868-6.04 1.853-.561 3.688-1.443 5.453-2.664 4.604-3.182 8.196-8.213 10.115-14.165 1.698-5.269 1.907-10.848.587-15.709-.093-.343-.361-.611-.704-.703-.343-.094-.71.003-.963.252l-13.728 13.516.84-25.1c.009-.274-.095-.54-.288-.735-.192-.195-.438-.289-.732-.298-8.445.168-16.629 7.378-19.903 17.534-1.918 5.952-1.94 12.134-.061 17.405 1.359 3.813 3.607 6.811 6.476 8.782.003.026.002.051.006.077 1.695 10.473 7.345 15.715 11.787 18.269.564.324 1.177.539 1.81.664-.294 1.446-.46 2.932-.496 4.454-2.406-.552-5.339-1.661-7.502-3.905-2.123-2.2-3.244-5.262-3.334-9.1-.021-.887-.392-1.729-1.02-2.309-.554-.512-1.251-.768-1.941-.733-1.585.048-2.843 1.483-2.802 3.201.13 5.555 1.854 10.087 5.125 13.47 3.67 3.795 8.531 5.29 12.193 5.865.085.334.186.665.286.995-3.844.561-8.759 2.06-12.478 5.907-3.271 3.382-4.996 7.913-5.125 13.47-.041 1.717 1.217 3.152 2.776 3.198.049.003.097.005.145.005.664 0 1.306-.258 1.822-.735.628-.579 1-1.421 1.021-2.309.09-3.839 1.211-6.9 3.334-9.101 3.354-3.477 8.59-4.271 11.2-4.446.358.584.743 1.156 1.147 1.717-3.836 1.015-7.008 2.769-9.415 5.259-3.271 3.382-4.996 7.914-5.125 13.47-.041 1.717 1.216 3.152 2.775 3.198.049.003.097.005.145.005.663 0 1.305-.258 1.822-.734.628-.58 1-1.422 1.021-2.311.09-3.838 1.211-6.899 3.334-9.1 3.077-3.19 7.717-4.117 10.442-4.381 6.626 5.668 16.025 9.219 26.44 9.219 20.018 0 36.303-13.096 36.303-29.191 0-3.921-.995-7.713-2.807-11.195.02.028.044.053.065.081-.466-.909-.977-1.802-1.556-2.67.334-.454.755-.836 1.238-1.121 1.404-.828 3.331-2.367 4.823-5.074.542.111 1.079.186 1.615.241.028.003.055.006.082.009.907.089 1.804.099 2.689.028.045-.003.089-.009.134-.013.334-.03.666-.072.997-.125.085-.013.17-.028.256-.043.297-.053.593-.116.887-.188.094-.022.187-.042.281-.067.362-.096.722-.204 1.079-.329.01-.004.021-.006.031-.01.338-.12.676-.255 1.011-.405-2.163 7.172-6.5 10.977-9.913 12.938-.448.258-.932.41-1.426.481.309.616.588 1.243.843 1.879.546-.133 1.076-.337 1.58-.626 4.035-2.318 9.239-6.984 11.338-16.029 2.968-2.046 5.239-5.199 6.54-9.19 1.73-5.321 1.539-11.5-.541-17.397zm-68.098 12.584c0-1.966 1.6-3.565 3.566-3.565s3.565 1.6 3.565 3.565c0 1.967-1.6 3.566-3.565 3.566-1.967 0-3.566-1.599-3.566-3.566zm17.337 0c0-1.966 1.6-3.565 3.566-3.565s3.565 1.6 3.565 3.565c0 1.967-1.6 3.566-3.565 3.566-1.966 0-3.566-1.599-3.566-3.566zm-58.772 2.7c-1.732-4.86-1.704-10.585.08-16.121 2.876-8.923 9.756-15.375 16.984-16.084l-.887 26.507c-.014.408.223.784.598.949.375.164.812.083 1.104-.203l14.235-14.015c.759 4.069.434 8.57-.95 12.864-1.784 5.536-5.104 10.2-9.349 13.134-4.162 2.877-8.714 3.734-12.818 2.41-4.103-1.321-7.299-4.674-8.997-9.441zm17.381 26.065c-3.843-2.209-8.678-6.638-10.52-15.308.498.226 1.006.422 1.522.589.002 0 .004.001.006.001.511.164 1.029.289 1.549.396.111.023.221.045.332.065.531.096 1.065.167 1.603.204.018.001.036.001.053.002.319.021.639.037.96.037.239 0 .478-.019.717-.03.047-.002.094-.003.141-.006.592-.034 1.185-.094 1.778-.197 1.502 4.044 3.967 6.186 5.829 7.284.216.127.415.286.607.457-1.478 2.173-2.576 4.507-3.292 6.971-.447-.08-.878-.231-1.285-.465zm.609 11.239c-3.241-.604-7.274-1.995-10.329-5.153-2.91-3.01-4.446-7.09-4.564-12.126-.014-.611.381-1.141.889-1.156h.031c.202 0 .365.109.467.204.229.212.37.543.378.887.102 4.355 1.412 7.868 3.894 10.441 2.145 2.225 5.234 3.797 8.969 4.572.046.76.137 1.509.254 2.252.005.026.007.053.011.079zm2.328 7.167c-3.334.337-8.17 1.461-11.561 4.977-2.482 2.573-3.792 6.087-3.894 10.442-.008.344-.149.675-.378.887-.107.1-.288.215-.523.201-.482-.014-.878-.542-.864-1.153.118-5.037 1.654-9.117 4.564-12.126 3.452-3.57 8.131-4.903 11.7-5.374.005.014.013.027.018.04.244.618.519 1.225.813 1.825.045.092.079.189.125.281zm-4.657 12.034c-2.482 2.573-3.792 6.086-3.894 10.441-.008.345-.15.676-.379.888-.107.1-.283.219-.523.201-.482-.014-.877-.542-.863-1.153.118-5.037 1.653-9.117 4.564-12.126 2.314-2.394 5.437-4.052 9.285-4.935.147.176.312.336.462.508.266.304.537.604.818.899.16.169.306.351.47.517-3.265.535-7.103 1.82-9.94 4.76zm92.508-55.011c-1.568 4.811-4.671 8.251-8.736 9.685-8.49 2.997-18.623-3.703-22.583-14.933-1.502-4.254-1.949-8.744-1.303-12.833l14.614 13.62c.299.279.737.349 1.108.173.37-.175.597-.557.571-.965l-1.612-26.474c7.246.512 14.3 6.772 17.418 15.614 1.936 5.485 2.121 11.208.523 16.113z"/><path d="m112.102 60.985c-.72-.036-1.403.224-1.954.732-.628.58-1 1.422-1.021 2.309-.09 3.838-1.211 6.899-3.333 9.1-1.689 1.751-3.846 2.805-5.859 3.449.12.662.213 1.331.275 2.007 2.863-.867 5.264-2.244 7.023-4.068 2.481-2.573 3.792-6.086 3.894-10.441.008-.344.149-.675.378-.887.103-.095.265-.204.467-.204.02 0 .04 0 .057.002.482.014.878.543.863 1.154-.117 5.036-1.653 9.116-4.563 12.126-2.363 2.444-5.31 3.823-8.025 4.604-.007.71-.051 1.413-.122 2.109 3.167-.819 6.734-2.376 9.585-5.323 3.271-3.383 4.996-7.915 5.126-13.47.039-1.711-1.212-3.144-2.791-3.199z"/><path d="m99.887 85.02c-.128.656-.292 1.301-.475 1.941 3.001.736 6.308 2.154 8.916 4.852 2.91 3.009 4.445 7.089 4.563 12.126.015.611-.381 1.14-.89 1.155-.215.01-.389-.104-.497-.203-.229-.212-.37-.543-.378-.887-.102-4.355-1.412-7.869-3.894-10.442-2.46-2.55-5.675-3.833-8.53-4.478-.249.634-.533 1.256-.835 1.87 2.583.542 5.678 1.667 7.925 3.997 2.122 2.2 3.243 5.263 3.333 9.101.021.888.394 1.729 1.021 2.309.517.479 1.16.736 1.804.736.046 0 .091-.002.137-.004 1.585-.048 2.843-1.483 2.803-3.2-.13-5.557-1.854-10.088-5.126-13.47-2.919-3.021-6.578-4.594-9.877-5.403z"/><path d="m96.582 93.261c-.362.577-.748 1.144-1.157 1.697 2.371.94 4.385 2.243 5.999 3.912 2.911 3.009 4.446 7.089 4.563 12.127.015.61-.38 1.139-.889 1.154-.208.003-.389-.103-.497-.203-.229-.212-.371-.544-.379-.888-.102-4.355-1.412-7.868-3.894-10.441-1.838-1.906-4.096-3.108-6.346-3.869-.486.557-.995 1.1-1.529 1.627 2.21.633 4.601 1.729 6.435 3.631 2.122 2.2 3.243 5.262 3.333 9.101.021.888.395 1.73 1.022 2.31.518.478 1.161.735 1.804.735.046 0 .091-.002.137-.004 1.586-.048 2.843-1.483 2.802-3.2-.129-5.556-1.854-10.088-5.126-13.47-1.717-1.778-3.82-3.187-6.278-4.219z"/><path d="m39.678 55.802c.189.308.517.478.854.478.178 0 .359-.048.522-.147 1.683-1.032 3.497-1.944 5.389-2.71.512-.207.759-.79.552-1.302-.208-.511-.789-.76-1.302-.552-1.995.807-3.907 1.769-5.685 2.858-.471.289-.618.904-.33 1.375z"/><path d="m53.024 39.414c-1.103 0-2 .897-2 2s.897 2 2 2 2-.897 2-2c.001-1.103-.897-2-2-2z"/><path d="m70.362 39.414c-1.103 0-2 .897-2 2s.897 2 2 2 2-.897 2-2-.897-2-2-2z"/></g></svg>