<svg id="Layer_1" enable-background="new 0 0 128 128" height="512" viewBox="0 0 128 128" width="512" xmlns="http://www.w3.org/2000/svg"><path d="m79.051 25.597 8.821-1.556c3.303-.583 6.078-2.899 7.242-6.046l4.42-11.954c.192-.518-.072-1.093-.591-1.285-.517-.189-1.094.073-1.284.591l-2.766 7.479-2.24-2.911v-4.221c0-.552-.447-1-1-1s-1 .448-1 1v4.562c0 .221.073.435.208.61l3.214 4.175-.836 2.26c-.919 2.483-3.108 4.311-5.715 4.771l-7.021 1.239 1.66-2.671c2.729-1.496 4.439-4.428 4.379-7.553l-.056-2.824c-.011-.545-.456-.98-1-.98-.006 0-.013 0-.02 0-.553.011-.991.468-.98 1.02l.056 2.824c.048 2.456-1.34 4.757-3.534 5.862-.165.083-.303.209-.4.365l-2.977 4.789-8.054 11.403c-.011.016-.013.035-.023.052-1.445-.302-2.984-.475-4.637-.475-.829 0-1.624.052-2.401.129l-8.161-11.13-2.964-4.767c-.097-.156-.235-.283-.399-.365-2.195-1.105-3.582-3.406-3.534-5.862l.055-2.824c.011-.552-.428-1.009-.98-1.02-.523.001-1.008.428-1.02.98l-.055 2.824c-.061 3.125 1.649 6.057 4.378 7.553l1.661 2.671-7.021-1.239c-2.607-.46-4.796-2.288-5.714-4.77l-.836-2.26 3.214-4.175c.134-.175.208-.389.208-.61v-4.564c0-.552-.448-1-1-1s-1 .448-1 1v4.222l-2.24 2.91-2.766-7.478c-.191-.518-.768-.781-1.285-.591-.518.191-.783.767-.591 1.285l4.42 11.954c1.164 3.146 3.938 5.463 7.243 6.046l8.831 1.558 7.329 9.995c-1.843.385-3.51 1.008-4.989 1.855-1.585-5.466-9.73-10.602-10.837-11.279-.241-.146-.534-.184-.805-.105-.271.08-.496.271-.618.526-.15.313-3.648 7.718-.636 12.83 1.636 2.777 4.478 4.138 6.964 4.418-1.296 2.661-1.99 5.869-1.99 9.567 0 6.568 2.086 13.545 5.528 18.676-2.445 7.215-6.049 15.97-7.939 18.484-4.191 5.576-4.074 14.642-2.565 21.283.1.637.804 4.146 1.444 6.267-2.029.953-4.118 3.154-4.353 8.145-.013.273.087.54.275.737.189.198.45.31.724.31h50.013c.273 0 .535-.112.724-.31s.288-.464.275-.737c-.234-4.99-2.322-7.191-4.352-8.144.647-2.134 1.346-5.631 1.443-6.268.293-1.291.532-2.676.698-4.107 9.342-.072 7.705-8.728 6.003-13.672-.366-1.062-1.872-1.086-2.261-.032-.95 2.578-2.306 4.283-3.728 5.417-.424-3.302-1.433-6.433-3.277-8.888-1.759-2.338-5.004-10.09-7.417-16.972 3.191-4.865 5.186-11.453 5.186-17.846 0-4.73-1.097-8.366-2.956-11.062-.112-.266-.222-.535-.346-.791.028 0 .054.004.082.004 2.677 0 6.076-1.334 7.929-4.478 3.013-5.111-.484-12.517-.635-12.83-.123-.255-.347-.446-.618-.526-.27-.079-.562-.041-.805.105-1.146.7-9.826 6.173-10.979 11.847-1.158-.782-2.455-1.403-3.87-1.873z" fill="#e6e7e8"/><path d="m81.897 114.703c.699-1.768 1.671-6.669 1.715-7.041 1.463-6.407 1.632-15.158-2.382-20.497-2.202-2.929-6.374-13.405-8.764-20.836-2.981 4.598-7.054 7.708-11.549 7.708-4.111 0-7.868-2.603-10.761-6.565-2.431 7.323-6.3 16.911-8.391 19.693-4.013 5.339-3.845 14.09-2.381 20.497.044.372 1.015 5.272 1.714 7.041-1.969.593-4.362 2.379-4.607 7.602h24.611.792 24.611c-.245-5.223-2.639-7.008-4.608-7.602z" fill="#fa759e"/><path d="m60.918 74.039c-2.175 0-4.25-.734-6.152-2.006h-2.435c0 8.57 3.844 15.517 8.587 15.517 4.742 0 8.587-6.947 8.587-15.517h-2.435c-1.902 1.271-3.977 2.006-6.152 2.006z" fill="#ffd7e5"/><path d="m46.928 38.865c.98-1.573 2.204-2.856 3.632-3.855-.281-5.669-10.619-11.986-10.619-11.986s-3.451 7.179-.675 11.889c1.709 2.9 5.06 4.191 7.662 3.952z" fill="#ffd7e5"/><path d="m82.971 23.024s-11.443 6.994-10.573 12.869c.888.776 1.679 1.678 2.358 2.717 2.665.879 6.895-.31 8.891-3.697 2.775-4.71-.676-11.889-.676-11.889z" fill="#ffd7e5"/><path d="m60.918 32.121c-9.135 0-16.54 4.868-16.54 16.976s7.405 24.942 16.54 24.942 16.54-12.833 16.54-24.942-7.405-16.976-16.54-16.976z" fill="#fff"/><path d="m77.458 49.097c0-4.856-1.206-8.529-3.221-11.209-2.922-2.352-6.759-3.426-10.977-3.426-9.135 0-16.54 4.956-16.54 17.285 0 6.382 1.987 12.957 5.169 17.82 2.597 2.758 5.697 4.472 9.03 4.472 9.134 0 16.539-12.833 16.539-24.942z" fill="#fa759e"/><path d="m60.799 59.23c-4.918 0-8.905 3.655-8.905 8.163 0 .716.111 1.407.3 2.069 1.551 2.324 3.378 4.241 5.393 5.538.998.354 2.078.556 3.212.556 4.918 0 8.905-3.655 8.905-8.163-.001-4.508-3.987-8.163-8.905-8.163z" fill="#ffd7e5"/><g fill="#3a2c60"><path d="m76.002 54.722c-.123.733-.275 1.482-.452 2.225-.128.538.204 1.077.741 1.204.078.019.155.027.232.027.452 0 .862-.309.972-.769.187-.786.348-1.578.479-2.354.092-.544-.275-1.061-.82-1.152-.542-.099-1.059.275-1.152.819z"/><path d="m52.56 51.468c0 1.139.923 2.062 2.062 2.062s2.062-.923 2.062-2.062-.923-2.062-2.062-2.062c-1.138 0-2.062.923-2.062 2.062z"/><circle cx="65.835" cy="51.468" r="2.062"/><path d="m75.051 21.597 8.82-1.556c3.304-.583 6.079-2.9 7.242-6.046l4.421-11.954c.192-.518-.072-1.093-.591-1.285-.516-.19-1.094.073-1.284.591l-2.766 7.479-2.241-2.911v-4.221c0-.552-.447-1-1-1s-1 .448-1 1v4.562c0 .221.073.435.208.61l3.214 4.175-.836 2.26c-.918 2.482-3.108 4.31-5.715 4.77l-7.02 1.238 1.66-2.671c2.729-1.495 4.438-4.427 4.378-7.553l-.055-2.824c-.011-.545-.456-.98-1-.98-.006 0-.013 0-.02 0-.552.011-.991.467-.98 1.02l.055 2.824c.048 2.457-1.339 4.758-3.533 5.861-.164.083-.303.209-.4.366l-2.977 4.789-8.054 11.404c-.011.016-.013.035-.023.052-1.445-.302-2.984-.475-4.637-.475-.829 0-1.624.052-2.401.129l-8.161-11.13-2.964-4.767c-.097-.156-.235-.283-.4-.366-2.194-1.104-3.582-3.405-3.534-5.861l.055-2.824c.011-.552-.428-1.009-.98-1.02-.548.021-1.009.429-1.02.98l-.055 2.824c-.061 3.125 1.649 6.058 4.378 7.553l1.661 2.671-7.021-1.238c-2.607-.46-4.796-2.288-5.714-4.77l-.836-2.261 3.214-4.175c.134-.175.208-.389.208-.61v-4.563c0-.552-.448-1-1-1s-1 .448-1 1v4.221l-2.241 2.91-2.766-7.478c-.192-.519-.769-.782-1.285-.591-.518.191-.783.767-.591 1.285l4.421 11.954c1.164 3.146 3.938 5.463 7.243 6.046l8.831 1.558 7.329 9.996c-1.849.385-3.52 1.011-5.001 1.863-1.664-5.628-10.42-11.04-10.824-11.288-.241-.146-.532-.185-.805-.105-.271.08-.496.271-.618.526-.15.313-3.648 7.718-.636 12.83 1.632 2.769 4.485 4.131 6.967 4.412-1.299 2.662-1.994 5.872-1.994 9.573 0 6.564 2.084 13.536 5.522 18.666-2.423 7.135-6.026 15.958-7.932 18.493-4.191 5.576-4.074 14.642-2.565 21.283.1.637.804 4.146 1.444 6.267-2.029.952-4.118 3.153-4.353 8.144-.013.273.087.54.275.737.189.198.45.31.724.31h50.013c.273 0 .535-.112.724-.31s.288-.464.275-.737c-.234-4.991-2.323-7.192-4.353-8.144.642-2.124 1.344-5.627 1.443-6.267.294-1.292.533-2.677.699-4.11 9.339-.073 7.704-8.726 6.002-13.67-.366-1.062-1.872-1.086-2.261-.032-.95 2.578-2.306 4.278-3.728 5.411-.425-3.3-1.434-6.429-3.278-8.882-1.989-2.646-5.89-12.278-8.333-19.696.917-1.531 1.745-3.222 2.449-5.075.196-.516-.063-1.094-.579-1.29-.518-.197-1.095.063-1.29.579-2.795 7.346-7.461 12.086-12.359 12.659v-4.337c2.473-.873 4.344-4.742 4.344-6.668 0-2.178-2.393-1.037-5.344-1.037s-5.344-1.141-5.344 1.037c0 1.926 1.871 5.795 4.344 6.668v4.333c-8.263-.949-14.54-13.484-14.54-24.332 0-4.608 1.033-7.935 2.623-10.335.118-.177.236-.353.362-.522.091-.124.185-.244.279-.363.163-.203.33-.401.504-.593.103-.113.207-.223.312-.33.176-.179.357-.353.542-.52.102-.092.204-.183.308-.271.233-.196.473-.384.721-.562 3.149-2.265 7.004-2.789 9.888-2.789 3.209 0 7.619.652 10.922 3.625.316.283.614.587.9.903.097.109.196.216.29.33.233.278.449.572.658.872 1.673 2.415 2.77 5.805 2.77 10.555 0 .283-.005.566-.013.85-.015.552.421 1.012.974 1.026h.027c.539 0 .984-.43.999-.973.008-.302.013-.603.013-.903 0-3.678-.685-6.873-1.968-9.526.048.001.093.01.142.01 2.814 0 6.096-1.449 7.876-4.47 3.012-5.111-.485-12.517-.636-12.83-.123-.255-.348-.446-.618-.526-.271-.081-.564-.042-.805.106-1.1.672-9.813 6.163-10.967 11.856-1.161-.786-2.462-1.41-3.882-1.882zm5.38 66.17c3.789 5.04 3.624 13.467 2.206 19.673-.007.03-.015.073-.019.104-.061.457-1.01 5.17-1.65 6.792-.036.091-.04.187-.049.283-.462-.08-.934-.134-1.42-.134-.212 0-1.527.137-3.289.356-.219-4.888-.432-11.317.825-17.876.104-.542-.252-1.066-.794-1.17-.541-.103-1.067.251-1.171.794-1.31 6.838-1.068 13.733-.852 18.51-2.911.392-6.283.916-8.104 1.4v-16.715c0-.552-.447-1-1-1-.552 0-1 .448-1 1v19.94c0 .576.115 1.107.302 1.582h-5.832c.185-.474.298-1.005.298-1.582v-19.94c0-.552-.448-1-1-1s-1 .448-1 1v16.356c-2.105-.327-5.19-.729-7.92-1.057.212-4.775.448-11.662-.836-18.491-.102-.542-.628-.901-1.167-.798-.543.102-.9.625-.798 1.167 1.234 6.565 1.026 12.999.809 17.89-1.924-.218-3.414-.366-3.792-.366-.377 0-.746.034-1.109.084-.011-.078-.01-.158-.04-.233-.64-1.617-1.591-6.335-1.651-6.79-.004-.036-.01-.071-.018-.106-1.417-6.207-1.582-14.634 2.206-19.673 1.933-2.571 5.291-10.62 7.779-17.748 2.896 3.517 6.528 5.782 10.573 5.782 4.16 0 8.192-2.495 11.38-6.815 2.317 6.765 5.977 15.912 8.133 18.781zm-40.304-53.362c-1.879-3.189-.5-7.831.279-9.894 3.036 2.036 8.452 6.357 9.097 10.034-1.211.928-2.263 2.05-3.136 3.348-2.096 0-4.785-1.019-6.24-3.488zm42.38-9.895c.781 2.059 2.163 6.695.278 9.895-1.638 2.778-5.053 3.927-7.402 3.346-.594-.858-1.273-1.643-2.029-2.342-.18-3.82 5.813-8.662 9.153-10.899z"/></g></svg>