<svg id="Layer_1" enable-background="new 0 0 128 128" height="512" viewBox="0 0 128 128" width="512" xmlns="http://www.w3.org/2000/svg"><path d="m105.608 74.259c-3.843-3.501-9.683-3.458-13.474-.062-1.215-2.054-2.556-3.961-3.996-5.653-.066-.104-.131-.207-.205-.309 1.261-.833 4.218-4.261 5.672-9.317 1.75-6.083-.155-17.805-1.01-20.91 7.384-9.838 8.327-22.507 4.525-28.306-1.658-2.529-4.056-3.544-6.761-2.857-6.272 1.596-11.789 6.857-14.784 10.209-2.053-.855-4.178-1.523-6.327-1.989-2.539-.549-5.167-.816-7.737-.814-5.06.008-10.272 1.07-14.767 3-3.022-3.42-8.594-8.787-14.96-10.406-2.755-.698-5.189.363-6.851 2.996-3.88 6.15-2.627 19.221 5.344 29.103-.529 2.088-.95 4.161-1.252 6.168-.677 4.501-1.301 11.157 1.087 16.972 1.077 2.622 2.8 4.704 5.018 6.158-.603.831-.935 1.732-.935 2.701 0 .5.097.98.264 1.444-3.506 5.329-6.149 11.89-7.172 18.263-3.813 4.178-4.819 12.371-2.434 20.093.63 2.037 1.5 3.948 2.594 5.696-1.992 1.109-3.909 3.259-3.778 7.424.017.54.459.969 1 .969h12.17c.011.011.018.026.029.037.251.236.664.496 1.269.496.068 0 .138-.003.211-.01h12.636c1.291 0 2.429-.64 3.134-1.613 2.699.344 5.572.523 8.612.523 2.913 0 5.675-.165 8.279-.482.708.948 1.828 1.572 3.1 1.572h12.635c.073.007.143.01.211.01.604 0 1.018-.26 1.269-.496.011-.01.018-.026.029-.037h12.17c.54 0 .982-.429 1-.969.13-4.165-1.786-6.315-3.778-7.424 1.094-1.748 1.965-3.659 2.594-5.696 1.728-5.592 1.702-11.396.104-15.774l5.928-6.506c3.732-4.098 3.436-10.47-.663-14.204z" fill="#e6e7e8"/><path d="m100.935 70.999c-3.696-3.368-9.423-3.101-12.791.595l-.515.565c2.528 4.633 4.447 9.987 5.209 15.408.843.99 1.514 2.194 2.025 3.54l6.667-7.317c3.368-3.697 3.101-9.423-.595-12.791z" fill="#ffd7e5"/><path d="m91.716 112.853c1.301-1.859 2.373-4.016 3.111-6.405 2.139-6.922 1.543-14.734-1.989-18.881-1.06-7.542-4.338-14.978-8.419-20.48-.2 4.126-8.937 7.559-20.58 8.423.033.244.055.491.055.744 0 3.09-2.505 5.594-5.594 5.594-3.09 0-5.594-2.505-5.594-5.594 0-.242.021-.48.051-.714-11.441-.785-20.17-4.043-20.941-8.024-3.855 5.344-6.946 12.403-8.043 19.594-3.905 4.005-4.64 12.147-2.418 19.337.738 2.389 1.81 4.546 3.111 6.405-2.251.87-4.382 2.792-4.251 6.979h14.29c1.63.281 3.279.22 4.875-.273 1.404-.434 2.661-1.155 3.751-2.106 4.228 1.16 9.237 1.811 15.143 1.811 5.779 0 10.696-.625 14.867-1.738 1.07.913 2.295 1.611 3.661 2.033 1.597.493 3.245.554 4.875.273h14.29c.131-4.186-2.001-6.108-4.251-6.978z" fill="#ffd7e5"/><path d="m83.079 64.168c-.566.279-1.157.515-1.767.707-2.879.905-6.412 1.124-9.306.2-3.446-1.101-6.49-3.334-9.414-5.399-.691-.488-1.381-1.005-2.096-1.474-.793-.024-1.594-.038-2.406-.038-.417 0-.831.004-1.244.01-2.281 1.463-4.418 3.155-6.758 4.537-3.072 1.813-6.06 2.969-9.661 2.91-2.563-.042-4.947-.636-6.986-1.775-1.09.963-1.691 2.007-1.691 3.097 0 4.239 9.015 7.777 21.003 8.599.351-2.753 2.696-4.882 5.544-4.882 2.837 0 5.174 2.113 5.539 4.85 11.781-.875 20.591-4.377 20.591-8.567.003-.97-.476-1.903-1.348-2.775z" fill="#6dc9f7"/><circle cx="58.3" cy="76.255" fill="#0089ef" r="5.594"/><path d="m81.312 64.875c-2.879.905-6.412 1.124-9.306.2-3.446-1.101-6.49-3.334-9.414-5.399-1.038-.733-2.066-1.541-3.193-2.135-.667-.351-.984-.342-1.625.039-2.645 1.573-5.028 3.562-7.685 5.13-3.072 1.813-6.06 2.969-9.661 2.91-1.977-.033-3.847-.395-5.536-1.079-.216.077-.383.109-.476.073-.174.316-.342.633-.506.949 7.183 3.106 15.359 4.873 24.042 4.873 8.793 0 17.07-1.808 24.318-4.989-.134-.256-.273-.512-.411-.768-.181.067-.361.137-.547.196z" fill="#ffd7e5"/><path d="m62.592 59.676c-1.038-.733-2.066-1.541-3.193-2.135-.667-.351-.984-.342-1.625.039-2.457 1.462-4.696 3.269-7.13 4.777.767 3.519 3.906 6.156 7.667 6.156 3.867 0 7.073-2.789 7.722-6.458-1.175-.769-2.317-1.586-3.441-2.379z" fill="#fff"/><path d="m62.592 59.676c-1.038-.733-2.066-1.541-3.193-2.135-.667-.351-.984-.342-1.625.039-1.31.779-2.555 1.66-3.801 2.542-.074.37-.119.749-.119 1.139 0 3.5 3.141 6.337 7.015 6.337 3.195 0 5.885-1.931 6.733-4.57-1.738-1.025-3.394-2.211-5.01-3.352z" fill="#fa759e"/><path d="m88.518 33.797c10.629-13.718 7.665-32.16-.892-29.983-6.455 1.642-12.174 7.465-14.759 10.444-2.195-.966-4.488-1.712-6.811-2.215-2.47-.535-4.997-.801-7.524-.792-4.939.008-10.292 1.046-15.038 3.213-2.495-2.91-8.332-8.97-14.936-10.65-8.747-2.225-11.65 17.092-.166 30.888-.565 2.161-1.026 4.351-1.358 6.559-.807 5.368-1.08 11.321 1.023 16.443 2.139 5.209 6.854 7.826 12.372 7.917 3.601.059 6.589-1.097 9.661-2.91 2.657-1.568 5.04-3.557 7.685-5.13.64-.381.957-.391 1.625-.039 1.127.594 2.156 1.402 3.193 2.135 2.924 2.064 5.968 4.298 9.414 5.399 2.894.924 6.427.705 9.306-.2 2.446-.769 4.583-2.255 6.096-4.331 3.176-4.357 3.511-10.282 3.134-15.471-.275-3.797-.978-7.593-2.025-11.277z" fill="#ffd7e5"/><path d="m104.88 77.224c-.125-2.683-1.287-5.156-3.272-6.965s-4.562-2.741-7.238-2.611c-2.479.115-4.772 1.125-6.534 2.843-.756-1.293-1.562-2.543-2.425-3.727-.035-.824-.298-1.599-.777-2.322 1.396-.864 2.611-1.977 3.583-3.311 1.914-2.625 3.043-6.066 3.355-10.226.042-.55-.372-1.031-.922-1.072-.562-.051-1.03.372-1.072.922-.284 3.782-1.286 6.877-2.978 9.197-1.264 1.733-3.015 3.029-5.081 3.785-.002.001-.004 0-.006.001l-.069.026c-.144.052-.286.108-.433.155-.651.205-1.318.361-1.988.482-2.359.427-4.763.342-6.714-.281-3.106-.992-5.923-2.986-8.648-4.915l-.493-.349c-.23-.163-.46-.329-.69-.496-.462-.334-.938-.669-1.428-.99-.384-.253-.775-.5-1.187-.717-.201-.106-.384-.175-.565-.236v-3.631c.047-.038.097-.071.141-.115l8.042-8.042c1.016-1.016.297-2.755-1.141-2.755h-16.082c-1.438 0-2.157 1.738-1.141 2.755l8.042 8.042c.044.044.093.077.141.115v3.914c-.013.008-.024.01-.037.018-.671.399-1.326.825-1.969 1.26-.643.436-1.273.882-1.893 1.32-.103.073-.21.146-.314.219-1.138.804-2.307 1.622-3.506 2.329-3.37 1.989-6.124 2.813-9.119 2.771-.006 0-.011 0-.017 0-.001 0-.002 0-.002 0-.418-.007-.828-.034-1.234-.072-.107-.01-.213-.023-.318-.035-.335-.038-.666-.086-.992-.146-.07-.013-.142-.023-.212-.037-.398-.079-.789-.174-1.172-.285-.046-.013-.09-.03-.136-.043-.325-.098-.643-.211-.955-.332-2.952-1.157-5.206-3.334-6.443-6.346-2.199-5.356-1.601-11.648-.959-15.914.315-2.092.763-4.255 1.33-6.429.273-.681 2.328-5.658 5.583-9.456.359-.419.311-1.051-.108-1.41-.418-.359-1.05-.31-1.41.108-2.539 2.963-4.356 6.506-5.277 8.518-7.271-9.717-7.376-21.269-4.496-25.834 1.194-1.893 2.761-2.608 4.666-2.125 6.426 1.635 12.228 7.77 14.423 10.332.29.339.768.444 1.175.259 4.392-2.005 9.585-3.114 14.626-3.123 2.474.006 4.913.251 7.31.77 2.254.488 4.482 1.212 6.619 2.153.401.177.871.07 1.158-.26 2.705-3.118 8.152-8.58 14.25-10.131 1.863-.472 3.409.205 4.596 2.016 2.868 4.375 3.024 15.188-3.657 24.882-.77-1.86-2.287-4.95-4.986-8.498-.333-.439-.962-.525-1.401-.19-.439.334-.525.962-.19 1.401 4.029 5.295 5.293 9.57 5.323 9.675v.002c.432 1.521.805 3.064 1.106 4.584.107.542.636.893 1.175.787.542-.107.894-.634.787-1.175-.28-1.413-.619-2.843-1.009-4.259 7.384-9.834 8.327-22.504 4.525-28.302-1.658-2.529-4.057-3.544-6.761-2.857-6.272 1.595-11.789 6.858-14.784 10.21-2.053-.855-4.178-1.523-6.327-1.989-2.538-.549-5.165-.817-7.737-.815-5.059.008-10.271 1.07-14.767 3-3.022-3.42-8.592-8.786-14.959-10.406-2.754-.699-5.189.363-6.851 2.996-3.881 6.15-2.628 19.221 5.343 29.103-.528 2.084-.949 4.157-1.252 6.168-.677 4.501-1.3 11.157 1.087 16.972 1.027 2.502 2.648 4.508 4.72 5.95-.706.889-1.098 1.858-1.098 2.91 0 .112.011.221.02.331-3.978 5.63-6.861 12.646-7.941 19.377-3.813 4.179-4.819 12.371-2.434 20.092.629 2.037 1.5 3.948 2.594 5.696-1.992 1.109-3.909 3.259-3.778 7.424.017.54.459.969 1 .969h12.625c.011.011.018.026.029.036.25.236.664.496 1.269.496.068 0 .138-.003.211-.01h12.635c1.27 0 2.39-.622 3.098-1.569 2.579.311 5.307.479 8.193.479 3.069 0 5.962-.191 8.684-.543.704.984 1.85 1.632 3.15 1.632h12.636c.073.007.143.01.211.01.604 0 1.018-.26 1.269-.496.011-.01.018-.026.029-.036h11.715c.54 0 .982-.429 1-.969.127-4.053-1.686-6.189-3.619-7.324-.026-.076-.047-.152-.09-.219 1.06-1.716 1.909-3.586 2.525-5.577 1.68-5.439 1.695-11.073.224-15.407l6.262-6.874c1.807-1.984 2.734-4.555 2.609-7.238zm-40.246-2.785c-.361-1.258-1.086-2.362-2.054-3.191 7.02-.511 13.889-2.162 20.093-4.885.21-.092.365-.263.47-.465.18.349.287.699.287 1.045 0 3.113-7.461 6.518-18.796 7.496zm-6.334.214c-.552 0-1 .448-1 1v5.079c-2.053-.459-3.594-2.288-3.594-4.477 0-2.534 2.061-4.595 4.594-4.595 2.534 0 4.595 2.061 4.595 4.595 0 2.189-1.542 4.019-3.595 4.477v-5.079c0-.552-.448-1-1-1zm-6.343-.181c-11.563-.93-19.204-4.378-19.204-7.529 0-.321.106-.645.262-.97.103.223.272.409.5.508 6.325 2.735 13.332 4.353 20.469 4.799-.959.834-1.674 1.937-2.027 3.192zm-2.489-10.27c.199-.107.402-.223.604-.337 1.1 2.831 3.614 4.963 6.681 5.509-5.904-.112-11.785-1.036-17.278-2.793.309.021.621.034.936.039 3.025.044 5.864-.707 9.057-2.418zm26.54 2.462c.044 0 .086.004.13.004h.012c.006 0 .011.001.017 0-5.172 1.626-10.686 2.522-16.237 2.694 3.127-.58 5.672-2.806 6.713-5.738 1.595.974 3.263 1.83 5.059 2.404 1.303.415 2.786.636 4.306.636zm-11.103-4.158c-.801 2.882-3.45 5.007-6.595 5.007-3.037 0-5.607-1.983-6.501-4.714.938-.608 1.858-1.237 2.746-1.865.598-.423 1.207-.853 1.823-1.272.006-.004.011-.008.017-.012.072-.049.146-.092.219-.14.226-.152.457-.292.685-.439v4.751c0 .552.448 1 1 1s1-.448 1-1v-5.174c.683.397 1.356.864 2.007 1.335.237.171.473.342.709.509l.491.347c.79.559 1.588 1.121 2.399 1.667zm28.966 43.647c-.626 2.028-1.524 3.908-2.647 5.615-1.001.043-2.371.347-3.608 1.472-.409.371-.438 1.004-.067 1.413.197.217.468.327.74.327.24 0 .48-.086.672-.26.819-.745 1.72-.93 2.363-.954.011.005.018.016.03.02 2.25.87 3.434 2.526 3.598 5.047h-9.904c.174-1.382.051-3.342-.126-6.041-.375-5.742-.89-13.606 1.292-21.603.145-.533-.169-1.083-.702-1.228-.535-.145-1.082.169-1.228.702-2.269 8.319-1.72 16.708-1.357 22.259.177 2.71.377 5.771-.037 6.437-.031-.003-.062-.004-.093-.004h-5.268v-3.632c0-.552-.448-1-1-1s-1 .448-1 1v3.632h-2.087v-3.632c0-.552-.448-1-1-1s-1 .448-1 1v3.632h-1.335c-1.036 0-1.879-.843-1.879-1.879v-23.07c0-.552-.448-1-1-1s-1 .448-1 1v23.07c0 .109.023.211.032.318-2.51.305-5.169.471-7.988.471-2.619 0-5.099-.144-7.45-.406.013-.128.039-.252.039-.383v-23.07c0-.552-.448-1-1-1s-1 .448-1 1v23.07c0 1.036-.843 1.879-1.879 1.879h-1.335v-3.632c0-.552-.448-1-1-1s-1 .448-1 1v3.632h-2.087v-3.632c0-.552-.448-1-1-1s-1 .448-1 1v3.632h-5.267c-.024 0-.06.001-.093.004-.414-.666-.214-3.727-.037-6.437.363-5.551.912-13.939-1.357-22.259-.146-.533-.697-.846-1.228-.702-.533.146-.847.695-.702 1.228 2.181 7.996 1.667 15.86 1.292 21.602-.176 2.699-.299 4.659-.125 6.042h-10.815c.162-2.485 1.319-4.125 3.507-5.005.137.027.281.031.426-.004.071-.017 1.783-.405 3.215.896.192.174.433.26.672.26.272 0 .543-.11.74-.327.372-.409.342-1.042-.067-1.413-1.823-1.657-3.937-1.536-4.729-1.417-1.14-1.722-2.049-3.621-2.682-5.671-2.19-7.087-1.274-14.802 2.178-18.343.146-.15.241-.341.273-.547.926-6.071 3.394-12.414 6.844-17.673l.01-.052c2.634 3.805 10.99 6.168 20.101 6.921.109 3.542 3.016 6.391 6.584 6.391 3.58 0 6.496-2.868 6.586-6.427 9.152-.808 17.463-3.245 19.855-7.143.716 1.069 1.376 2.193 2.004 3.34.003.006.003.013.007.019 1.234 2.261 2.269 4.612 3.102 6.992.062.178.13.354.189.532.125.372.236.746.351 1.119.117.384.233.768.34 1.154.086.31.167.619.246.929.12.476.231.952.334 1.428.053.245.11.491.159.736.144.728.274 1.455.375 2.179.026.188.106.365.229.509.192.225.373.465.547.716.081.117.154.245.231.367.088.139.178.275.261.421.093.164.179.341.266.515.058.116.12.228.175.348.086.187.165.385.245.582 1.624 3.998 1.718 9.652.069 14.988zm1.289-16.856c-.017-.033-.037-.062-.054-.095-.153-.296-.316-.581-.487-.858-.048-.078-.094-.161-.143-.238-.217-.335-.444-.658-.688-.96-.119-.802-.271-1.608-.439-2.415-.046-.223-.096-.446-.146-.669-.148-.656-.31-1.312-.489-1.967-.047-.173-.088-.346-.137-.519-.209-.73-.44-1.458-.687-2.185-.124-.367-.257-.73-.39-1.094-.131-.357-.266-.712-.406-1.067-.644-1.644-1.378-3.251-2.194-4.81-.019-.036-.036-.073-.055-.109l.039-.043c1.449-1.59 3.43-2.521 5.579-2.621 2.157-.095 4.208.643 5.799 2.092 1.59 1.449 2.521 3.43 2.621 5.579s-.643 4.208-2.092 5.799z" fill="#3a2c60"/><path d="m90.054 40.724c-.547.075-.93.58-.855 1.126.152 1.105.268 2.213.346 3.294.055.751.094 1.518.111 2.293.012.545.458.978 1 .978h.022c.552-.012.99-.47.978-1.021-.018-.81-.059-1.61-.115-2.394-.082-1.123-.203-2.274-.36-3.421-.076-.547-.589-.932-1.127-.855z" fill="#3a2c60"/><path d="m41.465 37.195c0 1.506 1.221 2.726 2.726 2.726s2.726-1.221 2.726-2.726-1.221-2.726-2.726-2.726-2.726 1.22-2.726 2.726z" fill="#3a2c60"/><path d="m70.547 37.195c0 1.506 1.221 2.726 2.726 2.726s2.727-1.221 2.727-2.726-1.221-2.726-2.726-2.726-2.727 1.22-2.727 2.726z" fill="#3a2c60"/><g fill="#fa759e"><circle cx="37.972" cy="52.554" r=".724"/><circle cx="33.32" cy="54.682" r=".724"/><circle cx="33.698" cy="50.192" r=".724"/><circle cx="77.885" cy="52.554" r=".724"/><circle cx="82.538" cy="54.682" r=".724"/><circle cx="82.16" cy="50.192" r=".724"/></g></svg>