<svg id="Layer_1" enable-background="new 0 0 128 128" height="512" viewBox="0 0 128 128" width="512" xmlns="http://www.w3.org/2000/svg"><path d="m114.887 48.295c-2.445-.902-4.114 1.442-6.048 4.152-2.242 3.142-5.032 7.052-9.808 7.382-3.043.221-6.392-1.999-10.271-4.557-1.584-1.045-3.223-2.125-5.016-3.169-3.503-2.04-6.83-3.293-9.628-4.071 1.262-2.955 1.963-6.205 1.963-9.615 0-6.24-2.485-12.421-6.79-16.937-4.162-4.366-9.953-7.107-15.968-7.547-.124-.009-.248-.021-.372-.028-.472-.027-.947-.045-1.426-.045-11.373 0-20.961 7.772-23.741 18.283-3.655.237-9.562.159-12.131-2.458-.606-.616-1.487-.796-2.302-.465-.822.333-1.356 1.114-1.361 1.991-.025 4.697 1.808 12.232 13.162 14.547-.542.157-1.081.299-1.584.423-1.995.494-4.057 1.005-3.834 2.807.304 2.463 3.83 4.292 7.155 4.826.812.131 1.647.184 2.467.184 1.066 0 2.106-.089 3.037-.213 1.034 1.285 2.193 2.467 3.461 3.521-2.55 3.689-4.874 8.537-5.792 14.626-1.14 7.568 1.239 15.643 6.365 21.598 2.971 3.452 7.781 7.284 15.448 9.912l-4.545 2.349c-.888.459-1.339 1.427-1.124 2.409.213.965 1.015 1.643 1.996 1.686 1.214.054 2.721.315 3.004 1.256 1.038 3.446 3.214 2.85 5.32 2.274.24-.066.492-.134.752-.201.498.551 1.222.858 1.995.798 1.63-.127 3.69-.007 4.257 1.282.952 2.164 2.108 2.844 3.38 2.844 1.05 0 2.179-.463 3.336-.938 1.071-.439 2.286-.938 3.772-1.318 1.755-.447 3.553-.189 5.342.771.885.475 1.922.38 2.708-.252.783-.628 1.115-1.656.844-2.621l-2.116-7.558c22.652-2.851 34.685-19.42 38.18-33.799 2.453-10.096.352-22.499-4.087-24.129z" fill="#e6e7e8"/><path d="m54.273 106.301 6.693-4.569-.081-.533c-3.861-.408-7.319-1.084-10.413-1.974l-6.686 3.456c-1.052.544-.725 2.155.458 2.208 1.844.082 3.497.571 3.917 1.967.911 3.027 2.423 1.945 5.57 1.221-.228-.6-.101-1.337.542-1.776z" fill="#fa759e"/><path d="m75.511 101.352c-1.837.193-3.731.305-5.7.305-2.908 0-5.614-.143-8.169-.387l-7.369 5.03c-1.244.85-.582 2.833.92 2.716 2.341-.182 4.503.18 5.25 1.877 1.888 4.292 3.934 1.402 9.325.021 2.358-.604 4.453-.006 6.063.858 1.148.616 2.467-.469 2.116-1.723z" fill="#fa759e"/><path d="m110.542 45.233c-4.005-1.471-6.213 10.955-15.443 11.594-4.669.323-9.457-4.134-15.858-7.86-3.889-2.264-7.585-3.542-10.523-4.264-3.819 7.855-11.875 13.271-21.196 13.271-5.377 0-10.331-1.805-14.296-4.838-2.69 3.674-5.228 8.634-6.179 14.947-1.894 12.572 5.673 33.575 42.763 33.575 25.779 0 40.243-17.229 44.191-33.468 2.406-9.899.173-21.623-3.459-22.957z" fill="#ffd7e5"/><path d="m23.966 34.417c0-1.833.216-3.614.612-5.327-3.884.321-10.626.367-13.642-2.703-.703-.716-1.944-.174-1.949.829-.026 4.889 2.123 12.85 16.001 14.078-.663-2.175-1.022-4.484-1.022-6.877z" fill="#fa759e"/><path d="m24.909 41.014c-.611.482-1.382.988-2.275 1.321-2.84 1.058-6.08 1.15-5.91 2.532.216 1.753 3.064 3.438 6.321 3.961 1.96.315 4.094.142 5.76-.115-1.741-2.276-3.074-4.878-3.896-7.699z" fill="#fa759e"/><path d="m65.064 63.54c5.273 2.99 13.191 11.449 25.692 7.218 1.356-.459 2.668.718 2.319 2.107-.779 3.095-2.555 7.483-6.506 9.036-.741.291-1.19 1.026-1.119 1.819.221 2.481-.392 7.193-8.723 5.545-.439-.087-.894-.023-1.276.211-3.253 1.997-20.756 10.223-16.81-23.29.267-2.268 3.543-4.278 6.423-2.646z" fill="#fff"/><path d="m65.064 66.657c5.273 2.99 13.191 11.449 25.692 7.218 1.356-.459 2.668.718 2.319 2.107-.779 3.095-2.555 7.483-6.506 9.036-.741.291-1.19 1.026-1.119 1.819.221 2.481-.392 7.193-8.723 5.545-.439-.087-.894-.023-1.276.211-3.253 1.997-20.756 10.223-16.81-23.29.267-2.268 3.543-4.278 6.423-2.646z" fill="#fa759e"/><ellipse cx="47.522" cy="34.417" fill="#ffd7e5" rx="23.557" ry="23.557" transform="matrix(.987 -.16 .16 .987 -4.899 8.057)"/><g fill="#3a2c60"><path d="m110.887 44.295c-2.445-.902-4.114 1.442-6.048 4.152-2.242 3.142-5.032 7.052-9.809 7.382-3.047.213-6.391-1.997-10.27-4.557-1.584-1.045-3.223-2.125-5.016-3.169-3.044-1.772-6.287-3.111-9.641-4.041 1.27-2.963 1.976-6.223 1.976-9.645 0-2.965-.523-5.864-1.555-8.617-.194-.518-.77-.777-1.288-.586-.517.194-.779.771-.585 1.287.947 2.528 1.428 5.191 1.428 7.916 0 12.438-10.119 22.557-22.557 22.557s-22.556-10.12-22.556-22.557 10.118-22.557 22.556-22.557c3.756 0 7.474.941 10.751 2.722.486.263 1.093.082 1.356-.401.264-.485.084-1.093-.401-1.356-3.569-1.938-7.617-2.964-11.706-2.964-11.372 0-20.961 7.772-23.741 18.283-5.806.389-10.208-.498-12.132-2.458-.606-.617-1.487-.796-2.303-.464-.821.333-1.354 1.114-1.359 1.989-.025 4.607 1.76 12.212 13.176 14.544-.547.159-1.091.302-1.597.428-1.995.494-4.057 1.005-3.835 2.808.305 2.462 3.83 4.291 7.155 4.825.763.122 1.586.184 2.463.184.944 0 1.964-.087 3.029-.229 1.045 1.301 2.216 2.496 3.5 3.56-3.057 4.415-5.023 9.319-5.819 14.602-1.14 7.569 1.239 15.643 6.365 21.598 2.971 3.452 7.781 7.284 15.448 9.912l-4.545 2.349c-.888.459-1.339 1.427-1.124 2.408.212.966 1.015 1.644 1.997 1.688 1.214.054 2.72.314 3.003 1.256 1.038 3.446 3.214 2.852 5.321 2.273.237-.065.492-.132.749-.198.494.55 1.212.858 1.997.796 1.63-.127 3.689-.008 4.256 1.282.952 2.163 2.108 2.843 3.381 2.843 1.05 0 2.178-.463 3.336-.938 1.071-.438 2.286-.937 3.772-1.317 1.751-.448 3.549-.191 5.342.77.884.476 1.921.379 2.707-.251.784-.628 1.115-1.657.845-2.622l-2.117-7.558c22.652-2.851 34.685-19.42 38.18-33.798 2.455-10.097.355-22.501-4.085-24.131zm-100.9-17.073c0-.089.07-.131.112-.147.026-.011.046-.015.063-.015.034 0 .051.018.062.027 2.869 2.923 8.474 3.346 13.114 3.091-.003.019-.004.038-.007.057-.112.651-.2 1.31-.26 1.977-.007.075-.011.15-.017.226-.052.654-.087 1.313-.087 1.98 0 .458.015.912.04 1.364.008.14.022.279.032.418.023.315.048.63.083.942.018.16.04.319.061.479.038.292.08.583.129.872.028.165.057.33.089.494.054.285.113.567.177.848.023.102.04.206.064.308-11.289-1.473-13.683-7.779-13.655-12.921zm17.029 20.701c-1.418.121-2.715.095-3.812-.082-2.962-.476-5.194-1.922-5.466-2.982.348-.249 1.471-.527 2.309-.734.908-.226 1.938-.48 2.936-.853.462-.172.926-.396 1.386-.671.01.028.022.055.032.083.152.424.312.843.487 1.256.044.104.093.205.138.308.134.306.272.611.418.91.1.205.207.406.312.609.096.184.193.367.294.548.123.222.25.442.38.661.091.151.184.301.278.45.104.164.2.334.308.497zm24.98 59.565c-2.221.608-2.402.658-2.877-.921-.499-1.658-2.125-2.559-4.83-2.678-.042-.002-.107-.005-.132-.119-.031-.14.056-.185.088-.201l6.335-3.274c.139.039.287.072.427.109.534.145 1.076.286 1.634.419.192.045.389.087.583.131.529.12 1.07.235 1.621.345.146.029.291.059.439.087.722.138 1.462.265 2.221.383.027.004.055.008.082.012.416.064.834.127 1.262.185l-5.14 3.509c-.641.438-1.013 1.115-1.073 1.844-.222.057-.441.115-.64.169zm24.988 2.832c.08.284-.092.46-.17.522-.09.073-.277.176-.511.049-2.249-1.204-4.53-1.521-6.784-.944-1.621.415-2.959.964-4.035 1.404-2.691 1.104-3.176 1.302-4.127-.859-.736-1.673-2.455-2.518-5.117-2.518-.358 0-.733.016-1.125.046-.309.015-.418-.186-.462-.311-.039-.111-.099-.391.184-.583l7.061-4.82c.915.084 1.858.152 2.822.206.292.019.586.032.879.047.334.015.674.027 1.013.039.896.035 1.798.053 2.702.054.166.001.328.005.495.005.248 0 .487-.012.732-.016.411-.008.821-.01 1.235-.026 1.017-.034 2.021-.086 3-.171zm36.046-42.367c-3.667 15.087-17.187 32.704-43.219 32.704-16.468 0-28.872-4.299-35.871-12.432-4.75-5.52-6.957-12.994-5.903-19.994.745-4.947 2.566-9.548 5.417-13.69.073.051.15.094.224.145.381.261.769.513 1.165.753.206.125.415.241.624.359.245.138.492.273.742.403.299.156.6.307.904.45.311.146.624.289.942.422.263.11.528.213.794.313.231.088.465.17.699.25.366.126.735.244 1.107.352.309.09.62.177.933.255.232.058.465.111.699.162.38.083.763.156 1.149.221.177.029.353.06.531.086.469.068.943.121 1.421.162.157.013.314.026.471.036.55.037 1.103.063 1.663.063.509 0 1.013-.021 1.515-.051.176-.011.35-.026.525-.04.319-.026.635-.059.951-.097.216-.026.432-.051.647-.083.225-.034.448-.075.672-.115.607-.106 1.208-.233 1.8-.383.009-.002.018-.004.026-.006 6.457-1.643 11.98-5.849 15.305-11.828.052-.094.108-.185.159-.279.04-.074.086-.145.125-.22 3.306.887 6.496 2.218 9.491 3.961 1.745 1.016 3.359 2.08 4.921 3.11 4.181 2.757 7.788 5.145 11.508 4.883 5.718-.396 8.944-4.916 11.299-8.216 1.691-2.37 2.781-3.791 3.731-3.438 2.806 1.032 5.219 11.964 2.833 21.782z"/><path d="m90.435 69.81c-9.697 3.282-16.558-1.488-21.569-4.971-1.176-.818-2.288-1.591-3.309-2.17-1.637-.926-3.541-.97-5.226-.117-1.488.754-2.517 2.102-2.683 3.517-1.605 13.631.128 22.17 5.15 25.38 1.576 1.008 3.287 1.373 4.939 1.373 4.014-.001 7.685-2.154 8.237-2.494.154-.093.352-.124.559-.081 3.715.731 6.458.337 8.148-1.182 1.72-1.546 1.909-3.809 1.765-5.434-.031-.352.165-.673.489-.8 4.278-1.683 6.228-6.216 7.109-9.723.252-1.005-.046-2.02-.798-2.714-.75-.693-1.827-.916-2.811-.584zm1.67 2.811c-.768 3.052-2.415 6.979-5.902 8.35-.296.116-.562.279-.792.476-.065-.088-.136-.173-.231-.239l-3.177-2.184c-.454-.313-1.077-.197-1.391.258-.313.455-.197 1.078.258 1.391l3.177 2.184c.14.096.296.141.454.159-.05.256-.071.522-.047.794.104 1.171-.004 2.774-1.11 3.769-1.179 1.061-3.401 1.304-6.423.707-.243-.049-.485-.055-.724-.042l-.736-3.254c-.122-.538-.658-.874-1.196-.755-.539.122-.876.657-.755 1.196l.8 3.539c-1.726.915-6.726 3.166-10.436.795-4.261-2.724-5.727-10.837-4.241-23.461.088-.747.716-1.519 1.601-1.967.514-.261 1.061-.391 1.605-.391.594 0 1.186.155 1.73.464.941.534 2.016 1.281 3.154 2.071 5.057 3.516 12.699 8.828 23.352 5.224.424-.145.71.064.813.16.101.091.32.348.217.756z"/><path d="m67.069 23.151c.185.321.521.5.867.5.17 0 .342-.043.499-.134.479-.276.642-.889.366-1.366-1.566-2.712-3.608-5.072-6.069-7.016-.434-.341-1.062-.268-1.404.165-.342.434-.269 1.063.165 1.405 2.26 1.786 4.137 3.955 5.576 6.446z"/><path d="m31.394 29.251c0 2.4 1.946 4.346 4.346 4.346s4.346-1.946 4.346-4.346-1.946-4.346-4.346-4.346-4.346 1.945-4.346 4.346z"/></g></svg>