<svg id="Layer_1" enable-background="new 0 0 128 128" height="512" viewBox="0 0 128 128" width="512" xmlns="http://www.w3.org/2000/svg"><path d="m121.284 92.987c-.033-.015-3.332-1.492-7.282-5.624-5.355-5.589-8.541-13.062-8.972-21.052-.059-.962-.073-1.948-.041-2.934l.383-12.249 1.256 1.175c.521.486 1.298.516 1.852.069.552-.444.688-1.209.326-1.818-1.413-2.373-2.937-5.431-4.136-7.96l3.161.102c.709.028 1.28-.437 1.424-1.116.144-.68-.207-1.337-.852-1.598-1.778-.719-3.295-1.695-4.498-2.634 1.38-.168 3.057-.369 4.502-.472.647-.046 1.166-.503 1.289-1.139.124-.634-.185-1.251-.767-1.535-4.399-2.144-10.749-5.801-11.977-6.512-.167-.097-.326-.197-.486-.307l-1.456-.993c-1.21-1.234-2.513-2.36-3.873-3.347-.447-.324-2.503-1.631-2.987-1.897-.968-.535-1.985-1.021-3.023-1.443-.786-.319-1.596-.606-2.407-.852-.53-.16-3.377-.802-3.923-.884-9.477-1.42-19.033 2.04-25.578 9.255-1.61 1.779-3.486 4.263-5.391 7.238l-17.378-3.897c-.943-.293-10.238-2.658-20.729 14.257-.829 1.336-.792 3.132.084 4.179.611.73 1.545.965 2.431.609.301-.12.627-.238.963-.353-.338 1.457.462 2.904 1.667 2.425 3.065-1.219 7.443-2.197 12.361-.957l11.326 3.959c-.999 3.406-1.76 6.928-2.134 10.489-1.317 12.505 2.128 22.586 10.243 29.962 5.877 5.342 12.17 8.669 18.519 10.553 2.577 3.159 6.903 7.653 10.662 7.653.154 0 .308-.007.461-.022 2.385-.244 3.993-2.708 5.07-5.621 21.414-.615 39.788-12.775 40.069-12.964.302-.204.469-.557.436-.919-.034-.364-.261-.679-.595-.826z" fill="#e6e7e8"/><path d="m61.832 100.877c2.533 3.117 6.944 7.794 10.369 7.444 2.064-.211 3.478-2.67 4.429-5.522-4.842.069-9.833-.477-14.798-1.922z" fill="#fa759e"/><path d="m44.283 31.587-18.093-4.057s-9.082-3.173-19.62 13.817c-1.034 1.667-.163 3.913 1.296 3.332 3.064-1.219 7.443-2.197 12.361-.957l15.806 5.525c2.122-6.609 5.16-12.737 8.25-17.66z" fill="#fff"/><path d="m43.043 33.637-13.853-3.107s-9.082-3.173-19.62 13.817c-1.034 1.667-.163 3.913 1.296 3.332 3.064-1.219 7.443-2.197 12.361-.957l12.269 4.289c1.863-6.378 4.625-12.379 7.547-17.374z" fill="#ffd7e5"/><path d="m100.389 46.575c.018-.588.005-1.174-.027-1.758l2.949 2.757c.348.325.879-.097.635-.506-1.681-2.824-3.502-6.563-4.874-9.524l4.79.155c.458.015.591-.616.166-.788-2.911-1.178-5.144-2.997-6.496-4.3 1.172-.092 4.314-.554 6.806-.731.42-.03.532-.592.153-.776-4.403-2.146-10.647-5.739-12.04-6.546-.189-.109-.368-.223-.549-.346l-1.538-1.049c-2.528-2.598-5.683-4.931-9.613-6.532-10.706-4.354-23.024-1.296-30.79 7.264-6.21 6.862-14.94 22.052-16.55 37.381l.754 1.135c.702 1.059 2.132 1.331 3.183.625l2.776-1.883c.753-.508 1.729-.528 2.488-.057l4.867 3.015c.799.495 1.836.448 2.587-.128l3.658-2.76c.894-.683 2.15-.607 2.966.162l.915.874c1.466 1.399 3.685 1.649 5.426.611l2.673-1.595c.955-.569 2.17-.375 2.893.456l2.597 2.966c.747.845 2.005 1.023 2.956.407l3.77-2.428c.906-.583 2.096-.454 2.855.311l2.237 2.252c.812.81 2.092.901 3.007.22l3.2-2.409c.93-.705 2.24-.594 3.033.247l1.499 1.575c.838.892 2.22.959 3.149.166l3.127-2.662c-.062-1.013-.075-2.017-.042-3.026z" fill="#fff"/><path d="m116.881 89.902s-42.497 28.712-73.547.491c-8.771-7.973-11.032-18.571-9.921-29.117l.754 1.135c.702 1.059 2.132 1.331 3.183.625l2.776-1.883c.753-.508 1.729-.528 2.488-.057l4.867 3.015c.799.495 1.836.448 2.587-.128l3.658-2.76c.894-.683 2.15-.607 2.966.162l.915.874c1.465 1.4 3.687 1.649 5.425.611l2.674-1.596c.955-.569 2.17-.375 2.893.456l2.597 2.966c.747.845 2.005 1.023 2.956.407l3.77-2.428c.91-.586 2.098-.452 2.86.315l2.232 2.248c.812.81 2.092.901 3.007.22l3.2-2.409c.93-.705 2.24-.594 3.033.247l1.499 1.575c.838.892 2.22.959 3.149.166l3.127-2.662c.435 8.066 3.621 15.81 9.248 21.682 4.136 4.321 7.604 5.845 7.604 5.845z" fill="#0089ef"/><g fill="#3a2c60"><path d="m78.143 16.767c.752.228 1.504.494 2.233.79.966.394 1.912.845 2.81 1.341.153.085.319.125.482.125.353 0 .694-.187.876-.517.267-.483.091-1.092-.392-1.358-.967-.534-1.984-1.02-3.023-1.443-.786-.319-1.596-.606-2.407-.852-.53-.16-1.087.139-1.247.667s.14 1.086.668 1.247z"/><path d="m117.286 88.987c-.033-.015-3.36-1.521-7.284-5.624-5.355-5.589-8.541-13.062-8.972-21.052-.061-.98-.074-1.939-.041-2.934l.382-12.249 1.256 1.175c.52.486 1.299.516 1.852.069.552-.444.688-1.209.326-1.818-1.417-2.381-2.939-5.436-4.136-7.96l3.161.102c.705.049 1.281-.437 1.424-1.116s-.207-1.337-.852-1.598c-1.778-.719-3.296-1.695-4.498-2.635 1.38-.167 3.057-.368 4.503-.471.647-.046 1.166-.503 1.289-1.139.123-.635-.185-1.251-.767-1.535-4.399-2.144-10.748-5.801-11.977-6.512-.167-.097-.326-.197-.486-.307l-1.456-.992c-1.209-1.235-2.512-2.361-3.872-3.348-.446-.323-1.072-.224-1.396.223s-.225 1.072.223 1.396c1.294.938 2.534 2.014 3.683 3.195.047.048.098.091.153.129l1.538 1.049c.201.137.401.263.612.385 1.074.622 6.037 3.481 10.246 5.647-.943.1-1.88.214-2.702.313-.87.106-1.599.195-2.042.23-.392.031-.729.289-.862.66-.133.37-.036.784.248 1.057 1.008.973 2.472 2.205 4.319 3.279l-2.053-.066c-.339-.021-.674.158-.866.447-.191.289-.219.657-.074.972.84 1.814 1.944 4.124 3.099 6.329l-.219-.205c-.298-.278-.737-.35-1.106-.176-.37.173-.598.553-.576.961.033.607.042 1.154.025 1.672l-.398 12.773c-.035 1.056-.021 2.076.043 3.113.457 8.46 3.839 16.387 9.524 22.319 2.568 2.687 4.888 4.327 6.345 5.215-7.586 4.563-43.933 24.199-70.896-.309-7.616-6.922-10.846-16.434-9.598-28.271 1.64-15.609 10.645-30.568 16.296-36.813 6.095-6.718 14.996-9.939 23.799-8.619.548.071 1.056-.295 1.137-.841.082-.546-.294-1.056-.84-1.138-9.467-1.417-19.032 2.041-25.579 9.255-1.61 1.779-3.485 4.263-5.39 7.238l-17.378-3.897c-.943-.294-10.241-2.661-20.733 14.255-.828 1.336-.792 3.132.085 4.179.612.729 1.545.964 2.431.609 2.721-1.082 6.966-2.123 11.662-.941l14.891 5.206c-1.12 3.654-1.966 7.455-2.37 11.298-1.318 12.505 2.128 22.586 10.243 29.962 5.878 5.343 12.172 8.67 18.522 10.553 2.574 3.158 6.896 7.653 10.659 7.653.154 0 .309-.007.461-.022 2.384-.244 3.99-2.708 5.067-5.621 21.415-.614 39.79-12.775 40.071-12.964.301-.204.467-.556.435-.917-.032-.363-.259-.679-.591-.828zm-91.426-60.512c.036.013.073.023.111.031l16.743 3.754c-1.65 2.739-3.286 5.824-4.763 9.161-3.753-1.004-14.266-3.815-17.559-4.679-3.479-.914-10.023 3.231-13.077 5.358.034-.075.058-.15.104-.225 9.912-15.979 18.366-13.424 18.441-13.4zm-5.388 14.278c-1.69-.426-3.317-.6-4.85-.6-2.322 0-4.421.402-6.198.929 3.656-2.43 8.381-4.946 10.461-4.407 3.219.845 13.323 3.547 17.276 4.604-.628 1.522-1.212 3.09-1.752 4.69zm51.627 64.573c-2.156.231-5.06-2.172-7.486-4.768 3.565.775 7.127 1.13 10.623 1.159-.828 2.027-1.875 3.48-3.137 3.609z"/><path d="m65.061 32.278c.458 0 .871-.316.975-.781.121-.539-.218-1.073-.757-1.194l-13.922-3.121c-.534-.118-1.073.219-1.194.757-.121.539.218 1.073.757 1.194l6.611 1.482c-.19.118-.383.226-.561.371-2.224 1.818-2.553 5.094-.735 7.318s5.094 2.553 7.318.735c2.072-1.694 2.474-4.643 1.053-6.838l.236.053c.073.017.146.024.219.024z"/><path d="m61.227 89.621c5.159 3.27 12.874 4.203 20.005 4.202 1.634 0 3.235-.051 4.77-.132.082.021.166.034.25.034.117 0 .231-.028.341-.068 6.771-.398 12.084-1.392 12.56-1.483.542-.104.897-.628.793-1.171-.104-.542-.628-.893-1.17-.794-.064.012-1.731.324-4.358.668l-20.772-12.863c-.47-.291-1.086-.146-1.376.324-.291.47-.146 1.086.324 1.377l18.626 11.537c-1.474.151-3.104.288-4.823.387l-18.815-11.655c-.468-.291-1.086-.146-1.376.324-.291.47-.146 1.086.324 1.377l16.296 10.093c-7.279.145-15.398-.597-20.527-3.847-7.47-4.733-6.928-10.127-6.696-12.43l.038-.392c.286-3.419 2.921-6.114 6.56-6.708 2.018-.331 3.529-.358 3.537-.328h.002c.551 0 .999-.446 1-.998s-.444-1-.997-1.002c-.064.005-1.696-.001-3.865.354-4.559.744-7.867 4.167-8.23 8.517l-.034.357c-.248 2.442-.9 8.926 7.613 14.32z"/></g></svg>