<svg id="Layer_1" enable-background="new 0 0 128 128" height="512" viewBox="0 0 128 128" width="512" xmlns="http://www.w3.org/2000/svg"><path d="m92.301 77.067c-.426-.872-1.004-1.59-1.613-2.156-.128-.429-.282-.859-.489-1.282-.832-1.705-2.164-2.918-3.362-3.567-.477-.847-.996-1.665-1.566-2.439-3.123-6.272-8.557-10.714-14.947-12.325v-13.836c8.111-1.883 8.116-3.526 8.116-4.352 0-.028-.014-.052-.016-.08.002-.028.016-.051.016-.08 0-.295-.005-.765-.466-1.356 2.015-2.432 3.225-5.44 3.225-8.707 0-.976-.109-1.954-.324-2.906-.275-1.221-.375-2.535-.303-4.018.034-.7-.08-1.405-.336-2.096-.546-1.466-1.752-2.655-3.227-3.182-1.083-.388-2.215-.419-3.305-.101-1.639-.893-4.269-1.805-6.267-2.434-.014-.004-.029-.006-.043-.01.192-1.448.984-4.73 4.233-5.091.549-.062.944-.556.883-1.104s-.562-.944-1.104-.884c-4.114.457-5.647 4.201-5.994 6.751-.879-.034-1.761.067-2.615.336-1.999.63-4.629 1.542-6.268 2.435-1.089-.319-2.221-.287-3.305.101-1.475.526-2.681 1.716-3.227 3.182-.257.69-.37 1.396-.336 2.096.072 1.482-.027 2.796-.303 4.018-.215.952-.324 1.931-.324 2.906 0 3.273 1.214 6.287 3.236 8.72-.382.5-.478.952-.478 1.342 0 .029.014.053.016.081-.002.027-.016.051-.016.078 0 .826.005 2.469 8.115 4.352v13.762c-2.286.543-4.491 1.443-6.523 2.699-.47.29-.615.906-.325 1.376.007.011.019.017.027.028-.504.344-.993.708-1.468 1.093-.008-.01-.01-.023-.019-.033-.367-.412-.999-.45-1.412-.084-1.375 1.221-2.616 2.61-3.689 4.132-.318.451-.21 1.075.241 1.394.007.005.016.007.024.012-.294.456-.57.924-.834 1.402-.008-.004-.013-.013-.022-.017-.494-.248-1.095-.045-1.341.448-.349.699-.668 1.424-.953 2.16-1.307.566-2.88 1.878-3.815 3.794-1.091 2.233-1.04 4.799-.331 6.189-.694 2.468-.215 5.138 1.097 5.778.329.16.771.242 1.323.058 0 .06-.001.12-.001.181 0 2.852.705 6.181 2.69 6.181.29 0 .64-.077.991-.34.323.47.666.926 1.028 1.366.238.523.523.844.831.928 1.741 1.869 3.843 3.425 6.228 4.597.945.717 1.963 1.345 3.035 1.898 0 .029-.003.058-.003.087 0 1.852.562 3.373 1.484 4.376v15.543c-2.609.323-4.533 1.9-4.533 3.853 0 2.619 2.939 2.619 5.533 2.619 2.593 0 5.533 0 5.533-2.619 0-.581-.169-1.138-.504-1.656v-.001c-.215-.332-.212-.732-.173-1.008.02-.134.03-.271.03-.411v-13.049c.945-.022 1.785-.514 2.376-1.392v14.441c0 .14.01.277.029.409.04.277.042.678-.172 1.01-.335.519-.505 1.076-.505 1.657 0 2.619 2.939 2.619 5.533 2.619s5.533 0 5.533-2.619c0-1.952-1.924-3.529-4.533-3.853v-12.302c1.677-.189 2.993-1.86 2.993-4.617 0-.513-.048-1.007-.133-1.476 4.729-1.385 8.728-4.152 11.372-8.07.3.84.699 1.356 1.137 1.356.934 0 2.659-2.319 2.659-5.18 0-1.284-.348-2.456-.815-3.361.058-.287.107-.579.154-.872.958 1.303 1.928 2.029 2.5 1.75.772-.377 1.28-2.811.38-5.2.586-.945.787-3.278-.263-5.428z" fill="#e6e7e8"/><path d="m67.318 117.409c-.006 0-.011 0-.016 0 .005-.054.016-.107.016-.162v-16.129c-1.495-.381-2.617-2.017-2.617-4.566 0-.162.006-.322.015-.481-.259.007-.517.021-.779.021-.17 0-.337-.008-.505-.014v21.17c0 .09.007.179.019.266.085.593.003 1.192-.322 1.696-.222.343-.344.719-.344 1.114 0 1.609 2.03 1.619 4.533 1.619s4.533-.01 4.533-1.619-2.03-2.915-4.533-2.915z" fill="#6dc9f7"/><path d="m85.301 70.067c-.963-1.972-2.697-3.208-3.832-3.494-2.696-7.341-8.751-12.87-16.145-14.466v2.586c0 1.753-1.435 3.188-3.188 3.188h-2.039c-1.754 0-3.188-1.435-3.188-3.188v-2.662c-7.57 1.494-13.786 7.101-16.519 14.58-1.134.347-2.769 1.562-3.694 3.456-1.123 2.3-.815 4.811-.137 5.609-.81 2.33-.309 4.654.444 5.022.485.237 1.258-.252 2.065-1.201-.116.703-.183 1.496-.183 2.338 0 2.861.757 5.181 1.69 5.181.396 0 .76-.421 1.048-1.121 2.63 4.543 6.97 7.716 12.189 9.214-.081.459-.127.942-.127 1.442 0 2.928 1.48 4.655 3.305 4.655s3.305-1.726 3.305-4.655c0-.161-.006-.321-.015-.479.219.005.435.018.655.018.262 0 .519-.013.779-.021-.009.159-.015.319-.015.481 0 2.928 1.48 4.655 3.305 4.655s3.305-1.726 3.305-4.655c0-.513-.048-1.007-.133-1.476 4.729-1.385 8.728-4.152 11.372-8.07.3.84.699 1.356 1.138 1.356.934 0 2.659-2.319 2.659-5.181 0-1.283-.348-2.456-.815-3.361.058-.287.107-.579.154-.872.958 1.303 1.928 2.029 2.5 1.75.772-.377 1.28-2.811.38-5.2.586-.946.787-3.279-.263-5.429z" fill="#fff"/><path d="m59.037 117.513c.013-.087.019-.176.019-.266v-16.975c-.567.597-1.279.934-2.064.934-.674 0-1.299-.238-1.821-.682v16.723c0 .055.012.108.016.162-.006 0-.011 0-.016 0-2.504 0-4.533 1.305-4.533 2.914s2.029 1.619 4.533 1.619 4.533-.01 4.533-1.619c0-.395-.123-.771-.344-1.114-.326-.503-.409-1.103-.323-1.696z" fill="#6dc9f7"/><path d="m85.301 70.067c-.963-1.972-2.697-3.208-3.832-3.494-2.696-7.341-8.751-12.87-16.145-14.466v2.586c0 1.753-1.435 3.188-3.188 3.188h-2.039c-1.754 0-3.188-1.435-3.188-3.188v-2.662c-7.57 1.494-13.786 7.101-16.519 14.58-1.134.347-2.769 1.562-3.694 3.456-1.123 2.3-.815 4.811-.137 5.609-.81 2.33-.309 4.654.444 5.022.485.237 1.258-.252 2.065-1.201-.116.703-.183 1.496-.183 2.338 0 2.861.757 5.181 1.69 5.181.396 0 .76-.421 1.048-1.121 2.63 4.543 6.97 7.716 12.189 9.214-.081.459-.127.942-.127 1.442 0 2.928 1.48 4.655 3.305 4.655s3.305-1.726 3.305-4.655c0-.161-.006-.321-.015-.479.219.005.435.018.655.018.262 0 .519-.013.779-.021-.009.159-.015.319-.015.481 0 2.928 1.48 4.655 3.305 4.655s3.305-1.726 3.305-4.655c0-.513-.048-1.007-.133-1.476 4.729-1.385 8.728-4.152 11.372-8.07.3.84.699 1.356 1.138 1.356.934 0 2.659-2.319 2.659-5.181 0-1.283-.348-2.456-.815-3.361.058-.287.107-.579.154-.872.958 1.303 1.928 2.029 2.5 1.75.772-.377 1.28-2.811.38-5.2.586-.946.787-3.279-.263-5.429z" fill="#fff"/><path d="m88.301 70.067c-.963-1.972-2.697-3.208-3.832-3.494-3.053-8.313-10.409-14.312-19.145-14.892v3.012c0 1.753-1.435 3.188-3.188 3.188h-2.039c-1.754 0-3.188-1.435-3.188-3.188v-1.837c-6.191 2.223-11.157 7.291-13.519 13.755-1.134.347-2.769 1.562-3.694 3.456-1.123 2.3-.815 4.811-.137 5.609-.81 2.33-.309 4.654.444 5.022.485.237 1.258-.252 2.065-1.201-.116.703-.183 1.496-.183 2.338 0 2.861.757 5.181 1.69 5.181.396 0 .76-.421 1.048-1.121 2.63 4.543 6.97 7.716 12.189 9.214-.081.459-.127.942-.127 1.442 0 2.928 1.48 4.655 3.305 4.655s3.305-1.726 3.305-4.655c0-.161-.006-.321-.015-.479.219.005.435.018.655.018.262 0 .519-.013.779-.021-.009.159-.015.319-.015.481 0 2.928 1.48 4.655 3.305 4.655s3.305-1.726 3.305-4.655c0-.513-.048-1.007-.133-1.476 4.729-1.385 8.728-4.152 11.372-8.07.3.84.699 1.356 1.138 1.356.934 0 2.659-2.319 2.659-5.181 0-1.283-.348-2.456-.815-3.361.058-.287.107-.579.154-.872.958 1.303 1.928 2.029 2.5 1.75.772-.377 1.28-2.811.38-5.2.586-.946.787-3.279-.263-5.429z" fill="#fa759e"/><path d="m63.61 37.021c-1.628.327-3.367.327-4.985 0-.524-.104-1.107-.226-1.715-.36v18.032c0 1.753 1.435 3.188 3.188 3.188h2.039c1.754 0 3.188-1.435 3.188-3.188v-18.032c-.608.134-1.191.256-1.715.36z" fill="#6dc9f7"/><path d="m75.573 15.916c.026-.539-.055-1.108-.275-1.698-.445-1.195-1.42-2.159-2.626-2.589-1.114-.398-2.163-.308-3.075.051-1.517-.929-4.473-1.946-6.462-2.574-1.317-.416-2.721-.416-4.038 0-1.989.628-4.944 1.644-6.462 2.574-.912-.359-1.961-.448-3.075-.051-1.206.43-2.181 1.394-2.626 2.589-.22.591-.301 1.16-.275 1.698.069 1.439-.009 2.88-.326 4.286-.196.868-.299 1.766-.299 2.686 0 7.487 6.752 13.557 15.082 13.557 8.329 0 15.082-6.07 15.082-13.557 0-.92-.103-1.818-.299-2.686-.317-1.406-.395-2.846-.326-4.286z" fill="#6dc9f7"/><path d="m73.441 33.11c0 1.716-6.224 3.197-9.831 3.911-1.628.328-3.367.328-4.985 0-3.607-.714-9.831-2.195-9.831-3.911z" fill="#fa759e"/><path d="m63.979 28.473c.035-.297.057-.603.057-.917 0-2.702-1.342-4.892-2.996-4.892-1.655 0-2.996 2.19-2.996 4.892 0 .327.021.645.059.953-3.653.873-9.308 2.531-9.308 4.441h24.647c-.001-1.937-5.818-3.614-9.463-4.477z" fill="#fa759e"/><g fill="#3a2c60"><path d="m43.316 62.012c.314 0 .624-.147.818-.424.984-1.396 2.122-2.67 3.382-3.788.413-.367.451-.999.084-1.412-.366-.413-.999-.45-1.412-.084-1.375 1.221-2.616 2.61-3.689 4.132-.318.451-.21 1.075.241 1.394.176.122.377.182.576.182z"/><path d="m86.648 75.567c.58-1.39.619-3.756-.448-5.938-.975-1.997-2.635-3.326-3.963-3.854-2.877-7.407-8.813-12.667-15.912-14.458v-13.855c8.111-1.883 8.116-3.525 8.116-4.352 0-.028-.014-.052-.016-.08.002-.028.016-.051.016-.08 0-.295-.005-.767-.469-1.359 2.017-2.43 3.227-5.437 3.227-8.704 0-.976-.109-1.954-.324-2.906-.275-1.221-.375-2.535-.303-4.019.033-.7-.08-1.405-.336-2.095-.545-1.467-1.752-2.656-3.226-3.182-1.084-.388-2.218-.419-3.306-.101-1.636-.891-4.267-1.804-6.266-2.435-.014-.004-.029-.006-.043-.01.193-1.448.984-4.729 4.233-5.09.549-.062.944-.556.883-1.104-.061-.55-.555-.946-1.104-.884-4.113.457-5.646 4.2-5.994 6.75-.879-.034-1.761.067-2.615.336-2 .632-4.631 1.544-6.267 2.436-1.089-.32-2.222-.286-3.305.1-1.475.526-2.682 1.716-3.227 3.183-.257.69-.37 1.396-.336 2.095.072 1.482-.027 2.797-.303 4.019-.215.952-.324 1.931-.324 2.906 0 3.273 1.215 6.285 3.239 8.717-.385.501-.481.954-.481 1.345 0 .028.014.052.016.08-.002.028-.016.051-.016.08 0 .826.005 2.469 8.115 4.351v13.785c-2.285.541-4.492 1.421-6.523 2.676-.47.29-.616.906-.325 1.376.29.471.906.617 1.376.325 1.384-.854 2.858-1.519 4.381-2.013-2.096 4.367-2.208 9.611-2.212 9.865-.009.552.432 1.006.984 1.016h.017c.544 0 .99-.438 1-.983.001-.051.094-4.042 1.466-7.724.484 1.778 2.096 3.097 4.026 3.097h2.04c1.926 0 3.535-1.314 4.022-3.087 1.151 3.484 1.232 7.018 1.232 7.066.009.546.455.983 1 .983h.017c.552-.01.993-.464.984-1.016-.004-.238-.102-4.883-1.852-9.065 5.845 2.046 10.642 6.759 12.991 13.155.114.311.374.545.695.625.762.191 2.299 1.166 3.177 2.963.946 1.937.664 3.896.312 4.468-.163.264-.194.587-.084.877.653 1.733.404 3.378.18 3.849-.235-.134-.703-.507-1.318-1.343-.238-.325-.651-.476-1.04-.38-.392.094-.688.414-.753.813-.045.279-.091.558-.147.831-.045.224-.013.455.091.658.454.879.704 1.91.704 2.902 0 2.157-1.1 3.759-1.556 4.116-.077-.113-.186-.313-.299-.629-.127-.354-.442-.608-.816-.655-.38-.04-.743.121-.954.433-2.475 3.668-6.218 6.32-10.825 7.67-.491.145-.794.635-.703 1.139.078.427.117.863.117 1.297 0 2.152-.948 3.655-2.306 3.655s-2.308-1.501-2.308-3.653c0-.143.005-.283.013-.422.017-.279-.085-.553-.28-.754-.195-.202-.475-.304-.745-.305l-.268.009c-.282.01-.563.014-.845.002l-.271-.009c-.297.018-.547.104-.741.305-.194.2-.295.473-.28.751.008.14.014.28.014.423 0 2.152-.948 3.655-2.305 3.655s-2.306-1.503-2.306-3.655c0-.42.038-.846.112-1.268.089-.504-.217-.994-.709-1.135-5.053-1.451-9.172-4.561-11.6-8.755-.191-.33-.55-.513-.933-.497-.38.025-.712.265-.857.617-.046.111-.089.202-.128.275-.305-.581-.686-1.957-.686-3.954 0-.762.057-1.493.17-2.175.073-.443-.158-.881-.566-1.07-.407-.188-.891-.083-1.182.259-.404.475-.711.718-.895.83-.238-.516-.503-1.963.091-3.675.117-.334.047-.705-.182-.976-.368-.433-.718-2.493.273-4.522.84-1.72 2.307-2.699 3.087-2.938.3-.092.539-.318.647-.613.298-.814.643-1.618 1.027-2.388.247-.494.045-1.095-.449-1.341-.494-.249-1.095-.046-1.341.448-.349.699-.668 1.425-.953 2.161-1.307.566-2.88 1.878-3.815 3.794-1.091 2.233-1.04 4.799-.331 6.189-.694 2.467-.215 5.136 1.098 5.778.329.16.77.242 1.321.057 0 .061-.001.121-.001.182 0 2.852.705 6.181 2.69 6.181.29 0 .64-.077.991-.34 2.593 3.775 6.484 6.622 11.148 8.143-.02.245-.029.489-.029.732 0 1.852.562 3.374 1.484 4.377v15.542c-2.609.324-4.533 1.9-4.533 3.854 0 2.618 2.939 2.618 5.533 2.618 2.593 0 5.533 0 5.533-2.618 0-.582-.17-1.14-.504-1.657-.215-.332-.212-.733-.173-1.009.02-.134.03-.271.03-.41v-16.049c-.022 0-.042.008-.064.008-.137 0-.272-.01-.404-.03.634-.59 1.124-1.404 1.411-2.397.291 1.005.788 1.829 1.434 2.42v16.049c0 .139.01.276.029.408.04.277.042.679-.172 1.01-.335.518-.505 1.075-.505 1.658 0 2.618 2.939 2.618 5.533 2.618s5.533 0 5.533-2.618c0-1.953-1.924-3.529-4.533-3.854v-15.302c-.104.012-.205.037-.312.037-.139 0-.275-.012-.408-.034 1.064-.988 1.714-2.616 1.714-4.621 0-.257-.011-.515-.032-.771 4.16-1.376 7.643-3.759 10.184-6.963.424.427.866.545 1.226.545 1.813 0 3.659-3.119 3.659-6.181 0-.564-.058-1.09-.15-1.569.51.198.992.198 1.428-.015 1.385-.676 1.833-3.472 1.023-6.029zm-28.314-46.084c.495-.118.822-.589.76-1.094-.033-.27-.051-.547-.051-.832 0-2.228 1.054-3.893 1.996-3.893s1.997 1.665 1.997 3.893c0 .274-.02.541-.05.802-.059.504.269.972.763 1.088 4.018.951 6.28 1.846 7.482 2.505h-20.235c1.113-.625 3.249-1.492 7.338-2.469zm-11.024-9.061c.315-1.399.43-2.889.35-4.554-.021-.428.051-.866.213-1.302.342-.92 1.098-1.666 2.025-1.996.377-.135.756-.202 1.135-.202.414 0 .828.081 1.237.242.292.114.622.087.889-.078 1.093-.67 3.31-1.548 6.241-2.474 1.123-.354 2.31-.354 3.436.001 2.931.925 5.147 1.803 6.24 2.473.268.165.598.192.889.078.783-.31 1.582-.323 2.372-.039.926.329 1.683 1.075 2.024 1.995.162.435.233.873.213 1.302-.08 1.665.035 3.155.35 4.554.183.809.275 1.639.275 2.467 0 2.793-1.04 5.368-2.778 7.454-1.351-.797-3.598-1.699-7.387-2.643.001-.047.001-.096.001-.144 0-.15-.008-.296-.015-.443.493-.3.786-.657.786-1.046 0-.493-.47-.936-1.225-1.272-.661-1.876-1.984-3.131-3.543-3.131-1.582 0-2.918 1.292-3.57 3.213-.648.326-1.042.737-1.042 1.19 0 .346.234.668.634.947-.011.179-.018.359-.018.542 0 .062 0 .122.002.183-3.653.918-5.881 1.798-7.233 2.602-1.737-2.086-2.776-4.66-2.776-7.453 0-.827.093-1.657.275-2.466zm23.301 13.688c-1.383.551-3.656 1.229-7.2 1.93-1.505.304-3.093.304-4.593-.001-3.57-.706-5.85-1.389-7.227-1.929zm-8.474 22.771h-2.04c-1.207 0-2.188-.981-2.188-2.188v-16.797c.172.035.339.07.517.105.878.178 1.783.267 2.688.267.904 0 1.81-.089 2.69-.266.179-.035.348-.071.521-.106v13.428c-.062.196-.064.4 0 .601v2.769c0 1.205-.982 2.187-2.188 2.187zm-6.966 64.06c-2.002 0-3.533-.046-3.533-.618 0-.905 1.449-1.914 3.546-1.914.293-.02.547-.116.738-.322.189-.205.284-.479.262-.758l-.009-15.218c.263.056.534.095.817.095.374 0 .726-.065 1.064-.162v15.203c0 .041-.003.081-.009.123-.127.884.036 1.707.472 2.382.122.188.184.381.184.571 0 .573-1.531.618-3.532.618zm15.68-.618c0 .572-1.531.618-3.533.618s-3.533-.046-3.533-.618c0-.193.06-.38.185-.571.436-.675.6-1.498.472-2.384-.005-.04-.008-.08-.008-.121v-15.091c.187.027.376.05.573.05.469 0 .901-.104 1.312-.255v15.261c-.002.016-.011.092-.013.108-.026.295.084.586.293.796.195.196.469.291.74.292 2.071.007 3.512 1.013 3.512 1.915z"/><circle cx="53.918" cy="20.106" r="2.514"/><circle cx="68.32" cy="20.106" r="2.514"/></g></svg>