<svg id="Layer_1" enable-background="new 0 0 128 128" height="512" viewBox="0 0 128 128" width="512" xmlns="http://www.w3.org/2000/svg"><path d="m89.706 58.419c.533-1.299.564-3.491-.423-5.51-.901-1.846-2.434-3.079-3.667-3.577-2.584-6.633-7.819-11.41-14.114-13.208v-4.445c5.428-.823 9.672-7.894 9.672-13.46 0-4.793-3.148-8.85-7.489-10.22-1.977-1.53-4.449-2.451-7.136-2.451-6.448 0-11.694 5.246-11.694 11.694 0 4.558 2.508 9.768 6.202 12.54v6.13c-6.651 1.624-12.21 6.549-14.888 13.478-1.213.533-2.665 1.749-3.529 3.519-1.01 2.066-.966 4.441-.315 5.745-.656 2.328-.207 4.768 1.047 5.382.3.145.698.225 1.19.077v.094c0 2.658.665 5.761 2.539 5.761.265 0 .582-.067.903-.291 2.394 3.463 5.969 6.077 10.251 7.481-.016.214-.024.427-.024.638 0 1.715.518 3.126 1.37 4.063v38.448c-2.413.316-4.186 1.787-4.186 3.606 0 2.472 2.743 2.472 5.163 2.472s5.164 0 5.164-2.472c0-.547-.159-1.071-.473-1.558-.001 0-.001-.001-.001-.001-.19-.293-.187-.649-.151-.897.017-.125.027-.254.027-.385v-26.079c.325-.104.632-.275.889-.533l.621-.621v.519c0 1.59 1.293 2.883 2.883 2.883.012 0 .023-.003.035-.004.012 0 .023.004.035.004.165 0 .325-.021.481-.056 1.327-.258 2.332-1.426 2.332-2.827v-.519l.621.621c.865.866 2.272.864 3.137 0 .865-.865.865-2.272 0-3.137l-3.758-3.758v-5.813c.793-.937 1.27-2.308 1.27-3.957 0-.224-.009-.45-.027-.675 3.814-1.269 7.011-3.455 9.354-6.388.39.371.795.476 1.126.476 1.701 0 3.434-2.908 3.434-5.761 0-.49-.047-.947-.122-1.368.562.19.993.089 1.272-.047 1.299-.633 1.726-3.233.979-5.613zm-24.561 23.188c.342-.443.623-.965.817-1.57.17.531.408.997.694 1.405v6.123l-1.511 1.511z" fill="#e6e7e8"/><path d="m65.754 78.185c-.783 0-1.49-.357-2.03-.996v13.26c0 1.052.853 1.906 1.906 1.906s1.906-.853 1.906-1.906v-12.992c-.503.47-1.115.728-1.782.728z" fill="#ffd7e5"/><path d="m60.242 117.408c.012-.08.018-.162.018-.246v-39.839c-.524.552-1.181.863-1.906.863-.622 0-1.199-.22-1.682-.63v39.607c0 .051.011.1.015.15-.005 0-.01-.001-.015-.001-2.312 0-4.186 1.205-4.186 2.691s1.874 1.495 4.186 1.495 4.186-.009 4.186-1.495c0-.365-.113-.712-.318-1.029-.301-.465-.377-1.018-.298-1.566z" fill="#ffd7e5"/><path d="m84.497 49.429c-.89-1.821-2.491-2.963-3.539-3.227-2.968-8.081-10.336-13.806-18.962-13.806-8.638 0-16.015 5.742-18.975 13.841-1.047.32-2.557 1.443-3.411 3.192-1.037 2.124-.752 4.443-.126 5.18-.748 2.152-.285 4.298.41 4.638.448.219 1.161-.233 1.907-1.109-.107.649-.169 1.381-.169 2.159 0 2.642.699 4.784 1.561 4.784.366 0 .702-.389.968-1.035 2.429 4.196 6.437 7.126 11.257 8.51-.075.424-.117.87-.117 1.332 0 2.704 1.367 4.298 3.053 4.298s3.053-1.594 3.053-4.298c0-.149-.006-.296-.014-.442.202.005.401.017.605.017.242 0 .479-.012.719-.019-.008.147-.014.294-.014.444 0 2.704 1.367 4.298 3.053 4.298s3.053-1.594 3.053-4.298c0-.474-.044-.93-.122-1.363 4.368-1.279 8.06-3.834 10.502-7.453.277.776.645 1.252 1.05 1.252.862 0 2.456-2.142 2.456-4.784 0-1.185-.322-2.268-.753-3.104.054-.265.099-.535.142-.805.885 1.204 1.781 1.874 2.309 1.616.713-.348 1.182-2.596.351-4.802.537-.876.723-3.031-.247-5.016z" fill="#fa759e"/><path d="m62.641 2.616c-5.919 0-10.716 4.798-10.716 10.717 0 5.918 4.798 13.543 10.716 13.543s10.717-7.624 10.717-13.543c-.001-5.919-4.799-10.717-10.717-10.717z" fill="#fff"/><path d="m66.55 3.594c-5.919 0-10.717 4.798-10.717 10.717 0 5.918 4.798 13.543 10.717 13.543s10.717-7.624 10.717-13.543c-.001-5.92-4.799-10.717-10.717-10.717z" fill="#fa759e"/><path d="m62.641 14.538c-2.196 0-3.976 1.332-3.976 2.975s1.78 3.76 3.976 3.76 3.976-2.117 3.976-3.76-1.78-2.975-3.976-2.975z" fill="#ffd7e5"/><path d="m62.372 17.777c-2.345 0-4.245 1.901-4.245 4.245v14.193c0 2.345 1.901 10.98 4.245 10.98s4.245-8.635 4.245-10.98v-14.193c0-2.344-1.901-4.245-4.245-4.245z" fill="#ffd7e5"/><path d="m71.58 88.106-5.002-5.002c-.26-.261-.608-.376-.949-.357-.341-.02-.688.096-.949.357l-5.002 5.002c-.485.485-.485 1.27 0 1.755s1.27.485 1.755 0l3.025-3.025v4.279c0 .685.556 1.241 1.241 1.241s1.241-.556 1.241-1.241v-4.136l2.883 2.883c.485.485 1.27.485 1.755 0 .487-.486.487-1.272.002-1.756z" fill="#ffd7e5"/><g fill="#3a2c60"><path d="m85.395 48.99c-.901-1.846-2.434-3.081-3.67-3.584-2.584-6.631-7.816-11.406-14.108-13.209v-5.956c3.985-2.659 6.74-8.133 6.74-12.908 0-6.461-5.256-11.717-11.717-11.717-6.46 0-11.716 5.256-11.716 11.717 0 4.559 2.508 9.765 6.202 12.543v6.109c-6.647 1.63-12.203 6.552-14.883 13.478-1.216.537-2.668 1.756-3.532 3.526-1.011 2.067-.968 4.444-.319 5.757-.654 2.337-.199 4.784 1.063 5.398.299.147.694.224 1.177.089v.063c0 2.669.671 5.785 2.561 5.785.264 0 .579-.065.897-.283 2.395 3.454 5.962 6.062 10.233 7.466-.015.208-.022.416-.022.623 0 1.718.518 3.132 1.37 4.073v38.417c-2.414.323-4.187 1.8-4.187 3.626 0 2.495 2.756 2.495 5.187 2.495s5.187 0 5.187-2.495c0-.544-.165-1.088-.479-1.572-.186-.286-.183-.638-.148-.878.019-.127.029-.257.029-.391v-26.076c.326-.102.633-.269.882-.518l.582-.582v.463c0 1.603 1.304 2.906 2.906 2.906.012 0 .023-.003.036-.004.012 0 .023.004.036.004.167 0 .328-.021.485-.056 1.337-.261 2.35-1.438 2.35-2.85v-.463l.582.582c.874.874 2.296.874 3.17-.001.872-.873.872-2.295 0-3.168 0-.001-.001-.001-.001-.001l-3.751-3.751v-5.794c.794-.94 1.271-2.315 1.271-3.967 0-.219-.009-.438-.025-.659 3.802-1.269 6.99-3.447 9.331-6.37.391.363.794.466 1.125.466 1.711 0 3.455-2.919 3.455-5.784 0-.472-.043-.914-.114-1.323.51.163.929.086 1.251-.071 1.306-.637 1.739-3.245.992-5.633.53-1.306.56-3.501-.428-5.522zm-19.778-18.087c-.779-.932-1.935-1.538-3.245-1.538s-2.466.606-3.245 1.538v-8.881c0-1.789 1.456-3.245 3.245-3.245s3.245 1.456 3.245 3.245zm-12.692-17.57c0-5.357 4.358-9.717 9.716-9.717s9.717 4.359 9.717 9.717c0 3.609-1.956 7.835-4.74 10.344v-1.655c0-2.893-2.353-5.245-5.245-5.245s-5.245 2.353-5.245 5.245v1.151c-2.497-2.548-4.203-6.466-4.203-9.84zm3.746 107.165c-1.345 0-3.187 0-3.187-.495 0-.799 1.362-1.691 3.099-1.695.312.028.628-.119.838-.35.189-.209.277-.516.25-.796v-38.056c.222.042.445.079.682.079.318 0 .617-.051.907-.125v8.051l-.287.287c-.874.874-.874 2.296 0 3.17.088.088.187.162.287.231v26.362c0 .034-.003.068-.009.104-.119.834.036 1.612.448 2.25.104.162.158.326.158.486 0 .497-1.841.497-3.186.497zm8.959-38.752c-.323-.012-.628.042-.906.153v-2.872c.326.096.668.158 1.03.158.272 0 .531-.036.782-.091v2.805c-.28-.112-.586-.166-.906-.153zm-2.906 1.901-1.464 1.464v-7.406c.328-.427.602-.927.794-1.503.168.504.397.95.67 1.341zm8.149 5.507c-.093.093-.246.095-.341 0l-2.883-2.884c-.286-.286-.715-.372-1.09-.217-.373.154-.617.52-.617.924v4.137c0 .266-.482.266-.482 0v-4.278c0-.404-.243-.77-.617-.924-.124-.052-.254-.076-.383-.076-.26 0-.516.102-.707.293l-3.025 3.025c-.093.093-.246.095-.341 0-.094-.095-.094-.247 0-.342l5.002-5.002c.063-.063.142-.066.184-.065.039.002.076.002.115 0 .041-.002.12.003.184.065l5.001 5.001c.094.095.094.25 0 .343zm12.933-34.357c.573 1.522.381 2.858.173 3.395-.229-.158-.61-.5-1.091-1.153-.237-.325-.647-.472-1.04-.381-.392.095-.688.415-.753.813-.042.258-.084.515-.136.767-.045.224-.013.456.092.658.414.801.642 1.74.642 2.645 0 1.801-.865 3.204-1.36 3.657-.057-.101-.128-.249-.204-.462-.127-.354-.442-.608-.816-.655-.379-.045-.743.121-.954.433-2.276 3.373-5.719 5.812-9.955 7.052-.49.144-.794.635-.703 1.138.071.395.107.793.107 1.186 0 1.942-.844 3.299-2.053 3.299s-2.053-1.356-2.053-3.299c0-.132.006-.262.013-.391.015-.279-.088-.552-.283-.752-.188-.193-.446-.302-.716-.302-.01 0-.019 0-.028 0l-.234.008c-.263.011-.527.013-.791.003l-.245-.009c-.316.011-.547.104-.742.304-.193.199-.296.472-.281.75.007.128.013.257.013.389 0 1.942-.844 3.299-2.053 3.299-1.208 0-2.052-1.356-2.052-3.299 0-.387.034-.776.102-1.157.09-.504-.216-.995-.708-1.136-4.647-1.334-8.436-4.193-10.668-8.05-.19-.33-.551-.506-.933-.497-.38.025-.712.265-.857.617-.016.039-.031.075-.047.108-.261-.589-.558-1.798-.558-3.477 0-.7.053-1.371.155-1.995.073-.443-.157-.881-.565-1.07-.406-.188-.891-.084-1.183.259-.318.374-.57.589-.736.704-.215-.543-.363-1.852.125-3.257.116-.334.047-.705-.182-.976-.32-.377-.624-2.278.263-4.094.765-1.565 2.097-2.457 2.806-2.674.3-.092.539-.318.646-.613 2.316-6.338 7.236-10.889 13.166-12.517v.343c-.259.181-.438.466-.438.805v30.61c0 3.101 2.522 5.623 5.624 5.623 3.101 0 5.623-2.522 5.623-5.623 0-.553-.447-1-1-1s-1 .447-1 1c0 1.998-1.625 3.623-3.623 3.623s-3.624-1.625-3.624-3.623v-22.155c.852 2.442 2.068 4.527 3.684 4.527 1.542 0 2.718-1.899 3.563-4.194v7.51c0 .553.447 1 1 1s1-.447 1-1v-16.3c0-.288-.124-.542-.318-.725v-.206c5.581 1.793 10.18 6.217 12.402 12.267.114.311.374.545.694.625.691.174 2.085 1.06 2.885 2.695.86 1.762.609 3.536.291 4.053-.165.264-.196.588-.086.877z"/><path d="m66.935 55.102c-.553 0-1 .447-1 1v5.031c0 .553.447 1 1 1s1-.447 1-1v-5.031c0-.553-.447-1-1-1z"/><path d="m58.61 15.563c0-.908-.736-1.645-1.645-1.645-.908 0-1.645.736-1.645 1.645 0 .908.736 1.645 1.645 1.645.908 0 1.645-.736 1.645-1.645z"/><path d="m68.58 17.208c.908 0 1.645-.736 1.645-1.645 0-.908-.736-1.645-1.645-1.645-.908 0-1.645.736-1.645 1.645s.737 1.645 1.645 1.645z"/></g></svg>