<svg id="Layer_1" enable-background="new 0 0 128 128" height="512" viewBox="0 0 128 128" width="512" xmlns="http://www.w3.org/2000/svg"><path d="m120.42 65.784c-2.131-2.692-6.14-3.554-11.289-2.43-4.891 1.067-10.312 3.816-15.264 7.739-.747.592-1.459 1.198-2.149 1.812-.188-.652-.39-1.29-.599-1.921-.707-2.742-1.991-5.299-3.742-7.567 5.627-3.63 9.157-8.844 9.157-14.638 0-2.913-.899-5.677-2.501-8.169-1.356-3.424-3.838-6.457-7.168-8.884.458-1.214.721-2.523.721-3.895 0-6.108-4.969-11.076-11.076-11.076-4.98 0-9.201 3.305-10.59 7.837-1.389-4.532-5.61-7.837-10.59-7.837-6.107 0-11.076 4.968-11.076 11.076 0 1.399.272 2.734.747 3.967-5.158 3.769-8.346 8.919-8.346 14.593 0 5.884 3.429 11.204 8.929 15.005-1.823 1.872-3.297 4.002-4.344 6.316-.001.002-.002.003-.003.005-.002.004-.003.009-.005.013-.374.83-.699 1.681-.959 2.555-.277.798-.536 1.614-.778 2.446-.726-.65-1.469-1.291-2.249-1.909-4.953-3.923-10.373-6.672-15.264-7.739-5.148-1.124-9.157-.263-11.289 2.43-2.132 2.691-2.054 6.792.218 11.546 2.158 4.517 6.075 9.166 11.027 13.089 3.414 2.704 7.048 4.832 10.58 6.255l-7.142 5.375c-.992.614-1.449 1.77-1.138 2.9.316 1.15 1.327 1.918 2.518 1.918h.018c1.668-.022 3.846.269 4.348 1.663.897 2.491 2.16 3.228 3.607 3.228.815 0 1.689-.236 2.587-.522.155.691.53 1.282 1.106 1.607 1.165.659 2.307.065 3.143-.366.19-.098.377-.197.563-.277.806-.349 1.819-.226 2.52.299.228.172.451.4.686.641.381.39.813.832 1.386 1.148.416.23.899.347 1.378.347.395 0 .786-.08 1.133-.24.618-.286 1.029-.793 1.156-1.427.085-.423.018-.805-.031-1.084-.018-.101-.04-.202-.042-.302-.004-.265.307-.598.692-.742.543-.201 1.237-.168 1.907-.135l3.268.163c.239.022.466-.056.657-.194.855-.614 1.16-1.837.742-2.977-.213-.579-.556-1.05-.858-1.465-.097-.133-.194-.266-.285-.401-.79-1.179-1.993-4.994-2.242-9.384 3.45 1.449 7.32 2.265 11.409 2.265 4.072 0 7.928-.808 11.368-2.247-.252 4.382-1.453 8.188-2.241 9.365-.091.136-.189.269-.286.402-.302.415-.645.886-.858 1.465-.417 1.139-.113 2.363.742 2.977.191.138.427.214.657.194l3.267-.163c.671-.036 1.366-.068 1.907.135.386.144.697.477.693.741-.002.101-.024.202-.042.303-.049.279-.116.66-.031 1.084.127.634.538 1.141 1.156 1.427.346.16.738.24 1.133.24.478 0 .962-.117 1.377-.347.574-.317 1.005-.759 1.387-1.148.235-.241.458-.469.686-.64.703-.528 1.715-.646 2.521-.3.185.08.372.179.562.277.835.431 1.978 1.023 3.143.367.784-.443 1.21-1.362 1.173-2.385.618.181 1.194.37 1.732.549 1.144.378 2.261.75 3.286.75 1.447 0 2.71-.738 3.607-3.228.493-1.369 2.566-1.663 4.257-1.663.037 0 .074.002.109 0 1.192 0 2.202-.769 2.518-1.918.31-1.129-.146-2.286-1.138-2.9l-7.828-5.892c2.871-1.352 5.832-3.183 8.715-5.466 4.952-3.923 8.868-8.572 11.027-13.089 2.272-4.755 2.349-8.856.217-11.547z" fill="#e6e7e8"/><path d="m115.45 62.273c-3.871-4.887-15.106-2.434-25.094 5.479-1.194.946-2.312 1.929-3.356 2.932-.297-1.169-.63-2.326-1.005-3.469-.591-2.37-1.643-4.592-3.061-6.602-4.894 2.868-11.185 4.596-18.053 4.596-9.06 0-17.117-3.006-22.281-7.675-2.58 2.515-4.498 5.541-5.489 8.888-.464 1.339-.856 2.704-1.211 4.081-1.071-1.035-2.224-2.048-3.455-3.024-9.988-7.912-21.223-10.365-25.094-5.479s1.087 15.262 11.075 23.175c4.014 3.18 8.223 5.46 12.081 6.755l-8.706 6.552c-1.386.812-.798 2.927.809 2.916 2.454-.015 4.675.526 5.332 2.35 1.282 3.56 2.973 2.69 6.289 1.615-.047.164-.087.33-.109.5-.081.622.108 1.338.653 1.646.869.492 1.865-.298 2.782-.694 1.148-.496 2.556-.328 3.556.424.693.521 1.192 1.291 1.951 1.71.759.42 1.975.234 2.146-.616.077-.385-.088-.775-.093-1.167-.011-.783.634-1.454 1.367-1.729s1.541-.24 2.323-.2c1.089.054 2.178.109 3.268.164.527-.379.596-1.165.372-1.774-.224-.61-.669-1.107-1.031-1.646-1.002-1.495-2.465-6.362-2.462-11.591 3.68 1.813 7.942 2.855 12.491 2.855 4.533 0 8.781-1.035 12.451-2.835-.001 5.222-1.462 10.079-2.462 11.571-.362.54-.807 1.037-1.031 1.646-.224.61-.155 1.395.372 1.774 1.089-.055 2.178-.109 3.268-.164.782-.039 1.59-.075 2.323.2s1.378.946 1.367 1.729c-.005.392-.17.782-.093 1.167.171.851 1.386 1.036 2.146.616s1.258-1.189 1.951-1.71c1-.751 2.408-.919 3.556-.424.917.396 1.913 1.186 2.782.694.546-.309.734-1.025.653-1.646-.057-.438-.218-.85-.376-1.264 5.225 1.148 7.456 3.586 9.054-.85.657-1.824 2.878-2.365 5.332-2.35 1.606.01 2.195-2.104.809-2.916l-9.31-7.006c3.304-1.354 6.787-3.376 10.134-6.029 9.992-7.912 14.95-18.288 11.079-23.175z" fill="#6dc9f7"/><g fill="#fa759e"><path d="m110.913 61.799c-1.191 0-2.157.966-2.157 2.157s.966 2.157 2.157 2.157 2.157-.966 2.157-2.157-.965-2.157-2.157-2.157z"/><path d="m104.328 63.519c-.842 0-1.525.683-1.525 1.525 0 .843.683 1.525 1.525 1.525s1.525-.683 1.525-1.525-.683-1.525-1.525-1.525z"/><path d="m110.913 71.503c-.842 0-1.525.683-1.525 1.525 0 .843.683 1.525 1.525 1.525s1.525-.683 1.525-1.525c.001-.842-.682-1.525-1.525-1.525z"/><path d="m14.045 62.887c-.842 0-1.525.683-1.525 1.525 0 .843.683 1.525 1.525 1.525s1.525-.683 1.525-1.525c.001-.842-.682-1.525-1.525-1.525z"/><path d="m10.995 68.999c-.842 0-1.525.683-1.525 1.525s.683 1.525 1.525 1.525 1.525-.683 1.525-1.525-.683-1.525-1.525-1.525z"/><path d="m15.571 73.5c-.842 0-1.525.683-1.525 1.525 0 .843.683 1.525 1.525 1.525s1.525-.683 1.525-1.525-.683-1.525-1.525-1.525z"/></g><path d="m73.868 89.041c-.173-3.402-.097-6.845-.605-10.194-3.52-1.621-7.537-2.55-11.816-2.55-4.296 0-8.328.936-11.858 2.569-.505 3.343-.43 6.78-.603 10.175-.023.448-.03.895-.03 1.34 3.676 1.82 7.938 2.865 12.491 2.865 4.537 0 8.784-1.038 12.451-2.846 0-.452-.007-.905-.03-1.359z" fill="#d4fbff"/><circle cx="37.866" cy="87.764" fill="#fa759e" r="1.525"/><circle cx="37.866" cy="80.986" fill="#fa759e" r="1.525"/><path d="m85.712 86.511c-.842 0-1.525.683-1.525 1.525s.683 1.525 1.525 1.525 1.525-.683 1.525-1.525-.683-1.525-1.525-1.525z" fill="#fa759e"/><path d="m84.186 79.46c-.842 0-1.525.683-1.525 1.525s.683 1.525 1.525 1.525 1.525-.683 1.525-1.525-.682-1.525-1.525-1.525z" fill="#fa759e"/><path d="m81.403 27.996c.627-1.31.989-2.772.989-4.322 0-5.543-4.494-10.037-10.037-10.037-5.11 0-9.319 3.822-9.947 8.761-.216-.003-.426-.021-.643-.021-.216 0-.43.008-.645.011-.632-4.935-4.839-8.752-9.945-8.752-5.543 0-10.037 4.494-10.037 10.037 0 1.545.359 3.002.982 4.309-5.289 3.609-8.581 8.659-8.581 14.252 0 10.967 12.637 19.857 28.226 19.857 11.072 0 20.656-4.485 25.279-11.014 2.214-3.784 3.728-7.639 2.644-11.761-.925-4.418-3.937-8.351-8.285-11.32z" fill="#fff"/><path d="m84.52 31.113c.627-1.31.989-2.772.989-4.322 0-5.543-4.494-10.037-10.037-10.037-5.11 0-9.319 3.822-9.947 8.761-.216-.003-.426-.021-.643-.021-.216 0-.43.008-.645.011-.632-4.935-4.839-8.752-9.945-8.752-5.543 0-10.037 4.494-10.037 10.037 0 1.545.359 3.002.982 4.309-5.289 3.609-8.581 8.659-8.581 14.252 0 10.967 12.637 19.857 28.226 19.857 11.072 0 20.656-4.485 25.279-11.014 2.214-3.784 3.728-7.639 2.644-11.761-.925-4.418-3.937-8.351-8.285-11.32z" fill="#6dc9f7"/><path d="m77.259 37.181c-1.702 0-3.082.941-3.082 2.101s1.38 2.102 3.082 2.102 3.082-.941 3.082-2.102-1.38-2.101-3.082-2.101z" fill="#fa759e"/><path d="m48.318 37.181c-1.702 0-3.082.941-3.082 2.101s1.38 2.102 3.082 2.102 3.082-.941 3.082-2.102-1.38-2.101-3.082-2.101z" fill="#fa759e"/><path d="m116.234 61.652c-4.278-5.398-15.917-3.064-26.499 5.315-.768.608-1.487 1.234-2.19 1.866-.197-.689-.41-1.363-.63-2.029-.625-2.407-1.69-4.672-3.132-6.721-.556.353-1.131.692-1.726 1.013.712.997 1.307 2.057 1.813 3.156.009.028.005.056.016.083 2.388 5.811 3.746 12.579 4.151 20.695.177 3.563.125 6.81-.16 9.928-.075.824-.253 1.729-.443 2.688-.428 2.165-.912 4.619-.22 6.738.066.203.143.403.219.604.136.357.266.695.306 1.006.042.322-.062.594-.154.646-.205.111-.756-.173-1.201-.404-.233-.12-.465-.239-.692-.338-1.479-.638-3.266-.424-4.553.543-.353.265-.641.56-.919.845-.311.317-.604.618-.916.79-.247.136-.619.098-.681.063-.008-.052.021-.219.041-.329.037-.209.069-.419.072-.628.018-1.321-1-2.298-2.017-2.68-.939-.352-1.929-.301-2.725-.263l-2.707.136c-.01-.112.002-.256.057-.403.114-.31.344-.626.588-.961.114-.156.228-.313.334-.473 1.25-1.865 2.895-7.764 2.6-13.548-.052-1.015-.081-2.034-.11-3.053-.102-3.579-.208-7.279-1.311-10.826-.165-.528-.726-.819-1.252-.658-.527.164-.822.725-.658 1.252 1.021 3.284 1.119 6.688 1.222 10.289.03 1.034.059 2.068.112 3.098.012.227.015.453.021.679-3.408 1.572-7.302 2.475-11.444 2.475-4.157 0-8.065-.908-11.483-2.492.005-.22.009-.44.02-.662.053-1.029.082-2.063.112-3.098.103-3.602.2-7.005 1.222-10.289.164-.527-.131-1.088-.658-1.252-.526-.162-1.088.13-1.252.658-1.103 3.547-1.208 7.247-1.311 10.826-.029 1.019-.058 2.038-.11 3.053-.294 5.785 1.351 11.683 2.6 13.548.106.159.22.315.333.471.245.335.476.652.59.964.054.147.066.291.056.402l-2.708-.136c-.796-.038-1.786-.089-2.725.263-1.016.382-2.033 1.358-2.016 2.68.003.209.036.419.072.628.02.11.049.277.064.285-.083.077-.448.123-.705-.019-.311-.172-.604-.473-.915-.79-.279-.285-.567-.58-.92-.846-1.288-.967-3.074-1.178-4.554-.542-.227.099-.458.218-.691.338-.445.23-1 .517-1.201.404-.093-.053-.196-.324-.154-.647.04-.309.169-.646.305-1.004.076-.2.152-.401.219-.604.692-2.119.208-4.573-.22-6.738-.189-.958-.368-1.863-.443-2.688-.285-3.123-.337-6.37-.159-9.928.399-8.006 1.731-14.699 4.061-20.459 1.011-2.3 2.485-4.406 4.338-6.232 5.05 2.967 11.513 4.752 18.55 4.752 11.102 0 21.101-4.382 26.095-11.436.319-.451.213-1.075-.238-1.395-.451-.318-1.075-.213-1.394.238-4.626 6.533-14 10.592-24.463 10.592-15.013 0-27.226-8.459-27.226-18.856 0-5.074 2.893-9.843 8.145-13.427.408-.278.551-.812.339-1.257-.587-1.231-.885-2.536-.885-3.878 0-4.982 4.054-9.036 9.037-9.036 4.529 0 8.378 3.387 8.954 7.878.064.5.489.873.992.873h.014l.631-.011c.103 0 .205.005.306.01.107.005.215.009.323.011.516-.04.941-.37 1.006-.874.571-4.496 4.421-7.887 8.955-7.887 4.983 0 9.037 4.054 9.037 9.036 0 1.346-.3 2.655-.891 3.891-.213.445-.069.979.338 1.258 4.237 2.892 7.032 6.692 7.87 10.7.113.541.644.89 1.184.773.541-.113.887-.643.774-1.184-.899-4.294-3.736-8.34-8.024-11.465.497-1.274.749-2.607.749-3.974 0-6.085-4.951-11.036-11.037-11.036-4.957 0-9.244 3.318-10.59 7.953-1.346-4.635-5.635-7.953-10.59-7.953-6.085 0-11.037 4.951-11.037 11.036 0 1.36.25 2.688.743 3.959-5.387 3.915-8.342 9.074-8.342 14.603 0 5.887 3.441 11.208 8.956 15.003-2.423 2.478-4.24 5.408-5.249 8.624-.32.907-.612 1.841-.888 2.791-.738-.667-1.494-1.325-2.292-1.958-4.948-3.919-10.363-6.665-15.249-7.732-5.133-1.119-9.128-.261-11.25 2.417-2.121 2.681-2.042 6.766.224 11.506 2.156 4.513 6.069 9.155 11.016 13.075 3.432 2.718 7.086 4.854 10.635 6.275l-7.199 5.418c-.978.604-1.428 1.743-1.123 2.856.311 1.132 1.307 1.89 2.481 1.89h.017c1.708.018 3.876.273 4.385 1.688.891 2.475 2.107 3.217 3.537 3.217.818 0 1.709-.246 2.646-.547.145.699.52 1.296 1.098 1.624 1.146.65 2.281.061 3.107-.369.19-.099.379-.197.563-.277.817-.352 1.847-.23 2.56.305.23.174.454.402.691.646.379.388.809.827 1.377 1.142.41.227.887.342 1.359.342.39 0 .775-.078 1.117-.236.607-.281 1.01-.778 1.134-1.4.083-.416.02-.778-.032-1.069-.018-.103-.041-.205-.042-.307-.004-.285.312-.628.718-.78.552-.207 1.248-.172 1.923-.138l3.268.164c.235.017.45-.055.634-.187.841-.604 1.14-1.811.728-2.931-.21-.574-.551-1.041-.851-1.453-.098-.135-.196-.269-.289-.406-.796-1.188-2.01-5.046-2.252-9.473 3.46 1.463 7.343 2.293 11.45 2.293 4.091 0 7.96-.823 11.41-2.276-.244 4.419-1.456 8.268-2.252 9.457-.092.138-.191.272-.29.407-.299.411-.639.878-.849 1.45-.412 1.122-.112 2.327.728 2.932.184.132.404.201.634.187l3.267-.164c.674-.034 1.371-.069 1.922.138.407.152.723.495.719.779-.001.103-.024.205-.042.308-.051.291-.115.653-.032 1.069.125.622.527 1.119 1.134 1.4.342.158.728.236 1.117.236.472 0 .949-.115 1.359-.342.569-.314.999-.754 1.377-1.142.237-.243.461-.472.691-.645.713-.536 1.742-.657 2.559-.306.186.08.374.179.564.277.829.43 1.961 1.02 3.107.369.782-.443 1.204-1.367 1.153-2.393.632.184 1.234.372 1.782.554 1.183.393 2.298.763 3.308.763 1.43 0 2.646-.743 3.537-3.217.5-1.39 2.588-1.688 4.292-1.688h.11c1.174 0 2.17-.758 2.481-1.89.306-1.113-.145-2.252-1.123-2.856l-7.889-5.937c2.89-1.354 5.87-3.183 8.775-5.484 10.582-8.382 15.518-19.179 11.239-24.581zm-107.64 10.37c-1.918-4.014-2.082-7.352-.459-9.399 1.122-1.416 3.039-2.143 5.552-2.143 1.122 0 2.363.145 3.705.438 4.594 1.003 9.719 3.612 14.433 7.347 1.041.824 2.01 1.69 2.942 2.572-.701 2.84-1.21 5.886-1.555 9.141-10.49-7.531-18.577-12.067-18.68-12.125-.482-.266-1.091-.095-1.36.388-.269.482-.096 1.091.387 1.36.105.058 8.592 4.821 19.435 12.686-.068.869-.13 1.745-.175 2.645-.116 2.321-.126 4.506-.05 6.623-4.409-1.106-9.248-3.619-13.721-7.163-4.714-3.734-8.426-8.126-10.454-12.37zm20.29 31.388c-.72-1.998-2.796-3.011-6.171-3.011-.038 0-.081-.008-.113 0-.395 0-.518-.293-.552-.42-.034-.124-.078-.436.26-.633.033-.02.065-.041.096-.064l8.287-6.237c.737.233 1.468.439 2.186.601.034.499.062 1.001.107 1.494.085.928.282 1.927.473 2.894.398 2.019.811 4.106.281 5.73-.056.173-.122.343-.187.513-.035.091-.069.196-.104.292-.076.025-.158.051-.23.075-2.878.954-3.474 1.151-4.333-1.234zm74.065-4.128c.031.023.063.045.096.064.337.197.294.509.26.633-.035.127-.142.38-.557.42-3.396-.008-5.552.991-6.279 3.011-.859 2.385-1.458 2.188-4.333 1.234-.851-.282-1.863-.612-3.022-.893-.524-1.621-.114-3.703.284-5.717.191-.967.388-1.966.473-2.894.037-.404.059-.817.088-1.225 1.334-.302 2.72-.73 4.146-1.289zm-12.872-7.497c.086-2.186.078-4.447-.042-6.854-.041-.824-.1-1.624-.16-2.422 10.811-7.836 19.263-12.579 19.368-12.637.482-.27.655-.878.387-1.36s-.876-.653-1.36-.388c-.102.058-8.151 4.573-18.605 12.072-.337-3.268-.842-6.323-1.535-9.172.901-.85 1.837-1.688 2.847-2.488 6.276-4.972 13.209-7.772 18.147-7.772 2.441 0 4.396.685 5.542 2.131 3.463 4.371-1.535 14.341-10.913 21.77-4.555 3.608-9.442 6.042-13.676 7.12z" fill="#3a2c60"/><path d="m89.993 43.207c-.544-.077-1.053.306-1.128.853-.148 1.063-.43 2.125-.838 3.154-.204.513.048 1.095.561 1.298.121.048.246.07.368.07.398 0 .774-.239.93-.632.467-1.177.79-2.394.959-3.615.076-.547-.305-1.052-.852-1.128z" fill="#3a2c60"/><circle cx="51.175" cy="23.674" fill="#3a2c60" r="2.857"/><path d="m75.212 23.674c0-1.578-1.279-2.857-2.857-2.857s-2.857 1.279-2.857 2.857 1.279 2.857 2.857 2.857 2.857-1.279 2.857-2.857z" fill="#3a2c60"/><path d="m47.666 44.676c.264-.485.085-1.093-.4-1.356-.485-.267-1.092-.086-1.356.399-.257.473-.509.671-.692.76-.087.018-.171.036-.249.075-.663.119-1.503-.468-1.749-.682-.413-.361-1.042-.322-1.409.089-.366.414-.327 1.046.086 1.412.142.126 1.257 1.061 2.637 1.174 1.002 4.802 8.448 8.421 17.784 8.421 9.334 0 16.778-3.618 17.783-8.418 1.399-.098 2.534-1.051 2.678-1.178.413-.365.45-.993.087-1.406-.363-.415-.995-.457-1.409-.095-.248.215-1.105.811-1.767.681-.009-.001-.023-.004-.035-.007-.05-.024-.105-.035-.16-.051-.185-.079-.453-.269-.728-.775-.264-.485-.872-.665-1.356-.399-.485.264-.665.871-.4 1.356.348.638.751 1.062 1.151 1.345-.652 3.821-7.634 6.947-15.844 6.947-8.189 0-15.159-3.11-15.841-6.919.413-.283.831-.715 1.189-1.373z" fill="#3a2c60"/></svg>