<svg id="Layer_1" enable-background="new 0 0 128 128" height="512" viewBox="0 0 128 128" width="512" xmlns="http://www.w3.org/2000/svg"><path d="m103.773 86.131c1.15-2.758.675-6.534-2.251-8.701-2.169-1.602-4.738-2.12-7.234-1.458-2.683.71-4.994 2.733-6.183 5.413-1.8 4.064-.962 7.871-.287 10.932.21.959.409 1.864.537 2.756.405 2.832.022 5.688-.953 7.104-1.213 1.761-3.003 2.583-5.312 2.424-.687-.045-1.358-.212-2.004-.454-.032-4.279-1.064-8.587-3.806-11.713-.32-.365-.996-.998-1.933-1.875-2.179-2.04-5.826-5.455-6.981-7.513-1.746-3.111-1.926-7.592-2.084-11.546-.047-1.169-.096-2.252-.176-3.255 2.198-1.513 3.645-4.044 3.645-6.909 0-1.652-.487-3.189-1.314-4.488 2.265-2.494 4.124-5.404 5.474-8.245.126-.265 1.791-3.614 2.672-7.227.777-3.186.79-6.671.79-7.091 0-5.002-1.507-9.077-4.342-12.096 1.797-.653 3.53-1.904 4.928-3.583 1.532-1.84 2.495-3.986 2.712-6.041.232-2.203-.407-4.056-1.803-5.217-.408-.341-1.148-.656-2.326-.222-3.009 1.107-8.231 7.118-9.746 10.91-.656-.265-1.337-.506-2.049-.718v-6.338c.708-.552 1.172-1.403 1.172-2.371 0-1.411-.973-2.589-2.282-2.917-.053-.05-.094-.11-.151-.158-.909-.764-2.105-1.084-3.297-.878-1.659.29-2.997 1.659-3.253 3.332-.194 1.269.226 2.541 1.124 3.439v4.748c-.876-.058-1.775-.092-2.704-.092-.377 0-.732.024-1.1.033v-5.137c.708-.552 1.172-1.403 1.172-2.371 0-1.404-.964-2.574-2.264-2.909-.72-.681-1.684-1.106-2.751-1.106-2.214 0-4.016 1.801-4.016 4.015 0 1.066.422 2.069 1.172 2.819v5.483c-.955.219-1.863.486-2.728.792-1.677-3.801-6.689-9.502-9.61-10.578-1.181-.434-1.917-.119-2.327.222-1.395 1.162-2.035 3.014-1.803 5.217.217 2.055 1.18 4.201 2.713 6.041 1.201 1.442 2.65 2.569 4.175 3.273-3.031 3.048-4.65 7.229-4.65 12.406 0 7.807 3.573 16.64 8.954 22.536-.838 1.305-1.331 2.852-1.331 4.515 0 2.844 1.427 5.358 3.598 6.875-.104.888-.198 1.863-.298 2.9-.4 4.177-.897 9.376-2.454 12.299-1.485 2.79-4.477 5.452-6.457 7.214-.845.751-1.512 1.345-1.92 1.811-4.534 5.17-4.411 13.57-2.78 19.724.115.623.827 3.677 1.507 5.646-1.951.818-4.372 2.791-4.632 7.548-.015.274.083.543.272.742.189.2.451.313.726.313h53.663c.274 0 .537-.113.727-.313.188-.199.287-.468.271-.742-.26-4.758-2.681-6.73-4.631-7.548.679-1.969 1.392-5.024 1.507-5.646.092-.348.178-.705.26-1.066.747.186 1.519.32 2.319.372.336.022.668.033.996.033 4.33 0 8.007-1.901 10.429-5.419 2.929-4.252 2.347-10.246 2.099-11.981-.167-1.16-.413-2.277-.631-3.262-.573-2.606-1.025-4.665-.14-6.664.34-.766.989-1.375 1.654-1.55.275-.072.94-.208 1.162.11.131.188.049.713-.063.995-.144.345-.213.68-.251 1.009-1.484 1.156-3.301 4.274 1.582 12.116.001.001 8.438-4.14 5.296-10.719z" fill="#e6e7e8"/><path d="m96.928 74.235c-1.919-1.418-4.186-1.878-6.384-1.297-2.394.634-4.459 2.447-5.524 4.851-1.667 3.762-.902 7.24-.226 10.309.215.978.418 1.902.552 2.833.446 3.111.006 6.178-1.12 7.814-1.776 2.579-4.352 2.976-6.2 2.854-1.024-.067-2.008-.363-2.928-.784-.032 1.715-.227 3.415-.533 5.017.994.331 2.043.563 3.143.635 4.396.288 8.138-1.472 10.536-4.956 2.724-3.955 2.167-9.627 1.931-11.272-.159-1.109-.391-2.167-.617-3.189-.588-2.675-1.096-4.985-.077-7.285.464-1.048 1.351-1.858 2.312-2.112.76-.201 1.723-.235 2.239.505.53.76.039 1.953.039 1.953-1.184 2.833 2.888 4.986 4.439 2.335.013-.023.027-.046.04-.069 1.364-2.406 1.128-6.108-1.622-8.142z" fill="#ffd7e5"/><path d="m72.245 114.416c.75-1.626 1.793-6.133 1.84-6.475 1.57-5.892 1.751-13.939-2.555-18.849-1.037-1.183-7.332-6.523-9.035-9.558-2.501-4.457-1.985-11.314-2.437-15.81-1.087.629-2.345.995-3.69.995h-12.02c-1.357 0-2.624-.372-3.716-1.01-.585 4.49-.798 12.15-2.939 16.17-2.182 4.097-7.199 7.721-8.508 9.213-4.306 4.91-4.125 12.957-2.555 18.849.047.342 1.089 4.849 1.84 6.475-2.112.546-4.681 2.188-4.944 6.991h26.407.849 26.407c-.263-4.803-2.832-6.445-4.944-6.991z" fill="#ffd7e5"/><path d="m73.229 4.115c-2.017-1.679-10.138 7.516-10.821 11.316 1.297.611 2.479 1.356 3.538 2.229 2.075-.197 4.423-1.507 6.245-3.694 2.91-3.495 3.375-7.906 1.038-9.851z" fill="#ffd7e5"/><path d="m34.954 17.508c1.272-1.014 2.72-1.841 4.316-2.493-1.144-4.011-8.778-12.521-10.724-10.901-2.336 1.946-1.872 6.356 1.039 9.85 1.569 1.887 3.529 3.113 5.369 3.544z" fill="#ffd7e5"/><path d="m43.572 6.978v6.754c1.185-.24 2.417-.408 3.686-.512v-6.242c.708-.552 1.172-1.403 1.172-2.371 0-1.665-1.35-3.015-3.015-3.015s-3.015 1.35-3.015 3.015c-.001.968.463 1.82 1.172 2.371z" fill="#fff"/><path d="m54.062 7.21v6.062c1.273.126 2.503.326 3.686.593v-6.887c.708-.552 1.172-1.403 1.172-2.371 0-1.843-1.654-3.3-3.558-2.968-1.241.216-2.245 1.253-2.436 2.498-.164 1.073.245 2.046.959 2.692.108.099.177.234.177.381z" fill="#fff"/><path d="m45.572 6.978v6.42c1.193-.159 2.424-.251 3.686-.286v-6.134c.708-.552 1.172-1.403 1.172-2.371 0-1.665-1.35-3.015-3.015-3.015s-3.015 1.35-3.015 3.015c-.001.968.463 1.82 1.172 2.371z" fill="#fa759e"/><path d="m56.062 7.21v6.324c1.139.186 2.234.437 3.286.748h.4v-7.304c.708-.552 1.172-1.403 1.172-2.371 0-1.843-1.654-3.3-3.558-2.968-1.241.216-2.245 1.253-2.436 2.498-.164 1.073.245 2.046.959 2.692.108.099.177.234.177.381z" fill="#fa759e"/><path d="m44.348 49.95h12.019c2.356 0 4.45 1.107 5.802 2.826 5.556-5.754 9.206-14.824 9.206-22.492 0-12.314-9.41-17.202-21.017-17.202s-21.017 4.887-21.017 17.202c0 7.668 3.65 16.738 9.206 22.492 1.351-1.718 3.445-2.826 5.801-2.826z" fill="#ffd7e5"/><path d="m56.367 49.95h-12.019c-4.078 0-7.385 3.306-7.385 7.385s3.306 7.385 7.385 7.385h12.019c4.078 0 7.385-3.306 7.385-7.385s-3.307-7.385-7.385-7.385z" fill="#fa759e"/><path d="m44.191 55.719c-1.34 0-2.427 1.086-2.427 2.427 0 1.34 1.086 2.427 2.427 2.427 1.34 0 2.427-1.086 2.427-2.427-.001-1.341-1.087-2.427-2.427-2.427z" fill="#ffd7e5"/><path d="m56.524 55.719c-1.34 0-2.427 1.086-2.427 2.427 0 1.34 1.086 2.427 2.427 2.427 1.34 0 2.427-1.086 2.427-2.427-.001-1.341-1.087-2.427-2.427-2.427z" fill="#ffd7e5"/><g fill="#3a2c60"><path d="m99.769 82.142c1.156-2.759.684-6.543-2.247-8.711-2.168-1.601-4.734-2.12-7.234-1.459-2.684.71-4.995 2.734-6.183 5.413-1.8 4.063-.962 7.87-.286 10.94.21.956.408 1.858.536 2.748.405 2.832.022 5.687-.953 7.104-1.213 1.761-2.991 2.579-5.312 2.423-.643-.042-1.315-.198-2.004-.458-.033-4.277-1.065-8.583-3.806-11.708-.32-.365-.997-.999-1.934-1.875-2.179-2.04-5.826-5.454-6.981-7.512-1.747-3.112-1.927-7.592-2.087-11.544-.047-1.156-.099-2.237-.181-3.251 2.204-1.512 3.653-4.047 3.653-6.916 0-1.651-.486-3.188-1.314-4.487 2.266-2.494 4.124-5.405 5.474-8.246.237-.499.024-1.096-.475-1.333-.5-.238-1.096-.025-1.332.474-1.234 2.598-2.93 5.244-4.959 7.532-1.506-1.436-3.539-2.325-5.779-2.325h-12.017c-2.261 0-4.313.904-5.822 2.364-4.914-5.493-8.185-13.737-8.185-21.03 0-10.787 7.343-14.549 14.141-15.722.192 3.361 2.97 6.03 6.38 6.03 3.345 0 6.086-2.568 6.37-5.839 6.499 1.367 13.143 5.271 13.143 15.532 0 .829-.045 1.69-.134 2.559-.056.55.345 1.041.894 1.096.547.063 1.041-.343 1.097-.893.095-.936.144-1.865.144-2.762 0-5.005-1.509-9.082-4.347-12.102 1.78-.648 3.533-1.896 4.932-3.576 3.313-3.979 3.713-8.924.91-11.259-.407-.339-1.139-.654-2.313-.228-2.998 1.092-8.242 7.129-9.748 10.921-.956-.387-1.985-.704-3.061-.978v-5.637c.75-.75 1.172-1.752 1.172-2.819 0-1.189-.522-2.31-1.433-3.075-.91-.765-2.112-1.085-3.297-.878-1.659.29-2.997 1.659-3.253 3.332-.194 1.268.226 2.538 1.125 3.44v4.748c-.876-.058-1.775-.092-2.705-.092-.719 0-1.412.029-2.1.064v-4.72c.75-.75 1.172-1.752 1.172-2.819 0-2.214-1.801-4.016-4.015-4.016s-4.015 1.801-4.015 4.016c0 1.066.422 2.069 1.172 2.819v5.484c-.959.22-1.869.487-2.737.794-1.656-3.746-6.779-9.716-9.81-10.652-1.064-.328-1.74-.022-2.119.293-2.804 2.334-2.404 7.28.909 11.259 1.193 1.432 2.66 2.559 4.185 3.263-3.038 3.049-4.661 7.233-4.661 12.416 0 7.807 3.58 16.628 8.961 22.524-.843 1.307-1.338 2.859-1.338 4.526 0 2.845 1.427 5.36 3.601 6.876-.104.885-.198 1.863-.298 2.901-.4 4.176-.898 9.373-2.456 12.297-1.485 2.791-4.478 5.453-6.458 7.214-.844.751-1.511 1.344-1.919 1.81-4.535 5.17-4.411 13.57-2.78 19.725.115.624.825 3.676 1.506 5.647-1.95.817-4.371 2.791-4.632 7.547-.015.274.083.542.272.742s.451.313.726.313h53.663c.274 0 .537-.113.727-.313.188-.199.287-.468.271-.742-.26-4.757-2.682-6.73-4.632-7.548.68-1.969 1.393-5.024 1.508-5.646.094-.356.182-.721.266-1.09.779.196 1.555.347 2.313.397.336.022.668.033.996.033 4.33 0 8.007-1.901 10.429-5.419 2.932-4.256 2.347-10.247 2.098-11.98-.165-1.159-.412-2.277-.63-3.263-.573-2.606-1.025-4.665-.14-6.665.339-.766.988-1.374 1.654-1.55.274-.073.94-.208 1.162.11.131.187.049.712-.063.995-.144.345-.213.68-.251 1.009-1.484 1.156-3.3 4.275 1.583 12.116 0 .001 8.416-4.136 5.291-10.708zm-28.563-76.582c.91-.614 1.356-.653 1.418-.647 1.835 1.582 1.292 5.418-1.202 8.413-1.47 1.767-3.361 2.964-5.139 3.278-.818-.642-1.705-1.225-2.677-1.734 1-2.681 4.812-7.43 7.6-9.31zm-16.65.528c-.512-.463-.746-1.119-.642-1.799.126-.822.808-1.522 1.62-1.664.613-.104 1.204.049 1.667.439.458.384.72.947.72 1.544 0 .616-.287 1.192-.787 1.581-.243.189-.386.48-.386.789v5.652c-.552-.098-1.107-.193-1.686-.265v-5.155c0-.42-.184-.829-.506-1.122zm-10.37.101c-.5-.389-.787-.965-.787-1.581 0-1.111.904-2.016 2.015-2.016s2.015.904 2.015 2.016c0 .616-.287 1.192-.787 1.581-.243.189-.386.48-.386.789v5.33c-.575.061-1.136.134-1.686.221v-5.55c.002-.31-.141-.601-.384-.79zm-13.833 7.137c-2.509-3.014-3.043-6.88-1.224-8.412.029-.006.06-.009.094-.009 1.46 0 7.115 5.656 8.78 9.543-1.207.557-2.307 1.209-3.298 1.954-1.55-.49-3.113-1.589-4.352-3.076zm7.61 44.009c0-3.521 2.864-6.385 6.385-6.385h12.019c3.521 0 6.385 2.864 6.385 6.385s-2.864 6.385-6.385 6.385h-12.019c-3.521 0-6.385-2.865-6.385-6.385zm35.156 50.35c-.009.032-.019.081-.023.113-.072.442-1.083 4.735-1.759 6.2-.073.157-.089.327-.075.496-.737-.175-1.509-.278-2.312-.278-.361 0-.715.022-1.063.06-.28-4.44-.517-10.212 1.084-16.082.146-.533-.169-1.083-.702-1.228-.526-.144-1.082.167-1.228.702-1.671 6.128-1.429 12.268-1.155 16.662-3.77.433-8.624 1.021-11.203 1.719v-15.352c0-.552-.448-1-1-1s-1 .448-1 1v18.337c0 .492.116.954.31 1.374h-5.272c.194-.419.31-.882.31-1.374v-18.337c0-.552-.448-1-1-1s-1 .448-1 1v15.049c-3.666-.525-7.392-.959-11.231-.987.284-4.416.599-10.761-1.128-17.092-.146-.533-.697-.847-1.228-.702-.533.146-.847.695-.702 1.228 1.609 5.899 1.362 11.699 1.08 16.147-.508-.08-1.029-.126-1.564-.126-.618 0-1.218.061-1.799.166-.005-.131-.027-.262-.083-.383-.677-1.467-1.686-5.757-1.756-6.19-.005-.042-.014-.083-.024-.123-1.366-5.125-1.629-11.902 1.322-16.546.847.705 1.926 1.136 3.115 1.136 2.723 0 4.93-2.207 4.93-4.93 0-1.218-.453-2.32-1.188-3.175 1.075-1.183 2.081-2.47 2.8-3.819.682-1.28 1.172-2.891 1.547-4.634 1.226-.508 2.094-1.698 2.094-3.109 0-1.05-.483-1.981-1.233-2.601.1-.924.19-1.837.273-2.703.07-.733.138-1.438.208-2.1.038.014.077.023.115.037.162.057.325.11.49.157.092.026.185.049.278.072.15.037.3.073.453.102.132.025.265.042.397.061.12.017.239.037.36.048.262.025.526.04.79.04h12.019c.261 0 .522-.015.781-.04.114-.011.226-.029.338-.044.137-.019.274-.037.41-.063.143-.026.283-.059.423-.092.1-.024.199-.049.298-.077.155-.043.309-.09.46-.142.031-.011.064-.018.095-.029.045.743.077 1.533.11 2.35.027.67.058 1.357.093 2.049-1.062.572-1.788 1.684-1.788 2.976 0 1.574 1.076 2.885 2.529 3.269.331 1.481.802 2.893 1.507 4.149.171.305.386.63.629.966-.162.482-.26.993-.26 1.531 0 2.723 2.207 4.93 4.93 4.93.44 0 .862-.067 1.265-.18.274.258.544.512.796.747.827.774 1.541 1.443 1.796 1.733.094.107.174.224.264.334-.608.815-.973 1.819-.973 2.915 0 2.368 1.672 4.343 3.898 4.818.361 3.351-.055 6.887-.848 9.865zm18.417-30.998c-1.249.33-2.387 1.355-2.971 2.674-1.151 2.6-.585 5.176.015 7.905.221.999.448 2.031.603 3.115.224 1.553.756 6.905-1.764 10.563-2.191 3.182-5.613 4.795-9.647 4.525-.685-.045-1.368-.157-2.068-.34.013-.081.021-.161.034-.242.042-.273.08-.548.115-.826.028-.218.055-.436.078-.654.02-.187.035-.375.051-.563.018-.202.042-.404.055-.605.65.196 1.294.316 1.923.357 2.105.132 5.047-.318 7.09-3.285 1.28-1.859 1.773-5.125 1.287-8.522-.139-.963-.345-1.901-.565-2.906-.674-3.061-1.371-6.226.163-9.688.944-2.129 2.764-3.733 4.866-4.29 1.897-.502 3.864-.098 5.533 1.134 2.306 1.706 2.495 4.82 1.313 6.902-.632 1.081-1.675.629-1.879.528-.491-.245-1.208-.937-.772-1.978.071-.174.676-1.731-.144-2.905-.665-.953-1.875-1.28-3.316-.899z"/><path d="m70.754 36.121c-.536-.132-1.077.202-1.206.738-.257 1.072-.575 2.157-.946 3.226-.181.522.096 1.092.618 1.272.108.038.219.056.327.056.414 0 .802-.26.945-.673.392-1.13.728-2.278 1.001-3.413.129-.537-.202-1.077-.739-1.206z"/><path d="m36.963 32.958c-1.437 0-2.602 1.165-2.602 2.602s1.165 2.602 2.602 2.602 2.602-1.165 2.602-2.602c0-1.436-1.165-2.602-2.602-2.602z"/><path d="m62.374 35.561c0 1.437 1.165 2.602 2.602 2.602s2.602-1.165 2.602-2.602-1.165-2.602-2.602-2.602-2.602 1.165-2.602 2.602z"/><circle cx="45.415" cy="79.128" r="3.394"/><path d="m54.286 77.573c-.859.859-.859 2.251 0 3.11s2.251.859 3.11 0 .859-2.251 0-3.11-2.251-.859-3.11 0z"/><circle cx="50.861" cy="86.507" r="2.199"/><path d="m63.167 89.247c-.859.859-.859 2.251 0 3.11s2.251.859 3.11 0 .859-2.251 0-3.11-2.252-.859-3.11 0z"/><path d="m41.191 20.467c1.036 0 1.876-.84 1.876-1.876s-.84-1.876-1.876-1.876-1.876.84-1.876 1.876.84 1.876 1.876 1.876z"/><path d="m57.586 18.59c0 1.036.84 1.876 1.876 1.876s1.876-.84 1.876-1.876-.84-1.876-1.876-1.876-1.876.84-1.876 1.876z"/></g></svg>