<svg id="Layer_1" enable-background="new 0 0 128 128" height="512" viewBox="0 0 128 128" width="512" xmlns="http://www.w3.org/2000/svg"><path d="m110.383 107.284c0-7.382-3.497-13.896-8.954-16.763-1.448-7.935-4.138-13.658-6.993-17.94.722-.307 1.435-.647 2.121-1.061 5.672-3.422 6.585-14.85 4.647-26.382 2.331-.85 4.003-3.082 4.003-5.703 0-3.35-2.726-6.075-6.075-6.075-.306 0-.604.03-.898.074-1.429-4.123-3.186-7.842-5.164-10.717-2.09-3.978-4.557-7.116-7.29-8.733-18.224-10.78-21.338-10.778-39.561 0-4.936 2.92-9.013 10.787-11.545 19.65-.571-.178-1.178-.274-1.807-.274-3.35 0-6.074 2.725-6.074 6.075 0 3.158 2.423 5.759 5.507 6.046-.274 2.347-.423 4.646-.433 6.823-.026 6.105 1.004 14.023 6.059 17.072.426.257.866.492 1.316.714-4.6 6.43-8.125 13.95-9.728 21.053-4.883 3.16-7.897 9.298-7.897 16.142 0 3.836.948 7.484 2.747 10.594-.703 1.122-1.072 2.401-1.072 3.738 0 2.418 1.968 4.386 4.386 4.386h13.469c.116.041.231.081.349.108.073.017.148.025.224.025h.019l7.254-.133h33.813l7.283.133h.019c.075 0 .15-.008.224-.025.117-.027.233-.067.349-.108h14.455c2.418 0 4.386-1.968 4.386-4.386 0-1.611-.537-3.144-1.527-4.39 1.563-2.971 2.388-6.392 2.388-9.943z" fill="#e6e7e8"/><path d="m31.347 31.032c-.736-.416-1.574-.672-2.479-.672-2.803 0-5.075 2.272-5.075 5.075s2.272 5.075 5.075 5.075c.198 0 .387-.036.579-.058.424-3.148 1.067-6.34 1.9-9.42z" fill="#fa759e"/><path d="m95.132 30.36c-.193 0-.377.036-.564.057 1.022 3.106 1.855 6.405 2.46 9.719 1.862-.752 3.179-2.569 3.179-4.701 0-2.803-2.272-5.075-5.075-5.075z" fill="#fa759e"/><path d="m105.383 103.284c0-7.359-3.681-13.623-8.851-16.094-1.408-8.096-4.149-13.915-7.041-18.218-3.162 1.137-6.574 1.378-9.845 1.137-9.742-.718-19.549-.718-29.291 0-4.363.322-8.975-.215-12.911-2.589-.456-.275-.871-.62-1.267-.994-4.426 6.16-8.154 13.719-9.776 21.242-4.601 2.783-7.784 8.676-7.784 15.516 0 4.016 1.103 7.702 2.938 10.633-.789 1.025-1.263 2.306-1.263 3.7 0 1.87 1.516 3.386 3.386 3.386h77.455c1.87 0 3.386-1.516 3.386-3.386 0-1.658-.666-3.16-1.742-4.256 1.633-2.837 2.606-6.311 2.606-10.077z" fill="#0089ef"/><path d="m62.188 95.752c-11.457 0-20.745 7.373-20.745 16.468 0 3.4 4.76 8.981 5.369 8.782h30.38c.72.236 5.74-5.366 5.74-8.782 0-9.095-9.288-16.468-20.744-16.468z" fill="#ffd7e5"/><path d="m48.374 84.247c-2.047 9.545.067 20.533 4.242 32.236.217 2.357-1.066 4.341-2.866 4.432l-12.031.22c-6.203-1.424-10.537-30.845-4.762-49.408z" fill="#0089ef"/><path d="m75.45 84.247c2.047 9.545-.067 20.533-4.242 32.236-.217 2.357 1.066 4.341 2.866 4.432l12.031.22c6.203-1.424 10.537-30.845 4.762-49.408z" fill="#0089ef"/><path d="m34.443 64.519c3.936 2.374 8.548 2.91 12.911 2.589 9.742-.718 19.549-.718 29.291 0 4.363.322 8.975-.214 12.911-2.589 11.491-6.931 3.473-46.72-8.285-53.675-17.971-10.629-20.572-10.629-38.543 0-11.758 6.955-19.776 46.744-8.285 53.675z" fill="#fff"/><path d="m37.443 67.519c3.936 2.374 8.548 2.91 12.911 2.589 9.742-.718 19.549-.718 29.291 0 4.363.322 8.975-.214 12.911-2.589 11.491-6.931 3.473-46.72-8.285-53.675-17.971-10.629-20.572-10.629-38.543 0-11.758 6.955-19.776 46.744-8.285 53.675z" fill="#0089ef"/><path d="m84.4 31.267c0-.17-.008-.339-.023-.505-.339-3.756-4.844-5.552-7.86-3.289-2.084 1.562-4.618 2.407-7.222 2.407h-14.589c-2.604 0-5.138-.845-7.222-2.407-3.017-2.262-7.522-.466-7.86 3.289-.015.166-.023.335-.023.505v6.239c0 3.063 2.483 5.546 5.546 5.546 3.063 0 5.546 2.483 5.546 5.546v1.547c0 6.244 5.062 11.306 11.306 11.306 6.244 0 11.306-5.062 11.306-11.306v-1.547c0-3.063 2.483-5.546 5.546-5.546 3.063 0 5.546-2.483 5.546-5.546v-6.239z" fill="#ffd7e5"/><g fill="#3a2c60"><path d="m95.132 31.359c2.247 0 4.075 1.828 4.075 4.075 0 1.636-.976 3.042-2.372 3.689.132.671.256 1.342.369 2.014 2.331-.85 4.003-3.081 4.003-5.703 0-3.35-2.726-6.075-6.075-6.075-.306 0-.604.03-.898.074.222.642.436 1.292.642 1.952.086-.005.168-.026.256-.026z"/><path d="m106.383 103.284c0-7.382-3.497-13.896-8.954-16.764-1.448-7.934-4.138-13.658-6.993-17.94-.639.272-1.288.506-1.948.702.478.7.949 1.458 1.415 2.244-.034.161-.043.329.01.498 4.916 15.801 2.252 38.763-1.875 45.941-.601 1.046-1.226 1.734-1.801 2.036h-2.577l.353-3.827c.051-.55-.354-1.037-.904-1.088-.557-.047-1.037.355-1.088.904l-.37 4.011h-2.641l.375-4.061c.051-.55-.354-1.037-.904-1.088-.553-.049-1.037.355-1.088.904l-.389 4.211-2.878-.053c-.559-.028-.954-.355-1.188-.626-.536-.618-.81-1.581-.742-2.596 4.717-13.263 6.102-23.945 4.233-32.657-.115-.539-.641-.886-1.188-.768-.54.115-.884.647-.768 1.188 1.794 8.364.418 18.73-4.206 31.69-.028.079-.047.16-.055.244-.123 1.339.18 2.606.806 3.61h-18.211c.626-1.005.929-2.271.806-3.61-.008-.084-.026-.165-.055-.244-4.624-12.96-6-23.326-4.206-31.69.116-.54-.228-1.072-.768-1.188-.547-.118-1.071.229-1.188.768-1.868 8.712-.483 19.395 4.233 32.657.067 1.015-.206 1.978-.742 2.596-.234.271-.63.598-1.156.625l-2.91.053-.389-4.211c-.051-.55-.528-.96-1.088-.904-.55.051-.955.538-.904 1.088l.375 4.061h-2.641l-.37-4.011c-.051-.55-.532-.958-1.088-.904-.55.051-.955.538-.904 1.088l.353 3.827h-2.577c-.575-.302-1.2-.99-1.801-2.036-4.127-7.179-6.791-30.141-1.875-45.941.02-.065.013-.129.02-.194.944-1.604 1.952-3.171 3.022-4.668-.279-.202-.547-.421-.803-.659 2.623 1.12 5.614 1.689 8.948 1.689.759 0 1.535-.029 2.328-.088 3.015-.222 6.071-.376 9.084-.459.553-.016.987-.476.973-1.027-.016-.543-.46-.973-.999-.973-.01 0-.02 0-.028 0-3.044.084-6.131.24-9.176.465-4.889.356-9.032-.465-12.321-2.448-3.317-2.001-5.126-7.453-5.092-15.353.06-13.582 5.789-32.122 13.369-36.605 17.711-10.475 19.814-10.475 37.525 0 7.58 4.483 13.31 23.023 13.369 36.605.034 7.899-1.774 13.352-5.092 15.353-3.29 1.984-7.438 2.808-12.32 2.448-1.486-.11-2.975-.202-4.463-.279-.544-.021-1.022.396-1.051.947-.028.552.396 1.022.947 1.051 1.475.075 2.947.167 4.419.275 5.306.395 9.85-.526 13.501-2.729 5.056-3.05 6.085-10.968 6.059-17.074-.062-14.144-5.97-33.36-14.351-38.316-18.301-10.827-21.26-10.825-39.561 0-4.939 2.921-9.017 10.794-11.548 19.663-.571-.18-1.173-.288-1.803-.288-3.35 0-6.074 2.726-6.074 6.075 0 3.158 2.423 5.758 5.507 6.045-.274 2.347-.423 4.645-.433 6.822-.026 6.106 1.003 14.024 6.059 17.074.428.258.87.494 1.322.717-4.6 6.431-8.131 13.947-9.734 21.05-4.883 3.159-7.897 9.298-7.897 16.142 0 3.837.948 7.484 2.748 10.593-.704 1.122-1.073 2.401-1.073 3.739 0 2.418 1.968 4.386 4.386 4.386h13.467c.116.041.232.081.35.108.073.017.148.025.224.025h.019l7.281-.134h33.776l7.293.134h.019c.075 0 .15-.009.224-.025.118-.027.234-.068.35-.108h14.453c2.418 0 4.386-1.968 4.386-4.386 0-1.61-.537-3.144-1.527-4.39 1.564-2.97 2.389-6.391 2.389-9.942zm-81.589-67.85c0-2.247 1.828-4.075 4.074-4.075.449 0 .878.08 1.282.216-.668 2.607-1.201 5.272-1.584 7.903-2.103-.158-3.772-1.901-3.772-4.044zm-3.502 82.182c0-1.125.365-2.193 1.056-3.09.256-.331.277-.787.056-1.142-1.823-2.909-2.786-6.402-2.786-10.101 0-6.223 2.866-11.978 7.301-14.661.235-.143.402-.376.46-.645.617-2.86 1.604-5.834 2.854-8.792-2.334 14.651-.325 32.564 3.822 39.776.22.382.446.724.677 1.039h-6.156v-3.732c0-.553-.447-1-1-1s-1 .447-1 1v3.732h-2.896c-1.318.002-2.388-1.068-2.388-2.384zm79.841 2.386h-3.046v-3.732c0-.553-.447-1-1-1s-1 .447-1 1v3.732h-6.993c.23-.315.457-.657.677-1.039 4.07-7.08 6.077-24.467 3.942-38.961.729 2.217 1.362 4.645 1.834 7.359.056.319.262.592.554.731 4.954 2.368 8.282 8.474 8.282 15.192 0 3.456-.855 6.768-2.473 9.576-.225.389-.162.88.152 1.2.939.955 1.456 2.218 1.456 3.556.001 1.316-1.07 2.386-2.385 2.386z"/><path d="m61.741 65.57c-.552.001-.999.449-.998 1.002.001.552.448.998 1 .998h.002c1.931-.001 3.241.022 5.131.075h.028c.539 0 .983-.43.999-.973.015-.552-.421-1.012-.973-1.027-1.909-.052-3.243-.078-5.189-.075z"/><path d="m56.499 38.521c0-1.098-.89-1.988-1.988-1.988s-1.988.89-1.988 1.988.89 1.988 1.988 1.988 1.988-.89 1.988-1.988z"/><path d="m71.478 38.521c0-1.098-.89-1.988-1.988-1.988s-1.988.89-1.988 1.988.89 1.988 1.988 1.988 1.988-.89 1.988-1.988z"/><path d="m67.44 54.419c-.553 0-1 .447-1 1 0 .948-.771 1.72-1.721 1.72-.948 0-1.72-.771-1.72-1.72v-7.845c1.563-.44 2.72-1.864 2.72-3.566 0-.553-.447-1-1-1s-1 .447-1 1c0 .948-.771 1.72-1.72 1.72s-1.72-.771-1.72-1.72c0-.553-.447-1-1-1s-1 .447-1 1c0 1.702 1.156 3.126 2.72 3.566v7.845c0 .948-.771 1.72-1.72 1.72s-1.72-.771-1.72-1.72c0-.553-.447-1-1-1s-1 .447-1 1c0 2.051 1.669 3.72 3.72 3.72 1.077 0 2.04-.467 2.72-1.201.68.734 1.643 1.201 2.72 1.201 2.052 0 3.721-1.669 3.721-3.72 0-.553-.447-1-1-1z"/></g></svg>