<svg id="Layer_1" enable-background="new 0 0 128 128" height="512" viewBox="0 0 128 128" width="512" xmlns="http://www.w3.org/2000/svg"><path d="m103.154 118.205c-.277-.623-.613-1.169-.999-1.631 1.058-1.666 1.948-3.531 2.581-5.58 2.139-6.922 1.543-14.734-1.989-18.881-1.138-8.09-4.826-16.058-9.322-21.646.761-.641 1.471-1.348 2.09-2.171.843-1.122 1.519-2.374 2.051-3.72h4.397c.553 0 1-.448 1-1s-.447-1-1-1h-3.725c.314-1.124.543-2.298.702-3.504h3.023c.553 0 1-.448 1-1s-.447-1-1-1h-2.821c.079-1.152.1-2.324.073-3.504h2.748c.553 0 1-.448 1-1s-.447-1-1-1h-2.841c-.437-6.53-2.198-13.073-3.845-17.445-1.358-3.609-2.995-6.789-4.873-9.469 1.663-1.031 3.05-2.462 4.048-4.191.94-1.628.668-2.904.273-3.688-1.418-2.821-6.672-3.786-8.305-4.021-1.053-1.314-4.636-5.503-7.883-5.293-.872.055-2.105.457-3.033 2.063-.941 1.631-1.484 3.438-1.595 5.281-.199-.007-.393-.011-.581-.012-1.013-.003-3.752-.001-6.798.003l-1.951.002c-3.766.003-7.535.006-8.752-.005-.578-.005-1.165.018-1.75.07-.103-1.861-.648-3.687-1.602-5.339-.927-1.605-2.124-1.964-2.964-1.982-3.106-.075-6.356 4.393-7.378 5.9-1.823.136-7.361.768-8.839 3.468-.403.737-.69 1.952.234 3.553 1.16 2.009 2.869 3.632 4.89 4.667-1.059 1.55-2.033 3.249-2.903 5.065-.239.498-1.465 3.419-1.654 3.938-.549 1.507-1.061 3.1-1.521 4.734-.15.531-1.238 5.107-1.344 5.649-.379 1.958-.753 4.409-.933 7.052h-3.171c-.552 0-1 .448-1 1s.448 1 1 1h3.075c-.029 1.154-.012 2.329.063 3.504h-3.137c-.552 0-1 .448-1 1s.448 1 1 1h3.331c.15 1.191.374 2.365.681 3.504h-4.012c-.552 0-1 .448-1 1s.448 1 1 1h4.662c.672 1.751 1.579 3.373 2.818 4.75.674.748 1.42 1.403 2.236 1.967-3.356 5.243-5.875 11.613-6.869 17.803-3.813 4.179-4.819 12.371-2.434 20.092.629 2.038 1.5 3.949 2.594 5.697-1.992 1.109-3.909 3.259-3.778 7.424.017.54.459.969 1 .969h3.04c-.026.354-.052.708-.04 1.1h14.29c1.63.281 3.279.22 4.875-.273 1.404-.434 2.661-1.155 3.751-2.106 4.228 1.16 9.237 1.811 15.143 1.811 5.261 0 9.8-.523 13.72-1.455.491.235.993.444 1.513.605.449.139.907.241 1.37.321.606.337 1.247.615 1.924.824 1.597.493 3.245.554 4.875.273h14.29c.103-3.207-1.127-5.078-2.719-6.173z" fill="#e6e7e8"/><path d="m94.624 110.399c1.301-1.859 2.373-4.016 3.111-6.405 2.139-6.922 1.543-14.734-1.989-18.881-.971-6.903-3.8-13.717-7.401-19.042-2.656 2.025-6.351 3.091-11.396 2.697-6.073-.475-14.678-8.699-16.379-8.699-1.173 0-10.258 8.168-16.379 8.699-4.57.397-8.028-.408-10.61-2.042-3.316 5.103-5.916 11.465-6.902 17.932-3.905 4.005-4.64 12.147-2.418 19.337.738 2.389 1.81 4.546 3.111 6.405-2.251.87-4.382 2.792-4.251 6.979h14.29c1.63.281 3.279.22 4.875-.273 1.404-.434 2.661-1.155 3.751-2.106 4.228 1.16 9.237 1.811 15.143 1.811 5.779 0 10.696-.625 14.867-1.738 1.07.913 2.295 1.611 3.661 2.033 1.597.493 3.245.554 4.875.273h14.29c.133-4.187-1.998-6.11-4.249-6.98z" fill="#fff"/><path d="m97.624 113.399c1.301-1.859 2.373-4.016 3.111-6.405 2.139-6.922 1.543-14.734-1.989-18.881-1.19-8.464-5.17-16.8-9.949-22.41-2.682 2.262-6.508 3.482-11.848 3.064-6.073-.475-14.678-8.699-16.379-8.699-1.173 0-10.258 8.168-16.379 8.699-2.567.223-4.777.06-6.686-.408-3.754 5.306-6.75 12.241-7.826 19.297-3.905 4.005-4.64 12.147-2.418 19.337.738 2.389 1.81 4.546 3.111 6.405-2.251.87-4.382 2.792-4.251 6.979h14.29c1.63.281 3.279.22 4.875-.273 1.404-.434 2.661-1.155 3.751-2.106 4.228 1.16 9.237 1.811 15.143 1.811 5.779 0 10.696-.625 14.867-1.738 1.07.913 2.295 1.611 3.661 2.033 1.597.493 3.245.554 4.875.273h14.29c.133-4.185-1.998-6.108-4.249-6.978z" fill="#6dc9f7"/><path d="m75.722 104.043c-.964-.191-1.691-1.04-1.691-2.06v-6.24c-2.553-7.841-7.43-13.145-13.031-13.145-4.862 0-9.179 3.996-11.904 10.179v9.205c0 1.161-.941 2.102-2.102 2.102h-.721c-.129 1.354-.198 2.742-.198 4.159 0 2.738.252 5.373.715 7.847 4.069 1.037 8.828 1.621 14.393 1.621 5.392 0 10.025-.55 14.009-1.527.474-2.501.733-5.169.733-7.941 0-1.431-.072-2.833-.203-4.2z" fill="#ffd7e5"/><path d="m27.979 40.708c-2.618 13.501-1.337 29.584 16.214 28.06 6.121-.531 15.206-8.699 16.379-8.699 1.7 0 10.306 8.224 16.379 8.699 22.333 1.746 18.421-24.933 13.391-38.292-1.342-3.561-3.12-7.112-5.412-10.148 1.866-.913 3.516-2.391 4.655-4.365 2.91-5.041-7.701-6.27-7.701-6.27s-6.604-8.71-9.514-3.669c-1.072 1.857-1.542 3.886-1.476 5.846-.514-.045-1.035-.075-1.57-.077-1.224-.004-4.983.001-8.743.005-3.771.004-7.543.006-8.763-.005-.941-.008-1.851.062-2.733.196.09-1.997-.381-4.07-1.475-5.965-2.91-5.041-8.917 4.386-8.917 4.386s-11.209.513-8.298 5.554c1.318 2.283 3.316 3.905 5.546 4.751-1.361 1.842-2.535 3.852-3.523 5.914-1.87 3.715-3.246 8.67-4.439 14.079z" fill="#6dc9f7"/><path d="m54.333 11.801v31.108c0 3.296-1.264 6.403-3.315 8.939-2.1 2.597-3.225 6.051-2.792 9.782.216 1.859.853 3.59 1.776 5.125 4.916-2.578 9.737-6.686 10.569-6.686 1.213 0 5.942 4.178 10.758 6.749 1.199-1.967 1.908-4.278 1.908-6.77 0-3.042-1.031-5.833-2.751-8.034-2.129-2.723-3.448-6.018-3.448-9.51v-30.703h-10.879c-.314 0-.622 0-.916 0-.271 0-.539 0-.794 0z" fill="#ffd7e5"/><path d="m42.714 11.879c-.848 1.515-2.401 2.499-4.137 2.456-2.3-.058-4.765.188-3.476 1.681.124.143.25.275.377.397 1.623 1.544 4.168 1.591 6.008.314l2.498-1.734c.657-.456 1.142-1.118 1.384-1.881.379-1.194.636-2.793-.757-2.697-.858.058-1.47.701-1.897 1.464z" fill="#ffd7e5"/><path d="m78.658 11.879c.848 1.515 2.401 2.499 4.137 2.456 2.3-.058 4.765.188 3.476 1.681-1.138 1.318-2.478 1.684-3.516 1.728-.889.038-1.76-.248-2.491-.755l-3.015-2.093c-.541-.375-.947-.911-1.162-1.533-.417-1.205-.82-3.052.674-2.949.858.059 1.469.702 1.897 1.465z" fill="#ffd7e5"/><g fill="#3a2c60"><path d="m96.097 110.886c1.094-1.749 1.965-3.66 2.594-5.696 2.3-7.443 1.493-15.265-1.994-19.597-.976-6.593-3.69-13.376-7.324-18.856.887-.701 1.696-1.503 2.4-2.439.843-1.122 1.519-2.374 2.052-3.72h4.396c.553 0 1-.448 1-1s-.447-1-1-1h-3.724c.314-1.124.543-2.298.702-3.504h3.021c.553 0 1-.448 1-1s-.447-1-1-1h-2.82c.079-1.152.1-2.324.073-3.504h2.747c.553 0 1-.448 1-1s-.447-1-1-1h-2.84c-.437-6.53-2.199-13.073-3.845-17.445-1.358-3.609-2.995-6.789-4.873-9.47 1.663-1.031 3.049-2.462 4.048-4.191.94-1.628.668-2.904.273-3.688-1.418-2.821-6.672-3.785-8.305-4.02-1.053-1.314-4.648-5.502-7.883-5.293-.872.055-2.105.457-3.033 2.063-.941 1.63-1.484 3.437-1.595 5.281-.199-.007-.393-.012-.581-.012-1.012-.002-3.753 0-6.799.003l-1.95.002c-3.766.005-7.534.006-8.753-.005-.585-.008-1.166.018-1.749.07-.103-1.861-.648-3.687-1.602-5.339-.926-1.607-2.123-1.966-2.963-1.984-3.063-.06-6.356 4.393-7.378 5.9-1.823.136-7.362.768-8.839 3.468-.403.737-.69 1.952.234 3.553 1.16 2.009 2.869 3.632 4.89 4.667-1.058 1.549-2.032 3.248-2.903 5.066-.239.498-.028 1.095.47 1.334.498.24 1.096.029 1.334-.47 1.01-2.108 2.163-4.043 3.426-5.752.186-.251.244-.576.155-.876-.088-.301-.312-.542-.605-.653-2.099-.796-3.887-2.329-5.035-4.316-.499-.863-.36-1.322-.212-1.593.86-1.573 5.173-2.345 7.69-2.462.325-.015.623-.188.797-.461 1.438-2.254 4.212-5.406 5.902-5.406h.03c.308.007.775.116 1.275.982.963 1.667 1.427 3.541 1.342 5.42-.013.299.108.588.331.789.222.2.522.29.819.245.854-.13 1.71-.197 2.574-.185 1.221.011 4.999.009 8.772.005l1.95-.002c3.041-.003 5.778-.007 6.789-.003.507.002 1 .031 1.487.073.287.026.567-.073.775-.271.207-.197.32-.473.311-.759-.063-1.847.402-3.684 1.343-5.313.524-.908 1.064-1.044 1.426-1.066 1.912-.123 4.955 2.905 6.425 4.84.165.217.411.357.682.389 2.328.272 6.334 1.324 7.17 2.988.162.324.316.861-.22 1.789-.999 1.731-2.462 3.103-4.229 3.966-.269.131-.464.375-.533.666s-.006.597.175.835c2.048 2.712 3.821 6.043 5.273 9.899 1.911 5.077 3.322 11.081 3.693 16.74h-2.911c-.553 0-1 .448-1 1s.447 1 1 1h2.996c.024 1.196-.001 2.367-.086 3.504h-2.91c-.553 0-1 .448-1 1s.447 1 1 1h2.694c-.175 1.229-.422 2.405-.76 3.504h-1.934c-.553 0-1 .448-1 1s.447 1 1 1h1.173c-.41.91-.879 1.765-1.445 2.519-2.676 3.562-7.018 5.138-12.887 4.675-3.616-.282-8.546-3.767-11.809-6.073-.096-.068-.176-.124-.268-.189.403-.049.795-.127 1.163-.268 1.859-.712 2.515-2.355 2.542-2.425.197-.51-.054-1.079-.563-1.283-.505-.205-1.088.043-1.298.55-.016.037-.394.92-1.427 1.302-.933.343-2.18.177-3.627-.471v-2.071c0-.109-.03-.21-.062-.309l2.918-2.918c.427-.427.125-1.156-.479-1.156h-6.752c-.604 0-.906.73-.479 1.156l2.917 2.917c-.033.099-.062.199-.062.309v1.802c-.048.016-.098.017-.145.04-1.655.84-3.079 1.083-4.113.7-1.023-.377-1.403-1.247-1.426-1.301-.204-.509-.781-.759-1.29-.562-.515.2-.771.779-.571 1.294.027.07.683 1.713 2.542 2.425.505.193 1.049.287 1.619.307-3.33 2.341-8.525 5.899-12.254 6.223-5.441.472-9.561-.801-12.246-3.784-.899-.999-1.598-2.158-2.153-3.411h.961c.552 0 1-.448 1-1s-.448-1-1-1h-1.704c-.338-1.125-.574-2.303-.735-3.504h2.441c.552 0 1-.448 1-1s-.448-1-1-1h-2.641c-.077-1.171-.097-2.346-.064-3.504h2.706c.552 0 1-.448 1-1s-.448-1-1-1h-2.607c.18-2.494.539-4.815.898-6.671.105-.542-.25-1.067-.792-1.172-.543-.103-1.067.25-1.172.792-.38 1.958-.753 4.409-.933 7.052h-3.171c-.552 0-1 .448-1 1s.448 1 1 1h3.075c-.029 1.154-.012 2.329.063 3.504h-3.138c-.552 0-1 .448-1 1s.448 1 1 1h3.331c.15 1.191.374 2.365.681 3.504h-4.012c-.552 0-1 .448-1 1s.448 1 1 1h4.662c.672 1.751 1.579 3.373 2.818 4.749.628.698 1.326 1.307 2.079 1.845-3.4 5.269-5.967 11.681-6.969 17.926-3.813 4.179-4.819 12.371-2.434 20.092.629 2.037 1.5 3.949 2.594 5.697-1.992 1.109-3.909 3.259-3.778 7.424.017.54.459.969 1 .969h14.206c1.827.302 3.595.195 5.254-.318 1.339-.414 2.58-1.072 3.698-1.961 4.351 1.136 9.361 1.711 14.901 1.711 5.421 0 10.339-.552 14.627-1.643 1.099.856 2.309 1.492 3.605 1.893 1.046.323 2.135.485 3.254.485.657 0 1.324-.056 2-.167h14.206c.54 0 .982-.429.999-.969.133-4.163-1.783-6.313-3.775-7.422zm-11.512 6.393c-.057 0-.113.005-.17.015-1.543.265-3.027.185-4.41-.244-1.198-.37-2.312-.988-3.307-1.838-.184-.156-.414-.239-.649-.239-.086 0-.173.011-.258.034-4.236 1.131-9.151 1.705-14.609 1.705-5.578 0-10.583-.597-14.878-1.775-.324-.09-.669-.01-.922.21-1.011.881-2.151 1.521-3.39 1.904-1.382.427-2.866.508-4.41.244-.056-.01-.113-.015-.17-.015h-13.276c.163-2.499 1.331-4.146 3.543-5.022.304-.059 1.836-.284 3.149.909.192.174.433.26.672.26.272 0 .543-.11.74-.327.372-.409.342-1.041-.067-1.413-1.558-1.416-3.327-1.534-4.304-1.463-1.126-1.71-2.025-3.593-2.652-5.625-2.19-7.087-1.274-14.801 2.179-18.343.146-.15.241-.341.272-.547.931-6.105 3.425-12.392 6.743-17.511 2.194 1.105 4.795 1.671 7.8 1.671.75 0 1.525-.035 2.324-.104 4.44-.385 10.007-4.307 13.691-6.902 1.036-.729 2.198-1.548 2.65-1.767.578.21 2.16 1.328 3.446 2.236 3.647 2.578 8.642 6.108 12.807 6.434 4.239.331 7.774-.32 10.592-1.914 3.515 5.299 6.134 11.898 7.035 18.302.026.188.105.365.229.509 3.17 3.722 3.907 11.098 1.795 17.937-.627 2.027-1.524 3.906-2.646 5.613-1.009-.032-2.627.167-4.065 1.475-.408.372-.438 1.004-.067 1.413.197.217.469.327.74.327.24 0 .481-.086.673-.26 1.043-.947 2.229-.997 2.827-.949.008.003.013.011.022.015 2.25.87 3.433 2.526 3.598 5.047h-13.277z"/><path d="m49.096 84.139c-.552 0-1 .448-1 1v16.844c0 .607-.494 1.102-1.102 1.102h-.705v-2.382c0-.552-.448-1-1-1s-1 .448-1 1v2.382h-1.768v-2.382c0-.552-.448-1-1-1s-1 .448-1 1v2.382h-2.674c-.188-.675-.059-2.649.056-4.409.266-4.071.668-10.222-1-16.34-.146-.533-.698-.849-1.228-.702-.533.146-.847.695-.702 1.228 1.581 5.794 1.207 11.51.934 15.683-.221 3.372-.342 5.229.596 6.111.302.285.692.435 1.118.435.052 0 .105-.002.159-.007h9.214c1.71 0 3.102-1.391 3.102-3.102v-16.843c0-.553-.448-1-1-1z"/><path d="m87.45 81.633c-.528-.143-1.082.168-1.228.702-1.668 6.117-1.266 12.269-1 16.339.115 1.761.245 3.735.057 4.41h-2.674v-2.382c0-.552-.447-1-1-1s-1 .448-1 1v2.382h-1.768v-2.382c0-.552-.447-1-1-1s-1 .448-1 1v2.382h-.705c-.608 0-1.103-.494-1.103-1.102v-16.843c0-.552-.447-1-1-1s-1 .448-1 1v16.844c0 1.71 1.392 3.102 3.103 3.102h9.213c.054.005.107.007.16.007.425 0 .815-.15 1.117-.435.938-.883.816-2.74.596-6.112-.272-4.173-.646-9.888.934-15.682.146-.534-.168-1.084-.702-1.23z"/><path d="m51.484 43.326c0-1.64-1.329-2.969-2.969-2.969s-2.969 1.329-2.969 2.969 1.329 2.969 2.969 2.969 2.969-1.33 2.969-2.969z"/><path d="m77.016 43.326c0-1.64-1.329-2.969-2.969-2.969s-2.969 1.329-2.969 2.969 1.329 2.969 2.969 2.969 2.969-1.33 2.969-2.969z"/><path d="m29.29 36.101c.09.026.182.038.271.038.437 0 .838-.289.962-.729.449-1.593.945-3.138 1.475-4.59.189-.519-.078-1.093-.597-1.282-.519-.19-1.093.078-1.282.597-.547 1.5-1.059 3.092-1.521 4.734-.15.53.16 1.083.692 1.232z"/></g></svg>