<svg id="Layer_1" enable-background="new 0 0 128 128" height="512" viewBox="0 0 128 128" width="512" xmlns="http://www.w3.org/2000/svg"><path d="m101.155 117.361c1.095-1.749 1.965-3.66 2.594-5.697 2.3-7.443 1.493-15.265-1.994-19.597-.984-6.649-3.725-13.507-7.403-19.011.813-.667 1.566-1.413 2.221-2.284.843-1.122 1.519-2.374 2.052-3.72h4.397c.553 0 1-.448 1-1s-.447-1-1-1h-3.726c.314-1.124.543-2.298.703-3.504h3.023c.553 0 1-.448 1-1s-.447-1-1-1h-2.822c.079-1.152.1-2.324.073-3.504h2.748c.553 0 1-.448 1-1s-.447-1-1-1h-2.842c-.436-6.53-2.198-13.073-3.844-17.445-1.341-3.559-2.953-6.695-4.797-9.353.206-.183.395-.386.588-.587 1.364-.982 2.524-2.232 3.384-3.721 3.181-5.51 1.52-12.446-3.704-15.462-5.224-3.016-12.061-.988-15.244 4.524-.941 1.631-1.484 3.438-1.595 5.281-.199-.007-.393-.012-.581-.012-1.011-.003-3.753 0-6.798.003l-1.95.002c-3.766.004-7.535.006-8.753-.005-.57-.004-1.165.018-1.749.07-.103-1.861-.647-3.687-1.602-5.339-3.183-5.511-10.021-7.541-15.244-4.523-5.224 3.017-6.885 9.953-3.704 15.462.877 1.518 2.068 2.813 3.47 3.804.397.408.823.775 1.27 1.106-1 1.489-1.926 3.1-2.752 4.824-.238.498-1.464 3.417-1.653 3.937-.548 1.501-1.061 3.094-1.522 4.734-.149.531-1.237 5.108-1.343 5.65-.38 1.958-.754 4.409-.933 7.052h-3.17c-.553 0-1 .448-1 1s.447 1 1 1h3.074c-.029 1.154-.012 2.329.063 3.504h-3.137c-.553 0-1 .448-1 1s.447 1 1 1h3.33c.15 1.191.374 2.365.681 3.504h-4.012c-.553 0-1 .448-1 1s.447 1 1 1h4.662c.672 1.751 1.579 3.373 2.818 4.749.674.748 1.42 1.404 2.237 1.968-3.355 5.243-5.875 11.613-6.869 17.803-3.813 4.178-4.819 12.371-2.433 20.092.629 2.038 1.499 3.949 2.594 5.697-1.992 1.109-3.909 3.259-3.779 7.423.018.54.46.969 1 .969h14.207c.676.112 1.344.168 2.001.168 1.119 0 2.207-.162 3.253-.485 1.339-.414 2.58-1.072 3.698-1.961 4.352 1.136 9.361 1.711 14.901 1.711 5.421 0 10.339-.552 14.627-1.643 1.099.856 2.309 1.492 3.605 1.893 1.661.514 3.431.62 5.255.317h14.206c.54 0 .982-.429 1-.969.129-4.166-1.788-6.315-3.78-7.425z" fill="#e6e7e8"/><path d="m95.683 113.774c1.301-1.859 2.373-4.016 3.111-6.405 2.139-6.922 1.543-14.734-1.989-18.881-1.007-7.163-4.013-14.233-7.809-19.639-2.623 1.829-6.198 2.768-10.988 2.394-2.81-.22-6.158-2.1-9.118-4.056v.826c0 1.957-1.587 3.544-3.544 3.544s-3.544-1.587-3.544-3.544v-4.763h1.356c-.692-.435-1.225-.706-1.529-.706-.211 0-.684.271-1.342.706h1.194v4.763c0 1.957-1.587 3.544-3.544 3.544-1.957 0-3.544-1.587-3.544-3.544v-.734c-2.982 1.909-6.365 3.723-9.142 3.964-4.322.375-7.649-.326-10.182-1.784-3.519 5.206-6.302 11.832-7.33 18.573-3.905 4.005-4.64 12.147-2.418 19.337.738 2.389 1.81 4.546 3.111 6.405-2.251.87-4.382 2.792-4.251 6.979h14.29c1.63.281 3.279.22 4.875-.273 1.404-.434 2.661-1.155 3.751-2.106 4.228 1.16 9.237 1.811 15.143 1.811 5.779 0 10.696-.625 14.867-1.738 1.07.913 2.295 1.611 3.661 2.033 1.597.493 3.245.554 4.875.273h14.29c.132-4.186-2-6.108-4.25-6.979z" fill="#fa759e"/><path d="m76.78 106.518c-.964-.191-1.691-1.04-1.691-2.06v-6.24c-2.553-7.841-7.43-13.145-13.031-13.145-4.862 0-9.179 3.996-11.904 10.179v9.205c0 1.161-.941 2.102-2.102 2.102h-.721c-.129 1.354-.198 2.742-.198 4.159 0 2.738.252 5.373.715 7.847 4.069 1.037 8.828 1.621 14.393 1.621 5.392 0 10.025-.55 14.009-1.527.474-2.501.733-5.169.733-7.941 0-1.431-.071-2.833-.203-4.2z" fill="#ffd7e5"/><path d="m91.4 32.952c-1.341-3.562-3.119-7.113-5.411-10.149 1.867-.913 3.516-2.391 4.655-4.365 2.91-5.041 1.416-11.352-3.338-14.096s-10.967-.884-13.877 4.157c-1.072 1.857-1.542 3.886-1.476 5.846-.514-.045-1.035-.075-1.57-.077-1.224-.004-4.983.001-8.743.005-3.771.004-7.543.006-8.763-.005-.941-.008-1.851.062-2.733.196.09-1.997-.381-4.07-1.475-5.965-2.91-5.041-9.123-6.902-13.877-4.157s-6.248 9.056-3.338 14.096c1.318 2.283 3.316 3.905 5.546 4.751-2.201 2.978-3.912 6.396-5.14 9.762-4.894 13.424-9.042 40.239 13.391 38.292 2.777-.241 6.16-2.055 9.142-3.964v-4.029h5.894c.658-.435 1.132-.706 1.342-.706.304 0 .837.271 1.529.706h5.732v3.937c2.96 1.956 6.308 3.836 9.118 4.056 22.334 1.746 18.421-24.933 13.392-38.291z" fill="#fff"/><path d="m90.419 34.657c-1.297-3.444-3.016-6.878-5.232-9.814 1.805-.883 3.4-2.312 4.502-4.221 2.814-4.874 1.369-10.978-3.228-13.632s-10.605-.854-13.42 4.02c-1.037 1.796-1.491 3.758-1.427 5.653-.497-.043-1.001-.073-1.518-.074-1.183-.004-4.819.001-8.455.005-3.646.004-7.294.006-8.474-.005-.91-.008-1.79.06-2.643.189.087-1.931-.369-3.936-1.426-5.768-2.814-4.874-8.822-6.674-13.419-4.02s-6.042 8.757-3.228 13.632c1.275 2.208 3.206 3.776 5.363 4.595-2.128 2.88-3.784 6.185-4.97 9.44-4.732 12.982-8.743 38.912 12.95 37.029 2.611-.227 5.778-1.89 8.602-3.679v-4.757h7.088v.068c.05-.015.114-.044.149-.044.046 0 .116.028.172.04v-.064h7.088v4.672c2.802 1.833 5.937 3.557 8.578 3.764 21.595 1.688 17.812-24.111 12.948-37.029z" fill="#ffd7e5"/><path d="m29.228 51.044h16.289c5.657 0 10.244-4.586 10.244-10.244v-24.204c-1.175-.001-2.103-.003-2.596-.007-.91-.008-1.79.06-2.643.189.087-1.931-.369-3.936-1.426-5.768-2.814-4.874-8.822-6.674-13.419-4.02s-6.042 8.757-3.228 13.632c1.275 2.208 3.206 3.776 5.363 4.595-2.128 2.88-3.784 6.185-4.97 9.44-1.633 4.479-3.179 10.499-3.614 16.387z" fill="#fa759e"/><path d="m89.688 20.621c2.814-4.874 1.369-10.978-3.228-13.632s-10.605-.854-13.42 4.02c-1.037 1.796-1.491 3.758-1.427 5.653-.497-.043-1.001-.073-1.518-.074-.381-.001-1.019-.002-1.827-.002v24.214c0 5.657 4.586 10.244 10.244 10.244h15.561c-.415-5.89-1.968-11.912-3.654-16.388-1.297-3.444-3.016-6.878-5.232-9.814 1.804-.883 3.399-2.312 4.501-4.221z" fill="#fa759e"/><ellipse cx="40.06" cy="13.468" fill="#ffd7e5" rx="4.938" ry="5.235" transform="matrix(.866 -.5 .5 .866 -1.367 21.835)"/><ellipse cx="82.036" cy="13.468" fill="#ffd7e5" rx="5.235" ry="4.938" transform="matrix(.5 -.866 .866 .5 29.354 77.78)"/><path d="m57.937 71.558c-1.957 0-3.544-1.587-3.544-3.544v-4.764h7.088v4.763c0 1.958-1.586 3.545-3.544 3.545z" fill="#fff"/><path d="m65.346 71.558c-1.957 0-3.544-1.587-3.544-3.544v-4.764h7.088v4.763c.001 1.958-1.586 3.545-3.544 3.545z" fill="#fff"/><g fill="#3a2c60"><path d="m97.155 113.361c1.094-1.749 1.965-3.66 2.594-5.696 2.3-7.443 1.493-15.265-1.994-19.597-.984-6.65-3.737-13.494-7.417-18.999.819-.67 1.577-1.42 2.236-2.297.843-1.122 1.519-2.374 2.052-3.72h4.396c.553 0 1-.448 1-1s-.447-1-1-1h-3.725c.314-1.124.543-2.298.702-3.504h3.022c.553 0 1-.448 1-1s-.447-1-1-1h-2.821c.079-1.152.1-2.324.073-3.504h2.748c.553 0 1-.448 1-1s-.447-1-1-1h-2.841c-.437-6.53-2.199-13.073-3.845-17.445-1.357-3.608-2.994-6.788-4.872-9.47 1.664-1.031 3.05-2.462 4.048-4.191 1.535-2.66 2.001-5.728 1.312-8.64-.695-2.933-2.477-5.356-5.017-6.823-5.227-3.016-12.063-.985-15.244 4.524-.941 1.63-1.484 3.437-1.595 5.281-.199-.007-.393-.012-.581-.012-1.012-.002-3.753-.001-6.798.003l-1.95.002c-3.769.004-7.534.005-8.753-.005-.581-.002-1.165.019-1.749.07-.103-1.86-.648-3.686-1.603-5.339-3.182-5.51-10.021-7.54-15.243-4.523-2.54 1.467-4.321 3.89-5.016 6.823-.689 2.912-.224 5.98 1.312 8.64 1.16 2.009 2.869 3.632 4.89 4.667-1.058 1.549-2.031 3.248-2.902 5.066-.239.498-.029 1.095.469 1.334.5.24 1.096.028 1.334-.47 1.011-2.108 2.163-4.043 3.426-5.752.187-.251.244-.576.155-.876-.088-.301-.312-.542-.604-.653-2.099-.796-3.887-2.329-5.034-4.316-1.279-2.216-1.67-4.766-1.099-7.179.566-2.392 2.012-4.363 4.07-5.551 4.271-2.466 9.882-.763 12.511 3.791.963 1.668 1.428 3.542 1.343 5.42-.014.299.107.588.33.789.222.2.519.29.819.245.855-.13 1.718-.2 2.574-.185 1.222.01 4.997.009 8.772.005l1.95-.002c3.043-.003 5.78-.006 6.788-.003.507.002 1.001.031 1.487.073.288.023.566-.073.775-.271.207-.197.32-.473.311-.759-.063-1.847.402-3.684 1.343-5.313 2.629-4.554 8.24-6.256 12.511-3.791 2.059 1.188 3.504 3.16 4.07 5.551.571 2.414.182 4.963-1.098 7.179-.999 1.73-2.461 3.102-4.229 3.966-.269.131-.464.375-.533.666-.069.29-.006.597.175.835 2.047 2.713 3.821 6.043 5.272 9.899 1.911 5.077 3.322 11.081 3.693 16.74h-2.91c-.553 0-1 .448-1 1s.447 1 1 1h2.995c.024 1.196-.001 2.367-.086 3.504h-2.909c-.553 0-1 .448-1 1s.447 1 1 1h2.693c-.175 1.229-.422 2.405-.76 3.504h-1.933c-.553 0-1 .448-1 1s.447 1 1 1h1.172c-.41.91-.879 1.765-1.445 2.519-2.676 3.562-7.018 5.137-12.887 4.675-2.44-.19-5.476-1.84-8.196-3.601v-2.876l1.881-1.754c.404-.376.427-1.009.05-1.414-.377-.403-1.011-.426-1.413-.049l-1.82 1.697h-5.147c-.232-.14-.442-.256-.637-.354v-2.578c0-.11-.03-.211-.062-.309l2.917-2.917c.427-.427.125-1.156-.479-1.156h-6.752c-.604 0-.906.73-.479 1.156l2.918 2.918c-.032.099-.062.199-.062.308v2.462c-.225.11-.491.266-.809.47h-5.206l-1.82-1.697c-.403-.376-1.035-.354-1.413.049-.377.404-.354 1.037.05 1.414l1.79 1.669v3.042c-2.753 1.725-5.802 3.31-8.229 3.52-5.433.476-9.56-.801-12.246-3.784-.899-.999-1.598-2.158-2.153-3.411h.962c.553 0 1-.448 1-1s-.447-1-1-1h-1.71c-.338-1.125-.574-2.303-.735-3.504h2.441c.553 0 1-.448 1-1s-.447-1-1-1h-2.642c-.077-1.171-.097-2.346-.064-3.504h2.706c.553 0 1-.448 1-1s-.447-1-1-1h-2.606c.18-2.494.538-4.815.898-6.671.105-.542-.249-1.067-.791-1.172-.542-.101-1.066.25-1.172.792-.38 1.958-.754 4.409-.933 7.052h-3.17c-.553 0-1 .448-1 1s.447 1 1 1h3.074c-.029 1.154-.012 2.329.063 3.504h-3.137c-.553 0-1 .448-1 1s.447 1 1 1h3.33c.15 1.191.374 2.365.681 3.504h-4.012c-.553 0-1 .448-1 1s.447 1 1 1h4.662c.672 1.751 1.579 3.373 2.818 4.749.678.753 1.429 1.413 2.251 1.979-3.357 5.243-5.889 11.599-6.884 17.792-3.812 4.178-4.819 12.37-2.434 20.092.629 2.038 1.5 3.949 2.595 5.697-1.992 1.109-3.909 3.259-3.779 7.424.018.54.46.969 1 .969h14.206c1.829.302 3.596.195 5.255-.318 1.338-.414 2.579-1.072 3.697-1.961 4.353 1.136 9.362 1.711 14.902 1.711 5.421 0 10.339-.552 14.627-1.643 1.099.856 2.309 1.492 3.605 1.893 1.046.323 2.135.485 3.254.485.657 0 1.324-.056 2-.167h14.206c.54 0 .982-.429.999-.969.132-4.165-1.784-6.315-3.776-7.424zm-34.352-49.111h5.088v3.763c0 1.403-1.142 2.544-2.544 2.544s-2.544-1.142-2.544-2.544zm-7.41 0h5.088v3.763c0 1.403-1.142 2.544-2.544 2.544s-2.544-1.142-2.544-2.544zm30.25 55.504c-.057 0-.113.005-.17.015-1.543.265-3.027.185-4.41-.244-1.198-.37-2.312-.988-3.307-1.838-.184-.156-.414-.239-.649-.239-.086 0-.173.011-.258.034-4.236 1.131-9.151 1.705-14.608 1.705-5.577 0-10.583-.597-14.879-1.775-.326-.088-.669-.009-.922.21-1.011.881-2.151 1.521-3.389 1.904-1.382.428-2.866.509-4.411.244-.057-.01-.113-.015-.17-.015h-13.276c.164-2.499 1.331-4.146 3.544-5.022.304-.059 1.834-.286 3.148.909.191.174.433.26.673.26.271 0 .543-.11.74-.327.371-.409.341-1.041-.067-1.413-1.556-1.415-3.326-1.533-4.303-1.463-1.126-1.709-2.026-3.593-2.654-5.624-2.225-7.203-1.328-14.746 2.18-18.343.146-.149.241-.341.272-.547.926-6.069 3.397-12.317 6.685-17.42 2.153 1.041 4.684 1.58 7.6 1.58.75 0 1.525-.035 2.325-.104 2.544-.221 5.455-1.605 8.172-3.234.455 2.029 2.263 3.552 4.427 3.552 1.531 0 2.881-.766 3.705-1.93.824 1.164 2.174 1.93 3.705 1.93 2.183 0 4.009-1.548 4.443-3.604 2.689 1.664 5.572 3.086 8.141 3.286 4.332.338 7.924-.357 10.773-2.03 3.554 5.318 6.204 11.968 7.111 18.418.026.188.105.365.229.509 3.17 3.722 3.907 11.098 1.795 17.937-.627 2.027-1.524 3.906-2.646 5.613-1.009-.032-2.626.167-4.065 1.474-.408.372-.438 1.004-.067 1.413.197.217.469.328.74.328.24 0 .481-.086.673-.26 1.043-.949 2.228-.998 2.826-.95.008.004.014.012.022.015 2.25.87 3.433 2.526 3.598 5.047h-13.276z"/><path d="m50.154 86.614c-.553 0-1 .448-1 1v16.844c0 .607-.494 1.102-1.102 1.102h-.705v-2.382c0-.552-.447-1-1-1s-1 .448-1 1v2.382h-1.767v-2.382c0-.552-.447-1-1-1s-1 .448-1 1v2.382h-2.674c-.188-.675-.059-2.649.056-4.41.267-4.07.668-10.222-1-16.339-.146-.533-.7-.845-1.228-.702-.533.146-.848.695-.702 1.228 1.58 5.794 1.207 11.51.935 15.683-.221 3.372-.342 5.229.596 6.112.302.285.692.435 1.117.435.053 0 .106-.002.159-.007h9.214c1.71 0 3.102-1.391 3.102-3.102v-16.844c-.001-.552-.448-1-1.001-1z"/><path d="m88.51 84.108c-.527-.145-1.082.168-1.228.702-1.668 6.117-1.267 12.269-1 16.339.114 1.76.244 3.735.056 4.41h-2.674v-2.382c0-.552-.447-1-1-1s-1 .448-1 1v2.382h-1.768v-2.382c0-.552-.447-1-1-1s-1 .448-1 1v2.382h-.705c-.607 0-1.102-.494-1.102-1.102v-16.843c0-.552-.447-1-1-1s-1 .448-1 1v16.844c0 1.71 1.392 3.102 3.102 3.102h9.213c.054.005.107.007.16.007.425 0 .815-.15 1.117-.435.938-.883.816-2.74.596-6.112-.272-4.173-.646-9.888.935-15.683.145-.533-.169-1.083-.702-1.229z"/><path d="m52.285 45.801c0-1.64-1.329-2.969-2.969-2.969s-2.969 1.329-2.969 2.969 1.329 2.969 2.969 2.969 2.969-1.33 2.969-2.969z"/><path d="m74.848 48.77c1.64 0 2.969-1.329 2.969-2.969s-1.329-2.969-2.969-2.969-2.969 1.329-2.969 2.969 1.329 2.969 2.969 2.969z"/><path d="m29.719 39.737c.091.025.182.038.271.038.437 0 .838-.289.962-.73.446-1.589 1.31-4.276 1.847-5.75.189-.519-.078-1.093-.597-1.282-.521-.19-1.094.079-1.282.597-.551 1.512-1.436 4.266-1.894 5.894-.149.531.16 1.083.693 1.233z"/></g></svg>