<svg id="Layer_1" enable-background="new 0 0 128 128" height="512" viewBox="0 0 128 128" width="512" xmlns="http://www.w3.org/2000/svg"><path d="m103.077 123.244c-.295 0-.592-.085-.856-.257l-7.953-5.149c-.094.053-.197.092-.309.112-.759.142-18.664 3.465-25.497 3.465-6.808 0-28.436-3.318-29.354-3.459-.121-.019-.236-.059-.34-.118l-8.082 5.093c-.574.36-1.286.322-1.817-.098-.53-.42-.73-1.104-.512-1.745l3.044-8.898-8.005 3.179c-.621.248-1.312.084-1.757-.416s-.527-1.204-.211-1.793l4.439-8.248-8.472 1.624c-.649.125-1.295-.159-1.641-.726-.345-.565-.305-1.268.104-1.79l5.719-7.32-8.693-.013c-.656-.001-1.232-.398-1.468-1.011-.234-.613-.071-1.293.416-1.732l6.812-6.142-8.635-1.682c-.641-.125-1.13-.621-1.247-1.263s.165-1.278.72-1.622l7.67-4.741-8.288-3.327c-.605-.243-.993-.82-.988-1.472.004-.651.399-1.224 1.008-1.458l8.27-3.196-7.672-4.876c-.552-.351-.826-.991-.7-1.631s.622-1.13 1.264-1.246l8.596-1.562-6.782-6.263c-.482-.447-.637-1.129-.395-1.739.244-.609.84-.96 1.48-.992l8.626.096-5.669-7.437c-.402-.526-.435-1.229-.082-1.791.352-.562.997-.839 1.649-.706l8.393 1.715-4.379-8.349c-.312-.592-.222-1.295.229-1.791.45-.496 1.144-.651 1.764-.396l7.923 3.26-2.969-8.986c-.213-.644-.003-1.327.532-1.74.535-.414 1.249-.444 1.817-.076l7.222 4.675-1.483-9.326c-.107-.675.213-1.318.816-1.638.605-.32 1.316-.226 1.814.243l6.338 5.947.013-9.375c.001-.678.435-1.277 1.077-1.491.646-.214 1.35.007 1.757.548l5.067 6.751.284-.07 1.427-8.782c.109-.672.636-1.196 1.309-1.302.682-.108 1.335.23 1.646.836l3.714 7.218.648-.05 2.623-7.884c.215-.645.814-1.077 1.493-1.077h.008c.683.003 1.282.442 1.491 1.092l2.534 7.855.647.057 3.814-7.214c.318-.602.99-.93 1.654-.816.672.114 1.192.643 1.294 1.316l1.33 8.778.26.067 5.189-6.751c.413-.538 1.125-.75 1.761-.529.641.221 1.067.825 1.062 1.502l-.089 9.324 6.445-5.909c.503-.462 1.216-.551 1.816-.222.601.327.914.973.799 1.647l-1.577 9.256 7.329-4.62c.571-.359 1.284-.322 1.814.096.531.419.733 1.104.515 1.744l-3.044 8.9 8.005-3.179c.622-.247 1.312-.083 1.757.416.445.5.527 1.204.211 1.793l-4.439 8.248 8.472-1.624c.655-.127 1.295.161 1.641.726.345.565.305 1.268-.104 1.79l-5.72 7.321 8.693.013c.656 0 1.232.397 1.468 1.01.234.613.071 1.293-.416 1.733l-6.812 6.142 8.635 1.682c.641.125 1.13.621 1.247 1.263s-.165 1.278-.72 1.622l-7.67 4.741 8.288 3.327c.604.243.992.82.988 1.471s-.399 1.224-1.007 1.458l-8.271 3.196 7.672 4.876c.552.352.826.992.7 1.632s-.622 1.129-1.264 1.245l-8.596 1.562 6.782 6.263c.482.447.637 1.129.395 1.739-.243.609-.783 1.002-1.48.992l-8.626-.096 5.669 7.438c.402.526.435 1.229.083 1.791-.353.562-.996.84-1.649.707l-8.395-1.716 4.38 8.35c.312.591.222 1.294-.229 1.79s-1.145.65-1.764.396l-7.923-3.26 2.97 8.987c.213.643.004 1.326-.532 1.739-.283.222-.62.333-.958.333zm16.706-27.72h.01zm2.814-11.261c-.001 0-.002 0-.002 0z" fill="#e6e7e8"/><path d="m117.776 80.247-9.436 1.714c-.466.085-.635.665-.287.987l7.409 6.842c.386.357.13 1.002-.396.996l-9.498-.106c-.478-.005-.753.542-.463.922l6.199 8.131c.322.422-.052 1.017-.572.911l-9.273-1.895c-.474-.097-.848.401-.624.829l4.797 9.144c.249.475-.231 1.002-.727.798l-8.78-3.612c-.454-.187-.918.245-.764.712l1.771 5.349 1.49 4.518c.17.515-.402.956-.857.662l-8.002-5.18-1.104-.715.118.715s-18.494 3.447-25.313 3.447c-6.81 0-29.202-3.447-29.202-3.447l.118-.697-1.104.697-8.121 5.117c-.458.289-1.025-.159-.85-.672l1.52-4.445 1.823-5.329c.159-.464-.3-.901-.755-.72l-8.865 3.521c-.498.198-.972-.334-.718-.806l4.864-9.037c.229-.426-.139-.927-.614-.836l-9.351 1.793c-.521.1-.887-.5-.561-.918l6.256-8.007c.294-.377.026-.927-.452-.928l-9.564-.014c-.526-.001-.774-.649-.384-1.001l7.444-6.714c.352-.317.19-.9-.275-.99l-9.471-1.844c-.513-.1-.637-.777-.192-1.052l8.386-5.185c.401-.248.349-.846-.088-1.021l-9.071-3.641c-.484-.194-.479-.881.007-1.069l9.058-3.5c.44-.17.499-.768.101-1.02l-8.384-5.329c-.441-.28-.309-.956.205-1.05l9.436-1.714c.466-.085.635-.665.287-.987l-7.409-6.842c-.386-.357-.13-1.002.396-.996l9.498.106c.478.005.753-.542.463-.922l-6.199-8.131c-.322-.422.052-1.017.572-.911l9.273 1.895c.474.097.848-.401.624-.829l-4.797-9.144c-.249-.475.231-1.002.727-.798l8.781 3.613c.454.187.918-.245.764-.711l-3.26-9.866c-.17-.515.402-.957.857-.662l8.023 5.194c.417.27.957-.081.879-.572l-1.634-10.269c-.086-.54.561-.883.96-.509l7.054 6.618c.366.344.966.084.967-.418l.014-10.357c.001-.551.702-.785 1.033-.344l5.465 7.279c.751-.185.817-.201 1.568-.386l1.533-9.434c.089-.547.824-.663 1.077-.171l4.018 7.81c.947-.073 1.025-.079 1.972-.152l2.833-8.514c.175-.526.921-.523 1.091.005l2.738 8.488c.946.083 1.024.09 1.97.172l4.124-7.801c.259-.49.992-.365 1.075.182l1.429 9.431c.737.19.802.207 1.539.397l5.592-7.276c.336-.437 1.035-.196 1.03.355l-.098 10.305c-.005.502.592.768.962.429l7.168-6.573c.403-.37 1.046-.02.954.52l-1.735 10.198c-.083.49.452.847.872.582l8.136-5.128c.458-.289 1.025.159.85.672l-3.343 9.774c-.159.464.3.901.755.72l8.865-3.521c.498-.198.972.334.718.806l-4.864 9.037c-.229.426.139.927.614.836l9.351-1.793c.521-.1.887.5.561.918l-6.256 8.007c-.294.377-.026.927.452.928l9.564.014c.526.001.774.649.384 1.001l-7.444 6.713c-.352.317-.19.9.275.99l9.471 1.844c.513.1.637.777.192 1.052l-8.386 5.185c-.401.248-.349.846.088 1.021l9.071 3.641c.484.194.479.881-.007 1.069l-9.058 3.5c-.44.17-.499.768-.101 1.02l8.384 5.328c.44.282.308.958-.206 1.051z" fill="#fff"/><path d="m120.776 83.247-9.436 1.714c-.466.085-.635.665-.287.987l7.409 6.842c.386.357.13 1.002-.396.996l-9.498-.106c-.478-.005-.753.542-.463.922l6.199 8.131c.322.422-.052 1.017-.572.911l-9.273-1.895c-.474-.097-.848.401-.624.829l4.797 9.144c.249.475-.231 1.002-.727.798l-8.78-3.612c-.454-.187-.918.245-.764.712l1.771 5.349 1.49 4.518c.17.515-.402.956-.857.662l-8.002-5.18h-.987s-18.494 3.447-25.313 3.447c-6.81 0-29.202-3.447-29.202-3.447h-.987l-8.121 5.117c-.458.289-1.025-.159-.85-.672l1.52-4.445 1.823-5.329c.159-.464-.3-.901-.755-.72l-8.865 3.521c-.498.198-.972-.334-.718-.806l4.864-9.037c.229-.426-.139-.927-.614-.836l-9.351 1.793c-.521.1-.887-.5-.561-.918l6.256-8.007c.294-.377.026-.927-.452-.928l-9.564-.014c-.526-.001-.774-.649-.384-1.001l7.444-6.714c.352-.317.19-.9-.275-.99l-9.471-1.844c-.513-.1-.637-.777-.192-1.052l8.386-5.185c.401-.248.349-.846-.088-1.021l-9.071-3.641c-.484-.194-.479-.881.007-1.069l9.058-3.5c.44-.17.499-.768.101-1.02l-8.384-5.329c-.441-.28-.309-.956.205-1.05l9.436-1.714c.466-.085.635-.665.287-.987l-7.409-6.842c-.386-.357-.13-1.002.396-.996l9.498.106c.478.005.753-.542.463-.922l-6.199-8.131c-.322-.422.052-1.017.572-.911l9.273 1.895c.474.097.848-.401.624-.829l-4.797-9.144c-.249-.475.231-1.002.727-.798l8.781 3.613c.454.187.918-.245.764-.711l-3.26-9.866c-.17-.515.402-.957.857-.662l8.023 5.194c.417.27.957-.081.879-.572l-1.634-10.269c-.086-.54.561-.883.96-.509l7.054 6.618c.366.344.966.084.967-.418l.016-10.357c.001-.551.702-.785 1.033-.344l5.465 7.279c.751-.185.817-.201 1.568-.386l1.533-9.434c.089-.547.824-.663 1.077-.171l4.018 7.81c.947-.073 1.025-.079 1.972-.152l2.833-8.514c.175-.526.921-.523 1.091.005l2.738 8.488c.946.083 1.024.09 1.97.172l4.124-7.801c.259-.49.992-.365 1.075.182l1.429 9.431c.737.19.802.207 1.539.397l5.592-7.276c.336-.437 1.035-.196 1.03.355l-.098 10.305c-.005.502.592.768.962.429l7.168-6.573c.403-.37 1.046-.02.954.52l-1.735 10.198c-.083.49.452.847.872.582l8.136-5.128c.458-.289 1.025.159.85.672l-3.343 9.774c-.159.464.3.901.755.72l8.865-3.521c.498-.198.972.334.718.806l-4.864 9.037c-.229.426.139.927.614.836l9.351-1.793c.521-.1.887.5.561.918l-6.256 8.007c-.294.377-.026.927.452.928l9.564.014c.526.001.774.649.384 1.001l-7.444 6.713c-.352.317-.19.9.275.99l9.471 1.844c.513.1.637.777.192 1.052l-8.386 5.185c-.401.248-.349.846.088 1.021l9.071 3.641c.484.194.479.881-.007 1.069l-9.058 3.5c-.44.17-.499.768-.101 1.02l8.384 5.328c.44.282.308.958-.206 1.051z" fill="#fa759e"/><path d="m61.5 24.012c-22.195 0-40.188 22.119-40.188 49.405s17.993 41.342 40.188 41.342 40.188-14.056 40.188-41.342-17.992-49.405-40.188-49.405z" fill="#ffd7e5"/><path d="m69.63 56.793c-.391-.391-1.023-.391-1.414 0l-3.738 3.738h-5.893l-3.738-3.738c-.391-.391-1.023-.391-1.414 0s-.391 1.023 0 1.414l6.477 6.478c.447.447 1.034.67 1.622.67.587 0 1.175-.224 1.622-.67l6.477-6.477c.39-.392.39-1.024-.001-1.415z" fill="#3a2c60"/><path d="m80.321 104.808c-6.417-.829-11.128-5.295-10.523-9.977.422-3.271 3.331-5.775 7.233-6.708-3.67-.779-6.48-2.998-7.098-6.068-.631-3.131 1.179-6.332 4.377-8.472-3.851-1.524-8.2-2.388-12.809-2.388-4.61 0-8.962.861-12.812 2.386 3.2 2.141 5.011 5.342 4.38 8.474-.619 3.07-3.428 5.289-7.098 6.068 3.901.933 6.81 3.437 7.233 6.708.605 4.681-4.107 9.148-10.523 9.977-1.919.248-3.77.136-5.443-.259 5.001 5.805 13.996 9.227 24.264 9.227s19.263-3.422 24.264-9.227c-1.675.395-3.525.507-5.445.259z" fill="#fff"/><path d="m74.133 54.881c-.962 0-1.743.532-1.743 1.188s.78 1.188 1.743 1.188c.962 0 1.743-.532 1.743-1.188s-.78-1.188-1.743-1.188z" fill="#fa759e"/><path d="m48.867 55.193c-.962 0-1.743.532-1.743 1.188s.78 1.188 1.743 1.188 1.743-.532 1.743-1.188c-.001-.656-.781-1.188-1.743-1.188z" fill="#fa759e"/><g fill="#3a2c60"><path d="m95.746 45.395c-.265-.484-.873-.662-1.357-.397s-.662.873-.396 1.357c1.053 1.925 2.001 3.959 2.817 6.048.154.395.532.636.932.636.121 0 .244-.022.364-.069.515-.201.769-.781.567-1.295-.848-2.168-1.833-4.281-2.927-6.28z"/><path d="m48.98 88.16c2.638-1.235 4.544-3.302 5.069-5.907.725-3.601-1.29-7.356-5.259-9.802-.034-.021-.07-.041-.107-.057l-8.798-4.036c-.502-.229-1.096-.01-1.326.492s-.01 1.096.492 1.326l8.741 4.009c3.203 1.994 4.849 4.929 4.296 7.672-.528 2.62-2.942 4.528-6.133 5.253-1.736-.389-3.632-.498-5.594-.246-.279.036-.554.086-.829.135-1.56-.377-3.042-.985-4.309-1.799-.467-.298-1.084-.164-1.382.301-.299.464-.164 1.083.3 1.382.642.412 1.343.759 2.066 1.075-1.417.579-2.712 1.343-3.805 2.271-.421.357-.473.988-.115 1.409s.987.473 1.41.115c1.803-1.531 4.261-2.563 6.92-2.906 5.861-.757 11.061 1.985 11.593 6.111.251 1.939-.575 3.92-2.324 5.58-1.835 1.739-4.44 2.903-7.335 3.277-1.729.223-3.487.143-5.083-.233-.535-.128-1.076.206-1.203.744-.126.538.207 1.076.744 1.203 1.167.275 2.373.413 3.604.413.724 0 1.456-.048 2.194-.143 3.313-.428 6.314-1.781 8.455-3.81 2.226-2.11 3.267-4.698 2.933-7.287-.366-2.827-2.363-5.145-5.215-6.542z"/><path d="m86.797 87.957c.722-.316 1.423-.663 2.064-1.075.464-.299.599-.917.3-1.382-.298-.464-.915-.597-1.382-.3-1.268.815-2.75 1.423-4.309 1.8-.276-.05-.552-.099-.831-.135-1.941-.25-3.855-.158-5.63.239-3.174-.731-5.571-2.635-6.097-5.246-.557-2.762 1.113-5.717 4.281-7.668l7.845-3.91c.494-.247.695-.847.448-1.341-.246-.494-.844-.694-1.341-.449l-7.922 3.953c-3.979 2.445-5.998 6.204-5.272 9.81.524 2.599 2.422 4.662 5.051 5.898-.169.083-.344.159-.508.25-2.688 1.475-4.354 3.713-4.688 6.303-.334 2.589.707 5.177 2.933 7.287 2.141 2.029 5.143 3.382 8.455 3.81.738.096 1.47.143 2.193.143 1.233 0 2.441-.138 3.609-.415.538-.127.871-.666.744-1.203-.128-.537-.668-.874-1.203-.743-1.598.377-3.354.458-5.088.234-2.895-.374-5.5-1.538-7.335-3.277-1.749-1.659-2.575-3.641-2.324-5.58.25-1.938 1.552-3.645 3.666-4.805 2.218-1.217 5.035-1.68 7.927-1.307 2.556.33 4.945 1.306 6.728 2.747.432.347 1.061.28 1.406-.149.348-.43.281-1.059-.148-1.407-1.041-.841-2.253-1.543-3.572-2.082z"/><circle cx="48.014" cy="48.853" r="3.186"/><circle cx="74.986" cy="48.853" r="3.186"/><path d="m120.123 68.823c.005-.651-.383-1.228-.987-1.471l-8.289-3.327 7.67-4.741c.555-.343.837-.98.72-1.622s-.606-1.138-1.247-1.263l-8.635-1.682 6.812-6.142c.487-.439.65-1.12.416-1.733-.235-.613-.811-1.01-1.467-1.011l-8.694-.013 5.719-7.32c.408-.521.449-1.224.104-1.79s-.988-.854-1.641-.726l-8.472 1.624 4.439-8.248c.317-.589.234-1.293-.211-1.793-.444-.499-1.134-.663-1.756-.416l-8.006 3.179 3.044-8.9c.219-.64.017-1.325-.514-1.744-.531-.418-1.242-.458-1.815-.097l-7.329 4.619 1.577-9.255c.115-.674-.198-1.32-.799-1.647-.601-.328-1.313-.24-1.816.222l-6.445 5.909.089-9.325c.006-.678-.42-1.281-1.061-1.502-.643-.223-1.349-.008-1.762.529l-5.189 6.751-.26-.067-1.33-8.777c-.102-.673-.621-1.202-1.292-1.316-.669-.114-1.337.214-1.656.816l-3.814 7.214-.647-.057-2.534-7.858c-.21-.649-.81-1.087-1.492-1.09-.002 0-.004 0-.006 0-.68 0-1.279.433-1.494 1.077l-2.623 7.883-.648.05-3.714-7.218c-.312-.607-.976-.946-1.646-.835-.673.106-1.199.629-1.309 1.302l-1.427 8.781-.284.07-5.067-6.75c-.407-.542-1.111-.763-1.757-.548-.643.214-1.076.813-1.077 1.491l-.013 9.375-6.338-5.946c-.497-.467-1.21-.563-1.814-.243s-.924.963-.816 1.638l1.483 9.325-7.222-4.674c-.568-.369-1.281-.338-1.817.076s-.745 1.097-.532 1.74l2.97 8.986-7.924-3.26c-.619-.255-1.311-.101-1.763.395-.451.495-.541 1.198-.23 1.792l4.379 8.349-8.394-1.716c-.652-.133-1.297.145-1.648.707-.353.561-.32 1.264.082 1.791l5.669 7.437-8.626-.096c-.006 0-.012 0-.018 0-.649 0-1.222.388-1.463.992-.242.61-.088 1.292.395 1.739l6.782 6.263-8.596 1.562c-.643.116-1.139.605-1.264 1.246s.149 1.281.701 1.631l7.671 4.876-8.271 3.196c-.607.235-1.003.807-1.007 1.458s.384 1.229.988 1.471l8.288 3.327-7.67 4.741c-.555.343-.837.98-.72 1.622.118.644.607 1.139 1.248 1.264l8.635 1.682-6.812 6.142c-.487.439-.65 1.119-.416 1.732.235.613.812 1.01 1.468 1.011l8.693.013-5.72 7.321c-.407.522-.447 1.225-.103 1.79.346.564.985.85 1.64.725l8.472-1.624-4.439 8.248c-.316.589-.234 1.293.211 1.793s1.137.664 1.757.416l8.005-3.179-3.044 8.898c-.219.64-.019 1.325.513 1.744.531.421 1.244.458 1.816.098l8.082-5.093c.104.059.219.1.34.118.918.141 22.546 3.459 29.354 3.459 6.832 0 24.737-3.323 25.496-3.465.111-.021.215-.059.309-.112l7.952 5.148c.266.172.563.257.858.257.337 0 .673-.111.958-.331.537-.413.747-1.096.535-1.741l-2.969-8.987 7.921 3.259c.617.253 1.311.1 1.763-.396.452-.495.542-1.198.231-1.792l-4.38-8.349 8.394 1.716c.657.133 1.297-.145 1.648-.706.353-.561.32-1.264-.081-1.792l-5.67-7.437 8.626.096c.635.005 1.237-.382 1.48-.992.242-.61.088-1.292-.395-1.739l-6.782-6.263 8.596-1.562c.642-.117 1.138-.605 1.264-1.246s-.148-1.281-.7-1.631l-7.672-4.876 8.271-3.196c.608-.23 1.003-.803 1.007-1.454zm-10.785 3.093c-.558.215-.94.719-.999 1.313-.059.595.218 1.164.723 1.483l7.465 4.745-8.365 1.52c-.591.107-1.063.532-1.23 1.109s.002 1.188.443 1.597l6.597 6.091-8.392-.094c-.598.003-1.153.326-1.425.868s-.213 1.178.155 1.661l5.511 7.229-8.161-1.668c-.6-.122-1.204.104-1.573.595s-.422 1.133-.137 1.678l4.253 8.107-7.697-3.167c-.574-.236-1.215-.12-1.672.305-.455.424-.616 1.055-.421 1.646l2.882 8.718-8.093-5.238c-.165-.107-.354-.161-.543-.161-.19 0-.381.054-.548.163-.257.168-.418.442-.447.738-1.594.288-5.056.902-8.97 1.52 14.981-5.928 23.995-20.054 23.995-39.258 0-6.07-.871-12.005-2.591-17.64-.16-.528-.718-.828-1.248-.665-.528.161-.825.72-.664 1.249 1.661 5.445 2.503 11.184 2.503 17.056 0 24.506-15.383 40.341-39.188 40.341s-39.19-15.834-39.19-40.34c0-26.69 17.58-48.405 39.188-48.405 11.779 0 22.828 6.464 30.313 17.734.305.459.925.584 1.387.28.46-.306.585-.926.279-1.386-7.861-11.838-19.516-18.628-31.978-18.628-22.711 0-41.188 22.611-41.188 50.405 0 18.796 8.64 32.721 23.053 38.863-3.548-.492-6.539-.936-7.997-1.156-.041-.275-.195-.526-.436-.686-.327-.218-.754-.223-1.087-.013l-8.205 5.171 2.953-8.633c.201-.588.047-1.221-.403-1.65-.45-.43-1.091-.554-1.667-.323l-7.778 3.089 4.309-8.008c.292-.541.247-1.184-.116-1.678-.363-.496-.966-.73-1.565-.614l-8.237 1.579 5.559-7.114c.372-.478.438-1.113.173-1.658s-.807-.884-1.412-.884l-8.459-.013 6.624-5.974c.446-.402.623-1.012.462-1.59-.161-.579-.627-1.009-1.216-1.124l-8.403-1.636 7.46-4.612c.508-.313.793-.878.741-1.474-.051-.595-.427-1.104-.982-1.327l-8.067-3.238 8.05-3.111c.558-.215.94-.719.999-1.314s-.218-1.163-.723-1.483l-7.464-4.745 8.363-1.52c.592-.107 1.063-.532 1.231-1.108.168-.577-.002-1.189-.443-1.597l-6.597-6.091 8.392.094h.019c.6 0 1.137-.331 1.406-.868.272-.542.213-1.178-.155-1.661l-5.51-7.229 8.161 1.668c.6.126 1.206-.105 1.574-.597.369-.491.42-1.134.135-1.676l-4.252-8.107 7.696 3.167c.574.236 1.216.121 1.672-.303s.618-1.054.423-1.646l-2.881-8.718 7.008 4.536c.519.337 1.191.338 1.714-.001.521-.338.794-.954.696-1.567l-1.438-9.04 6.146 5.767c.457.43 1.125.545 1.701.297.576-.249.949-.815.95-1.443l.012-9.084 4.701 6.262c.24.32.652.47 1.039.37l1.567-.386c.39-.096.684-.415.748-.811l1.325-8.158 3.427 6.66c.185.357.563.569.966.54l1.973-.152c.401-.031.745-.299.873-.681l2.423-7.281 2.338 7.252c.124.382.465.654.865.689l1.97.172c.417.036.784-.173.971-.529l3.521-6.66 1.235 8.155c.06.396.351.718.738.818l1.539.397c.389.101.799-.041 1.043-.359l4.817-6.267-.086 9.032c-.006.627.36 1.198.934 1.453.57.255 1.242.147 1.704-.278l6.252-5.732-1.53 8.972c-.104.612.163 1.229.68 1.574.516.344 1.188.353 1.712.021l7.117-4.485-2.953 8.633c-.201.588-.047 1.221.403 1.65.451.429 1.088.554 1.667.323l7.778-3.089-4.309 8.007c-.292.541-.247 1.184.116 1.678.363.495.965.731 1.565.614l8.237-1.579-5.559 7.114c-.372.478-.438 1.113-.173 1.658s.807.884 1.412.884l8.459.013-6.624 5.974c-.445.402-.623 1.011-.462 1.589.16.579.626 1.009 1.216 1.125l8.403 1.637-7.461 4.612c-.508.314-.791.879-.74 1.474s.428 1.103.982 1.326l8.067 3.238z"/></g></svg>