<svg id="Layer_1" enable-background="new 0 0 128 128" height="512" viewBox="0 0 128 128" width="512" xmlns="http://www.w3.org/2000/svg"><path d="m98.25 94.041c-.617-2.96-1.886-6.117-3.704-9.198.055-3.264-.197-6.901-1.148-10.164 2.958-2.882 4.801-6.903 4.801-11.359v-.783c0-3.77-1.321-7.228-3.516-9.95-.794-1.747-1.874-3.333-3.185-4.702-.27-2.636-.101-5.283.523-7.904.72-3.022 1.084-5.962 1.084-8.739 0-4.346-.912-8.131-2.655-11.307 1.413-.676 2.781-1.625 3.853-2.703 2.94-2.957 3.209-6.488.687-8.996s-6.052-2.219-8.993.737c-1.053 1.058-1.949 2.35-2.6 3.69-4.538-2.76-10.574-4.223-17.929-4.223-7.227 0-13.183 1.41-17.693 4.076-.645-1.288-1.518-2.525-2.533-3.545-2.94-2.958-6.47-3.245-8.993-.737s-2.253 6.04.687 8.996c1.011 1.017 2.287 1.917 3.614 2.585-1.785 3.201-2.719 7.026-2.719 11.426 0 2.777.365 5.717 1.084 8.739.653 2.743.816 5.515.49 8.273-2.704 2.992-4.366 6.943-4.366 11.283v.783c0 4.209 1.56 8.053 4.118 11.011-2.052 3.942-2.542 9.081-2.468 13.516-1.817 3.079-3.086 6.235-3.702 9.194-4.714 1.551-8.13 5.988-8.13 11.214 0 6.512 5.298 11.81 11.81 11.81 1.302 0 2.552-.22 3.724-.611l.141 1.146c.19 1.542 1.006 2.951 2.239 3.867 1.799 1.336 4.686 2.941 8.215 3.001.079.001.157.002.235.002 3.235 0 5.741-1.131 7.287-2.093 1.401-.872 2.252-2.516 2.221-4.288l-.09-5.073c1.639.044 3.302.062 4.979.062 1.676 0 3.339-.018 4.977-.062l-.088 5.073c-.032 1.773.819 3.417 2.221 4.289 1.546.962 4.052 2.093 7.287 2.093.078 0 .156-.001.235-.002 3.53-.06 6.417-1.665 8.216-3.001 1.233-.916 2.049-2.326 2.239-3.867l.141-1.146c1.172.391 2.422.611 3.724.611 6.512 0 11.81-5.298 11.81-11.81 0-5.226-3.416-9.663-8.13-11.214z" fill="#e6e7e8"/><path d="m93.912 91.831c-.552-3.151-1.893-6.518-3.87-9.774.063-3.08-.152-6.508-.975-9.603-2.761 2.326-6.321 3.733-10.214 3.733h-.783c-5.34 0-20.518 0-25.858 0h-.783c-6.146 0-11.465-3.501-14.101-8.612-2.604 3.902-3.188 9.624-3.089 14.481-1.977 3.256-3.318 6.623-3.87 9.774-4.599 1.242-7.988 5.432-7.988 10.424 0 5.97 4.839 10.809 10.809 10.809 1.631 0 3.171-.372 4.558-1.018l.3 2.431c.157 1.273.845 2.445 1.843 3.186 1.621 1.204 4.326 2.748 7.636 2.804 3.089.052 5.474-1.005 6.977-1.94 1.103-.686 1.775-1.985 1.749-3.422l-.11-6.121c1.944.064 3.948.092 5.999.092s4.055-.028 5.999-.092l-.11 6.121c-.026 1.437.646 2.735 1.749 3.422 1.502.935 3.887 1.993 6.977 1.94 3.31-.056 6.015-1.6 7.636-2.804.998-.741 1.686-1.913 1.843-3.186l.3-2.431c1.387.647 2.927 1.018 4.558 1.018 5.97 0 10.809-4.839 10.809-10.809-.003-4.991-3.392-9.181-7.991-10.423z" fill="#fa759e"/><g fill="#ffd7e5"><path d="m62.38 92.825c-2.15 0-4.246.278-6.277.763l.278 15.396c1.944.064 3.948.093 5.999.093 2.052 0 4.055-.028 5.999-.093l.278-15.396c-2.031-.486-4.127-.763-6.277-.763z"/><path d="m36.244 97.914c-.811-.527-1.775-.84-2.815-.84-2.862 0-5.182 2.32-5.182 5.182s2.32 5.182 5.182 5.182c1.499 0 2.838-.646 3.784-1.663z"/><path d="m91.331 97.073c-1.04 0-2.003.313-2.815.84l-.969 7.859c.946 1.017 2.285 1.663 3.784 1.663 2.862 0 5.182-2.32 5.182-5.182s-2.32-5.18-5.182-5.18z"/><path d="m43.712 114.958c-1.408 0-2.548 1.568-2.63 3.542 1.293.754 3.008 1.505 5.019 1.814.161-.485.257-1.022.257-1.593-.001-2.078-1.185-3.763-2.646-3.763z"/><path d="m49.9 114.958c-1.461 0-2.646 1.685-2.646 3.762 0 .629.119 1.213.311 1.734.068.002.132.012.2.013 1.816.028 3.38-.298 4.673-.741.063-.322.108-.655.108-1.006 0-2.077-1.184-3.762-2.646-3.762z"/><path d="m80.992 114.958c1.408 0 2.548 1.568 2.63 3.542-1.293.754-3.008 1.505-5.019 1.814-.161-.485-.257-1.022-.257-1.593 0-2.078 1.185-3.763 2.646-3.763z"/><path d="m74.803 114.958c1.461 0 2.646 1.685 2.646 3.762 0 .629-.119 1.213-.311 1.734-.068.002-.132.012-.2.013-1.816.028-3.38-.298-4.673-.741-.063-.322-.108-.655-.108-1.006.001-2.077 1.185-3.762 2.646-3.762z"/></g><path d="m44.101 11.004c-.606-1.548-1.604-3.118-2.807-4.328-2.819-2.835-5.676-2.624-7.578-.733s-2.129 4.747.69 7.582c1.211 1.217 2.786 2.23 4.34 2.844 1.395-2.166 3.211-3.943 5.355-5.365z" fill="#6dc9f7"/><path d="m91.045 5.943c-1.902-1.891-4.759-2.102-7.578.733-1.245 1.253-2.274 2.89-2.871 4.491 2.068 1.415 3.821 3.169 5.172 5.294 1.633-.6 3.312-1.654 4.587-2.936 2.819-2.835 2.592-5.69.69-7.582z" fill="#6dc9f7"/><path d="m36.899 45.688c2.895-3.082 6.995-5.018 11.557-5.018h.783c3.521 0 6.769 1.15 9.398 3.093 2.114 1.562 4.949 1.562 7.063 0 2.629-1.943 5.877-3.093 9.397-3.093h.783c4.373 0 8.332 1.77 11.202 4.631-.325-2.851-.156-5.739.514-8.552.687-2.888 1.057-5.768 1.057-8.508 0-15.607-11.926-21.801-26.637-21.801s-26.637 6.194-26.637 21.801c0 2.74.37 5.62 1.057 8.508.702 2.941.851 5.962.463 8.939z" fill="#fa759e"/><path d="m76.092 40.669h-.783c-3.521 0-6.769 1.15-9.397 3.093-2.114 1.562-4.949 1.562-7.063 0-2.629-1.943-5.877-3.093-9.397-3.093h-.783c-8.763 0-15.868 7.104-15.868 15.868v.783c0 8.763 7.104 15.868 15.868 15.868h.783 25.858.783c8.763 0 15.868-7.104 15.868-15.868v-.783c-.001-8.764-7.105-15.868-15.869-15.868z" fill="#fff"/><path d="m79.092 43.982h-.783c-3.521 0-6.769 1.15-9.397 3.093-2.114 1.562-4.949 1.562-7.063 0-2.629-1.943-5.877-3.093-9.397-3.093h-.783c-8.763 0-15.868 7.104-15.868 15.868v.783c0 8.763 7.104 15.868 15.868 15.868h.783 25.858.783c8.763 0 15.868-7.104 15.868-15.868v-.783c-.001-8.764-7.105-15.868-15.869-15.868z" fill="#ffd7e5"/><path d="m70.128 73.187h6.793v6.384h-6.793z" fill="#6dc9f7"/><path d="m47.437 73.187h6.793v6.384h-6.793z" fill="#6dc9f7"/><path d="m49.057 52.936c-2.205 0-3.992 1.787-3.992 3.992s1.787 3.992 3.992 3.992 3.992-1.787 3.992-3.992-1.787-3.992-3.992-3.992z" fill="#fa759e"/><path d="m75.703 52.936c-2.205 0-3.992 1.787-3.992 3.992s1.787 3.992 3.992 3.992 3.992-1.787 3.992-3.992-1.787-3.992-3.992-3.992z" fill="#fa759e"/><path d="m94.988 91.032c-.615-2.956-1.87-6.105-3.682-9.182.055-3.266-.195-6.906-1.147-10.171-.533.52-1.108.995-1.71 1.435 1.921 7.825-.073 17.883-.113 18.088l-2.855 23.152c-.121.986-.662 1.923-1.446 2.506-1.564 1.161-4.058 2.556-7.057 2.606-2.866.044-5.077-.946-6.431-1.789-.808-.502-1.297-1.481-1.278-2.556l.396-22.871c.009-.552-.431-1.007-.983-1.017-.54.01-1.007.431-1.017.983l-.273 15.788c-1.618.044-3.279.071-5.011.071-1.733 0-3.395-.026-5.015-.071l-.292-16.405c-.01-.553-.516-.991-1.018-.982-.552.01-.992.466-.982 1.018l.418 23.487c.02 1.073-.47 2.052-1.277 2.555-1.354.843-3.562 1.846-6.432 1.789-2.999-.05-5.493-1.445-7.057-2.606-.784-.583-1.325-1.52-1.446-2.506l-2.869-23.229c-.036-.177-2.652-13.347 1.014-21.267 2.463 2.211 5.572 3.706 9.012 4.164v5.55c0 .552.448 1 1 1h6.793c.552 0 1-.448 1-1v-5.384h1.263c.552 0 1-.448 1-1s-.448-1-1-1h-2.263-4.778-.783c-8.198 0-14.867-6.669-14.867-14.868v-.783c0-8.198 6.669-14.868 14.867-14.868h.783c3.195 0 6.239 1.002 8.803 2.897 2.469 1.824 5.785 1.824 8.251 0 2.564-1.895 5.608-2.897 8.803-2.897h.783c8.198 0 14.868 6.669 14.868 14.868v.783c0 8.198-6.669 14.868-14.868 14.868h-.783-5.181c-.095 0-.181.029-.268.054-.087-.025-.173-.054-.268-.054h-1.685c-.552 0-1 .448-1 1s.448 1 1 1h1.22v5.384c0 .552.448 1 1 1h6.792c.552 0 1-.448 1-1v-5.488c8.443-.915 15.039-8.082 15.039-16.764v-.783c0-4.647-1.889-8.86-4.939-11.914-.233-2.549-.054-5.108.549-7.643.72-3.022 1.084-5.962 1.084-8.739 0-4.315-.9-8.078-2.619-11.24 1.474-.68 2.912-1.648 4.028-2.77 1.501-1.51 2.333-3.172 2.406-4.806.069-1.554-.526-3.003-1.72-4.19s-2.648-1.779-4.2-1.696c-1.634.082-3.291.923-4.792 2.433-1.081 1.087-1.981 2.421-2.634 3.799-4.558-2.829-10.655-4.33-18.106-4.33-7.148 0-13.054 1.377-17.547 3.986-.649-1.268-1.501-2.482-2.468-3.455-1.501-1.51-3.158-2.351-4.792-2.433-1.555-.076-3.007.509-4.2 1.696-1.194 1.187-1.788 2.636-1.719 4.19.072 1.635.904 3.296 2.406 4.806.97.976 2.183 1.838 3.451 2.494-1.818 3.219-2.768 7.076-2.768 11.516 0 2.775.365 5.715 1.084 8.739.676 2.84.813 5.71.437 8.564-2.549 2.956-4.101 6.793-4.101 10.993v.783c0 4.211 1.562 8.058 4.123 11.017-2.052 3.943-2.545 9.081-2.471 13.516-1.812 3.076-3.066 6.224-3.681 9.179-4.726 1.544-8.152 5.988-8.152 11.223 0 6.512 5.298 11.81 11.81 11.81 1.302 0 2.551-.22 3.723-.613l.142 1.148c.19 1.542 1.007 2.951 2.239 3.867 1.799 1.336 4.686 2.941 8.215 3.001.079.001.157.002.235.002 3.235 0 5.741-1.131 7.287-2.093 1.401-.873 2.252-2.516 2.22-4.289l-.091-5.08c1.641.044 3.3.069 4.979.069 1.678 0 3.337-.025 4.977-.069l-.088 5.08c-.032 1.773.819 3.416 2.221 4.289 1.545.962 4.051 2.093 7.286 2.093.078 0 .157-.001.235-.002 3.53-.06 6.417-1.665 8.216-3.001 1.233-.916 2.049-2.326 2.239-3.867l.141-1.148c1.172.392 2.421.613 3.724.613 6.512 0 11.809-5.298 11.809-11.81.004-5.235-3.422-9.679-8.148-11.223zm-45.537-16.845h3.778v4.384h-4.793v-4.384h.231zm26.47 4.385h-4.792v-4.384h4.181.612v4.384zm8.255-71.191c1.145-1.151 2.346-1.789 3.474-1.845.056-.003.111-.004.166-.004 1.149 0 2.002.602 2.524 1.121.546.543 1.187 1.45 1.132 2.684-.05 1.128-.682 2.333-1.826 3.484-1.014 1.02-2.333 1.879-3.67 2.454-1.142-1.652-2.541-3.109-4.186-4.36.55-1.24 1.362-2.505 2.386-3.534zm-49.061 5.439c-1.145-1.151-1.776-2.355-1.826-3.484-.055-1.233.585-2.14 1.131-2.684.521-.519 1.375-1.121 2.524-1.121.055 0 .11.001.166.004 1.128.056 2.33.694 3.474 1.845.876.881 1.636 1.99 2.194 3.14-1.793 1.276-3.312 2.783-4.545 4.507-1.144-.562-2.245-1.328-3.118-2.207zm26.902-5.38c7.708 0 25.637 2.027 25.637 20.801 0 2.621-.347 5.406-1.03 8.276-.495 2.08-.708 4.222-.675 6.361-2.776-2.01-6.176-3.209-9.858-3.209h-.783c-3.625 0-7.081 1.137-9.992 3.289-1.756 1.297-4.117 1.299-5.875 0-2.911-2.151-6.366-3.289-9.992-3.289h-.783c-4.017 0-7.706 1.416-10.606 3.769.087-2.324-.114-4.659-.652-6.921-.683-2.873-1.03-5.657-1.03-8.276.002-18.774 17.931-20.801 25.639-20.801zm-28.359 78.332c.179 2.053.432 3.722.602 4.713-.274-.022-.55-.039-.831-.039-.506 0-1.001.043-1.491.105.395-1.561.962-3.164 1.72-4.779zm-.229 26.292c-5.409 0-9.81-4.4-9.81-9.81 0-5.409 4.4-9.809 9.81-9.809.387 0 .767.026 1.141.072l2.331 18.899c-1.08.414-2.247.648-3.472.648zm59.393-21.514c-.49-.062-.985-.105-1.491-.105-.28 0-.556.017-.831.039.173-1.015.423-2.683.6-4.717.759 1.617 1.327 3.222 1.722 4.783zm-1.491 21.514c-1.225 0-2.393-.234-3.473-.648l2.328-18.898c.376-.046.757-.073 1.145-.073 5.409 0 9.809 4.4 9.809 9.809 0 5.41-4.4 9.81-9.809 9.81z" fill="#3a2c60"/><path d="m53.554 34.929c1.822 0 3.298-1.477 3.298-3.298 0-1.822-1.477-3.298-3.298-3.298-1.822 0-3.298 1.477-3.298 3.298-.001 1.821 1.476 3.298 3.298 3.298z" fill="#3a2c60"/><circle cx="71.207" cy="31.631" fill="#3a2c60" r="3.298"/><path d="m59.914 72.187c-.552 0-1 .448-1 1s.448 1 1 1h4.346c.552 0 1-.448 1-1s-.448-1-1-1z" fill="#3a2c60"/></svg>