<svg id="Layer_1" enable-background="new 0 0 128 128" height="512" viewBox="0 0 128 128" width="512" xmlns="http://www.w3.org/2000/svg"><path d="m106.351 112.265s-1.088 4.402-3.202 3.134c-3.37-2.022 4.895-6.276 1.661-19.213-2.405-9.621-11.297-9.826-15.697-9.3-.514-.869-1.098-1.695-1.769-2.461-.803-.915-1.79-2.679-2.911-5.147 2.755-1.432 4.285-6.571 2.921-8.869-.915-1.541-2.365-2.732-3.153-4.342-1.947-3.98.068-7.957 1.39-11.895 3.155-6.067 5.02-12.94 5.02-19.102 0-4.99-1.224-9.013-3.363-12.184 2.508-6.729.796-15.177-.045-16.465-.901-1.379-3.131-.716-3.864-.498-2.706.805-7.027 3.18-9.322 5.593-1.202-3.173-7.73-6.255-14.889-6.255-6.817-.001-11.357 3.154-13.462 5.409-2.403-2.103-6.057-4.036-8.445-4.746-.733-.218-2.963-.881-3.864.498-.877 1.343-2.703 10.481.307 17.329-.872 2.486-1.325 5.264-1.325 8.32 0 9.375 4.087 19.923 10.33 27.316-4.118 13.205-7.838 22.458-10.102 25.039-5.64 6.43-5.477 16.907-3.441 24.586.133.743 1.087 4.842 1.967 7.306-2.714 1.033-5.573 3.52-5.893 9.368-.015.274.083.543.272.742.189.2.451.313.726.313h67.515c.275 0 .537-.113.726-.313.189-.199.288-.468.272-.742-.32-5.848-3.179-8.334-5.893-9.368.674-1.888 1.39-4.73 1.749-6.292.09 7.413 6.494 10.541 12.031 9.31 6.127-1.362 3.753-7.071 3.753-7.071z" fill="#e6e7e8"/><path d="m83.492 112.944c.944-2.046 2.256-7.716 2.315-8.146 1.975-7.413 2.203-17.537-3.215-23.714-3.178-3.623-7.761-17.224-10.44-25.833-.395.454-.797.898-1.209 1.325-1.714-2.178-4.367-3.581-7.353-3.581h-15.233c-2.986 0-5.639 1.404-7.353 3.581-.422-.437-.833-.89-1.237-1.356-2.677 8.607-7.268 22.237-10.449 25.864-5.418 6.177-5.19 16.301-3.215 23.714.059.43 1.37 6.1 2.315 8.146-2.657.687-5.889 2.752-6.22 8.796h33.222 1.069 33.223c-.331-6.044-3.563-8.109-6.22-8.796z" fill="#fa759e"/><path d="m42.194 8.583c-2.742-3.232-10.904-7.295-12.002-5.615-.635.973-2.565 10.159.547 16.746 2.028-5.416 6.127-9.03 11.455-11.131z" fill="#ffd7e5"/><path d="m81.46 20.417c3.61-6.616 1.563-16.441.904-17.449-1.119-1.713-9.586 2.544-12.16 5.804 5.332 2.219 9.382 5.994 11.256 11.645z" fill="#ffd7e5"/><path d="m48.357 52.995h15.233c2.986 0 5.639 1.404 7.353 3.581 7.042-7.292 11.667-18.788 11.667-28.506 0-15.607-11.926-21.801-26.637-21.801s-26.637 6.194-26.637 21.801c0 9.719 4.626 21.214 11.667 28.506 1.715-2.178 4.368-3.581 7.354-3.581z" fill="#fff"/><path d="m59.973 9.269c-14.711 0-26.637 6.194-26.637 21.801 0 8.138 3.247 17.517 8.436 24.636 1.691-1.675 4.017-2.711 6.585-2.711h15.233c4.881 0 8.885 3.738 9.316 8.507 8.172-7.058 13.704-19.806 13.704-30.432 0-15.607-11.926-21.801-26.637-21.801z" fill="#fa759e"/><path d="m60.793 52.995c.31-1.78.483-3.74.483-5.802 0-8.087-2.639-14.643-5.894-14.643s-5.894 6.556-5.894 14.643c0 2.062.173 4.022.483 5.802z" fill="#ffd7e5"/><path d="m63.59 52.995h-15.233c-5.169 0-9.359 4.19-9.359 9.359s4.19 9.359 9.359 9.359h15.233c5.169 0 9.359-4.19 9.359-9.359s-4.19-9.359-9.359-9.359z" fill="#ffd7e5"/><g fill="#3a2c60"><path d="m102.351 108.265s-1.088 4.402-3.202 3.134c-3.37-2.022 4.895-6.276 1.661-19.213-2.405-9.622-11.297-9.826-15.697-9.3-.514-.869-1.098-1.696-1.769-2.461-.803-.915-1.791-2.682-2.912-5.152 2.756-1.43 4.286-6.565 2.922-8.864-.915-1.541-2.365-2.732-3.153-4.342-1.947-3.979.068-7.957 1.39-11.894-1.987 3.821-4.495 7.304-7.37 10.101-.139.135-.28.264-.421.396-.242-1.472-.787-2.843-1.582-4.038 3.061-3.297 5.759-7.451 7.824-12.295.217-.508-.02-1.095-.528-1.312-.508-.216-1.095.02-1.312.528-1.934 4.535-4.433 8.427-7.251 11.523-1.879-1.9-4.484-3.081-7.361-3.081h-15.233c-2.888 0-5.501 1.19-7.382 3.103-6.379-7.015-10.638-17.638-10.638-27.028 0-9.882 4.969-15.121 10.798-17.87 1.434 2.169 3.848 4.923 5.282 5.547 1.507.656 3.519 2.206 4.549 3.502.969 1.219 1.901 4.494.628 5.747-.491.484-1.215.633-1.901.701-.535.053-1.093.066-1.593-.133s-.929-.657-.947-1.195c-.008-.249.103-.494.272-.675-.829.488-1.338 1.545-1.215 2.53.158 1.259 1.128 2.304 2.267 2.862s2.433.702 3.7.768c.862.045 1.729.059 2.584-.052 3.919-.507 6.348-3.435 7.597-6.932 1.275-3.57 4.579-9.563 7.102-12.465.175-.202.312-.408.425-.616 6.219 2.624 11.723 7.88 11.723 18.281 0 .552.448 1 1 1s1-.448 1-1c0-9.27-4.128-16.005-11.696-19.659 2.842-2.623 8.417-5.193 9.645-4.826.449 1.061 1.798 7.707.199 13.393.532.594 1.027 1.224 1.48 1.894 2.536-6.818.706-15.315-.036-16.451-.235-.36-.721-.798-1.698-.842-2.752-.095-8.741 3.046-11.496 5.911-1.228-3.164-7.74-6.229-14.88-6.23-6.809-.001-11.346 3.147-13.454 5.4-3.045-2.653-8.271-5.237-10.68-5.078-.938.059-1.408.488-1.637.839-.731 1.12-2.727 10.373.312 17.315-.875 2.49-1.33 5.272-1.33 8.334 0 9.373 4.093 19.907 10.335 27.299-4.12 13.212-7.841 22.474-10.106 25.056-5.64 6.43-5.477 16.907-3.441 24.587.133.743 1.087 4.842 1.967 7.305-2.714 1.033-5.573 3.52-5.893 9.368-.015.274.083.543.272.742.189.2.451.313.726.313h67.515c.275 0 .537-.113.726-.313s.288-.468.272-.742c-.32-5.849-3.179-8.335-5.893-9.368.674-1.887 1.39-4.729 1.749-6.292.09 7.413 6.494 10.541 12.031 9.31 6.128-1.361 3.754-7.07 3.754-7.07zm-71.357-104.678c1.115-.32 6.428 1.942 9.439 4.631-4.342 2.002-7.587 4.992-9.618 8.869-1.694-5.798-.259-12.491.179-13.5zm17.363 50.408h15.232c4.609 0 8.359 3.75 8.359 8.359s-3.75 8.359-8.359 8.359h-15.232c-4.609 0-8.359-3.75-8.359-8.359s3.75-8.359 8.359-8.359zm36.483 50.546c-.009.034-.018.082-.024.116-.083.531-1.37 5.998-2.232 7.868-.085.185-.089.386-.056.583-1.008-.263-2.073-.417-3.183-.417-.544 0-1.073.048-1.594.117-.354-5.604-.653-12.914 1.373-20.342.145-.533-.169-1.083-.702-1.228-.534-.144-1.082.169-1.228.702-2.087 7.653-1.79 15.358-1.447 20.865-4.909.563-11.387 1.34-14.61 2.268v-19.39c0-.552-.448-1-1-1s-1 .448-1 1v23.07c0 .729.214 1.404.565 1.987h-7.498c.351-.583.565-1.258.565-1.987v-23.07c0-.552-.448-1-1-1s-1 .448-1 1v18.966c-4.777-.688-9.634-1.266-14.645-1.283.356-5.537.748-13.51-1.411-21.426-.146-.533-.694-.848-1.228-.702-.533.146-.847.695-.702 1.228 2.036 7.464 1.723 14.811 1.367 20.427-.719-.129-1.462-.202-2.226-.202-.865 0-1.705.09-2.511.252 0-.143-.03-.286-.091-.418-.862-1.869-2.149-7.336-2.231-7.863-.006-.041-.014-.082-.024-.121-1.915-7.185-2.131-16.947 3-22.798 2.395-2.731 5.429-10.487 8.018-18.099.638 5.105 4.996 9.069 10.27 9.069h15.232c5.255 0 9.598-3.935 10.261-9.012 2.517 7.373 5.599 15.317 7.989 18.042 5.134 5.851 4.917 15.613 3.003 22.798z"/><path d="m81.313 32.419c-.31 2.338-.857 4.745-1.627 7.151-.168.526.121 1.089.647 1.257.101.033.204.048.305.048.423 0 .816-.271.953-.696.806-2.52 1.38-5.042 1.705-7.499.073-.547-.313-1.05-.86-1.122-.542-.07-1.051.313-1.123.861z"/><circle cx="47.184" cy="34.758" r="3.298"/><path d="m61.631 34.758c0 1.822 1.477 3.298 3.298 3.298 1.822 0 3.298-1.477 3.298-3.298 0-1.822-1.477-3.298-3.298-3.298-1.821-.001-3.298 1.476-3.298 3.298z"/></g><path d="m48.158 60.306c-1.699 0-3.076 1.377-3.076 3.076s1.377 3.076 3.076 3.076 3.076-1.377 3.076-3.076c-.001-1.699-1.378-3.076-3.076-3.076z" fill="#fa759e"/><path d="m63.789 60.306c-1.699 0-3.076 1.377-3.076 3.076s1.377 3.076 3.076 3.076 3.076-1.377 3.076-3.076c-.001-1.699-1.378-3.076-3.076-3.076z" fill="#fa759e"/></svg>