<svg id="Layer_1" enable-background="new 0 0 128 128" height="512" viewBox="0 0 128 128" width="512" xmlns="http://www.w3.org/2000/svg"><path d="m123.445 57.656c-.567-.538-1.093-.246-2.044.286-1.296.724-3.81 2.128-6.789 3.097 5.222-7.728 7.927-14.669 8.16-15.282.163-.428.015-.911-.36-1.175-.375-.263-.882-.237-1.228.063-9.576 8.265-24.217 6.93-35.021 4.261-1.056-3.813-2.858-7.335-5.345-10.295-2.266-2.692-5.316-4.831-9.064-6.355-7.526-3.087-15.771-2.791-23.215.834-3.33 1.621-6.293 3.83-8.775 6.481l-10.489-3.077c-19.895-5.836-19.984-5.606-20.489-4.338-.515 1.297.306 1.715 10.354 6.825 1.597.812 3.35 1.703 5.232 2.67l10.316 5.297c-.78 1.598-1.432 3.269-1.923 5.006-.354 1.278-.658 2.563-.929 3.931-1.061 5.428-1.155 10.881-.28 16.21 3.453 20.766 21.74 26.557 21.867 26.594.863.32 1.792.588 2.68.833 7.402 1.94 19.67 2.699 30.003 2.699 9.299 0 17.031-.614 18.243-1.535.001-.001.002-.001.003-.002.609-.468.63-1.011.588-1.293-.142-.939-1.109-1.3-2.713-1.896-1.036-.385-2.261-.84-3.283-1.459 2.485-2.164 4.102-4.741 4.285-6.205.06-.473-.11-.922-.467-1.231-.501-.436-1.425-1.238-10.126 1.122-1.831-.556-3.335-2.118-4.479-3.948.414.029.827.047 1.237.047.698 0 1.391-.043 2.07-.132 20.899-2.715 27.995-17.899 31.404-25.197.285-.61.543-1.162.78-1.644l.328-.686z" fill="#e6e7e8"/><path d="m81.524 54.56c6.416.893 13.957 3.305 20.998 4.071 1.672.182 3.363.031 4.99-.292 6.438-8.806 9.677-17.296 9.677-17.296-10.132 8.743-25.611 7.096-36.467 4.338.581 2.293.874 4.667.878 7.057.007.706-.022 1.414-.076 2.122z" fill="#6dc9f7"/><path d="m35.435 36.348-11.09-3.253c-28.16-8.261-21.848-5.772-4.164 3.308l11.192 5.746c1.124-2.12 2.497-4.06 4.062-5.801z" fill="#ffd7e5"/><path d="m99.097 95.531c-2.07 1.573-33.205 2.383-47.387-1.336-.907-.25-1.775-.502-2.585-.802 0 0-17.837-5.427-21.229-25.82-.904-5.505-.698-10.877.275-15.854.261-1.316.562-2.596.911-3.855 4.566-16.145 22.109-25.411 37.646-19.04 3.274 1.332 6.33 3.285 8.678 6.074 4.124 4.911 6.183 11.17 6.195 17.543.007.794-.024 1.591-.094 2.389-.146 1.782-.36 3.76-.691 5.874-.71 4.709-1.402 9.827-.789 14.262.474 3.434 3.246 10.251 7.961 11.436 4.608-1.262 9.771-2.374 9.602-1.054-.156 1.25-1.91 4.109-4.932 6.37 2.595 2.312 7.749 2.809 6.439 3.813z" fill="#fa759e"/><path d="m53.521 69.519c-6.299-9.594-17.534-14.683-26.089-12.211-.234 3.323-.11 6.767.464 10.264 3.392 20.393 21.229 25.82 21.229 25.82.809.301 1.678.552 2.585.802.166.043.345.083.515.125 6.776-4.84 7.507-15.368 1.296-24.8z" fill="#ffd7e5"/><path d="m66.98 60.334c-4.291 10.755 9.01 21.396 19.709 20.005 22.125-2.875 28.417-20.208 31.417-26.292.242-.491-7.917 5.417-15.583 4.583-14.384-1.562-30.865-10.017-35.543 1.704z" fill="#fff"/><path d="m66.98 63.334c-4.291 10.755 9.01 21.396 19.709 20.005 22.125-2.875 28.417-20.208 31.417-26.292.242-.491-7.917 5.417-15.583 4.583-14.384-1.562-30.865-10.017-35.543 1.704z" fill="#6dc9f7"/><g fill="#3a2c60"><path d="m30.244 72.878c-.519-1.53-.936-3.141-1.241-4.787-.101-.544-.624-.908-1.166-.801-.543.101-.902.623-.801 1.166.323 1.739.765 3.443 1.313 5.064.141.416.53.679.947.679.106 0 .214-.017.321-.053.524-.177.804-.745.627-1.268z"/><path d="m97.581 93.137c-1.037-.385-2.262-.84-3.284-1.46 2.485-2.162 4.102-4.74 4.285-6.204.06-.473-.11-.922-.468-1.232-.501-.435-1.427-1.241-10.125 1.123-1.092-.332-2.068-1.021-2.92-1.912-.889.018-1.787-.037-2.687-.165 1.363 1.922 3.142 3.525 5.361 4.083.167.043.343.04.509-.005 5.284-1.448 7.39-1.63 8.192-1.616-.457 1.146-1.901 3.309-4.386 5.166-.24.18-.388.458-.4.758s.109.59.334.789c1.405 1.254 3.421 2.003 4.892 2.55.058.021.117.044.179.066-6.614 1.035-32.305 1.504-45.088-1.848-.967-.267-1.763-.5-2.56-.795-.121-.036-12.152-3.823-17.955-16.489-.231-.503-.826-.722-1.326-.493-.502.23-.723.823-.493 1.325 6.174 13.478 18.662 17.41 19.134 17.552.807.3 1.65.548 2.68.832 7.401 1.94 19.667 2.699 30.001 2.699 9.299 0 17.035-.615 18.248-1.536.609-.468.63-1.011.588-1.293-.14-.939-1.108-1.299-2.711-1.895z"/><path d="m53.154 44.614c1.741 1.056 4.009.501 5.065-1.24s.501-4.009-1.24-5.065-4.009-.501-5.065 1.24-.501 4.009 1.24 5.065z"/><path d="m118.797 53.298c-.566-.538-1.091-.246-2.044.286-1.297.724-3.813 2.127-6.793 3.095 5.222-7.728 7.93-14.667 8.163-15.28.163-.428.015-.912-.36-1.175s-.882-.237-1.228.063c-9.576 8.265-24.217 6.93-35.02 4.261-1.056-3.813-2.858-7.336-5.345-10.297-2.268-2.692-5.318-4.83-9.064-6.354-7.525-3.087-15.771-2.791-23.216.834-3.33 1.621-6.293 3.83-8.775 6.481l-10.489-3.078c-19.893-5.834-19.982-5.607-20.488-4.336-.515 1.297.307 1.715 10.361 6.828 1.595.812 3.346 1.702 5.225 2.667l10.316 5.297c-.78 1.598-1.431 3.269-1.922 5.005-.353 1.274-.657 2.559-.929 3.932-.871 4.457-1.09 8.959-.652 13.381.055.549.538.953 1.094.896.55-.055.951-.544.896-1.094-.419-4.228-.209-8.534.624-12.798.262-1.319.554-2.557.893-3.777 2.175-7.693 7.541-14.109 14.721-17.604 6.926-3.371 14.59-3.65 21.584-.781 3.444 1.4 6.234 3.35 8.29 5.79 2.842 3.385 4.735 7.563 5.531 12.083.026.15.047.301.07.451.088.554.159 1.114.214 1.677.018.188.038.377.053.566.054.705.091 1.415.093 2.131.003.326-.004.654-.018.983-6.59-.756-12.029.264-14.531 6.534-1.754 4.396-.928 9.124 2.326 13.315 3.885 5.005 10.374 8.184 16.37 8.184.698 0 1.39-.043 2.069-.132 20.898-2.715 27.994-17.899 31.404-25.196.285-.61.543-1.163.78-1.645l.328-.686zm-87.831-12.482-10.329-5.303c-1.882-.966-3.635-1.857-5.231-2.67-2.008-1.021-3.903-1.985-5.467-2.803 4.18 1.096 10.228 2.87 14.124 4.014l9.609 2.819c-.035.043-.065.09-.1.134-.418.523-.819 1.059-1.201 1.609-.06.087-.124.171-.184.258-.379.559-.738 1.132-1.079 1.716-.045.077-.098.149-.142.226zm51.533 9.282c-.008-.1-.013-.199-.022-.299-.066-.746-.163-1.486-.284-2.221-.017-.104-.035-.209-.053-.313-.031-.177-.056-.355-.09-.531 10.056 2.35 23.005 3.408 32.726-2.673-1.501 3.181-4.157 8.221-7.907 13.395-1.393.241-2.826.333-4.238.179-3.802-.413-7.792-1.324-11.649-2.205-2.889-.66-5.734-1.307-8.427-1.731.018-.423.051-.848.047-1.264-.003-.782-.042-1.561-.103-2.337zm4.061 29.25c-5.763.751-12.74-2.321-16.603-7.296-2.801-3.608-3.528-7.638-2.048-11.347v-.001c1.651-4.139 4.983-5.491 9.317-5.491 3.814 0 8.405 1.048 13.309 2.168 3.914.894 7.961 1.817 11.878 2.243 5.183.559 10.42-1.713 13.52-3.321-3.438 7.278-10.481 20.59-29.373 23.045z"/></g></svg>