<svg id="Layer_1" enable-background="new 0 0 128 128" height="512" viewBox="0 0 128 128" width="512" xmlns="http://www.w3.org/2000/svg"><path d="m115.681 87.929c0-.001 0-.001 0 0-1.329-3.614-3.984-6.248-7.477-7.419-3.767-1.263-8.127-.661-11.664 1.613-1.693 1.089-3.149 2.417-4.418 4.016-2.292-8.638-7.115-17.02-12.834-21.92-.242-.207-.494-.405-.744-.606 5.198-5.254 9.716-11.684 12.169-18.326h5.198c.552 0 1-.448 1-1s-.448-1-1-1h-4.526c.404-1.331.721-2.666.938-3.998h3.588c.552 0 1-.448 1-1s-.448-1-1-1h-3.336c.061-.703.1-1.405.1-2.104 0-.643-.024-1.272-.059-1.894h3.294c.552 0 1-.448 1-1s-.448-1-1-1h-3.478c-.283-2.284-.815-4.413-1.604-6.373 4.425-7.496 2.204-16.122 1.059-17.876-1.458-2.232-7.501-1.142-10.493-.253-2.236.665-5.755 2.022-6.751 4.155-5.051-1.672-11.106-2.539-18.116-2.539-7.841 0-14.491 1.081-19.872 3.166-1.302-2.676-6.413-4.398-8.136-4.91-1.762-.525-7.628-2.057-9.115.218-1.07 1.638-3.787 12.227 2.067 20.249-.385 1.322-.669 2.709-.849 4.162h-3.908c-.552 0-1 .448-1 1s.448 1 1 1h3.725c-.036.622-.059 1.25-.059 1.894 0 .699.041 1.401.105 2.104h-3.77c-.552 0-1 .448-1 1s.448 1 1 1h4.035c.227 1.334.561 2.668.984 3.998h-5.019c-.552 0-1 .448-1 1s.448 1 1 1h5.63c.031 0 .058-.015.089-.018.466 1.205 1.002 2.401 1.601 3.584.087.274.218.529.386.761 2.641 4.975 6.343 9.682 10.392 13.712-.374.291-.741.588-1.097.893-.764.655-1.532 1.392-2.282 2.19-.378.402-2.363 2.787-2.693 3.229-1.369 1.837-2.64 3.862-3.777 6.019-.257.488-1.462 3.004-1.681 3.511-1.619 3.746-2.747 7.566-3.353 11.359-3.935 4.305-4.974 12.757-2.513 20.726.653 2.112 1.557 4.093 2.694 5.904-2.06 1.136-4.05 3.349-3.916 7.654.017.54.459.969 1 .969h12.585c.014.014.022.033.036.046.254.239.674.503 1.288.503.07 0 .142-.003.216-.011h13.051c1.33 0 2.502-.662 3.223-1.668 2.791.356 5.763.542 8.907.542 3.014 0 5.871-.171 8.564-.5.724.98 1.878 1.625 3.188 1.625h13.051c.075.007.146.011.216.011.614 0 1.034-.264 1.288-.503.014-.013.023-.033.036-.046h12.586c.54 0 .982-.429 1-.969.135-4.306-1.856-6.518-3.916-7.654 1.137-1.811 2.042-3.792 2.694-5.904 1.378-4.462 1.668-9.051.969-12.992 1.404-3.664 2.56-6.566 5.361-8.368 1.182-.76 2.611-1.001 3.73-.624.619.207 1.659.682 1.682 1.531.018.665-.818 1.397-1.104 1.596-2.415 1.627-2.537 4.443-1.409 6.385.758 1.306 2.184 2.374 3.912 2.374.663 0 1.37-.158 2.101-.519l.114-.058c4.039-2.064 7.057-7.36 5.117-12.647z" fill="#e6e7e8"/><path d="m110.742 84.273c-1.222-3.323-3.657-5.743-6.855-6.815-3.484-1.167-7.523-.604-10.805 1.506-2.426 1.561-4.122 3.487-5.418 5.543.209.98.396 1.964.535 2.951 1.47 1.727 2.439 4.073 2.938 6.722.004-.012.009-.024.014-.035 1.453-3.795 2.708-7.073 5.847-9.093 1.43-.92 3.189-1.201 4.589-.731 1.106.371 2.327 1.114 2.363 2.452.037 1.374-1.544 2.452-1.544 2.452-3.779 2.547-.487 8.536 3.597 6.516.035-.018.07-.035.106-.053 3.655-1.87 6.381-6.65 4.633-11.415z" fill="#6dc9f7"/><path d="m87.039 113.571c1.344-1.92 2.451-4.148 3.213-6.615 2.209-7.149 1.593-15.216-2.054-19.499-1.494-10.627-7.244-21.068-13.561-26.479-.416-.356-.841-.7-1.273-1.032-6.764 6.645-14.682 11.116-20.836 11.116-5.559 0-13.562-4.587-20.528-11.379-.556.414-1.104.841-1.634 1.295-6.223 5.332-11.9 15.545-13.496 26.008-4.032 4.136-4.792 12.545-2.497 19.97.762 2.467 1.87 4.695 3.213 6.615-2.325.899-4.526 2.884-4.391 7.208h14.758c1.683.29 3.386.227 5.035-.282 1.45-.448 2.748-1.193 3.874-2.175 4.367 1.198 9.539 1.87 15.639 1.87 5.968 0 11.047-.646 15.354-1.795 1.105.943 2.37 1.663 3.781 2.099 1.649.51 3.352.572 5.035.282h14.759c.135-4.323-2.066-6.308-4.391-7.207z" fill="#6dc9f7"/><path d="m76.337 96.633c-.839-.202-1.683.315-1.885 1.154s.315 1.683 1.154 1.885 1.683-.315 1.885-1.154-.315-1.683-1.154-1.885z" fill="#0089ef"/><path d="m25.074 98.791c-.839-.202-1.683.315-1.885 1.154s.315 1.683 1.154 1.885 1.683-.315 1.885-1.154-.315-1.683-1.154-1.885z" fill="#0089ef"/><path d="m77.47 106.796c-.839-.202-1.683.315-1.885 1.155-.202.839.315 1.683 1.154 1.885s1.683-.315 1.885-1.154c.202-.84-.315-1.684-1.154-1.886z" fill="#0089ef"/><path d="m16.822 105.7c-1.196 0-2.166.97-2.166 2.166s.97 2.166 2.166 2.166 2.166-.97 2.166-2.166-.97-2.166-2.166-2.166z" fill="#0089ef"/><path d="m91.536 120.497c0-4.356-3.78-7.888-8.442-7.888-2.282 0-4.349.85-5.869 2.225-.57.601-1.044 1.336-1.376 2.227.006-.116.026-.228.026-.345 0-4.38-4.295-7.931-9.592-7.931-.578 0-1.142.044-1.691.125.161-.962.311-1.953.431-3.004.224-1.966.35-4.186.399-6.493.265-4.864-.016-10.121-.651-15.268-.163-1.489-.347-2.807-.543-3.863l-.001.002c-.256-1.616-.544-3.204-.857-4.751-.425-2.101.686-4.22 2.753-5.135 4.205-1.863 6.846-4.528 6.846-7.494 0-.727-.169-1.434-.47-2.118-6.566 6.181-14.077 10.277-19.97 10.277-5.62 0-13.738-4.688-20.757-11.602-.805 1.076-1.256 2.233-1.256 3.443 0 3.031 2.753 5.749 7.117 7.617 2.099.898 3.227 3.042 2.802 5.162-1.881 9.401-2.846 20.281-1.494 28.98.024.246.295 2.225.611 4.206-.466-.05-.94-.083-1.424-.083-5.427 0-9.857 3.27-10.21 7.402-1.507-2.153-4.107-3.578-7.065-3.578-2.282 0-4.349.85-5.869 2.225-1.178 1.243-1.965 3.043-1.877 5.663h16.014.174 14.232 3.591.019 10.497.216 2.715 14.152c.278-.423.494-.876.677-1.341-.039.424-.061.864-.045 1.341h16.187z" fill="#fff"/><path d="m88.623 100.311c-1.196 0-2.166.97-2.166 2.166s.97 2.166 2.166 2.166 2.166-.97 2.166-2.166-.97-2.166-2.166-2.166z" fill="#0089ef"/><path d="m29.926 71.125c-.843-1.166-2.761-1.218-4.284-.117s-2.075 2.939-1.232 4.105 2.761 1.218 4.284.117c1.524-1.101 2.075-2.939 1.232-4.105z" fill="#0089ef"/><path d="m77.23 64.212c-2.087 1.867-2.773 4.594-1.478 6.385 1.316 1.82 4.188 2 6.641.529-1.635-2.497-3.364-4.817-5.163-6.914z" fill="#0089ef"/><path d="m21.849 81.546c-1.196 0-2.166.97-2.166 2.166s.97 2.166 2.166 2.166 2.166-.97 2.166-2.166-.969-2.166-2.166-2.166z" fill="#0089ef"/><path d="m85.162 92.203c-1.196 0-2.166.97-2.166 2.166s.97 2.166 2.166 2.166 2.166-.97 2.166-2.166-.97-2.166-2.166-2.166z" fill="#0089ef"/><path d="m34.474 110.742c-3.463.866-6.918 2.465-8.556 5.999-.123 2.993.066 4.74 1.349 4.578h13.105c1.642 0 2.973-1.331 2.973-2.973v-5.52c-2.56-1.85-5.837-2.59-8.871-2.084z" fill="#fff"/><path d="m69.954 110.742c3.463.866 6.918 2.465 8.556 5.999.123 2.993-.066 4.74-1.349 4.578h-13.105c-1.642 0-2.973-1.331-2.973-2.973v-5.52c2.559-1.85 5.836-2.59 8.871-2.084z" fill="#fff"/><path d="m31.716 9.115.249-.279c-.003-3.841-14.111-7.873-15.721-5.407-.868 1.329-3.695 11.722 2.351 19.5 2.097-6.549 6.8-11.027 13.121-13.814z" fill="#fff"/><path d="m85.693 20.88c4.771-7.466 2.176-16.036 1.358-17.289-1.611-2.466-15.683.694-15.686 4.535l.26.291c6.47 2.443 11.471 6.477 14.068 12.463z" fill="#fff"/><path d="m32.372 8.837c-4.177-2.481-11.866-4.093-13.03-2.31-.704 1.078-2.696 8.123-.203 14.896 2.39-5.948 7.089-10.032 13.233-12.586z" fill="#0089ef"/><path d="m87.104 25.399.363.408c6.556-7.823 3.568-17.76 2.681-19.117-1.421-2.177-12.543.029-15.138 3.218 6.208 3.19 10.598 8.217 12.094 15.491z" fill="#0089ef"/><path d="m52.529 5.408c-19.411 0-35.147 7.042-35.147 25.779s23.21 39.876 35.147 39.876c13.391 0 35.147-21.139 35.147-39.876 0-18.738-15.736-25.779-35.147-25.779z" fill="#fff"/><path d="m87.676 31.186c0-18.737-15.736-25.779-35.147-25.779s-35.147 7.041-35.147 25.779c0 7.668 2.638 14.894 7.083 20.758 1.763.973 3.888 1.816 6.456 2.506 3.633.976 7.21-1.765 7.21-5.528v-2.176c0-5.884 4.77-10.653 10.653-10.653h7.478c5.884 0 10.653 4.77 10.653 10.653v2.224c0 3.755 3.563 6.488 7.194 5.532 2.521-.664 4.616-1.472 6.362-2.404 4.517-5.891 7.205-13.175 7.205-20.912z" fill="#6dc9f7"/><g fill="#0089ef"><path d="m84.918 31.135c-1.196 0-2.166.97-2.166 2.166s.97 2.166 2.166 2.166 2.166-.97 2.166-2.166-.97-2.166-2.166-2.166z"/><path d="m28.246 14.969c-.993-.239-1.991.373-2.23 1.366s.373 1.991 1.366 2.23 1.991-.373 2.23-1.366c.238-.993-.373-1.992-1.366-2.23z"/><path d="m24.451 41.453c-.209-.05-.418-.074-.625-.074-1.207 0-2.305.825-2.599 2.049-.344 1.433.542 2.879 1.975 3.224 1.432.344 2.879-.541 3.224-1.975.344-1.433-.542-2.88-1.975-3.224z"/><path d="m79.392 43.938c-.993-.239-1.991.373-2.23 1.366s.373 1.991 1.366 2.23 1.991-.373 2.23-1.366c.238-.993-.373-1.992-1.366-2.23z"/><path d="m81.715 18.679c-.25-.073-.501-.107-.748-.107-1.446 0-2.761 1.196-3.113 2.97-.412 2.078.649 4.174 2.365 4.674 1.716.498 3.448-.785 3.862-2.863.411-2.078-.65-4.175-2.366-4.674z"/><path d="m72.702 11.568c-1.196 0-2.166.97-2.166 2.166s.97 2.166 2.166 2.166 2.166-.97 2.166-2.166-.969-2.166-2.166-2.166z"/><path d="m65.92 18.476c-1.196 0-2.166.97-2.166 2.166s.97 2.166 2.166 2.166 2.166-.97 2.166-2.166-.97-2.166-2.166-2.166z"/><path d="m76.004 30.06c-1.196 0-2.166.97-2.166 2.166s.97 2.166 2.166 2.166 2.166-.97 2.166-2.166-.97-2.166-2.166-2.166z"/><path d="m22.908 29.906c-1.196 0-2.166.97-2.166 2.166s.97 2.166 2.166 2.166 2.166-.97 2.166-2.166-.969-2.166-2.166-2.166z"/><path d="m63.754 6.263c-1.196 0-2.166.97-2.166 2.166s.97 2.166 2.166 2.166 2.166-.97 2.166-2.166-.97-2.166-2.166-2.166z"/><path d="m42.306 12.205c-1.196 0-2.166.97-2.166 2.166s.97 2.166 2.166 2.166 2.166-.97 2.166-2.166-.969-2.166-2.166-2.166z"/><path d="m32.85 46.853c-1.196 0-2.166.97-2.166 2.166s.97 2.166 2.166 2.166 2.166-.97 2.166-2.166-.97-2.166-2.166-2.166z"/><path d="m30.89 24.81c-1.196 0-2.166.97-2.166 2.166s.97 2.166 2.166 2.166 2.166-.97 2.166-2.166-.969-2.166-2.166-2.166z"/><path d="m35.016 35.667c-1.196 0-2.166.97-2.166 2.166s.97 2.166 2.166 2.166 2.166-.97 2.166-2.166-.969-2.166-2.166-2.166z"/><path d="m68.37 36.069c-1.196 0-2.166.97-2.166 2.166s.97 2.166 2.166 2.166 2.166-.97 2.166-2.166-.97-2.166-2.166-2.166z"/><path d="m40.144 6.263c-1.196 0-2.166.97-2.166 2.166s.97 2.166 2.166 2.166 2.166-.97 2.166-2.166-.97-2.166-2.166-2.166z"/></g><path d="m111.681 83.929c0-.001 0-.001 0 0-1.329-3.614-3.984-6.248-7.477-7.419-3.769-1.262-8.128-.659-11.664 1.614-1.697 1.092-3.138 2.45-4.406 4.061-2.287-8.653-7.117-17.057-12.846-21.965-.242-.207-.495-.404-.745-.605 5.198-5.254 9.716-11.684 12.17-18.327h5.199c.552 0 1-.448 1-1s-.448-1-1-1h-4.526c.404-1.331.721-2.665.938-3.997h3.589c.552 0 1-.448 1-1s-.448-1-1-1h-3.336c.061-.704.101-1.406.101-2.104 0-.643-.024-1.272-.059-1.894h3.295c.552 0 1-.448 1-1s-.448-1-1-1h-3.478c-.283-2.286-.816-4.416-1.606-6.377 4.424-7.494 2.206-16.118 1.061-17.871-1.459-2.234-7.502-1.143-10.494-.253-2.236.665-5.752 2.023-6.746 4.156-5.052-1.673-11.108-2.54-18.12-2.54-7.851 0-14.509 1.084-19.894 3.175-1.296-2.679-6.391-4.406-8.115-4.918-1.762-.525-7.627-2.058-9.114.218-1.07 1.638-3.789 12.226 2.067 20.25-.385 1.322-.668 2.709-.848 4.161h-3.909c-.552 0-1 .448-1 1s.448 1 1 1h3.725c-.036.622-.059 1.25-.059 1.894 0 .699.041 1.401.105 2.104h-3.771c-.552 0-1 .448-1 1s.448 1 1 1h4.035c.227 1.334.561 2.668.984 3.997h-5.02c-.552 0-1 .448-1 1s.448 1 1 1h5.63c.031 0 .058-.015.088-.018 2.539 6.561 7.173 12.878 12.39 18.068-.375.29-.754.577-1.11.881-.767.657-1.535 1.394-2.282 2.189-.378.403-.358 1.036.044 1.414s1.036.359 1.414-.044c.698-.743 1.413-1.429 2.125-2.04.411-.352.838-.672 1.263-.995 7.245 6.787 15.292 11.32 20.249 11.32 5.675 0 13.593-4.424 20.574-11.038.297.234.595.465.885.713 6.518 5.584 11.831 15.976 13.221 25.859.026.188.106.365.229.509 3.28 3.852 4.045 11.482 1.86 18.555-.65 2.104-1.581 4.053-2.746 5.82-1.034-.036-2.707.163-4.194 1.514-.409.371-.438 1.004-.067 1.413.197.217.468.327.74.327.24 0 .48-.086.672-.26 1.09-.99 2.329-1.039 2.95-.988.009.004.015.013.025.017 2.348.908 3.577 2.639 3.739 5.275h-10.767c.185-1.425.057-3.46-.127-6.27-.388-5.932-.919-14.057 1.335-22.32.145-.533-.169-1.083-.702-1.228s-1.082.169-1.228.702c-2.342 8.586-1.775 17.247-1.401 22.977.181 2.764.406 6.205-.042 6.687-.042-.005-.083-.008-.125-.008h-5.473v-3.784c0-.552-.448-1-1-1s-1 .448-1 1v3.784h-2.221v-3.784c0-.552-.448-1-1-1s-1 .448-1 1v3.784h-1.412c-1.088 0-1.973-.885-1.973-1.973v-23.827c0-.552-.448-1-1-1s-1 .448-1 1v23.826c0 .141.027.275.042.413-2.467.281-5.07.434-7.82.434-2.892 0-5.62-.17-8.195-.48.011-.123.037-.242.037-.367v-23.826c0-.552-.448-1-1-1s-1 .448-1 1v23.826c0 1.088-.885 1.973-1.973 1.973l-1.412.006v-3.79c0-.552-.448-1-1-1s-1 .448-1 1v3.798l-2.221.009v-3.807c0-.552-.448-1-1-1s-1 .448-1 1v3.814l-5.549.022c-.496-.527-.271-3.967-.09-6.731.375-5.73.941-14.391-1.401-22.978-.146-.533-.697-.849-1.228-.702-.533.146-.847.695-.702 1.228 2.254 8.264 1.723 16.389 1.335 22.321-.183 2.81-.312 4.845-.127 6.27h-10.768c.16-2.615 1.375-4.337 3.686-5.251.287-.057 1.898-.311 3.282.947.192.174.433.26.672.26.272 0 .543-.11.74-.327.372-.409.342-1.042-.067-1.413-1.611-1.465-3.442-1.577-4.44-1.502-1.169-1.772-2.103-3.725-2.754-5.833-2.302-7.448-1.374-15.252 2.258-18.977.146-.15.241-.341.272-.547.568-3.726 1.665-7.486 3.26-11.176.219-.507-.014-1.096-.521-1.315-.507-.217-1.096.014-1.315.521-1.619 3.746-2.747 7.565-3.353 11.359-3.936 4.305-4.975 12.758-2.513 20.726.653 2.113 1.557 4.094 2.694 5.904-2.06 1.137-4.05 3.349-3.916 7.654.017.54.459.969 1 .969h12.587c.014.014.022.033.036.046.254.24.674.504 1.288.504.069 0 .141-.003.216-.011h13.051c1.332 0 2.506-.664 3.227-1.673 2.791.356 5.759.547 8.903.547 3.014 0 5.865-.178 8.557-.507.724.985 1.881 1.633 3.194 1.633h13.051c.075.007.146.011.216.011.614 0 1.034-.264 1.289-.504.014-.013.023-.033.036-.046h12.586c.54 0 .983-.429 1-.969.134-4.305-1.856-6.518-3.916-7.654 1.136-1.81 2.041-3.791 2.694-5.905 1.378-4.462 1.668-9.05.969-12.991 1.404-3.664 2.56-6.566 5.361-8.368 1.164-.748 2.628-.994 3.729-.625.619.208 1.659.683 1.682 1.531.018.665-.818 1.397-1.104 1.596-2.414 1.627-2.536 4.444-1.409 6.385.758 1.306 2.184 2.374 3.912 2.374.663 0 1.37-.158 2.101-.519l.113-.057c4.041-2.063 7.059-7.359 5.119-12.647zm-34.298-79.039c4.633-1.504 8.404-1.339 8.83-.751.473.725 2.815 7.811-.435 14.545-2.657-4.934-7.111-8.652-13.229-11.055.49-.779 2.038-1.831 4.834-2.739zm-60.305-.911c.156-.188.71-.307 1.562-.307 1.505 0 3.94.37 6.748 1.38 3.069 1.104 4.894 2.39 5.41 3.3-6.026 2.757-10.238 6.927-12.493 12.393-4.185-7-1.999-15.583-1.227-16.766zm35.451 66.083c-9.908 0-34.147-20.751-34.147-38.876 0-21.56 21.394-24.779 34.147-24.779s34.147 3.219 34.147 24.779c0 17.89-22.57 38.876-34.147 38.876zm53.122 24.735-.092.046c-1.589.789-2.821-.083-3.393-1.068-.662-1.139-.672-2.732.801-3.725.208-.142 2.031-1.439 1.981-3.305-.041-1.529-1.122-2.727-3.044-3.374-.548-.184-1.139-.273-1.745-.273-1.253 0-2.571.384-3.703 1.112-2.557 1.645-3.968 4.067-5.133 6.79-.547-1.505-1.275-2.848-2.175-3.965-.003-.021-.008-.043-.011-.065-.064-.425-.143-.874-.23-1.34-.057-.31-.115-.62-.179-.931 1.344-2.04 2.948-3.644 4.894-4.895 3.03-1.949 6.748-2.47 9.946-1.399 2.905.974 5.12 3.18 6.235 6.212 1.558 4.248-.886 8.511-4.152 10.18z" fill="#3a2c60"/><path d="m21.382 73.007c.149.079.309.116.466.116.359 0 .706-.194.885-.533 1.091-2.068 2.306-4.005 3.612-5.756.33-.443.239-1.069-.204-1.399-.444-.331-1.07-.238-1.399.204-1.367 1.834-2.638 3.859-3.777 6.018-.258.487-.071 1.092.417 1.35z" fill="#3a2c60"/><path d="m43.079 28.926c0-1.738-1.409-3.147-3.147-3.147s-3.147 1.409-3.147 3.147 1.409 3.147 3.147 3.147c1.739-.001 3.147-1.409 3.147-3.147z" fill="#3a2c60"/><circle cx="65.97" cy="28.926" fill="#3a2c60" r="3.147"/><path d="m64.151 54.003c-.552 0-1 .448-1 1 0 2.653-2.158 4.811-4.812 4.811-2.653 0-4.811-2.158-4.811-4.811v-12.935l5.345-5.345c.332-.332.097-.9-.373-.9h-11.944c-.469 0-.705.568-.373.9l5.345 5.345v12.935c0 2.653-2.158 4.811-4.811 4.811s-4.812-2.158-4.812-4.811c0-.552-.448-1-1-1s-1 .448-1 1c0 3.755 3.056 6.811 6.812 6.811 2.321 0 4.373-1.169 5.603-2.948.069.015.134.042.208.042s.139-.027.208-.042c1.23 1.779 3.281 2.948 5.603 2.948 3.756 0 6.812-3.056 6.812-6.811 0-.552-.447-1-1-1z" fill="#3a2c60"/><path d="m84.05 79.638c-.157-.265-.337-.511-.533-.737-1.15-1.319-2.885-1.917-4.188-1.347-1.525.668-1.889 2.689-.811 4.506 1.078 1.815 3.196 2.751 4.722 2.084 1.524-.667 1.888-2.689.81-4.506z" fill="#0089ef"/><path d="m56.65 24.349c-.79-.19-1.585.297-1.775 1.087s.297 1.585 1.087 1.775 1.585-.297 1.775-1.087c.19-.791-.297-1.585-1.087-1.775z" fill="#0089ef"/><path d="m55.099 6.631c-.993-.239-1.991.373-2.23 1.366s.373 1.991 1.366 2.23 1.991-.373 2.23-1.366c.238-.993-.373-1.991-1.366-2.23z" fill="#0089ef"/><path d="m19.531 92.571c-.993-.239-1.991.373-2.23 1.366s.373 1.991 1.366 2.23 1.991-.373 2.23-1.365c.239-.994-.373-1.992-1.366-2.231z" fill="#0089ef"/><path d="m19.536 99.941c-.839-.202-1.683.315-1.885 1.155-.202.839.315 1.683 1.154 1.885s1.683-.315 1.885-1.154c.202-.84-.315-1.684-1.154-1.886z" fill="#0089ef"/><path d="m85.035 104.837c-.839-.202-1.683.315-1.885 1.155-.202.839.315 1.683 1.154 1.885s1.683-.315 1.885-1.154c.202-.841-.315-1.685-1.154-1.886z" fill="#0089ef"/><path d="m35.349 96.633c-.839-.202-1.683.315-1.885 1.154s.315 1.683 1.154 1.885 1.683-.315 1.885-1.154-.314-1.683-1.154-1.885z" fill="#0089ef"/><path d="m33.425 104.635c-.839-.202-1.683.315-1.885 1.154s.315 1.683 1.154 1.885 1.683-.315 1.885-1.154-.314-1.683-1.154-1.885z" fill="#0089ef"/><path d="m36.453 88.631c-.839-.202-1.683.315-1.885 1.154s.315 1.683 1.154 1.885 1.683-.315 1.885-1.154-.315-1.683-1.154-1.885z" fill="#0089ef"/><ellipse cx="74.836" cy="90.151" fill="#0089ef" rx="1.563" ry="1.563" transform="matrix(.5 -.866 .866 .5 -40.661 109.848)"/></svg>