<svg id="Layer_1" enable-background="new 0 0 128 128" height="512" viewBox="0 0 128 128" width="512" xmlns="http://www.w3.org/2000/svg"><path d="m108.731 55.495c0-8.53-2.626-16.444-7.108-22.986-7.093-12.946-20.849-21.745-36.623-21.745-23.011 0-41.731 18.72-41.731 41.731 0 10.626 3.995 17.833 12.185 21.954.462.344.939.672 1.434.982-.315.846-.487 1.738-.487 2.643 0 3.515 2.396 6.474 5.638 7.349.644.737 1.446 1.333 2.357 1.727v6.02c0 5.252-4.273 9.525-9.525 9.525h-.163c-1.527 0-2.771 1.243-2.771 2.771s1.243 2.771 2.771 2.771h.163c8.308 0 15.066-6.759 15.066-15.067v-6.159c.838-.414 1.57-1.004 2.162-1.715.149.05.3.096.452.136.225.257.464.501.726.721v32.312c0 1.528 1.243 2.771 2.771 2.771s2.771-1.243 2.771-2.771v-30.911c1.328-.268 2.513-.928 3.424-1.862v32.774c0 1.528 1.243 2.771 2.771 2.771s2.771-1.243 2.771-2.771v-30.785c.073.002.143.013.216.013 1.168 0 2.258-.312 3.209-.844v31.615c0 1.528 1.243 2.771 2.771 2.771s2.771-1.243 2.771-2.771v-31.012c.555.152 1.136.241 1.74.241.543 0 1.07-.067 1.574-.19v5.667c0 8.308 6.759 15.067 15.066 15.067h.163c1.527 0 2.771-1.243 2.771-2.771s-1.243-2.771-2.771-2.771h-.165c-5.252 0-9.525-4.273-9.525-9.525v-6.416c.989.591 2.138.94 3.375.94 3.656 0 6.62-2.964 6.62-6.62 0-1.254-.355-2.423-.961-3.422 8.627-3.362 14.092-9.851 14.092-22.158z" fill="#e6e7e8"/><path d="m43.021 83.694c-.562 0-1.105-.078-1.626-.209v5.686c0 5.813-4.712 10.525-10.525 10.525h-.163c-.978 0-1.771.793-1.771 1.771s.793 1.771 1.771 1.771h.163c7.769 0 14.067-6.298 14.067-14.067v-5.771c-.607.184-1.248.294-1.916.294z" fill="#fa759e"/><path d="m91.293 99.695h-.163c-5.813 0-10.525-4.712-10.525-10.525v-7.147c-.317-.281-.612-.585-.87-.921-.692.9-1.614 1.608-2.671 2.058v6.01c0 7.769 6.298 14.067 14.067 14.067h.163c.978 0 1.771-.793 1.771-1.771-.001-.978-.794-1.771-1.772-1.771z" fill="#fa759e"/><path d="m53.511 83.694c-1.178 0-2.277-.318-3.234-.858v31.63c0 .978.793 1.771 1.771 1.771s1.771-.793 1.771-1.771v-30.79c-.104.004-.204.018-.308.018z" fill="#fa759e"/><path d="m59.242 81.667v32.798c0 .978.793 1.771 1.771 1.771.978 0 1.771-.793 1.771-1.771v-30.895c-1.378-.258-2.607-.934-3.542-1.903z" fill="#fa759e"/><path d="m69.245 81.102c-.304.395-.652.756-1.036 1.073v32.289c0 .978.793 1.771 1.771 1.771s1.771-.793 1.771-1.771v-31.375c-.988-.453-1.85-1.134-2.506-1.987z" fill="#fa759e"/><path d="m101.731 48.495c0-22.495-18.236-40.731-40.731-40.731s-40.731 18.236-40.731 40.731c0 12.307 5.466 18.796 14.093 22.156-.606 1-.961 2.168-.961 3.422 0 3.656 2.964 6.62 6.62 6.62 2.138 0 4.034-1.018 5.245-2.591 1.21 1.573 3.106 2.591 5.245 2.591 2.138 0 4.034-1.018 5.245-2.591 1.21 1.573 3.106 2.591 5.245 2.591 2.138 0 4.034-1.018 5.245-2.591 1.21 1.573 3.106 2.591 5.245 2.591s4.034-1.018 5.245-2.591c1.21 1.573 3.106 2.591 5.245 2.591 3.656 0 6.62-2.964 6.62-6.62 0-1.254-.355-2.423-.961-3.422 8.626-3.36 14.091-9.849 14.091-22.156z" fill="#fff"/><path d="m104.731 51.495c0-22.495-18.236-40.731-40.731-40.731s-40.731 18.236-40.731 40.731c0 12.307 5.466 18.796 14.093 22.156-.606 1-.961 2.168-.961 3.422 0 3.656 2.964 6.62 6.62 6.62 2.138 0 4.034-1.018 5.245-2.591 1.21 1.573 3.106 2.591 5.245 2.591 2.138 0 4.034-1.018 5.245-2.591 1.21 1.573 3.106 2.591 5.245 2.591 2.138 0 4.034-1.018 5.245-2.591 1.21 1.573 3.106 2.591 5.245 2.591s4.034-1.018 5.245-2.591c1.21 1.573 3.106 2.591 5.245 2.591 3.656 0 6.62-2.964 6.62-6.62 0-1.254-.355-2.423-.961-3.422 8.626-3.36 14.091-9.849 14.091-22.156z" fill="#6dc9f7"/><path d="m72.471 40.338c-.776 0-1.404.429-1.404.957s.629.957 1.404.957c.776 0 1.404-.429 1.404-.957s-.629-.957-1.404-.957z" fill="#ffd7e5"/><ellipse cx="50.742" cy="41.296" fill="#ffd7e5" rx="1.404" ry=".957"/><g fill="#3a2c60"><path d="m43.937 89.17c0 7.205-5.861 13.067-13.066 13.067h-.163c-.425 0-.771-.346-.771-.771s.346-.771.771-.771h.163c6.355 0 11.525-5.17 11.525-11.525v-5.508c-.705-.066-1.377-.242-2-.512v6.02c0 5.252-4.273 9.525-9.525 9.525h-.163c-1.527 0-2.771 1.243-2.771 2.771s1.243 2.771 2.771 2.771h.163c8.308 0 15.066-6.759 15.066-15.067v-6.159c-.618.305-1.291.514-2 .612z"/><path d="m52.818 83.653v30.813c0 .425-.346.771-.771.771s-.771-.346-.771-.771v-31.164c-.736-.265-1.411-.656-2-1.149v32.312c0 1.528 1.243 2.771 2.771 2.771s2.771-1.243 2.771-2.771v-30.911c-.424.086-.859.14-1.308.14-.234 0-.464-.018-.692-.041z"/><path d="m20.386 45.223c.035.003.07.005.104.005.506 0 .94-.382.993-.896.177-1.695.466-3.394.858-5.049.128-.538-.204-1.076-.742-1.204-.536-.127-1.076.205-1.203.742-.413 1.738-.716 3.523-.901 5.304-.057.55.341 1.041.891 1.098z"/><path d="m102.732 48.495c0-23.011-18.721-41.731-41.731-41.731-17.804 0-33.662 11.301-39.462 28.122-.18.522.098 1.091.619 1.271.523.178 1.092-.097 1.271-.619 5.521-16.014 20.621-26.774 37.571-26.774 21.908 0 39.731 17.823 39.731 39.731 0 10.904-4.275 17.648-13.456 21.225-.274.107-.488.331-.584.61-.095.28-.062.587.092.84.534.881.816 1.886.816 2.904 0 3.099-2.521 5.62-5.62 5.62-1.754 0-3.377-.802-4.452-2.201-.379-.492-1.207-.492-1.586 0-1.075 1.399-2.698 2.201-4.452 2.201-1.753 0-3.376-.802-4.451-2.201-.189-.246-.482-.39-.793-.39s-.604.144-.792.39c-1.077 1.399-2.7 2.201-4.453 2.201s-3.376-.802-4.453-2.201c-.377-.492-1.206-.491-1.585 0-1.075 1.399-2.698 2.201-4.451 2.201-1.754 0-3.377-.802-4.452-2.201-.379-.492-1.207-.492-1.586 0-1.075 1.399-2.698 2.201-4.452 2.201-3.099 0-5.62-2.521-5.62-5.62 0-1.019.282-2.023.816-2.904.153-.252.187-.56.092-.84-.096-.279-.31-.503-.584-.61-9.181-3.576-13.456-10.32-13.456-21.225 0-.552-.447-1-1-1s-1 .448-1 1c0 11.269 4.488 18.697 13.714 22.671-.383.921-.582 1.909-.582 2.907 0 4.202 3.418 7.62 7.62 7.62 1.98 0 3.838-.753 5.245-2.098 1.407 1.345 3.265 2.098 5.245 2.098s3.837-.753 5.244-2.099c.814.778 1.781 1.35 2.832 1.701-.112.134-.222.27-.344.395v32.774c0 1.528 1.243 2.771 2.771 2.771s2.771-1.243 2.771-2.771v-30.783c-.7-.023-1.372-.149-2-.373v31.157c0 .425-.346.771-.771.771s-.771-.346-.771-.771v-31.956c-.44-.306-.829-.673-1.183-1.072.626.164 1.275.256 1.941.256 1.98 0 3.837-.753 5.245-2.099.81.775 1.773 1.346 2.819 1.697-.521.623-1.142 1.159-1.855 1.558v31.615c0 1.528 1.243 2.771 2.771 2.771s2.771-1.243 2.771-2.771v-31.011c-.724-.198-1.398-.514-2-.93v31.942c0 .425-.346.771-.771.771s-.771-.346-.771-.771v-33.123c.727.228 1.493.351 2.28.351 1.98 0 3.838-.753 5.245-2.098.823.787 1.804 1.365 2.87 1.714v7.861c0 6.355 5.17 11.525 11.525 11.525h.163c.425 0 .771.346.771.771s-.346.771-.771.771h-.163c-7.205 0-13.066-5.862-13.066-13.067v-6.532c-.606.392-1.279.688-2 .865v5.667c0 8.308 6.759 15.067 15.066 15.067h.163c1.527 0 2.771-1.243 2.771-2.771s-1.243-2.771-2.771-2.771h-.163c-5.252 0-9.525-4.273-9.525-9.525v-6.416c-.588-.351-1.1-.805-1.553-1.313.622.162 1.267.253 1.928.253 4.202 0 7.62-3.418 7.62-7.62 0-.999-.199-1.986-.582-2.907 9.225-3.975 13.714-11.403 13.714-22.672z"/><path d="m56.098 35.487c0-1.541-1.249-2.789-2.79-2.789s-2.789 1.249-2.789 2.789c0 1.541 1.249 2.79 2.789 2.79 1.541 0 2.79-1.249 2.79-2.79z"/><path d="m68.692 38.277c1.541 0 2.789-1.249 2.789-2.79s-1.249-2.789-2.789-2.789c-1.541 0-2.79 1.249-2.79 2.789.001 1.541 1.249 2.79 2.79 2.79z"/><path d="m61 48.326c2.467 0 4.474-1.838 4.474-4.098 0-.552-.447-1-1-1s-1 .448-1 1c0 1.157-1.109 2.098-2.474 2.098s-2.474-.941-2.474-2.098c0-.552-.447-1-1-1s-1 .448-1 1c0 2.26 2.007 4.098 4.474 4.098z"/></g></svg>