<svg id="Layer_1" enable-background="new 0 0 128 128" height="512" viewBox="0 0 128 128" width="512" xmlns="http://www.w3.org/2000/svg"><path d="m102.002 59.651c-.09-.472-.503-.813-.982-.813-.002 0-.004 0-.007 0-.482.003-.894.35-.978.825-2.39 13.47-12.209 22.475-21.18 28.051-.643-.814-1.276-1.519-1.86-2.079-.128-1.205-.138-2.422-.044-3.62.145-.417.24-.857.24-1.323v-.356c1.143-6.051 1.09-13.941-2.375-18.882-.258-.368-.802-1.005-1.554-1.886-.822-.963-1.903-2.233-2.916-3.522 4.183-5.143 6.891-13.01 6.891-20.608 0-5.468-1.411-9.529-3.756-12.4-.193-.444-.406-.867-.63-1.282 1.48-.715 2.933-1.738 4.233-3.064 4.355-4.444 5.375-10.531 2.274-13.571-1.008-.987-2.691-.765-5.001.664-1.7 1.052-3.705 2.721-5.645 4.701-.813.83-2.396 2.521-3.701 4.369-2.304-.898-4.961-1.372-7.957-1.372-2.887 0-5.467.431-7.712 1.267-3.061-4.216-8.714-9.195-11.965-10.031-1.408-.36-2.204.074-2.625.503-3.04 3.101-1.897 9.167 2.545 13.523 1.252 1.227 2.635 2.176 4.043 2.856-1.61 2.91-2.469 6.54-2.469 10.839 0 7.396 2.549 15.289 6.678 20.693-1.27 2.529-3.379 4.889-4.825 6.499-.68.757-1.217 1.355-1.546 1.825-3.625 5.171-3.519 13.576-2.224 19.646.199 1.585.206 3.183.021 4.753-4.927 4.919-7.425 12.455-7.425 22.406 0 4.737 1.27 9.167 3.594 12.608-1.212.785-2.285 1.791-3.142 2.954-.521.705-.598 1.63-.202 2.415.389.771 1.163 1.249 2.018 1.249h23.846c.265 0 .52-.105.708-.293s.292-.442.292-.708l-.003-4.565h.88l-.003 4.565c0 .266.105.52.292.708.188.188.442.293.708.293h23.846c.855 0 1.628-.479 2.017-1.249.396-.784.319-1.709-.201-2.414-.86-1.167-1.936-2.175-3.152-2.96.26-.401.505-.823.733-1.264.254-.49 1.145-2.698 1.547-4.02.859-2.827 1.253-6.652 1.317-7.201.242-2.058.248-4.024.076-5.884 21.987-16.431 17.338-42.542 17.281-42.845z" fill="#e6e7e8"/><path d="m97.019 55.838c-2.535 14.289-13.057 23.624-22.397 29.247 2.101 2.899 4.406 7.355 5.043 12.961 22.323-16.179 17.354-42.208 17.354-42.208z" fill="#fa759e"/><path d="m72.043 82.114c-.211-1.699-.21-3.425.005-5.139 0-.004.001-.008.001-.011 1.261-5.919 1.406-14.003-2.052-18.935-.497-.708-2.493-2.903-4.315-5.205-2.747 3.076-6.061 4.996-9.629 4.996-5.171 0-9.804-4.034-12.954-9.775-.087.25-.175.5-.271.728-1.752 4.116-5.78 7.756-6.831 9.255-3.458 4.932-3.312 13.016-2.052 18.935 0 .003.001.007.001.011.224 1.784.216 3.582-.023 5.348-2.606 2.513-7.373 8.47-7.373 21.936 0 5.114 1.566 9.703 4.051 12.918-1.471.76-2.776 1.857-3.794 3.238-.628.852-.033 2.07 1.011 2.07h23.846s-.002-2.455-.004-5.566h2.882c-.002 3.11-.004 5.566-.004 5.566h23.846c1.044 0 1.639-1.218 1.011-2.07-1.018-1.381-2.323-2.478-3.794-3.238 2.485-3.214 3.454-7.839 4.051-12.918 1.347-11.465-4.88-19.652-7.609-22.144z" fill="#fa759e"/><path d="m59.467 79.841c-1.556 2.83-3.839 4.823-6.39 4.823s-4.833-1.993-6.39-4.823h-4.034v13.212c0 5.712 4.631 10.343 10.343 10.343s10.344-4.63 10.344-10.343v-13.212z" fill="#ffd7e5"/><path d="m45.009 12.011c-3.386-5.046-11.618-12.055-13.543-10.09-2.658 2.712-1.524 8.133 2.532 12.108 1.48 1.45 3.144 2.503 4.791 3.13 1.575-2.378 3.714-4.063 6.22-5.148z" fill="#ffd7e5"/><path d="m74.657 1.835c-1.955-1.916-9.983 5.184-13.295 10.292 2.442 1.11 4.516 2.814 6.046 5.183 1.71-.648 3.441-1.767 4.961-3.318 3.975-4.056 5-9.499 2.288-12.157z" fill="#ffd7e5"/><path d="m53.054 10.482c-9.49 0-17.182 5.149-17.182 17.956s7.692 26.382 17.182 26.382 17.182-13.574 17.182-26.382-7.693-17.956-17.182-17.956z" fill="#fff"/><path d="m56.054 13.482c-9.49 0-17.182 5.149-17.182 17.956s7.692 26.382 17.182 26.382 17.182-13.574 17.182-26.382-7.693-17.956-17.182-17.956z" fill="#fa759e"/><path d="m49.097 63.516c-1.67-2.493-5.733-5.959-6.685-4.988-1.313 1.34-.753 4.018 1.251 5.982.732.717 1.554 1.234 2.368 1.544.777-1.171 1.831-2.003 3.066-2.538z" fill="#ffd7e5"/><path d="m63.751 58.486c-.967-.948-4.929 2.564-6.562 5.088 1.203.548 2.225 1.388 2.979 2.555.845-.32 1.701-.871 2.452-1.637 1.965-2.004 2.471-4.693 1.131-6.006z" fill="#ffd7e5"/><path d="m53.078 62.758c-4.688 0-8.489 2.544-8.489 8.871s3.801 13.034 8.489 13.034 8.489-6.706 8.489-13.034-3.801-8.871-8.489-8.871z" fill="#fa759e"/><g fill="#3a2c60"><path d="m98.002 55.651c-.09-.472-.503-.813-.982-.813-.002 0-.004 0-.006 0-.482.003-.894.35-.978.825-2.449 13.798-12.683 22.824-21.156 28.084-.652-.828-1.294-1.543-1.886-2.112-.082-.773-.116-1.55-.108-2.318.608-.71.989-1.619.989-2.625v-6.625c0-.045-.02-.084-.026-.128.077-4.526-.709-9.17-3.033-12.485-.258-.368-.802-1.004-1.554-1.886-.822-.963-1.903-2.233-2.916-3.522-.435.535-.887 1.041-1.353 1.514.95 1.195 1.935 2.354 2.749 3.307.662.775 1.234 1.445 1.438 1.735 2.094 2.986 2.777 7.266 2.678 11.465h.019v6.625c0 1.134-.921 2.057-2.052 2.057-.002 0-.003 0-.005 0-.053-.007-.189-.01-.249-.02l-6.114.135c-.039-.005-.074-.023-.115-.023h-.392c-.386-.06-.744-.225-1.043-.49-.182-.161-.325-.352-.438-.559.02-.056.036-.115.055-.172.551-.147 1.338-.231 2.079-.192.563.029 1.022-.394 1.052-.944.03-.551-.392-1.022-.942-1.053-.24-.012-.861-.029-1.581.052.032-.145.057-.29.085-.435.276-.167.581-.274.892-.294l3.668-.08c.543-.012.978-.456.978-1v-3.607c0-.552-.448-1-1-1s-1 .448-1 1v2.629l-2.729.06c-.173.01-.338.05-.505.081.029-.405.045-.808.045-1.208 0-1.946-.353-3.644-1.02-5.058.623-.356 1.23-.81 1.788-1.38 2.386-2.435 2.876-5.694 1.116-7.42-1.495-1.465-4.385 1.036-5.975 2.658-.52.531-1.128 1.205-1.662 1.92-1.108-.384-2.354-.592-3.736-.592-1.333 0-2.539.196-3.618.554-1.622-2.117-4.333-4.445-5.978-4.868-.977-.252-1.538.132-1.784.384-.864.881-1.186 2.216-.884 3.662.276 1.322 1.039 2.648 2.148 3.735.53.52 1.101.937 1.686 1.271-.691 1.43-1.06 3.152-1.06 5.134 0 .403.016.81.046 1.217-.223-.053-.447-.106-.685-.12l-2.69-.059v-2.627c0-.552-.448-1-1-1s-1 .448-1 1v3.607c0 .544.435.988.978 1l3.63.078c.398.024.769.162 1.084.391.022.108.039.217.063.325-.663-.065-1.224-.049-1.45-.038-.551.031-.974.502-.943 1.054.031.551.502.979 1.054.943.667-.038 1.391.034 1.938.162.005.013.008.027.013.04-.118.271-.289.518-.517.72-.412.365-.943.551-1.529.512l-6.233-.131c-.02.001-.126.017-.146.02-1.136 0-2.06-.924-2.06-2.06v-6.623c0-.004-.002-.007-.002-.011-.094-4.187.592-8.45 2.679-11.426.26-.372.787-.958 1.396-1.637 1.38-1.536 3.331-3.723 4.721-6.184 2.853 3.094 6.309 5.038 10.121 5.038 10.407 0 18.183-14.457 18.183-27.382 0-4.227-.833-7.805-2.391-10.69 1.519-.736 2.969-1.762 4.238-3.056 4.355-4.444 5.375-10.531 2.274-13.571-.335-.329-.942-.696-1.95-.585-3.375.373-9.442 6.163-12.389 10.322-2.306-.9-4.965-1.376-7.965-1.376-2.887 0-5.467.432-7.713 1.267-3.018-4.122-9.222-9.836-12.645-10.153-1.016-.095-1.615.288-1.945.624-1.527 1.558-2.066 3.861-1.517 6.485.519 2.479 1.961 4.978 4.062 7.038 1.218 1.194 2.601 2.152 4.045 2.852-1.612 2.911-2.471 6.543-2.471 10.843 0 7.396 2.549 15.289 6.678 20.693-1.27 2.529-3.379 4.889-4.825 6.499-.68.757-1.217 1.355-1.546 1.825-2.34 3.339-3.12 8.025-3.034 12.562 0 .008-.005.015-.005.023v6.625c0 .99.37 1.887.961 2.592.014.869-.024 1.737-.125 2.597-4.927 4.919-7.425 12.455-7.425 22.406 0 4.737 1.27 9.167 3.594 12.608-1.212.785-2.285 1.791-3.142 2.954-.521.705-.598 1.63-.202 2.415.389.771 1.163 1.249 2.018 1.249h23.846c.265 0 .52-.105.708-.293s.292-.442.292-.708l-.003-4.565h.88l-.003 4.565c0 .266.105.52.292.708.188.188.442.293.708.293h23.846c.855 0 1.628-.479 2.017-1.249.396-.784.319-1.709-.201-2.414-.86-1.167-1.936-2.175-3.152-2.96.26-.401.505-.823.733-1.264.254-.49.063-1.094-.427-1.348s-1.093-.063-1.348.427c-.235.452-.494.87-.763 1.271-.047-.007-.089-.028-.137-.028h-9.901c-.552 0-1 .448-1 1s.448 1 1 1h9.763c.058.05.106.111.176.147 1.351.697 2.542 1.715 3.448 2.942.098.133.058.262.025.326-.035.068-.103.15-.232.15h-22.846l.003-3.762c8.207-1.189 14.539-8.251 14.539-16.783 0-.552-.448-1-1-1s-1 .448-1 1c0 8.259-6.72 14.979-14.979 14.979s-14.979-6.72-14.979-14.979c0-.552-.448-1-1-1s-1 .448-1 1c0 8.531 6.331 15.593 14.538 16.783l.003 3.762h-22.846c-.129 0-.198-.082-.232-.15-.033-.064-.072-.192.026-.326.904-1.227 2.096-2.245 3.447-2.942.07-.036.118-.097.176-.147h9.763c.552 0 1-.448 1-1s-.448-1-1-1h-9.901c-.048 0-.09.021-.136.028-2.167-3.113-3.411-7.315-3.411-11.687 0-9.422 2.444-16.758 7.067-21.216.162-.156.267-.362.297-.585.086-.634.131-1.272.159-1.912.36.105.733.179 1.126.179.084 0 .166-.008.271-.021l5.183.112v12.239c0 6.255 5.088 11.343 11.343 11.343s11.344-5.093 11.344-11.348v-12.208l5.201-.114c.09.013.18.022.273.022.384 0 .749-.071 1.102-.171.026.554.065 1.107.134 1.656.029.236.142.455.318.615.361.33 8.826 8.221 7.291 21.289-.064.548.328 1.045.876 1.11.548.067 1.046-.328 1.11-.876.242-2.056.248-4.021.077-5.879 22.024-16.39 17.33-42.581 17.28-42.846zm-24.375-53.128c.207-.022.312.008.33.026 2.274 2.229 1.22 7.148-2.303 10.743-1.159 1.182-2.48 2.127-3.856 2.767-1.3-1.811-2.956-3.264-4.941-4.341 3.081-4.252 8.502-8.944 10.77-9.195zm-38.929 10.792c-1.822-1.786-3.067-3.923-3.505-6.019-.408-1.95-.057-3.61.987-4.676.015-.015.083-.038.213-.038.035 0 .075.001.12.006 2.246.207 7.833 4.862 10.964 9-2.035 1.06-3.734 2.509-5.069 4.324-1.319-.612-2.589-1.498-3.71-2.597zm18.356-1.833c6.043 0 16.183 2.203 16.183 16.956 0 11.738-7.069 25.382-16.183 25.382-3.93 0-7.479-2.541-10.246-6.37-.118-.227-.251-.436-.365-.667-.01.035-.021.066-.03.101-3.417-5.018-5.542-12.015-5.542-18.446.001-14.753 10.139-16.956 16.183-16.956zm6.85 50.347c1.634-1.667 2.829-2.351 3.279-2.479.721.966.166 2.971-1.276 4.441-.44.449-.933.805-1.431 1.079-.517-.637-1.12-1.188-1.813-1.636.33-.419.732-.885 1.241-1.405zm.663 9.801c0 5.645-3.033 10.995-6.489 11.889v-2.62c.627-.229 1.147-.645 1.43-1.191.236-.456-.119-1-.633-1h-3.594c-.514 0-.87.544-.633 1 .283.547.803.963 1.43 1.191v2.62c-3.456-.894-6.489-6.243-6.489-11.889 0-6.849 4.692-7.872 7.489-7.872s7.489 1.023 7.489 7.872zm-17.441-12.402s0 0 0 0zm1.237 4.568c-.817-.801-1.397-1.791-1.591-2.716-.087-.417-.163-1.16.226-1.699.452.119 1.66.778 3.328 2.413.52.51.932.968 1.271 1.381-.709.444-1.328.99-1.858 1.628-.478-.258-.95-.589-1.376-1.007zm17.977 29.257c0 5.152-4.191 9.343-9.343 9.343s-9.343-4.191-9.343-9.343v-12.212h2.475c1.703 2.832 4.139 4.822 6.949 4.822s5.246-1.99 6.949-4.822h2.314v12.212zm18.074 3.179c-.02-.113-.048-.219-.069-.331-.082-.435-.168-.867-.268-1.288-.029-.12-.061-.235-.091-.354-.111-.44-.226-.876-.354-1.299-.019-.062-.039-.12-.058-.182-.9-2.904-2.177-5.402-3.513-7.402 7.558-4.716 16.432-12.336 20.409-23.549.041 8.203-2.018 23.414-16.056 34.405z"/><path d="m78.093 108.012-.103.513c-.173.875-.337 1.702-.572 2.46-.164.527.131 1.087.659 1.251.099.031.198.045.296.045.426 0 .822-.275.955-.705.266-.859.448-1.776.624-2.664l.101-.505c.109-.542-.241-1.069-.782-1.178-.543-.11-1.069.242-1.178.783z"/><path d="m48.135 44.788c.723 1.396 2.176 2.422 3.919 2.713v2.42c-.666.298-1.227.396-1.621.258-.362-.128-.512-.431-.528-.464-.206-.502-.778-.749-1.287-.551-.515.2-.77.779-.57 1.294.044.114.467 1.129 1.646 1.581.36.138.744.207 1.15.207.658 0 1.378-.19 2.146-.552.022.001.04.013.063.013.055 0 .103-.023.156-.031.784.375 1.517.571 2.188.571.406 0 .79-.069 1.15-.207 1.179-.451 1.602-1.466 1.646-1.581.2-.515-.056-1.094-.57-1.294s-1.094.055-1.294.57c-.001.003-.147.303-.497.437-.421.16-1.038.049-1.78-.308v-2.361c1.743-.291 3.196-1.318 3.919-2.713.479-.923-.242-2.024-1.282-2.024h-7.275c-1.037-.002-1.758 1.099-1.279 2.022z"/><path d="m46.748 32.723c1.183 0 2.142-.959 2.142-2.142s-.959-2.142-2.142-2.142-2.142.959-2.142 2.142.959 2.142 2.142 2.142z"/><path d="m58.396 32.723c1.183 0 2.142-.959 2.142-2.142s-.959-2.142-2.142-2.142-2.142.959-2.142 2.142.958 2.142 2.142 2.142z"/><circle cx="49.847" cy="72.688" r="1.058"/><path d="m55.601 73.746c.585 0 1.058-.474 1.058-1.058s-.474-1.058-1.058-1.058c-.585 0-1.058.474-1.058 1.058s.474 1.058 1.058 1.058z"/></g></svg>