<svg id="Layer_1" enable-background="new 0 0 128 128" height="512" viewBox="0 0 128 128" width="512" xmlns="http://www.w3.org/2000/svg"><path d="m126.568 52.846c-.004-.275-.122-.537-.325-.723s-.469-.282-.749-.259c-4.475.333-10.986 5.548-12.797 9.82l-2.896-2.724c-5.379-5.324-17.848-8.132-38.094-8.572.527-1.175 1.274-2.586 2.291-3.994 2.38-3.295 3.419-8.752 2.864-11.589-.2-1.022-.606-1.731-1.208-2.107-1.652-1.033-3.122.853-4.985 3.24-1.474 1.89-3.309 4.241-5.583 5.823-3.684 2.563-6.556 6.639-7.856 8.685-4.99.128-9.433.334-13.026.501l-1.303.06c-15.833.726-29.182 6.507-29.319 6.567-2.9 1.287-5.248 3.303-6.98 5.992-2.153 3.342-1.259 7.711 2.035 9.946 5.348 3.627 14.594 8.955 25.477 11.304.318 5.05 1.36 10.534 4.16 13.334.957.957 2.014 1.442 3.074 1.442.765 0 1.532-.253 2.263-.763.638-.445 1.229-1.103 1.773-1.893.678.386 1.358.587 2.016.587.905 0 1.768-.365 2.52-1.092 1.988-1.921 3.02-6.36 2.737-10.914 10.203-1.035 19.587-3.289 26.051-5.146.531-.152 8.515-2.678 10.928-3.573.518-.192 2.76-1.057 3.271-1.266 2.863-1.158 5.271-2.277 6.966-3.235 5.181-2.927 9.362-2.816 11.121-2.583-.282 6.684 2.406 11.646 8.625 15.993.289.202.662.236.983.092.321-.145.542-.447.583-.797.158-1.376 1.343-12.792-2.354-17.565 2.393-1.667 7.861-6.379 7.737-14.591z" fill="#e6e7e8"/><path d="m47.579 80.593c-1.367.101-2.735.166-4.104.196.087 3.97-.87 8.048-2.371 10.734.109.09.217.184.33.265 4.274 3.095 6.896-4.127 6.145-11.195z" fill="#0089ef"/><path d="m121.568 48.861c-4.56.34-11.884 6.632-12.334 10.571-.147-.083-.28-.177-.42-.265l-3.717-3.496c-6.355-6.291-23.068-8.06-38.872-8.311.556-1.474 1.488-3.51 2.963-5.552 2.797-3.872 3.657-11.187 1.936-12.263s-4.518 5.594-9.466 9.036c-3.809 2.65-6.723 6.99-7.865 8.85-5.839.142-11.035.399-14.847.574-15.83.726-28.959 6.482-28.959 6.482-3.167 1.406-5.223 3.567-6.546 5.62-1.846 2.865-1.064 6.664 1.756 8.577 6.882 4.668 21.731 13.125 37.956 12.263 22.294-1.185 45.047-9.462 52.226-13.52s12.556-2.561 12.665-2.537c-.528 6.618 1.708 11.497 8.146 15.997 0 0 1.605-13.927-2.924-17.643.001 0 8.449-4.587 8.302-14.383z" fill="#0089ef"/><path d="m63.745 72.183c-1.143 1.078-2.32 2.107-3.7 2.843-2.667 1.423-5.811 1.602-8.833 1.552-6.756-.112-13.513-1.227-19.876-3.502-4.714-1.686-9.186-3.994-13.904-5.669s-9.827-2.708-14.733-1.716c1.484 2.113 3.593 3.7 5.754 5.113 8.989 5.878 19.543 9.337 30.267 9.919 9.521.517 19.026-1.188 28.298-3.416 10.618-2.552 21.151-5.833 30.726-11.085.647-.355-1.936-2.727-2.237-2.886-1.124-.594-2.604-.752-3.848-.93-2.915-.416-5.888-.407-8.804-.003-5.832.808-11.459 3.197-16.012 6.942-.364.3-.721.608-1.071.924-.687.622-1.35 1.277-2.027 1.914z" fill="#d4fbff"/><ellipse cx="37.241" cy="61.171" fill="#d4fbff" rx="9.641" ry="4.584"/><path d="m31.323 69.992s-1.936 17.857 3.657 23.45 11.187-10.542 7.1-19.363z" fill="#0089ef"/><g fill="#3a2c60"><path d="m18.687 60.387c0 1.317 1.068 2.385 2.385 2.385s2.385-1.068 2.385-2.385-1.068-2.385-2.385-2.385-2.385 1.068-2.385 2.385z"/><path d="m84.94 70.923c-2.379.882-4.904 1.739-7.505 2.546-.527.164-.822.724-.659 1.251.133.429.528.704.955.704.098 0 .198-.015.297-.045 2.635-.817 5.194-1.686 7.607-2.581.518-.192.782-.768.59-1.285-.192-.519-.768-.782-1.285-.59z"/><path d="m122.568 48.846c-.004-.275-.122-.537-.325-.723s-.467-.281-.749-.259c-4.474.333-10.985 5.548-12.796 9.82l-2.896-2.724c-5.379-5.324-17.848-8.132-38.093-8.572.527-1.175 1.274-2.587 2.291-3.994 2.379-3.294 3.419-8.752 2.863-11.589-.2-1.022-.606-1.731-1.208-2.107-1.652-1.032-3.123.853-4.984 3.24-1.475 1.89-3.309 4.242-5.583 5.823-3.684 2.562-6.557 6.638-7.857 8.684-5 .129-9.45.335-13.049.502l-1.28.059c-15.832.726-29.181 6.507-29.318 6.567-2.899 1.287-5.248 3.303-6.981 5.993-2.153 3.343-1.259 7.711 2.036 9.946 5.346 3.626 14.596 8.937 25.476 11.286.316 5.055 1.358 10.549 4.161 13.352.957.958 2.014 1.442 3.074 1.442.766 0 1.532-.253 2.263-.764.638-.445 1.229-1.103 1.773-1.892.678.386 1.358.587 2.016.587.905 0 1.768-.365 2.521-1.092 1.988-1.921 3.027-6.362 2.744-10.916 10.202-1.035 19.583-3.287 26.044-5.144.531-.152.838-.706.685-1.237-.152-.531-.707-.84-1.237-.685-7.223 2.075-18.135 4.65-29.718 5.411-.138-2.203-.591-4.346-1.451-6.2-.233-.502-.828-.719-1.328-.487-.501.232-.719.827-.487 1.328 2.975 6.419.447 16.485-2.708 18.688-.638.445-1.529.796-2.778-.453-5.19-5.19-3.389-22.461-3.37-22.636.06-.549-.337-1.042-.887-1.102-.543-.061-1.042.337-1.102.886-.037.341-.438 4.198-.309 8.847-10.332-2.334-19.137-7.399-24.26-10.874-2.388-1.62-3.037-4.786-1.477-7.208 1.518-2.356 3.574-4.122 6.106-5.246.13-.057 13.138-5.689 28.603-6.399l1.281-.059c3.718-.172 8.346-.387 13.544-.514.339-.008.65-.188.828-.477 1.055-1.719 3.906-5.994 7.583-8.552 2.522-1.754 4.46-4.239 6.017-6.235.813-1.041 1.906-2.442 2.418-2.704.786.963.37 7.081-2.287 10.76-1.38 1.91-2.301 3.821-2.873 5.235-1.829.112-4.005.313-4.136.325-.55.051-.954.539-.903 1.088.048.519.484.907.995.907.031 0 .062-.001.094-.004.043-.004 4.099-.372 5.694-.39 19.675.397 32.182 3.083 37.164 8.014l3.717 3.496c.046.044.097.083.152.117l.125.082c.11.071.219.143.336.208.292.166.648.172.946.021.299-.152.501-.444.54-.777.366-3.2 6.199-8.397 10.314-9.493-.497 8.244-7.445 12.144-7.753 12.313-.292.16-.485.454-.517.785-.031.331.104.656.361.866 2.929 2.403 3.027 10.489 2.721 15.003-4.882-3.863-6.782-8.148-6.312-14.051.039-.487-.296-.934-.77-1.053-1.007-.254-6.383-1.317-13.385 2.64-1.623.917-3.951 1.997-6.731 3.122-.512.208-.759.791-.552 1.302.207.512.79.76 1.302.552 2.86-1.157 5.269-2.275 6.966-3.234 5.188-2.933 9.367-2.82 11.121-2.584-.282 6.685 2.406 11.646 8.625 15.994.289.202.663.237.983.092.321-.145.542-.447.583-.797.158-1.376 1.343-12.792-2.354-17.565 2.395-1.667 7.861-6.379 7.738-14.591zm-78.096 33.016c.736-.048 1.468-.102 2.198-.164.232 4.021-.657 7.859-2.141 9.294-.447.431-1.088.814-2.142.216 1.231-2.552 2.008-5.939 2.085-9.346z"/></g></svg>