<svg id="Layer_1" enable-background="new 0 0 128 128" height="512" viewBox="0 0 128 128" width="512" xmlns="http://www.w3.org/2000/svg"><path d="m121.716 80.972c-6.102-8.285-13.767-14.864-19.333-19.056.286-1.517.376-3.084.225-4.68-.706-7.454-6.608-13.616-14.033-14.652-.001 0-.002 0-.002 0-.279-.039-.556-.07-.833-.096-2.863-.255-5.359-1.727-6.851-4.039-7.203-11.17-20.213-17.424-34.77-16.698-20.452 1.005-36.338 17.441-36.166 37.42.145 16.922 11.304 30.419 27.311 34.714l.93 2.954c.526 1.671 1.966 2.812 3.694 2.967l1.529 9.749c.084.529.539.918 1.074.918h8.971c.601 0 1.087-.486 1.087-1.087s-.486-1.087-1.087-1.087h-8.041l-1.386-8.841c.968-.432 1.758-1.218 2.192-2.255l.538-1.288 1.409 1.866c.829 1.099 2.08 1.707 3.395 1.707.091 0 .184-.015.276-.021l7.472 9.932c.205.273.526.433.868.433h8.845c.601 0 1.087-.486 1.087-1.087s-.486-1.087-1.087-1.087h-8.303l-6.713-8.923c1.082-.734 1.777-1.931 1.85-3.3l.039-.723c12.447-2.019 22.35-9.063 27.331-19.755 1.003.188 2.022.283 3.039.283 4.409 0 8.635-1.806 11.712-4.945 9.282 5.187 16.092 11.074 20.949 16.354.974 1.059 2.45-.467 2.161-1.78.008-.006.016-.01.024-.016 1.035-.849 1.557-2.577.597-3.881z" fill="#e6e7e8"/><path d="m44.107 89.981c-.513 0-1.022-.016-1.53-.034l2.204 2.92c1.794 2.377 5.577 1.223 5.738-1.75l.088-1.61c-2.113.303-4.28.474-6.5.474z" fill="#fa759e"/><path d="m33.851 88.696 1.12 3.557c.894 2.84 4.845 3.019 5.993.272l1.085-2.596c-2.829-.137-5.571-.56-8.198-1.233z" fill="#fa759e"/><path d="m116.579 77.355c-6.223-8.451-14.151-15.14-19.659-19.24-.485 2.047-1.377 3.936-2.591 5.574 8.975 5.104 15.594 10.85 20.345 16.015 1.121 1.218 2.909-.986 1.905-2.349z" fill="#fff"/><path d="m116.579 80.042c-6.497-8.822-14.845-15.72-20.364-19.76-.796 1.976-1.987 3.743-3.482 5.211 9.789 5.317 16.913 11.432 21.941 16.897 1.121 1.219 2.909-.985 1.905-2.348z" fill="#fa759e"/><path d="m84.164 39.4c-.261-.036-.521-.066-.78-.089-3.127-.278-5.967-1.894-7.668-4.533-6.966-10.803-19.58-16.898-33.803-16.201-19.536.958-35.302 16.765-35.134 36.323.177 20.445 16.821 35.081 37.328 35.081 15.327 0 28.49-7.321 34.238-20.532 1.176.289 2.404.445 3.669.445 8.955 0 16.117-7.683 15.252-16.817-.662-6.988-6.15-12.707-13.102-13.677z" fill="#6dc9f7"/><g fill="#3a2c60"><path d="m117.385 76.762c-6.093-8.275-13.792-14.874-19.358-19.064.294-1.527.386-3.107.234-4.715-.702-7.414-6.572-13.543-13.956-14.573-.279-.039-.556-.07-.834-.096-2.889-.256-5.409-1.743-6.915-4.078-7.186-11.143-20.157-17.349-34.693-16.658-.552.027-.977.496-.95 1.048s.497.969 1.048.95c13.824-.676 26.119 5.208 32.913 15.744 1.844 2.857 4.912 4.675 8.419 4.986.243.021.486.049.733.084 6.479.904 11.628 6.279 12.244 12.781.387 4.097-.912 8.017-3.66 11.036-2.71 2.979-6.572 4.688-10.597 4.688-1.152 0-2.307-.14-3.431-.416-.009-.002-.019 0-.028-.002-5.974-1.766-10.141-7.481-10.141-13.925 0-1 .103-1.996.306-2.96.113-.541-.232-1.071-.772-1.185-.538-.114-1.071.232-1.185.772-.231 1.1-.349 2.234-.349 3.372 0 6.946 4.279 13.149 10.535 15.491-5.651 11.873-17.828 18.938-32.843 18.938-20.542 0-36.159-14.655-36.327-34.09-.104-11.936 5.956-22.992 16.209-29.576.465-.299.6-.917.302-1.382-.299-.465-.917-.602-1.382-.302-10.834 6.96-17.237 18.652-17.128 31.279.146 16.896 11.299 30.37 27.292 34.643l.945 3.002c.522 1.659 1.963 2.786 3.687 2.915l1.54 9.813c.077.486.496.845.988.845h8.971c.553 0 1-.447 1-1s-.447-1-1-1h-8.115l-1.409-8.982c.976-.417 1.775-1.195 2.209-2.233l.596-1.427 1.5 1.988c.813 1.076 2.039 1.672 3.326 1.672.105 0 .21-.016.316-.023l7.501 9.969c.188.251.484.398.799.398h8.846c.553 0 1-.447 1-1s-.447-1-1-1h-8.347l-6.798-9.035c1.104-.714 1.818-1.906 1.892-3.279l.043-.794c12.476-2.003 22.396-9.058 27.363-19.777 1.02.196 2.056.295 3.09.295 4.586 0 8.987-1.947 12.076-5.341.167-.183.309-.38.467-.569 7.414 4.307 13.937 9.478 19.382 15.396.411.446.938.673 1.479.673.475 0 .96-.175 1.388-.527 1.002-.831 1.508-2.506.579-3.769zm-79.467 16.723c-.741-.033-1.653-.454-1.993-1.533l-.588-1.866c1.704.353 3.454.606 5.249.748l-.545 1.304c-.435 1.044-1.367 1.362-2.123 1.347zm11.603-2.422c-.061 1.129-.84 1.763-1.549 1.979-.713.22-1.711.125-2.393-.776l-.98-1.299c1.683-.017 3.333-.117 4.943-.301zm66.284-12.466c-.122.302-.328.443-.395.43-5.532-6.014-12.137-11.279-19.643-15.664.037-.058.064-.122.101-.18.283-.453.541-.917.776-1.391.036-.073.078-.144.113-.219.276-.579.526-1.17.731-1.776 5.393 4.125 12.575 10.396 18.286 18.151h.001c.164.225.089.503.03.649z"/><path d="m27.337 23.293c.146 0 .295-.032.436-.101 2.967-1.438 6.118-2.468 9.366-3.061.543-.099.903-.619.804-1.163-.099-.543-.621-.909-1.163-.804-3.426.625-6.75 1.711-9.88 3.229-.497.24-.704.839-.463 1.336.171.357.529.564.9.564z"/><path d="m85.943 50.747c0-1.775-1.439-3.214-3.214-3.214s-3.213 1.439-3.213 3.214 1.439 3.214 3.213 3.214c1.775-.001 3.214-1.44 3.214-3.214z"/></g></svg>