<svg id="Layer_1" enable-background="new 0 0 128 128" height="512" viewBox="0 0 128 128" width="512" xmlns="http://www.w3.org/2000/svg"><path d="m98.547 6.813c-6.216 0-11.792 2.885-15.566 7.43-5.013-2.786-10.788-4.362-16.926-4.362-6.48 0-12.548 1.79-17.744 4.896-3.773-4.853-9.541-7.964-15.998-7.964-11.34 0-20.566 9.589-20.566 21.375 0 7.058 1.912 18.859 7.04 20.477 2.05.646 4.201-.355 6.414-2.98 1.051 2.498 3.064 3.824 5.839 3.824.225 0 .46-.018.695-.035 1.289 8.225 5.875 14.746 12.972 18.915-7.718 9.518-14.848 25.315-10.105 37.371.093.377.188.753.296 1.12.54 1.851 1.28 3.601 2.176 5.202-1.169.433-2.328 1.121-3.244 2.204-1.03 1.218-1.252 2.875-.58 4.324.673 1.45 2.083 2.351 3.679 2.351h11.205c.054.009.108.023.162.032.165.067.331.126.499.166.064.015.129.024.195.026l2.251.062v1.847c0 .526.426.953.953.953s.953-.427.953-.953v-1.794l2.184.061v1.733c0 .526.426.953.953.953s.953-.427.953-.953v-1.68l2.429.067c.805 0 1.535-.287 2.117-.793h9.186c.594.505 1.332.792 2.157.792h.002l2.403-.067v1.68c0 .526.426.953.953.953s.953-.427.953-.953v-1.734l2.184-.061v1.794c0 .526.426.953.953.953s.953-.427.953-.953v-1.847l2.241-.062c.066-.002.132-.011.196-.026.176-.042.346-.124.517-.196h10.88c1.764 0 3.29-1.118 3.889-2.849.612-1.772.066-3.657-1.392-4.803-.739-.58-1.559-.989-2.379-1.277.884-1.587 1.613-3.321 2.147-5.152.52-1.782.848-3.861.966-6.097.607-4.36.083-9.212-1.559-14.422-.403-1.437-.85-2.676-1.327-3.683-.003-.007-.007-.013-.009-.02-1.679-4.13-3.972-8.213-6.605-11.841 7.849-4.302 13.055-11.598 13.522-21.862 1.356-.609 2.387-1.71 3.043-3.269 2.213 2.625 4.368 3.626 6.414 2.98 5.128-1.618 7.04-13.418 7.04-20.477.002-11.787-9.224-21.376-20.564-21.376z" fill="#e6e7e8"/><path d="m93.459 110.246c-.988-.776-2.152-1.208-3.24-1.448 1.111-1.767 2.036-3.779 2.683-5.998.526-1.805.822-3.843.937-5.961.621-4.465-.038-9.293-1.529-14.019-.383-1.367-.815-2.576-1.275-3.546l-.001.003c-1.719-4.247-4.037-8.308-6.608-11.83-5.475 2.785-12.134 4.188-19.325 4.188-9.058 0-17.275-2.222-23.336-6.639-8.069 9.777-14.592 25.265-10.066 36.661.094.384.191.767.301 1.143.652 2.234 1.584 4.26 2.705 6.035-1.389.329-2.882.978-3.96 2.253-1.704 2.014-.267 5.107 2.371 5.107h11.306c1.54.281 3.097.22 4.605-.273h26.848c1.508.494 3.065.554 4.605.273h11.072c2.977 0 4.389-4 1.907-5.949z" fill="#6dc9f7"/><path d="m65.101 71.635c-4.502 0-8.794-.553-12.72-1.645-1.033 3.177-1.638 6.881-1.638 10.854 0 11.697 5.148 21.18 11.499 21.18s11.499-9.483 11.499-21.18c0-3.511-.471-6.815-1.292-9.731-2.367.344-4.824.522-7.348.522z" fill="#ffd7e5"/><path d="m94.734 3.954c-6.228 0-11.768 3.03-15.36 7.744 3.087 1.824 5.856 4.124 8.209 6.801 6.901 6.176 11.258 15.133 11.258 25.124 0 .144-.009.283-.011.426 1.277-.74 2.214-2.102 2.641-4.231 8.46 12.077 12.874-4.163 12.874-15.442s-8.779-20.422-19.611-20.422z" fill="#6dc9f7"/><path d="m28.5 40.763c0-12.014 6.285-22.555 15.741-28.533-3.574-5.013-9.284-8.276-15.741-8.276-10.832 0-19.613 9.143-19.613 20.422s4.414 27.518 12.874 15.442c.826 4.116 3.562 5.353 6.973 4.781-.149-1.234-.234-2.509-.234-3.836z" fill="#6dc9f7"/><path d="m37.747 17.571c-2.051-3.021-5.424-4.999-9.246-4.999-6.254 0-11.324 5.279-11.324 11.792 0 6.512 2.548 15.889 7.433 8.916.493 2.46 2.165 3.146 4.231 2.73 1-7.096 4.207-13.478 8.906-18.439z" fill="#ffd7e5"/><path d="m96.164 12.573c-3.908 0-7.353 2.061-9.388 5.196 5.503 4.618 9.504 10.96 11.184 18.195 1.026-.321 1.789-1.158 2.096-2.684 4.885 6.973 7.433-2.403 7.433-8.916-.001-6.512-5.071-11.791-11.325-11.791z" fill="#ffd7e5"/><path d="m62.242 7.022c-18.635 0-33.742 15.106-33.742 33.741s15.107 28.013 33.742 28.013 33.742-9.378 33.742-28.013-15.107-33.741-33.742-33.741z" fill="#fff"/><path d="m65.101 9.881c-18.635 0-33.742 15.107-33.742 33.742s15.107 28.013 33.742 28.013 33.742-9.378 33.742-28.013c-.001-18.636-15.107-33.742-33.742-33.742z" fill="#6dc9f7"/><path d="m55.602 38.5c.058-.477.096-.963.096-1.461 0-5.063-3.106-9.167-6.938-9.167s-6.938 4.104-6.938 9.167 3.106 9.167 6.938 9.167c1.356 0 2.617-.522 3.686-1.411.491-2.487 1.614-4.672 3.156-6.295z" fill="#ffd7e5"/><path d="m75.121 27.871c-3.832 0-6.938 4.104-6.938 9.167 0 .343.017.68.045 1.013 1.856 1.734 3.2 4.231 3.688 7.112.959.662 2.048 1.042 3.205 1.042 3.832 0 6.938-4.104 6.938-9.167s-3.106-9.167-6.938-9.167z" fill="#ffd7e5"/><g fill="#3a2c60"><path d="m94.734 2.954c-6.217 0-11.796 2.879-15.578 7.418-5.012-2.778-10.783-4.35-16.916-4.35-6.483 0-12.553 1.79-17.752 4.894-3.78-4.845-9.532-7.962-15.988-7.962-11.365 0-20.612 9.61-20.612 21.422 0 7.071 1.92 18.896 7.073 20.521 2.051.648 4.205-.339 6.414-2.936 1.065 2.471 3.081 3.782 5.851 3.782.212 0 .436-.018.657-.033 1.297 8.203 5.87 14.712 12.941 18.882-7.712 9.533-14.821 25.314-10.08 37.37.092.376.188.75.296 1.118.536 1.839 1.277 3.57 2.165 5.163-1.162.437-2.313 1.124-3.224 2.201-1.042 1.232-1.267 2.909-.586 4.375.68 1.467 2.106 2.378 3.721 2.378h11.229c.033.006.067.013.1.018.174.073.349.136.527.178.067.016.136.025.205.027l2.205.061v1.801c0 .552.447 1 1 1s1-.448 1-1v-1.746l2.091.058v1.688c0 .552.447 1 1 1s1-.448 1-1v-1.632l2.383.066c.811 0 1.547-.286 2.135-.793h9.149c.6.506 1.345.792 2.177.792h.002l2.354-.066v1.632c0 .552.447 1 1 1s1-.448 1-1v-1.688l2.091-.058v1.746c0 .552.447 1 1 1s1-.448 1-1v-1.802l2.196-.061c.069-.002.139-.011.206-.027.175-.042.345-.123.515-.195h10.87c1.784 0 3.328-1.13 3.934-2.88.619-1.791.066-3.697-1.409-4.855-.731-.574-1.539-.979-2.349-1.269.875-1.579 1.605-3.293 2.135-5.111.521-1.786.849-3.868.967-6.104.607-4.368.082-9.227-1.561-14.442-.405-1.441-.853-2.682-1.33-3.688-.001-.002-.002-.005-.004-.008-1.68-4.134-3.975-8.223-6.612-11.857-.589.324-1.197.625-1.814.915 2.635 3.585 4.934 7.644 6.599 11.757.016.039.033.076.054.112.42.898.819 2.016 1.186 3.325.003.01.006.021.009.031 1.558 4.936 2.06 9.505 1.485 13.664-.118 2.167-.421 4.096-.898 5.736-.543 1.863-1.319 3.591-2.245 5.16-1.735-.273-3.126-.126-3.228-.115-.073.008-.133.042-.2.065.927-3.406 1.555-7.321 1.817-11.139.037-.551-.379-1.028-.93-1.066-.545-.031-1.027.377-1.066.929-.725 10.549-3.824 18.306-6.306 19.068l-2.021.056v-3.397c0-.552-.447-1-1-1s-1 .448-1 1v3.452l-2.091.058v-3.511c0-.552-.447-1-1-1s-1 .448-1 1v3.566l-2.383.066c-.406 0-.761-.16-1.025-.462-.333-.382-.488-.947-.433-1.565 2.914-6.742 4.532-12.468 4.946-17.502.045-.551-.365-1.034-.915-1.079-.56-.044-1.033.364-1.079.915-.397 4.847-1.982 10.41-4.846 17.007-.037.084-.062.173-.074.264-.076.564-.038 1.114.082 1.63h-6.811c.108-.523.13-1.081.034-1.652-.016-.089-.042-.176-.081-.257-3.081-6.586-4.849-12.138-5.403-16.973-.063-.549-.553-.943-1.107-.88-.548.063-.942.559-.879 1.107.575 5.021 2.38 10.733 5.517 17.46.076.612-.058 1.169-.373 1.542-.246.292-.587.445-.959.446l-2.41-.067v-3.566c0-.552-.447-1-1-1s-1 .448-1 1v3.511l-2.091-.058v-3.453c0-.552-.447-1-1-1s-1 .448-1 1v3.397h-.01c-.18-.174-.423-.283-.693-.283h-1.813c-2.535-1.577-5.679-9.521-6.564-19.749-.048-.55-.527-.971-1.082-.91-.551.047-.958.532-.91 1.083.349 4.038 1.124 8.278 2.231 11.94-.309-.031-1.669-.134-3.32.148-.933-1.576-1.714-3.313-2.26-5.186-.105-.361-.199-.73-.289-1.1-.011-.045-.025-.089-.042-.132-4.54-11.43 2.486-26.63 9.961-35.708-.041-.028-.079-.059-.119-.087 5.405 2.768 12.09 4.283 19.771 4.283 16.563 0 28.953-7.142 33.144-19.105.183-.521-.092-1.092-.612-1.274-.521-.18-1.093.093-1.274.613-3.897 11.125-15.582 17.766-31.257 17.766-19.89 0-32.741-10.603-32.741-27.013 0-18.054 14.687-32.742 32.741-32.742 5.681 0 11.03 1.435 15.697 3.97.854.446 1.74 1.012 1.74 1.012 8.312 5.205 14.118 14.06 15.146 24.517.054.549.54.959 1.093.897.55-.054.951-.543.897-1.093-1.084-11.028-7.177-20.374-15.909-25.911 3.407-3.959 8.338-6.461 13.828-6.461 10.263 0 18.612 8.713 18.612 19.422 0 8.125-2.28 17.543-5.675 18.614-1.866.589-3.955-1.712-5.38-3.746-.23-.328-.632-.489-1.024-.405-.392.082-.696.39-.775.782-.294 1.468-.851 2.529-1.67 3.21.006.264.02.526.02.792 0 .532-.016 1.055-.04 1.572 1.357-.602 2.392-1.692 3.057-3.234 2.209 2.598 4.362 3.583 6.414 2.936 5.153-1.625 7.073-13.45 7.073-20.521-.002-11.813-9.249-21.422-20.615-21.422zm-8.038 106.599c.039-.006 3.746-.403 6.146 1.48.964.757 1.021 1.854.753 2.629-.256.741-.928 1.534-2.043 1.534h-8.544c1.092-1.473 2.035-3.57 2.81-6.023.209.258.53.419.878.38zm-48.31 0c.279.035.539-.048.738-.209.838 2.376 1.826 4.411 2.935 5.851h-8.942c-.84 0-1.553-.456-1.907-1.22-.354-.763-.242-1.601.3-2.241 2.248-2.659 6.829-2.186 6.876-2.181zm-10.886-68.79c0 1.005.05 1.988.138 2.952-2.705.149-4.312-1.18-4.895-4.094-.079-.392-.384-.7-.775-.782-.068-.015-.137-.021-.205-.021-.322 0-.63.156-.819.426-1.425 2.034-3.524 4.334-5.38 3.746-3.395-1.071-5.675-10.489-5.675-18.614 0-10.709 8.35-19.422 18.612-19.422 5.748 0 10.88 2.747 14.295 7.035-9.223 6.252-15.296 16.817-15.296 28.774z"/><path d="m95.995 40.358c-.569.007-1.008.431-1.018.982-.028 1.654-.185 3.268-.463 4.798-.1.543.261 1.064.805 1.163.061.011.12.016.18.016.474 0 .895-.338.982-.821.299-1.637.465-3.36.496-5.122.01-.55-.43-1.006-.982-1.016z"/><path d="m50.743 34.259c-1.535 0-2.779 1.244-2.779 2.779s1.244 2.779 2.779 2.779 2.779-1.244 2.779-2.779-1.244-2.779-2.779-2.779z"/><path d="m76.52 37.038c0-1.535-1.244-2.779-2.779-2.779s-2.779 1.244-2.779 2.779 1.244 2.779 2.779 2.779c1.534.001 2.779-1.244 2.779-2.779z"/><path d="m70.254 58.459c-.553 0-1 .448-1 1 0 1.658-1.349 3.006-3.007 3.006-1.615 0-2.926-1.283-2.993-2.882 4.987-.669 8.866-5.778 8.866-11.987 0-6.664-4.467-12.066-9.977-12.066s-9.977 5.402-9.977 12.066c0 6.29 3.981 11.45 9.061 12.01-.079 1.588-1.384 2.858-2.991 2.858-1.657 0-3.006-1.349-3.006-3.006 0-.552-.447-1-1-1s-1 .448-1 1c0 2.761 2.246 5.006 5.006 5.006 1.644 0 3.093-.807 4.006-2.035.913 1.228 2.362 2.035 4.006 2.035 2.761 0 5.007-2.246 5.007-5.006-.001-.551-.448-.999-1.001-.999z"/></g></svg>