<svg id="Layer_1" enable-background="new 0 0 128 128" height="512" viewBox="0 0 128 128" width="512" xmlns="http://www.w3.org/2000/svg"><path d="m114.609 86.305c-.011-6.222-3.825-10.15-8.053-12.599-.011-.095-.02-.185-.033-.282-.584-5.291-1.956-10.348-4.034-14.989 5.401-2.132 11.763-6.348 11.777-14.387 3.704-1.094 9.544-3.806 9.544-10.032 0-.956-.748-1.731-1.672-1.731s-1.672.775-1.672 1.731c0 5.886-9.498 7.252-9.593 7.266-.778.105-1.356.75-1.44 1.523-.184.366-.298.776-.298 1.218 0 5.018-4.496 7.893-8.52 9.464-1.628-2.809-3.494-4.719-3.868-4.602-.616-.785-1.261-1.545-1.928-2.284-.01-.013-.013-.029-.024-.041-.068-.075-.14-.146-.208-.221-.216-.236-.438-.467-.659-.698-.234-.244-.47-.487-.709-.725-.096-.095-.187-.196-.284-.291-.127-.124-.259-.238-.388-.36-.239-.227-.479-.45-.722-.67-.251-.227-.503-.45-.757-.669-.209-.18-.42-.356-.632-.531-.303-.25-.607-.496-.915-.735-.059-.046-.115-.095-.174-.14 0 0-.001-.001-.001-.001-.108-.083-.218-.158-.326-.239-.322-.242-.645-.483-.973-.713-.099-.07-.199-.135-.298-.203-.19-.131-.38-.262-.572-.39.102-.848.17-1.706.17-2.581 0-9.941-6.77-18.278-15.944-20.714.397-.761 2.698-4.881 6.094-5.151 2.423-.171 4.986 1.63 7.617 5.419.314.453.937.566 1.392.251.454-.315.566-.938.251-1.392-3.066-4.416-6.24-6.533-9.418-6.271-4.857.387-7.688 6.163-7.806 6.408-.049.102-.067.208-.08.315-1.161-.195-2.345-.32-3.561-.32-1.176 0-2.321.12-3.445.302-.569-1.354-4.049-6.392-8.276-7.18-3.6-.674-6.706 1.643-9.225 6.883-.239.498-.03 1.096.468 1.335.497.24 1.095.03 1.334-.468 1.885-3.923 4.009-5.922 6.326-5.858 3.356.05 6.395 4.122 7.281 5.544.007.061.025.12.044.179-9.184 2.43-15.963 10.771-15.963 20.719 0 .833.059 1.65.151 2.458-2.173 1.432-4.246 3.123-6.189 5.066-2.581 2.581-4.821 5.506-6.702 8.687-4.099-1.543-8.829-4.436-8.829-9.583 0-.442-.114-.852-.298-1.218-.084-.773-.662-1.418-1.44-1.523-.096-.013-9.593-1.38-9.593-7.266 0-.956-.748-1.731-1.672-1.731s-1.674.775-1.674 1.732c0 6.227 5.84 8.938 9.544 10.032.014 7.907 6.169 12.114 11.51 14.279-2.142 4.798-3.517 10.046-4.053 15.527-4.125 2.458-7.789 6.354-7.799 12.451-3.704 1.094-9.544 3.806-9.544 10.032 0 .957.748 1.731 1.672 1.731s1.672-.775 1.672-1.731c0-5.886 9.498-7.252 9.593-7.265.778-.105 1.356-.75 1.44-1.523.184-.366.298-.777.298-1.218 0-2.349.99-4.225 2.451-5.722.162 4.76.988 9.333 2.385 13.586-2.887 3.951-4.811 9.052-2.489 14.695-2.989 2.516-7.326 7.389-4.96 13.113.364.879 1.346 1.287 2.195.91.849-.376 1.242-1.394.879-2.273-2.237-5.411 5.974-10.539 6.057-10.59.675-.414.961-1.242.745-1.987.03-.412-.021-.835-.189-1.241-.947-2.29-.671-4.545.223-6.615 5.798 11.715 16.269 19.935 28.774 20.955.027.002.055.003.082.003.236 0 .466-.084.647-.237.202-.172.328-.417.349-.682l.051-.621c2.006.406 4.064.63 6.168.63 2.288 0 4.524-.262 6.694-.74l.068.714c.025.264.154.507.358.676.18.149.406.229.637.229.031 0 .063-.002.094-.005 12.401-1.176 22.704-9.422 28.374-21.079.948 2.112 1.26 4.424.289 6.771-.168.406-.219.829-.189 1.241-.216.745.07 1.573.745 1.987.083.051 8.294 5.179 6.057 10.59-.364.879.03 1.896.879 2.273s1.832-.031 2.195-.91c2.367-5.724-1.971-10.597-4.96-13.113 2.353-5.719.345-10.88-2.606-14.853 1.372-4.272 2.171-8.862 2.296-13.634 1.574 1.529 2.656 3.469 2.656 5.927 0 .441.114.852.298 1.218.084.773.663 1.418 1.44 1.523.096.013 9.593 1.38 9.593 7.265 0 .957.748 1.731 1.672 1.731s1.672-.775 1.672-1.731c0-6.225-5.84-8.936-9.544-10.03z" fill="#e6e7e8"/><path d="m61.602 31.275-6.928 84.89c-19.907-1.625-34.487-21.94-32.573-45.394 1.913-23.438 19.594-41.12 39.501-39.496z" fill="#fa759e"/><path d="m61.602 31.343 8.045 84.792c19.884-1.887 34.195-22.392 31.973-45.818-2.221-23.412-20.134-40.861-40.018-38.974z" fill="#fff"/><path d="m64.602 34.343 8.045 84.792c19.884-1.887 34.195-22.392 31.973-45.818-2.221-23.412-20.134-40.861-40.018-38.974z" fill="#fa759e"/><circle cx="51.591" cy="21.222" fill="#fff" r="3.137"/><path d="m72.189 18.085c-1.732 0-3.137 1.404-3.137 3.137s1.404 3.137 3.137 3.137 3.137-1.404 3.137-3.137-1.405-3.137-3.137-3.137z" fill="#fff"/><g fill="#3a2c60"><path d="m110.609 82.305c-.009-5.34-2.822-8.988-6.291-11.465.118.818.223 1.642.302 2.476.189 1.989.249 3.954.206 5.891.413.936.652 1.972.652 3.123 0 .442.114.852.298 1.218.084.773.663 1.418 1.44 1.523.096.013 9.593 1.38 9.593 7.265 0 .957.748 1.731 1.672 1.731s1.672-.775 1.672-1.731c0-6.226-5.84-8.937-9.544-10.031z"/><path d="m103.131 104.891c1.782-4.331 1.064-8.344-.671-11.763-.944 2.861-2.145 5.574-3.586 8.088-.096.532-.248 1.068-.47 1.606-.168.406-.219.829-.189 1.241-.216.745.07 1.573.745 1.987.083.051 8.294 5.179 6.057 10.59-.364.879.03 1.896.879 2.273s1.832-.031 2.195-.91c2.366-5.724-1.971-10.597-4.96-13.112z"/><path d="m47.054 47.324c-2.689-.219-5.046 1.782-5.265 4.471s1.782 5.046 4.471 5.265 5.046-1.782 5.265-4.471c.22-2.688-1.782-5.046-4.471-5.265z"/><path d="m43.715 88.234c-2.689-.219-5.046 1.782-5.265 4.471-.219 2.688 1.782 5.046 4.471 5.265s5.046-1.782 5.265-4.471c.22-2.688-1.782-5.045-4.471-5.265z"/><path d="m46.963 73.045c.373-4.571-3.03-8.58-7.602-8.953-4.571-.373-8.58 3.03-8.953 7.602s3.03 8.58 7.602 8.953 8.58-3.031 8.953-7.602z"/><path d="m95.965 52.38c.184.325.522.508.872.508.167 0 .335-.042.491-.129.149-.084.256-.207.341-.342.386.622.768 1.248 1.127 1.894 5.332-2.17 11.458-6.375 11.471-14.263 3.704-1.094 9.544-3.806 9.544-10.032 0-.956-.748-1.731-1.672-1.731s-1.672.775-1.672 1.731c0 5.886-9.498 7.252-9.593 7.266-.778.105-1.356.75-1.44 1.523-.184.366-.298.776-.298 1.218 0 5.018-4.497 7.893-8.521 9.464-1.628-2.809-2.195-3.565-2.802-4.29-.354-.424-.985-.479-1.409-.125s-.479.985-.125 1.408c.533.637 1.085 1.296 3.686 5.9z"/><path d="m102.616 70.222c-.388-4.081-2.435-10.57-3.621-14.075-.177-.523-.744-.807-1.268-.627-.523.177-.804.745-.627 1.268 1.158 3.423 3.156 9.744 3.524 13.624 2.128 22.438-11.297 42.203-30.078 44.617l-7.852-82.769c7.572-.473 14.959 1.886 21.433 6.848h.001c1.837 1.407 3.58 3.019 5.181 4.792.198.219.469.33.743.33.239 0 .479-.085.67-.258.41-.37.442-1.003.072-1.412-1.683-1.863-3.516-3.559-5.449-5.039 0 0-.001-.001-.001-.001-.717-.55-1.448-1.061-2.186-1.55.108-.846.188-1.7.188-2.576 0-9.941-6.77-18.278-15.944-20.714.397-.761 2.698-4.881 6.094-5.151 2.423-.171 4.986 1.63 7.617 5.419.314.453.937.566 1.392.251.454-.315.566-.938.251-1.392-3.066-4.416-6.24-6.533-9.418-6.271-4.857.387-7.688 6.163-7.806 6.408-.049.102-.067.208-.08.315-1.161-.195-2.345-.32-3.561-.32-1.176 0-2.321.12-3.445.302-.569-1.354-4.049-6.392-8.276-7.18-3.6-.674-6.706 1.643-9.225 6.883-.239.498-.03 1.096.468 1.335.497.24 1.095.03 1.334-.468 1.885-3.923 4.009-5.922 6.326-5.858 3.356.05 6.395 4.122 7.281 5.544.007.061.025.12.044.179-9.184 2.43-15.963 10.771-15.963 20.719 0 .83.073 1.642.172 2.445-2.18 1.435-4.26 3.13-6.21 5.079-2.581 2.581-4.82 5.505-6.701 8.685-4.1-1.542-8.831-4.433-8.831-9.581 0-.442-.114-.852-.298-1.218-.084-.773-.662-1.418-1.44-1.523-.096-.013-9.593-1.38-9.593-7.266 0-.956-.748-1.731-1.672-1.731s-1.672.774-1.672 1.731c0 6.227 5.84 8.938 9.544 10.032.014 7.908 6.169 12.114 11.51 14.278-2.143 4.8-3.519 10.05-4.054 15.534-4.125 2.458-7.788 6.349-7.799 12.445-3.704 1.094-9.544 3.806-9.544 10.032 0 .957.748 1.731 1.672 1.731s1.672-.775 1.672-1.731c0-5.886 9.498-7.252 9.593-7.265.778-.105 1.356-.75 1.44-1.523.184-.366.298-.777.298-1.218 0-2.347.992-4.218 2.451-5.714.163 4.758.989 9.331 2.386 13.582-2.887 3.951-4.812 9.049-2.49 14.692-2.989 2.516-7.326 7.389-4.96 13.113.364.879 1.346 1.287 2.195.91.849-.376 1.242-1.394.879-2.273-2.237-5.411 5.974-10.539 6.057-10.59.675-.414.961-1.242.745-1.987.03-.412-.021-.835-.189-1.241-.946-2.287-.664-4.537.228-6.604 5.799 11.709 16.268 19.924 28.769 20.945.027.002.055.003.082.003.236 0 .466-.084.647-.237.202-.172.328-.417.349-.682l.051-.625c2.006.407 4.064.633 6.168.633 2.289 0 4.522-.271 6.693-.751l.069.726c.025.264.154.507.358.676.18.149.406.229.637.229.031 0 .063-.002.094-.005 20.397-1.936 35.145-22.979 32.875-46.909zm-30.427-52.137c1.732 0 3.137 1.404 3.137 3.137s-1.404 3.137-3.137 3.137-3.137-1.404-3.137-3.137 1.404-3.137 3.137-3.137zm-20.598 0c1.732 0 3.137 1.404 3.137 3.137s-1.404 3.137-3.137 3.137-3.137-1.404-3.137-3.137 1.405-3.137 3.137-3.137zm2.169 96.986c-18.811-2.167-32.496-21.754-30.663-44.218.906-11.101 5.421-21.229 12.713-28.521 6.608-6.607 14.779-10.161 23.24-10.161.489 0 .981.013 1.472.036z"/><path d="m81.684 51.6c-.255-2.685-2.638-4.656-5.324-4.401-2.685.255-4.656 2.638-4.401 5.324s2.638 4.656 5.324 4.401 4.656-2.639 4.401-5.324z"/><ellipse cx="80.699" cy="92.924" rx="4.884" ry="4.884" transform="matrix(.164 -.987 .987 .164 -24.179 157.327)"/><path d="m93.325 71.385c-.433-4.566-4.486-7.916-9.052-7.483s-7.916 4.486-7.483 9.052 4.486 7.916 9.052 7.483 7.917-4.486 7.483-9.052z"/></g></svg>