<svg id="Layer_1" enable-background="new 0 0 128 128" height="512" viewBox="0 0 128 128" width="512" xmlns="http://www.w3.org/2000/svg"><path d="m111.142 83.411c-1.919-3.674-4.386-6.439-5.451-7.541-1.182-1.221-2.363-2.273-3.509-3.293-1.1-.98-2.089-1.872-2.913-2.763-.053-.177-.116-.349-.156-.533-.081-.382-.083-.773-.04-1.145.69.469 1.47.808 2.316.994 1.057 1.348 2.675 2.176 4.526 2.176 1.702 0 3.301-.687 4.386-1.883 1.034-1.14 1.517-2.665 1.36-4.268l-.017-.165c-.242-2.184-1.234-4.405-2.801-6.194-1.663-4.124-5.641-7.677-10.955-7.733h-.144c-4.293 0-8.104 1.767-10.729 4.976-2.82 3.448-3.924 8.234-2.953 12.805 1.425 6.7 5.773 10.573 9.276 13.694 1.001.893 1.947 1.735 2.78 2.595 2.426 2.507 4.219 5.731 4.265 7.666.055 2.355-.993 4.175-3.205 5.564-1.436.903-3.383 1.361-5.787 1.361-1.309 0-2.56-.14-3.609-.312.049-1.057.047-2.139-.019-3.243-.033-.552-.81-5.729-.935-6.267-.258-1.108-.571-2.246-.92-3.351-.189-.675-.39-1.316-.599-1.913-.182-.522-1.62-3.9-1.851-4.402-2.84-6.166-6.818-11.989-11.202-16.398-.274-.276-.551-.576-.828-.888 5.85-5.068 9.562-12.542 9.562-20.871 0-3.977-.861-7.456-2.507-10.395 1.988-.991 3.939-2.378 5.691-4.165 2.867-2.926 4.805-6.439 5.455-9.892.677-3.6-.111-6.72-2.219-8.787-.531-.52-1.542-1.036-3.333-.534-4.442 1.238-12.36 8.54-16.528 14.529-3.943-1.466-8.694-2.229-14.175-2.229-5.692 0-10.591.828-14.621 2.406-2.011-2.934-4.59-5.65-5.48-6.558-2.732-2.788-5.552-5.137-7.938-6.613-3.094-1.915-5.31-2.251-6.587-1-4.238 4.154-2.787 12.533 3.235 18.678 1.851 1.888 3.956 3.387 6.14 4.411-1.557 2.886-2.367 6.284-2.367 10.15 0 8.037 3.453 15.28 8.95 20.332-.432.512-.862 1-1.287 1.428-9.23 9.285-19.642 28.853-13.941 43.337.099.401.201.8.315 1.192.551 1.889 1.301 3.696 2.237 5.39-1.265.519-2.415 1.37-3.376 2.506-1.093 1.292-1.329 3.05-.615 4.588.713 1.538 2.208 2.494 3.902 2.494h7.864c.137.062.276.113.418.153.079.023.161.036.243.038l11.315.361c.579 0 1.128-.155 1.628-.425 1.542.004 3.207.006 4.963.006 4.623 0 9.84-.013 14.873-.031.514.283 1.081.449 1.683.449l11.284-.361c.082-.002.164-.015.243-.038.103-.029.203-.071.303-.111 3.267-.017 5.881-.033 7.38-.042 1.871 0 3.491-1.187 4.125-3.022.65-1.88.07-3.88-1.478-5.096-.815-.64-1.646-1.135-2.482-1.479.149-.269.284-.546.424-.821l-.169.773 2.175.477c1.773.389 4.534.852 7.614.852 4.802 0 8.969-1.089 12.386-3.236 5.941-3.734 9.125-9.517 8.966-16.285-.11-4.732-2.414-9.067-4.557-12.098z" fill="#e6e7e8"/><path d="m100.973 72.566c-1.157-1.196-2.325-2.236-3.455-3.242-2.692-2.399-4.818-4.293-5.404-7.043-.192-.905-.016-1.887.439-2.443.21-.256.389-.409.509-.491.09.148.186.362.227.512.625 2.66 2.887 4.448 5.628 4.448 1.702 0 3.301-.687 4.386-1.883 1.034-1.14 1.517-2.665 1.36-4.268l-.017-.165c-.536-4.83-4.706-9.864-10.759-9.927h-.141c-3.988 0-7.523 1.637-9.954 4.609-2.629 3.215-3.657 7.688-2.749 11.964 1.357 6.38 5.565 10.128 8.955 13.147 1.019.908 1.981 1.765 2.841 2.654 2.625 2.714 4.494 6.143 4.546 8.338.064 2.699-1.172 4.864-3.673 6.435-1.598 1.005-3.724 1.514-6.319 1.514-1.766 0-3.433-.242-4.664-.485-.04.505-.086 1.008-.155 1.505-.122 2.255-.437 4.424-.997 6.345-.329 1.128-.728 2.204-1.181 3.227 1.762.352 4.231.714 6.953.714 4.802 0 8.969-1.089 12.386-3.236 5.941-3.734 9.125-9.517 8.966-16.285-.178-7.566-5.961-14.117-7.728-15.944z" fill="#fff"/><g fill="#fa759e"><path d="m90.348 111.03c-3.081 0-5.841-.464-7.614-.852l-2.175-.477 2.423-11.057 2.175.477c1.254.275 3.18.603 5.235.603 2.596 0 4.722-.509 6.319-1.514 2.501-1.571 3.736-3.736 3.673-6.435-.052-2.196-1.921-5.625-4.546-8.338-.861-.889-1.823-1.746-2.841-2.654-3.389-3.019-7.598-6.768-8.955-13.147-.908-4.276.12-8.749 2.749-11.964 2.432-2.972 5.967-4.609 9.954-4.609l.141.001c6.053.064 10.223 5.097 10.759 9.927l.017.165c.157 1.604-.326 3.128-1.36 4.268-1.086 1.196-2.684 1.882-4.386 1.882-2.741 0-5.003-1.787-5.628-4.448-.041-.15-.137-.364-.227-.512-.12.083-.299.235-.509.491-.454.556-.631 1.538-.439 2.443.585 2.75 2.711 4.644 5.404 7.043 1.13 1.006 2.298 2.046 3.455 3.242 1.768 1.828 7.55 8.378 7.728 15.943.159 6.768-3.025 12.551-8.966 16.285-3.416 2.148-7.583 3.237-12.386 3.237z"/><path d="m93.762 61.129c.048.098.114.181.167.275.189.254.395.501.618.741-.25-.355-.509-.699-.785-1.016z"/><path d="m94.547 62.146c-.223-.24-.429-.487-.618-.741.281.498.614.954 1.02 1.338-.128-.208-.265-.402-.402-.597z"/><path d="m82.712 5.556c-2.763-2.708-14.069 7.266-18.813 14.511 3.874 1.565 7.046 3.924 9.169 7.194 2.214-.947 4.429-2.436 6.395-4.442 5.645-5.76 7.1-13.489 3.249-17.263z"/><path d="m34.384 20.258c-4.667-7.259-16.146-17.435-18.934-14.702-3.851 3.774-2.396 11.504 3.25 17.264 2.102 2.145 4.488 3.712 6.855 4.642 2.037-3.243 5.089-5.607 8.829-7.204z"/><path d="m82.17 112.014c-1.311-1.03-2.471-1.495-3.355-1.697 1.14-1.844 2.092-3.931 2.762-6.228.56-1.921.875-4.09.997-6.345.661-4.753-.04-9.891-1.627-14.921-.408-1.454-.867-2.742-1.357-3.774l-.001.004c-2.901-7.166-7.4-13.841-12.039-18.507-.509-.512-1.018-1.085-1.529-1.701-2.005 1.609-4.257 2.914-6.676 3.895-1.929 3.417-5.762 5.733-9.969 5.733-4.206 0-8.039-2.315-9.968-5.73-2.68-1.086-5.153-2.579-7.317-4.429-.655.822-1.309 1.577-1.96 2.232-9.838 9.897-19.062 28.817-13.696 42.328.101.409.204.817.32 1.216.672 2.304 1.628 4.397 2.772 6.244-1.194.266-2.722.94-4.107 2.577-1.813 2.144-.285 5.436 2.523 5.436h12.033c1.639.299 50.164 0 50.164 0 3.169-.001 4.671-4.259 2.03-6.333z"/></g><path d="m65.119 82.822c-.207-1.455-.44-2.742-.688-3.774l-.001.003c-1.253-6.107-3.097-11.844-5.07-16.299-.011.004-.022.008-.033.012-1.934 3.402-5.757 5.706-9.952 5.706-4.2 0-8.027-2.308-9.96-5.716-.312-.126-.624-.252-.929-.389-4.642 10.264-8.642 27.781-6.079 40.506.051.409.103.817.162 1.216 1.483 10.032 5.598 16.285 9.19 13.967h14.49c3.592 2.319 7.706-3.934 9.19-13.967.284-1.921.444-4.09.506-6.345.335-4.751-.021-9.889-.826-14.92z" fill="#ffd7e5"/><path d="m59.205 108.957c-.39 1.953-.85 3.933-1.373 5.94 0 2.21 1.373 4.002 3.067 4.002l11.283-.361c1.618-.462 2.897-3.037 3.739-6.873-5.141-2.263-10.767-3.285-16.716-2.708z" fill="#ffd7e5"/><path d="m22.78 111.759c.842 3.786 2.115 6.322 3.72 6.779l11.283.361c1.694 0 3.067-1.792 3.067-4.002-.484-1.858-.911-3.691-1.282-5.503-5.885-1.176-12.429-.926-16.788 2.365z" fill="#ffd7e5"/><path d="m49.118 17.607c-14.7 0-26.617 5.772-26.617 20.472 0 11.18 6.896 20.744 16.664 24.686-.934-1.642-1.433-3.536-1.31-5.558.073-1.194 5.043-6.135 11.263-6.135s11.191 4.94 11.263 6.135c.122 2.022-.378 3.916-1.312 5.558 9.769-3.942 16.665-13.506 16.665-24.686.001-14.7-11.915-20.472-26.616-20.472z" fill="#ffd7e5"/><path d="m60.639 57.208c-.072-1.194-5.043-6.135-11.263-6.135s-11.191 4.94-11.263 6.135c-.378 6.209 5.043 11.263 11.263 11.263s11.638-5.054 11.263-11.263z" fill="#fa759e"/><circle cx="38.112" cy="41.416" fill="#fa759e" r="10.359"/><path d="m38.112 37.568c-2.125 0-3.848 1.723-3.848 3.848s1.723 3.848 3.848 3.848 3.848-1.723 3.848-3.848-1.723-3.848-3.848-3.848z" fill="#fff"/><ellipse cx="60.639" cy="41.416" fill="#fa759e" rx="10.359" ry="10.359" transform="matrix(.995 -.099 .099 .995 -3.786 6.177)"/><path d="m60.639 37.568c-2.125 0-3.848 1.723-3.848 3.848s1.723 3.848 3.848 3.848 3.848-1.723 3.848-3.848-1.723-3.848-3.848-3.848z" fill="#fff"/><path d="m101.692 71.87c-1.182-1.221-2.363-2.273-3.509-3.293-2.555-2.277-4.573-4.075-5.091-6.504-.004-.018-.007-.037-.011-.055 1.184 2.025 3.34 3.288 5.835 3.288 1.983 0 3.852-.806 5.127-2.21 1.226-1.352 1.8-3.141 1.614-5.043l-.018-.172c-.584-5.263-5.136-10.748-11.75-10.817h-.144c-4.293 0-8.104 1.767-10.729 4.976-2.82 3.448-3.924 8.235-2.953 12.805 1.425 6.699 5.772 10.572 9.268 13.686 1.004.895 1.953 1.739 2.788 2.603 2.426 2.507 4.219 5.731 4.265 7.666.055 2.355-.993 4.175-3.205 5.564-1.436.903-3.383 1.361-5.787 1.361-1.122 0-2.355-.112-3.608-.316.049-1.056.046-2.137-.02-3.238-.033-.552-.514-.979-1.058-.938-.551.033-.972.506-.938 1.058.11 1.85.048 3.639-.193 5.401-.125 2.309-.448 4.368-.958 6.119-.62 2.125-1.513 4.138-2.653 5.982-.17.274-.196.614-.072.912.125.298.385.517.699.589.973.223 1.969.73 2.96 1.509 1.053.827 1.115 2.024.823 2.87-.28.81-1.014 1.676-2.241 1.676-1.669.01-3.429.02-5.224.03.174-.28.344-.577.504-.908 3.956-8.159 3.755-30.365-2.118-44.652-.21-.51-.792-.756-1.305-.544-.511.21-.754.794-.544 1.305 6.028 14.664 5.471 36.207 2.168 43.019-.511 1.054-1.078 1.739-1.609 1.949l-2.152.069v-3.645c0-.552-.448-1-1-1s-1 .448-1 1v3.708l-2.354.075v-3.784c0-.552-.448-1-1-1s-1 .448-1 1v3.848l-2.601.083c-1.092 0-2.019-1.307-2.064-2.881 3.271-12.61 3.644-22.656 1.14-30.707-.165-.528-.727-.821-1.252-.658-.527.164-.822.725-.658 1.252 2.399 7.712 2.007 17.44-1.199 29.74-.021.083-.032.167-.032.252 0 .938.224 1.805.591 2.556-5.919.019-11.561.029-16.175.024.373-.756.601-1.633.601-2.58 0-.085-.011-.17-.032-.252-3.206-12.301-3.598-22.029-1.199-29.74.164-.527-.131-1.088-.658-1.252-.524-.164-1.088.13-1.252.658-2.504 8.05-2.131 18.096 1.14 30.707-.045 1.574-.972 2.881-2.033 2.881l-2.632-.084v-3.848c0-.552-.448-1-1-1s-1 .448-1 1v3.784l-2.354-.075v-3.708c0-.552-.448-1-1-1s-1 .448-1 1v3.645l-2.152-.069c-.531-.209-1.099-.895-1.609-1.949-3.303-6.813-3.86-28.354 2.168-43.019.21-.511-.034-1.095-.544-1.305-.513-.211-1.095.035-1.305.544-5.874 14.287-6.074 36.494-2.119 44.652.155.32.318.607.486.879h-5.81c-.919 0-1.7-.499-2.088-1.335s-.265-1.753.328-2.455c1.005-1.189 2.203-1.945 3.561-2.247.316-.07.579-.29.704-.588.126-.298.099-.639-.071-.915-1.145-1.849-2.04-3.867-2.662-5.998-.113-.386-.212-.78-.309-1.175-.011-.044-.025-.088-.042-.13-5.422-13.65 4.616-32.341 13.476-41.253.47-.473.937-1.004 1.402-1.557 1.992 1.582 4.201 2.897 6.583 3.886 1.377 2.644 3.433 4.883 5.599 5.767.694.283 1.381.423 2.048.423 1.037 0 2.026-.339 2.913-1.005 1.426 1.026 3.133 1.195 4.892.467 2.145-.889 4.182-3.061 5.567-5.621 2.157-.888 4.185-2.029 6.029-3.406.321.366.643.721.966 1.046 4.223 4.248 8.059 9.868 10.804 15.825.231.502.825.721 1.327.49.501-.231.721-.825.49-1.327-2.84-6.165-6.818-11.988-11.202-16.398-.273-.275-.549-.577-.825-.891 5.85-5.066 9.559-12.54 9.559-20.868 0-3.98-.862-7.461-2.511-10.401 2.047-1.025 4.002-2.431 5.695-4.159 2.867-2.926 4.805-6.438 5.455-9.892.677-3.599-.111-6.72-2.219-8.787-.41-.401-1.164-.847-2.418-.715-4.394.476-13.025 8.301-17.457 14.705-3.94-1.462-8.686-2.224-14.16-2.224-5.695 0-10.596.829-14.626 2.408-4.342-6.355-13.156-14.394-17.565-14.891-1.271-.143-2.025.31-2.438.713-2.108 2.067-2.896 5.187-2.219 8.787.65 3.453 2.587 6.966 5.455 9.892 1.835 1.872 3.94 3.379 6.14 4.411-1.557 2.886-2.366 6.283-2.366 10.149 0 8.036 3.464 15.265 8.962 20.314-.436.519-.87 1.014-1.299 1.446-9.23 9.285-19.642 28.853-13.941 43.337.099.401.201.8.315 1.192.551 1.889 1.301 3.696 2.237 5.39-1.265.519-2.415 1.37-3.376 2.506-1.093 1.292-1.329 3.05-.615 4.588.713 1.538 2.208 2.494 3.902 2.494h7.864c.137.062.276.113.418.153.079.023.161.036.243.038l11.315.361c.579 0 1.128-.155 1.628-.425 1.542.004 3.207.006 4.963.006 4.623 0 9.84-.013 14.873-.031.514.283 1.081.449 1.683.449l11.284-.361c.082-.002.164-.015.243-.038.103-.029.203-.071.303-.111 3.267-.017 5.881-.033 7.38-.042 1.871 0 3.491-1.187 4.125-3.022.65-1.88.07-3.88-1.478-5.096-.815-.64-1.646-1.135-2.482-1.479.236-.428.46-.864.673-1.306 1.649.294 3.905.587 6.37.587 4.993 0 9.34-1.14 12.919-3.389 6.251-3.928 9.601-10.021 9.433-17.155-.188-7.927-6.179-14.722-8.01-16.616zm-20.483-65.755c.386-.041.655.01.803.155 1.617 1.584 2.204 4.066 1.654 6.988-.578 3.069-2.324 6.216-4.918 8.862-1.588 1.621-3.418 2.952-5.331 3.882-.005-.007-.011-.014-.016-.021-.232-.322-.477-.635-.731-.942-.011-.013-.023-.026-.034-.04-1.851-2.219-4.271-4.023-7.219-5.382 4.45-6.276 12.392-13.134 15.792-13.502zm-61.795 16.004c-2.594-2.646-4.34-5.793-4.917-8.861-.55-2.922.037-5.404 1.653-6.988.115-.113.304-.17.563-.17.077 0 .161.005.251.015 3.416.385 11.558 7.464 15.923 13.708-3.263 1.582-5.851 3.729-7.708 6.394-2.058-.931-4.038-2.336-5.765-4.098zm4.344 15.96c0-4.085.94-7.326 2.49-9.902.057-.055.109-.115.152-.185 1.416-2.251 3.405-4.12 5.924-5.584 4.618 3.287 10.562.718 17.05.718 6.486 0 12.429 2.568 17.047-.715 2.45 1.424 4.4 3.227 5.807 5.394.05.076.109.143.174.201 1.612 2.602 2.589 5.898 2.589 10.073 0 9.93-5.69 18.539-13.97 22.788.394-1.231.617-2.478.617-3.66 0-.552-.448-1-1-1s-1 .448-1 1c0 3.854-3.034 8.895-6.125 10.175-1.195.495-2.225.366-3.138-.386v-3.548c1.294-.173 2.486-.661 3.484-1.407 1.499-1.12 1.499-3.42 0-4.54-1.251-.934-2.802-.294-4.484-.294s-3.233-.641-4.484.294c-1.499 1.12-1.499 3.42 0 4.54.997.745 2.19 1.233 3.484 1.407v3.556c-.948.814-1.996.978-3.195.49-3.063-1.25-6.068-6.345-6.068-10.286 0-.552-.448-1-1-1s-1 .448-1 1c0 1.181.214 2.423.59 3.647-8.266-4.254-13.944-12.856-13.944-22.776zm78.804 23.673c-.897.988-2.226 1.555-3.646 1.555-2.267 0-4.138-1.478-4.663-3.709-.063-.235-.196-.538-.338-.771-.09-.147-.221-.253-.368-.336.527-2.325 1.956-4.467 3.405-5.191 1.857-.619 3.712-.197 5.378.867.715 1.239 1.173 2.591 1.321 3.927l.017.159c.129 1.328-.264 2.571-1.106 3.499zm-17.997-8.447c2.238-2.735 5.499-4.242 9.177-4.242h.134c.172.002.337.021.506.031-.269.218-.526.5-.77.865-1.346 2.691-1.865 5.786-1.092 8.552-.009.005-.019.006-.028.012-.236.163-.483.398-.714.681-.023.028-.037.068-.059.097-2.758-1.941-6.167-2.537-9.315-2.007.481-1.455 1.201-2.815 2.161-3.989zm-2.449 11.512c2.808-1.99 6.1-2.438 9.174-1.796.628 2.179 2.12 3.881 3.973 5.607-1.335.297-2.645.754-3.877 1.37-1.647 1.098-3.011 2.473-3.848 4.113-2.307-2.363-4.474-5.291-5.422-9.294zm9.359 12.952c.956-1.252 2.22-2.286 3.251-3.317 1.518-1.138 3.294-1.622 5.109-1.599.14.14.28.265.419.408 1.17 1.209 4.162 4.562 5.979 8.874-3.283-.837-6.668-.029-9.369 2.035-.836-1.501-1.966-3.043-3.307-4.429-.647-.668-1.353-1.316-2.082-1.972zm-6.889 29.133c2.012-2.652 3.159-5.836 2.712-9.183.031 0 .064.004.094.004 2.326 0 4.294-.414 5.911-1.186 1.916 2.509 2.931 5.689 3.052 8.857-2.648 1.082-5.662 1.635-9.008 1.635-.963.001-1.888-.051-2.761-.127zm17.445-5.092c-.892-3.209-2.698-6.144-5.283-7.98 1.085-1.399 1.636-3.054 1.629-4.901 3.178-.353 6.443.021 9.292 1.126-.261 4.598-2.211 8.652-5.638 11.755z" fill="#3a2c60"/><path d="m79.423 81.298c.195.56.383 1.161.57 1.825.343 1.087.642 2.175.888 3.234.108.461.519.773.973.773.075 0 .151-.008.228-.026.538-.125.872-.663.747-1.201-.258-1.108-.571-2.246-.92-3.351-.189-.675-.39-1.316-.599-1.913-.182-.521-.754-.797-1.273-.614-.521.182-.796.752-.614 1.273z" fill="#3a2c60"/><path d="m38.112 48.105c3.694 0 6.689-2.995 6.689-6.689s-2.995-6.689-6.689-6.689-6.689 2.995-6.689 6.689c.001 3.694 2.995 6.689 6.689 6.689zm0-10.537c2.125 0 3.848 1.723 3.848 3.848s-1.723 3.848-3.848 3.848-3.848-1.723-3.848-3.848 1.723-3.848 3.848-3.848z" fill="#3a2c60"/><path d="m38.112 43.609c1.211 0 2.193-.982 2.193-2.193s-.982-2.192-2.193-2.192-2.193.982-2.193 2.192c.001 1.211.982 2.193 2.193 2.193z" fill="#3a2c60"/><path d="m60.639 48.105c3.694 0 6.689-2.995 6.689-6.689s-2.995-6.689-6.689-6.689-6.689 2.995-6.689 6.689 2.995 6.689 6.689 6.689zm0-10.537c2.125 0 3.848 1.723 3.848 3.848s-1.723 3.848-3.848 3.848-3.848-1.723-3.848-3.848 1.723-3.848 3.848-3.848z" fill="#3a2c60"/><path d="m60.639 43.609c1.211 0 2.193-.982 2.193-2.193s-.982-2.192-2.193-2.192-2.193.982-2.193 2.192c0 1.211.982 2.193 2.193 2.193z" fill="#3a2c60"/></svg>