<svg id="Layer_1" enable-background="new 0 0 128 128" height="512" viewBox="0 0 128 128" width="512" xmlns="http://www.w3.org/2000/svg"><path d="m110.789 65.067c-3.005-2.221-6.564-2.941-10.022-2.026-3.729.987-6.943 3.803-8.596 7.532-2.529 5.707-1.392 10.874-.385 15.446.304 1.382.59 2.688.776 3.983.395 2.763.265 5.537-.287 7.721-.218-2.976-.828-6.1-1.853-9.349-.44-1.572-.927-2.922-1.452-4.027-2.814-6.923-7.215-13.722-12.12-18.768 6.37-4.488 11.24-11.003 13.554-18.506h4.594c.553 0 1-.448 1-1s-.447-1-1-1h-4.047c.302-1.247.535-2.517.693-3.808h3.354c.553 0 1-.448 1-1s-.447-1-1-1h-3.168c.04-.665.066-1.333.066-2.005 0-.607-.02-1.207-.052-1.802h3.154c.553 0 1-.448 1-1s-.447-1-1-1h-3.334c-.227-1.904-.622-3.741-1.178-5.5 4.915-7.531 2.532-16.255 1.415-17.965-.38-.582-1.081-.972-2.084-1.159-3.187-.597-9.149.744-12.388 2.707-5.663-3.467-12.692-5.445-20.565-5.445-8.293 0-15.656 2.189-21.466 6.009-3.32-2.192-9.448-3.878-12.527-3.36-.942.158-1.608.525-1.979 1.093-1.037 1.589-3.724 11.605 1.948 19.501-.351 1.333-.607 2.709-.776 4.12h-3.75c-.553 0-1 .448-1 1s.447 1 1 1h3.57c-.033.595-.052 1.195-.052 1.802 0 .673.026 1.341.066 2.005h-3.584c-.553 0-1 .448-1 1s.447 1 1 1h3.77c.157 1.29.39 2.56.693 3.808h-4.463c-.553 0-1 .448-1 1s.447 1 1 1h5.01c2.288 7.418 7.074 13.869 13.338 18.352-9.367 9.565-19.787 29.346-13.998 44.01.218.724 1.566 4.477 2.71 6.806-3.787 1.294-5.78 4.338-5.644 8.694.017.54.459.969.999.969h72.581c.54 0 .982-.429.999-.969.137-4.337-1.84-7.374-5.597-8.678.759-1.356 1.398-2.789 1.917-4.282 3.204-1.255 5.867-3.381 7.908-6.345 3.332-4.839 3.75-11.243 2.941-16.906-.001-.01-.004-.019-.005-.029-.103-.709-.224-1.405-.368-2.112-.692-3.538-2.135-7.682-1.093-11.277.105-.362.233-.723.393-1.084.539-1.216 1.585-2.187 2.664-2.473.602-.16 1.683-.328 2.141.331.334.478.11 1.458-.046 1.848-1.095 2.62.315 4.979 2.274 5.955 1.822.908 4.444.761 5.89-1.709.002-.004.062-.107.064-.111.408-.719.725-1.51.944-2.343.948-3.612.028-8.009-3.547-10.654z" fill="#e6e7e8"/><path d="m106.195 61.871c-2.757-2.037-6.015-2.698-9.173-1.863-3.439.91-6.406 3.515-7.938 6.97-2.395 5.406-1.295 10.403-.325 14.812.309 1.406.601 2.733.793 4.07.64 4.47.009 8.877-1.609 11.227-.202.293-.413.56-.629.816-.042.663-.103 1.32-.193 1.97-.125 2.302-.446 4.516-1.018 6.477-.087.299-.193.584-.289.876 3.167-1.135 5.871-3.216 7.901-6.164 3.913-5.682 3.113-13.833 2.774-16.196-.228-1.594-.562-3.113-.886-4.582-.845-3.843-1.575-7.162-.111-10.467.667-1.506 1.941-2.669 3.323-3.034 1.092-.288 2.476-.338 3.217.725.761 1.092.056 2.806.056 2.806-1.701 4.071 4.15 7.163 6.378 3.355.019-.033.038-.066.057-.099 1.962-3.457 1.623-8.775-2.328-11.699z" fill="#fff"/><path d="m109.195 64.871c-2.757-2.037-6.015-2.698-9.173-1.863-3.439.91-6.406 3.515-7.938 6.97-2.395 5.406-1.295 10.403-.325 14.812.309 1.406.601 2.733.793 4.07.64 4.47.009 8.877-1.609 11.227-1.221 1.774-2.706 2.824-4.213 3.423-.162.987-.365 1.942-.627 2.84-.505 1.733-1.171 3.345-1.952 4.83 5.196-.341 9.596-2.809 12.564-7.118 3.913-5.682 3.113-13.833 2.774-16.196-.228-1.594-.562-3.113-.886-4.582-.845-3.843-1.575-7.162-.111-10.467.667-1.506 1.941-2.669 3.323-3.034 1.092-.288 2.476-.338 3.217.725.761 1.092.056 2.806.056 2.806-1.701 4.071 4.15 7.163 6.378 3.355.019-.033.038-.066.057-.099 1.962-3.457 1.623-8.775-2.328-11.699z" fill="#fa759e"/><path d="m16.729 120.904h72.582c.171-5.486-3.227-7.398-6.122-8.038 1.207-1.919 2.211-4.105 2.914-6.515.572-1.961.893-4.175 1.018-6.477.675-4.851-.041-10.095-1.661-15.229-.417-1.485-.885-2.8-1.385-3.853l-.002.002c-2.961-7.314-7.553-14.127-12.288-18.89-.142-.143-.285-.295-.427-.447-5.325 3.484-11.672 5.546-18.492 5.546-6.914 0-13.342-2.116-18.712-5.688-.188.204-.376.4-.563.589-10.043 10.102-19.458 29.415-13.981 43.205.103.418 2.034 5.838 3.241 7.757-2.895.64-6.293 2.552-6.122 8.038z" fill="#ffd7e5"/><path d="m89.825 120.904c0-4.345-3.523-7.868-7.868-7.868-2.127 0-4.053.848-5.469 2.219-.531.6-.973 1.333-1.283 2.221.006-.115.025-.228.025-.344 0-4.369-4.003-7.91-8.94-7.91-.538 0-1.064.044-1.576.125.15-.96.29-1.948.401-2.996.209-1.961.326-4.175.372-6.477.247-4.851-.015-10.095-.607-15.229-.152-1.485-.324-2.8-.506-3.853l-.001.002c-.238-1.612-.507-3.196-.798-4.739-.396-2.095.639-4.209 2.566-5.122 3.919-1.858 6.38-4.516 6.38-7.475 0-.826-.197-1.628-.559-2.396-5.445 3.727-12.018 5.941-19.096 5.941-7.161 0-13.801-2.269-19.283-6.075-.403.809-.628 1.656-.628 2.53 0 3.023 2.565 5.734 6.633 7.597 1.956.896 3.007 3.034 2.612 5.149-1.753 9.377-2.652 20.229-1.392 28.906.022.245.275 2.22.57 4.195-.434-.05-.876-.082-1.327-.082-5.058 0-9.187 3.261-9.516 7.383-1.405-2.147-3.827-3.569-6.585-3.569-2.127 0-4.053.848-5.469 2.219-1.098 1.24-1.831 3.036-1.749 5.649h14.925.162 13.261 3.346.017 9.783.201 2.531 13.19c.259-.422.461-.874.631-1.338-.036.423-.057.862-.042 1.338h15.088z" fill="#fff"/><path d="m31.438 9.359c-3.598-2.798-12.468-4.872-13.707-2.975-.836 1.281-3.549 11.253 2.195 18.772 1.852-6.589 5.959-11.988 11.512-15.797z" fill="#fa759e"/><path d="m85.393 23.823c5.108-7.35 2.484-16.038 1.672-17.282-1.239-1.896-10.082-.356-13.673 2.221 5.62 3.584 9.877 8.733 12.001 15.061z" fill="#fa759e"/><path d="m52.865 3.096c-18.796 0-34.033 12.022-34.033 30.165s15.237 33.741 34.033 33.741 34.033-15.598 34.033-33.741-15.237-30.165-34.033-30.165z" fill="#fff"/><path d="m84.997 26.81c0-13.451-14.386-23.193-32.132-23.193s-32.132 9.742-32.132 23.193c0 10.178-1.124 19.27 13.108 23.094 3.2.86 6.349-1.555 6.349-4.868v-1.917c0-5.181 4.2-9.382 9.382-9.382h6.586c5.181 0 9.382 4.2 9.382 9.382v1.959c0 3.307 3.138 5.713 6.336 4.871 14.436-3.8 13.121-12.925 13.121-23.139z" fill="#ffd7e5"/><path d="m95.944 81.819c-.542.106-.896.631-.79 1.173.129.659.247 1.331.345 2.016.071.499.499.858.989.858.047 0 .095-.003.143-.01.547-.078.927-.585.849-1.131-.104-.72-.228-1.424-.362-2.116-.106-.542-.635-.899-1.174-.79z" fill="#3a2c60"/><path d="m106.789 61.067c-3.005-2.221-6.564-2.941-10.022-2.026-3.729.987-6.943 3.803-8.596 7.532-2.529 5.707-1.392 10.874-.385 15.446.304 1.382.59 2.688.776 3.983.394 2.754.26 5.509-.29 7.683-.22-2.965-.829-6.076-1.85-9.312-.44-1.572-.927-2.923-1.445-4.013-.003-.004-.005-.009-.007-.014-2.814-6.924-7.215-13.723-12.12-18.768 6.37-4.488 11.24-11.003 13.555-18.506h4.594c.553 0 1-.448 1-1s-.447-1-1-1h-4.047c.302-1.247.535-2.517.693-3.808h3.354c.553 0 1-.448 1-1s-.447-1-1-1h-3.168c.04-.665.066-1.333.066-2.005 0-.607-.02-1.207-.052-1.802h3.154c.553 0 1-.448 1-1s-.447-1-1-1h-3.334c-.227-1.9-.621-3.734-1.175-5.49 5.24-7.967 2.117-16.896 1.412-17.975-1.42-2.173-7.076-1.185-10.194-.258-1.25.372-2.907.971-4.28 1.805-5.663-3.466-12.691-5.444-20.563-5.444-8.292 0-15.653 2.189-21.463 6.006-1.968-1.302-4.535-2.159-5.649-2.49-1.712-.508-7.408-1.997-8.86.225-1.034 1.581-3.635 11.757 1.941 19.528-.347 1.325-.602 2.692-.77 4.094h-3.75c-.553 0-1 .448-1 1s.447 1 1 1h3.57c-.033.595-.052 1.195-.052 1.802 0 .673.026 1.341.066 2.005h-3.584c-.553 0-1 .448-1 1s.447 1 1 1h3.77c.157 1.29.39 2.56.693 3.808h-4.463c-.553 0-1 .448-1 1s.447 1 1 1h5.01c2.288 7.418 7.074 13.869 13.338 18.352-9.367 9.565-19.787 29.345-13.998 44.01.218.724 1.566 4.477 2.71 6.806-3.787 1.294-5.78 4.338-5.645 8.694.018.54.46.969 1 .969h72.581c.54 0 .982-.429.999-.969.137-4.337-1.84-7.374-5.597-8.678.755-1.349 1.392-2.774 1.909-4.258 3.158-1.235 5.861-3.384 7.916-6.369 2.862-4.157 3.344-9.492 3.243-13.236-.016-.553-.47-.991-1.027-.973-.552.015-.987.474-.973 1.026.093 3.447-.333 8.335-2.89 12.048-1.487 2.16-3.363 3.819-5.528 4.954.388-1.654.645-3.485.748-5.438.08-.574.14-1.157.184-1.746.159-.2.321-.391.472-.611 1.751-2.545 2.448-7.23 1.775-11.936-.197-1.369-.492-2.709-.807-4.143-.938-4.259-2-9.085.263-14.192 1.409-3.18 4.131-5.576 7.279-6.409 2.86-.755 5.815-.15 8.322 1.7 3.507 2.596 3.798 7.327 2.053 10.401l.87.494-.921-.405c-.856 1.464-2.299 1.414-3.271.93-1.129-.563-1.975-1.831-1.319-3.399.094-.227.883-2.261-.161-3.757-.854-1.228-2.379-1.625-4.292-1.121-1.669.441-3.194 1.819-3.981 3.597-1.471 3.321-.937 6.573-.086 10.478.118.54.652.883 1.19.764.54-.118.882-.65.764-1.19-.798-3.662-1.268-6.468-.04-9.242.539-1.216 1.585-2.187 2.664-2.473.6-.16 1.682-.329 2.141.331.334.479.11 1.458-.046 1.848-1.095 2.62.315 4.979 2.274 5.955 1.822.91 4.444.762 5.89-1.709.002-.004.062-.107.064-.111 2.176-3.834 1.798-9.742-2.602-12.998zm-29.465-53.109c4.432-1.529 8.429-1.478 8.903-.871.466.714 2.793 7.82-.634 14.439-2.133-5.113-5.668-9.462-10.271-12.739.567-.28 1.224-.56 2.002-.829zm-58.761-1.02c.156-.175.683-.283 1.481-.283 1.541 0 4.095.4 6.949 1.486 1.047.398 1.912.817 2.629 1.229-4.612 3.5-8.072 8.114-10.012 13.513-3.847-6.719-1.783-14.82-1.047-15.945zm1.269 26.323c0-16.899 13.893-29.165 33.033-29.165s33.032 12.266 33.032 29.165c0 17.748-15.127 32.742-33.032 32.742-17.906-.001-33.033-14.994-33.033-32.742zm62.788 78.594c-.677-.112-2.984-.345-4.71 1.267-.403.377-.425 1.01-.048 1.413.197.211.463.317.73.317.245 0 .49-.089.683-.27 1.101-1.028 3.288-.798 3.69-.744.003.001.005.003.008.004 3.346.739 5.134 2.776 5.326 6.061h-11.588c.384-1.487.238-3.84.01-7.335-.408-6.25-.968-14.809 1.407-23.518.146-.533-.169-1.083-.702-1.228-.527-.143-1.082.168-1.228.702-2.463 9.032-1.867 18.145-1.473 24.175.191 2.94.431 6.6-.104 7.095-.041-.005-.083-.008-.125-.008h-5.814v-4.037c0-.552-.447-1-1-1s-1 .448-1 1v4.037h-2.444v-4.037c0-.552-.447-1-1-1s-1 .448-1 1v4.037h-1.539c-1.175 0-2.131-.956-2.131-2.13v-25.084c0-.552-.447-1-1-1s-1 .448-1 1v25.084c0 .83.251 1.6.674 2.248h-8.445c.423-.648.674-1.418.674-2.248v-25.084c0-.552-.447-1-1-1s-1 .448-1 1v25.084c0 1.175-.955 2.13-2.13 2.13h-1.539v-4.037c0-.552-.447-1-1-1s-1 .448-1 1v4.037h-2.444v-4.037c0-.552-.447-1-1-1s-1 .448-1 1v4.037h-5.814c-.042 0-.077.034-.118.04-.542-.527-.303-4.187-.11-7.128.395-6.03.99-15.142-1.473-24.173-.146-.534-.699-.843-1.228-.702-.533.146-.848.695-.702 1.228 2.375 8.708 1.815 17.267 1.407 23.517-.229 3.495-.374 5.849.01 7.336h-11.589c.192-3.285 1.98-5.322 5.325-6.061.001 0 .002-.002.004-.002h.003c.02-.004 1.88-.391 3.094.743.192.18.438.269.683.269.268 0 .534-.106.73-.317.377-.404.355-1.037-.048-1.414-1.388-1.296-3.153-1.399-4.144-1.331-1.12-2.104-2.677-6.441-2.808-6.92-.011-.044-.024-.088-.041-.13-5.538-13.942 4.712-33.03 13.759-42.131.015-.015.03-.033.046-.049 5.413 3.43 11.779 5.443 18.521 5.443 6.649 0 12.933-1.956 18.298-5.3 4.849 4.907 9.214 11.627 11.982 18.466.017.041.035.081.057.118.459.977.895 2.197 1.304 3.659 1.695 5.376 2.242 10.352 1.617 14.875-.129 2.358-.458 4.461-.98 6.251-.6 2.054-1.455 3.992-2.523 5.782z" fill="#3a2c60"/><circle cx="40.668" cy="27.214" fill="#3a2c60" r="3.047"/><path d="m65.879 30.261c1.683 0 3.047-1.364 3.047-3.047s-1.364-3.047-3.047-3.047-3.047 1.364-3.047 3.047 1.365 3.047 3.047 3.047z" fill="#3a2c60"/><path d="m52.865 59.135c.067 0 .125-.026.188-.038 1.198 1.721 3.188 2.851 5.439 2.851 3.654 0 6.627-2.973 6.627-6.627 0-.552-.447-1-1-1s-1 .448-1 1c0 2.551-2.075 4.627-4.627 4.627s-4.627-2.076-4.627-4.627v-16.187l5.144-5.144c.321-.321.094-.871-.361-.871h-11.566c-.455 0-.682.55-.361.871l5.144 5.144v16.187c0 2.551-2.075 4.627-4.627 4.627s-4.627-2.076-4.627-4.627c0-.552-.447-1-1-1s-1 .448-1 1c0 3.654 2.973 6.627 6.627 6.627 2.251 0 4.241-1.13 5.439-2.851.063.013.122.038.188.038z" fill="#3a2c60"/><g fill="#fa759e"><circle cx="47.038" cy="46.652" r=".83"/><circle cx="41.703" cy="49.092" r=".83"/><circle cx="42.136" cy="43.944" r=".83"/><circle cx="58.399" cy="46.518" r=".83"/><circle cx="63.734" cy="48.958" r=".83"/><circle cx="63.3" cy="43.81" r=".83"/><circle cx="24.85" cy="100.148" r="2.097"/><circle cx="21.864" cy="92.5" r="2.097"/><circle cx="80.592" cy="100.148" r="2.097"/><circle cx="82.406" cy="94.015" r="2.097"/><circle cx="71.877" cy="78.966" r="2.097"/><path d="m43.715 13.277c-1.158 0-2.097.939-2.097 2.097s.939 2.097 2.097 2.097 2.097-.939 2.097-2.097-.938-2.097-2.097-2.097z"/><circle cx="62.47" cy="15.374" r="2.097"/><circle cx="53.274" cy="15.374" r="2.097"/><circle cx="53.274" cy="8.532" r="2.097"/><path d="m23.938 39.972c1.158 0 2.097-.939 2.097-2.097s-.939-2.097-2.097-2.097-2.097.939-2.097 2.097.939 2.097 2.097 2.097z"/><circle cx="28.877" cy="23.251" r="2.097"/><circle cx="77.163" cy="23.251" r="2.097"/><circle cx="81.443" cy="36.99" r="2.097"/><circle cx="74.437" cy="43.282" r="2.097"/><circle cx="30.974" cy="42.98" r="2.097"/><circle cx="34.969" cy="78.966" r="2.097"/><path d="m37.263 94.231c0-1.158-.939-2.097-2.097-2.097s-2.097.939-2.097 2.097.939 2.097 2.097 2.097 2.097-.939 2.097-2.097z"/><path d="m37.066 103.812c-1.158 0-2.097.939-2.097 2.097s.939 2.097 2.097 2.097 2.097-.939 2.097-2.097-.939-2.097-2.097-2.097z"/><path d="m67.682 104.713c-1.158 0-2.097.939-2.097 2.097s.939 2.097 2.097 2.097 2.097-.939 2.097-2.097c.001-1.158-.938-2.097-2.097-2.097z"/><path d="m69.78 91.918c-1.158 0-2.097.939-2.097 2.097s.939 2.097 2.097 2.097 2.097-.939 2.097-2.097-.939-2.097-2.097-2.097z"/></g></svg>