<svg id="Layer_1" enable-background="new 0 0 128 128" height="512" viewBox="0 0 128 128" width="512" xmlns="http://www.w3.org/2000/svg"><path d="m99.446 23.267c-.261-.089-.546-.063-.787.065-.242.13-.421.353-.494.617l-3.694 13.399-4.913-9.194c-.167-.313-.488-.514-.843-.527-.364-.037-.691.162-.882.461-1.65 2.588-2.542 5.866-2.511 9.233.036 3.803 1.213 7.378 3.315 10.066.374.479.776.905 1.19 1.307-2.575 3.901-5.75 5.107-7.354 5.474-1.052-4.3-2.619-8.385-4.584-11.77l1.674-2.898c3.028-.182 5.437-2.695 5.437-5.769 0-3.19-2.596-5.786-5.786-5.786s-5.786 2.596-5.786 5.786c0 .663.118 1.298.324 1.892l-.517.896c-1.003-.876-2.036-1.548-3.085-2.017.011-.053.035-.102.037-.158.01-.267 1.159-26.695 17.403-27.105.552-.015.988-.474.974-1.025s-.458-.994-1.025-.975c-17.179.434-19.14 25.123-19.332 28.641-1.135-.233-2.278-.234-3.414-.001-.192-3.52-2.154-28.205-19.333-28.64-.566-.012-1.011.423-1.025.975s.422 1.011.974 1.025c16.229.41 17.394 26.839 17.403 27.106.002.057.027.106.038.161-.766.343-1.523.791-2.268 1.352l-1.028-1.781c.007-.115.018-.229.018-.346 0-3.19-2.596-5.786-5.786-5.786s-5.786 2.596-5.786 5.786c0 3.191 2.596 5.787 5.786 5.787.28 0 .553-.027.822-.065l1.116 1.934c-2.234 3.537-4.025 8.026-5.191 12.784-1.603-.365-4.782-1.569-7.361-5.476.414-.402.816-.828 1.19-1.306 2.102-2.688 3.279-6.264 3.315-10.067.031-3.367-.861-6.646-2.511-9.232-.191-.299-.516-.497-.882-.461-.355.014-.676.215-.843.527l-4.913 9.194-3.693-13.4c-.073-.265-.251-.488-.494-.617-.121-.063-.253-.102-.387-.113s-.27.005-.401.048c-.294.099-.584.213-.871.341-.101.045-.198.1-.297.148-.183.089-.366.178-.544.279-.111.063-.217.134-.326.201-.164.101-.327.201-.487.312-.104.072-.203.15-.305.226-.119.089-.241.171-.358.266-.012.01-.017.024-.029.035-1.055.863-1.986 1.937-2.759 3.174-.011.016-.028.024-.038.04-.157.253-.317.545-.476.852-.074.14-.145.282-.216.425-.037.077-.074.156-.111.234-.101.213-.201.425-.293.645-.577 1.333-1.083 2.825-1.331 4.008-.051.244.001.48.113.683-.076.648-.127 1.306-.134 1.976-.035 3.804 1.075 7.399 3.127 10.127 2.111 2.808 4.963 4.369 8.031 4.397h.086c.029 0 .058-.005.088-.005 4.072 6.966 9.756 9.072 12.862 9.706-.112 1.097-.188 2.19-.225 3.272-2.621-.588-5.764-1.892-7.768-4.768-.556-.798-1.389-1.331-2.346-1.502-.955-.173-1.922.04-2.719.596-.798.556-1.332 1.388-1.503 2.345s.041 1.924.597 2.721c3.845 5.519 9.716 7.467 14.223 8.104.199 1.085.46 2.1.778 3.049-3.12-.477-6.768-1.765-9.029-5.01-.556-.798-1.389-1.331-2.346-1.502-.956-.174-1.923.04-2.719.596-.798.556-1.332 1.388-1.503 2.345s.041 1.924.597 2.721c5.276 7.574 14.473 8.392 18.182 8.392 1.029 0 1.726-.06 1.981-.086.079-.008.161-.039.24-.053.233.155.485.289.73.431-1.132.696-1.896 1.935-1.896 3.359v1.178c0 1.62.982 3.013 2.38 3.622-.438.609-.702 1.351-.702 2.157v1.65c0 1.52.919 2.824 2.228 3.399-.423.576-.68 1.279-.68 2.047v2.125c0 1.377.81 2.558 1.973 3.121-.25.457-.405.973-.405 1.53v2.657c0 1.028.494 1.934 1.248 2.522-.256.265-.463.565-.594.899l-3.499 8.866c-.014.036-.026.072-.036.11-.283 1.064.056 2.162.928 3.008.769.754 1.893 1.255 3.166 1.409.286.035.568.052.848.052.888 0 1.735-.171 2.472-.478.781.352 1.682.543 2.619.543 1.111 0 2.119-.261 2.942-.696.084.037.156.084.244.118.735.287 1.547.435 2.367.435.412 0 .825-.037 1.231-.112 1.562-.288 2.807-1.086 3.414-2.188.438-.797.497-1.69.166-2.516-.014-.034-.029-.068-.047-.101l-4.624-8.626c-.078-.146-.177-.281-.281-.413 1.024-.537 1.732-1.599 1.732-2.833v-2.657c0-.557-.155-1.073-.406-1.53 1.163-.563 1.973-1.744 1.973-3.121v-2.125c0-.768-.258-1.471-.68-2.047 1.309-.575 2.228-1.88 2.228-3.399v-1.65c0-.806-.264-1.547-.702-2.157 1.398-.609 2.38-2.001 2.38-3.622v-1.178c0-1.424-.764-2.663-1.896-3.359.245-.141.497-.276.73-.431.081.014.162.045.243.054.252.025.949.085 1.978.085 3.709 0 12.906-.817 18.182-8.391.556-.798.768-1.765.597-2.722s-.705-1.789-1.503-2.345c-.797-.555-1.763-.769-2.719-.596-.958.171-1.791.704-2.346 1.502-2.261 3.245-5.91 4.534-9.03 5.01.319-.949.579-1.964.778-3.049 4.506-.637 10.377-2.585 14.223-8.103.556-.798.768-1.765.597-2.722s-.705-1.789-1.503-2.345c-.797-.555-1.763-.768-2.719-.596-.958.171-1.791.704-2.346 1.501-2.004 2.875-5.146 4.18-7.766 4.768-.036-1.083-.111-2.176-.223-3.272 3.107-.635 8.788-2.742 12.858-9.706.029 0 .058.005.087.005h.087c3.067-.028 5.919-1.59 8.031-4.397 2.052-2.728 3.162-6.323 3.127-10.127-.063-6.507-3.542-12.2-8.463-13.844z" fill="#e6e7e8"/><path d="m91.2 55.755c-1.195-.832-2.841-.54-3.674.656-2.465 3.538-6.425 4.897-9.566 5.405.001.097.005.196.005.292 0 1.876-.127 3.568-.364 5.098 4.294-.492 10.382-2.218 14.255-7.778.834-1.195.54-2.84-.656-3.673z" fill="#ffd7e5"/><path d="m45.034 62.109c0-.097.005-.195.006-.292-3.141-.507-7.101-1.866-9.566-5.405-.833-1.196-2.478-1.489-3.674-.656s-1.49 2.478-.657 3.674c3.874 5.56 9.962 7.286 14.255 7.778-.236-1.531-.364-3.223-.364-5.099z" fill="#ffd7e5"/><path d="m91.2 66.058c-1.195-.833-2.841-.54-3.674.656-2.974 4.268-8.119 5.37-11.377 5.622-1.012 2.259-2.408 3.938-4.091 5.152.179.06.365.104.561.125.115.012.804.08 1.877.08 3.798 0 12.402-.844 17.361-7.962.833-1.196.539-2.841-.657-3.673z" fill="#ffd7e5"/><path d="m46.851 72.336c-3.258-.252-8.403-1.355-11.377-5.622-.833-1.196-2.478-1.489-3.674-.656-1.196.832-1.49 2.478-.657 3.673 4.96 7.119 13.563 7.962 17.361 7.962 1.073 0 1.762-.068 1.877-.08.195-.021.382-.065.561-.125-1.684-1.214-3.079-2.893-4.091-5.152z" fill="#ffd7e5"/><path d="m84.897 46.322c-3.274 4.21-7.157 4.886-8.184 4.992.388 1.714.689 3.458.9 5.203 2.223-.311 7.479-1.648 11.677-7.255-1.652-.51-3.151-1.533-4.393-2.94z" fill="#ffd7e5"/><path d="m94.129 20.216c4.42 1.476 7.72 6.683 7.777 12.905.069 7.411-4.482 13.463-10.167 13.515-5.685.053-10.348-5.913-10.417-13.324-.031-3.303.854-6.334 2.354-8.686 6.094 11.404 6.094 11.404 6.094 11.404z" fill="#fff"/><path d="m94.129 23.216c4.42 1.476 7.72 6.683 7.777 12.905.069 7.411-4.482 13.463-10.167 13.515-5.685.053-10.348-5.913-10.417-13.324-.031-3.303.854-6.334 2.354-8.686 6.094 11.404 6.094 11.404 6.094 11.404z" fill="#fa759e"/><path d="m38.103 46.322c-1.243 1.407-2.741 2.431-4.393 2.94 4.198 5.607 9.454 6.944 11.677 7.255.211-1.745.515-3.489.903-5.203-1.021-.105-4.909-.778-8.187-4.992z" fill="#ffd7e5"/><path d="m28.871 20.216c-4.42 1.476-7.72 6.683-7.777 12.905-.069 7.411 4.482 13.463 10.167 13.515 5.685.053 10.348-5.913 10.417-13.324.031-3.303-.854-6.334-2.354-8.686-6.093 11.404-6.093 11.404-6.093 11.404z" fill="#fff"/><g fill="#fa759e"><path d="m28.871 23.216c-4.42 1.476-7.72 6.683-7.777 12.905-.069 7.411 4.482 13.463 10.167 13.515 5.685.053 10.348-5.913 10.417-13.324.031-3.303-.854-6.334-2.354-8.686-6.093 11.404-6.093 11.404-6.093 11.404z"/><path d="m69.49 79.393h-15.98c-1.623 0-2.951 1.328-2.951 2.951v1.179c0 1.623 1.328 2.951 2.951 2.951h15.98c1.623 0 2.951-1.328 2.951-2.951v-1.179c0-1.624-1.328-2.951-2.951-2.951z"/><path d="m68.048 86.584h-13.095c-1.493 0-2.715 1.222-2.715 2.715v1.65c0 1.493 1.222 2.715 2.715 2.715h13.095c1.493 0 2.715-1.222 2.715-2.715v-1.649c0-1.494-1.222-2.716-2.715-2.716z"/><path d="m66.737 93.919h-10.474c-1.363 0-2.478 1.115-2.478 2.478v2.124c0 1.363 1.115 2.478 2.478 2.478h10.474c1.363 0 2.478-1.115 2.478-2.478v-2.124c0-1.363-1.115-2.478-2.478-2.478z"/><path d="m65.435 100.961h-7.87c-1.216 0-2.212.995-2.212 2.212v2.657c0 1.217.995 2.212 2.212 2.212h7.87c1.216 0 2.212-.995 2.212-2.212v-2.657c0-1.216-.995-2.212-2.212-2.212z"/><path d="m55.686 121.653c-1.091-.133-2-.556-2.586-1.131-.591-.573-.859-1.298-.662-2.037l3.499-8.866c.391-.992 1.84-1.615 3.332-1.433 1.492.182 2.528 1.109 2.384 2.131l-1.286 9.136c-.393 1.475-2.499 2.466-4.681 2.2z"/><path d="m68.106 121.522c-1.07.197-2.159.079-3.052-.27-.897-.345-1.598-.922-1.888-1.647l-2.455-9.026c-.275-1.01.639-1.994 2.102-2.263 1.463-.269 2.986.266 3.503 1.231l4.624 8.626c.579 1.448-.695 2.955-2.834 3.349z"/></g><path d="m61.504 121.761c-1.108 0-2.114-.307-2.841-.803-.731-.493-1.185-1.174-1.185-1.925l1.124-9.146c.126-1.023 1.388-1.811 2.904-1.811 1.516 0 2.778.787 2.904 1.811l1.124 9.146c0 1.5-1.813 2.728-4.03 2.728z" fill="#ffd7e5"/><path d="m73.989 34.495c-1.841-.087-3.405-1.202-4.127-2.794l-1.393 2.413c-2.117-2.148-4.477-3.429-6.968-3.429-2.191 0-4.281.994-6.194 2.694l-1.789-3.099c-.224 1.935-1.587 3.505-3.413 4.031l1.792 3.104c-4.154 6.275-6.862 15.949-6.862 24.693 0 14.434 7.372 18.172 16.466 18.172s16.466-3.738 16.466-18.172c0-8.295-2.438-17.429-6.235-23.703z" fill="#fa759e"/><path d="m48.786 24.946c-2.643 0-4.786 2.143-4.786 4.786s2.143 4.786 4.786 4.786 4.786-2.143 4.786-4.786c0-2.644-2.142-4.786-4.786-4.786z" fill="#fa759e"/><path d="m74.214 24.946c-2.643 0-4.786 2.143-4.786 4.786s2.143 4.786 4.786 4.786 4.786-2.143 4.786-4.786c0-2.644-2.143-4.786-4.786-4.786z" fill="#fa759e"/><path d="m92.677 60.001c.556-.798.768-1.765.597-2.722s-.705-1.789-1.503-2.345c-.797-.555-1.763-.768-2.719-.596-.958.171-1.791.704-2.346 1.501-2.006 2.878-5.146 4.177-7.766 4.764-.036-1.081-.111-2.172-.223-3.267 2.805-.578 7.708-2.364 11.629-7.825-.7-.117-1.378-.325-2.027-.616-3.387 4.4-7.427 5.928-9.847 6.451-.153-1.081-.34-2.159-.56-3.229 1.738-.404 4.92-1.604 7.681-5.076-.483-.459-.934-.967-1.349-1.525-2.455 3.248-5.286 4.307-6.77 4.65-1.052-4.3-2.619-8.384-4.584-11.768l1.674-2.898c3.027-.181 5.436-2.695 5.436-5.769 0-3.19-2.596-5.786-5.786-5.786s-5.786 2.596-5.786 5.786c0 .663.118 1.298.324 1.892l-.517.896c-1.003-.876-2.036-1.548-3.085-2.017.011-.053.035-.102.037-.158.01-.267 1.159-26.695 17.403-27.105.552-.015.988-.474.974-1.025s-.458-.994-1.025-.975c-17.179.435-19.14 25.123-19.332 28.641-1.135-.233-2.278-.234-3.414-.001-.192-3.52-2.154-28.205-19.333-28.64-.566-.012-1.011.423-1.025.975s.422 1.011.974 1.025c16.229.41 17.394 26.839 17.403 27.106.002.057.027.106.038.161-.766.343-1.523.791-2.268 1.352l-1.028-1.781c.007-.115.018-.229.018-.346 0-3.19-2.596-5.786-5.786-5.786s-5.786 2.596-5.786 5.786c0 3.191 2.596 5.787 5.786 5.787.28 0 .553-.027.822-.065l1.116 1.934c-2.234 3.537-4.025 8.026-5.191 12.783-1.484-.342-4.318-1.399-6.778-4.652-.415.558-.866 1.066-1.349 1.525 2.761 3.473 5.945 4.673 7.684 5.077-.22 1.07-.407 2.148-.56 3.229-2.42-.523-6.461-2.051-9.849-6.452-.65.291-1.327.499-2.028.616 3.923 5.464 8.828 7.249 11.633 7.826-.112 1.095-.188 2.186-.225 3.267-2.622-.587-5.762-1.886-7.768-4.764-.556-.798-1.389-1.331-2.346-1.502-.955-.173-1.922.04-2.719.596-.798.556-1.332 1.388-1.503 2.345s.041 1.924.597 2.721c3.845 5.519 9.716 7.467 14.223 8.104.199 1.085.459 2.099.778 3.048-3.12-.476-6.768-1.764-9.029-5.009-.556-.798-1.389-1.331-2.346-1.502-.956-.174-1.923.04-2.719.596-.798.556-1.332 1.388-1.503 2.345s.041 1.924.597 2.721c5.276 7.574 14.473 8.392 18.182 8.392 1.029 0 1.726-.06 1.981-.086.079-.008.161-.039.24-.053.232.155.484.288.728.43-1.134.693-1.895 1.936-1.895 3.359v1.178c0 1.628.991 3.028 2.4 3.632-.442.607-.722 1.338-.722 2.146v1.65c0 1.52.919 2.824 2.228 3.399-.423.576-.68 1.279-.68 2.047v2.125c0 1.378.813 2.552 1.979 3.111-.254.459-.411.979-.411 1.54v2.657c0 1.029.495 1.936 1.25 2.524-.258.263-.465.563-.597.897l-3.499 8.866c-.014.036-.026.072-.036.11-.283 1.064.056 2.162.928 3.008.769.754 1.893 1.255 3.166 1.409.286.035.568.052.848.052.881 0 1.705-.187 2.434-.491.789.362 1.705.557 2.657.557 1.11 0 2.118-.26 2.942-.696.083.038.157.084.244.117.735.287 1.547.435 2.367.435.412 0 .825-.037 1.231-.112 1.562-.288 2.807-1.086 3.414-2.188.438-.797.497-1.69.166-2.516-.014-.034-.029-.068-.047-.101l-4.624-8.626c-.079-.147-.194-.272-.3-.402 1.034-.534 1.751-1.601 1.751-2.843v-2.657c0-.561-.157-1.081-.411-1.54 1.165-.559 1.979-1.734 1.979-3.111v-2.125c0-.768-.258-1.471-.68-2.047 1.309-.575 2.228-1.88 2.228-3.399v-1.653c0-.808-.28-1.539-.722-2.146 1.409-.604 2.4-2.004 2.4-3.632v-1.178c0-1.424-.761-2.666-1.895-3.359.245-.141.496-.275.728-.43.081.014.162.045.243.054.252.025.949.085 1.978.085 3.709 0 12.906-.817 18.182-8.391.556-.798.768-1.765.597-2.722s-.705-1.789-1.503-2.345c-.797-.555-1.763-.769-2.719-.596-.958.171-1.791.704-2.346 1.502-2.262 3.245-5.909 4.534-9.03 5.009.319-.949.579-1.963.778-3.048 4.506-.636 10.377-2.584 14.222-8.102zm-4.33-3.018c.25-.359.625-.599 1.056-.676.429-.078.866.019 1.225.269 0 0 0 0 .001.001.359.249.599.624.676 1.055s-.018.866-.269 1.226c-3.274 4.699-8.263 6.516-12.273 7.178.041-.376.068-.769.096-1.159.012-.171.032-.333.042-.507.033-.561.054-1.135.061-1.719 4.144-.839 7.377-2.788 9.385-5.668zm-14.133-31.038c2.088 0 3.786 1.698 3.786 3.786s-1.698 3.787-3.786 3.787-3.786-1.699-3.786-3.787 1.698-3.786 3.786-3.786zm-29.214 3.786c0-2.088 1.698-3.786 3.786-3.786s3.786 1.698 3.786 3.786-1.698 3.787-3.786 3.787-3.786-1.699-3.786-3.787zm7.763 7.185-1.213-2.102c.912-.498 1.671-1.237 2.202-2.127l.688 1.192c.15.261.41.439.707.487.295.049.599-.041.824-.24 3.896-3.465 7.942-3.211 11.785.69.219.222.528.327.839.29.31-.04.583-.222.739-.492l.586-1.016c.668.741 1.521 1.31 2.49 1.629l-1.547 2.679c-.182.315-.178.706.011 1.018 3.757 6.207 6.091 15.091 6.091 23.185 0 11.716-4.915 17.173-15.466 17.173s-15.466-5.457-15.466-17.173c0-8.521 2.628-17.997 6.696-24.141.211-.316.223-.724.034-1.052zm-8.526 29.119c-4.011-.662-8.999-2.479-12.273-7.179-.25-.358-.346-.794-.269-1.225s.317-.806.677-1.056c.278-.193.602-.295.934-.295.097 0 .194.009.292.026.431.077.806.316 1.057.676 2.006 2.88 5.24 4.828 9.384 5.667.008.584.028 1.158.061 1.719.01.174.029.336.042.507.027.392.054.784.095 1.16zm4.268 10.658c-3.395 0-11.803-.734-16.541-7.535-.25-.358-.346-.794-.269-1.225s.317-.806.677-1.056c.278-.193.602-.295.934-.295.097 0 .194.009.292.026.431.077.806.316 1.057.676 2.955 4.241 7.792 5.616 11.537 5.996.014.028.03.054.044.082.146.293.299.579.46.856.004.006.008.012.011.018.32.548.673 1.061 1.052 1.544.074.095.149.188.225.28.178.215.354.431.544.632-.009.001-.016.001-.023.001zm17.307 23.306c-.125-.015-.248-.038-.377-.038h-7.87c-.129 0-.252.023-.377.038h-.926c-.815 0-1.478-.663-1.478-1.478v-2.125c0-.814.663-1.478 1.478-1.478h10.474c.815 0 1.478.663 1.478 1.478v2.125c0 .814-.663 1.478-1.478 1.478zm.835 5.831c0 .668-.543 1.211-1.212 1.211h-7.87c-.668 0-1.212-.543-1.212-1.211v-2.657c0-.668.543-1.212 1.212-1.212h7.87c.668 0 1.212.544 1.212 1.212zm-10.84 14.83c-.826-.101-1.558-.411-2.011-.856-.236-.229-.493-.589-.403-1.017l3.473-8.802c.1-.252.415-.488.843-.643-.045.137-.082.277-.1.423l-1.124 9.146c-.005.041-.007.081-.007.122 0 .57.186 1.121.509 1.621-.373.048-.77.055-1.18.006zm3.415-.53c-.269-.182-.714-.554-.743-1.047l1.115-9.073c.048-.39.798-.933 1.911-.933s1.863.543 1.911.933l1.115 9.072c-.05.803-1.329 1.68-3.029 1.68-.859 0-1.689-.23-2.28-.632zm10.805-1.54c.089.255.063.505-.078.763-.308.559-1.083 1.013-2.024 1.187-.591.108-1.214.095-1.796-.02.259-.454.405-.955.405-1.486 0-.041-.002-.081-.007-.122l-1.093-8.89zm-.264-27.64c0 .945-.77 1.715-1.715 1.715h-13.095c-.946 0-1.715-.77-1.715-1.715v-1.65c0-.945.77-1.715 1.715-1.715h13.095c.946 0 1.715.77 1.715 1.715zm-.273-10.557c1.076 0 1.951.875 1.951 1.951v1.178c0 1.076-.875 1.951-1.951 1.951h-15.98c-1.076 0-1.951-.875-1.951-1.951v-1.178c0-1.076.875-1.951 1.951-1.951h1.271c1.969.582 4.197.889 6.719.889 2.523 0 4.75-.307 6.719-.889zm7.32-7.112c3.745-.38 8.582-1.755 11.537-5.996.25-.359.625-.599 1.056-.676.429-.077.866.019 1.225.269 0 0 0 0 .001.001.359.249.599.624.676 1.055s-.018.866-.269 1.226c-4.748 6.814-13.205 7.542-16.562 7.534.19-.201.366-.417.544-.632.076-.092.151-.185.225-.28.379-.483.731-.996 1.052-1.544.004-.006.008-.012.011-.018.161-.277.314-.563.46-.856.014-.029.03-.055.044-.083z" fill="#3a2c60"/><path d="m94.446 19.268c-.261-.089-.546-.063-.787.065-.242.13-.421.353-.494.617l-3.694 13.4-4.913-9.194c-.167-.313-.488-.514-.843-.527-.364-.037-.691.162-.882.461-1.65 2.588-2.542 5.866-2.511 9.233.036 3.803 1.213 7.378 3.315 10.066 2.144 2.742 4.99 4.247 8.025 4.247h.087c3.067-.028 5.919-1.59 8.031-4.397 2.052-2.728 3.162-6.323 3.127-10.127-.061-6.507-3.54-12.201-8.461-13.844zm3.736 22.768c-1.729 2.299-4.02 3.577-6.451 3.6-2.435.008-4.746-1.213-6.518-3.479-1.833-2.344-2.859-5.488-2.891-8.854-.022-2.331.45-4.605 1.346-6.568l5.219 9.767c.193.359.588.564.993.522.406-.046.745-.334.853-.729l4.06-14.726c3.599 1.777 6.064 6.354 6.113 11.562.032 3.365-.936 6.527-2.724 8.905z" fill="#3a2c60"/><path d="m31.338 47.636c3.035 0 5.882-1.506 8.025-4.247 2.102-2.688 3.279-6.264 3.315-10.067.031-3.367-.861-6.646-2.511-9.232-.191-.299-.516-.497-.882-.461-.355.014-.676.215-.843.527l-4.913 9.194-3.694-13.4c-.073-.265-.251-.488-.494-.617s-.527-.151-.788-.065c-1.129.378-2.202.975-3.188 1.772-.429.348-.495.978-.147 1.407.346.428.977.493 1.406.147.504-.409 1.034-.751 1.583-1.024l4.06 14.725c.108.395.447.683.853.729.4.042.799-.162.993-.522l5.219-9.767c.896 1.963 1.368 4.237 1.346 6.568-.031 3.366-1.058 6.511-2.891 8.854-1.771 2.266-4.1 3.459-6.518 3.479-4.296-.039-8.238-5-8.974-11.294-.064-.548-.567-.95-1.109-.877-.548.064-.941.561-.877 1.109.865 7.396 5.569 13.012 10.941 13.062z" fill="#3a2c60"/><path d="m20.887 31.637c.069.015.138.021.206.021.463 0 .879-.323.978-.795.353-1.684 1.327-4.16 2.17-5.52.291-.47.146-1.086-.323-1.377-.47-.292-1.086-.146-1.377.322-.961 1.551-2.027 4.259-2.427 6.164-.114.541.233 1.071.773 1.185z" fill="#3a2c60"/><path d="m48.786 27.585c-1.184 0-2.147.963-2.147 2.147s.963 2.147 2.147 2.147 2.147-.963 2.147-2.147-.963-2.147-2.147-2.147z" fill="#3a2c60"/><path d="m74.214 31.879c1.184 0 2.147-.963 2.147-2.147s-.963-2.147-2.147-2.147-2.147.963-2.147 2.147.963 2.147 2.147 2.147z" fill="#3a2c60"/></svg>