<svg id="Layer_1" enable-background="new 0 0 128 128" height="512" viewBox="0 0 128 128" width="512" xmlns="http://www.w3.org/2000/svg"><path d="m106.591 79.423c-2.555-2.276-4.573-4.073-5.167-6.865-.237-1.111-.002-2.303.598-3.036.329-.4.972-1.039 1.564-.832.433.151.763.933.844 1.255.587 2.503 2.87 3.486 4.829 3.163 1.822-.302 3.669-1.803 3.418-4.379l-.013-.123c-.434-3.906-3.799-7.976-8.681-8.027-3.181-.05-6.057 1.227-8.067 3.536 2.332-3.524 3.987-7.533 4.789-11.843 1.321.476 2.737.749 4.22.749 6.895 0 12.503-5.609 12.503-12.503s-5.608-12.503-12.503-12.503c-2.911 0-5.586 1.008-7.713 2.682-.555-.998-1.163-1.961-1.817-2.891-3.705-6.985-9.825-12.494-17.24-15.416.068-.201.13-.405.17-.613.291-1.541-.269-3.005-1.661-4.352-.604-.584-1.366-.837-2.194-.736-1.309.161-2.678 1.234-3.851 2.466.017-.689-.073-1.345-.334-1.883-.316-.655-.852-1.1-1.548-1.286-1.116-.297-2.197-.131-3.119.486-1.245.834-2.031 2.359-2.515 3.741-12.711 1.103-23.393 9.383-27.968 20.759-2.179-1.843-4.99-2.959-8.06-2.959-6.895 0-12.503 5.609-12.503 12.503s5.609 12.504 12.503 12.504c2.422 0 4.677-.703 6.594-1.9 2.091 8.688 7.595 16.059 15.015 20.603-.097.103-.196.216-.293.314-8.309 8.358-17.679 25.977-12.548 39.03.088.359.18.717.282 1.068.509 1.746 1.219 3.383 2.059 4.898-1.104.42-2.196 1.076-3.062 2.101-1.007 1.191-1.225 2.812-.566 4.229s2.036 2.298 3.597 2.298h7.045c.12.053.243.099.367.134.079.023.16.036.242.038l10.167.325c.76 0 1.465-.282 2.056-.758h16.659c.596.476 1.308.758 2.08.758h.001l10.135-.324c.082-.002.163-.015.242-.038.124-.035.247-.081.367-.134h6.507c1.725 0 3.218-1.093 3.802-2.784.599-1.73.064-3.571-1.361-4.69-.691-.543-1.455-.928-2.221-1.205.788-1.43 1.454-2.971 1.949-4.607.621.042 1.265.067 1.927.067 3.396 0 7.23-.637 10.597-2.752 5.026-3.158 7.721-8.044 7.586-13.758-.151-6.431-5.137-12.073-6.661-13.648-1.019-1.055-2.097-2.015-3.048-2.862zm-13.157-5.166c1.151 5.411 4.645 8.521 7.754 11.29.921.821 1.791 1.597 2.583 2.416 2.559 2.644 4.313 5.924 4.364 8.161.083 3.489-2.002 5.542-3.766 6.65-2.065 1.298-4.659 1.592-6.985 1.497.202-3.644-.354-7.601-1.678-11.804-.388-1.378-.816-2.566-1.274-3.533-.001-.003-.002-.006-.004-.008-2.168-5.332-5.404-10.578-9.068-14.788 3.638-2.146 6.819-4.982 9.36-8.333-1.419 2.47-1.91 5.51-1.286 8.452z" fill="#e6e7e8"/><ellipse cx="62" cy="39.338" fill="#fff" rx="32.259" ry="32.259" transform="matrix(.383 -.924 .924 .383 1.93 81.565)"/><path d="m101.925 76.17c-2.585-2.304-4.818-4.293-5.48-7.404-.301-1.418.006-2.904.803-3.878.63-.769 1.59-1.518 2.667-1.143 1.106.386 1.488 1.971 1.488 1.971.888 3.78 6.655 2.965 6.278-.9-.003-.033-.007-.067-.01-.1-.386-3.477-3.371-7.092-7.696-7.138-3.017-.029-5.68 1.18-7.5 3.405-1.982 2.424-2.753 5.812-2.061 9.065 1.082 5.089 4.444 8.084 7.411 10.726.945.842 1.839 1.638 2.665 2.492 2.763 2.856 4.586 6.323 4.646 8.833.093 3.958-2.251 6.275-4.234 7.52-2.54 1.597-5.758 1.811-8.449 1.593.388-4.003-.237-8.272-1.558-12.462-.366-1.307-.779-2.463-1.219-3.39l-.001.003c-2.454-6.063-6.184-11.712-10.091-15.853l-.068-.111c7.966-5.165 13.522-13.731 14.564-23.657 1.914 1.423 4.278 2.275 6.846 2.275 6.353 0 11.503-5.15 11.503-11.503s-5.15-11.503-11.503-11.503c-3.349 0-6.355 1.44-8.457 3.725.665 1.912 1.152 3.907 1.45 5.963.097.674.179 1.353.234 2.04.009.106.013.213.021.32.053.753.087 1.511.087 2.277 0 .082-.006.163-.006.246-.004.419-.011.838-.031 1.253-.65-14.171-10.444-25.949-23.618-29.588 2.313-1.782 4.203-4.36 1.364-7.106-2.553-2.468-7.489 5.447-7.489 5.447s2.574-5.951 0-6.638c-4.118-1.1-5.085 6.286-5.085 6.286l.049.952c-16.125 1.268-28.917 14.378-29.667 30.639-.019-.412-.027-.827-.03-1.243-.001-.082-.006-.163-.006-.246 0-.767.034-1.525.087-2.278.008-.106.012-.213.02-.319.055-.687.137-1.367.234-2.041.299-2.055.785-4.05 1.45-5.962-2.102-2.285-5.108-3.725-8.457-3.725-6.353 0-11.503 5.15-11.503 11.503s5.15 11.503 11.503 11.503c2.568 0 4.932-.852 6.846-2.275 1.045 9.957 6.623 18.559 14.63 23.72-8.568 9.063-16.3 25.481-11.607 37.297.09.367.183.734.288 1.093.623 2.136 1.514 4.073 2.586 5.77-1.328.314-2.755.935-3.786 2.154-1.629 1.926-.256 4.883 2.267 4.883h10.809c1.472.269 2.961.211 4.403-.261h25.668c1.442.472 2.931.53 4.403.261h10.585c2.846 0 4.196-3.825 1.823-5.688-.944-.741-2.057-1.155-3.097-1.385 1.062-1.689 1.946-3.613 2.565-5.734.05-.172.089-.356.134-.533 3.765.342 8.55.059 12.589-2.479 4.716-2.964 7.244-7.541 7.118-12.888-.142-6.07-4.919-11.467-6.379-12.977-.985-1.016-2.007-1.927-2.996-2.807z" fill="#fa759e"/><circle cx="62.338" cy="103.527" fill="#ffd7e5" r="8.214"/><ellipse cx="23.076" cy="36.517" fill="#ffd7e5" rx="7.349" ry="7.349" transform="matrix(.973 -.23 .23 .973 -7.773 6.279)"/><ellipse cx="100.925" cy="36.517" fill="#ffd7e5" rx="7.349" ry="7.349" transform="matrix(.707 -.707 .707 .707 3.739 82.06)"/><path d="m40.455 63.342c5.712 5.13 13.263 8.255 21.545 8.255s15.833-3.124 21.545-8.255c1.274-2.897 1.987-6.096 1.987-9.464 0-5.138-1.651-9.887-4.445-13.757 1.885-2.12 3.04-4.903 3.04-7.963 0-6.628-5.373-12.001-12.001-12.001-4.263 0-7.997 2.229-10.126 5.579-2.129-3.35-5.863-5.579-10.126-5.579-6.628 0-12.001 5.373-12.001 12.001 0 3.06 1.155 5.844 3.04 7.963-2.794 3.87-4.445 8.619-4.445 13.757 0 3.368.713 6.568 1.987 9.464z" fill="#ffd7e5"/><path d="m46.244 43.826c-1.063 0-1.925.588-1.925 1.312 0 .725.862 1.312 1.925 1.312s1.925-.588 1.925-1.312-.862-1.312-1.925-1.312z" fill="#fa759e"/><path d="m77.567 43.826c-1.063 0-1.925.588-1.925 1.312 0 .725.862 1.312 1.925 1.312s1.925-.588 1.925-1.312-.862-1.312-1.925-1.312z" fill="#fa759e"/><g fill="#3a2c60"><path d="m102.591 75.424c-2.555-2.276-4.573-4.075-5.167-6.866-.237-1.111-.002-2.303.598-3.036.329-.4.971-1.037 1.564-.832.433.151.763.932.844 1.255.588 2.504 2.874 3.488 4.83 3.163 1.822-.301 3.668-1.803 3.417-4.378l-.013-.123c-.434-3.906-3.799-7.977-8.681-8.027-3.337-.048-6.267 1.307-8.284 3.772-2.171 2.655-3.019 6.358-2.266 9.905 1.151 5.41 4.644 8.521 7.731 11.271.93.828 1.807 1.61 2.605 2.435 2.559 2.645 4.313 5.924 4.364 8.162.083 3.489-2.002 5.542-3.766 6.65-2.021 1.27-4.551 1.579-6.839 1.502.203-3.649-.354-7.61-1.674-11.794-.389-1.385-.818-2.578-1.278-3.548-.001-.002-.001-.004-.002-.005-2.394-5.888-6.091-11.665-10.229-16.062-.556.385-1.122.757-1.702 1.107 4.087 4.265 7.751 9.96 10.102 15.767.015.038.032.074.052.109.401.858.782 1.926 1.141 3.203 1.487 4.712 1.967 9.074 1.418 13.048-.113 2.067-.401 3.909-.857 5.473-.572 1.961-1.397 3.806-2.452 5.482-.173.276-.201.618-.076.918.126.3.39.521.708.591 1.083.239 1.989.641 2.694 1.195h.001c.903.709.957 1.737.706 2.463-.24.695-.869 1.438-1.912 1.438h-4.645c.119-.202.235-.414.346-.643 3.563-7.347 3.386-27.335-1.899-40.191-.21-.511-.796-.754-1.305-.544-.511.21-.755.794-.545 1.305 5.405 13.148 4.909 32.455 1.949 38.558-.573 1.184-1.079 1.57-1.376 1.693l-1.809.058v-3.168c0-.552-.447-1-1-1s-1 .448-1 1v3.232l-1.911.061v-3.294c0-.552-.447-1-1-1s-1 .448-1 1v3.358l-2.234.072c-.924 0-1.709-1.121-1.753-2.475 2.94-11.34 3.273-20.376 1.02-27.624-.164-.527-.721-.824-1.252-.658-.527.164-.822.725-.658 1.252 2.148 6.909 1.796 15.628-1.079 26.658-.021.083-.032.167-.032.252 0 .654.116 1.273.318 1.837h-13.89c.202-.564.318-1.183.318-1.837 0-.085-.011-.17-.032-.252-2.875-11.029-3.228-19.749-1.079-26.658.164-.527-.131-1.088-.658-1.252-.53-.166-1.088.131-1.252.658-2.254 7.248-1.921 16.284 1.02 27.624-.044 1.354-.828 2.475-1.721 2.475l-2.267-.073v-3.357c0-.552-.447-1-1-1s-1 .448-1 1v3.293l-1.911-.061v-3.232c0-.552-.447-1-1-1s-1 .448-1 1v3.168l-1.809-.058c-.297-.124-.803-.51-1.376-1.693-2.96-6.104-3.456-25.41 1.949-38.558.21-.511-.034-1.095-.545-1.305-.507-.21-1.094.033-1.305.544-5.285 12.856-5.462 32.845-1.899 40.191.111.229.227.441.346.643h-4.892c-.784 0-1.451-.426-1.782-1.141-.331-.714-.227-1.498.279-2.096.741-.876 1.836-1.491 3.253-1.827.314-.075.573-.296.695-.595s.092-.639-.08-.912c-1.064-1.684-1.896-3.54-2.473-5.516-.101-.345-.189-.697-.275-1.05-.011-.045-.025-.089-.042-.132-4.743-11.941 3.742-28.198 11.539-36.385-.583-.35-1.151-.72-1.709-1.105-8.083 8.662-16.674 25.545-11.715 38.163.088.359.18.717.282 1.068.504 1.728 1.188 3.374 2.039 4.907-1.248.476-2.268 1.176-3.042 2.092-1.007 1.191-1.225 2.812-.566 4.229.658 1.418 2.036 2.299 3.597 2.299h6.9c.12.053.242.099.367.134.079.022.16.035.242.038l10.167.325c.759 0 1.464-.282 2.056-.758h16.66c.596.476 1.308.757 2.079.757h.001l10.135-.324c.082-.002.163-.015.242-.038.124-.036.246-.081.367-.134h6.653c1.726 0 3.218-1.093 3.802-2.784.599-1.73.064-3.571-1.36-4.69-.632-.496-1.369-.897-2.2-1.2.796-1.445 1.441-2.991 1.931-4.607.577.036 1.167.063 1.778.063 3.396 0 7.23-.637 10.597-2.752 5.026-3.159 7.721-8.045 7.586-13.758-.151-6.433-5.137-12.073-6.661-13.648-1.022-1.054-2.1-2.014-3.051-2.86zm1.059 28.573c-3.418 2.147-7.428 2.576-10.817 2.406.258-1.277.435-2.656.512-4.109.001-.009.002-.018.003-.027 2.641.1 5.632-.257 8.086-1.799 2.202-1.384 4.806-3.963 4.701-8.39-.065-2.789-1.953-6.431-4.927-9.505-.851-.879-1.755-1.685-2.719-2.544-2.853-2.54-6.084-5.419-7.099-10.187-.628-2.959.066-6.033 1.857-8.224 1.624-1.985 3.983-3.066 6.715-3.038 3.772.039 6.376 3.208 6.723 6.335.137 1.402-.858 2.072-1.753 2.22-1.034.175-2.232-.27-2.557-1.652-.053-.216-.556-2.131-2.132-2.681-1.298-.451-2.634.065-3.77 1.454-.985 1.203-1.371 3.011-1.008 4.719.73 3.433 3.19 5.624 5.794 7.943.971.864 1.974 1.757 2.941 2.757 1.396 1.443 5.965 6.597 6.099 12.305.119 4.98-2.242 9.248-6.649 12.017z"/><path d="m58.365 60.097c-1.453 0-2.635-1.182-2.635-2.635 0-.552-.447-1-1-1s-1 .448-1 1c0 2.556 2.079 4.635 4.635 4.635 1.48 0 2.786-.71 3.635-1.794.849 1.084 2.155 1.794 3.636 1.794 2.556 0 4.635-2.079 4.635-4.635 0-.552-.447-1-1-1s-1 .448-1 1c0 1.453-1.182 2.635-2.635 2.635s-2.636-1.182-2.636-2.635v-10.731c2.076-.459 3.636-2.308 3.636-4.52 0-.552-.447-1-1-1s-1 .448-1 1c0 1.453-1.183 2.635-2.636 2.635s-2.635-1.182-2.635-2.635c0-.552-.447-1-1-1s-1 .448-1 1c0 2.212 1.559 4.061 3.635 4.52v10.731c0 1.453-1.182 2.635-2.635 2.635z"/><path d="m93.357 47.006c-.525-.144-1.082.164-1.23.697-.41 1.481-.937 2.947-1.564 4.357-.226.504.002 1.096.506 1.321.133.059.271.087.406.087.383 0 .748-.221.914-.593.669-1.501 1.229-3.062 1.666-4.639.147-.532-.165-1.083-.698-1.23z"/><path d="m62 72.597c11.584 0 22.153-5.882 28.272-15.734.291-.469.147-1.086-.322-1.377s-1.086-.146-1.377.322c-5.752 9.26-15.685 14.789-26.573 14.789-17.236 0-31.259-14.022-31.259-31.259 0-16.066 12.188-29.322 27.801-31.05-.082.411-.126.712-.14.82-.072.547.313 1.049.86 1.121.559.073 1.05-.314 1.122-.86.148-1.12.86-4.243 2.347-5.236.446-.299.917-.368 1.489-.215.131.035.2.094.264.224.458.945-.265 3.523-.924 5.052-.207.48-.01 1.04.454 1.282.461.24 1.035.088 1.313-.356 1.342-2.151 3.899-5.263 5.386-5.446.232-.029.391.024.56.189.892.861 1.247 1.692 1.087 2.542-.453 2.41-4.708 4.678-6.309 5.349-.509.213-.75.799-.536 1.308.16.383.531.615.923.614.128 0 .259-.024.384-.077.538-.224 4.325-1.876 6.331-4.429 11.738 4.504 20.107 15.864 20.107 29.168 0 1.524-.11 3.054-.328 4.546-.08.546.298 1.054.845 1.134.121.017.239.005.353-.02-.05.622-.105 1.243-.191 1.855 1.998 1.357 4.395 2.167 6.987 2.167 6.895 0 12.503-5.609 12.503-12.503 0-6.895-5.608-12.503-12.503-12.503-3.072 0-5.884 1.118-8.062 2.962-3.41-8.474-10.211-15.216-18.714-18.569.071-.207.134-.416.174-.631.291-1.541-.269-3.005-1.661-4.352-.604-.583-1.366-.841-2.194-.736-1.309.161-2.678 1.233-3.851 2.466.017-.69-.073-1.345-.334-1.883-.316-.655-.852-1.1-1.548-1.286-1.117-.298-2.197-.131-3.118.486-1.247.834-2.033 2.36-2.516 3.744-12.711 1.104-23.397 9.38-27.972 20.754-2.178-1.84-4.987-2.956-8.055-2.956-6.895 0-12.503 5.609-12.503 12.503s5.608 12.503 12.503 12.503c2.423 0 4.678-.704 6.594-1.903 3.512 14.598 16.671 25.481 32.331 25.481zm38.925-46.584c5.791 0 10.503 4.712 10.503 10.503s-4.712 10.503-10.503 10.503c-2.411 0-4.617-.837-6.389-2.211.194-.153.335-.373.374-.636.232-1.587.35-3.214.35-4.835 0-3.612-.58-7.09-1.65-10.349 1.892-1.839 4.473-2.975 7.315-2.975zm-77.85 21.007c-5.791 0-10.503-4.711-10.503-10.503s4.712-10.503 10.503-10.503c2.845 0 5.429 1.137 7.322 2.981-1.069 3.258-1.656 6.733-1.656 10.344 0 1.93.175 3.82.492 5.661-1.732 1.263-3.854 2.02-6.158 2.02z"/><path d="m48.35 33.12c0 1.468 1.19 2.657 2.657 2.657s2.657-1.19 2.657-2.657c0-1.468-1.19-2.657-2.657-2.657s-2.657 1.189-2.657 2.657z"/><path d="m70.336 33.12c0 1.468 1.19 2.657 2.657 2.657s2.657-1.19 2.657-2.657c0-1.468-1.19-2.657-2.657-2.657s-2.657 1.189-2.657 2.657z"/></g></svg>