<svg id="Layer_1" enable-background="new 0 0 128 128" height="512" viewBox="0 0 128 128" width="512" xmlns="http://www.w3.org/2000/svg"><path d="m104.425 81.388c-.214-.532-.652-.879-1.203-.95-.785-.095-1.571.417-1.988.978-.457.615-.564 1.351-.287 1.968.076.171.128.395-.064.764-1.153 2.203-7.359 4.708-15.04 6.99-.919-11.009-6.309-21.408-10.616-28.128-.737-1.274-1.471-2.469-2.184-3.58 1.01-.586 1.885-1.344 2.602-2.297.198-.263.372-.546.543-.832h4.263c.553 0 1-.447 1-1s-.447-1-1-1h-3.345c.176-.503.329-1.022.449-1.563h2.896c.553 0 1-.447 1-1s-.447-1-1-1h-2.578c.053-.512.086-1.033.102-1.562h2.476c.553 0 1-.447 1-1s-.447-1-1-1h-2.492c-.19-4.007-1.233-8.24-2.534-11.695-.533-1.415-1.137-2.739-1.803-3.953 5.108-1.108 8.917-5.694 8.917-11.053 0-6.236-5.074-11.311-11.312-11.311-6.236 0-11.311 5.074-11.311 11.311 0 .765.077 1.522.229 2.267-.745.001-1.779.001-2.946.002l-1.972.002c-2.437.002-4.875.005-5.661-.003-.001 0-.002 0-.002 0 .152-.745.229-1.503.229-2.268 0-6.236-5.074-11.311-11.312-11.311-6.236 0-11.311 5.074-11.311 11.311 0 5.633 4.164 10.337 9.576 11.177-.66 1.205-1.239 2.49-1.731 3.839-.534 1.464-2.229 6.475-2.519 11.686h-3.238c-.553 0-1 .447-1 1s.447 1 1 1h3.202c.011.524.039 1.046.088 1.562h-3.29c-.553 0-1 .447-1 1s.447 1 1 1h3.598c.115.534.259 1.056.432 1.563h-4.031c-.553 0-1 .447-1 1s.447 1 1 1h4.942c.197.335.407.662.644.972.57.744 1.241 1.36 1.995 1.873-2.721 4.116-5.442 8.644-7.521 13.889-.203.513.048 1.095.562 1.298.087.034.176.038.264.047-.254.668-.5 1.342-.734 2.027-.071-.044-.137-.094-.221-.12-.527-.162-1.087.135-1.249.663-.859 2.804-1.451 5.638-1.759 8.426-.059.538.322 1.017.854 1.094-.1.808-.169 1.622-.221 2.437-.008 0-.014-.005-.022-.005-.519-.042-1.017.408-1.037.961-.244 6.344 1.081 12.189 3.917 17.342-.086.647-.133 1.274-.144 1.91-.027 1.668.52 3.229 1.478 4.44-1.325 1.92-2.583 4.445-2.073 6.647.252 1.085.936 1.434 1.32 1.544.17.049.346.072.527.072 1.532 0 3.483-1.713 6.095-4.288 1.788.759 3.81.549 5.354-.543.891-.63 1.893-1.543 2.768-2.818.01-.014.027-.021.044-.018 0 0 9.609.977 12.811.977 2.849 0 10.234-.62 13.114-.872.171.125.326.27.504.385.629.409 1.288.708 1.956.901.32.341.66.712.971 1.052 2.864 3.13 4.931 5.242 6.598 5.242.146 0 .288-.016.428-.049.386-.091 1.077-.4 1.378-1.453.387-1.355.067-2.878-.528-4.314.98-1.052 1.539-2.471 1.451-3.978-.086-1.475-.375-2.786-.738-3.917-.003-.01-.002-.02.002-.029 1.776-3.749 2.668-7.614 2.916-11.468 13.511-4.45 17.573-7.164 18.88-9.798 1.014-2.033.221-4.004-.358-5.443z" fill="#e6e7e8"/><path d="m99.497 77.761c-.378-.939-2.053.289-1.639 1.212 1.394 3.112-6.742 6.459-15.947 9.169.066 1.135.081 2.275.043 3.417 19.78-6.549 19.285-9.469 17.543-13.798z" fill="#fa759e"/><path d="m30.01 110.58c-.094-.037-.19-.066-.283-.108-.539-.247-1.015-.584-1.428-.982-1.354 1.812-2.87 4.407-2.389 6.486.521 2.248 3.511-.443 6.051-2.942-.881-.606-1.54-1.471-1.951-2.454z" fill="#fa759e"/><path d="m74.311 113.802c-.558.016-1.108-.071-1.638-.23 2.232 2.345 4.609 4.45 5.17 2.487.289-1.01.074-2.18-.365-3.332-.882.643-1.969 1.04-3.167 1.075z" fill="#fa759e"/><path d="m75.99 101.124c-.003-.01-.002-.02.002-.029 8.001-16.895-1.863-36.149-8.397-46.058-1.523.638-3.419.926-5.772.742-3.93-.307-9.867 4.078-10.967 4.078-.759 0-6.271-4.422-10.232-4.078-2.671.232-4.755-.142-6.366-.954-6.776 10.213-17.358 30.722-7.553 48.175.004.008.006.016.005.025-.099.661-.166 1.362-.178 2.104-.036 2.244 1.155 4.408 3.196 5.344 1.824.836 3.918.637 5.506-.485.891-.63 1.893-1.543 2.768-2.818.01-.014.027-.021.044-.018 0 0 9.609.977 12.811.977 3.573 0 14.293-.977 14.293-.977.016-.003.033.003.043.016.904 1.192 1.913 2.04 2.829 2.636.982.639 2.121 1.033 3.291 1 3.184-.092 5.592-2.749 5.417-5.761-.088-1.477-.376-2.788-.74-3.919z" fill="#fff"/><path d="m78.99 104.124c-.003-.01-.002-.02.002-.029 8.208-17.33-2.386-37.148-8.897-46.81-.591-.877-1.23-1.715-1.911-2.517-1.612.827-3.696 1.219-6.361 1.011-3.93-.307-9.867 4.078-10.967 4.078-.759 0-6.271-4.422-10.232-4.078-.693.06-1.336.068-1.952.05-.365.474-.719.958-1.055 1.457-6.751 10.018-17.89 30.954-7.911 48.714.004.008.006.016.005.025-.099.661-.166 1.362-.178 2.104-.036 2.244 1.155 4.408 3.196 5.344 1.824.836 3.918.637 5.506-.485.891-.63 1.893-1.543 2.768-2.818.01-.014.027-.021.044-.018 0 0 9.609.977 12.811.977 3.573 0 14.293-.977 14.293-.977.016-.003.033.003.043.016.904 1.192 1.913 2.04 2.829 2.636.982.639 2.121 1.033 3.291 1 3.184-.092 5.592-2.749 5.417-5.761-.089-1.477-.377-2.788-.741-3.919z" fill="#6dc9f7"/><path d="m64.639 82.384c-2.235 1.213-5.021.654-6.704-1.26-.886-1.009-1.376-2.31-1.376-3.638 0-.177.007-.354.027-.531.25-2.552 1.547-6.392 6.413-9.401-.052-.094-.098-.195-.151-.287-2.189-3.822-5.286-6.57-8.826-7.613l-.29.29c-1.5 1.5-3.933 1.5-5.434 0l-.361-.361c-3.636.982-6.821 3.757-9.059 7.65-.059.102-.11.212-.167.316 4.874 3.01 6.172 6.853 6.422 9.407.02.177.027.354.027.531 0 1.329-.491 2.63-1.376 3.638-1.683 1.915-4.47 2.473-6.704 1.26-.596-.321-1.129-.673-1.634-1.034.171 11.79 7.001 21.27 15.411 21.27 8.149 0 14.826-8.919 15.371-20.216.019-.344.022-.693.028-1.041-.5.355-1.028.702-1.617 1.02z" fill="#d4fbff"/><path d="m77.539 16.475c0-5.695-4.616-10.311-10.311-10.311s-10.311 4.616-10.311 10.311c0 1.149.191 2.253.538 3.286-.187-.01-.375-.018-.567-.018-.792-.003-3.225.001-5.658.003-2.44.002-4.881.004-5.671-.003-.452-.004-.89.028-1.321.076.36-1.049.557-2.173.557-3.344 0-5.695-4.616-10.311-10.311-10.311s-10.311 4.616-10.311 10.311c0 5.673 4.582 10.275 10.247 10.309-1.015 1.601-1.838 3.335-2.463 5.049-3.167 8.688-5.851 25.205 8.666 23.945 3.961-.344 9.474 4.078 10.232 4.078 1.1 0 7.037-4.385 10.967-4.078 14.453 1.13 11.921-15.3 8.666-23.945-.657-1.745-1.477-3.485-2.479-5.08 5.33-.399 9.53-4.846 9.53-10.278z" fill="#6dc9f7"/><ellipse cx="34.777" cy="16.765" fill="#d4fbff" rx="5.896" ry="5.896" transform="matrix(.998 -.071 .071 .998 -1.101 2.508)"/><ellipse cx="67.103" cy="16.765" fill="#d4fbff" rx="5.896" ry="5.896" transform="matrix(.998 -.071 .071 .998 -1.02 4.799)"/><path d="m45.81 78.266-.89.742c-.225.772-.597 1.501-1.136 2.115-.275.313-.588.576-.915.814 1.101.757 3.124 1.975 4.434 1.729 1.875-.352-1.493-5.4-1.493-5.4z" fill="#fa759e"/><path d="m57.935 81.123c-.545-.621-.919-1.358-1.143-2.138l-.821-.731s-3.529 4.937-1.666 5.35c1.339.296 3.477-.929 4.577-1.644-.338-.244-.663-.513-.947-.837z" fill="#fa759e"/><g fill="#3a2c60"><path d="m100.425 77.389c-.214-.533-.652-.88-1.203-.95-.791-.119-1.571.416-1.988.978-.457.614-.564 1.35-.288 1.967.072.16.124.369-.034.704-.547 1.158-3.283 3.548-15.07 7.034.057.68.103 1.362.124 2.047 14.927-4.375 16.293-7.248 16.755-8.228.272-.576.355-1.168.25-1.74.334.998.448 1.848.052 2.688-1.128 2.387-6.431 5.08-17.044 8.614-.003.708-.024 1.418-.07 2.128 13.911-4.58 17.698-7.293 18.922-9.888.943-2 .163-3.939-.406-5.354z"/><path d="m23.18 82.484c.504 0 .937-.379.993-.891.294-2.664.859-5.375 1.683-8.059.162-.527-.135-1.087-.663-1.249s-1.087.135-1.249.663c-.859 2.802-1.451 5.637-1.759 8.426-.061.549.336 1.043.885 1.104.036.004.074.006.11.006z"/><path d="m69.043 55.43c1.01-.587 1.885-1.344 2.602-2.299.198-.263.372-.546.543-.832h4.263c.553 0 1-.447 1-1s-.447-1-1-1h-3.345c.176-.503.329-1.022.449-1.562h2.896c.553 0 1-.447 1-1s-.447-1-1-1h-2.578c.053-.512.086-1.033.102-1.563h2.476c.553 0 1-.447 1-1s-.447-1-1-1h-2.492c-.19-4.007-1.233-8.24-2.534-11.694-.532-1.414-1.137-2.738-1.803-3.954 5.108-1.108 8.917-5.694 8.917-11.052 0-6.237-5.074-11.312-11.312-11.312-6.236 0-11.311 5.074-11.311 11.312 0 .764.077 1.522.229 2.267-1.122 0-3.018.002-4.918.004-2.436.001-4.874.004-5.659-.003-.001 0-.003 0-.005 0 .152-.744.229-1.503.229-2.268 0-6.237-5.074-11.312-11.311-11.312s-11.311 5.074-11.311 11.312c0 5.632 4.164 10.336 9.576 11.176-.66 1.205-1.24 2.491-1.731 3.84-.534 1.464-2.229 6.475-2.519 11.685h-3.238c-.553 0-1 .447-1 1s.447 1 1 1h3.202c.011.524.039 1.046.088 1.563h-3.29c-.553 0-1 .447-1 1s.447 1 1 1h3.598c.115.534.258 1.056.432 1.562h-4.03c-.553 0-1 .447-1 1s.447 1 1 1h4.942c.197.336.407.663.644.973.571.745 1.243 1.362 1.998 1.875-2.719 4.112-5.44 8.63-7.524 13.887-.203.513.048 1.095.562 1.298.513.202 1.095-.047 1.298-.562 2.047-5.164 4.75-9.628 7.447-13.695 1.701.659 3.725.902 6.083.7 2.065-.187 4.783 1.212 6.811 2.389l.777.777c1.5 1.5 3.933 1.5 5.434 0l.643-.643c2.222-1.183 5.246-2.693 7.37-2.522 2.069.162 3.879-.026 5.445-.53 6.641 10.257 15.466 28.444 7.929 44.364-.135.241-.165.557-.08.819.388 1.207.62 2.441.692 3.669.068 1.181-.345 2.322-1.162 3.214-.847.924-2.014 1.453-3.286 1.489-.893.054-1.833-.263-2.717-.838-.99-.645-1.857-1.453-2.581-2.407-.211-.275-.577-.432-.927-.401v-.001c-.106.01-10.714.973-14.201.973-3.116 0-12.615-.962-12.71-.972l-.001.001c-.362-.031-.76.142-.969.446-.694 1.012-1.543 1.876-2.521 2.567-1.301.92-3.031 1.073-4.512.393-1.619-.742-2.645-2.477-2.613-4.417.011-.652.065-1.297.173-2.011.022-.208-.024-.443-.127-.626-2.769-4.925-4.054-10.501-3.822-16.571.021-.552-.409-1.017-.961-1.037-.507-.021-1.016.408-1.037.961-.243 6.345 1.083 12.19 3.918 17.341-.086.646-.133 1.274-.144 1.91-.027 1.668.52 3.23 1.478 4.442-1.326 1.919-2.584 4.443-2.074 6.647.252 1.085.936 1.434 1.32 1.544.17.049.346.072.527.072 1.533 0 3.483-1.713 6.095-4.288-.05-.021-.102-.035-.151-.058-.586-.269-1.093-.647-1.53-1.092-1.427 1.395-3.462 3.285-4.298 3.43-.005-.018-.01-.037-.015-.06-.321-1.386.555-3.228 1.618-4.818.256.168.525.32.808.449.88.403 1.821.602 2.757.602 1.326 0 2.639-.399 3.743-1.18 1.021-.723 1.924-1.6 2.68-2.603 2.104.208 9.557.927 12.366.927 3.171 0 11.675-.739 13.873-.935.789.952 1.711 1.774 2.745 2.448.627.407 1.282.701 1.946.892.324.344.666.718.982 1.062 2.863 3.129 4.93 5.241 6.597 5.241.146 0 .288-.017.428-.05.386-.091 1.077-.4 1.378-1.453.387-1.355.067-2.878-.528-4.314-.469.504-1.036.921-1.674 1.227.335.924.485 1.814.278 2.538-.003.013-.007.023-.01.034-.542-.131-1.552-1.016-2.564-2.017-1.169.032-2.306-.362-3.287-1-.511-.333-1.05-.76-1.584-1.266.632.181 1.272.271 1.905.266 1.816-.053 3.486-.812 4.702-2.138 1.186-1.294 1.784-2.956 1.684-4.682-.074-1.277-.302-2.559-.672-3.8 7.629-16.607-1.201-35.151-8.009-45.75zm-7.143-.648c-2.01-.151-4.402.751-6.502 1.757-.49-1.023-1.571-1.705-2.759-1.705h-3.249c-1.146 0-2.195.631-2.709 1.594-1.766-.892-3.77-1.667-5.612-1.667-.18 0-.357.007-.534.022-3.584.308-6.23-.532-7.884-2.483h.744c.553 0 1-.447 1-1s-.447-1-1-1h-1.96c-.207-.49-.372-1.015-.51-1.562h2.47c.553 0 1-.447 1-1s-.447-1-1-1h-2.831c-.054-.507-.081-1.031-.095-1.563h2.925c.553 0 1-.447 1-1s-.447-1-1-1h-2.892c.211-3.708 1.191-7.703 2.393-10.999.639-1.753 1.436-3.387 2.368-4.855.194-.308.207-.696.033-1.016-.175-.318-.508-.519-.872-.521-5.102-.031-9.253-4.208-9.253-9.31 0-5.135 4.177-9.312 9.311-9.312s9.311 4.177 9.311 9.312c0 1.03-.169 2.046-.503 3.02-.111.324-.048.684.167.95.214.268.554.411.892.367.454-.051.829-.074 1.2-.069.791.007 3.235.006 5.683.003 1.719-.002 3.437-.004 4.577-.004.824 0 1.197-.003 1.592.018.326.019.648-.13.849-.395.201-.264.258-.609.152-.923-.322-.958-.485-1.957-.485-2.967 0-5.135 4.177-9.312 9.311-9.312 5.135 0 9.312 4.177 9.312 9.312 0 4.842-3.779 8.919-8.604 9.281-.35.026-.659.233-.817.546s-.141.687.046.983c.903 1.438 1.707 3.087 2.391 4.9 1.294 3.438 2.221 7.382 2.404 10.989h-3.642c-.553 0-1 .447-1 1s.447 1 1 1h3.659c-.018.533-.049 1.057-.107 1.563h-3.551c-.553 0-1 .447-1 1s.447 1 1 1h3.179c-.143.549-.315 1.073-.526 1.562h-2.653c-.553 0-1 .447-1 1s.447 1 1 1h1.406c-1.67 1.915-4.288 2.757-7.825 2.484z"/><path d="m44.404 37.506c-1.241 0-2.247 1.006-2.247 2.247s1.006 2.247 2.247 2.247 2.247-1.006 2.247-2.247-1.006-2.247-2.247-2.247z"/><path d="m58.205 37.506c-1.241 0-2.247 1.006-2.247 2.247s1.006 2.247 2.247 2.247 2.247-1.006 2.247-2.247-1.006-2.247-2.247-2.247z"/><path d="m52.889 83.566c.202.527.629.887 1.2 1.014.207.046.424.066.646.066 1.26 0 2.713-.669 3.822-1.307.904.441 1.892.677 2.885.677 1.027 0 2.057-.245 2.99-.751.887-.479 1.72-1.031 2.478-1.644.43-.347.496-.977.148-1.406-.346-.429-.976-.496-1.406-.148-.661.534-1.391 1.018-2.172 1.438-1.788.971-4.092.532-5.476-1.042-.728-.828-1.128-1.885-1.128-2.978 0-.14.005-.278.022-.435.25-2.538 1.569-6.152 6.44-8.953.479-.275.644-.887.368-1.366-.276-.478-.887-.643-1.366-.368-5.608 3.227-7.138 7.486-7.431 10.476-.025.216-.034.431-.034.646 0 .177.033.349.048.523-1.095 1.586-2.586 4.122-2.034 5.558zm2.793-2.992c.232.427.495.838.821 1.209.077.088.162.165.243.248-.741.36-1.464.618-1.973.621.075-.433.424-1.214.909-2.078z"/><path d="m38.235 81.503c-.778-.419-1.508-.902-2.169-1.437-.431-.348-1.061-.28-1.406.148-.348.43-.281 1.06.148 1.406.758.612 1.591 1.165 2.475 1.642.936.508 1.966.753 2.994.752.997 0 1.99-.238 2.897-.682 1.103.673 2.531 1.364 3.776 1.364.185 0 .364-.015.537-.048.576-.107 1.015-.454 1.233-.974.61-1.449-.872-4.111-1.922-5.721.011-.156.043-.31.043-.468 0-.214-.009-.427-.031-.63-.295-3.006-1.824-7.266-7.433-10.492-.481-.275-1.091-.11-1.366.368-.275.479-.11 1.091.368 1.366 4.871 2.801 6.19 6.415 6.441 8.965.016.141.021.281.021.423 0 1.093-.4 2.15-1.127 2.978-1.384 1.576-3.687 2.015-5.479 1.04zm8.63 1.196c-.495-.019-1.189-.288-1.902-.659.084-.086.172-.166.252-.257.321-.365.581-.769.81-1.188.458.878.78 1.67.84 2.104z"/></g><path d="m60.786 44.024c-.881 0-1.595.487-1.595 1.088s.714 1.087 1.595 1.087 1.595-.487 1.595-1.087c0-.601-.714-1.088-1.595-1.088z" fill="#fa759e"/><path d="m41.502 44.024c-.881 0-1.595.487-1.595 1.088s.714 1.087 1.595 1.087 1.595-.487 1.595-1.087c0-.601-.715-1.088-1.595-1.088z" fill="#fa759e"/></svg>