<svg id="Layer_1" enable-background="new 0 0 128 128" height="512" viewBox="0 0 128 128" width="512" xmlns="http://www.w3.org/2000/svg"><path d="m112.767 103.706c0-8.38-3.726-15.773-9.533-19.011-1.889-11.146-5.791-18.478-9.562-23.6-.007-.257-.01-.478-.006-.652.067-.021.135-.036.201-.063.685 1.394 1.694 2.719 2.87 1.943 1.628-1.074 1.834-3.462 1.49-5.965 3.667-1.204 6.324-4.654 6.324-8.718 0-4.425-3.148-8.128-7.322-8.989-.555-4.581-2.097-8.425-4.427-11.528-.914-1.85-2.044-3.562-3.425-5.105-5.278-7.679-19.536-15.15-30.564-16.005-5.875-.456-10.479.929-13.356 3.998-1.248 1.332-1.635 2.555-1.149 3.637.404.901 1.379 1.472 2.521 1.832-3.436 1.081-7.287 2.612-8.159 4.242-.708 1.324-.325 2.311-.034 2.781.469.758 1.278 1.221 2.138 1.471-2.853 3.997-4.355 8.883-4.508 14.539-4.606.486-8.208 4.392-8.208 9.126 0 4.448 3.181 8.165 7.387 9 .217 1.492.813 2.742 1.988 3.517.095.063.193.106.29.154-5.262 7.564-9.303 16.595-11.084 25.09-5.195 3.573-8.404 10.539-8.404 18.306 0 4.383 1.022 8.549 2.961 12.091-.771 1.274-1.175 2.734-1.175 4.26 0 2.681 2.068 4.863 4.61 4.863h14.357c.126.048.252.092.38.124.078.019.158.029.238.029h.02l7.749-.152h36.042l7.773.152h.02c.08 0 .16-.01.238-.029.119-.029.233-.081.349-.124h15.439c2.542 0 4.61-2.182 4.61-4.863 0-1.832-.586-3.577-1.663-4.986 1.691-3.389 2.584-7.303 2.584-11.365z" fill="#e6e7e8"/><path d="m34.057 43.405c-.534-2.701-.822-5.379-.822-7.945-4.517 0-8.178 3.662-8.178 8.178 0 4.223 3.202 7.698 7.31 8.131-.145-2.735.903-6.199 1.69-8.364z" fill="#fa759e"/><path d="m34.057 43.405c-.331-1.676-.555-3.34-.687-4.978-.046-.001-.089-.014-.135-.014-2.886 0-5.225 2.339-5.225 5.225 0 2.66 1.995 4.832 4.566 5.159.332-1.975.962-3.966 1.481-5.392z" fill="#ffd7e5"/><path d="m93.358 35.713c.075.89.119 1.803.119 2.747 0 2.563-.285 5.239-.818 7.937.481 1.32 1.057 3.127 1.404 4.958 3.193-1.114 5.487-4.143 5.487-7.716.001-3.831-2.636-7.037-6.192-7.926z" fill="#fa759e"/><path d="m93.467 38.857c-.028 2.443-.301 4.98-.807 7.54.22.604.46 1.311.689 2.074 1.905-.78 3.249-2.647 3.249-4.832 0-2.14-1.29-3.974-3.131-4.782z" fill="#ffd7e5"/><path d="m107.767 99.705c0-8.396-3.925-15.542-9.44-18.361-1.68-10.335-5.14-17.417-8.615-22.463.019 2.96-.346 7.089-3.74 6.734-.422-.044-.668-.477-.861-.902-4.534 6.792-10.585 11.932-17.329 13.11-.962.168-1.938.255-2.926.255-1.438 0-2.85-.185-4.231-.534-6.217-1.573-11.778-6.481-16.017-12.83-.193.424-.885 1.427-2.274.855-3.994-1.647-2-8.717-2.329-9.511-.682 1.5-1.756 3.1-3.023 2.264-.877-.578-1.334-1.544-1.523-2.697-5.367 7.371-10.014 16.9-11.925 26.379-4.907 3.176-8.301 9.898-8.301 17.702 0 4.582 1.177 8.787 3.133 12.13-.842 1.17-1.347 2.631-1.347 4.221 0 2.133 1.617 3.863 3.611 3.863h82.604c1.994 0 3.611-1.73 3.611-3.863 0-1.892-.71-3.605-1.858-4.856 1.742-3.235 2.78-7.198 2.78-11.496z" fill="#fa759e"/><path d="m74.377 119.82c-1.92-.104-3.289-2.368-3.057-5.057 2.208-6.621 3.874-13.041 4.727-19.159-3.863-2.799-8.871-4.492-14.347-4.492-5.727 0-10.946 1.848-14.875 4.881.869 6.002 2.506 12.289 4.668 18.771.232 2.689-1.137 4.953-3.057 5.057l-3.308.065c.074.036.133.049.174.034h32.399c.049.017.119.005.203-.03z" fill="#ffd7e5"/><path d="m89.66 43.397c.533-2.698.818-5.374.818-7.937 0-7.139-2.198-12.724-5.888-16.824-7.215-10.583-33.243-21.715-42.405-11.94-4.351 4.642 5.88 4.372 5.88 4.372s-11.221 2.71-12.514 5.126c-1.095 2.046 1.174 3.073 3.073 3.019-3.388 4.043-5.39 9.437-5.39 16.248 0 2.565.288 5.244.822 7.945-1.228 3.376-3.103 9.918-.075 11.917 1.267.836 2.341-.764 3.023-2.264.33.794-1.665 7.864 2.329 9.511 1.388.572 2.081-.431 2.274-.855 4.239 6.349 9.8 11.257 16.017 12.83 1.381.349 2.794.534 4.231.534.988 0 1.964-.087 2.926-.255 6.744-1.177 12.795-6.318 17.329-13.11.193.424.439.857.861.902 5.024.526 3.413-8.776 3.74-9.562.682 1.501 1.757 3.106 3.025 2.269 3.032-2.001 1.152-8.552-.076-11.926z" fill="#fff"/><path d="m92.66 46.397c.533-2.698.818-5.374.818-7.937 0-7.139-2.198-12.724-5.888-16.824-7.215-10.583-33.243-21.715-42.405-11.94-4.351 4.642 5.88 4.372 5.88 4.372s-11.221 2.71-12.514 5.126c-1.095 2.046 1.174 3.073 3.073 3.019-3.388 4.043-5.39 9.437-5.39 16.248 0 2.565.288 5.244.822 7.945-1.228 3.376-3.103 9.918-.075 11.917 1.267.836 2.341-.764 3.023-2.264.33.794-1.665 7.864 2.329 9.511 1.388.572 2.081-.431 2.274-.855 4.239 6.349 9.8 11.257 16.017 12.83 1.381.349 2.794.534 4.231.534.988 0 1.964-.087 2.926-.255 6.744-1.177 12.795-6.318 17.329-13.11.193.424.439.857.861.902 5.024.526 3.413-8.776 3.74-9.562.682 1.501 1.757 3.106 3.025 2.269 3.032-2.001 1.152-8.552-.076-11.926z" fill="#fa759e"/><path d="m73.344 47.169c3.647-.829 6.438-5.332 6.438-10.78 0-6.036-3.422-10.929-7.643-10.929s-7.643 4.893-7.643 10.929c0 3.103.908 5.897 2.36 7.886-1.57-.333-3.246-.508-4.997-.508-1.746 0-3.419.174-4.986.506 1.451-1.989 2.358-4.782 2.358-7.884 0-6.036-3.422-10.929-7.643-10.929s-7.643 4.893-7.643 10.929c0 5.444 2.787 9.946 6.431 10.779-2.498 1.991-4.033 4.849-4.033 8.605 0 8.023 6.947 14.528 15.517 14.528s15.517-6.504 15.517-14.528c-.001-3.756-1.536-6.614-4.033-8.604z" fill="#ffd7e5"/><g fill="#3a2c60"><path d="m98.551 43.639c0 3.084-1.959 5.712-4.694 6.726.153.658.279 1.328.371 1.992 3.666-1.204 6.324-4.654 6.324-8.718 0-4.425-3.148-8.129-7.322-8.989.083.687.145 1.389.182 2.11 2.967.88 5.139 3.629 5.139 6.879z"/><path d="m108.768 99.706c0-8.379-3.726-15.772-9.534-19.011-1.889-11.146-5.791-18.479-9.562-23.601.023.882.084 2.189-.006 3.52.567.877 1.129 1.815 1.679 2.813-.053.178-.074.366-.018.557 2.536 8.719 2.942 18.396 2.837 24.979-.009.552.432 1.007.984 1.016h.016c.545 0 .991-.437 1-.984.073-4.543-.098-10.535-1.019-16.708.885 2.739 1.639 5.792 2.196 9.217.052.314.249.585.532.73 5.32 2.72 8.896 9.741 8.896 17.471 0 3.976-.92 7.787-2.661 11.021-.201.375-.144.836.145 1.15 1.028 1.121 1.595 2.605 1.595 4.18 0 1.579-1.172 2.863-2.611 2.863h-3.317v-4.398c0-.552-.447-1-1-1s-1 .448-1 1v4.398h-7.74c1.799-2.472 3.041-6.596 3.839-10.165.121-.539-.219-1.074-.758-1.194-.534-.117-1.073.219-1.193.758-1.5 6.71-3.324 9.812-4.677 10.602h-2.872l.39-4.525c.048-.55-.36-1.035-.91-1.082-.566-.058-1.035.36-1.082.91l-.405 4.697h-2.952l.413-4.792c.048-.55-.36-1.035-.91-1.082-.564-.062-1.035.36-1.082.91l-.425 4.927-3.125-.061c-.569-.031-.986-.38-1.236-.667-.644-.741-.972-1.927-.887-3.191 5.025-15.107 6.503-27.267 4.517-37.173-.109-.542-.635-.893-1.177-.784-.542.108-.893.636-.784 1.177 1.921 9.58.452 21.442-4.491 36.263-.025.075-.041.152-.048.23-.138 1.594.209 3.1.954 4.242h-19.745c.745-1.142 1.092-2.647.954-4.242-.007-.079-.022-.156-.048-.23-4.943-14.821-6.412-26.683-4.491-36.263.108-.542-.242-1.069-.784-1.177-.543-.109-1.068.242-1.177.784-1.986 9.906-.509 22.066 4.517 37.172.085 1.265-.243 2.451-.887 3.192-.25.287-.667.636-1.202.666l-3.159.062-.425-4.927c-.048-.55-.525-.972-1.082-.91-.55.047-.958.532-.91 1.082l.413 4.792h-2.953l-.405-4.697c-.048-.55-.522-.967-1.082-.91-.55.047-.958.532-.91 1.082l.39 4.525h-2.836c-.563-.317-1.174-1.001-1.764-2.023-4.621-8.006-7.447-34.896-2.207-52.913.023-.078.016-.155.02-.232 1.317-2.396 2.757-4.713 4.296-6.886-.039 2.493.428 5.504 3.152 6.626 1.011.417 1.892.263 2.549-.169 4.562 6.434 10.164 10.744 15.878 12.19 1.482.375 2.988.564 4.477.564 1.028 0 2.07-.091 3.098-.27 6.209-1.084 12.287-5.481 17.226-12.431.194.119.422.204.688.232 1.209.126 2.218-.185 3.014-.924 1.584-1.471 1.834-4.282 1.833-6.571.236.163.479.28.731.353.623.18 1.261.072 1.842-.312 3.324-2.193 2.086-8.135.405-12.839.521-2.715.784-5.357.784-7.857 0-7.051-2.053-12.919-6.101-17.443-5.279-7.676-19.537-15.146-30.566-16.001-5.862-.459-10.479.928-13.356 3.998-1.248 1.332-1.635 2.555-1.149 3.637.404.9 1.379 1.472 2.521 1.832-3.436 1.081-7.287 2.613-8.158 4.243-.708 1.323-.325 2.311-.034 2.781.468.757 1.277 1.22 2.137 1.47-2.852 3.998-4.354 8.883-4.507 14.539-4.607.486-8.209 4.392-8.209 9.126 0 4.446 3.181 8.15 7.384 8.987.215 1.498.812 2.753 1.991 3.531.098.064.199.11.3.159-5.264 7.563-9.313 16.588-11.094 25.084-5.195 3.573-8.404 10.539-8.404 18.306 0 4.383 1.022 8.549 2.962 12.091-.771 1.276-1.176 2.736-1.176 4.26 0 2.681 2.068 4.863 4.611 4.863h14.356c.126.048.252.092.38.124.078.019.158.029.238.029h.02l7.749-.152h36.042l7.773.152h.02c.08 0 .16-.01.238-.029.119-.029.233-.081.349-.124h15.439c2.543 0 4.611-2.182 4.611-4.863 0-1.832-.587-3.577-1.664-4.986 1.693-3.391 2.586-7.304 2.586-11.366zm-72.966-42.857c-.072-.168-.131-.347-.184-.53.067-.031.137-.049.203-.087-.01.2-.016.407-.019.617zm-4.44-6.294c-3.051-.827-5.305-3.608-5.305-6.916 0-3.628 2.708-6.628 6.207-7.104.064 2.177.311 4.451.76 6.792-.825 2.308-1.539 4.913-1.662 7.228zm3.635-6.808c.063-.171.077-.357.042-.536-.533-2.695-.804-5.303-.804-7.751 0-6.115 1.661-11.25 4.915-15.288 2.169-.189 4.831-1.182 7.009-2.169-.169.523-.212 1.055-.053 1.567.356 1.144 1.554 1.804 3.561 1.961.464.036.923.053 1.376.053 5.8 0 10.585-2.773 10.801-2.9.477-.28.635-.893.355-1.369s-.892-.636-1.369-.355c-.052.03-5.24 3.032-11.007 2.576-1.372-.107-1.77-.442-1.807-.562-.157-.503.989-2.032 2.359-3.146.404-.33.488-.916.191-1.345s-.876-.559-1.325-.296c-.067.039-6.772 3.914-10.646 4.024-.981.023-1.979-.307-2.26-.762-.047-.077-.173-.28.098-.786.667-1.248 6.679-3.373 11.866-4.626.498-.12.824-.596.757-1.104-.067-.507-.481-.894-1.018-.868-2.496.065-5.543-.427-5.908-1.239-.085-.191.068-.686.784-1.449 3.093-3.3 8.09-3.654 11.742-3.373 10.546.818 24.146 7.917 29.105 15.192.025.037.053.073.083.106 3.737 4.152 5.632 9.588 5.632 16.155 0 2.454-.269 5.059-.8 7.743-.035.179-.021.364.042.536 2.032 5.582 2.207 9.6.467 10.748-.119.077-.161.065-.187.059-.061-.018-.609-.218-1.378-1.907-.165-.362-.502-.579-.927-.586-.398.007-.755.249-.907.617-.144.346-.139.747-.104 1.857.055 1.771.168 5.458-1.163 6.693-.209.194-.566.429-1.244.407l1.348-2.651c.25-.492.054-1.094-.438-1.344-.494-.252-1.095-.054-1.345.438l-1.59 3.133c-4.756 7.106-10.663 11.594-16.639 12.637-2.239.39-4.505.302-6.74-.263-5.518-1.396-10.976-5.778-15.377-12.339l-1.237-3.083c-.205-.513-.787-.76-1.3-.556-.513.206-.762.788-.556 1.3l1.083 2.701c-.279.244-.619.109-.769.047-2.355-.971-1.97-4.899-1.763-7.009.101-1.025.15-1.539-.023-1.96-.152-.368-.509-.61-.906-.617-.385-.001-.764.223-.928.586-.767 1.685-1.315 1.885-1.375 1.902-.027.006-.069.019-.188-.059-1.738-1.147-1.564-5.162.465-10.74zm-16.977 72.31c0-1.325.4-2.583 1.159-3.637.23-.321.25-.748.051-1.088-1.96-3.35-2.996-7.37-2.996-11.625 0-7.16 3.079-13.779 7.844-16.863.227-.146.384-.377.438-.642.7-3.475 1.833-7.097 3.29-10.685-2.693 17.088-.428 38.438 4.156 46.38.217.376.44.712.667 1.023h-6.843v-4.398c0-.552-.447-1-1-1s-1 .448-1 1v4.398h-3.154c-1.441-.001-2.612-1.285-2.612-2.863z"/><path d="m94.025 103.239c.047.007.094.01.14.01.491 0 .92-.362.989-.862.324-2.321.576-4.763.748-7.258.037-.551-.378-1.028-.93-1.066-.538-.036-1.027.378-1.066.929-.168 2.448-.415 4.843-.732 7.119-.076.547.305 1.052.851 1.128z"/><path d="m52.102 38.414c1.302 0 2.358-1.056 2.358-2.358s-1.056-2.358-2.358-2.358-2.358 1.056-2.358 2.358c.001 1.302 1.056 2.358 2.358 2.358z"/><path d="m71.61 38.414c1.302 0 2.358-1.056 2.358-2.358s-1.056-2.358-2.358-2.358-2.358 1.056-2.358 2.358 1.056 2.358 2.358 2.358z"/><ellipse cx="60.284" cy="50.372" rx="1.053" ry="1.64"/><path d="m64.703 52.012c.582 0 1.053-.734 1.053-1.64s-.471-1.64-1.053-1.64c-.581 0-1.053.734-1.053 1.64s.471 1.64 1.053 1.64z"/><path d="m51.161 55.387c-.553 0-1 .448-1 1 0 5.494 5.564 9.964 12.403 9.964s12.403-4.47 12.403-9.964c0-.552-.447-1-1-1s-1 .448-1 1c0 4.392-4.667 7.964-10.403 7.964s-10.403-3.573-10.403-7.964c0-.552-.447-1-1-1z"/></g></svg>