<svg id="Layer_1" enable-background="new 0 0 128 128" height="512" viewBox="0 0 128 128" width="512" xmlns="http://www.w3.org/2000/svg"><path d="m90.294 76.681c.545-1.329.577-3.572-.433-5.639-.922-1.889-2.49-3.15-3.752-3.66-.8-2.054-1.855-3.927-3.106-5.604 4.721-6.37 3.461-11.991-.029-14.819-2.265-1.833-5.486-2.513-8.904-1.144-.868-1.75-2.051-3.041-3.398-3.897.047-1.029.127-1.972.247-2.907 7.914-.506 14.016-3.681 14.016-8.277 0-1.662-.817-3.212-2.212-4.551-.274-1.061-.825-2.077-1.637-3.021.531-1.427.828-2.966.828-4.578 0-2.827-.895-4.779-2.406-6.118-1.643-5.85-8.092-6.694-13.82-6.694-6.623 0-14.226 1.115-14.226 9.813 0 1.919.382 3.78 1.136 5.546-2.688 1.821-4.156 4.141-4.156 6.603 0 3.071 2.33 5.663 6.163 7.334 1.435 1.285 3.509 2.306 6.005 2.997.218 1.403.343 2.765.399 4.34-1.086.851-2.033 2.018-2.756 3.511-3.5-1.491-6.812-.832-9.126 1.044-3.461 2.805-4.733 8.358-.146 14.664-1.313 1.729-2.411 3.678-3.238 5.816-1.24.545-2.727 1.79-3.611 3.602-1.033 2.114-.987 4.544-.321 5.878-.671 2.382-.212 4.879 1.071 5.506.307.149.713.231 1.217.08v.096c0 2.72.681 5.896 2.598 5.896.271 0 .597-.068.924-.298 2.45 3.544 6.108 6.219 10.49 7.655-.017.219-.024.437-.024.653 0 1.756.53 3.2 1.402 4.158v19.342c-2.469.323-4.284 1.828-4.284 3.689 0 2.53 2.808 2.53 5.284 2.53s5.284 0 5.284-2.53c0-.56-.163-1.097-.485-1.595-.194-.301-.191-.666-.157-.907.021-.132.03-.268.03-.405v-20.382c.35-.453.638-.988.836-1.606.279.872.729 1.587 1.3 2.117v3.903c0 .552.447 1 1 1v1.789c-.552 0-1 .448-1 1v5.162c0 .552.447 1 1 1v2c-.552 0-1 .448-1 1v3.018c0 .134.01.266.028.396.036.252.039.616-.156.917-.321.499-.484 1.035-.484 1.595 0 2.53 2.807 2.53 5.283 2.53s5.284 0 5.284-2.53c0-1.858-1.81-3.362-4.284-3.688v-19.953c.588-.924.939-2.132.939-3.549 0-.229-.009-.459-.027-.69 3.901-1.298 7.173-3.534 9.57-6.536.399.381.814.487 1.153.487 1.74 0 3.513-2.976 3.513-5.896 0-.496-.047-.96-.123-1.388.534.182.968.103 1.3-.06 1.328-.65 1.765-3.31 1.001-5.745z" fill="#e6e7e8"/><path d="m69.549 43.18c-.869-2.21-2.23-3.813-3.899-4.708-.026.769-.038 1.588-.034 2.495.006 1.298.009 3.179.01 5.241 1.279-1.354 2.604-2.352 3.923-3.028z" fill="#fff"/><path d="m58.04 45.768c.001-1.887.004-3.597.009-4.802.003-.745-.006-1.422-.023-2.07-1.383.955-2.505 2.445-3.25 4.397 1.096.593 2.193 1.416 3.264 2.475z" fill="#fff"/><path d="m58.04 50.457c-.001-1.572-.001-3.186 0-4.688-4.297-4.251-9.051-4.65-12.282-2.031-3.545 2.873-3.921 8.291.505 13.927 3.003-3.667 7.112-6.265 11.777-7.208z" fill="#fff"/><path d="m65.626 50.413c4.813.919 9.045 3.599 12.103 7.396 4.548-5.688 4.19-11.174.615-14.072-3.34-2.707-8.309-2.196-12.718 2.471.001 1.36.001 2.8 0 4.205z" fill="#fff"/><path d="m67.968 116.943c-.005 0-.01 0-.016 0 .004-.051.016-.101.016-.153v-21.02c-.563.735-1.333 1.136-2.185 1.136-.541 0-1.043-.178-1.487-.484v20.368c0 .085.006.169.018.251.081.56.003 1.127-.305 1.603-.21.324-.325.68-.325 1.053 0 1.521 1.918 1.53 4.284 1.53s4.284-.009 4.284-1.53-1.918-2.754-4.284-2.754z" fill="#ffd7e5"/><path d="m60.143 117.042c.012-.082.018-.166.018-.251v-20.767c-.536.564-1.208.883-1.951.883-.637 0-1.227-.225-1.721-.645v20.529c0 .052.011.102.016.153-.005 0-.01 0-.016 0-2.366 0-4.284 1.233-4.284 2.754s1.918 1.53 4.284 1.53 4.284-.009 4.284-1.53c0-.373-.116-.729-.326-1.053-.307-.476-.385-1.043-.304-1.603z" fill="#ffd7e5"/><path d="m84.962 67.481c-.91-1.864-2.549-3.032-3.621-3.302-3.037-8.269-10.577-14.127-19.403-14.127-8.839 0-16.388 5.875-19.417 14.163-1.071.328-2.617 1.476-3.491 3.266-1.062 2.173-.77 4.546-.129 5.301-.766 2.202-.292 4.398.419 4.746.458.224 1.188-.238 1.952-1.135-.11.664-.173 1.413-.173 2.209 0 2.704.715 4.896 1.598 4.896.375 0 .718-.398.991-1.059 2.485 4.293 6.587 7.292 11.519 8.708-.076.434-.12.89-.12 1.363 0 2.767 1.398 4.398 3.124 4.398s3.124-1.631 3.124-4.398c0-.153-.006-.303-.014-.453.207.005.411.017.619.017.247 0 .491-.012.736-.019-.008.15-.014.301-.014.455 0 2.767 1.398 4.398 3.124 4.398s3.124-1.631 3.124-4.398c0-.485-.045-.952-.125-1.395 4.469-1.309 8.248-3.923 10.747-7.626.284.794.66 1.282 1.075 1.282.882 0 2.513-2.192 2.513-4.896 0-1.213-.329-2.321-.771-3.176.055-.271.101-.547.146-.824.905 1.232 1.822 1.918 2.362 1.654.729-.356 1.209-2.657.359-4.914.548-.898.739-3.103-.254-5.134z" fill="#0089ef"/><path d="m65.907 35.062c-.404.014-.807.028-1.219.028-2.522 0-4.899-.272-7.029-.762.282 1.973.402 3.934.39 6.638-.016 3.604-.009 11.681-.003 15.729.002 1.333 1.337 2.408 2.984 2.408h.521.565.521c1.647 0 2.982-1.075 2.984-2.408.005-4.047.013-12.125-.003-15.729-.012-2.369.077-4.168.289-5.904z" fill="#ffd7e5"/><path d="m73.502 17.505c.895-1.783 1.411-3.789 1.411-5.921 0-7.304-5.921-8.812-13.225-8.812s-13.225 1.508-13.225 8.812c0 2.131.516 4.138 1.412 5.921-2.741 1.628-4.433 3.815-4.433 6.228 0 5.021 7.274 8.356 16.246 8.356s16.247-3.335 16.247-8.356c0-2.412-1.692-4.6-4.433-6.228z" fill="#fff"/><path d="m76.502 20.505c.895-1.783 1.411-3.789 1.411-5.921 0-7.304-5.921-8.812-13.225-8.812s-13.225 1.508-13.225 8.812c0 2.131.516 4.138 1.412 5.921-2.741 1.628-4.433 3.815-4.433 6.228 0 5.021 7.274 8.356 16.246 8.356s16.247-3.335 16.247-8.356c0-2.412-1.692-4.6-4.433-6.228z" fill="#ffd7e5"/><path d="m73.77 23.429c-1.725-1.493-3.44-1.012-4.538-.395-.723.414-1.628.183-2.11-.482-1.089-1.522-3.025-3.748-5.029-3.748-.138 0-.269.016-.405.04-.135-.025-.267-.04-.405-.04-2.004 0-3.941 2.226-5.029 3.748-.482.665-1.387.896-2.11.482-1.098-.617-2.813-1.099-4.538.395-.328.279-.52.694-.52 1.127 0 .848.665 1.734 1.426 1.734.125 0 .26-.029.385-.077 2.524-.992 8.787 3.189 10.232 3.189h1.118c1.445 0 7.708-4.181 10.232-3.189.125.048.26.077.385.077.761 0 1.426-.886 1.426-1.734.001-.434-.192-.848-.52-1.127z" fill="#fa759e"/><g fill="#3a2c60"><path d="m64.296 110.772c.553 0 1-.447 1-1v-5.162c0-.553-.447-1-1-1s-1 .447-1 1v5.162c0 .553.447 1 1 1z"/><path d="m86.293 72.681c.545-1.329.577-3.572-.433-5.639-.922-1.889-2.49-3.15-3.752-3.66-.8-2.054-1.855-3.926-3.106-5.601 4.722-6.371 3.461-11.993-.029-14.822-2.262-1.832-5.478-2.499-8.892-1.13-.868-1.758-2.058-3.045-3.408-3.905.048-1.021.127-1.968.247-2.913-.663.042-1.336.07-2.022.074-.211 1.787-.292 3.596-.282 5.885.016 3.603.008 11.678.003 15.723-.001.765-.91 1.41-1.984 1.41h-1.606c-1.074 0-1.983-.646-1.984-1.409-.005-4.046-.013-12.121.004-15.723.012-2.52-.088-4.456-.35-6.423-.724-.136-1.42-.298-2.089-.483.221 1.426.346 2.782.402 4.343-1.083.855-2.029 2.021-2.75 3.516-3.503-1.498-6.819-.841-9.136 1.035-3.461 2.805-4.726 8.359-.138 14.667-1.314 1.729-2.418 3.673-3.245 5.813-1.241.545-2.728 1.79-3.612 3.602-1.033 2.114-.987 4.544-.321 5.878-.671 2.382-.212 4.879 1.071 5.507.308.147.714.23 1.218.079v.096c0 2.72.68 5.896 2.597 5.896.271 0 .597-.068.925-.299 2.45 3.545 6.108 6.22 10.489 7.656-.017.219-.024.437-.024.653 0 1.755.53 3.199 1.402 4.157v19.343c-2.469.323-4.283 1.828-4.283 3.689 0 2.53 2.807 2.53 5.283 2.53s5.284 0 5.284-2.53c0-.56-.163-1.096-.484-1.595-.001 0-.001-.001-.001-.001-.194-.3-.191-.664-.154-.918.018-.128.027-.26.027-.394v-20.38c.35-.453.638-.988.836-1.606.279.872.729 1.587 1.3 2.117v3.903c0 .553.447 1 1 1s1-.447 1-1v-2.957c.16.021.32.042.487.042.422 0 .812-.089 1.185-.217l.001 19.057c-.003.021-.013.103-.014.123-.021.277.082.551.271.755s.463.319.741.319c1.879 0 3.283.926 3.283 1.754 0 .53-1.82.53-3.283.53s-3.284 0-3.284-.53c0-.168.056-.34.167-.511.418-.649.575-1.44.453-2.286-.006-.036-.008-.072-.008-.11v-3.018c0-.553-.447-1-1-1s-1 .447-1 1v3.018c0 .134.01.266.028.396.036.252.039.616-.154.915-.322.499-.486 1.036-.486 1.597 0 2.53 2.808 2.53 5.284 2.53s5.283 0 5.283-2.53c0-1.858-1.81-3.362-4.283-3.688v-19.955c.588-.924.938-2.132.938-3.548 0-.229-.009-.46-.027-.69 3.902-1.298 7.174-3.534 9.57-6.535.399.38.813.486 1.153.486 1.74 0 3.513-2.976 3.513-5.896 0-.501-.048-.969-.125-1.4.574.197 1.016.092 1.303-.047 1.328-.65 1.765-3.311 1.001-5.745zm-8.579-28.168c3.172 2.572 3.113 7.15-.021 11.665-2.96-3.288-6.783-5.58-11.03-6.565-.01-.014-.025-.022-.036-.035 0-.99 0-1.984 0-2.947 3.698-3.728 8.002-4.617 11.087-2.118zm-9.472-1.753c-.539.331-1.079.711-1.618 1.152-.001-1.137-.004-2.156-.007-2.951-.001-.185.003-.345.003-.524.64.63 1.178 1.418 1.622 2.323zm-11.194-1.518c-.003.663-.005 1.446-.006 2.322-.331-.252-.662-.479-.993-.69.287-.604.624-1.145.999-1.632zm-10.661 3.272c1.177-.954 2.533-1.417 3.966-1.417 2.173 0 4.519 1.081 6.687 3.112v3.447c-4.117.993-7.828 3.21-10.729 6.376-3.036-4.467-3.062-8.976.076-11.518zm10.101 75.714c-1.463 0-3.283 0-3.283-.53 0-.828 1.404-1.754 3.196-1.758.318.028.625-.088.836-.315.189-.204.285-.478.264-.755l-.01-19.046c.233.045.469.083.719.083.333 0 .647-.055.95-.135v19.019c0 .038-.002.074-.007.108-.123.848.034 1.639.453 2.288.11.17.166.343.166.511.001.53-1.821.53-3.284.53zm27.955-43.745c-.233-.156-.636-.509-1.146-1.202-.237-.325-.646-.472-1.04-.381-.392.095-.688.415-.753.813-.043.264-.086.526-.139.783-.046.224-.014.456.091.66.425.823.659 1.788.659 2.717 0 1.883-.912 3.333-1.421 3.779-.062-.104-.14-.264-.225-.501-.126-.355-.442-.609-.816-.656-.381-.042-.743.121-.954.433-2.332 3.456-5.859 5.955-10.199 7.226-.49.144-.794.635-.703 1.138.072.4.109.811.109 1.217 0 2.001-.873 3.398-2.123 3.398-1.251 0-2.124-1.397-2.124-3.398 0-.134.005-.266.013-.396.017-.279-.085-.554-.28-.755-.188-.194-.447-.304-.718-.304-.009 0-.019 0-.028 0l-.238.008c-.271.01-.543.012-.815.003l-.249-.009c-.277.004-.547.104-.74.303-.194.2-.296.472-.282.749.007.133.013.266.013.4 0 2.001-.873 3.398-2.123 3.398-1.251 0-2.124-1.397-2.124-3.398 0-.393.035-.793.105-1.189.088-.504-.218-.993-.709-1.134-4.76-1.367-8.642-4.296-10.93-8.248-.191-.33-.547-.507-.933-.497-.38.026-.713.266-.857.617-.024.059-.047.111-.069.157-.273-.588-.594-1.845-.594-3.612 0-.721.054-1.409.159-2.045.074-.443-.157-.882-.564-1.071-.408-.188-.892-.084-1.184.259-.34.399-.606.623-.778.738-.21-.52-.419-1.841.113-3.373.116-.334.047-.706-.183-.976-.33-.389-.646-2.347.266-4.215.786-1.608 2.156-2.524 2.886-2.748.3-.092.539-.318.646-.613 2.255-6.17 6.923-10.679 12.596-12.543-1.937 4.116-2.043 8.998-2.047 9.236-.009.552.432 1.007.984 1.016h.016c.545 0 .991-.438 1-.984.001-.043.068-3.112 1.033-6.262.001.61.001 1.175.002 1.677.003 1.878 1.79 3.406 3.984 3.406h1.606c2.194 0 3.981-1.528 3.984-3.407.001-.763.002-1.669.003-2.662 1.126 3.325 1.202 6.748 1.203 6.794.01.546.455.983 1 .983h.017c.552-.01.992-.464.983-1.016-.004-.228-.102-4.726-1.815-8.724 5.576 1.898 10.157 6.369 12.392 12.451.114.311.374.545.694.625.711.179 2.146 1.089 2.967 2.771.884 1.811.624 3.638.297 4.17-.162.264-.193.588-.084.877.599 1.593.385 2.98.166 3.517z"/><path d="m56.922 16.17c1.492 0 2.701-1.158 2.701-2.587s-1.209-2.587-2.701-2.587-2.701 1.158-2.701 2.587 1.209 2.587 2.701 2.587z"/><path d="m67.227 16.17c1.492 0 2.701-1.158 2.701-2.587s-1.209-2.587-2.701-2.587-2.701 1.158-2.701 2.587 1.21 2.587 2.701 2.587z"/><path d="m50.512 27.29c.246 0 .505-.051.751-.146 1.215-.477 4.474 1.062 6.42 1.981 1.776.839 2.736 1.277 3.446 1.277h1.118c.71 0 1.67-.438 3.446-1.277 1.946-.921 5.212-2.463 6.422-1.98.244.095.503.146.749.146 1.43 0 2.426-1.44 2.426-2.733 0-.727-.316-1.414-.867-1.886-1.673-1.447-3.69-1.628-5.688-.504-.265.148-.61.065-.8-.197-1.359-1.9-3.477-4.166-5.843-4.166-.138 0-.271.01-.405.028-.133-.019-.267-.028-.404-.028-2.366 0-4.483 2.266-5.839 4.162-.194.266-.54.353-.811.196-1.989-1.117-4.01-.938-5.678.506-.553.473-.87 1.161-.87 1.889.001 1.292.997 2.732 2.427 2.732zm-.252-3.105c1.032-.892 2.142-.982 3.387-.283 1.153.663 2.623.333 3.421-.768 1.514-2.116 3.05-3.33 4.216-3.33.074 0 .146.01.219.023.123.023.248.022.369.001.074-.015.146-.024.222-.024 1.166 0 2.702 1.214 4.22 3.334.794 1.098 2.265 1.426 3.41.769 1.254-.705 2.364-.613 3.394.278.002.002.003.003.005.005.105.09.169.228.169.367 0 .38-.31.724-.444.726-2.021-.792-5.201.708-8.007 2.034-.948.448-2.246 1.062-2.592 1.086h-1.108c-.355-.024-1.653-.638-2.602-1.086-2.26-1.068-4.763-2.251-6.717-2.251-.472 0-.911.068-1.308.225-.117-.01-.427-.354-.427-.733-.001-.141.063-.279.173-.373z"/><path d="m60.38 23.096c.376 0 .682-.305.682-.681s-.305-.682-.682-.682-.682.305-.682.682.306.681.682.681z"/><path d="m62.996 23.096c.376 0 .682-.305.682-.681s-.305-.682-.682-.682-.682.305-.682.682.305.681.682.681z"/><path d="m61.688 33.09c9.993 0 17.247-3.935 17.247-9.356 0-2.462-1.468-4.782-4.156-6.603.753-1.764 1.135-3.626 1.135-5.546 0-8.697-7.603-9.813-14.226-9.813s-14.225 1.115-14.225 9.813c0 1.92.382 3.782 1.135 5.546-2.688 1.82-4.156 4.141-4.156 6.603 0 5.421 7.253 9.356 17.246 9.356zm-11.303-14.724c.451-.269.618-.84.383-1.31-.865-1.724-1.305-3.564-1.305-5.472 0-5.549 3.542-7.813 12.225-7.813 8.684 0 12.226 2.264 12.226 7.813 0 1.907-.439 3.748-1.305 5.472-.235.47-.068 1.041.383 1.31 2.543 1.509 3.943 3.415 3.943 5.367 0 4.194-6.555 7.356-15.247 7.356-8.691 0-15.246-3.162-15.246-7.356 0-1.952 1.4-3.858 3.943-5.367z"/></g></svg>