<svg id="Layer_1" enable-background="new 0 0 128 128" height="512" viewBox="0 0 128 128" width="512" xmlns="http://www.w3.org/2000/svg"><path d="m110.629 78.894c-.448-.179-.959-.012-1.217.396-9.276 14.726-26.776 18.482-38.175 19.281.487-2.705.95-6.165.976-6.518 1.276-8.222 1.387-19.461-2.13-26.344-.248-.485-.784-1.346-1.525-2.538-1.743-2.801-4.661-7.489-5.602-10.368-1.205-3.683-1.494-7.849-1.63-11.572 8.742-2.247 14.942-7.775 14.942-14.226 0-1.464-.326-2.878-.921-4.219.599-1.276.977-2.684 1.1-4.209.19-2.347-.821-4.934-2.924-7.482-.835-1.011-2.106-1.499-3.404-1.31-1.274.188-2.332 1.007-2.828 2.191-.327.78-.639 1.66-.922 2.587-3.873-1.797-8.611-2.86-13.729-2.86-5.117 0-9.856 1.063-13.728 2.86-.283-.924-.595-1.805-.922-2.587-.497-1.184-1.554-2.003-2.828-2.191-1.295-.189-2.569.299-3.405 1.31-2.103 2.549-3.114 5.136-2.924 7.482.123 1.526.502 2.934 1.101 4.209-.595 1.341-.92 2.755-.92 4.219 0 6.248 5.814 11.629 14.12 14.004-.322 4.452-.78 8.95-1.813 12.279-1.207 3.891-3.604 7.552-5.191 9.975-.668 1.021-1.196 1.827-1.513 2.446-3.518 6.883-3.407 18.122-2.14 26.27.04.499.728 5.598 1.312 8.258-1.526 1.059-2.924 3.688-3.51 12.939-3.564.429-6.865 2.303-9.043 5.197-.557.739-.646 1.712-.233 2.541.413.828 1.244 1.342 2.169 1.342h26.508c.17 0 .323-.053.463-.128h5.082c.14.075.293.128.463.128h26.511c.925 0 1.757-.515 2.17-1.343s.324-1.801-.233-2.54c-1.523-2.023-3.598-3.539-5.923-4.421 4.003-1.019 7.742-2.49 11.176-4.434.107-.061.193-.143.267-.232.912-.53 1.795-1.077 2.635-1.65.114-.028.225-.07.328-.141.969-.669 1.927-1.391 2.848-2.146.111-.091.195-.203.256-.323.751-.631 1.476-1.273 2.16-1.929.125-.047.244-.118.346-.218 10.356-10.087 12.907-22.342 13.011-22.859.093-.473-.164-.947-.611-1.126z" fill="#e6e7e8"/><path d="m66.006 95.68c-.084.406-.167.768-.245 1.06 1.413.626 3.081 2.314 3.702 13.17 30.936-4.932 36.796-34.087 36.796-34.087-9.924 15.751-28.74 19.267-40.253 19.857z" fill="#fff"/><path d="m107.003 82.357c-10.828 13.506-28.84 16.202-39.331 16.538.779 1.771 1.454 5.028 1.797 11.185h.058c2.534 0 4.963.795 6.995 2.205 20.851-5.028 28.988-21.539 31.704-29.263.266-.756-.721-1.291-1.223-.665z" fill="#fa759e"/><path d="m79.337 114.974c-2.32-3.081-5.953-4.893-9.81-4.893h-.055c-.612-11.011-2.292-12.711-3.712-13.34.597-2.22 1.426-8.373 1.464-8.84 1.249-8.045 1.393-19.032-2.033-25.736-.825-1.615-5.833-8.907-7.188-13.05-1.303-3.984-1.574-8.486-1.708-12.649-2.392.544-4.969.842-7.657.842-2.989 0-5.839-.37-8.451-1.035-.315 4.556-.764 9.605-1.915 13.312-1.736 5.594-5.727 10.542-6.768 12.58-3.426 6.704-3.282 17.691-2.033 25.736.037.467.866 6.62 1.464 8.84-1.421.63-3.103 2.334-3.713 13.377-3.623.184-6.996 1.942-9.19 4.857-.707.939-.037 2.282 1.138 2.282h26.51v-.128h6.008v.128h26.511c1.175-.002 1.845-1.345 1.138-2.283z" fill="#fa759e"/><path d="m48.638 37.307c-1.475 0-2.916-.092-4.313-.263v35.099c0 2.063 1.672 3.735 3.735 3.735s3.735-1.672 3.735-3.735v-34.978c-1.032.091-2.085.142-3.157.142z" fill="#ffd7e5"/><path d="m34.271 11.956c-.349-1.303-.765-2.543-1.206-3.593-.778-1.855-3.258-2.183-4.538-.632-1.426 1.727-2.908 4.183-2.699 6.765.133 1.638.563 3.071 1.194 4.271 1.323-2.7 3.878-5.058 7.249-6.811z" fill="#fa759e"/><path d="m68.75 7.731c-1.28-1.551-3.761-1.223-4.538.632-.44 1.05-.857 2.29-1.206 3.593 3.371 1.753 5.926 4.111 7.249 6.811.63-1.2 1.061-2.633 1.194-4.271.209-2.582-1.273-5.037-2.699-6.765z" fill="#fa759e"/><ellipse cx="48.638" cy="23.005" fill="#ffd7e5" rx="22.627" ry="14.302"/><path d="m48.638 8.703c-12.497 0-22.627 6.403-22.627 14.302 0 1.699.471 3.327 1.331 4.839 1.465.269 2.993.415 4.567.415 7.122 0 13.346-2.917 16.729-7.264 3.383 4.347 9.607 7.264 16.729 7.264 1.574 0 3.102-.146 4.567-.415.86-1.512 1.331-3.14 1.331-4.839.001-7.899-10.13-14.302-22.627-14.302z" fill="#fa759e"/><g fill="#3a2c60"><path d="m90.197 99.802c-.877.72-1.791 1.408-2.715 2.045-.455.313-.569.937-.255 1.391.194.281.506.432.824.432.196 0 .394-.057.567-.177.969-.669 1.927-1.391 2.848-2.146.427-.35.489-.98.139-1.407-.35-.426-.98-.488-1.408-.138z"/><path d="m106.629 74.894c-.448-.179-.959-.012-1.217.396-9.276 14.725-26.777 18.483-38.175 19.282.487-2.706.95-6.167.976-6.519 1.276-8.222 1.387-19.461-2.13-26.344-.248-.485-.784-1.346-1.525-2.538-1.743-2.801-4.661-7.488-5.602-10.368-1.294-3.957-1.538-6.995-1.668-11.562 8.76-2.241 14.978-7.776 14.978-14.236 0-1.46-.324-2.872-.917-4.211.586-1.248.972-2.672 1.097-4.217.19-2.347-.821-4.934-2.925-7.482-.835-1.011-2.106-1.498-3.404-1.31-1.274.188-2.332 1.007-2.828 2.191-.321.765-.636 1.644-.924 2.586-3.872-1.797-8.611-2.859-13.727-2.859-5.117 0-9.855 1.062-13.727 2.859-.288-.941-.603-1.82-.923-2.586-.497-1.184-1.554-2.003-2.828-2.191-1.295-.188-2.569.299-3.405 1.31-2.103 2.549-3.114 5.136-2.924 7.482.125 1.545.511 2.969 1.097 4.217-.593 1.339-.917 2.75-.917 4.21 0 6.266 5.848 11.661 14.192 14.025-.31 4.847-.749 8.594-1.886 12.258-1.207 3.891-3.605 7.553-5.192 9.976-.668 1.02-1.195 1.826-1.512 2.445-3.518 6.883-3.407 18.122-2.139 26.27.04.499.728 5.597 1.312 8.258-1.525 1.058-2.919 3.705-3.506 12.938-3.566.428-6.868 2.303-9.047 5.198-.557.739-.646 1.712-.233 2.541.413.828 1.244 1.342 2.169 1.342h26.511c.17 0 .323-.053.463-.128h5.082c.14.075.293.128.463.128h26.511c.925 0 1.757-.515 2.17-1.343s.324-1.801-.233-2.54c-1.528-2.029-3.611-3.55-5.946-4.431 4.013-1.011 7.76-2.478 11.199-4.424.48-.272.649-.882.377-1.363-.272-.48-.881-.65-1.363-.377-4.208 2.382-8.907 4.017-14.016 4.944-.55-8.087-1.741-10.936-3.083-12.163 10.489-.732 26.036-3.893 36.215-15.414-1.742 4.413-4.995 10.758-10.687 16.302-.396.385-.404 1.019-.019 1.414s1.019.404 1.414.019c10.356-10.087 12.907-22.342 13.011-22.859.095-.473-.162-.947-.609-1.126zm-41.495-66.144c.227-.541.691-.9 1.275-.986.085-.013.17-.019.255-.019.506 0 .984.223 1.314.624 1.231 1.491 2.66 3.751 2.474 6.048-.063.782-.203 1.491-.391 2.145-1.399-1.944-3.411-3.665-5.873-5.063.282-.962.591-1.903.946-2.749zm-38.31 5.666c-.186-2.296 1.243-4.557 2.474-6.048.331-.4.809-.624 1.315-.624.084 0 .169.006.254.019.584.086 1.049.446 1.275.986.355.847.664 1.787.945 2.749-2.463 1.398-4.474 3.119-5.873 5.063-.186-.654-.326-1.363-.39-2.145zm.187 8.589c0-7.334 9.702-13.302 21.627-13.302s21.627 5.967 21.627 13.302-9.702 13.302-21.627 13.302-21.627-5.967-21.627-13.302zm41.393 86.075h-6.294c-.552 0-1 .448-1 1s.448 1 1 1h7.417c3.523 0 6.892 1.68 9.011 4.495.137.183.084.357.041.444-.044.088-.152.235-.38.235h-25.511v-7.997c0-.552-.448-1-1-1s-1 .448-1 1v7.868h-4.008v-7.868c0-.552-.448-1-1-1s-1 .448-1 1v7.997h-25.511c-.229 0-.336-.147-.38-.235-.043-.088-.097-.262.041-.445 2.119-2.815 5.487-4.495 9.011-4.495h7.417c.552 0 1-.448 1-1s-.448-1-1-1h-6.967c.6-9.106 1.973-10.949 3.049-11.426.451-.2.688-.698.561-1.174-.569-2.116-1.391-8.143-1.441-8.734-1.229-7.913-1.365-18.669 1.935-25.127.268-.524.794-1.328 1.404-2.26 1.648-2.517 4.138-6.32 5.429-10.479 1.174-3.785 1.632-7.573 1.948-12.36 2.347.508 4.855.787 7.463.787 2.313 0 4.547-.22 6.661-.623.137 4.501.413 7.639 1.754 11.741 1.017 3.109 3.898 7.74 5.805 10.803.662 1.063 1.233 1.981 1.442 2.391 3.3 6.458 3.164 17.214 1.926 25.202-.041.517-.863 6.545-1.432 8.66-.128.476.11.974.561 1.174 1.075.477 2.448 2.32 3.048 11.426z"/><path d="m45.419 22.84c.29-1.215-.46-2.435-1.675-2.726-1.215-.29-2.435.46-2.726 1.675-.29 1.215.46 2.435 1.675 2.726s2.436-.459 2.726-1.675z"/><path d="m53.533 24.515c1.215.29 2.435-.46 2.726-1.675.29-1.215-.46-2.435-1.675-2.726-1.215-.29-2.435.46-2.726 1.675-.29 1.216.46 2.436 1.675 2.726z"/><path d="m51.715 34.166c.491 0 .953-.083 1.386-.249 1.409-.54 1.911-1.745 1.963-1.88.197-.508-.053-1.071-.557-1.277-.505-.209-1.086.038-1.301.539-.01.022-.24.542-.848.762-.625.227-1.502.071-2.534-.429v-1.65l1.722-1.722c.301-.301.088-.817-.338-.817h-4.768c-.426 0-.64.515-.338.817l1.722 1.722v1.785c-.895.383-1.663.497-2.225.294-.595-.215-.828-.718-.847-.76-.205-.506-.78-.755-1.288-.557-.515.199-.771.779-.571 1.293.052.136.554 1.341 1.963 1.88.433.166.895.249 1.386.249.833 0 1.75-.247 2.736-.722.987.474 1.904.722 2.737.722z"/><path d="m41.846 67.493c-.552 0-1 .448-1 1v19.183c0 1.657-1.349 3.005-3.006 3.005s-3.005-1.348-3.005-3.005v-19.183c0-.552-.448-1-1-1s-1 .448-1 1v19.183c0 2.76 2.246 5.005 5.005 5.005 2.76 0 5.006-2.246 5.006-5.005v-19.183c0-.552-.448-1-1-1z"/><path d="m62.423 67.493c-.552 0-1 .448-1 1v19.183c0 1.657-1.348 3.005-3.005 3.005s-3.005-1.348-3.005-3.005v-19.183c0-.552-.448-1-1-1s-1 .448-1 1v19.183c0 2.76 2.246 5.005 5.005 5.005s5.005-2.246 5.005-5.005v-19.183c0-.552-.448-1-1-1z"/></g></svg>