<svg id="Layer_1" enable-background="new 0 0 128 128" height="512" viewBox="0 0 128 128" width="512" xmlns="http://www.w3.org/2000/svg"><path d="m113.512 48.373c-2.584-4.61-5.401-8.027-6.693-9.488-2.308-3.664-5.082-6.934-8.217-9.783-.002-.727-.01-1.423-.027-1.589-.4-3.901-1.75-7.336-4.035-10.37-1.483-3.093-3.722-5.841-6.797-8.278-.363-.288-.879-.288-1.242 0-4.479 3.55-10.192 5.861-16.543 6.688-.94.144-4.343.583-8.683.147-6.711-.648-13.02-3.076-17.764-6.835-.363-.288-.879-.288-1.242 0-5.23 4.146-8.601 12.537-9.305 18.87-2.269 1.884-4.386 3.989-6.298 6.261-.355.423-.301 1.054.122 1.409.004.003.009.004.013.007-.535.663-1.037 1.351-1.538 2.042-.399-.321-.977-.304-1.338.071-.13.133-3.203 3.326-6.326 8.418-.289.471-.141 1.086.33 1.375.003.002.007.002.01.004-.497.845-.99 1.735-1.466 2.667-.003-.002-.005-.005-.009-.007-.497-.24-1.096-.033-1.336.464-5.556 11.468-8.039 27.939 11.704 41.282.039.026.083.042.125.062.025.012.047.026.073.036.013.005.025.014.038.019 4.124 4.724 8.919 9.141 13.667 13.045-2.292.506-4.015 2.548-4.015 4.991v4.559c0 2.822 2.296 5.117 5.117 5.117 2.01 0 3.736-1.176 4.573-2.867.836 1.691 2.563 2.867 4.573 2.867 2.276 0 4.187-1.504 4.85-3.563 3.19 2.11 5.721 3.652 7.14 4.494 2.933 1.842 4.752 2.864 4.752 2.864s3.532-1.988 8.687-5.408c.934.988 2.246 1.613 3.709 1.613 2.299 0 4.227-1.535 4.87-3.626.643 2.092 2.57 3.626 4.87 3.626 2.821 0 5.116-2.295 5.116-5.117v-4.559c0-1.73-.868-3.256-2.185-4.182 4.523-3.839 9.015-8.129 12.851-12.7 0 0 4.107-1.529 5.763-3.081 15.871-14.872 8.249-32.288 2.106-41.545z" fill="#e6e7e8"/><path d="m102.017 35.486c-2.458-3.916-5.466-7.453-8.986-10.481-.453-.39-1.435-1.096-1.435-1.096.011-.544.014-3.059-.021-3.397-.612-5.967-3.403-10.862-8.453-14.865-4.511 3.575-10.419 6.035-17.012 6.893-1.927.296-5.249.524-8.93.154-7.11-.687-13.488-3.242-18.289-7.047-5.073 4.02-8.383 12.305-8.973 18.597-3.539 2.889-6.656 6.27-9.267 10.03l-.006-.055s-29.763 30.708 2.746 52.681v-.207c14.41 16.778 37.332 29.66 37.332 29.66s23.553-13.238 37.918-30.353c0 0 4.107-1.529 5.763-3.081 20.707-19.402 1.431-43.132-2.387-47.433z" fill="#fff"/><path d="m105.017 38.486c-2.458-3.916-5.466-7.453-8.986-10.481-.453-.39-1.435-1.096-1.435-1.096.011-.544.014-3.059-.021-3.397-.612-5.967-3.403-10.862-8.453-14.865-4.511 3.575-10.419 6.035-17.012 6.893-1.927.296-5.249.524-8.93.154-7.11-.687-13.488-3.242-18.289-7.047-5.073 4.02-8.383 12.305-8.973 18.597-3.539 2.889-6.656 6.27-9.267 10.03l-.006-.055s-29.763 30.708 2.746 52.681v-.207c14.41 16.778 37.332 29.66 37.332 29.66s23.553-13.238 37.918-30.353c0 0 4.107-1.529 5.763-3.081 20.707-19.402 1.431-43.132-2.387-47.433z" fill="#0089ef"/><path d="m60.723 76.745c-13.862 0-25.536 7.71-29.252 18.258 13.575 12.538 29.252 21.349 29.252 21.349s15.677-8.811 29.252-21.349c-3.717-10.548-15.391-18.258-29.252-18.258z" fill="#ffd7e5"/><g fill="#fa759e"><circle cx="51.903" cy="84.602" r="2.298"/><path d="m56.499 91.49c-1.269 0-2.298 1.029-2.298 2.298s1.029 2.298 2.298 2.298 2.298-1.029 2.298-2.298-1.029-2.298-2.298-2.298z"/><path d="m65.207 91.49c-1.269 0-2.298 1.029-2.298 2.298s1.029 2.298 2.298 2.298 2.298-1.029 2.298-2.298-1.029-2.298-2.298-2.298z"/><path d="m60.723 82.304c-1.269 0-2.298 1.029-2.298 2.298s1.029 2.298 2.298 2.298 2.298-1.029 2.298-2.298-1.029-2.298-2.298-2.298z"/><path d="m69.543 82.304c-1.269 0-2.298 1.029-2.298 2.298s1.029 2.298 2.298 2.298 2.298-1.029 2.298-2.298-1.029-2.298-2.298-2.298z"/></g><path d="m85.345 101.764c-2.274 0-4.117 1.843-4.117 4.117v4.559c0 2.274 1.843 4.117 4.117 4.117s4.117-1.843 4.117-4.117v-4.559c0-2.274-1.843-4.117-4.117-4.117z" fill="#6dc9f7"/><circle cx="41.952" cy="46.882" fill="#d4fbff" r="15.932"/><ellipse cx="79.256" cy="46.882" fill="#d4fbff" rx="15.932" ry="15.932" transform="matrix(.383 -.924 .924 .383 5.613 102.164)"/><path d="m60.704 58.216c-4.311 0-7.806-1.986-7.806 3.765s7.806 10.413 7.806 10.413 7.806-4.662 7.806-10.413-3.495-3.765-7.806-3.765z" fill="#6dc9f7"/><path d="m76.119 101.764c-2.274 0-4.117 1.843-4.117 4.117v4.559c0 2.274 1.843 4.117 4.117 4.117s4.117-1.843 4.117-4.117v-4.559c0-2.274-1.843-4.117-4.117-4.117z" fill="#6dc9f7"/><path d="m46.981 101.764c-2.274 0-4.117 1.843-4.117 4.117v4.559c0 2.274 1.843 4.117 4.117 4.117s4.117-1.843 4.117-4.117v-4.559c0-2.274-1.843-4.117-4.117-4.117z" fill="#6dc9f7"/><path d="m37.835 101.764c-2.274 0-4.117 1.843-4.117 4.117v4.559c0 2.274 1.843 4.117 4.117 4.117s4.117-1.843 4.117-4.117v-4.559c0-2.274-1.843-4.117-4.117-4.117z" fill="#6dc9f7"/><path d="m13.931 43.317c.163.1.344.147.522.147.336 0 .665-.169.854-.477 3-4.893 6.027-8.041 6.057-8.072.384-.397.374-1.03-.022-1.414-.398-.385-1.03-.375-1.414.022-.129.133-3.203 3.326-6.326 8.418-.289.471-.142 1.087.329 1.376z" fill="#3a2c60"/><path d="m102.82 34.885c-2.536-4.025-5.609-7.604-9.137-10.637-.285-.245-.745-.593-1.082-.842.005-.921.005-2.647-.03-2.995-.643-6.263-3.53-11.348-8.827-15.547-.363-.288-.879-.288-1.242 0-4.479 3.55-10.192 5.861-16.544 6.688-.939.145-4.345.583-8.681.147-6.712-.648-13.021-3.076-17.764-6.835-.364-.288-.878-.288-1.242 0-5.23 4.145-8.601 12.537-9.305 18.87-2.27 1.886-4.388 3.99-6.298 6.261-.355.423-.301 1.054.121 1.409.423.355 1.053.301 1.409-.121 1.92-2.282 4.058-4.39 6.353-6.264.208-.169.338-.415.363-.681.536-5.71 3.439-13.36 8.004-17.408 4.959 3.711 11.375 6.104 18.162 6.759 4.566.459 8.183-.007 9.159-.158 6.393-.832 12.205-3.112 16.866-6.608 4.469 3.749 6.916 8.234 7.476 13.688.026.305.027 2.675.016 3.279-.006.329.149.64.416.832.264.189 1.021.745 1.366 1.042 3.396 2.92 6.354 6.371 8.792 10.254.029.046.063.091.099.132 3.579 4.034 20.649 25.073 5.162 43.208-1.411 1.653-4.797 3.76-6.77 4.913v-19.131c0-.552-.447-1-1-1s-1 .448-1 1v20.46c-5.271 6.227-11.789 11.944-17.911 16.683-.928-.937-2.213-1.519-3.632-1.519-2.821 0-5.117 2.295-5.117 5.117v2.771c-5.041 3.447-8.95 5.773-10.279 6.546-1.179-.686-4.399-2.602-8.625-5.428v-3.889c0-2.822-2.295-5.117-5.117-5.117-1.783 0-3.351.919-4.268 2.305-6.18-4.709-12.865-10.46-18.323-16.758v-21.171c0-.552-.448-1-1-1s-1 .448-1 1v19.823c-16.844-12.334-14.522-27.202-9.46-37.645.241-.497.033-1.095-.464-1.336-.498-.24-1.095-.033-1.336.464-5.558 11.468-8.04 27.939 11.701 41.282.04.027.084.042.126.063.024.012.046.025.071.035.013.005.025.015.038.019 4.126 4.726 8.922 9.139 13.672 13.043-2.295.504-4.02 2.548-4.02 4.992v4.559c0 2.822 2.295 5.117 5.117 5.117 2.011 0 3.737-1.176 4.573-2.867.836 1.691 2.562 2.867 4.573 2.867 2.276 0 4.186-1.503 4.849-3.562 4.938 3.267 8.315 5.18 8.403 5.229.152.085.321.128.49.128s.338-.043.49-.128c.097-.055 4.136-2.344 9.848-6.197.296 2.543 2.438 4.53 5.058 4.53 2.04 0 3.792-1.209 4.613-2.94.821 1.732 2.573 2.94 4.613 2.94 2.821 0 5.117-2.295 5.117-5.117v-4.559c0-2.822-2.296-5.117-5.117-5.117-.19 0-.37.036-.554.056 5.073-4.177 10.196-8.936 14.493-14.033 1.062-.583 6.567-3.669 8.669-6.13 16.483-19.303-1.245-41.371-5.133-45.771zm-61.868 75.555c0 1.719-1.398 3.117-3.117 3.117s-3.117-1.398-3.117-3.117v-4.559c0-1.719 1.398-3.117 3.117-3.117s3.117 1.398 3.117 3.117zm9.146 0c0 1.719-1.398 3.117-3.117 3.117s-3.117-1.398-3.117-3.117v-4.559c0-1.719 1.398-3.117 3.117-3.117s3.117 1.398 3.117 3.117zm29.138 0c0 1.719-1.398 3.117-3.117 3.117s-3.117-1.398-3.117-3.117v-4.559c0-1.719 1.398-3.117 3.117-3.117s3.117 1.398 3.117 3.117zm9.226-4.559v4.559c0 1.719-1.398 3.117-3.117 3.117s-3.117-1.398-3.117-3.117v-4.559c0-1.719 1.398-3.117 3.117-3.117s3.117 1.398 3.117 3.117z" fill="#3a2c60"/><circle cx="41.952" cy="46.882" fill="#3a2c60" r="9.146"/><ellipse cx="79.256" cy="46.882" fill="#3a2c60" rx="9.146" ry="9.146" transform="matrix(.383 -.924 .924 .383 5.613 102.164)"/><path d="m60.191 73.253c.158.094.335.142.513.142s.355-.047.513-.142c.339-.202 8.293-5.025 8.293-11.271 0-2.061-.422-3.401-1.329-4.217-1.236-1.113-3.012-.925-4.889-.727-1.666.176-3.51.176-5.175 0-1.878-.198-3.654-.385-4.889.727-.907.816-1.329 2.156-1.329 4.217-.001 6.246 7.953 11.069 8.292 11.271zm-5.626-14.002c.306-.276.815-.366 1.449-.366.553 0 1.201.068 1.893.141.843.089 1.798.19 2.797.19s1.955-.101 2.798-.19c1.483-.156 2.767-.293 3.341.225.442.398.667 1.317.667 2.73 0 4.305-5.142 8.106-6.806 9.224-1.666-1.115-6.805-4.908-6.805-9.224-.001-1.413.224-2.332.666-2.73z" fill="#3a2c60"/></svg>