<svg id="Layer_1" enable-background="new 0 0 128 128" height="512" viewBox="0 0 128 128" width="512" xmlns="http://www.w3.org/2000/svg"><path d="m116.809 90.214h-1.303c.088-.051.175-.103.261-.157 1.248-.794 1.979-1.964 2.062-3.295.095-1.539-.688-3.149-2.09-4.306-.426-.352-.898-.651-1.405-.892-1.554-.732-3.219-.949-4.83-1.159-.479-.063-.959-.125-1.433-.201-6.897-1.111-13.218-5.634-16.493-11.803-1.015-1.912-1.275-5.81-1.578-10.323-.323-4.827-.726-10.834-2.207-16.718-.135-.536-.805-2.85-.979-3.373-.752-2.268-1.667-4.397-2.719-6.33-.263-.485-1.638-2.711-1.954-3.163-5.065-7.237-12.963-11.958-23.474-14.031-.324-.063-.662.038-.897.271-.236.234-.34.569-.278.896 1.453 7.687-4.252 10.463-10.634 12.318-1.618.47-3.162 1.076-4.639 1.784-2.498-1.504-14.177-7.741-24.182.282-9.792 7.851-8.43 25.33-8.366 26.07.034.406.313.752.704.871.096.029.194.044.292.044.298 0 .586-.134.779-.373.028-.035 1.071-1.306 2.692-2.676.476 3.168 1.732 5.756 3.765 7.708 1.713 1.646 3.711 2.585 5.497 3.125.09 15.945 8.294 30.894 21.451 38.308 4.164 2.346 8.452 3.786 12.734 4.542.071.146.166.281.304.381l10.174 7.338c1.112.802 2.397 1.204 3.686 1.204 1.228 0 2.457-.366 3.538-1.099 2.217-1.502 3.229-4.15 2.58-6.748-.018-.072-.043-.142-.076-.207l-.756-1.503c5.2-1.12 10.039-2.838 14.21-4.661 2.173-.95 4.358-2.02 6.673-3.267 4.442.322 12.542.773 18.98.359l.299-.021c2.882-.227 4.304-2.563 4.218-4.755-.087-2.206-1.696-4.44-4.606-4.44z" fill="#e6e7e8"/><path d="m22.506 46.766-.275.349c-3.961-2.952-8.215-1.247-11.273.922.437 8.239 5.687 11.045 9.465 11.988.017-1.499.081-3 .245-4.497.42-3.848 2.108-9.615 1.838-8.762z" fill="#0089ef"/><path d="m22.506 46.766c1.511-4.764 3.843-9.262 7.043-13.113 2.406-2.896 5.345-5.135 8.578-6.763l.02-.025s-12.72-8.701-23.483-.071c-9.489 7.608-7.995 25.205-7.995 25.205s8.282-10.311 15.564-4.884z" fill="#0089ef"/><path d="m112.809 87.214h-7.431c2.047-.76 4.294-1.008 5.852-2.001 2.433-1.55 1.865-4.343-.129-5.987-.356-.293-.757-.55-1.195-.757-1.855-.875-3.969-.952-5.995-1.278-7.221-1.162-13.786-5.861-17.216-12.321-4.518-8.51 5.009-46.081-32.221-53.426 1.707 9.029-5.756 11.841-11.338 13.464-5.205 1.513-9.986 4.407-13.589 8.744-5.115 6.156-8.015 13.966-8.881 21.875-1.842 16.827 5.664 34.233 20.675 42.692 14.261 8.036 31.12 5.49 45.502-.798 2.343-1.024 4.62-2.158 6.854-3.369 4.592.339 12.69.793 19.138.38.096-.006.19-.013.283-.02 4.594-.361 4.298-7.198-.309-7.198z" fill="#fa759e"/><path d="m42.559 29.177h-8.206c-1.754 1.271-3.375 2.755-4.805 4.476-5.115 6.156-8.015 13.966-8.881 21.875-.159 1.454-.223 2.912-.244 4.369h22.136c8.483 0 15.36-6.877 15.36-15.36s-6.877-15.36-15.36-15.36z" fill="#ffd7e5"/><circle cx="44.206" cy="46.725" fill="#fff" r="10.269"/><path d="m54.475 103.202 10.173 7.338c4.011 2.893 9.449-.792 8.249-5.589l-1.406-2.797c-5.045 1.248-10.83 1.435-17.016 1.048z" fill="#0089ef"/><path d="m55.294 61.522c-7.797 5.76-8.576 18.694-4.679 25.978 5.41 10.113 15.329 11.98 25.875 11 6.791-.631 14.587-3.895 21.769-6.795 2.388-.964 1.963-4.482-.587-4.848-7.47-1.072-14.814-4.028-20.847-11.57-4.764-5.955-6.589-12.207-11.735-14.485-3.703-1.638-7.112-1.262-9.796.72z" fill="#fff"/><path d="m58.294 60.522c-7.797 5.76-8.576 18.694-4.679 25.978 5.41 10.113 15.329 11.98 25.875 11 6.791-.631 14.587-3.895 21.769-6.795 2.388-.964 1.963-4.482-.587-4.848-7.47-1.072-14.814-4.028-20.847-11.57-4.764-5.955-6.589-12.207-11.735-14.485-3.703-1.638-7.112-1.262-9.796.72z" fill="#6dc9f7"/><g fill="#3a2c60"><path d="m78.34 28.612c.995 1.829 1.861 3.85 2.576 6.004.14.42.53.686.949.686.104 0 .21-.017.314-.051.524-.174.809-.74.635-1.264-.752-2.268-1.667-4.397-2.719-6.33-.263-.485-.871-.667-1.355-.4-.485.264-.665.871-.4 1.355z"/><path d="m112.809 86.214h-1.302c.088-.051.175-.103.261-.157 1.248-.794 1.979-1.964 2.062-3.295.095-1.539-.688-3.149-2.09-4.306-.427-.353-.899-.652-1.406-.892-1.555-.733-3.22-.95-4.83-1.159-.479-.063-.959-.125-1.433-.201-6.897-1.111-13.217-5.634-16.492-11.803-1.015-1.912-1.275-5.81-1.578-10.323-.323-4.827-.726-10.834-2.207-16.718-.135-.536-.678-.858-1.214-.726-.535.135-.86.679-.726 1.214 1.438 5.709 1.816 11.369 2.151 16.363.33 4.938.592 8.837 1.808 11.127 3.563 6.712 10.437 11.631 17.939 12.84.494.079.993.145 1.493.21 1.524.198 2.964.386 4.234.984.355.168.688.378.986.625.897.74 1.422 1.752 1.367 2.642-.043.693-.426 1.275-1.14 1.729-.838.534-1.989.841-3.209 1.166-.804.215-1.635.437-2.455.741-.453.169-.722.638-.636 1.114s.5.823.984.823h7.431c1.732 0 2.558 1.266 2.606 2.52.049 1.238-.667 2.548-2.38 2.683l-.262.019c-5.074.325-11.22.102-15.722-.163.175-.071.351-.141.526-.212l1.056-.427c1.497-.604 2.372-2.089 2.177-3.695-.194-1.607-1.398-2.841-2.996-3.07-8.665-1.242-15.086-4.803-20.207-11.205-1.635-2.043-2.904-4.104-4.132-6.097-2.338-3.796-4.356-7.074-7.98-8.677-3.897-1.728-7.732-1.432-10.794.829-8.019 5.924-9.235 19.274-4.967 27.254 4.217 7.883 11.491 11.752 22.163 11.752 1.495 0 3.058-.076 4.687-.228 1.18-.11 2.388-.316 3.607-.562-2.652.902-5.47 1.692-8.398 2.28-.171-.055-.355-.076-.542-.031-1.572.389-3.273.677-5.1.875-7.944.771-16.387-.242-24.317-4.71-13.936-7.852-22.042-24.615-20.171-41.71.901-8.233 3.896-15.614 8.657-21.346 3.307-3.979 7.836-6.893 13.098-8.423 3.998-1.162 13.104-3.81 12.247-13.151 9.41 2.11 16.236 6.347 20.839 12.924.316.453.939.563 1.393.246.452-.316.563-.94.246-1.393-5.064-7.237-12.962-11.958-23.473-14.031-.325-.063-.663.038-.897.271-.236.234-.34.569-.278.896 1.453 7.686-4.253 10.463-10.635 12.318-1.617.47-3.162 1.076-4.639 1.784-2.497-1.503-14.177-7.742-24.182.282-9.791 7.851-8.429 25.33-8.365 26.07.034.407.313.752.704.871.097.03.194.044.292.044.298 0 .587-.134.779-.374.028-.035 1.072-1.311 2.696-2.684 1.066 7.077 5.842 9.799 9.258 10.837.088 15.947 8.292 30.898 21.45 38.313 4.164 2.347 8.453 3.786 12.735 4.542.071.146.166.281.304.381l10.174 7.337c1.111.803 2.397 1.205 3.686 1.205 1.228 0 2.456-.365 3.538-1.099 2.217-1.502 3.229-4.151 2.579-6.749-.018-.071-.043-.141-.076-.206l-.756-1.503c5.201-1.121 10.04-2.838 14.211-4.661 2.168-.947 4.354-2.018 6.673-3.267 4.442.321 12.544.773 18.98.359l.299-.021c2.882-.227 4.303-2.563 4.217-4.754-.088-2.207-1.697-4.441-4.606-4.441zm-105.223-36.7c-.011-4.97.768-16.38 7.702-21.939 3.386-2.715 6.966-3.625 10.244-3.625 4.573 0 8.559 1.771 10.604 2.881-.049.028-.093.062-.142.091-.575.339-1.135.696-1.681 1.073-.15.102-.298.206-.445.311-.462.332-.911.678-1.35 1.037-.178.145-.359.287-.534.436-.411.353-.806.722-1.195 1.098-.163.157-.333.307-.491.468-.528.537-1.038 1.092-1.52 1.671-.559.673-1.088 1.375-1.601 2.091-.104.145-.208.288-.31.434-.471.678-.922 1.374-1.352 2.089-.119.198-.233.4-.349.601-.347.601-.681 1.213-.998 1.838-.152.298-.299.598-.444.901-.265.554-.518 1.118-.76 1.689-.149.351-.296.703-.437 1.06-.249.637-.488 1.281-.71 1.938-5.147-2.916-10.817.531-14.231 3.857zm4.4-.962c2.64-1.75 6.06-2.967 9.23-.917-.259.906-.492 1.824-.696 2.757-.079.35-.154.702-.224 1.055-.083.425-.166.85-.238 1.281-.152.89-.286 1.786-.385 2.691-.119 1.091-.199 2.182-.241 3.269-3.393-1.177-6.923-3.914-7.446-10.136zm64.411 48.952c-12.537 1.162-20.453-2.162-24.9-10.476-3.805-7.112-2.716-19.451 4.391-24.701 2.495-1.843 5.537-2.052 8.798-.61 3.055 1.353 4.923 4.386 7.086 7.897 1.201 1.949 2.562 4.159 4.272 6.298 5.384 6.729 12.412 10.634 21.485 11.936.852.122 1.228.767 1.295 1.33.068.563-.143 1.278-.939 1.601l-1.058.427c-2.554 1.034-5.14 2.078-7.703 3.018-21.019-.695-27.377-20.025-27.639-20.855-.166-.527-.729-.816-1.254-.653-.526.165-.819.726-.654 1.253.063.201 6.074 18.597 24.949 21.801-2.803.852-5.54 1.494-8.129 1.734zm-4.446 7.793c.479 2.102-.601 3.701-1.786 4.504-1.204.817-3.133 1.227-4.932-.072l-7.455-5.377c3.226.091 6.142-.017 8.795-.319 1.496-.152 2.972-.368 4.425-.631z"/><path d="m39.798 44.681c-.317 2.435 1.4 4.666 3.835 4.983s4.666-1.4 4.983-3.835-1.4-4.666-3.835-4.983-4.666 1.4-4.983 3.835z"/></g></svg>