<svg id="Layer_1" enable-background="new 0 0 128 128" height="512" viewBox="0 0 128 128" width="512" xmlns="http://www.w3.org/2000/svg"><path d="m126.9 57.415c-.751-4.262-3.118-7.976-6.663-10.459-3.546-2.482-7.846-3.438-12.107-2.684-.412.073-.898.204-1.422.365.401-.373.759-.729 1.027-1.049 4.925-5.87 5.048-14.482.292-20.476-.336-.423-.953-.495-1.375-.158-.014.011-.019.027-.032.038-.255-.282-.522-.555-.801-.821.012-.013.029-.017.04-.031.348-.414.293-1.032-.121-1.379-1.669-1.402-3.563-2.435-5.628-3.072-.516-.165-1.065.129-1.224.646-.005.016-.001.032-.005.049-.503-.121-1.01-.217-1.52-.285.002-.016.011-.029.013-.046.038-.539-.369-1.007-.908-1.045-5.165-.359-10.231 1.789-13.554 5.749-.269.32-.557.733-.854 1.193.068-.543.113-1.046.113-1.464 0-8.934-7.268-16.202-16.202-16.202s-16.202 7.268-16.202 16.202c0 .418.045.921.113 1.465-.298-.46-.586-.874-.855-1.194-5.743-6.845-15.983-7.741-22.826-1.997-6.844 5.742-7.74 15.982-1.997 22.826.269.32.626.676 1.028 1.05-.524-.161-1.011-.293-1.423-.365-8.798-1.552-17.218 4.346-18.77 13.142-.751 4.262.202 8.562 2.684 12.107 2.483 3.545 6.197 5.911 10.459 6.662.413.073.905.119 1.453.147-.501.212-.956.423-1.316.631-3.748 2.164-6.429 5.658-7.549 9.838-1.12 4.181-.545 8.547 1.619 12.294 2.998 5.192 8.455 8.098 14.059 8.098 2.747 0 5.529-.698 8.073-2.167 2.318-1.338 6.269-5.3 10.627-10.139 2.506 3.098 6.115 5.435 10.553 6.823-.076.474-.114.961-.114 1.455 0 2.241.75 3.653 1.758 4.455v12.519c-2.316.293-4.015 1.612-4.015 3.242 0 2.27 2.653 2.27 4.994 2.27s4.994 0 4.994-2.27c0-.509-.169-1.013-.489-1.459-.117-.162-.155-.373-.115-.622.02-.121.03-.245.03-.372v-13.669c.802-.84 1.362-2.158 1.362-4.094 0-.027 0-.054 0-.081.593.022 1.127.025 1.668.012v.086c0 1.834.504 3.109 1.239 3.954v13.792c0 .124.01.246.029.369.041.252.002.463-.114.624-.32.445-.489.95-.489 1.46 0 2.27 2.653 2.27 4.994 2.27 2.34 0 4.993 0 4.993-2.27 0-1.63-1.698-2.949-4.014-3.242v-12.411c1.069-.783 1.88-2.215 1.88-4.546 0-.459-.033-.912-.097-1.353 4.13-1.227 7.595-3.283 10.131-6.008.48.458.966.55 1.278.55.572 0 1.196-.318 1.769-.847 4.126 4.545 7.835 8.223 10.049 9.501 2.545 1.469 5.326 2.167 8.073 2.167 5.604 0 11.061-2.906 14.059-8.098 2.163-3.748 2.738-8.115 1.618-12.294-1.12-4.181-3.801-7.675-7.549-9.838-.36-.208-.815-.419-1.316-.631.548-.028 1.041-.074 1.453-.147 4.262-.751 7.976-3.118 10.458-6.662s3.436-7.843 2.684-12.104z" fill="#e6e7e8"/><path d="m62.053 3.35c-8.408 0-15.223 6.816-15.223 15.223s15.223 45.67 15.223 45.67 15.223-37.262 15.223-45.67-6.816-15.223-15.223-15.223z" fill="#fa759e"/><path d="m71.846 19.013c.146-.682.228-1.388.228-2.113 0-5.034-3.715-9.188-8.551-9.901v4.701c3.897.79 7.048 3.614 8.323 7.313z" fill="#ffd7e5"/><path d="m59.057 11.7v-4.365c-3.907 1.222-6.778 4.774-7.003 9.028 1.611-2.362 4.102-4.075 7.003-4.663z" fill="#ffd7e5"/><path d="m61.56 4.209h-.54c-1.079 0-1.963.883-1.963 1.963v9.669c0 1.079.883 1.963 1.963 1.963h.54c1.08 0 1.963-.883 1.963-1.963v-9.67c-.001-1.079-.884-1.962-1.963-1.962z" fill="#0089ef"/><path d="m69.686 15.294c-.644-3.062-3.083-5.468-6.164-6.058v2.464c2.44.495 4.584 1.791 6.164 3.594z" fill="#d4fbff"/><path d="m59.057 11.7v-2.008c-1.703.711-3.093 2.014-3.935 3.644 1.175-.78 2.505-1.346 3.935-1.636z" fill="#d4fbff"/><path d="m44.359 19.473c-5.404-6.44-15.006-7.281-21.447-1.876s-7.281 15.006-1.876 21.447c5.404 6.441 41.017 25.2 41.017 25.2s-12.29-38.331-17.694-44.771z" fill="#fa759e"/><ellipse cx="31.621" cy="27.975" fill="#ffd7e5" rx="10.021" ry="10.021" transform="matrix(.051 -.999 .999 .051 2.057 58.116)"/><path d="m37.601 22.958c-2.767-3.298-7.701-3.729-10.998-.962s-3.729 7.7-.962 10.998c2.767 3.297 7.7 3.729 10.998.962 3.297-2.767 3.729-7.701.962-10.998z" fill="#d4fbff"/><path d="m35.905 24.381c-1.982-2.362-5.516-2.671-7.879-.689-2.362 1.982-2.671 5.516-.689 7.878s5.516 2.671 7.878.689c2.363-1.982 2.672-5.516.69-7.878z" fill="#0089ef"/><path d="m19.72 41.32c-8.28-1.46-16.175 4.069-17.635 12.348s4.069 16.176 12.348 17.635c8.28 1.46 47.619-7.062 47.619-7.062s-34.052-21.461-42.332-22.921z" fill="#fa759e"/><path d="m17.169 46.153c-5.45-.961-10.647 2.678-11.609 8.128-.961 5.45 2.678 10.647 8.128 11.608s10.647-2.678 11.608-8.128c.962-5.449-2.677-10.647-8.127-11.608z" fill="#ffd7e5"/><path d="m16.784 48.334c-4.239-.748-8.296 2.093-9.044 6.332-.747 4.239 2.093 8.296 6.333 9.043 4.239.747 8.296-2.093 9.043-6.332.748-4.239-2.093-8.296-6.332-9.043z" fill="#d4fbff"/><path d="m16.4 50.515c-3.037-.535-5.943 1.499-6.479 4.536-.535 3.036 1.5 5.943 4.536 6.478 3.037.535 5.943-1.5 6.478-4.536.536-3.037-1.499-5.943-4.535-6.478z" fill="#0089ef"/><path d="m14.89 73.894c7.281-4.204 47.163-9.651 47.163-9.651s-24.658 31.815-31.939 36.018-16.592 1.709-20.795-5.572c-4.205-7.281-1.71-16.591 5.571-20.795z" fill="#fa759e"/><path d="m29.73 82.904c-2.767-4.793-8.896-6.435-13.688-3.668s-6.435 8.896-3.668 13.688c2.767 4.793 8.896 6.435 13.688 3.668 4.793-2.766 6.435-8.895 3.668-13.688z" fill="#ffd7e5"/><path d="m27.813 84.011c-2.152-3.728-6.936-5.01-10.664-2.857-3.728 2.152-5.01 6.936-2.858 10.664s6.936 5.009 10.664 2.857 5.01-6.936 2.858-10.664z" fill="#d4fbff"/><path d="m25.895 85.119c-1.542-2.67-4.968-3.589-7.639-2.047-2.67 1.542-3.589 4.969-2.047 7.639s4.969 3.588 7.639 2.047c2.671-1.543 3.589-4.969 2.047-7.639z" fill="#0089ef"/><path d="m109.215 73.894c-7.281-4.204-47.163-9.651-47.163-9.651s24.658 31.815 31.939 36.019 16.591 1.709 20.795-5.572c4.205-7.282 1.711-16.592-5.571-20.796z" fill="#fa759e"/><path d="m108.064 79.236c-4.793-2.767-10.921-1.125-13.688 3.668s-1.125 10.921 3.668 13.688 10.921 1.125 13.688-3.668c2.767-4.792 1.125-10.92-3.668-13.688z" fill="#ffd7e5"/><path d="m106.956 81.154c-3.728-2.152-8.511-.87-10.663 2.857-2.152 3.728-.87 8.512 2.857 10.664 3.728 2.152 8.512.871 10.664-2.857s.871-8.511-2.858-10.664z" fill="#d4fbff"/><path d="m105.849 83.072c-2.67-1.542-6.097-.623-7.639 2.047s-.624 6.097 2.047 7.639c2.67 1.542 6.098.624 7.639-2.047 1.542-2.67.624-6.098-2.047-7.639z" fill="#0089ef"/><path d="m122.02 53.669c-1.46-8.28-9.356-13.808-17.635-12.348-8.28 1.46-42.332 22.922-42.332 22.922s39.339 8.521 47.619 7.062c8.28-1.461 13.808-9.356 12.348-17.636z" fill="#fa759e"/><path d="m118.545 54.282c-.961-5.45-6.158-9.089-11.608-8.128s-9.089 6.158-8.128 11.609 6.158 9.089 11.609 8.128c5.449-.962 9.089-6.159 8.127-11.609z" fill="#ffd7e5"/><path d="m116.365 54.666c-.747-4.239-4.804-7.08-9.044-6.332-4.239.747-7.08 4.804-6.332 9.043.747 4.239 4.804 7.08 9.043 6.333 4.24-.748 7.081-4.805 6.333-9.044z" fill="#d4fbff"/><path d="m103.17 56.993c-.535-3.036 1.499-5.943 4.536-6.478s5.943 1.499 6.479 4.536c.535 3.037-1.5 5.943-4.536 6.478-3.038.535-5.944-1.5-6.479-4.536z" fill="#0089ef"/><path d="m101.194 17.596c-6.441-5.404-16.043-4.564-21.447 1.876-5.404 6.441-17.694 44.77-17.694 44.77s35.613-18.759 41.018-25.2c5.404-6.439 4.563-16.041-1.877-21.446z" fill="#fa759e"/><ellipse cx="92.485" cy="27.975" fill="#ffd7e5" rx="10.021" ry="10.021" transform="matrix(.996 -.087 .087 .996 -2.086 8.167)"/><path d="m97.503 21.995c-3.297-2.767-8.231-2.335-10.998.963-2.767 3.297-2.335 8.231.962 10.998s8.231 2.335 10.998-.962c2.767-3.298 2.335-8.232-.962-10.999z" fill="#d4fbff"/><path d="m96.079 23.692c-2.362-1.982-5.896-1.672-7.878.69s-1.673 5.896.689 7.878 5.896 1.673 7.878-.689 1.673-5.898-.689-7.879z" fill="#0089ef"/><path d="m67.513 117.141c-.005 0-.01 0-.015 0 .004-.043.015-.085.015-.129v-13.751c-.426.22-.897.342-1.4.342-.776 0-1.48-.278-2.041-.805v14.214c0 .072.006.143.017.212.076.473.003.951-.285 1.352-.196.273-.305.573-.305.888 0 1.283 1.797 1.291 4.015 1.291s4.015-.007 4.015-1.291-1.799-2.323-4.016-2.323z" fill="#ffd7e5"/><path d="m57.83 117.225c.011-.069.017-.14.017-.212v-14.113c-.54.452-1.2.686-1.918.686-.553 0-1.066-.149-1.523-.416v13.843c0 .044.01.086.015.129-.005 0-.01 0-.015 0-2.217 0-4.015 1.04-4.015 2.323s1.797 1.291 4.015 1.291 4.015-.007 4.015-1.291c0-.315-.109-.615-.305-.888-.289-.402-.362-.88-.286-1.352z" fill="#ffd7e5"/><path d="m86.463 75.546c-.998-1.718-2.794-2.794-3.969-3.043-2.264-5.182-6.812-9.334-12.532-11.463l-2.784-28.909c-1.711 1.065-3.724 1.69-5.888 1.69s-4.177-.625-5.888-1.69l-2.779 28.858c-5.795 2.117-10.403 6.309-12.679 11.547-1.174.302-2.868 1.361-3.826 3.01-1.164 2.003-.844 4.189-.142 4.885-.839 2.029-.32 4.053.46 4.373.502.206 1.303-.219 2.139-1.046-.121.612-.19 1.302-.19 2.036 0 2.492.784 4.511 1.751 4.511.411 0 .787-.366 1.086-.976 2.568 3.73 6.714 6.396 11.709 7.783-.18.654-.282 1.375-.282 2.136 0 2.914 1.469 4.337 3.28 4.337 1.812 0 3.28-1.423 3.28-4.337 0-.382-.027-.754-.075-1.113.69.043 1.385.073 2.092.073.566 0 1.125-.017 1.68-.045-.047.356-.073.725-.073 1.103 0 2.914 1.469 4.337 3.28 4.337 1.812 0 3.28-1.423 3.28-4.337 0-.727-.092-1.42-.257-2.051 4.719-1.239 8.707-3.604 11.369-6.92.311.731.724 1.181 1.178 1.181.967 0 2.754-2.02 2.754-4.511 0-1.118-.361-2.139-.845-2.927.06-.25.111-.504.16-.759.992 1.135 1.997 1.767 2.589 1.524.799-.328 1.326-2.448.393-4.528.608-.826.816-2.857-.271-4.729z" fill="#0089ef"/><path d="m63.522 11.7v4.14c0 1.079-.883 1.963-1.963 1.963h-.54c-1.079 0-1.963-.883-1.963-1.963v-4.14c-5.101 1.034-8.94 5.543-8.94 10.949 0 4.987 3.269 9.208 7.78 10.645l-1.258-4.805c-.104-.396.195-.784.605-.784 0 0 3.035-.94 4.046-.94 1.012 0 4.046.94 4.046.94.41 0 .709.388.605.784l-1.258 4.805c4.511-1.437 7.78-5.657 7.78-10.645.001-5.406-3.839-9.915-8.94-10.949z" fill="#6dc9f7"/><path d="m66.87 13.192c-1.388-.704-2.486-1.174-3.348-1.499v4.147c0 1.079-.883 1.963-1.963 1.963h-.54c-1.079 0-1.963-.883-1.963-1.963v-4.147c-.861.324-1.96.794-3.348 1.499-.889.452-1.239 1.549-.775 2.431 1.272 2.421 3.531 7.137 3.72 10.417.025.438.203.829.475 1.131.822-.212 1.701-.407 2.161-.407s1.34.195 2.161.407c.271-.303.449-.694.474-1.131.189-3.28 2.448-7.996 3.72-10.417.465-.882.115-1.979-.774-2.431z" fill="#0089ef"/><path d="m61.56 4.209h-.54c-1.079 0-1.963.883-1.963 1.963v9.669c0 1.079.883 1.963 1.963 1.963h.54c1.08 0 1.963-.883 1.963-1.963v-9.67c-.001-1.079-.884-1.962-1.963-1.962z" fill="#0089ef"/><path d="m57.244 27.704s3.035-.94 4.046-.94c1.012 0 4.046.94 4.046.94.41 0 .709.388.605.784l-4.046 15.45c-.163.623-1.047.623-1.211 0l-4.046-15.45c-.104-.396.196-.784.606-.784z" fill="#fff"/><path d="m57.18 30.641s3.035-.94 4.046-.94 4.046.94 4.046.94c.41 0 .709.388.605.784l-4.046 15.45c-.163.623-1.047.623-1.211 0l-4.046-15.45c-.103-.396.196-.784.606-.784z" fill="#ffd7e5"/><g fill="#3a2c60"><path d="m123.005 53.495c-.752-4.268-3.122-7.986-6.671-10.473-3.549-2.485-7.854-3.438-12.123-2.687-.386.068-.84.19-1.326.336.375-.352.696-.683.951-.987 4.898-5.837 5.11-14.15.515-20.215-.333-.44-.96-.527-1.401-.193-.44.333-.526.961-.193 1.4 4.028 5.317 3.841 12.604-.453 17.723-3.524 4.2-20.702 14.027-31.59 20.021l-1.239-12.863c3.788-10.57 8.34-22.23 11.038-25.444 2.917-3.477 7.363-5.37 11.899-5.046.557.028 1.029-.378 1.067-.929.039-.551-.377-1.028-.928-1.067-5.174-.349-10.244 1.791-13.571 5.757-.255.304-.528.695-.81 1.125.062-.511.105-.986.105-1.382 0-8.945-7.278-16.224-16.223-16.224s-16.222 7.281-16.222 16.226c0 .394.042.867.104 1.376-.282-.43-.554-.815-.809-1.119-2.786-3.319-6.697-5.356-11.014-5.733-4.319-.379-8.522.947-11.842 3.733-3.32 2.785-5.356 6.696-5.733 11.014-.378 4.317.948 8.522 3.733 11.842.253.301.586.634.957.982-.492-.148-.941-.263-1.331-.332-4.27-.752-8.573.201-12.123 2.687s-5.919 6.205-6.672 10.473.202 8.572 2.688 12.122 6.205 5.919 10.472 6.671c.388.068.844.114 1.352.143-.467.2-.881.399-1.221.596-7.748 4.473-10.412 14.415-5.939 22.162 2.167 3.753 5.666 6.438 9.851 7.559 1.397.374 2.815.56 4.225.56 2.811 0 5.586-.737 8.086-2.181 2.316-1.337 6.263-5.295 10.615-10.126 2.505 3.089 6.106 5.42 10.531 6.807-.074.471-.111.952-.111 1.44 0 2.243.749 3.66 1.758 4.466v12.49c-2.317.299-4.015 1.624-4.015 3.26 0 2.29 2.664 2.29 5.015 2.29 2.35 0 5.014 0 5.014-2.29 0-.515-.17-1.023-.492-1.472-.113-.157-.15-.363-.111-.608.02-.122.03-.246.03-.373v-13.661c.803-.844 1.362-2.164 1.362-4.102 0-.02 0-.039 0-.06.573.021 1.096.022 1.624.013v.064c0 1.836.504 3.115 1.239 3.962v13.783c0 .127.01.251.03.371.04.247.002.453-.111.61-.322.449-.493.958-.493 1.472 0 2.29 2.664 2.29 5.015 2.29s5.015 0 5.015-2.29c0-1.636-1.698-2.961-4.015-3.26v-12.381c1.07-.788 1.881-2.224 1.881-4.557 0-.454-.032-.901-.095-1.338 4.118-1.227 7.574-3.276 10.108-5.992.481.45.965.541 1.277.541.571 0 1.194-.314 1.767-.84 4.123 4.541 7.827 8.211 10.04 9.489 2.5 1.443 5.274 2.181 8.086 2.181 1.409 0 2.828-.186 4.225-.56 4.186-1.121 7.684-3.806 9.851-7.559 4.472-7.747 1.809-17.688-5.938-22.162-.34-.196-.767-.396-1.234-.596.513-.029.974-.075 1.365-.144 4.268-.752 7.986-3.121 10.472-6.671 2.484-3.547 3.439-7.852 2.686-12.12zm-46.729-34.922c0 1.76-.71 4.875-1.815 8.667-1.757 3.991-3.643 8.829-5.432 13.677l-.799-8.297c3.157-2.198 5.233-5.841 5.233-9.973 0-5.592-3.794-10.306-8.94-11.726v-4.75c0-.621-.193-1.196-.521-1.673 6.921.956 12.274 6.895 12.274 14.075zm-18.572 10.037c1.207-.367 3.02-.846 3.586-.846s2.378.479 3.586.846l-3.586 13.693zm8.919-1.273c-.273-.354-.668-.574-1.104-.623-.725-.222-3.186-.95-4.229-.95s-3.505.729-4.229.95c-.436.049-.831.27-1.104.622-.31.401-.415.914-.286 1.405l.737 2.814c-3.148-1.73-5.291-5.067-5.291-8.907 0-4.478 2.913-8.278 6.94-9.632v2.823c0 1.634 1.329 2.963 2.963 2.963h.54c1.634 0 2.963-1.329 2.963-2.963v-2.824c4.027 1.354 6.94 5.154 6.94 9.632 0 3.839-2.143 7.177-5.291 8.907l.737-2.813c.129-.49.025-1.002-.286-1.404zm-4.101-21.165v9.668c0 .531-.432.963-.963.963h-.54c-.531 0-.963-.432-.963-.963v-9.668c0-.531.432-.963.963-.963h.54c.531 0 .963.432.963.963zm-14.692 12.401c0-6.573 4.487-12.103 10.555-13.727-.202.401-.327.847-.327 1.325v4.751c-5.147 1.42-8.94 6.134-8.94 11.726 0 4.131 2.076 7.775 5.233 9.972l-.487 5.053c-1.414-3.729-2.856-7.34-4.219-10.438-1.106-3.788-1.815-6.903-1.815-8.662zm-26.029 19.828c-5.042-6.008-4.255-14.997 1.753-20.039 2.585-2.169 5.783-3.328 9.118-3.328.419 0 .841.019 1.265.056 3.785.331 7.214 2.116 9.656 5.026 2.416 2.879 6.321 12.537 9.832 22.117l-1.413 14.674c-7.028-4.226-16.211-9.568-23.27-13.046-3.277-2.191-5.812-4.115-6.941-5.46zm-7.194 31.918c-3.742-.66-7.002-2.737-9.182-5.85-2.178-3.11-3.015-6.885-2.355-10.626.66-3.742 2.737-7.003 5.849-9.182 2.418-1.693 5.236-2.576 8.128-2.576.83 0 1.666.073 2.5.22 5.254.927 21.576 10.38 32.251 16.815l-.111 1.156c-3.383 1.334-6.351 3.373-8.7 5.892-6.643 1.127-13.845 2.477-19.508 3.862-3.935.432-7.137.593-8.872.289zm15.006 29.076c-3.29 1.9-7.123 2.404-10.793 1.422-3.669-.983-6.737-3.337-8.636-6.627-3.921-6.792-1.586-15.508 5.206-19.43 3.493-2.017 14.969-4.366 25.684-6.228-.709 1.012-1.344 2.07-1.859 3.185-1.347.488-2.981 1.638-3.962 3.327-1.149 1.978-1.116 4.249-.396 5.539-.499 1.562-.327 2.988.033 3.854.267.642.67 1.089 1.167 1.292.324.135.766.195 1.329.015v.051c0 1.921.454 3.942 1.419 4.916-3.826 4.198-7.204 7.536-9.192 8.684zm24.793 20.36c-1.023 0-2.737 0-3.015-.29 0-.526 1.202-1.323 3.029-1.323.283 0 .548-.134.737-.344.19-.21.277-.505.248-.786v-12.464c.175.022.35.037.522.037.301 0 .61-.037.917-.106l-.003 12.588c-.125.776.035 1.5.46 2.093.079.11.117.21.137.301-.296.294-2.009.294-3.032.294zm12.112-2.821c-.002.013-.013.094-.014.106-.029.281.063.562.252.771s.459.33.742.33h.015c1.813 0 3.015.797 3.035 1.318-.298.295-2.011.295-3.035.295s-2.737 0-3.015-.29c0-.096.039-.195.118-.306.426-.593.585-1.316.456-2.147v-12.543c.348.09.7.135 1.042.135.132 0 .266-.008.401-.021zm15.231-26.479c-.072-.078-.193-.246-.322-.551-.138-.323-.435-.551-.784-.599-.347-.049-.696.09-.917.364-2.483 3.094-6.233 5.369-10.843 6.579-.534.14-.853.686-.713 1.22.148.569.224 1.174.224 1.798 0 2.09-.853 3.337-2.28 3.337-1.428 0-2.281-1.247-2.281-3.337 0-.322.021-.649.064-.972.039-.295-.055-.591-.256-.81-.19-.206-.457-.322-.735-.322-.017 0-.034 0-.051.001-1.211.062-2.454.049-3.659-.026-.293-.01-.589.098-.793.316-.204.219-.299.518-.26.813.044.329.066.659.066.981 0 2.089-.853 3.336-2.281 3.336s-2.28-1.247-2.28-3.336c0-.649.083-1.278.246-1.871.147-.531-.165-1.081-.696-1.229-4.907-1.363-8.764-3.917-11.152-7.387-.202-.292-.548-.463-.897-.43-.354.025-.668.238-.825.557-.072.146-.138.251-.192.321-.289-.384-.747-1.562-.747-3.416 0-.646.058-1.267.171-1.843.085-.431-.121-.866-.507-1.074-.388-.208-.864-.139-1.176.169-.512.506-.882.714-1.062.782-.224-.366-.506-1.576.089-3.016.155-.375.068-.807-.221-1.093-.337-.334-.649-2.034.303-3.672.77-1.326 2.198-2.283 3.21-2.543.298-.077.545-.287.668-.57 1.962-4.513 5.787-8.216 10.608-10.376l-1.126 7.181c-.085.546.287 1.058.833 1.144.052.008.104.012.156.012.484 0 .91-.352.987-.845l1.292-8.24c.026-.167-.002-.324-.053-.473.03-.08.052-.164.061-.251l2.636-27.372c.263.12.533.227.805.329l2.658 10.149c.19.727.822 1.214 1.573 1.214.75 0 1.382-.487 1.572-1.214l2.658-10.149c.273-.102.542-.208.805-.329l2.641 27.422c.008.087.031.17.06.249-.05.146-.078.302-.054.466l1.287 8.752c.073.497.5.854.988.854.049 0 .098-.003.147-.011.546-.08.924-.588.844-1.135l-1.131-7.696c4.751 2.163 8.525 5.835 10.471 10.288.129.296.394.512.71.578.802.169 2.41 1.016 3.311 2.566.925 1.593.667 3.179.332 3.637-.212.29-.253.672-.106 1 .686 1.529.348 2.868.169 3.154-.234-.075-.786-.415-1.486-1.218-.251-.288-.644-.402-1.014-.308-.369.1-.649.401-.721.776-.046.241-.094.48-.15.716-.062.258-.019.53.12.757.449.731.697 1.585.697 2.403-.001 1.889-1.231 3.282-1.691 3.493zm32.172 3.735c-1.899 3.29-4.966 5.644-8.636 6.627-3.669.983-7.503.479-10.793-1.422-2.096-1.21-5.737-4.854-9.819-9.378.464-.889.766-1.946.766-3.051 0-.445-.046-.863-.124-1.25.509.181.984.188 1.408.013.509-.209.919-.673 1.186-1.341.366-.917.518-2.422-.066-4.04.587-1.282.604-3.377-.516-5.304-1.024-1.763-2.75-2.928-4.115-3.38-.403-.865-.89-1.69-1.412-2.495 6.319 1.141 13.068 2.239 18.532 2.836 3.825.937 6.862 1.877 8.383 2.755 6.792 3.922 9.128 12.638 5.206 19.43zm4.759-29.72c-2.179 3.112-5.44 5.189-9.182 5.85-4.374.769-17.975-1.389-29.467-3.515-2.337-2.704-5.37-4.899-8.854-6.347 7.398-4.062 17.939-10.027 25.189-14.875 3.532-1.741 6.463-2.972 8.193-3.278 3.74-.659 7.515.177 10.627 2.356s5.189 5.439 5.849 9.182c.66 3.741-.177 7.516-2.355 10.627z"/><path d="m95.612 15.665c1.811.56 3.473 1.467 4.939 2.696.187.157.415.234.642.234.285 0 .569-.121.767-.357.355-.423.3-1.054-.124-1.408-1.671-1.403-3.567-2.437-5.635-3.075-.526-.168-1.087.132-1.25.66-.162.528.133 1.088.661 1.25z"/><circle cx="55.257" cy="22.039" r="1.962"/><path d="m69.285 22.039c0-1.084-.879-1.962-1.962-1.962-1.084 0-1.962.879-1.962 1.962 0 1.084.879 1.962 1.962 1.962 1.084 0 1.962-.878 1.962-1.962z"/></g></svg>