<svg id="Layer_1" enable-background="new 0 0 128 128" height="512" viewBox="0 0 128 128" width="512" xmlns="http://www.w3.org/2000/svg"><path d="m113.64 54.051c-1.848-7.529-4.889-14.42-8.865-20.332-8.805-15.256-23.308-25.246-39.69-25.246-11.815 0-23.201 5.251-32.062 14.787-.376.405-3.022 3.541-3.357 3.978-1.061 1.382-2.082 2.848-3.036 4.357-.295.467-2.927 5.175-3.172 5.671-1.758 3.568-3.186 7.344-4.289 11.257-3.786 4.876-15.721 22.091-8.683 37.303.137.295.408.506.729.564.086.016.495.083 1.142.083 1.138 0 3.01-.212 5.134-1.273 1.506 11.497 4.759 19.502 9.938 24.654 1.46 1.453 3.038 2.635 4.713 3.615-1.69 1.805-2.681 3.739-2.681 5.359 0 3.337 3.805 4.007 5.055 4.227 2.708.478 6.304.473 10.491.472h.966.966.958c3.77 0 7.033-.032 9.532-.472 1.096-.193 4.158-.733 4.893-3.115 1.889-.008 3.812-.023 5.763-.023 1.263 0 2.514.013 3.752.032.74 2.375 3.796 2.913 4.891 3.106 2.708.478 6.305.473 10.491.472h.966.966.958c3.77 0 7.033-.032 9.532-.472 1.25-.22 5.055-.89 5.055-4.227 0-1.199-.552-2.569-1.515-3.931 6.014-4.553 10.209-13.006 11.789-28.565.651.105 1.22.141 1.671.141.646 0 1.057-.067 1.142-.083.321-.058.593-.269.729-.564 5.329-11.514-.218-24.183-4.872-31.775z" fill="#e6e7e8"/><path d="m61.086 5.473c-26.28 0-47.584 26.189-47.584 58.496 0 51.759 21.304 48.949 47.584 48.949s47.584 5.61 47.584-48.949c-.001-32.307-21.305-58.496-47.584-58.496z" fill="#fff"/><path d="m61.086 8.473c-26.28 0-47.584 26.189-47.584 58.496 0 51.759 21.304 48.949 47.584 48.949s47.584 5.61 47.584-48.949c-.001-32.307-21.305-58.496-47.584-58.496z" fill="#6dc9f7"/><path d="m73.195 24.04-7.336 3.94c-2.981 1.601-6.566 1.601-9.547 0l-7.336-3.94c-8.691-4.668-19.219 1.628-19.219 11.493v36.766c0 17.302 14.026 31.329 31.329 31.329 17.302 0 31.329-14.026 31.329-31.329v-36.765c0-9.866-10.528-16.162-19.22-11.494z" fill="#fff"/><path d="m73.992 44.564c-1.689-1.462-3.368-.991-4.443-.387-.708.406-1.594.179-2.066-.472-1.066-1.491-2.962-3.67-4.925-3.67-.135 0-.264.015-.396.04-.133-.024-.262-.04-.396-.04-1.962 0-3.858 2.179-4.925 3.67-.472.651-1.358.877-2.066.472-1.075-.604-2.755-1.076-4.443.387-.321.274-.509.679-.509 1.104 0 .83.651 1.698 1.396 1.698.123 0 .255-.028.377-.076 2.472-.971 8.604 3.123 10.019 3.123h1.094c1.415 0 7.547-4.094 10.019-3.123.123.047.255.076.377.076.745 0 1.396-.868 1.396-1.698 0-.425-.189-.831-.509-1.104z" fill="#fa759e"/><path d="m20.003 43.845s-17.551 20.393-9.608 37.561c0 0 11.627 2.103 16.403-18.781-.252-9.642-.616-19.093-6.795-18.78z" fill="#6dc9f7"/><path d="m101.998 43.845s17.551 20.393 9.608 37.561c0 0-11.627 2.103-16.403-18.781.251-9.642.616-19.093 6.795-18.78z" fill="#6dc9f7"/><path d="m41.974 104.565c-8.567 0-15.511 6.408-15.511 10.263s6.945 3.698 15.511 3.698c8.567 0 15.511.157 15.511-3.698s-6.945-10.263-15.511-10.263z" fill="#fa759e"/><path d="m84.186 104.565c-8.567 0-15.511 6.408-15.511 10.263s6.945 3.698 15.511 3.698c8.567 0 15.511.157 15.511-3.698s-6.945-10.263-15.511-10.263z" fill="#fa759e"/><g fill="#3a2c60"><path d="m29.812 20.88c.268 0 .535-.107.731-.318 1.635-1.754 3.387-3.385 5.209-4.846.431-.346.5-.975.154-1.406-.344-.43-.974-.5-1.406-.155-1.896 1.521-3.721 3.218-5.42 5.043-.377.404-.354 1.037.05 1.414.193.18.438.268.682.268z"/><circle cx="45.118" cy="34.885" r="3.772"/><circle cx="77.053" cy="34.885" r="3.772"/><path d="m108.625 51.723c-4.624-26.95-24.178-47.25-47.54-47.25-8.24 0-16.38 2.57-23.538 7.432-.457.31-.576.932-.266 1.389s.932.575 1.389.265c6.826-4.636 14.577-7.086 22.415-7.086 20.864 0 38.56 17.021 44.472 40.401-1.495-2.14-2.626-3.475-2.802-3.68-.36-.42-.993-.465-1.41-.105-.419.36-.466.992-.105 1.41.169.197 16.691 19.679 9.689 35.971-2.188.103-10.776-.684-14.751-18.066-.123-.539-.66-.876-1.197-.751-.539.123-.875.659-.752 1.198 2.932 12.822 8.4 17.336 12.461 18.87-1.425 11.331-4.438 19.058-9.22 23.751-.659.646-1.357 1.209-2.073 1.736-2.947-2.094-6.879-3.641-11.212-3.641-7.331 0-13.542 4.408-15.695 8.448-.214-.004-.425-.008-.641-.012-3.33-.063-6.827-.086-10.229-.072-2.194-4.017-8.367-8.365-15.647-8.365-4.877 0-9.248 1.957-12.271 4.453-1.748-.951-3.382-2.111-4.862-3.582-4.764-4.739-7.799-12.164-9.273-22.819 4.033-1.628 9.333-6.216 12.204-18.769.123-.539-.213-1.075-.752-1.198-.538-.125-1.075.213-1.197.751-3.978 17.395-12.564 18.168-14.751 18.067-6.995-16.277 9.521-35.775 9.689-35.972.36-.418.313-1.05-.105-1.41-.419-.36-1.051-.314-1.41.105-.166.193-1.172 1.381-2.532 3.296 2.223-8.63 6.078-16.548 11.412-23.141.348-.429.281-1.059-.148-1.406-.429-.348-1.06-.28-1.406.148-6.592 8.148-11.014 18.234-12.947 29.197-4.469 7.684-9.186 19.628-4.137 30.54.137.295.408.506.729.564.086.016.495.083 1.142.083.587 0 1.37-.057 2.28-.256 1.563 10.948 4.769 18.639 9.792 23.637 1.462 1.454 3.047 2.623 4.726 3.6-1.698 1.809-2.693 3.749-2.693 5.374 0 3.337 3.805 4.007 5.055 4.227 2.708.477 6.304.468 10.49.472h.966.966.958c3.77 0 7.034-.032 9.533-.472 1.25-.22 5.055-.89 5.055-4.227 0-.29-.035-.592-.097-.9 3.127-.009 6.315.015 9.368.072-.052.283-.082.56-.082.828 0 3.337 3.805 4.007 5.055 4.227 2.708.477 6.301.468 10.49.472h.966.966.958c3.77 0 7.034-.032 9.533-.472 1.25-.22 5.055-.89 5.055-4.227 0-1.917-1.38-4.273-3.674-6.335.632-.493 1.254-1.012 1.848-1.595 5.057-4.962 8.246-12.974 9.757-24.627.797.154 1.486.202 2.015.202.646 0 1.056-.067 1.142-.083.321-.058.593-.269.729-.564 4.954-10.71.501-22.41-3.89-30.103zm-55.542 65.362c-2.535.447-6.056.439-10.142.441h-.968-.968c-4.074.005-7.605.006-10.141-.441-3.402-.599-3.402-1.761-3.402-2.257 0-3.089 6.273-9.263 14.511-9.263s14.512 6.174 14.512 9.263c0 .496 0 1.658-3.402 2.257zm45.614-2.257c0 .496 0 1.658-3.402 2.257-2.535.447-6.056.439-10.142.441h-.968-.968c-4.075.005-7.604.006-10.141-.441-3.402-.599-3.402-1.761-3.402-2.257 0-3.089 6.273-9.263 14.511-9.263s14.512 6.174 14.512 9.263z"/></g></svg>