<svg id="Layer_1" enable-background="new 0 0 128 128" height="512" viewBox="0 0 128 128" width="512" xmlns="http://www.w3.org/2000/svg"><path d="m116.822 78.634c-.482-1.786-2.681-2.35-4.523-2.559 2.453-2.502 3.153-4.388 2.142-5.736-.551-.735-2.005-2.672-12.876 3.519-5.134-2.213-9.513-6.203-12.063-11.008-2.321-4.371-3.365-9.227-4.375-13.922-1.065-4.952-2.166-10.072-4.752-14.777-4.843-8.812-14.311-14.702-25.326-15.755-7.656-.731-15.036.949-21.033 4.612h-11.219c-1.812 0-3.473.914-4.442 2.444-.97 1.53-1.087 3.422-.313 5.06l3.354 7.104c-.083.172-.155.352-.236.526-.145.311-.285.626-.424.942-4.128 9.405-3.983 18.386-3.268 28.335.002.034-.009.066-.003.1 2.209 12.532 8.905 23.27 18.589 30.081.357.253.717.501 1.082.742.213.14.425.279.641.415.603.383 1.213.756 1.837 1.107 1.343.757 2.698 1.425 4.061 2.012 3.163 1.362 6.37 2.284 9.575 2.847.07.158.171.304.319.411l10.882 7.85c1.177.849 2.539 1.275 3.902 1.275 1.299 0 2.601-.387 3.746-1.163 2.347-1.59 3.419-4.395 2.731-7.145-.018-.071-.043-.141-.077-.207l-.849-1.688c.649-.139 1.292-.285 1.93-.441.637.026 1.277.043 1.927.043 2.638 0 5.375-.199 8.149-.457 6.053-.563 13.556-2.435 21.127-5.271 1.912-.716 3.042-2.504 2.877-4.555-.157-1.968-1.467-3.493-3.349-3.954.209-.135.432-.277.635-.409 7.307-4.755 10.276-7.956 9.622-10.378z" fill="#e6e7e8"/><path d="m16.906 33.151c1.363-2.745 3.011-5.345 4.976-7.711 1.977-2.379 4.291-4.342 6.822-5.918h-11.511c-3.125 0-5.186 3.252-3.852 6.078z" fill="#fa759e"/><path d="m20.131 25.265c.293.489.618.883.965 1.208.265-.343.51-.7.787-1.034 1.977-2.379 4.291-4.342 6.822-5.918h-5.375c-2.92 0-4.829 3.245-3.234 5.691.011.017.023.035.035.053z" fill="#ffd7e5"/><path d="m104.344 72.421c2.272-1.98 4.721-4.597 3.693-5.968-1.344-1.792-8.513 2.019-12.008 4.032-5.499-2.242-10.227-6.4-13.016-11.653-4.833-9.103-4.152-19.647-9.12-28.687-10.066-18.314-38.628-20.812-52.01-4.706-5.471 6.586-8.574 14.94-9.5 23.4-1.971 18 6.059 36.619 22.116 45.668 15.255 8.596 33.289 5.873 48.674-.854 6.287-2.748 12.135-6.231 17.875-9.965 17.931-11.665 4.505-11.082 3.296-11.267z" fill="#fff"/><path d="m104.344 76.776c2.272-1.98 4.721-4.597 3.693-5.968-1.344-1.792-8.513 2.019-12.008 4.032-5.499-2.242-10.227-6.4-13.016-11.653-4.833-9.103-4.152-19.647-9.12-28.687-10.067-18.315-38.629-20.813-52.011-4.707-5.471 6.586-8.574 14.94-9.5 23.4-1.971 18 6.059 36.619 22.116 45.668 15.255 8.596 33.289 5.873 48.674-.854 6.287-2.748 12.135-6.231 17.875-9.965 17.932-11.664 4.506-11.081 3.297-11.266z" fill="#6dc9f7"/><path d="m47.534 84.248c-17.745-9.038-15.957-15.813-25.792-16.494-4.177-.289-5.471 2.645-5.582 6.114 3.722 8.529 9.926 15.899 18.339 20.639 15.255 8.596 33.289 5.873 48.674-.854 4.012-1.754 7.844-3.808 11.584-6.035-14.742 1.425-36.222 2.233-47.223-3.37z" fill="#d4fbff"/><path d="m48.547 99.837 10.882 7.849c4.29 3.094 10.107-.847 8.824-5.978l-1.504-2.992c-5.396 1.336-11.585 1.535-18.202 1.121z" fill="#ffd7e5"/><path d="m57.759 59.194c-8.341 6.162-9.292 21.157-5.124 28.948 5.788 10.818 16.295 10.627 27.575 9.578 6.442-.599 13.904-2.603 20.869-5.212 3.237-1.213 2.886-5.962-.503-6.645-7.112-1.434-14.01-4.725-19.785-11.944-5.096-6.37-7.049-13.058-12.553-15.494-3.961-1.754-7.608-1.352-10.479.769z" fill="#fff"/><path d="m57.759 59.194c-8.341 6.162-9.292 21.157-5.124 28.948 5.788 10.818 16.295 10.627 27.575 9.578 6.442-.599 13.904-2.603 20.869-5.212 3.237-1.213 2.886-5.962-.503-6.645-7.112-1.434-14.01-4.725-19.785-11.944-5.096-6.37-7.049-13.058-12.553-15.494-3.961-1.754-7.608-1.352-10.479.769z" fill="#d4fbff"/><path d="m87.499 80.327c-1.532-1.096-3.022-2.363-4.453-3.843-1.773 1.09-3.598 2.106-5.469 3.018-1.563.762-3.165 1.565-4.941.989-.531-.172-1.047-.448-1.605-.446-.625.002-1.233.389-1.498.955-.178.38-.209.821-.419 1.185-.382.664-1.255.886-2.017.805-.762-.082-1.479-.396-2.231-.542-1.935-.375-3.17.246-4.088 2.012-.124.239-.22.495-.371.718-.296.436-.778.708-1.264.913-1.514.637-3 .642-4.58.368-.261-.045-2.724-.078-2.751-.147.249.641.518 1.26.823 1.831.098.184.206.347.307.524 2.524.142 5.055.175 7.581.079 1.072-.041 2.355.055 3.396-.172 1.05-.229 1.932-1.084 2.973-1.394 1.877-.559 3.879.213 5.837.166 1.336-.032 2.659-.459 3.762-1.213 1.311-.896 2.32-2.241 3.773-2.88 1.328-.585 2.887-.159 4.158-.691.45-.191 2.863-2.387 3.077-2.235z" fill="#0089ef"/><path d="m99.643 85.644c-2.98-.674-5.916-1.677-8.738-3.192-.098-.052-4.057 3.341-4.506 3.646-.688.467-1.297 1.076-2.127 1.231-.846.158-1.73-.044-2.554.267-1.084.41-1.662 1.564-2.503 2.361-1.683 1.594-4.276 1.644-6.585 1.436-.617-.055-1.246-.121-1.849.02-.607.143-1.145.486-1.71.75-2.306 1.076-4.23.146-6.55.186-2.67.045-5.512-.638-8.066-1.359 1.378 1.814 2.95 3.183 4.664 4.23 14.157 2.912 31.992 1.482 40.524-9.576z" fill="#0089ef"/><g fill="#3a2c60"><path d="m12.249 58.322c.551-.034.97-.509.936-1.061-.142-2.271-.124-4.57.053-6.831.043-.551-.368-1.032-.919-1.075-.556-.04-1.032.369-1.075.919-.184 2.354-.203 4.747-.055 7.112.033.53.473.938.997.938.02 0 .041-.001.063-.002z"/><path d="m111.218 74.148c-.482-1.786-2.681-2.35-4.523-2.559 2.453-2.502 3.153-4.388 2.142-5.736-.551-.735-2.005-2.672-12.876 3.519-5.134-2.213-9.513-6.203-12.063-11.008-2.321-4.371-3.365-9.227-4.375-13.922-1.065-4.952-2.166-10.072-4.752-14.777-4.843-8.812-14.311-14.702-25.326-15.755-7.656-.731-15.036.949-21.033 4.612h-11.22c-1.812 0-3.473.914-4.442 2.444-.97 1.53-1.087 3.422-.313 5.06l3.365 7.127c-1.76 3.646-3.076 7.619-3.859 11.821-.102.543.257 1.065.8 1.166.546.104 1.065-.257 1.166-.8 1.374-7.37 4.397-14.03 8.743-19.262 6.132-7.38 16.076-11.183 26.602-10.178 10.355.99 19.238 6.496 23.763 14.728 2.445 4.448 3.515 9.423 4.55 14.234 1.039 4.829 2.112 9.823 4.563 14.439 2.84 5.351 7.769 9.765 13.521 12.109.286.117.609.095.876-.059 7.651-4.408 10.331-4.594 10.708-4.299.179.238-.089 1.598-3.55 4.614-.293.256-.412.659-.303 1.033s.424.651.809.709c.128.02.374.035.699.052 3.588.179 4.293.833 4.395 1.208.095.35.115 2.391-8.784 8.181-.702.457-1.455.938-2.228 1.428-6.793-1.855-12.282-5.456-16.704-10.983-1.751-2.189-3.11-4.396-4.425-6.53-2.494-4.05-4.648-7.547-8.504-9.254-4.146-1.835-8.223-1.523-11.478.879-8.568 6.33-9.966 21.71-5.412 30.224 3.006 5.618 7.249 8.403 12.191 9.659-.953.167-1.94.31-2.97.421-8.489.814-17.509-.282-25.985-5.057-11.081-6.244-18.793-17.525-21.16-30.951-.096-.543-.612-.905-1.159-.811-.543.096-.907.615-.811 1.159 2.474 14.017 10.547 25.806 22.152 32.345 4.458 2.512 9.05 4.053 13.635 4.859.07.158.171.304.319.411l10.882 7.85c1.177.849 2.539 1.275 3.902 1.275 1.299 0 2.601-.387 3.746-1.163 2.347-1.59 3.419-4.395 2.731-7.145-.018-.071-.043-.141-.077-.207l-.851-1.693c.643-.138 1.282-.282 1.914-.437.643.027 1.289.044 1.945.044 2.638 0 5.375-.199 8.149-.457 6.053-.563 13.556-2.435 21.127-5.271 1.912-.716 3.042-2.504 2.877-4.555-.157-1.968-1.467-3.493-3.349-3.954.209-.135.432-.277.635-.409 7.31-4.755 10.278-7.955 9.625-10.378zm-90.104-49.348c-1.556 1.873-2.937 3.93-4.156 6.118l-2.713-5.746c-.479-1.016-.407-2.188.194-3.136s1.63-1.515 2.753-1.515h8.347c-1.618 1.268-3.106 2.692-4.425 4.279zm46.194 77.254c.524 2.287-.649 4.027-1.938 4.9-1.308.886-3.401 1.332-5.356-.079l-8.157-5.884c3.177.094 6.073.006 8.736-.25.008-.001.017-.002.025-.002.386-.037.77-.077 1.146-.122 1.519-.162 3.018-.38 4.495-.649zm35.006-13.005c.072.896-.301 2.017-1.549 2.505-22.926 5.585-32.501-7.331-32.901-7.887-.32-.449-.942-.554-1.393-.235-.45.32-.556.944-.236 1.395.087.122 7.398 10.096 23.785 10.096.023 0 .047-.002.07-.002-3.579.906-6.965 1.525-9.973 1.804-11.338 1.053-21.168 1.1-26.601-9.055-4.16-7.775-2.745-22.071 4.836-27.672 2.688-1.985 5.967-2.213 9.479-.659 3.288 1.455 5.291 4.708 7.611 8.474 1.284 2.084 2.738 4.446 4.566 6.73 5.258 6.574 11.921 10.597 20.368 12.301 1.321.266 1.867 1.313 1.938 2.205z"/><circle cx="34.375" cy="34.663" r="4.206"/></g></svg>