<svg id="Layer_1" enable-background="new 0 0 128 128" height="512" viewBox="0 0 128 128" width="512" xmlns="http://www.w3.org/2000/svg"><path d="m115.822 97.879c-2.717-3.303-8.971-3.801-15.019-4.283-3.63-.289-7.383-.588-9.977-1.498-.938-.329-1.773-.675-2.52-1.027.349-4.397-.285-9.207-1.894-14.307-.449-1.602-.945-2.979-1.474-4.091-.002-.005-.005-.009-.007-.014-2.362-5.811-5.824-11.525-9.759-16.24.209-.169.431-.344.637-.511.43-.347 2.925-2.372 3.352-2.723 4.756-3.888 6.795-10.236 5.196-16.172-2.061-7.644-7.225-15.329-10.119-19.23-4.332-5.836-11.394-9.369-19.374-9.69-8.953-.365-17.648 3.238-23.243 9.628-4.294 4.906-8.381 12.659-10.169 19.292-1.6 5.935.444 12.286 5.206 16.179.937.766 1.913 1.56 2.91 2.366-8.934 10.35-17.731 28.742-12.275 42.643.987 4.911 3.455 9.233 6.884 12.552-.108.033-.215.07-.314.128l-8.347 4.891c-1.251.733-.747 2.681.703 2.669 2.26-.02 4.312.471 4.916 2.15 1.529 4.246 3.684 1.607 8.952.639 2.304-.424 4.275.289 5.765 1.226 1.061.667 2.4-.287 2.146-1.514l-.746-3.601c1.318.219 2.665.342 4.037.342h22.081c1.427 0 2.831-.132 4.204-.374l-.752 3.633c-.254 1.228 1.084 2.181 2.146 1.514 1.49-.937 3.461-1.649 5.765-1.226 5.268.969 7.423 3.607 8.952-.639.604-1.679 2.656-2.17 4.916-2.15 1.45.013 1.954-1.936.703-2.669l-8.347-4.891c-.174-.102-.368-.151-.566-.173 1.178-1.144 2.256-2.397 3.195-3.766 6.103 2.233 13.137 3.643 19.206 3.643 3.896 0 7.394-.58 9.987-1.895 2.565-1.299 4.071-3.29 4.355-5.755.232-2.014-.209-3.715-1.312-5.056z" fill="#e6e7e8"/><path d="m86.301 89.041c-1.253-.44-2.318-.909-3.256-1.387-.032.306-.052.616-.095.919.689-4.95-.042-10.301-1.695-15.54-.425-1.515-.903-2.857-1.414-3.932l-.002.002c-2.552-6.302-6.294-12.224-10.304-16.846l4.675-3.747c.041-.034.082-.067.123-.101 4.462-3.648 6.363-9.573 4.864-15.138-1.864-6.917-6.465-14.191-9.956-18.894-9.517-12.822-30.554-12.001-41.061 0-3.858 4.406-8.092 11.977-9.956 18.894-1.501 5.57.407 11.494 4.872 15.145 1.16.949 2.426 1.976 3.745 3.038-.01-.008-.019-.016-.029-.023-9.645 10.649-18.062 29.109-12.75 42.485.002.009.006.027.011.052 2.176 10.921 11.886 18.715 23.022 18.715h22.081c8.213 0 15.58-4.283 19.822-10.949 13.676 5.229 31.938 5.864 32.948-2.912 1.177-10.213-17.175-6.809-25.645-9.781z" fill="#fa759e"/><path d="m32.841 112.292c-4.3-.785-8.227-2.749-11.404-5.565l-.983-.041c-.275-.011-.547.057-.784.196l-8.347 4.891c-1.251.733-.747 2.682.703 2.669 2.26-.02 4.312.471 4.916 2.15 1.529 4.246 3.684 1.607 8.952.639 2.304-.424 4.275.289 5.765 1.226 1.061.667 2.4-.287 2.146-1.514z" fill="#6dc9f7"/><path d="m85.109 111.773-8.347-4.891c-.237-.139-.51-.207-.784-.196l-1.224.051c-3.12 2.775-6.957 4.702-11.154 5.51l-.972 4.696c-.254 1.228 1.084 2.181 2.146 1.514 1.49-.937 3.461-1.649 5.765-1.226 5.268.969 7.423 3.607 8.952-.639.604-1.679 2.656-2.17 4.916-2.15 1.449.012 1.953-1.936.702-2.669z" fill="#6dc9f7"/><path d="m70.907 75.136-.001.002c-2.179-6.38-5.557-12.321-9.041-16.476-.056-.067-.113-.148-.17-.218-.467.356-.928.707-1.389 1.054v10.028c0 3.508-5.793 6.776-9.597 8.544-1.96.911-4.449.842-6.302-.187-3.454-1.918-8.601-5.328-8.601-8.617v-10.76c-.401-.306-.805-.618-1.209-.929-.279.385-.557.752-.835 1.083-7.388 8.811-14.316 25.656-10.286 37.684.002.008.004.023.008.044 1.569 9.335 8.57 15.997 16.6 15.997h15.921c7.671 0 14.336-6.127 16.377-14.893.005-.023.011-.045.016-.066.421-1.711.657-3.641.749-5.649.497-4.231-.03-8.805-1.222-13.283-.305-1.292-.65-2.439-1.018-3.358z" fill="#ffd7e5"/><path d="m26.003 86.037-5.57 9.517c-1.048 2.296.577 3.259 2.034 2.763 2.154-.734 4.224-.651 5.501 1.498 3.146 5.294 3.672.995 7.044-1.778 1.344-1.105 2.267-.679 3.337.287 1.023.923 3.119.649 1.946-2.321l-4.825-9.789c-.325-.723-.851-1.206-1.281-1.17l-7.616.635c-.232.019-.43.143-.57.358z" fill="#6dc9f7"/><path d="m69.845 86.037 5.57 9.517c1.048 2.296-.577 3.259-2.034 2.763-2.154-.734-4.224-.651-5.501 1.498-3.146 5.294-3.672.995-7.044-1.778-1.344-1.105-2.267-.679-3.337.287-1.023.923-3.119.649-1.946-2.321l4.825-9.789c.325-.723.851-1.206 1.281-1.17l7.616.635c.232.019.43.143.57.358z" fill="#6dc9f7"/><path d="m54.477 40.165c-.908-2.055-3.486-3.538-6.529-3.538-3.043 0-5.621 1.483-6.529 3.538-.039.089-5.613 1.944-5.613 4.158v24.945c0 3.289 5.147 6.699 8.601 8.617 1.853 1.029 4.342 1.098 6.302.187 3.804-1.768 9.597-5.036 9.597-8.544v-25.205c0-2.214-5.79-4.069-5.829-4.158z" fill="#fff"/><path d="m57.646 42.416c-.908-2.055-3.486-3.538-6.529-3.538-3.043 0-5.621 1.483-6.529 3.538-.039.089-5.613 1.944-5.613 4.158v24.945c0 3.289 5.147 6.699 8.601 8.617 1.853 1.029 4.342 1.098 6.302.187 3.804-1.768 9.597-5.036 9.597-8.544v-25.205c0-2.214-5.79-4.069-5.829-4.158z" fill="#6dc9f7"/><g fill="#3a2c60"><path d="m111.627 93.879c-2.717-3.303-8.97-3.801-15.018-4.283-3.63-.289-7.383-.588-9.978-1.499-.887-.311-1.711-.663-2.517-1.046.345-4.391-.29-9.194-1.897-14.288-.448-1.6-.944-2.976-1.473-4.091-.004-.008-.008-.017-.012-.024-2.36-5.807-5.825-11.512-9.761-16.226.212-.17.435-.348.643-.516.43-.347.497-.976.15-1.406-.346-.429-.974-.498-1.406-.15-.903.729-1.838 1.478-2.789 2.236-.432.344-.503.973-.159 1.405.197.248.489.377.783.377.218 0 .438-.071.622-.218.204-.162.395-.317.597-.479 3.832 4.581 7.206 10.145 9.498 15.807.018.044.038.086.062.126.467 1 .911 2.245 1.327 3.729 1.731 5.488 2.289 10.569 1.651 15.185-.132 2.41-.469 4.558-1.026 6.475-2.713 9.827-11.657 16.689-21.75 16.689h-22.079c-10.703 0-19.974-7.533-22.057-17.984-.012-.052-.027-.103-.047-.152-5.227-13.161 3.323-30.803 11.941-40.734 2.641 2.121 5.391 4.29 8.042 6.318v10.137c0 3.661 4.957 7.182 9.115 9.491 1.136.631 2.472.95 3.814.949 1.17 0 2.345-.242 3.395-.729 4.642-2.157 10.176-5.548 10.176-9.451v-25.204c0-2.265-3.249-3.823-6.079-4.927-.006-.002-.012-.004-.018-.007-1.217-2.266-4.073-3.762-7.262-3.762-3.19 0-6.049 1.499-7.266 3.769-.003.001-.006.002-.009.004-2.731 1.106-5.867 2.666-5.867 4.923v12.28c-4.113-3.176-8.235-6.498-11.245-8.96-4.152-3.396-5.935-8.935-4.539-14.111 1.688-6.267 5.694-13.872 9.742-18.495 5.203-5.939 13.309-9.283 21.659-8.947 7.373.297 13.878 3.536 17.849 8.885 2.811 3.787 7.82 11.233 9.793 18.558 1.396 5.176-.383 10.712-4.526 14.101l-.129.105c-.427.351-.488.981-.138 1.408.349.426.979.489 1.407.138l.121-.1c4.757-3.889 6.796-10.237 5.196-16.172-2.06-7.643-7.224-15.329-10.119-19.229-4.332-5.837-11.394-9.369-19.373-9.691-8.973-.366-17.648 3.237-23.242 9.627-4.296 4.905-8.383 12.658-10.17 19.292-1.6 5.936.443 12.287 5.205 16.179.938.767 1.915 1.561 2.912 2.367-8.935 10.351-17.734 28.742-12.276 42.644.914 4.545 3.109 8.573 6.148 11.782-.027.015-.058.019-.085.035l-8.347 4.891c-.967.567-1.414 1.677-1.114 2.764.293 1.06 1.22 1.768 2.31 1.768h.022c1.586-.011 3.514.233 3.967 1.489.83 2.307 1.999 2.99 3.336 2.99.947 0 1.978-.342 3.033-.692 1.057-.351 2.255-.748 3.704-1.015 1.707-.313 3.405.054 5.052 1.089.832.522 1.849.497 2.657-.064.806-.559 1.198-1.541 1-2.5l-.675-3.26c.983.12 1.976.203 2.987.203h22.081c1.066 0 2.115-.091 3.152-.227l-.68 3.283c-.198.958.193 1.94.999 2.5.809.562 1.828.586 2.658.064 1.647-1.037 3.347-1.403 5.052-1.089 1.449.267 2.646.664 3.703 1.014 1.056.35 2.086.692 3.033.692 1.337 0 2.507-.683 3.338-2.99.45-1.255 2.395-1.504 3.966-1.488 1.081-.005 2.037-.7 2.331-1.769.301-1.086-.147-2.197-1.113-2.763l-8.348-4.891c-.083-.049-.176-.07-.263-.108.868-.924 1.667-1.918 2.391-2.974 5.875 2.145 13.056 3.612 19.284 3.612 4.231 0 8.017-.673 10.636-2.264 2.146-1.302 3.366-3.103 3.625-5.35.232-2.013-.209-3.714-1.313-5.055zm-74.652-49.556c0-.2.223-1.29 4.618-3.07.478-.193.74-.3.909-.684.766-1.732 3.074-2.942 5.614-2.942s4.849 1.21 5.614 2.942c.173.391.445.497.938.689 4.575 1.785 4.807 2.865 4.807 3.064v25.204c0 2.19-3.287 4.974-9.019 7.638-1.668.775-3.837.713-5.396-.154-5.139-2.854-8.086-5.676-8.086-7.743v-24.944zm-4.15 72.822c.054.257-.109.401-.182.452-.085.058-.255.137-.452.013-2.084-1.312-4.267-1.769-6.478-1.363-1.586.292-2.909.73-3.973 1.083-2.626.871-3.1 1.03-3.858-1.077-.672-1.866-2.598-2.812-5.726-2.812-.048 0-.098-.006-.145 0-.246 0-.344-.163-.382-.301-.027-.101-.064-.352.198-.505l8.347-4.891c.072-.043.165-.057.237-.06l.645.027c3.089 2.658 6.837 4.546 10.935 5.415zm51.779-4.509c.262.153.226.404.197.505-.038.138-.135.301-.381.301-.061-.001-.098 0-.145 0-3.129 0-5.056.946-5.726 2.812-.758 2.104-1.23 1.949-3.859 1.077-1.063-.353-2.386-.792-3.972-1.083-.521-.096-1.04-.144-1.557-.144-1.678 0-3.327.504-4.921 1.506-.197.125-.367.046-.453-.014-.072-.05-.234-.194-.181-.451l.841-4.064c3.96-.887 7.605-2.745 10.641-5.358l.929-.038c.086.004.166.017.237.06zm26.349-13.928c-.188 1.624-1.063 2.89-2.676 3.869-5.082 3.086-17.111 2.462-27.799-1.36.007-.012.013-.025.019-.037.05-.088.094-.181.143-.27.248-.448.482-.902.701-1.363.086-.18.166-.363.247-.545.181-.406.351-.816.51-1.231.067-.175.136-.348.199-.525.21-.586.405-1.178.572-1.782.139-.478.265-.976.379-1.49.041-.183.072-.377.109-.564.068-.339.136-.676.193-1.027.037-.23.065-.469.098-.704.045-.324.091-.646.127-.98.027-.251.046-.509.068-.765.022-.254.051-.502.067-.76.662.292 1.343.561 2.057.811 2.839.997 6.551 1.292 10.48 1.605 5.632.449 11.455.913 13.632 3.56.759.918 1.044 2.082.874 3.558z"/><path d="m25.14 85.532-5.57 9.517c-.017.029-.032.06-.047.09-.888 1.946-.15 3.078.208 3.474.711.785 1.91 1.039 3.059.651 2.722-.929 3.735.081 4.319 1.062 1.202 2.024 2.179 2.919 3.263 2.995.052.003.103.005.152.005 1.209 0 2.025-1.021 2.966-2.194.602-.752 1.283-1.604 2.157-2.323.761-.625 1.102-.584 2.032.257.903.813 2.19.964 3.065.359.58-.402 1.413-1.43.448-3.865l-4.81-9.757c-.369-.82-.936-1.402-1.548-1.64v-4.181c0-.552-.447-1-1-1s-1 .448-1 1v4.17l-5.489.457-.383-1.606c-.314-1.317-.271-2.698.124-3.993l.674-2.213c.16-.528-.138-1.087-.666-1.248-.529-.163-1.087.138-1.248.666l-.673 2.212c-.499 1.634-.553 3.377-.156 5.04l.406 1.704c-.096.094-.183.201-.26.32-.006.014-.015.028-.023.041zm14.226 10.839c.371.941.276 1.359.241 1.411-.066.037-.357.009-.588-.199-1.116-1.008-2.653-1.954-4.642-.317-1.035.852-1.819 1.831-2.449 2.618-.437.545-1.172 1.444-1.418 1.444-.021-.001-.516-.058-1.683-2.021-.708-1.192-1.962-2.403-4.133-2.403-.738 0-1.584.14-2.55.469-.373.128-.765.085-.931-.099-.187-.206-.144-.686.109-1.258l5.472-9.35 7.361-.613c.083.066.254.245.417.606z"/><path d="m68.501 84.611-5.489-.457v-4.17c0-.552-.447-1-1-1s-1 .448-1 1v4.18c-.617.235-1.173.809-1.531 1.609l-4.858 9.864c-.933 2.36-.099 3.388.481 3.79.873.607 2.163.455 3.064-.36.93-.838 1.272-.883 2.032-.257.874.719 1.557 1.571 2.159 2.323.939 1.174 1.756 2.194 2.964 2.194.051 0 .102-.002.153-.005 1.084-.076 2.06-.971 3.262-2.995.583-.981 1.599-1.99 4.32-1.062 1.147.39 2.348.135 3.058-.651.358-.396 1.096-1.527.208-3.474-.015-.031-.03-.061-.047-.09l-5.57-9.517c-.008-.012-.016-.025-.023-.037-.077-.12-.165-.227-.261-.323l.757-3.176c.16-.669.179-1.352.056-2.029l-.66-3.639c-.099-.543-.613-.909-1.163-.805-.543.099-.903.619-.806 1.163l.661 3.64c.073.403.062.808-.033 1.206zm6.023 11.402c.254.573.296 1.053.109 1.258-.166.185-.557.226-.93.099-3.803-1.294-5.734.336-6.684 1.934-1.167 1.964-1.661 2.02-1.682 2.021-.003 0-.005 0-.007 0-.255 0-.978-.902-1.411-1.443-.63-.787-1.414-1.767-2.449-2.618-.779-.642-1.489-.886-2.132-.886-.997 0-1.832.59-2.511 1.203-.232.209-.521.234-.577.208-.046-.06-.141-.478.197-1.344l4.841-9.822c.15-.335.319-.508.401-.573l7.361.613z"/><circle cx="35.307" cy="32.013" r="3.38"/><circle cx="61.142" cy="32.013" r="3.38"/><path d="m63.475 58.339c.732-.564 1.482-1.146 2.267-1.76.436-.34.512-.969.171-1.404s-.97-.512-1.403-.17c-.357.28-.689.535-1.034.804v2.53z"/></g><path d="m43.369 68.449c-1.15 0-2.081.932-2.081 2.081s.932 2.081 2.081 2.081c1.15 0 2.081-.932 2.081-2.081s-.931-2.081-2.081-2.081z" fill="#0089ef"/><path d="m52.836 68.449c-1.15 0-2.081.932-2.081 2.081s.932 2.081 2.081 2.081c1.15 0 2.081-.932 2.081-2.081s-.931-2.081-2.081-2.081z" fill="#0089ef"/></svg>