<svg id="Layer_1" enable-background="new 0 0 128 128" height="512" viewBox="0 0 128 128" width="512" xmlns="http://www.w3.org/2000/svg"><path d="m89.325 59.648c1.862-2.709 3.372-5.775 4.448-9.137.169-.525.938-3.208 1.043-3.672.373-1.652.84-5.713.766-8.489-.153-5.723-1.391-11.047-3.839-15.641 2.194-1.832 3.594-4.584 3.594-7.659 0-5.502-4.476-9.978-9.977-9.978-3.297 0-6.217 1.614-8.035 4.087-3.751-1.674-7.909-2.603-12.316-2.603-4.35 0-8.487.969-12.24 2.705-1.811-2.531-4.769-4.189-8.112-4.189-5.502 0-9.978 4.476-9.978 9.978 0 3.149 1.471 5.958 3.757 7.787-2.607 4.774-4.108 10.307-4.108 16.207 0 7.852 2.601 15.175 6.883 20.979-5.374 4.396-18.62 17.262-17.644 36.642.147 2.668 1.435 7.374 5.141 8.479-.716 4.353.759 9.749 4.362 14.383 3.885 4.997 9.242 7.826 13.89 7.826 2.141 0 4.131-.601 5.758-1.865h-.001c.997-.775 1.793-1.749 2.389-2.878 1.582-1.362 2.802-3.325 3.556-5.6 2.11.313 4.404.488 6.911.488 3.804 0 7.128-.394 10.038-1.079.734 2.537 2.035 4.735 3.766 6.214.582 1.11 1.365 2.081 2.361 2.855 1.611 1.253 3.591 1.89 5.778 1.89 1.282 0 2.638-.22 4.03-.661 3.638-1.153 7.132-3.707 9.839-7.19 4.2-5.402 5.512-11.841 3.824-16.452 1.508-1.923 2.126-4.623 2.225-6.414 1.004-19.965-13.085-33.015-18.109-37.013z" fill="#e6e7e8"/><path d="m83.791 55.718c4.304-5.728 6.898-12.997 6.898-20.675 0-17.39-13.288-31.487-29.68-31.487s-29.68 14.097-29.68 31.487c0 7.89 2.742 15.345 7.262 21.143-4.6 3.554-19.034 16.357-18.025 36.424 0 0 .414 7.247 5.313 7.727-1.102 4.201.263 9.792 3.981 14.574 5.344 6.875 13.513 9.465 18.244 5.787.935-.727 1.658-1.65 2.188-2.708 1.686-1.379 2.97-3.556 3.662-6.103 2.322.394 4.852.609 7.618.609 4.07 0 7.637-.458 10.761-1.287.638 2.835 1.997 5.281 3.831 6.781.53 1.057 1.252 1.981 2.188 2.708 4.732 3.678 12.9 1.088 18.244-5.787 4.166-5.358 5.371-11.728 3.466-16.023 2.139-2.256 2.373-6.278 2.373-6.278 1.061-21.096-14.939-34.159-18.644-36.892z" fill="#fff"/><path d="m70.583 69.519c-1.244-1.048-2.679-1.822-4.142-2.359-1.762.374-3.576.579-5.432.579-1.597 0-3.163-.149-4.691-.428-1.328.53-2.621 1.252-3.755 2.208-6.48 5.459-11.505 23.706 9.01 23.706s15.49-18.246 9.01-23.706z" fill="#6dc9f7"/><g fill="#ffd7e5"><path d="m38.087 107.635c-2.944 1.901-3.694 5.978-1.674 9.106 2.02 3.129 6.044 4.124 8.988 2.224s3.694-5.978 1.674-9.106c-2.02-3.13-6.044-4.125-8.988-2.224z"/><path d="m30.559 104.906c-1.163 0-2.106.943-2.106 2.106s.943 2.106 2.106 2.106 2.106-.943 2.106-2.106-.943-2.106-2.106-2.106z"/><path d="m36.296 102.8c0-1.163-.943-2.106-2.106-2.106s-2.106.943-2.106 2.106.943 2.106 2.106 2.106c1.164 0 2.106-.943 2.106-2.106z"/><path d="m38.747 102.8c1.163 0 2.106-.943 2.106-2.106s-.943-2.106-2.106-2.106-2.106.943-2.106 2.106c0 1.164.943 2.106 2.106 2.106z"/><path d="m88.369 107.635c-2.944-1.901-6.968-.905-8.988 2.224s-1.27 7.206 1.674 9.106 6.968.905 8.988-2.224 1.271-7.206-1.674-9.106z"/><path d="m95.897 104.906c-1.163 0-2.106.943-2.106 2.106s.943 2.106 2.106 2.106 2.106-.943 2.106-2.106-.943-2.106-2.106-2.106z"/><path d="m92.266 100.695c-1.163 0-2.106.943-2.106 2.106s.943 2.106 2.106 2.106 2.106-.943 2.106-2.106c0-1.164-.943-2.106-2.106-2.106z"/><path d="m87.709 102.8c1.163 0 2.106-.943 2.106-2.106s-.943-2.106-2.106-2.106-2.106.943-2.106 2.106c.001 1.164.943 2.106 2.106 2.106z"/></g><path d="m35.727 18.548c3.022-5.202 7.431-9.398 12.68-12.014-1.557-2.666-4.44-4.462-7.75-4.462-4.958 0-8.977 4.019-8.977 8.977 0 3.136 1.611 5.893 4.047 7.499z" fill="#fff"/><path d="m86.29 18.548c2.437-1.605 4.047-4.362 4.047-7.499 0-4.958-4.019-8.977-8.977-8.977-3.31 0-6.193 1.796-7.75 4.462 5.249 2.615 9.657 6.811 12.68 12.014z" fill="#fff"/><path d="m44.233 9.07c-.743-.482-1.625-.768-2.576-.768-2.622 0-4.747 2.125-4.747 4.747 0 .944.283 1.818.758 2.557 1.863-2.514 4.075-4.722 6.565-6.536z" fill="#6dc9f7"/><path d="m84.833 16.265c.784-.847 1.274-1.971 1.274-3.216 0-2.622-2.125-4.747-4.747-4.747-1.176 0-2.238.444-3.068 1.152 2.497 1.901 4.707 4.197 6.541 6.811z" fill="#6dc9f7"/><path d="m62.779 32.981h-3.541c-5.488 0-9.937 4.449-9.937 9.937v11.816c0 3.343 2.71 6.053 6.053 6.053h11.308c3.343 0 6.053-2.71 6.053-6.053v-11.816c.001-5.488-4.448-9.937-9.936-9.937z" fill="#6dc9f7"/><path d="m85.326 55.647c1.862-2.709 3.371-5.774 4.448-9.136.169-.525-.121-1.089-.647-1.257-.53-.169-1.089.122-1.257.647-4.054 12.658-14.597 20.838-26.86 20.838-15.547 0-28.681-14.515-28.681-31.696 0-16.811 12.866-30.487 28.681-30.487 16.022 0 28.573 13.087 28.573 29.793 0 .553.447 1 1 1s1-.447 1-1c0-5.727-1.392-11.051-3.841-15.646 2.194-1.831 3.596-4.579 3.596-7.654 0-5.501-4.476-9.977-9.977-9.977-3.297 0-6.212 1.616-8.029 4.089-3.753-1.676-7.913-2.606-12.323-2.606-4.355 0-8.497.972-12.253 2.712-1.81-2.531-4.756-4.195-8.098-4.195-5.502 0-9.978 4.476-9.978 9.977 0 3.149 1.476 5.948 3.762 7.777-2.611 4.777-4.114 10.313-4.114 16.218 0 7.852 2.601 15.176 6.883 20.979-5.375 4.397-18.619 17.263-17.644 36.643.147 2.661 1.428 7.352 5.112 8.471-.16.968-.214 1.998-.151 3.081.222 3.81 1.835 7.825 4.543 11.309 3.885 4.997 9.242 7.826 13.89 7.826 2.141 0 4.131-.601 5.757-1.865.997-.775 1.793-1.749 2.388-2.878 1.584-1.364 2.805-3.33 3.559-5.609 2.111.314 4.397.496 6.907.496 3.812 0 7.118-.413 10.031-1.102.729 2.534 2.024 4.731 3.747 6.215.595 1.129 1.391 2.103 2.388 2.878h-.001c1.611 1.253 3.591 1.89 5.778 1.89 1.282 0 2.638-.22 4.03-.661 3.638-1.153 7.132-3.707 9.839-7.189 2.708-3.483 4.321-7.499 4.543-11.309.11-1.901-.153-3.627-.719-5.143 1.508-1.923 2.126-4.623 2.225-6.414 1.006-19.974-13.09-33.023-18.107-37.015zm-6.525-47.303c.668-.64 1.562-1.042 2.56-1.042 2.066 0 3.747 1.681 3.747 3.747 0 .918-.341 1.75-.893 2.399-1.596-1.922-3.412-3.636-5.414-5.104zm2.559-5.272c4.398 0 7.977 3.578 7.977 7.977 0 2.332-1.015 4.425-2.616 5.884-.398-.643-.815-1.272-1.255-1.88 1.012-1.036 1.642-2.445 1.642-4.004 0-3.169-2.578-5.747-5.747-5.747-1.682 0-3.185.736-4.236 1.892-.638-.404-1.294-.78-1.963-1.136 1.462-1.815 3.692-2.986 6.198-2.986zm-43.397 10.56c-.649-.67-1.053-1.577-1.053-2.583 0-2.066 1.681-3.747 3.747-3.747 1.073 0 2.032.458 2.712 1.185-1.989 1.486-3.803 3.213-5.406 5.145zm-5.283-2.583c0-4.398 3.579-7.977 7.978-7.977 2.563 0 4.841 1.22 6.3 3.106-.661.362-1.311.743-1.942 1.153-1.054-1.236-2.61-2.03-4.358-2.03-3.169 0-5.747 2.578-5.747 5.747 0 1.646.703 3.124 1.816 4.172-.443.607-.868 1.228-1.27 1.867-1.699-1.463-2.777-3.626-2.777-6.038zm14.811 108.859c-4.285 3.331-11.844.818-16.842-5.611-2.461-3.166-3.926-6.787-4.124-10.195-.056-.972.004-1.884.159-2.734 3.863-.153 6.203-2.678 7.976-6.219 3.848.283 8.253 2.819 11.546 7.056 2.461 3.166 3.926 6.787 4.124 10.196.19 3.27-.818 5.936-2.839 7.507zm52.44-15.806c-.197 3.408-1.662 7.029-4.124 10.196-2.462 3.166-5.61 5.479-8.865 6.511-3.122.989-5.955.67-7.976-.9h-.001c-2.021-1.571-3.028-4.237-2.839-7.508.198-3.409 1.663-7.03 4.124-10.196 2.435-3.131 5.475-5.318 8.45-6.368 1.752 3.218 4.063 5.453 7.753 5.544.055.001.109.002.164.002 1.172 0 2.154-.321 2.982-.837.289 1.07.407 2.264.332 3.556zm1.506-11.547c-.004.068-.428 6.827-4.828 6.827-.035 0-.071-.001-.106-.002-5.04-.123-6.979-5.877-9.226-12.541-1.846-5.474-3.753-11.135-7.736-14.529-.42-.359-1.051-.31-1.409.112-.358.42-.309 1.051.112 1.409 3.562 3.036 5.38 8.431 7.138 13.647.778 2.309 1.545 4.571 2.446 6.582-3.275 1.2-6.547 3.561-9.155 6.916-2.708 3.482-4.321 7.498-4.542 11.308-.023.401-.02.79-.013 1.176-.982-2.289-1.408-5.083-1.079-7.837.065-.548-.326-1.046-.875-1.111-.555-.066-1.046.326-1.111.875-.205 1.718-.156 3.437.114 5.07-2.89.675-6.072 1.04-9.593 1.04-2.267 0-4.391-.154-6.396-.435.366-1.814.459-3.752.227-5.69-.066-.548-.556-.939-1.112-.874-.549.066-.939.564-.874 1.112.332 2.758-.093 5.557-1.076 7.849.008-.386.011-.774-.012-1.174-.222-3.81-1.835-7.825-4.543-11.309-3.443-4.428-8.037-7.134-12.273-7.695.758-1.81 1.43-3.787 2.109-5.802 1.758-5.217 3.576-10.611 7.138-13.647.421-.358.471-.989.112-1.409-.362-.423-.993-.473-1.413-.113-3.983 3.395-5.891 9.056-7.736 14.529-2.246 6.664-4.186 12.418-9.226 12.541-.035.001-.07.002-.105.002-4.382-.001-4.826-6.76-4.829-6.822-.93-18.479 11.762-30.781 16.874-34.962 5.657 6.801 13.751 11.141 22.57 11.141 9.208 0 17.494-4.289 23.125-11.49 4.779 3.798 18.261 16.254 17.303 35.306z" fill="#3a2c60"/><path d="m89.585 37.655c-.125 1.589-.367 3.184-.72 4.741-.122.539.217 1.074.755 1.196.074.017.148.024.222.024.457 0 .869-.315.975-.779.373-1.65.63-3.341.763-5.024.043-.551-.368-1.032-.918-1.076-.566-.042-1.033.368-1.077.918z" fill="#3a2c60"/><path d="m54.051 24.451c0-1.312-1.063-2.375-2.375-2.375s-2.375 1.063-2.375 2.375 1.063 2.375 2.375 2.375 2.375-1.064 2.375-2.375z" fill="#3a2c60"/><path d="m72.716 24.451c0-1.312-1.063-2.375-2.375-2.375s-2.375 1.063-2.375 2.375 1.063 2.375 2.375 2.375c1.311 0 2.375-1.064 2.375-2.375z" fill="#3a2c60"/><path d="m56.102 57.868c2.043 0 3.846-1.043 4.907-2.624 1.061 1.581 2.865 2.624 4.907 2.624 3.257 0 5.907-2.65 5.907-5.907 0-.553-.447-1-1-1s-1 .447-1 1c0 2.154-1.753 3.907-3.907 3.907s-3.907-1.753-3.907-3.907v-14.162l4.358-4.358c.28-.28.082-.76-.315-.76h-10.087c-.396 0-.595.479-.315.76l4.359 4.359v14.162c0 2.154-1.753 3.907-3.907 3.907s-3.907-1.753-3.907-3.907c0-.553-.447-1-1-1s-1 .447-1 1c-.001 3.256 2.65 5.906 5.907 5.906z" fill="#3a2c60"/><circle cx="76.257" cy="42.689" fill="#ffd7e5" r=".724"/><circle cx="80.91" cy="44.817" fill="#ffd7e5" r=".724"/><circle cx="80.532" cy="40.328" fill="#ffd7e5" r=".724"/><circle cx="46.033" cy="42.689" fill="#ffd7e5" r=".724"/><circle cx="41.381" cy="44.817" fill="#ffd7e5" r=".724"/><circle cx="41.759" cy="40.328" fill="#ffd7e5" r=".724"/></svg>