<svg id="Layer_1" enable-background="new 0 0 128 128" height="512" viewBox="0 0 128 128" width="512" xmlns="http://www.w3.org/2000/svg"><path d="m106.684 60.502c.004-.58-.322-1.104-.832-1.338l-5.39-2.464 5.015-3.53c.47-.33.699-.916.585-1.495-.111-.563-.532-1.004-1.074-1.126l-5.549-1.23 4.463-4.582c.415-.426.531-1.061.297-1.617-.222-.525-.724-.865-1.275-.865l-5.501-.01 3.734-5.442c.343-.5.346-1.174.006-1.678-.32-.476-.882-.706-1.43-.584l-5.271 1.149 2.875-6.083c.267-.564.155-1.239-.278-1.679-.407-.415-1.01-.527-1.532-.291l-4.901 2.217 1.948-6.485c.184-.611-.033-1.266-.54-1.629-.478-.344-1.101-.345-1.586.001l-4.43 3.18.995-6.649c.096-.642-.219-1.258-.782-1.535-.532-.264-1.17-.146-1.587.288l-3.863 4.035.055-6.599c.006-.651-.395-1.216-.995-1.402-.579-.179-1.196.045-1.543.556l-3.229 4.783-.847-6.356c-.085-.645-.559-1.142-1.179-1.236-.61-.095-1.194.23-1.46.804l-2.524 5.437-1.688-5.962c-.175-.619-.71-1.037-1.332-1.04-.002 0-.004 0-.007 0-.618 0-1.154.412-1.335 1.028l-1.747 5.979-2.458-5.439c-.26-.576-.841-.908-1.453-.819-.621.088-1.1.58-1.19 1.223l-.911 6.382-3.163-4.798c-.34-.515-.956-.746-1.536-.574-.603.181-1.009.739-1.011 1.393l-.008 6.632-3.794-4.054c-.411-.439-1.047-.562-1.582-.309-.568.271-.89.885-.801 1.529l.937 6.696-4.358-3.213c-.479-.353-1.103-.359-1.586-.021-.512.357-.736 1.011-.558 1.624l1.899 6.547-4.843-2.269c-.521-.247-1.127-.139-1.539.272-.438.436-.556 1.109-.294 1.676l2.835 6.156-5.213-1.213c-.545-.129-1.112.095-1.438.567-.346.5-.35 1.175-.013 1.677l3.702 5.53-5.451-.07c-.005 0-.01 0-.015 0-.549 0-1.047.333-1.271.852-.241.554-.131 1.189.278 1.619l4.444 4.674-5.516 1.141c-.542.112-.969.546-1.089 1.105-.124.578.097 1.17.563 1.508l5.021 3.634-5.372 2.364c-.512.226-.846.745-.85 1.324-.004.58.322 1.104.832 1.338l5.39 2.464-5.015 3.53c-.471.33-.7.918-.585 1.498.112.562.534 1.002 1.074 1.122l5.549 1.23-4.463 4.583c-.414.425-.531 1.059-.298 1.614.221.526.722.866 1.276.868l5.501.009-3.735 5.444c-.342.499-.344 1.173-.006 1.676.319.475.886.707 1.431.585l5.271-1.149-2.874 6.082c-.268.564-.156 1.239.276 1.68.387.392.946.506 1.451.314-1.165 5.062-1.216 10.181.575 14.722.192.633 1.254 3.602 2.207 5.578-3.146 1.142-4.798 3.729-4.683 7.404.017.54.459.969.999.969h61.021c.54 0 .982-.429 1-.969.113-3.657-1.521-6.236-4.636-7.388.791-1.442 1.428-2.984 1.898-4.599.479-1.643.779-3.551.886-5.588.442-3.177.22-6.639-.634-10.304l.442.207c.521.247 1.127.138 1.538-.271.438-.436.557-1.11.295-1.678l-2.835-6.155 5.213 1.213c.545.131 1.111-.095 1.438-.567.345-.499.35-1.174.013-1.678l-3.702-5.529 5.448.069c.576-.009 1.061-.326 1.289-.849.241-.555.132-1.191-.278-1.621l-4.444-4.674 5.516-1.141c.542-.112.969-.546 1.089-1.105.124-.578-.097-1.17-.563-1.508l-5.021-3.634 5.372-2.364c.512-.225.846-.745.85-1.324z" fill="#e6e7e8"/><path d="m101.435 56.073-6.247-2.855c-.301-.138-.337-.607-.061-.801l5.775-4.066c.306-.216.221-.747-.132-.825l-6.522-1.446c-.32-.071-.431-.528-.189-.776l5.127-5.265c.269-.276.098-.784-.264-.785l-6.586-.011c-.329 0-.514-.432-.311-.728l4.308-6.279c.225-.328-.027-.798-.386-.719l-6.44 1.406c-.327.072-.581-.322-.423-.656l3.35-7.087c.175-.37-.151-.787-.494-.632l-6.105 2.761c-.314.142-.629-.2-.52-.564l2.302-7.665c.121-.402-.269-.753-.585-.527l-5.603 4.021c-.289.208-.658-.073-.601-.457l1.197-7.996c.063-.423-.379-.698-.657-.407l-4.936 5.154c-.255.266-.666.058-.663-.336l.067-8.081c.004-.432-.478-.622-.709-.279l-3.851 5.705c-.508-.149-.552-.162-1.06-.312l-.984-7.396c-.057-.429-.562-.527-.741-.143l-2.84 6.117c-.651-.065-.705-.07-1.357-.135l-1.885-6.656c-.119-.412-.632-.414-.753-.002l-1.951 6.676c-.652.057-.706.062-1.358.119l-2.767-6.124c-.175-.386-.681-.295-.742.134l-1.056 7.398c-.517.145-.562.158-1.08.303l-3.763-5.708c-.228-.346-.711-.163-.712.27l-.01 8.122c0 .394-.414.597-.666.328l-4.858-5.19c-.275-.294-.72-.025-.661.399l1.125 8.053c.054.385-.318.661-.605.449l-5.525-4.073c-.313-.231-.708.115-.59.519l2.245 7.737c.106.365-.213.704-.526.558l-6.047-2.833c-.342-.16-.672.253-.501.626l3.303 7.17c.155.336-.103.727-.429.65l-6.386-1.486c-.358-.083-.615.383-.394.714l4.269 6.376c.2.298.01.728-.319.723l-6.541-.083c-.362-.005-.539.501-.273.781l5.102 5.366c.24.252.123.708-.198.774l-6.498 1.344c-.354.073-.445.603-.141.823l5.774 4.179c.274.198.233.667-.07.8l-6.238 2.745c-.335.147-.338.686-.005.838l6.247 2.855c.301.138.337.607.061.801l-5.775 4.066c-.306.215-.221.747.132.825l6.522 1.446c.32.071.431.528.189.776l-5.127 5.265c-.269.276-.098.784.264.785l6.586.011c.329 0 .514.432.311.728l-4.308 6.279c-.225.328.027.798.386.719l6.44-1.406c.327-.072.581.322.423.656l-3.35 7.087c-.175.37.151.787.494.632l1.788-.808c2.201-7.723 6.917-15.258 11.815-20.186.256-.258.513-.544.77-.834 4.045 3.542 9.526 5.55 15.565 5.55 5.886 0 11.242-1.904 15.255-5.28.173.189.347.389.52.563 3.981 4.005 7.841 9.732 10.331 15.881l.002-.002c.42.885.815 1.991 1.165 3.24.087.274.161.55.241.825l2.377 1.114c.342.16.672-.253.501-.626l-3.303-7.171c-.155-.336.103-.726.429-.65l6.386 1.486c.358.083.615-.383.394-.714l-4.269-6.376c-.2-.298-.01-.728.319-.723l6.541.083c.362.005.539-.501.273-.781l-5.102-5.366c-.24-.252-.123-.708.198-.774l6.498-1.344c.354-.073.445-.604.141-.823l-5.774-4.178c-.274-.198-.233-.667.07-.8l6.238-2.745c.337-.15.34-.688.007-.84z" fill="#fa759e"/><path d="m31.489 116.958h61.021c.144-4.612-2.713-6.219-5.147-6.757 1.015-1.614 1.859-3.451 2.45-5.478.481-1.649.751-3.51.856-5.445.567-4.078-.035-8.487-1.396-12.803-.35-1.249-.744-2.354-1.165-3.24l-.002.002c-2.489-6.149-6.35-11.876-10.331-15.881-.173-.174-.347-.374-.52-.563-4.013 3.375-9.37 5.28-15.255 5.28-6.04 0-11.52-2.008-15.565-5.55-.257.29-.514.576-.77.834-8.442 8.493-16.358 24.729-11.753 36.324.086.351 1.71 4.908 2.725 6.521-2.435.537-5.292 2.144-5.148 6.756z" fill="#6dc9f7"/><path d="m74.669 107.016h-1.285c-1.26 0-2.281-1.021-2.281-2.281v-9.437c-2.268-4.375-5.28-7.046-8.588-7.046-3.371 0-6.436 2.771-8.719 7.296v9.187c0 1.26-1.021 2.281-2.281 2.281h-1.154c-.198 1.299-.353 2.638-.457 4.014-.003.043-.006.089-.01.136-.18 2.673 1.943 4.945 4.622 4.945h15.998c2.676 0 4.812-2.265 4.623-4.934-.001-.014-.002-.028-.003-.042-.104-1.413-.262-2.787-.465-4.119z" fill="#ffd7e5"/><path d="m87.103 34.563c0-2.904-2.354-5.258-5.258-5.258-2.351 0-4.341 1.544-5.014 3.673-3.962-3.613-9.149-5.808-14.831-5.808-5.372 0-10.301 1.96-14.173 5.226-.593-2.254-2.639-3.919-5.079-3.919-2.904 0-5.258 2.354-5.258 5.258 0 2.802 2.194 5.086 4.957 5.242-1.89 3.431-2.976 7.404-2.976 11.643 0 12.951 10.086 21.451 22.529 21.451 12.442 0 22.529-8.499 22.529-21.451 0-3.899-.92-7.573-2.537-10.808 2.835-.077 5.111-2.395 5.111-5.249z" fill="#fff"/><path d="m90.103 37.563c0-2.904-2.354-5.258-5.258-5.258-2.351 0-4.341 1.544-5.014 3.673-3.962-3.613-9.149-5.808-14.831-5.808-5.372 0-10.301 1.96-14.173 5.226-.593-2.254-2.639-3.919-5.079-3.919-2.904 0-5.258 2.354-5.258 5.258 0 2.802 2.194 5.086 4.957 5.242-1.89 3.431-2.976 7.404-2.976 11.643 0 12.951 10.086 21.451 22.529 21.451 12.442 0 22.529-8.499 22.529-21.451 0-3.899-.92-7.573-2.537-10.808 2.835-.077 5.111-2.395 5.111-5.249z" fill="#6dc9f7"/><path d="m62 49.499c-6.04 0-10.936 4.896-10.936 10.936s4.896 8.935 10.936 8.935 10.936-2.896 10.936-8.936-4.896-10.935-10.936-10.935z" fill="#ffd7e5"/><g fill="#fa759e"><path d="m79.273 34.608c0-1.476 1.201-2.678 2.679-2.678 1.476 0 2.678 1.201 2.678 2.678s-1.201 2.678-2.678 2.678c-1.478-.001-2.679-1.202-2.679-2.678z"/><path d="m43.021 31.241c-1.477 0-2.679 1.201-2.679 2.678s1.201 2.678 2.679 2.678c1.476 0 2.678-1.201 2.678-2.678s-1.202-2.678-2.678-2.678z"/><circle cx="55.662" cy="58.644" r=".506"/><circle cx="52.408" cy="60.132" r=".506"/><circle cx="52.672" cy="56.992" r=".506"/><circle cx="68.338" cy="58.644" r=".506"/><circle cx="71.592" cy="60.132" r=".506"/><circle cx="71.328" cy="56.992" r=".506"/></g><ellipse cx="47.411" cy="47.325" fill="#ffd7e5" rx="1.548" ry="1.055"/><ellipse cx="76.589" cy="47.325" fill="#ffd7e5" rx="1.548" ry="1.055"/><path d="m102.683 56.5c.004-.579-.323-1.104-.832-1.336l-5.389-2.464 5.015-3.53c.47-.33.699-.916.585-1.495-.111-.563-.532-1.004-1.074-1.126l-5.549-1.23 4.463-4.582c.415-.426.531-1.061.297-1.617-.222-.525-.724-.865-1.275-.865l-5.501-.01 3.734-5.442c.343-.5.346-1.174.006-1.678-.32-.476-.88-.707-1.43-.584l-5.271 1.149 2.875-6.083c.267-.564.155-1.239-.278-1.679-.406-.414-1.008-.528-1.532-.291l-4.901 2.216 1.948-6.484c.184-.612-.034-1.268-.542-1.631-.481-.343-1.103-.342-1.584.003l-4.431 3.181.996-6.65c.096-.642-.219-1.258-.782-1.535-.532-.264-1.17-.146-1.587.288l-3.863 4.035.055-6.599c.006-.651-.395-1.216-.995-1.402-.579-.178-1.196.045-1.543.556l-3.229 4.783-.847-6.358c-.085-.646-.56-1.143-1.18-1.237-.61-.088-1.195.231-1.459.805l-2.524 5.437-1.689-5.962c-.175-.619-.711-1.037-1.333-1.04-.002 0-.004 0-.005 0-.62 0-1.156.413-1.335 1.028l-1.747 5.979-2.46-5.442c-.261-.574-.843-.904-1.452-.817-.62.088-1.099.579-1.191 1.223l-.91 6.382-3.163-4.798c-.34-.515-.955-.747-1.536-.574-.603.181-1.009.739-1.011 1.393l-.008 6.632-3.794-4.054c-.412-.441-1.051-.563-1.585-.308-.567.271-.889.885-.798 1.527l.936 6.697-4.357-3.212c-.477-.351-1.099-.36-1.585-.022-.513.357-.737 1.011-.559 1.625l1.899 6.547-4.842-2.269c-.524-.246-1.127-.14-1.539.271-.438.436-.557 1.11-.295 1.677l2.835 6.156-5.213-1.213c-.545-.128-1.112.096-1.438.567-.346.5-.35 1.175-.013 1.677l3.701 5.529-5.45-.069c-.005 0-.01 0-.015 0-.548 0-1.046.333-1.271.851-.241.554-.132 1.189.277 1.62l4.444 4.674-5.515 1.141c-.542.112-.969.546-1.089 1.105-.124.578.097 1.17.563 1.508l5.021 3.634-5.372 2.364c-.512.226-.846.745-.85 1.324-.004.58.322 1.104.832 1.338l5.39 2.464-5.019 3.532c-.469.331-.697.919-.58 1.498.112.562.534 1.001 1.073 1.12l5.549 1.23-4.464 4.583c-.414.426-.53 1.061-.296 1.616.221.524.721.864 1.274.866l5.502.009-3.735 5.444c-.342.499-.344 1.173-.006 1.676.319.475.886.707 1.43.585l5.272-1.15-2.876 6.083c-.267.563-.155 1.238.276 1.678.386.393.945.507 1.451.316-1.165 5.062-1.216 10.181.575 14.722.191.629 1.258 3.604 2.207 5.577-3.145 1.143-4.797 3.73-4.682 7.405.017.54.459.969.999.969h61.023c.54 0 .982-.429 1-.969.114-3.656-1.521-6.236-4.635-7.388.791-1.442 1.428-2.983 1.898-4.599.479-1.643.779-3.551.886-5.588.442-3.177.22-6.64-.635-10.304l.442.207c.521.247 1.128.138 1.538-.271.438-.436.557-1.11.295-1.679l-2.836-6.154 5.214 1.213c.545.13 1.111-.095 1.438-.567.345-.499.35-1.174.013-1.678l-3.702-5.529 5.448.069c.581.034 1.06-.325 1.288-.848.242-.554.133-1.191-.277-1.623l-4.444-4.673 5.516-1.142c.542-.112.969-.546 1.089-1.105.124-.577-.097-1.169-.563-1.507l-5.021-3.635 5.374-2.363c.511-.224.844-.745.847-1.324zm-11.839 30.318-.498-.233c-.039-.127-.07-.252-.111-.38-.275-.981-.571-1.861-.886-2.63zm3.944-28.078c-.464.205-.786.656-.841 1.178-.056.528.171 1.046.59 1.349l4.788 3.465-5.271 1.091c-.495.103-.898.476-1.055.973-.162.52-.033 1.083.335 1.47l4.222 4.44-5.197-.066c-.474-.021-.982.277-1.231.737-.266.49-.238 1.081.07 1.543l3.499 5.227-4.952-1.152c-.511-.119-1.033.063-1.369.474-.27.331-.378.764-.312 1.181-1.901-4.089-4.41-8.04-7.212-11.376-.492.448-1.006.873-1.541 1.273 3.176 3.778 5.973 8.384 7.869 13.068.016.04.034.078.055.114.382.817.743 1.833 1.084 3.05 1.419 4.494 1.876 8.654 1.352 12.448-.105 1.968-.381 3.724-.816 5.219-.491 1.682-1.187 3.268-2.053 4.736-.688-.099-2.555-.215-3.984 1.121-.403.377-.425 1.01-.048 1.413.197.211.464.317.73.317.245 0 .49-.089.683-.27.947-.883 2.418-.592 2.461-.585.16.035.315.02.464-.019.015.004.026.017.041.02 2.674.591 4.131 2.197 4.341 4.781h-58.979c.211-2.584 1.667-4.19 4.341-4.781h.001c.014-.006 1.506-.309 2.463.584.192.181.438.27.683.27.268 0 .534-.106.73-.317.377-.403.355-1.036-.048-1.413-1.165-1.089-2.62-1.209-3.497-1.165-.917-1.764-2.192-5.3-2.302-5.696-.011-.044-.024-.087-.041-.129-4.629-11.655 3.957-27.63 11.532-35.25.043-.043.086-.093.128-.137 4.052 3.254 9.399 5.148 15.499 5.148 9.202 0 16.696-4.306 20.599-11.103h5.339c.553 0 1-.447 1-1s-.447-1-1-1h-4.327c.512-1.159.93-2.375 1.241-3.645h3.086c.553 0 1-.447 1-1s-.447-1-1-1h-2.69c.18-1.178.276-2.394.279-3.644h2.411c.553 0 1-.447 1-1s-.447-1-1-1h-2.49c-.21-2.802-.869-5.508-1.983-8.074 2.691-.707 4.639-3.133 4.639-6.044 0-3.45-2.808-6.258-6.258-6.258-2.249 0-4.265 1.18-5.374 3.045-4.125-3.351-9.214-5.181-14.472-5.181-4.928 0-9.757 1.628-13.742 4.607-1.071-1.996-3.171-3.299-5.51-3.299-3.45 0-6.258 2.807-6.258 6.257 0 2.81 1.865 5.208 4.45 5.986-1.341 2.796-2.145 5.843-2.385 8.959h-3.026c-.553 0-1 .447-1 1s.447 1 1 1h2.944c.003 1.25.099 2.465.279 3.644h-3.223c-.553 0-1 .447-1 1s.447 1 1 1h3.619c.311 1.27.73 2.486 1.241 3.645h-4.86c-.553 0-1 .447-1 1s.447 1 1 1h5.872c.983 1.712 2.191 3.266 3.599 4.633-.015.015-.031.034-.046.049-3.207 3.226-6.578 7.897-9.137 13.14-.048-.105-.102-.208-.175-.3-.33-.414-.854-.608-1.361-.492l-5.01 1.094 3.53-5.145c.313-.456.346-1.046.087-1.539-.243-.464-.711-.752-1.222-.754l-5.25-.009 4.24-4.354c.372-.381.507-.941.353-1.463-.149-.499-.548-.878-1.041-.988l-5.304-1.176 4.782-3.366c.423-.298.654-.811.606-1.34-.049-.522-.365-.978-.826-1.188l-5.151-2.354 5.133-2.259c.464-.204.787-.653.843-1.174.057-.529-.169-1.048-.589-1.353l-4.789-3.466 5.272-1.09c.494-.103.897-.476 1.053-.974.162-.52.034-1.082-.334-1.469l-4.223-4.441 5.194.066h.02c.504 0 .969-.28 1.216-.736.266-.491.239-1.083-.07-1.543l-3.499-5.227 4.952 1.152c.508.121 1.034-.063 1.371-.477.355-.437.431-1.052.193-1.565l-2.663-5.782 4.575 2.144c.489.229 1.05.152 1.463-.203.436-.373.611-.979.447-1.539l-1.774-6.116 4.092 3.017c.443.325 1.032.354 1.503.075.499-.298.769-.874.686-1.468l-.869-6.226 3.543 3.786c.39.414.977.547 1.498.343.545-.216.897-.748.897-1.354l.008-6.143 2.643 4.01c.239.362.688.531 1.106.412l1.077-.303c.382-.106.664-.429.721-.821l.763-5.346 1.901 4.208c.175.386.567.624.998.584l1.359-.119c.41-.036.757-.32.872-.716l1.357-4.643 1.309 4.619c.111.396.454.683.863.723l1.355.135c.42.037.828-.188 1.007-.574l1.956-4.212.711 5.344c.052.392.33.716.709.827l1.062.313c.416.121.865-.04 1.109-.4l2.715-4.022-.051 6.109c-.005.607.343 1.142.886 1.363.514.21 1.104.084 1.5-.327l3.609-3.77-.926 6.181c-.087.593.177 1.171.674 1.474.474.29 1.049.266 1.5-.059l4.165-2.989-1.82 6.06c-.168.561.002 1.167.435 1.545.409.358.967.439 1.455.218l4.635-2.096-2.7 5.715c-.243.512-.174 1.126.176 1.565.332.418.855.606 1.363.494l5.009-1.093-3.53 5.145c-.313.458-.345 1.049-.085 1.542.244.463.713.75 1.221.75l5.249.01-4.24 4.354c-.372.383-.507.944-.351 1.466.15.499.55.876 1.04.984l5.304 1.176-4.78 3.366c-.424.297-.657.81-.608 1.34.048.523.364.979.826 1.189l5.15 2.354zm-51.287 1.229h-.861c-.577-1.149-1.046-2.365-1.397-3.645h2.258c.553 0 1-.447 1-1s-.447-1-1-1h-2.701c-.2-1.176-.322-2.388-.326-3.644h3.026c.553 0 1-.447 1-1s-.447-1-1-1h-2.938c.271-3.24 1.205-6.395 2.761-9.22.166-.301.165-.666-.001-.967-.166-.3-.476-.494-.818-.514-2.251-.129-4.014-1.993-4.014-4.245 0-2.348 1.91-4.257 4.258-4.257 1.929 0 3.62 1.305 4.112 3.173.087.331.338.595.665.698.33.104.685.033.946-.188 3.815-3.219 8.62-4.991 13.528-4.991 5.207 0 10.234 1.97 14.158 5.548.253.229.604.312.934.227.33-.089.591-.34.694-.665.561-1.779 2.192-2.975 4.06-2.975 2.348 0 4.258 1.91 4.258 4.258 0 2.319-1.818 4.187-4.14 4.25-.342.01-.655.193-.83.486-.176.293-.189.655-.037.961 1.325 2.65 2.104 5.476 2.344 8.421h-3.476c-.553 0-1 .447-1 1s.447 1 1 1h3.561c-.003 1.256-.125 2.467-.326 3.644h-3.235c-.553 0-1 .447-1 1s.447 1 1 1h2.793c-.351 1.28-.82 2.496-1.397 3.645h-1.396c-.553 0-1 .447-1 1s.447 1 1 1h.245c-3.713 5.6-10.261 9.103-18.21 9.103-7.974 0-14.535-3.524-18.242-9.154.425-.115.743-.487.743-.948.001-.554-.446-1.001-.999-1.001z" fill="#3a2c60"/><path d="m53.796 85.453c-.553 0-1 .447-1 1v18.281c0 .707-.575 1.282-1.281 1.282h-.851v-2.671c0-.553-.447-1-1-1s-1 .447-1 1v2.671h-2.09v-2.671c0-.553-.447-1-1-1s-1 .447-1 1v2.671h-3.052c-.233-.687-.089-2.905.04-4.879.289-4.412.725-11.08-1.082-17.705-.146-.534-.699-.849-1.228-.702-.533.146-.848.695-.702 1.228 1.719 6.303 1.313 12.515 1.017 17.05-.238 3.634-.369 5.637.619 6.567.313.293.716.449 1.155.449.056 0 .112-.003.169-.008h10.004c1.81 0 3.281-1.473 3.281-3.282v-18.281c.001-.553-.446-1-.999-1z" fill="#3a2c60"/><path d="m71.103 99.176c.553 0 1-.447 1-1v-4.416c0-.553-.447-1-1-1s-1 .447-1 1v4.416c0 .553.447 1 1 1z" fill="#3a2c60"/><path d="m71.103 91.01c.553 0 1-.447 1-1v-3.557c0-.553-.447-1-1-1s-1 .447-1 1v3.557c0 .553.447 1 1 1z" fill="#3a2c60"/><path d="m78.324 103.346v2.671h-2.09v-2.671c0-.553-.447-1-1-1s-1 .447-1 1v2.671h-.851c-.706 0-1.281-.575-1.281-1.282v-2.554c0-.553-.447-1-1-1s-1 .447-1 1v2.554c0 1.81 1.472 3.282 3.281 3.282h10.005c.057.005.113.008.169.008.439 0 .843-.155 1.154-.449.988-.931.857-2.933.62-6.565-.297-4.536-.703-10.748 1.017-17.052.146-.532-.169-1.082-.702-1.228-.526-.147-1.082.168-1.228.702-1.808 6.626-1.371 13.294-1.083 17.707.129 1.973.274 4.19.04 4.877h-3.052v-2.671c0-.553-.447-1-1-1s-.999.447-.999 1z" fill="#3a2c60"/><path d="m61.13 61.515c0 1.186-1.136 2.149-2.532 2.149s-2.531-.964-2.531-2.149c0-.553-.447-1-1-1s-1 .447-1 1c0 2.288 2.032 4.149 4.531 4.149 1.435 0 2.701-.625 3.532-1.582.831.956 2.097 1.582 3.532 1.582 2.499 0 4.532-1.861 4.532-4.149 0-.553-.447-1-1-1s-1 .447-1 1c0 1.186-1.136 2.149-2.532 2.149s-2.532-.964-2.532-2.149v-4.53c0-.058-.024-.109-.033-.165.204.048.429.077.669.077.869 0 1.573-.352 1.573-.786s-.704-.786-1.573-.786c-.794 0-1.444.295-1.551.677-.03-.002-.055-.017-.085-.017-.119 0-.229.03-.335.068-.061-.406-.733-.728-1.561-.728-.869 0-1.573.352-1.573.786s.704.786 1.573.786c.357 0 .682-.062.946-.162-.021.082-.05.161-.05.249z" fill="#3a2c60"/><circle cx="68.871" cy="42.73" fill="#3a2c60" r="2.563"/><circle cx="54.742" cy="42.73" fill="#3a2c60" r="2.563"/></svg>