<svg id="Layer_1" enable-background="new 0 0 128 128" height="512" viewBox="0 0 128 128" width="512" xmlns="http://www.w3.org/2000/svg"><path d="m124.686 49.496c-.871-7.906-13.374-10.635-22.414-11.574l2.846-2.513c.548-.377 1.56-1.148 2.315-2.188 1.77-1.591 3.18-3.088 4.191-4.452.001-.001.001-.001.002-.002 1.027-1.393 1.188-3.04.439-4.521-1.138-2.253-4.052-3.708-7.425-3.708h-49.115c-4.168 0-7.781 2.095-8.593 4.98-.004.014-.001.03-.005.044-.003.011-.011.021-.013.032-.037.185-.065.365-.085.543-2.711.143-4.917.271-6.317.354-1.623.098-3.205.364-4.701.791-1.751.501-4.472 1.44-7.49 3.076-4.878 2.643-9.05 6.238-12.398 10.686-.332.441-1.521 2.16-1.817 2.626-1.053 1.659-2.01 3.437-2.845 5.282-.228.503-1.182 2.857-1.368 3.378-4.4 12.251-2.229 23.179-.544 28.6 1.032 3.359 2.709 6.442 4.979 9.16 2.534 3.058 7.1 7.727 13.679 11.347 3.785 2.559 8.41 4.861 13.906 6.177 11.391 2.725 21.331 2.006 27.108 1.098 2.278-.352 4.382-1.29 6.077-2.676l13.295 5.247c.036.014.072.025.11.036.358.095.72.142 1.079.142 1.217 0 2.411-.536 3.39-1.546 1.186-1.207 1.975-2.99 2.222-5.021.251-2.055-.074-4.039-.811-5.644.646-1.307 1.007-2.849 1.007-4.47 0-1.889-.478-3.625-1.273-4.987.118-.24.23-.487.33-.747.692-1.773.876-3.829.516-5.787-.455-2.47-1.693-4.426-3.398-5.365-1.175-.648-2.493-.737-3.709-.25-.034.015-.067.03-.101.047l-14.817 7.943c-.493.265-.93.647-1.306 1.111-.214-.122-.425-.247-.648-.355-.069-.034-.143-.06-.219-.076l-.236-.055c-.075-.018-.152-.026-.229-.026h-1.059c.611-1.334 1.183-2.219 1.196-2.238.951-1.416.574-3.343-.84-4.294-.687-.462-1.513-.631-2.322-.472-.812.158-1.514.623-1.977 1.309-.017.025-.072.109-.142.219.349-1.251-.103-2.637-1.236-3.399-.687-.462-1.513-.627-2.322-.473-.813.158-1.515.623-1.976 1.308-.142.21-2.405 3.624-3.324 8.04h-.779c.741-2.837 2.231-5.126 2.253-5.159.951-1.417.574-3.344-.84-4.295-.687-.462-1.509-.63-2.323-.472-.812.158-1.514.623-1.974 1.307-.14.207-2.34 3.517-3.284 7.841-3.199-1.014-5.976-2.971-8.02-5.539-1.039-2.247-1.635-4.738-1.635-7.367 0-.027.004-.052.004-.079 2.114 1.762 4.732 3.335 7.788 3.968.232.047.464.07.689.07 1.608 0 3.013-1.145 3.34-2.723.38-1.842-.809-3.651-2.651-4.033-3.078-.637-5.66-3.072-7.305-5.034.146-.292.293-.582.454-.864 2.347 2.38 5.608 4.834 9.621 5.665.229.047.464.071.695.071 1.607 0 3.013-1.145 3.34-2.722.184-.894-.006-1.776-.455-2.495.563.19 1.138.357 1.734.48.232.047.464.07.688.07 1.609 0 3.014-1.145 3.34-2.723.38-1.842-.809-3.651-2.65-4.033-2.508-.519-4.683-2.233-6.295-3.911l-.045-1.016c1.611-.245 3.245-.377 4.884-.377h24.077c.354 0 .684-.042.994-.127.992-.287 1.738-.552 2.409-.852 1.306-.568 2.518-1.198 3.604-1.875.139-.047.267-.124.374-.227l.033-.032c.881-.565 1.615-1.083 2.262-1.591 8.66.674 18.458 2.843 18.87 6.588.164 1.496 1.676 2.624 3.516 2.624.092 0 .185-.003.271-.009 1.075-.065 2.038-.515 2.643-1.232.467-.554.683-1.232.608-1.911-.674-6.116-8.313-9.132-15.922-10.62 8.154.822 16.655 2.942 17.039 6.426.166 1.495 1.678 2.623 3.516 2.623.092 0 .185-.003.271-.009 1.075-.065 2.038-.515 2.643-1.232.464-.554.68-1.233.606-1.911z" fill="#e6e7e8"/><path d="m95.852 34.722-4.015 3.546c7.422.332 22.195 2.118 22.805 7.646.109.986 1.216 1.733 2.522 1.733.069 0 .14-.002.211-.007 1.394-.085 2.432-.997 2.317-2.037-.867-7.864-15.268-10.191-23.84-10.881z" fill="#ffd7e5"/><g fill="#fa759e"><path d="m41.703 55.309c-.276.244-.551.49-.812.75-.884.884-1.664 1.868-2.347 2.921 2.247 2.322 5.405 4.753 9.293 5.558.165.034.33.051.492.051 1.12 0 2.124-.785 2.36-1.925.27-1.305-.569-2.581-1.874-2.852-2.908-.6-5.37-2.621-7.112-4.503z"/><path d="m45.502 52.724c-.301.151-.591.322-.882.49 2.181 2.079 5.078 4.1 8.555 4.819.165.034.33.051.492.051 1.12 0 2.124-.785 2.36-1.925.27-1.305-.569-2.581-1.874-2.852-2.478-.512-4.628-2.057-6.289-3.667-.268 1.317-1.124 2.461-2.362 3.084z"/><path d="m43.683 71.456c.165.034.33.051.492.051 1.12 0 2.124-.785 2.36-1.925.27-1.305-.569-2.581-1.874-2.852-3.181-.658-5.823-3.013-7.578-5.027-.727 1.716-1.174 3.573-1.322 5.507 2.099 1.868 4.768 3.594 7.922 4.246z"/><path d="m57.375 83.233c.708-3.337 2.518-6.088 2.553-6.139.644-.96.392-2.262-.569-2.907-.959-.647-2.263-.394-2.91.567-.144.213-2.58 3.9-3.321 8.48h4.247z"/><path d="m63.742 83.233c.81-2.19 1.836-3.757 1.862-3.796.644-.96.392-2.261-.569-2.907-.959-.647-2.263-.394-2.91.567-.118.175-1.786 2.701-2.79 6.136z"/><path d="m50.285 83.228c.606-3.588 2.618-6.658 2.654-6.713.644-.96.391-2.261-.569-2.907-.959-.647-2.263-.394-2.91.567-.144.214-2.593 3.921-3.327 8.518 1.334.333 2.72.528 4.152.535z"/><path d="m90.203 100.774c-.229 1.874-.955 3.435-1.943 4.442-.984 1.015-2.229 1.475-3.499 1.138l-15.23-6.01c-1.704-.672-2.775-3.161-2.462-5.723.313-2.562 1.904-4.343 3.66-4.095l15.694 2.21c2.534.673 4.237 4.29 3.78 8.038z"/><path d="m89.979 79.44c.338 1.837.136 3.708-.464 5.243-.593 1.54-1.584 2.744-2.829 3.243l-15.504 4.217c-1.735.472-3.425-1.098-3.888-3.61-.463-2.512.457-5.128 2.115-6.017l14.818-7.943c2.485-.996 5.075 1.192 5.752 4.867z"/></g><path d="m90.389 90.781c0 1.904-.528 3.631-1.379 4.88-.846 1.256-2.016 2.035-3.307 2.035l-15.71-1.93c-1.758-.216-3.11-2.385-3.11-4.988 0-2.603 1.352-4.772 3.11-4.988l15.71-1.93c2.576-.002 4.686 3.113 4.686 6.921z" fill="#ffd7e5"/><path d="m70.864 95.709-.05.088c-1.728 3.179-5.033 5.336-8.792 5.916-5.777.908-15.717 1.627-27.108-1.098-12.009-2.875-19.906-10.444-23.816-15.162-2.17-2.598-3.797-5.575-4.793-8.817-1.968-6.332-4.036-18.215 1.867-31.271 4.364-9.65 11.037-15.099 16.625-18.127 2.866-1.552 5.449-2.468 7.288-2.993 1.467-.419 2.965-.663 4.488-.754 1.514-.091 3.972-.234 6.994-.39.126 0 .227-.101.227-.202v-.126c0-.341.038-.669.101-.984l1.198 26.881c-2.75.87-5.21 2.397-7.203 4.39-3.204 3.204-5.197 7.632-5.197 12.488 0 9.738 7.96 17.685 17.685 17.685h15.919c.083.019.165.037.248.056 4.583 2.226 6.902 7.63 4.319 12.42z" fill="#fff"/><path d="m73.864 98.709-.05.088c-1.728 3.179-5.033 5.336-8.792 5.916-5.777.908-15.717 1.627-27.108-1.098-12.009-2.876-19.905-10.444-23.815-15.162-2.17-2.598-3.797-5.575-4.793-8.817-1.968-6.332-4.036-18.215 1.867-31.271 4.364-9.65 11.037-15.099 16.625-18.127 2.86-1.549 5.439-2.464 7.277-2.99 1.468-.42 2.969-.666 4.493-.757 1.513-.091 3.974-.234 7-.39.126 0 .227-.101.227-.202v-.126c0-.341.038-.669.101-.984l1.061 23.794c.078 1.746-.892 3.356-2.454 4.141-1.713.861-3.268 1.993-4.611 3.336-3.204 3.204-5.197 7.632-5.197 12.488 0 9.738 7.96 17.685 17.685 17.685h15.919c.083.019.165.037.248.056 4.581 2.225 6.9 7.63 4.317 12.42z" fill="#ffd7e5"/><path d="m23.421 27.824s-2.053 7.726 3.619 16.488c.572.884-.515 1.893-1.346 1.247-5.156-4.003-11.117-8.905-11.149-10.191-.058-2.269 8.876-7.544 8.876-7.544z" fill="#fa759e"/><path d="m4.88 54.893s4.315 6.729 14.609 8.458c1.038.174 1.049 1.657.011 1.835-6.434 1.103-14.074 2.193-15.045 1.349-1.713-1.489.425-11.642.425-11.642z" fill="#fa759e"/><path d="m15.079 89.733s7.982-.431 14.566-8.531c.664-.817 1.959-.095 1.602.896-2.217 6.14-5.039 13.322-6.253 13.751-2.14.755-9.915-6.116-9.915-6.116z" fill="#fa759e"/><path d="m47.975 102.617s6.013-5.267 6.192-15.704c.018-1.053 1.483-1.284 1.813-.284 2.047 6.199 4.261 13.592 3.57 14.677-1.217 1.916-11.575 1.311-11.575 1.311z" fill="#fa759e"/><path d="m106.821 24.174c-.908 1.224-2.235 2.674-4.138 4.377l-.017.025c-.803 1.148-2.06 1.968-2.148 2.031-.017.013-.017.013-.035.025l-13.741 12.135c-.908.795-1.938 1.514-3.003 2.195l-.105.101h-.052c-1.135.719-2.357 1.35-3.632 1.905-.733.328-1.501.58-2.287.807-.227.063-.471.088-.716.088h-24.078c-2.549 0-5.011.29-7.316.807l-1.659-26.881c.681-2.422 3.841-4.251 7.63-4.251h49.116c5.064 0 8.433 3.583 6.181 6.636z" fill="#fa759e"/><path d="m109.009 52.372c-1.305 0-2.413-.747-2.522-1.734-.674-6.106-18.632-7.647-24.87-7.706-1.399-.013-2.52-.869-2.502-1.912s1.199-1.87 2.565-1.865c2.933.027 28.689.574 29.857 11.173.115 1.039-.922 1.952-2.317 2.037-.071.005-.142.007-.211.007z" fill="#ffd7e5"/><path d="m120.686 45.496c-.871-7.907-13.374-10.635-22.414-11.574l2.846-2.513c.544-.374 1.545-1.138 2.312-2.185 1.771-1.592 3.183-3.09 4.195-4.455.001-.001.001-.001.002-.002 1.027-1.393 1.188-3.04.439-4.521-1.138-2.253-4.052-3.708-7.425-3.708h-49.117c-4.168 0-7.781 2.095-8.593 4.98-.004.014-.001.029-.005.044-.003.011-.011.021-.013.032-.036.183-.064.363-.084.543-2.712.143-4.917.271-6.317.354-1.624.098-3.206.364-4.702.791-1.751.501-4.472 1.44-7.49 3.076-4.878 2.643-9.05 6.238-12.398 10.686-.332.441-.244 1.068.197 1.4.443.333 1.068.243 1.4-.197 3.175-4.217 7.129-7.625 11.754-10.131 2.858-1.549 5.432-2.438 7.086-2.91 1.356-.388 2.795-.63 4.273-.719 1.414-.085 3.654-.215 6.365-.357l1.063 23.834c-2.563.933-4.929 2.438-6.877 4.388-3.54 3.54-5.49 8.227-5.49 13.195 0 10.303 8.382 18.685 18.686 18.685h15.807l.023.006c2.09 1.046 3.676 2.854 4.36 4.978.651 2.019.449 4.1-.573 5.996l-.062.107c-1.546 2.844-4.562 4.864-8.068 5.405-6.11.962-15.707 1.554-26.721-1.082-11.926-2.856-19.703-10.516-23.28-14.83-2.103-2.519-3.651-5.369-4.605-8.474-1.611-5.186-3.688-15.631.515-27.332.187-.52-.084-1.093-.604-1.279-.519-.187-1.093.083-1.279.604-4.399 12.249-2.228 23.178-.543 28.599 1.032 3.357 2.708 6.44 4.979 9.162 3.733 4.503 11.861 12.505 24.353 15.496 6.064 1.45 11.709 1.95 16.612 1.95 4.26 0 7.959-.378 10.881-.837 4.117-.636 7.676-3.038 9.508-6.408l.063-.11c1.281-2.375 1.54-5.067.729-7.581-.225-.699-.533-1.367-.904-2l14.19-1.742c1.974.05 3.63 2.74 3.63 5.921 0 1.643-.428 3.176-1.208 4.321-.679 1.007-1.537 1.57-2.422 1.593l-10.871-1.335c-.063.653-.206 1.309-.43 1.962l11.123 1.367c.041.005.081.008.122.008 1.2 0 2.329-.501 3.273-1.43.278 1.04.377 2.209.234 3.387-.193 1.572-.8 2.979-1.669 3.866-.438.451-1.34 1.157-2.473.881l-12.43-4.906c-.464.56-.974 1.08-1.541 1.543l13.295 5.247c.036.014.072.025.11.036.358.095.72.142 1.08.142 1.216 0 2.411-.536 3.39-1.546 1.185-1.208 1.974-2.99 2.222-5.021.251-2.055-.08-4.031-.818-5.634.649-1.309 1.012-2.855 1.012-4.48 0-1.893-.48-3.632-1.279-4.996.119-.238.235-.479.335-.738.693-1.774.877-3.83.516-5.787-.455-2.471-1.693-4.426-3.398-5.365-1.175-.648-2.494-.737-3.709-.248-.034.014-.068.029-.101.046l-14.817 7.942c-.492.264-.925.651-1.3 1.114-.215-.123-.429-.249-.654-.358-.069-.034-.143-.06-.219-.076l-.236-.055c-.075-.018-.152-.026-.229-.026h-1.059c.61-1.332 1.183-2.217 1.196-2.237.951-1.416.574-3.343-.839-4.295-1.414-.955-3.343-.579-4.3.837-.017.025-.067.101-.14.217.347-1.25-.106-2.635-1.238-3.396-.687-.462-1.513-.631-2.323-.472-.812.157-1.513.622-1.975 1.307-.142.21-2.4 3.623-3.318 8.04h-.78c.739-2.837 2.226-5.126 2.248-5.159.951-1.417.574-3.344-.84-4.294-.686-.462-1.51-.628-2.322-.473-.813.158-1.515.623-1.976 1.308-.14.207-2.334 3.521-3.277 7.842-6.752-2.137-11.662-8.459-11.662-15.908 0-4.435 1.742-8.618 4.904-11.781 1.897-1.896 4.232-3.323 6.756-4.129.066.014.132.032.2.032.073 0 .146-.008.219-.024.711-.16 1.431-.287 2.154-.398-.057.5-.197.98-.412 1.425 1.727 1.6 3.914 3.093 6.434 3.614.763.158 1.255.907 1.098 1.67-.154.747-.908 1.26-1.67 1.097-3.159-.654-5.808-2.452-7.846-4.346-.01.005-.019.012-.029.017-.609.306-1.189.657-1.756 1.029 2.31 2.246 5.429 4.473 9.225 5.259.229.047.464.071.695.071 1.607 0 3.013-1.145 3.34-2.722.38-1.843-.809-3.652-2.651-4.034-2.156-.446-4.058-1.771-5.573-3.198 1.353-.171 2.718-.267 4.088-.267h24.078c.353 0 .682-.042.994-.127.992-.288 1.738-.552 2.408-.852 1.309-.569 2.52-1.2 3.604-1.875.137-.046.264-.122.37-.224l.035-.034c.882-.567 1.617-1.085 2.264-1.592 8.66.674 18.457 2.843 18.87 6.588.164 1.496 1.676 2.624 3.516 2.624.092 0 .185-.003.271-.009 1.074-.064 2.037-.514 2.643-1.23.467-.555.683-1.233.608-1.913-.674-6.114-8.307-9.13-15.914-10.619 8.151.822 16.646 2.942 17.03 6.425.166 1.495 1.678 2.623 3.517 2.623.092 0 .186-.003.271-.009 1.076-.065 2.04-.515 2.645-1.233.466-.558.682-1.237.607-1.914zm-50.804 37.902 14.765-7.915c.653-.247 1.311-.19 1.952.163 1.16.639 2.056 2.125 2.396 3.975v.001c.275 1.493.15 3.042-.326 4.413-.865-.741-1.878-1.176-2.965-1.176-.041 0-.081.003-.122.008l-15.401 1.892c-.285-.305-.59-.592-.911-.864.185-.207.389-.378.612-.497zm-6.928-5.741c.339-.502 1.022-.634 1.523-.298.501.338.634 1.02.297 1.521-.019.029-.904 1.378-1.708 3.353h-2.362c.944-2.603 2.152-4.432 2.25-4.576zm-5.677-2.344c.164-.243.412-.408.7-.464.07-.014.141-.021.211-.021.217 0 .428.064.612.188.5.336.633 1.019.293 1.525-.105.158-1.68 2.581-2.503 5.69h-2.257c.877-3.798 2.819-6.733 2.944-6.918zm-6.988-.579c.164-.243.412-.407.7-.463.07-.014.141-.021.211-.021.217 0 .428.063.612.188.501.336.634 1.018.297 1.52-.028.041-1.835 2.791-2.626 6.229-.746-.04-1.482-.119-2.199-.254.842-3.934 2.876-7.009 3.005-7.199zm32.911-30.615c-.026.018-.052.035-.076.055-.026.014-.053.028-.077.044-1.039.659-2.215 1.275-3.505 1.837-.592.265-1.257.499-2.144.757-.126.034-.278.052-.451.052h-24.078c-2.148 0-4.292.2-6.389.596l-1.576-25.548c.661-1.933 3.465-3.372 6.62-3.372h49.116c2.985 0 4.983 1.311 5.64 2.609.412.816.324 1.635-.263 2.431-.948 1.276-2.294 2.698-4.002 4.227-.057.051-.125.134-.169.197-.41.586-1.089 1.227-1.94 1.813-.024.019-.062.047-.085.067l-7.382 6.519c-.905-.65-1.501-1.705-1.501-2.901 0-.553-.447-1-1-1s-1 .447-1 1c0 1.702.768 3.226 1.974 4.25l-.99.875c-3.703-.376-6.804-.456-8.238-.469-.006 0-.011 0-.016 0-1.935 0-3.527 1.274-3.554 2.847-.012.673.26 1.329.765 1.848.66.678 1.654 1.072 2.728 1.082.587.006 1.193.02 1.813.042-.075.046-.142.092-.22.142zm27.343 6.319c.015.134-.035.27-.149.404-.246.293-.719.493-1.242.524l-.143.005c-.846 0-1.483-.444-1.527-.843-.912-8.267-25.605-8.595-25.855-8.597-.527-.005-1.031-.188-1.313-.478-.134-.138-.2-.277-.197-.418.007-.408.687-.881 1.548-.881h.008c10.311.097 27.998 2.372 28.87 10.284zm8.006-4.32c-.246.293-.72.494-1.244.525l-.141.005c-.846 0-1.484-.444-1.528-.843-.638-5.786-12.919-7.681-20.322-8.299-.153-.213-.379-.357-.65-.399l1.55-1.368c9.942.837 21.774 3.54 22.484 9.977.014.132-.036.267-.149.402z" fill="#3a2c60"/><path d="m48.328 65.589c1.609 0 3.014-1.145 3.34-2.722.38-1.843-.809-3.652-2.651-4.034-2.64-.546-4.91-2.408-6.542-4.164-.523.413-1.028.846-1.501 1.313 1.854 1.999 4.493 4.159 7.638 4.809.763.158 1.255.907 1.098 1.671-.154.746-.907 1.262-1.669 1.096-3.736-.773-6.776-3.157-8.918-5.406-.4.546-.773 1.11-1.11 1.701 2.347 2.379 5.608 4.833 9.621 5.664.227.048.462.072.694.072z" fill="#3a2c60"/><path d="m43.886 70.477c-3.224-.667-5.926-2.535-7.985-4.48-.119.81-.2 1.631-.204 2.471 2.114 1.763 4.73 3.337 7.782 3.969.229.047.464.071.695.071 1.608 0 3.013-1.145 3.34-2.723.38-1.842-.809-3.651-2.651-4.033-3.078-.636-5.659-3.071-7.305-5.034-.331.663-.621 1.347-.868 2.053 1.853 2.033 4.53 4.27 7.768 4.94.763.158 1.256.907 1.098 1.669-.155.746-.908 1.262-1.67 1.097z" fill="#3a2c60"/><path d="m7.759 46.277c.134.061.273.089.411.089.381 0 .745-.219.912-.588.798-1.763 1.71-3.457 2.712-5.034.296-.467.157-1.084-.309-1.381-.466-.295-1.085-.157-1.381.309-1.051 1.657-2.008 3.434-2.845 5.282-.227.502-.003 1.095.5 1.323z" fill="#3a2c60"/><path d="m81.715 26.677c0-2.7-2.188-4.888-4.888-4.888s-4.888 2.188-4.888 4.888c0 2.699 2.188 4.888 4.888 4.888s4.888-2.189 4.888-4.888z" fill="#3a2c60"/></svg>