<svg id="Layer_1" enable-background="new 0 0 128 128" height="512" viewBox="0 0 128 128" width="512" xmlns="http://www.w3.org/2000/svg"><path d="m102.869 13.66c-3.76-5.325-8.255-8.113-13.36-8.286-10.949-.363-20.64 11.4-21.047 11.902-.04.049-.056.108-.085.162-1.617-.604-3.27-.685-4.897-.231-.887-1.071-10.352-12.16-20.989-11.832-5.105.173-9.6 2.961-13.36 8.286-.318.451-.211 1.075.24 1.395.452.316 1.076.21 1.394-.24 3.379-4.786 7.345-7.289 11.789-7.441 8.67-.257 16.9 8.306 18.946 10.602-.664-.545-1.501-.857-2.373-.857-2.07 0-3.754 1.684-3.754 3.754 0 1.011.42 1.975 1.134 2.674-.21.547-.316 1.044-.316 1.484 0 2.132 2.465 5.196 5.84 6.576l-3.514 5.143c-1.154 1.066-2.37 2.264-3.574 3.589-.662.729-1.309 1.492-1.946 2.271.048-1.842.035-3.664-.067-5.446-.293-5.106-1.214-9.661-1.936-12.582-.123-.499-.338-.89-.6-1.194-.128-.461-.409-.825-.75-1.049-.676-.444-1.762-.459-2.666.508-2.451 2.621-4.63 5.376-6.477 8.189-1.848 2.816-3.51 5.911-4.938 9.199-.342.786-.272 1.475.001 1.986-1.128 1.099-2.654 3.254-2.643 6.893.002.552.449.997 1 .997h.003c.553-.002.999-.451.997-1.003-.012-3.965 2.159-5.646 2.68-5.991.409-.096.832-.327 1.221-.742 2.449-2.619 4.628-5.375 6.477-8.19.215-.328.419-.672.629-1.007-.015 1.478 0 2.945.083 4.384.235 4.098.886 8.331 1.936 12.582.34 1.379 1.358 1.978 2.256 1.978.039 0 .077-.001.114-.003.726-.042 1.502-.495 1.896-1.395 1.488-1.194 3.379-2.829 5.33-4.798l3.969 13.519c-.88 1.259-1.656 2.957-2.307 4.973-.237-.384-.47-.774-.715-1.146-1.691-2.569-3.703-5.07-5.979-7.435-.332-.344-.722-.563-1.122-.662-.319-.358-.711-.512-1.078-.515-.004 0-.008 0-.013 0-.711 0-1.533.554-1.72 2.111-.489 4.101-.755 8.159-.79 12.063-.035 3.908.157 7.971.572 12.075.049.482.165.86.316 1.166-1.116 1.431-3.718 5.254-1.785 7.68.197.248.489.377.783.377.218 0 .438-.071.623-.218.432-.344.503-.974.159-1.405-.959-1.204.929-4.18 2.071-5.543.571-.201 1.112-.799 1.259-2.025.489-4.096.755-8.154.79-12.063.013-1.47-.016-2.967-.067-4.475.401.679.814 1.343 1.24 1.99 1.15 1.747 2.458 3.458 3.887 5.119-.188 1.327-.339 2.705-.441 4.127-.175.977-.335 1.954-.472 2.918-.372 2.599-.63 5.243-.759 7.784-1.732.925-3.774 2.116-5.857 3.564-3.14 2.183-5.721 4.491-7.333 6.043-.909.874-.882 1.889-.453 2.507.007.011.019.019.026.03.017.069.027.132.05.204 1.112 3.536 2.412 6.978 3.865 10.23 1.453 3.254 3.173 6.574 5.113 9.87.217.369.45.647.686.853-.477 1.584-1.301 5.411 1.313 6.865.154.086.321.126.485.126.351 0 .692-.186.875-.514.269-.482.095-1.092-.388-1.36-.34-.189-.544-.52-.666-.917l-.127-1.269c.04-1.03.327-2.118.548-2.739.466-.37.763-1.094.407-2.225-.762-2.427-2.051-6.172-3.864-10.231-1.61-3.604-3.341-6.804-4.643-9.062 2.502-1.267 4.875-2.664 7.054-4.177 1.016-.706 1.966-1.424 2.851-2.127.208 5.624 1.289 9.925 3.526 10.686.205.069.458.124.75.124.409 0 .893-.107 1.422-.433.134-.082.265-.196.397-.302 1.04 1.244 2.234 1.962 3.58 1.962s2.54-.718 3.58-1.962c.132.106.263.219.397.302.529.325 1.013.433 1.422.433.292 0 .546-.055.75-.125.029-.01.055-.031.084-.042 1.212 2.301 2.47 3.479 3.594 3.096 1.794-.61 2.811-5.045 2.877-11.231 2.022 1.368 4.196 2.64 6.486 3.8-1.747 3.029-3.315 6.071-4.649 9.058-1.455 3.257-2.755 6.699-3.865 10.231-.356 1.132-.059 1.855.408 2.225.221.621.508 1.708.548 2.738l-.127 1.27c-.122.397-.326.728-.665.917-.482.269-.656.878-.388 1.36.183.328.524.514.875.514.165 0 .332-.04.485-.126 2.614-1.455 1.789-5.282 1.313-6.865.237-.206.469-.485.686-.853 1.939-3.296 3.66-6.616 5.113-9.87 1.454-3.256 2.754-6.697 3.865-10.23.023-.072.032-.135.05-.204.008-.01.019-.019.026-.03.429-.618.456-1.633-.452-2.507-1.612-1.552-4.193-3.86-7.333-6.043-.883-.614-1.757-1.177-2.606-1.699-.139-1.779-.335-3.621-.605-5.507-.712-4.978-1.774-9.414-2.975-12.81.909-1.147 1.763-2.313 2.542-3.497.425-.646.839-1.31 1.24-1.989-.051 1.508-.08 3.005-.067 4.475.036 3.91.302 7.969.791 12.063.147 1.226.688 1.824 1.259 2.025 1.104 1.317 3.024 4.347 2.071 5.543-.344.432-.273 1.062.159 1.405.184.146.404.218.623.218.294 0 .585-.129.783-.377 1.933-2.426-.669-6.249-1.785-7.68.151-.306.268-.683.316-1.166.415-4.104.607-8.167.572-12.075-.044-4.872-.455-9.249-.791-12.063-.186-1.558-1.008-2.111-1.72-2.111-.004 0-.008 0-.012 0-.367.003-.761.158-1.08.517-.399.099-.788.317-1.121.661-2.277 2.364-4.289 4.866-5.979 7.434-.157.238-.304.49-.457.733-.622-1.834-1.35-3.388-2.169-4.559l3.878-13.211c1.843 1.833 3.615 3.357 5.025 4.489.394.9 1.17 1.354 1.896 1.396.038.002.076.003.115.003.898 0 1.917-.599 2.257-1.978 1.049-4.252 1.7-8.485 1.936-12.582.083-1.438.098-2.906.083-4.384.21.335.414.679.629 1.007 1.85 2.817 4.029 5.573 6.477 8.191.391.417.814.647 1.225.743.513.342 2.687 2.027 2.675 5.989-.002.552.444 1.001.997 1.003h.003c.551 0 .998-.445 1-.997.011-3.639-1.514-5.794-2.643-6.893.273-.511.343-1.2.001-1.986-1.429-3.288-3.091-6.384-4.939-9.199-1.847-2.814-4.026-5.569-6.477-8.189-.903-.967-1.989-.953-2.665-.508-.341.224-.622.587-.75 1.048-.262.304-.477.695-.6 1.195-1.049 4.251-1.7 8.484-1.936 12.582-.102 1.783-.115 3.604-.067 5.447-.637-.78-1.284-1.543-1.946-2.272-.807-.888-1.684-1.77-2.587-2.643-.127-.229-.256-.456-.403-.672l-3.702-5.418c3.375-1.38 5.84-4.444 5.84-6.576 0-.475-.122-1.013-.362-1.605.638-.687 1.002-1.594 1.002-2.553 0-2.07-1.684-3.754-3.753-3.754-.211 0-.418.019-.622.053 2.862-3.038 10.361-10.073 18.211-9.798 4.443.152 8.41 2.655 11.789 7.441.318.45.942.557 1.394.24.449-.32.556-.944.238-1.396z" fill="#e6e7e8"/><g fill="#0089ef"><path d="m77.293 45.192c-1.442-2.266-3.537-5.238-6.211-8.18s-5.432-5.311-7.55-6.963c-1.128-.879-2.194.09-1.426 1.296 1.442 2.267 3.536 5.238 6.211 8.18 2.674 2.943 5.432 5.311 7.55 6.963 1.128.88 2.194-.089 1.426-1.296z"/><path d="m90.286 36.634c-1.07-2.464-2.676-5.725-4.858-9.049s-4.536-6.094-6.371-8.056c-.977-1.045-2.181-.254-1.611 1.058 1.07 2.464 2.676 5.725 4.858 9.049s4.536 6.094 6.371 8.056c.976 1.045 2.181.254 1.611-1.058z"/><path d="m79.281 20.967c-.222-1.736-2.119-1.845-2.538-.146-.787 3.191-1.63 7.554-1.908 12.4s.059 9.277.476 12.537c.222 1.736 2.119 1.845 2.538.146.787-3.191 1.63-7.554 1.908-12.4s-.059-9.276-.476-12.537z"/><path d="m77.977 64.843c-.042-4.648-.414-8.863-.783-11.954-.196-1.646-1.271-1.636-1.437.013-.313 3.098-.609 7.318-.567 11.967.042 4.648.414 8.863.783 11.954.196 1.646 1.271 1.636 1.437-.013.314-3.098.609-7.319.567-11.967z"/><path d="m74.975 52.531c-1.701 1.765-3.874 4.266-5.864 7.29-1.99 3.023-3.428 6.009-4.377 8.269-.505 1.204.678 1.982 1.584 1.042 1.701-1.765 3.874-4.267 5.864-7.29s3.428-6.009 4.377-8.269c.505-1.203-.678-1.982-1.584-1.042z"/><path d="m82.097 94.015c-1.462 2.485-3.335 5.906-5.062 9.772s-2.987 7.46-3.823 10.123c-.445 1.417.54 1.697 1.318.374 1.462-2.485 3.335-5.906 5.062-9.772s2.987-7.46 3.823-10.123c.446-1.418-.539-1.697-1.318-.374z"/><path d="m83.3 92.669c-1.758-1.692-4.238-3.877-7.21-5.942-2.972-2.066-5.886-3.629-8.086-4.687-1.171-.563-1.868.435-.932 1.336 1.758 1.692 4.238 3.877 7.21 5.942 2.972 2.066 5.886 3.629 8.086 4.687 1.171.563 1.868-.435.932-1.336z"/><path d="m59.234 30.049c-2.119 1.651-4.876 4.02-7.55 6.963s-4.769 5.914-6.211 8.18c-.768 1.207.298 2.176 1.427 1.296 2.119-1.651 4.876-4.02 7.55-6.963s4.769-5.914 6.211-8.18c.767-1.206-.299-2.175-1.427-1.296z"/><path d="m43.71 19.529c-1.835 1.962-4.189 4.732-6.371 8.056s-3.787 6.586-4.858 9.049c-.57 1.312.634 2.103 1.611 1.058 1.835-1.962 4.189-4.732 6.371-8.056s3.787-6.585 4.858-9.049c.57-1.312-.634-2.102-1.611-1.058z"/><path d="m47.932 33.222c-.278-4.846-1.12-9.209-1.908-12.4-.419-1.699-2.316-1.591-2.538.146-.417 3.261-.754 7.691-.476 12.537s1.12 9.209 1.908 12.4c.419 1.699 2.316 1.59 2.538-.146.416-3.26.754-7.691.476-12.537z"/><path d="m47.01 52.901c-.167-1.649-1.241-1.659-1.437-.013-.369 3.092-.741 7.306-.783 11.954s.254 8.869.567 11.967c.167 1.649 1.241 1.659 1.437.013.369-3.091.741-7.306.783-11.954.041-4.648-.254-8.869-.567-11.967z"/><path d="m58.032 68.089c-.949-2.26-2.387-5.245-4.377-8.269-1.99-3.023-4.164-5.524-5.864-7.29-.905-.94-2.089-.161-1.584 1.042.949 2.26 2.387 5.245 4.377 8.269 1.99 3.023 4.164 5.525 5.864 7.29.906.941 2.09.162 1.584-1.042z"/><path d="m49.554 113.909c-.837-2.662-2.097-6.257-3.823-10.123s-3.6-7.287-5.062-9.772c-.779-1.323-1.764-1.044-1.318.374.837 2.662 2.097 6.257 3.823 10.123 1.727 3.866 3.6 7.287 5.062 9.772.778 1.323 1.764 1.043 1.318-.374z"/><path d="m54.762 82.039c-2.2 1.058-5.113 2.622-8.086 4.687-2.972 2.065-5.453 4.25-7.21 5.942-.936.901-.239 1.9.932 1.336 2.2-1.058 5.113-2.622 8.086-4.687 2.972-2.065 5.453-4.25 7.21-5.942.936-.9.239-1.899-.932-1.336z"/><path d="m69.971 21.031c0-.498-.213-1.156-.588-1.868.74-.494 1.228-1.335 1.228-2.291 0-1.521-1.233-2.754-2.754-2.754-.889 0-1.671.428-2.174 1.082-1.214-.773-2.611-1.294-4.102-1.294-1.539 0-2.977.557-4.217 1.372-.499-.699-1.313-1.159-2.238-1.159-1.521 0-2.754 1.233-2.754 2.754 0 1.013.553 1.889 1.368 2.367-.35.682-.55 1.311-.55 1.791 0 1.814 2.736 5.112 6.414 6.046l-4.45 6.513c-1.323 1.936-1.707 4.46-1.03 6.765l4.487 15.285c-2.698 3.452-4.589 11.464-4.589 20.799 0 12.488 3.384 22.612 7.559 22.612s7.559-10.124 7.559-22.612c0-9.335-1.891-17.346-4.589-20.799l4.487-15.285c.677-2.305.292-4.829-1.03-6.765l-4.45-6.513c3.678-.935 6.413-4.233 6.413-6.046z"/></g><path d="m61.85 55.107c-2.811-.956-6.454 7.816-8.137 19.592s-.769 22.097 2.042 23.052c2.811.956 6.454-7.816 8.137-19.592 1.682-11.776.768-22.096-2.042-23.052z" fill="#6dc9f7"/><path d="m69.45 74.699c-1.683-11.776-5.327-20.547-8.137-19.592-2.811.956-3.725 11.276-2.041 23.052 1.683 11.776 5.327 20.547 8.137 19.592 2.81-.956 3.724-11.276 2.041-23.052z" fill="#fff"/><path d="m73.45 78.699c-1.683-11.776-5.327-20.547-8.137-19.592-2.811.956-3.725 11.276-2.041 23.052 1.683 11.776 5.327 20.547 8.137 19.592 2.81-.956 3.724-11.276 2.041-23.052z" fill="#6dc9f7"/><path d="m76.661 85.905c-.839-.583-1.714-1.143-2.606-1.692.065.837.119 1.659.156 2.461.441.288.881.577 1.308.873 2.099 1.459 4.239 3.188 6.242 5.043-1.889-.954-4.375-2.334-6.908-4.094-.198-.138-.394-.286-.591-.427.023.842.033 1.662.024 2.451 2.024 1.369 4.199 2.64 6.486 3.8-1.748 3.031-3.316 6.073-4.649 9.057-1.452 3.251-2.752 6.693-3.865 10.231-.357 1.136-.056 1.861.413 2.23.424 1.204 1.123 4.157-.249 4.92-.483.269-.657.877-.388 1.36.183.328.524.514.875.514.165 0 .331-.04.485-.126 2.614-1.454 1.79-5.281 1.313-6.865.237-.206.469-.484.686-.853 1.94-3.297 3.66-6.618 5.113-9.871 1.454-3.255 2.754-6.697 3.864-10.23.022-.071.032-.135.05-.203.008-.011.019-.019.027-.03.43-.618.457-1.634-.452-2.508-2.348-2.258-4.815-4.291-7.334-6.041zm2.018 18.197c-1.005 2.252-2.181 4.608-3.456 6.936.83-2.351 1.742-4.643 2.726-6.844 1.021-2.286 2.178-4.607 3.453-6.933-.708 2.003-1.616 4.365-2.723 6.841z" fill="#3a2c60"/><path d="m69.309 73.709c-.546.078-.926.585-.848 1.132.333 2.332.57 4.649.704 6.887.032.531.472.94.997.94.02 0 .041-.001.061-.002.552-.033.972-.507.938-1.058-.137-2.292-.379-4.664-.721-7.051-.078-.546-.58-.927-1.131-.848z" fill="#3a2c60"/><path d="m98.869 9.661c-3.76-5.326-8.255-8.114-13.36-8.287-10.964-.323-20.639 11.4-21.046 11.901-.04.05-.058.107-.087.162-1.617-.604-3.268-.685-4.895-.231-.874-1.057-10.046-11.84-20.482-11.84-.168 0-.338.003-.507.008-5.104.173-9.6 2.961-13.36 8.287-.318.451-.211 1.075.24 1.395.452.317 1.076.21 1.394-.24 3.379-4.786 7.345-7.29 11.789-7.442 8.659-.274 16.903 8.309 18.948 10.604-.664-.546-1.501-.859-2.375-.859-2.07 0-3.754 1.684-3.754 3.754 0 1.011.42 1.976 1.134 2.674-.21.547-.316 1.044-.316 1.485 0 2.131 2.465 5.196 5.841 6.576l-3.537 5.176c-1.252 1.154-2.445 2.338-3.552 3.556-.664.731-1.309 1.5-1.946 2.283.048-1.846.035-3.672-.067-5.458-.235-4.096-.887-8.329-1.936-12.581-.123-.497-.337-.886-.599-1.189-.127-.464-.409-.83-.752-1.055-.677-.443-1.762-.459-2.665.508-2.449 2.619-4.628 5.374-6.477 8.189-1.848 2.815-3.51 5.911-4.938 9.2-.342.786-.272 1.475.001 1.985-1.128 1.099-2.654 3.254-2.643 6.894.001.552.449.997 1 .997h.003c.552-.002.999-.451.997-1.003-.012-3.956 2.149-5.638 2.676-5.99.411-.096.835-.327 1.225-.745 2.449-2.619 4.628-5.374 6.477-8.189.218-.332.418-.687.629-1.027-.016 1.485 0 2.959.083 4.404.235 4.098.886 8.331 1.936 12.582.34 1.379 1.357 1.978 2.256 1.978.039 0 .077-.001.114-.003.731-.042 1.512-.502 1.904-1.415 1.901-1.527 3.675-3.135 5.317-4.799l3.975 13.54c-.88 1.258-1.656 2.955-2.307 4.97-.236-.385-.47-.772-.715-1.145-2.109-3.204-4.416-5.811-5.979-7.433-.333-.347-.725-.565-1.127-.664-.317-.356-.708-.512-1.073-.515-.004 0-.008 0-.013 0-.711 0-1.533.554-1.72 2.111-.489 4.096-.755 8.154-.79 12.063-.035 3.905.157 7.968.571 12.076.049.482.165.859.316 1.165-1.116 1.432-3.717 5.254-1.785 7.68.197.248.489.377.783.377.218 0 .438-.071.623-.218.432-.344.503-.974.159-1.405-.959-1.204.927-4.178 2.069-5.542.572-.201 1.114-.798 1.261-2.026.336-2.814.746-7.192.79-12.063.014-1.553-.013-3.047-.062-4.466.399.676.811 1.337 1.234 1.98 1.149 1.745 2.458 3.452 3.887 5.11-.189 1.331-.34 2.714-.443 4.142-.175.976-.334 1.951-.472 2.914-.372 2.605-.631 5.254-.76 7.8-2.061 1.098-4.03 2.279-5.856 3.547-3.14 2.183-5.721 4.491-7.333 6.043-.909.874-.882 1.889-.453 2.507.007.011.019.019.026.03.017.069.027.132.05.204 1.112 3.538 2.413 6.98 3.864 10.23 1.812 4.056 3.781 7.606 5.113 9.872.217.368.45.646.686.852-.477 1.584-1.301 5.411 1.313 6.865.154.086.32.126.485.126.351 0 .692-.186.875-.514.269-.483.095-1.092-.388-1.36-1.373-.763-.673-3.717-.249-4.92.469-.369.769-1.094.412-2.23-1.11-3.532-2.41-6.975-3.864-10.231-1.334-2.986-2.903-6.029-4.65-9.058 2.502-1.266 4.878-2.664 7.061-4.18.96-.668 1.909-1.391 2.85-2.138.207 5.629 1.288 9.935 3.526 10.696.204.07.458.125.75.125.409 0 .893-.107 1.421-.432.135-.083.268-.199.401-.306 1.039 1.243 2.231 1.966 3.576 1.966 1.343 0 2.531-.729 3.568-1.971.136.11.272.226.41.311.529.324 1.013.432 1.422.432.292 0 .545-.055.75-.124 2.993-1.017 3.48-9.142 3.551-12.587.011-.552-.427-1.009-.979-1.021-.542.014-1.009.428-1.021.979-.154 7.525-1.572 10.522-2.195 10.734-.051.018-.185.063-.482-.119-1.953-1.198-4.84-8.148-6.344-18.668-1.789-12.515-.381-21.367 1.379-21.965.006-.001.013-.001.02-.001.847 0 3.441 4.412 5.727 14.813.118.539.649.877 1.191.762.54-.118.881-.651.762-1.191-.585-2.663-1.791-7.617-3.385-11.375.553.086 1.129.504 1.708 1.207.4.486.801 1.105 1.198 1.849.343-.577.7-1.159 1.087-1.746 1.964-2.983 4.113-5.435 5.615-7.005-.849 1.999-2.25 4.941-4.214 7.927-.53.805-1.116 1.613-1.723 2.417.29.667.574 1.395.851 2.179.909-1.148 1.764-2.314 2.542-3.497.446-.677.857-1.349 1.247-2.012-.054 1.515-.088 3.021-.074 4.497.036 3.908.302 7.967.79 12.064.147 1.227.689 1.824 1.26 2.025 1.104 1.318 3.023 4.346 2.07 5.542-.344.432-.273 1.062.159 1.405.184.146.404.218.623.218.294 0 .585-.129.783-.377 1.933-2.426-.668-6.248-1.785-7.68.151-.305.267-.683.316-1.165.415-4.105.607-8.168.572-12.076-.036-3.91-.302-7.969-.791-12.063-.186-1.558-1.008-2.111-1.72-2.111-.004 0-.008 0-.012 0-.366.003-.757.159-1.074.516-.401.098-.792.316-1.126.663-2.276 2.361-4.288 4.862-5.979 7.433-.162.247-.315.492-.469.738-.62-1.829-1.34-3.395-2.156-4.563l3.883-13.23c1.557 1.556 3.23 3.059 5.013 4.49.392.911 1.173 1.371 1.903 1.413.038.002.076.003.115.003.898 0 1.917-.599 2.256-1.978 1.049-4.252 1.7-8.485 1.936-12.582.083-1.445.099-2.919.083-4.404.211.341.412.696.629 1.027 2.305 3.51 4.794 6.391 6.477 8.189.39.418.814.649 1.225.745.529.353 2.688 2.036 2.676 5.99-.002.552.444 1.001.997 1.003h.003c.551 0 .998-.445 1-.997.011-3.639-1.514-5.794-2.643-6.894.273-.511.343-1.2.001-1.985-1.428-3.288-3.09-6.383-4.939-9.2-2.305-3.51-4.794-6.391-6.477-8.189-.904-.968-1.989-.952-2.665-.508-.344.226-.627.596-.753 1.063-.261.301-.475.687-.597 1.181-1.049 4.251-1.701 8.484-1.936 12.581-.103 1.787-.115 3.613-.067 5.458-.637-.784-1.282-1.553-1.946-2.284-.818-.9-1.694-1.798-2.611-2.682-.12-.214-.241-.429-.38-.632l-3.702-5.418c3.376-1.38 5.841-4.445 5.841-6.576 0-.537-.162-1.105-.363-1.605.639-.687 1.003-1.594 1.003-2.554 0-2.07-1.684-3.754-3.753-3.754-.209 0-.416.019-.618.053 2.865-3.032 10.363-10.047 18.206-9.798 4.444.152 8.41 2.656 11.789 7.442.318.45.942.558 1.394.24.451-.317.558-.941.24-1.392zm-22.345 46.439c.271 2.969.428 5.947.454 8.752.026 2.889-.081 5.962-.312 9.024-.287-3.058-.449-6.129-.476-9.017-.025-2.774.076-5.721.289-8.664.015-.031.03-.064.045-.095zm-36.897-27.012c-1.739 2.648-3.874 5.353-6.178 7.828 1.354-3.1 2.987-6.134 4.725-8.782 1.206-1.837 2.614-3.693 4.129-5.487-.078.757-.148 1.511-.202 2.263-.715 1.329-1.53 2.74-2.474 4.178zm4.851-7.993c.042-.33.178-.485.261-.489.001-.001.002-.001.004-.001.083 0 .232.14.311.457 1.005 4.075 1.655 8.3 1.88 12.218.285 4.952-.098 9.451-.469 12.353-.042.33-.178.485-.261.49-.001 0-.003 0-.004 0-.083 0-.232-.139-.311-.456-.701-2.841-1.596-7.267-1.88-12.219-.226-3.92-.064-8.191.469-12.353zm4.199 22.618c.053-.542.106-1.083.147-1.623 1.027-1.389 2.229-2.897 3.6-4.406.142-.156.284-.294.425-.446-.073.806-.053 1.623.09 2.428-1.321 1.393-2.747 2.744-4.262 4.047zm-2.101 21.146c-.03 3.369-.239 6.499-.476 9.022-.233-3.069-.337-6.096-.311-9.03.025-2.803.182-5.779.453-8.748.017.036.032.073.049.108.177 2.459.314 5.444.285 8.648zm4.844-3.567c-1.567-2.381-3.022-5.118-4.215-7.927 1.5 1.569 3.649 4.019 5.615 7.005.568.863 1.115 1.778 1.643 2.722-.14.587-.27 1.194-.392 1.816-.872-1.083-1.778-2.289-2.651-3.616zm-3.882 49.736c-1.073-1.958-2.295-4.338-3.451-6.926-.983-2.2-1.896-4.492-2.725-6.844 1.275 2.328 2.451 4.684 3.456 6.936 1.105 2.475 2.012 4.832 2.72 6.834zm.376-22.531c-2.533 1.76-5.019 3.14-6.908 4.094 1.551-1.437 3.709-3.283 6.241-5.043 1.454-1.011 3.017-1.954 4.631-2.854-.005.259-.007.516-.009.772-1.166.976-2.497 2.017-3.955 3.031zm13.667 9.554c-.742 0-1.503-.519-2.233-1.468.801-1.164 1.55-2.722 2.231-4.538.68 1.812 1.427 3.37 2.226 4.532-.727.949-1.484 1.474-2.224 1.474zm-1.041-9.147c-1.334 4.317-2.823 7.07-3.983 7.782-.297.183-.432.136-.482.118-1.755-.596-3.162-9.448-1.374-21.963.737-5.156 1.807-9.444 2.935-12.624-.443 4.552-.165 10.425.644 16.084.511 3.569 1.288 7.306 2.26 10.603zm28.777-51.988c-1.627-1.748-3.991-4.497-6.178-7.828-.944-1.438-1.758-2.848-2.474-4.177-.055-.76-.126-1.524-.205-2.29 1.294 1.534 2.745 3.402 4.131 5.513 2.187 3.33 3.77 6.592 4.726 8.782zm-13.483-3.637c.225-3.919.875-8.144 1.88-12.218.079-.317.227-.457.311-.457.001 0 .002 0 .004.001.083.004.218.159.261.489.532 4.162.694 8.434.469 12.353s-.875 8.144-1.88 12.219c-.08.323-.226.432-.315.456-.083-.005-.218-.16-.261-.49-.371-2.902-.754-7.401-.469-12.353zm-1.891 8.812c.041.539.093 1.079.146 1.621-1.392-1.201-2.717-2.449-3.942-3.718.163-.758.238-1.529.208-2.295 1.366 1.504 2.563 3.007 3.588 4.392zm-4.332-25.219c0 .587-.292 1.133-.783 1.459-.426.284-.569.845-.33 1.298.438.833.473 1.284.473 1.402 0 1.278-2.334 4.231-5.66 5.077-.316.08-.574.31-.689.615-.115.306-.074.648.11.918l4.45 6.513c1.154 1.688 1.489 3.9.896 5.919l-4.419 15.055c-.295-.319-.594-.592-.901-.765-.378-.213-.727-.294-1.033-.307-.463-.062-1.058.001-1.725.411-.19.117-.378.265-.564.428l-4.351-14.824c-.592-2.018-.257-4.229.896-5.918l4.45-6.513c.184-.27.225-.612.11-.918-.116-.306-.373-.535-.689-.615-3.326-.846-5.66-3.799-5.66-5.077 0-.112.032-.54.439-1.336.242-.472.074-1.05-.383-1.318-.547-.321-.875-.884-.875-1.505 0-.967.787-1.754 1.754-1.754.569 0 1.088.27 1.423.74.313.438.914.553 1.363.256 2.407-1.581 4.827-1.602 7.233-.07.436.278 1.013.176 1.329-.233.339-.44.843-.692 1.382-.692.968 0 1.754.787 1.754 1.754z" fill="#3a2c60"/><path d="m55.497 15.558c-.807 0-1.461.654-1.461 1.461s.654 1.461 1.461 1.461 1.461-.654 1.461-1.461-.654-1.461-1.461-1.461z" fill="#3a2c60"/><path d="m66.12 17.019c0 .807.654 1.461 1.461 1.461s1.461-.654 1.461-1.461-.654-1.461-1.461-1.461-1.461.654-1.461 1.461z" fill="#3a2c60"/></svg>