<svg id="Layer_1" enable-background="new 0 0 128 128" height="512" viewBox="0 0 128 128" width="512" xmlns="http://www.w3.org/2000/svg"><path d="m113.833 66.542c4.667-2.535 7.22-6.27 6.187-9.336-.652-1.938-2.578-3.265-5.423-3.734-2.618-.436-5.773-.096-8.88.95-.419.141-.83.295-1.234.458-1.17-3.242-2.744-6.29-4.661-9.085-1.893-3.459-4.265-6.62-7.029-9.391-.091-3.337-.392-7.818-1.298-11.009-.263-.929-.884-1.607-1.796-1.964-2.67-1.051-8.023 1.008-12.449 3.165-4.285-1.509-8.887-2.34-13.682-2.34-10.069 0-18.837 3.116-26.058 9.262-.419.358-2.203 1.919-2.602 2.302-1.158 1.116-2.262 2.311-3.277 3.55-.35.427-1.999 2.637-2.309 3.094-3.586 5.308-5.851 11.315-6.686 17.613l-4.361-1.193c-1.325-.361-2.716-.186-3.917.499-1.2.685-2.062 1.792-2.424 3.116-.362 1.325-.186 2.717.499 3.917s1.792 2.062 3.117 2.424l1.623.444-1.707.795c-2.579 1.202-3.7 4.278-2.498 6.857.58 1.246 1.614 2.192 2.912 2.665.58.212 1.181.317 1.778.316.74 0 1.478-.161 2.166-.482l4.181-1.947c3.195 10.76 10.6 19.601 20.326 24.679 6.372 4.224 14.016 6.686 22.236 6.686.174 0 .34 0 .514-.008 4.923-.06 9.631-1.009 13.977-2.684 2.509 1.007 4.998 1.751 6.903 1.751.655 0 1.242-.087 1.736-.281.912-.356 1.533-1.035 1.796-1.964.518-1.827.837-4.076 1.033-6.293 6.31-5.32 10.965-12.541 13.077-20.782.017.006.033.013.051.02 2.362.833 4.675 1.232 6.738 1.232 3.786 0 6.733-1.345 7.604-3.81 1.093-3.09-1.453-6.889-6.163-9.492z" fill="#e6e7e8"/><path d="m87.799 32.807c-.078-3.318-.36-7.943-1.267-11.14-.935-3.297-7.815-.646-13.183 2.01 5.469 1.989 10.38 5.132 14.45 9.13z" fill="#fa759e"/><path d="m78.403 101.616c3.916 1.478 7.476 2.083 8.13-.222.424-1.495.711-3.302.905-5.142-2.748 2.158-5.779 3.971-9.035 5.364z" fill="#fa759e"/><path d="m107.548 62.533c5.222-2.212 8.522-6.045 7.524-9.008-1.094-3.248-6.931-4.212-13.036-2.156-.422.142-.831.297-1.232.459 1.331 4.002 2.063 8.277 2.063 12.726 0 3.114-.365 6.141-1.034 9.052.053.019.103.041.156.06 6.076 2.145 11.926 1.264 13.066-1.967 1.049-2.969-2.251-6.886-7.507-9.166z" fill="#fa759e"/><path d="m99.866 61.554c0 22.083-17.764 40.021-39.784 40.29-.174.008-.34.008-.514.008-21.838 0-39.61-17.361-40.274-39.033-.016-.419-.024-.846-.024-1.265 0-22.257 18.041-40.298 40.298-40.298s40.298 18.041 40.298 40.298z" fill="#fff"/><path d="m102.866 64.554c0 22.083-17.764 40.021-39.784 40.29-.174.008-.34.008-.514.008-21.838 0-39.61-17.361-40.274-39.033-.016-.419-.024-.846-.024-1.265 0-22.257 18.041-40.298 40.298-40.298s40.298 18.041 40.298 40.298z" fill="#fa759e"/><path d="m60.082 101.844c-.174.008-.34.008-.514.008-21.838 0-39.61-17.361-40.274-39.033 10.298-3.915 23.143-1.107 32.286 8.044 8.763 8.756 11.706 20.912 8.502 30.981z" fill="#d4fbff"/><circle cx="47.56" cy="46.848" fill="#fff" r="7.651"/><path d="m28.491 59.81-14.48-3.962c-2.207-.604-4.508.708-5.112 2.915-.604 2.207.708 4.508 2.915 5.112l4.254 1.164-4.178 1.946c-2.075.966-2.981 3.454-2.015 5.529s3.454 2.981 5.529 2.015l13.609-6.339c1.308-.609 2.149-1.824 2.351-3.159.012-.038.032-.071.042-.11.605-2.207-.707-4.507-2.915-5.111z" fill="#6dc9f7"/><g fill="#3a2c60"><path d="m87.495 21.394c-.263-.929-.884-1.607-1.796-1.964-2.668-1.05-8.018 1.01-12.445 3.166-4.286-1.51-8.89-2.341-13.686-2.341-10.071 0-18.838 3.116-26.058 9.262-.42.358-.471.989-.113 1.41.359.421.989.471 1.41.113 6.944-5.911 15.043-8.785 24.761-8.785 21.669 0 39.298 17.629 39.298 39.298 0 21.403-17.404 39.029-38.835 39.291-.156.009-.307.007-.463.008-17.946 0-32.971-11.8-37.717-28.225l7.583-3.532c1.532-.713 2.609-2.13 2.9-3.803.015-.041.029-.083.036-.107.362-1.325.186-2.717-.499-3.917s-1.791-2.061-3.117-2.424l-8.135-2.226c.762-6.092 2.898-11.91 6.362-17.037.309-.457.188-1.079-.27-1.389-.459-.308-1.079-.188-1.389.27-3.586 5.309-5.838 11.319-6.672 17.617l-4.376-1.197c-2.744-.749-5.588.872-6.341 3.616-.362 1.325-.185 2.716.5 3.916s1.792 2.062 3.117 2.424l1.623.444-1.707.795c-2.579 1.202-3.7 4.278-2.498 6.856.579 1.246 1.614 2.192 2.912 2.666.58.212 1.181.316 1.778.316.74 0 1.478-.161 2.166-.482l4.187-1.95c5.079 17.106 20.8 29.368 39.555 29.368.191 0 .373 0 .525-.009 22.482-.274 40.772-18.797 40.772-41.29 0-11.367-4.617-21.676-12.074-29.151-.087-3.334-.387-7.812-1.294-11.007zm-72.514 52.228c-.762.355-1.619.389-2.414.1-.797-.29-1.431-.869-1.785-1.632-.736-1.579-.049-3.463 1.53-4.199l3.96-1.844 5.902.225c.086.023.176.036.269.036h.705c.545 0 .989-.437 1-.981.01-.544-.417-.997-.962-1.018l-6.961-.265-4.145-1.134c-.81-.221-1.487-.749-1.907-1.485s-.529-1.588-.308-2.396c.384-1.403 1.661-2.328 3.05-2.328.275 0 .556.037.834.113l14.479 3.962c.81.222 1.487.749 1.907 1.485.41.719.523 1.547.317 2.359-.017.04-.035.092-.044.118-.015.047-.025.096-.032.145-.161 1.058-.828 1.955-1.785 2.401zm69.99-52.329c.329.129.508.322.601.646.679 2.394.996 5.659 1.14 8.529-3.224-2.819-6.884-5.15-10.871-6.866 3.848-1.74 7.522-2.939 9.13-2.309z"/><path d="m85.571 101.121c-.093.324-.271.518-.601.646-1.05.411-2.98.043-5.264-.744-.867.408-1.748.79-2.648 1.137 2.509 1.007 4.998 1.751 6.904 1.751.655 0 1.242-.087 1.736-.281.912-.356 1.533-1.035 1.796-1.964.518-1.827.837-4.077 1.033-6.294-.71.599-1.445 1.167-2.195 1.716-.181 1.455-.426 2.851-.761 4.033z"/><path d="m109.833 62.542c4.668-2.535 7.221-6.269 6.187-9.336-.652-1.938-2.578-3.265-5.423-3.734-2.619-.435-5.774-.097-8.881.95-.421.142-.833.294-1.234.454.226.627.437 1.262.633 1.904.4-.162.811-.319 1.24-.463 2.02-.68 4.044-1.03 5.881-1.03.71 0 1.393.052 2.035.158 2.05.339 3.455 1.214 3.854 2.4.796 2.363-2.265 5.774-6.967 7.767-.369.156-.608.517-.61.917-.002.399.235.762.602.921 4.745 2.06 7.804 5.537 6.963 7.918-.416 1.18-1.833 2.034-3.888 2.343-2.313.349-5.116-.003-7.902-.987-.09-.032-.175-.068-.264-.101-.135.662-.286 1.318-.453 1.968.017.006.034.013.051.02 2.296.811 4.624 1.23 6.747 1.23.734 0 1.443-.051 2.118-.152 2.852-.429 4.797-1.727 5.478-3.654 1.089-3.09-1.457-6.89-6.167-9.493z"/><path d="m28.403 37.002c.289 0 .576-.125.773-.365.972-1.183 2.021-2.319 3.12-3.379.397-.384.409-1.017.025-1.414-.384-.396-1.016-.408-1.414-.025-1.154 1.113-2.256 2.308-3.276 3.549-.351.427-.289 1.057.138 1.407.186.153.412.227.634.227z"/><path d="m48.609 46.848c0-1.659-1.345-3.003-3.003-3.003-1.659 0-3.003 1.345-3.003 3.003 0 1.659 1.345 3.003 3.003 3.003 1.659 0 3.003-1.344 3.003-3.003z"/><path d="m65.136 33.689c0-.663-.538-1.201-1.201-1.201s-1.201.538-1.201 1.201.538 1.201 1.201 1.201 1.201-.538 1.201-1.201z"/><circle cx="72.597" cy="34.89" r="1.201"/><circle cx="68.424" cy="40.747" r="1.201"/><path d="m72.597 46.766c0 .663.538 1.201 1.201 1.201s1.201-.538 1.201-1.201-.538-1.201-1.201-1.201-1.201.537-1.201 1.201z"/><path d="m75.532 54.499c0 .664.538 1.201 1.201 1.201s1.201-.538 1.201-1.201-.538-1.201-1.201-1.201-1.201.538-1.201 1.201z"/><path d="m78.67 39.546c-.663 0-1.201.538-1.201 1.201s.538 1.201 1.201 1.201 1.201-.538 1.201-1.201c0-.664-.538-1.201-1.201-1.201z"/><path d="m85.554 61.554c0 .663.538 1.201 1.201 1.201s1.201-.538 1.201-1.201c0-.664-.538-1.201-1.201-1.201s-1.201.537-1.201 1.201z"/><circle cx="88.002" cy="48.049" r="1.201"/><path d="m89.939 56.901c.663 0 1.201-.538 1.201-1.201s-.538-1.201-1.201-1.201-1.201.538-1.201 1.201c0 .664.537 1.201 1.201 1.201z"/><path d="m82.726 55.7c.663 0 1.201-.538 1.201-1.201s-.538-1.201-1.201-1.201-1.201.538-1.201 1.201.538 1.201 1.201 1.201z"/><circle cx="80.87" cy="46.848" r="1.201"/></g></svg>