<svg id="Layer_1" enable-background="new 0 0 128 128" height="512" viewBox="0 0 128 128" width="512" xmlns="http://www.w3.org/2000/svg"><path d="m116.403 95.288c-2.735-4.734-12.091-4.432-22.303.348-.329-2.153-.845-4.372-1.564-6.652-.448-1.598-.942-2.97-1.469-4.078-.002-.004-.005-.009-.007-.014-2.236-5.502-5.459-10.928-9.141-15.49 10.484-6.738 20.802-14.493 20.667-18.852-.149-4.834-1.418-12.784-4.275-20.151 5.567-10.106 2.611-21.455 1.079-23.799-1.902-2.913-10.091-1.399-14.152-.191-1.527.454-4.131 1.351-6.23 2.667-11.922-3.117-33.095-2.764-42.923 1.057-2.235-1.63-5.448-2.98-8.545-3.901-1.698-.505-10.269-2.872-12.239.142-1.52 2.326-5.467 17.872 3.851 28.99.097.116.218.203.353.265-1.037 4.404-1.576 8.599-1.677 11.891-.139 4.512 9.031 11.828 19.521 18.699-9.374 9.921-19.458 29.551-13.686 44.172.221.732 1.6 4.569 2.765 6.937-3.856 1.311-5.887 4.403-5.747 8.831.017.54.459.969.999.969h73.81c.54 0 .982-.429 1-.969.077-2.494-.556-4.546-1.793-6.113 2.102-.862 4.23-1.905 6.325-3.115 11.723-6.77 18.479-16.276 15.381-21.643z" fill="#e6e7e8"/><path d="m111.536 91.788c-2.539-4.398-12.149-3.685-22.241 1.358.298 2.589.307 5.141-.034 7.595-.127 2.341-.453 4.592-1.035 6.586-.715 2.451-1.736 4.674-2.963 6.626 1.241.274 2.571.784 3.683 1.693 2.464-.919 5.021-2.108 7.574-3.582 11.069-6.391 17.792-15.468 15.016-20.276z" fill="#d4fbff"/><path d="m90.106 92.747c-.269.129-.54.27-.81.405.177 1.542.238 3.068.197 4.572l7.494 14.058c.382-.226.759-.454 1.13-.686.445-.281.884-.566 1.315-.854z" fill="#6dc9f7"/><path d="m93.963 91.103 8.878 16.654c2.698-2.157 4.917-4.419 6.507-6.609l-6.495-12.183c-2.649.215-5.684.936-8.89 2.138z" fill="#6dc9f7"/><path d="m29.723 8.415c.878-.584 1.995-1.109 3.29-1.578-5.436-3.834-17.481-6.56-19.208-3.917-1.204 1.843-5.143 16.231 3.175 27.038 2.2-8.286 6.221-17.207 12.743-21.543z" fill="#6dc9f7"/><path d="m80.69 8.415c6.247 4.153 10.201 12.513 12.456 20.493 8.249-10.742 4.275-23.923 3.074-25.762-1.803-2.761-14.829-.451-19.847 3.341 1.743.553 3.214 1.195 4.317 1.928z" fill="#6dc9f7"/><path d="m95.586 43.55c-.272-8.831-4.269-28.07-14.896-35.134-8.96-5.957-42.007-5.957-50.967 0-10.626 7.064-14.623 26.303-14.896 35.134-.221 7.179 27.906 23.574 38.437 29.456 1.209.67 2.677.67 3.886 0 10.53-5.883 38.658-22.277 38.436-29.456z" fill="#fff"/><path d="m85.263 113.953c1.227-1.951 2.249-4.175 2.963-6.626.582-1.994.908-4.245 1.035-6.586.686-4.933-.042-10.266-1.689-15.487-.424-1.51-.9-2.848-1.409-3.919l-.002.002c-2.879-7.111-7.276-13.734-11.864-18.537-6.576 4.2-13.137 7.966-17.147 10.205-1.209.67-2.677.67-3.886 0-4.254-2.376-11.379-6.468-18.347-10.974-.031.031-.062.066-.093.097-10.212 10.273-19.786 29.912-14.216 43.937.104.425 2.068 5.937 3.296 7.888-2.944.651-6.4 2.595-6.225 8.173h73.809c.175-5.578-3.281-7.523-6.225-8.173z" fill="#d4fbff"/><path d="m70.474 115.134c-.001-.017-.002-.034-.004-.05-.126-1.709-.317-3.371-.563-4.982h-1.555c-1.524 0-2.759-1.235-2.759-2.759v-11.416c-2.744-5.292-6.387-8.523-10.387-8.523-4.077 0-7.785 3.352-10.546 8.826v11.112c0 1.524-1.235 2.759-2.759 2.759h-1.396c-.239 1.571-.427 3.19-.553 4.855-.004.052-.008.107-.012.164-.217 3.233 2.351 5.982 5.591 5.982h19.351c3.237-.001 5.821-2.74 5.592-5.968z" fill="#6dc9f7"/><path d="m98.586 46.55c-.272-8.831-4.269-28.07-14.896-35.134-8.96-5.957-42.007-5.957-50.967 0-10.626 7.064-14.623 26.303-14.896 35.134-.221 7.179 27.906 23.574 38.437 29.456 1.209.67 2.677.67 3.886 0 10.53-5.883 38.658-22.277 38.436-29.456z" fill="#d4fbff"/><path d="m46.351 33.052c-3.114-1.802-6.577-1.353-9.513.264-1.124.619-2.171 1.41-3.092 2.311-5.352 5.238-10.189 9.634-11.657 17.218 3.695 3.06 8.396 6.328 13.157 9.396 1.992-.986 3.714-2.765 5.074-4.394 3.891-4.659 6.288-10.418 8.787-15.888 2.115-4.626-.056-7.345-2.756-8.907z" fill="#6dc9f7"/><path d="m63.691 33.052c3.114-1.802 6.577-1.353 9.513.264 1.124.619 2.171 1.41 3.092 2.311 5.352 5.238 10.189 9.634 11.657 17.218-3.695 3.06-8.396 6.328-13.157 9.396-1.992-.986-3.714-2.765-5.074-4.394-3.891-4.659-6.288-10.418-8.787-15.888-2.114-4.626.056-7.345 2.756-8.907z" fill="#6dc9f7"/><g fill="#3a2c60"><path d="m112.403 91.288c-2.734-4.733-12.09-4.409-22.3.369-.329-2.159-.845-4.385-1.567-6.673-.448-1.599-.943-2.971-1.469-4.078-.002-.004-.004-.008-.006-.012-2.218-5.457-5.467-10.902-9.164-15.479-.565.363-1.129.722-1.693 1.079 3.648 4.477 6.855 9.844 9.031 15.218.016.04.034.078.056.115.466.995.91 2.238 1.328 3.727 1.725 5.469 2.28 10.532 1.645 15.132-.131 2.4-.466 4.541-.997 6.361-.611 2.097-1.483 4.073-2.573 5.896-.672-.112-3.029-.36-4.787 1.282-.403.377-.425 1.01-.048 1.414.196.211.463.317.73.317.245 0 .49-.089.683-.269 1.232-1.151 3.12-.768 3.164-.758.184.04.359.012.525-.042.031.01.054.035.086.043 3.416.755 5.239 2.838 5.431 6.197h-71.788c.191-3.359 2.015-5.442 5.431-6.197h.001s.001 0 .001 0c.02-.005 1.925-.401 3.165.758.192.18.438.269.683.269.268 0 .534-.106.73-.317.377-.403.355-1.036-.048-1.414-1.411-1.318-3.208-1.418-4.21-1.348-1.141-2.138-2.731-6.564-2.863-7.051-.011-.044-.024-.087-.041-.13-5.537-13.94 4.437-32.935 13.516-42.371 6.124 3.933 12.543 7.661 17.726 10.556.76.421 1.593.632 2.427.632s1.669-.211 2.431-.633c6.946-3.88 24.062-13.758 32.968-21.662.413-.367.45-.999.084-1.412-.369-.414-1-.45-1.412-.084-8.758 7.774-25.726 17.564-32.611 21.411-.147.081-.304.128-.459.183v-3.653c0-.034-.016-.064-.02-.097 2.949-.537 5.204-3.444 5.204-6.961 0-3.898-2.769-7.058-6.184-7.058s-6.184 3.16-6.184 7.058c0 3.516 2.255 6.423 5.203 6.961-.003.034-.02.063-.02.097v3.653c-.153-.055-.309-.101-.455-.181-23.532-13.148-38.064-24.088-37.925-28.556.164-5.334 1.847-15.276 5.816-23.487.073-.151.145-.302.22-.453.114-.229.232-.455.35-.681.13-.249.262-.497.398-.744.096-.176.193-.351.291-.524.206-.361.417-.72.636-1.074.042-.068.081-.137.123-.204.271-.433.553-.86.844-1.279.061-.088.125-.174.187-.261.236-.333.479-.661.729-.982.081-.104.161-.207.243-.309.279-.348.565-.688.859-1.019.04-.045.078-.092.119-.137.334-.369.681-.724 1.036-1.067.084-.081.17-.157.255-.237.28-.261.566-.513.859-.755.106-.088.211-.176.318-.261.379-.301.766-.591 1.167-.857.229-.152.483-.298.745-.442.143-.078.293-.154.447-.231.101-.05.204-.1.309-.149.479-.223 1.001-.44 1.577-.649.019-.007.035-.02.053-.028 10.019-3.617 31.874-3.726 42.616-.331.016.006.03.017.047.022 1.276.405 2.361.846 3.241 1.318.294.159.572.321.825.49.461.306.901.644 1.333.993 9.328 7.567 12.874 25.469 13.117 33.339.019.552.498 1.001 1.031.969.552-.017.985-.479.969-1.03-.211-6.828-2.291-17.528-6.843-25.95.01.014.021.027.031.041-.069-.129-.145-.254-.215-.382-.093-.168-.187-.334-.282-.5-.789-1.388-1.665-2.726-2.634-3.98-.05-.065-.101-.13-.151-.194-.225-.286-.453-.568-.688-.843-.069-.081-.14-.158-.209-.237-.348-.399-.707-.784-1.077-1.158-.178-.18-.355-.361-.537-.533-.153-.144-.309-.283-.466-.422-.232-.208-.468-.411-.707-.607-.13-.106-.258-.213-.39-.315-.383-.299-.772-.588-1.173-.854-.263-.175-.554-.344-.859-.512-.048-.026-.094-.052-.143-.078-.487-.26-1.018-.512-1.602-.751 4.396-2.345 11.801-3.771 15.255-3.169.899.157 1.357.422 1.485.618.797 1.221 4.459 12.068-1.324 22.057.313.777.606 1.562.883 2.35 6.955-10.509 3.686-23.095 2.115-25.5-.49-.751-1.438-1.254-2.815-1.495-4.319-.75-13.466 1.12-18.058 4.3-11.257-3.348-32.429-3.235-43.017.337-4.724-3.108-13.674-5.509-17.817-4.716-1.139.218-1.94.67-2.383 1.347-1.42 2.176-5.185 16.747 2.907 27.762-1.281 4.942-1.934 9.72-2.047 13.383-.139 4.512 9.033 11.829 19.525 18.701-9.375 9.918-19.461 29.545-13.691 44.168.219.734 1.585 4.555 2.764 6.939-3.854 1.311-5.884 4.403-5.746 8.83.018.54.46.969 1 .969h73.81c.54 0 .982-.429 1-.969.078-2.502-.559-4.56-1.804-6.128 2.106-.86 4.236-1.887 6.336-3.099 11.724-6.769 18.48-16.275 15.382-21.642zm-97.761-87.821c.047-.072.265-.32 1.083-.476.457-.087.985-.128 1.568-.128 3.703 0 9.632 1.662 13.533 3.798-.18.085-.341.174-.51.261-.09.047-.185.092-.272.14-.312.17-.608.344-.875.521-.371.247-.733.511-1.089.786-.158.121-.31.249-.464.375-.179.146-.357.293-.531.446-.209.182-.415.369-.617.56-.085.08-.168.161-.252.243-2.962 2.868-5.228 6.58-6.946 10.397-.039.085-.078.168-.117.254-.055.125-.108.25-.162.375-.941 2.148-1.743 4.378-2.414 6.61-6.264-9.979-3.014-22.508-1.935-24.162zm81.379 107.731c-2.305 1.331-4.641 2.436-6.93 3.321-.676-.475-1.436-.876-2.302-1.175 1.005-1.792 1.809-3.716 2.397-5.736.574-1.967.936-4.259 1.065-6.729.315-2.263.343-4.651.108-7.136 5.244-2.526 10.362-3.883 14.21-3.883 2.948 0 5.152.787 6.101 2.429 2.453 4.248-4.256 12.908-14.649 18.909z"/><path d="m93.467 46.272c-.495.708-1.153 1.489-1.958 2.322-.383.397-.372 1.031.025 1.414.193.188.444.281.694.281.262 0 .523-.102.72-.305.877-.908 1.603-1.771 2.157-2.566.316-.453.206-1.076-.247-1.393-.451-.317-1.075-.206-1.391.247z"/><path d="m38.187 41.303c0 1.541 1.249 2.79 2.79 2.79s2.789-1.249 2.789-2.79-1.249-2.789-2.789-2.789-2.79 1.249-2.79 2.789z"/><path d="m66.297 41.303c0 1.541 1.249 2.79 2.789 2.79 1.541 0 2.79-1.249 2.79-2.79s-1.249-2.789-2.79-2.789c-1.54 0-2.789 1.249-2.789 2.789z"/><path d="m28.343 110.624c.246.231.651.487 1.244.487.065 0 .134-.003.204-.01h12.109c2.073 0 3.76-1.687 3.76-3.76v-22.113c0-.552-.447-1-1-1s-1 .448-1 1v22.113c0 .97-.789 1.76-1.76 1.76h-1.238v-3.44c0-.552-.447-1-1-1s-1 .448-1 1v3.44h-2.946v-3.44c0-.552-.447-1-1-1s-1 .448-1 1v3.44h-3.979c-.019 0-.042.001-.065.002-.373-.68-.185-3.566-.018-6.125.348-5.323.874-13.369-1.303-21.35-.146-.534-.7-.844-1.228-.702-.533.146-.848.695-.702 1.228 2.089 7.658 1.597 15.192 1.236 20.693-.282 4.333-.437 6.719.686 7.777z"/><path d="m75.538 104.66c-.553 0-1 .448-1 1v3.44h-2.946v-3.44c0-.552-.447-1-1-1s-1 .448-1 1v3.44h-1.238c-.971 0-1.76-.79-1.76-1.76v-22.112c0-.552-.447-1-1-1s-1 .448-1 1v22.113c0 2.073 1.687 3.76 3.76 3.76h12.109c.07.007.139.01.204.01.593 0 .998-.255 1.244-.487 1.124-1.058.968-3.445.685-7.777-.359-5.5-.852-13.034 1.236-20.691.146-.533-.169-1.083-.702-1.228-.527-.143-1.082.168-1.228.702-2.176 7.98-1.65 16.025-1.302 21.348.167 2.559.355 5.446-.019 6.125-.021-.001-.044-.002-.065-.002h-3.979v-3.44c.001-.553-.446-1.001-.999-1.001z"/></g></svg>