<svg id="Layer_1" enable-background="new 0 0 128 128" height="512" viewBox="0 0 128 128" width="512" xmlns="http://www.w3.org/2000/svg"><path d="m111.309 78.391c-2.363-1.706-5.968-1.278-10.152 1.205-3.634 2.157-7.376 5.669-10.652 9.953-.144-.36-.29-.707-.44-1.022-.002-.005-.005-.009-.006-.013-2.097-5.161-5.12-10.25-8.573-14.527 5.221-3.356 10.399-6.978 14.088-10.253 1.368.433 3.066 1.321 4.342 2.048.804.458 1.794-.165 1.726-1.088-.154-2.122-.421-5.427-.774-8.386-.14-4.533-1.33-11.989-4.009-18.898 5.22-9.478 2.448-20.12 1.012-22.319-1.783-2.732-9.461-1.312-13.272-.18-1.428.425-3.86 1.263-5.825 2.491-5.566-1.461-12.97-2.002-19.178-1.975-7.136-.027-15.84.683-21.524 2.68-2.068-1.395-4.872-2.556-7.586-3.363-1.593-.473-9.629-2.689-11.473.135-1.396 2.137-4.971 16.169 3.1 26.543-.958 4.348-1.846 9.504-1.919 11.961-.349 2.936-.615 6.204-.778 8.429-.056.773.316 1.51.971 1.923.656.413 1.481.432 2.156.048.248-.142.484-.269.721-.398-.036.467-.07.914-.099 1.308-.067.923.922 1.547 1.726 1.088 1.091-.622 2.48-1.344 3.718-1.816 3.129 2.474 6.864 5.058 10.642 7.507-8.663 9.442-17.721 27.466-12.399 40.951.205.688 1.486 4.271 2.592 6.507-3.615 1.229-5.518 4.129-5.389 8.281.016.506.431.909.938.909h69.219c.506 0 .921-.403.938-.909.128-4.135-1.758-7.028-5.346-8.266.603-1.076 1.12-2.207 1.566-3.375 1.131-.373 2.331-.932 3.583-1.675 3.952-2.345 8.037-6.281 11.505-11.082 3.467-4.802 5.918-9.918 6.902-14.406 1.041-4.752.313-8.309-2.051-10.016z" fill="#e6e7e8"/><path d="m107.009 75.4c-4.221-3.048-13.331 2.359-20.348 12.076-.069.096-.131.193-.199.289.112.351.221.713.326 1.088 1.544 4.896 2.227 9.897 1.584 14.524-.119 2.195-.425 4.306-.971 6.177-.149.512-.318 1.009-.494 1.499 4.515-1.311 10.26-5.921 15.039-12.538 7.017-9.719 9.284-20.067 5.063-23.115z" fill="#fa759e"/><path d="m87.801 85.969c-.384.492-.766.99-1.139 1.507-.069.096-.133.193-.199.289.112.351.221.713.326 1.088.521 1.653.935 3.318 1.242 4.977l10.405 8.063c2.848-2.919 3.805-3.948 4.202-4.421.008-.009.031-.041.031-.041z" fill="#ffd7e5"/><path d="m91.71 81.561 13.99 10.841c1.481-2.881 2.51-5.668 3.03-8.153l-10.234-7.931c-2.184 1.202-4.504 2.984-6.786 5.243z" fill="#ffd7e5"/><path d="m31.344 16.794c.769-.511 1.733-.973 2.845-1.39-5.036-3.643-16.51-6.263-18.143-3.763-1.142 1.749-4.908 15.535 3.255 25.707 2.042-7.869 5.835-16.427 12.043-20.554z" fill="#d4fbff"/><path d="m80.334 16.794c1.565 1.04 2.976 2.363 4.245 3.884 3.491 2.875 6.136 7.19 8.076 11.853 4.723-9.248 1.68-19.148.681-20.678-1.64-2.51-13.166-.55-18.155 2.812 2.119.585 3.895 1.292 5.153 2.129z" fill="#d4fbff"/><path d="m84.623 115.767c1.151-1.83 2.109-3.915 2.779-6.214.545-1.87.852-3.981.971-6.177.644-4.626-.039-9.627-1.584-14.524-.397-1.416-.844-2.67-1.321-3.675l-.002.002c-2.149-5.309-5.201-10.333-8.526-14.437-6.096 3.883-12.151 7.36-15.868 9.437-.748.415-1.599.542-2.419.408-.82.134-1.671.006-2.419-.408-4.532-2.531-12.535-7.141-19.853-12.036-9.21 9.861-17.443 27.506-12.391 40.226.098.398 1.94 5.567 3.091 7.397-2.761.61-6.002 2.434-5.838 7.665h69.219c.162-5.23-3.078-7.054-5.839-7.664z" fill="#fa759e"/><path d="m18.324 40.867c-.691 3.419-1.042 6.537-1.114 8.876-.352 2.959-.619 6.264-.774 8.386-.067.923.922 1.547 1.726 1.088 1.276-.728 2.974-1.615 4.342-2.048 8.182 7.263 23.688 16.252 30.751 20.197.748.415 1.599.542 2.419.408.82.134 1.671.006 2.419-.408 7.063-3.945 22.57-12.935 30.751-20.197 1.368.433 3.066 1.321 4.342 2.048.804.458 1.794-.165 1.726-1.088-.154-2.122-.421-5.427-.774-8.386-.255-8.282-4.004-26.324-13.969-32.949-4.286-2.85-14.45-4.238-24.495-4.181-10.045-.058-20.209 1.331-24.495 4.181-7.15 4.754-11.1 15.387-12.855 24.073z" fill="#fff"/><path d="m97.117 52.556c-.255-8.282-4.004-26.324-13.969-32.949-4.286-2.85-14.45-4.238-24.495-4.181-10.045-.058-20.209 1.331-24.495 4.181-9.966 6.625-13.714 24.667-13.969 32.949-.352 2.959-.619 6.264-.774 8.386-.067.923.922 1.547 1.726 1.088 1.276-.728 2.974-1.615 4.342-2.048 8.182 7.263 23.688 16.252 30.751 20.197.748.415 1.599.542 2.419.408.82.134 1.671.006 2.419-.408 7.063-3.945 22.57-12.935 30.751-20.197 1.368.433 3.066 1.321 4.342 2.048.804.458 1.794-.165 1.726-1.088-.155-2.121-.422-5.427-.774-8.386z" fill="#fa759e"/><path d="m71.643 30.986c-2.552 0-4.621 1.323-4.621 2.956 0 1.632 2.069 2.955 4.621 2.955s4.621-1.323 4.621-2.955-2.069-2.956-4.621-2.956z" fill="#ffd7e5"/><path d="m40.653 30.986c-2.552 0-4.621 1.323-4.621 2.956 0 1.632 2.069 2.955 4.621 2.955s4.621-1.323 4.621-2.955-2.069-2.956-4.621-2.956z" fill="#ffd7e5"/><path d="m71.168 69.474c-.032.066-.036.136-.052.204l2.94-1.837c6.267-16-3.779-26.597-3.887-26.707-.385-.396-1.018-.403-1.412-.019-.396.384-.404 1.017-.021 1.414.42.435 10.231 10.849 2.432 26.945z" fill="#ffd7e5"/><path d="m40.452 70.91c-.371 0-.729-.208-.901-.564-8.427-17.393 2.688-29.096 2.801-29.212.385-.395 1.018-.402 1.412-.019.396.384.404 1.017.021 1.414-.422.436-10.232 10.85-2.434 26.945.24.497.032 1.095-.464 1.336-.14.067-.288.1-.435.1z" fill="#ffd7e5"/><path d="m70.754 116.874c-.001-.016-.002-.032-.003-.047-.118-1.603-.298-3.162-.527-4.672h-1.458c-1.429 0-2.588-1.159-2.588-2.588v-10.705c-2.573-4.963-5.99-7.993-9.741-7.993-3.824 0-7.301 3.143-9.89 8.277v10.421c0 1.429-1.159 2.588-2.588 2.588h-1.309c-.224 1.473-.401 2.992-.518 4.553-.004.049-.007.1-.011.154-.204 3.032 2.205 5.61 5.243 5.61h18.146c3.035-.001 5.458-2.57 5.244-5.598z" fill="#ffd7e5"/><path d="m56.435 52.394c-6.911 0-12.513-5.081-12.513 3.94 0 9.022 5.602 16.335 12.513 16.335s12.513-7.313 12.513-16.335c.001-9.021-5.602-3.94-12.513-3.94z" fill="#ffd7e5"/><g fill="#3a2c60"><path d="m107.595 74.59c-4.545-3.285-13.515 1.577-20.819 11.091-.133-.328-.268-.641-.406-.931-.002-.004-.004-.008-.006-.012-2.098-5.163-5.122-10.255-8.577-14.536-.567.364-1.134.728-1.7 1.085 3.406 4.181 6.393 9.187 8.45 14.269.016.04.034.079.056.116.437.931.851 2.093 1.24 3.483 1.615 5.118 2.136 9.857 1.54 14.168-.122 2.248-.437 4.25-.933 5.951-.568 1.948-1.376 3.783-2.386 5.478-.687-.108-2.862-.303-4.499 1.225-.403.377-.425 1.01-.048 1.414.196.211.463.317.73.317.245 0 .49-.089.683-.269 1.133-1.059 2.869-.706 2.912-.696.174.039.342.015.502-.034.025.008.044.029.07.034 3.15.696 4.843 2.608 5.041 5.689h-67.189c.198-3.081 1.89-4.993 5.04-5.689.001 0 .002-.001.003-.001h.004c.018-.005 1.771-.367 2.908.697.192.18.438.269.683.269.268 0 .534-.106.73-.317.377-.403.355-1.036-.048-1.414-1.321-1.234-2.997-1.344-3.955-1.284-1.059-2.004-2.536-6.108-2.661-6.564-.011-.043-.024-.086-.041-.128-5.087-12.807 3.821-30.177 12.194-39.172 6.242 3.973 12.371 7.484 15.824 9.413.692.384 1.482.583 2.283.583.206 0 .413-.013.619-.04 1.008.131 2.032-.061 2.906-.545 6.403-3.577 22.019-12.586 30.485-19.935.975.368 2.214.977 3.625 1.781.694.396 1.544.377 2.22-.049.675-.426 1.058-1.185.999-1.98-.162-2.229-.429-5.501-.771-8.344-.294-9.539-4.468-27.137-14.416-33.75-.878-.583-1.962-1.095-3.188-1.548 1.068-.505 2.31-.983 3.7-1.396 5.792-1.722 10.516-1.512 11.099-.619.62.949 3.672 10.109-.37 18.915.357.795.693 1.603 1.009 2.419 5.267-9.515 2.479-20.22 1.035-22.428-1.804-2.762-9.516-1.342-13.343-.205-1.423.423-3.833 1.261-5.796 2.485-5.561-1.463-12.95-2.006-19.189-1.972-7.15-.04-15.835.678-21.524 2.676-2.069-1.393-4.858-2.55-7.563-3.355-1.6-.475-9.678-2.704-11.549.159-1.399 2.142-4.979 16.196 3.086 26.592-.957 4.347-1.841 9.49-1.913 11.939-.349 2.931-.615 6.203-.777 8.432-.059.796.325 1.555 1 1.981.676.426 1.525.444 2.218.049 1.413-.805 2.651-1.413 3.625-1.781 3.488 3.027 8.19 6.332 12.961 9.427-8.66 9.469-17.687 27.477-12.366 40.962.209.696 1.469 4.213 2.564 6.45-3.601 1.251-5.494 4.163-5.364 8.319.018.54.46.969 1 .969h69.219c.54 0 .982-.429 1-.969.129-4.139-1.748-7.043-5.318-8.303.589-1.056 1.094-2.165 1.531-3.31 4.781-1.591 10.509-6.418 15.083-12.752 7.453-10.321 9.578-21.087 4.838-24.509zm-85.228-18.375c-1.184.375-2.709 1.092-4.535 2.133-.021.011-.08.047-.161-.003-.079-.05-.073-.12-.072-.144.161-2.208.425-5.448.776-8.428.089-2.924 1.399-9.946 2.519-14.42.135-.536-.191-1.079-.727-1.213-.538-.131-1.079.19-1.213.728-.018.073-.037.153-.056.227-6.117-9.372-3.068-21.294-2.016-22.907.21-.32 1.035-.533 2.351-.533 1.64 0 4.041.331 6.954 1.198 2.265.673 4.284 1.514 5.869 2.391-.453.228-.885.465-1.266.719-1.224.813-2.404 1.823-3.51 3.001-.378.403-.357 1.036.045 1.414.403.377 1.035.357 1.414-.045 1-1.065 2.063-1.975 3.158-2.704 3.761-2.5 13.148-4.061 23.947-4.014 10.766-.065 20.176 1.514 23.936 4.014 9.669 6.427 13.286 24.434 13.53 32.234.345 2.893.608 6.133.77 8.341.001.023.007.094-.072.144-.08.05-.141.015-.162.003-1.254-.715-3.059-1.666-4.535-2.133-.339-.106-.703-.028-.966.206-8.207 7.286-24.116 16.465-30.571 20.071-.534.297-1.147.398-1.773.296-.105-.018-.216-.018-.323 0-.621.103-1.236.001-1.769-.294-6.459-3.608-22.369-12.788-30.575-20.073-.265-.236-.633-.315-.967-.209zm78.769 41.713c-3.879 5.371-8.563 9.584-12.65 11.461.05-.187.09-.388.137-.58.047-.195.095-.386.138-.587.064-.299.118-.609.173-.92.034-.191.071-.377.101-.572.054-.351.097-.713.14-1.077.02-.167.044-.328.061-.497.054-.538.098-1.085.127-1.643.63-4.523.085-9.558-1.61-14.932-.062-.22-.125-.435-.189-.646 7.23-9.95 15.572-14.095 18.862-11.725 3.298 2.383 1.959 11.678-5.29 21.718z"/><path d="m24.598 24.181c-.48-.273-1.091-.106-1.364.375-.979 1.721-1.886 3.637-2.694 5.694-.202.514.051 1.095.565 1.296.12.047.243.07.365.07.398 0 .776-.241.931-.635.773-1.969 1.639-3.798 2.571-5.437.273-.479.105-1.089-.374-1.363z"/><path d="m43.091 39.216c-1.445 0-2.616 1.171-2.616 2.616s1.171 2.616 2.616 2.616 2.616-1.171 2.616-2.616-1.171-2.616-2.616-2.616z"/><path d="m69.452 44.448c1.445 0 2.616-1.171 2.616-2.616s-1.171-2.616-2.616-2.616-2.616 1.171-2.616 2.616c0 1.444 1.171 2.616 2.616 2.616z"/><path d="m31.2 112.69c.239.225.634.474 1.209.474.063 0 .128-.003.195-.009h11.354c1.979 0 3.588-1.609 3.588-3.588v-20.738c0-.552-.447-1-1-1s-1 .448-1 1v20.738c0 .875-.712 1.588-1.588 1.588h-1.1v-3.164c0-.552-.447-1-1-1s-1 .448-1 1v3.164h-2.638v-3.164c0-.552-.447-1-1-1s-1 .448-1 1v3.164h-3.669c-.007 0-.015 0-.021 0-.32-.69-.147-3.332.005-5.676.327-4.997.82-12.547-1.224-20.042-.146-.534-.698-.846-1.228-.702-.533.146-.848.695-.702 1.228 1.956 7.171 1.495 14.231 1.158 19.385-.267 4.082-.414 6.33.661 7.342z"/><path d="m75.503 106.991c-.553 0-1 .448-1 1v3.164h-2.639v-3.164c0-.552-.447-1-1-1s-1 .448-1 1v3.164h-1.1c-.876 0-1.588-.712-1.588-1.588v-20.738c0-.552-.447-1-1-1s-1 .448-1 1v20.738c0 1.979 1.609 3.588 3.588 3.588h11.354c.067.006.133.009.195.009.575 0 .97-.249 1.209-.474 1.075-1.012.928-3.26.661-7.342-.337-5.154-.799-12.213 1.157-19.385.146-.533-.169-1.083-.702-1.228-.526-.145-1.082.168-1.228.702-2.044 7.494-1.55 15.045-1.224 20.042.153 2.344.326 4.986.006 5.676-.007 0-.015 0-.021 0h-3.669v-3.164c.001-.553-.446-1-.999-1z"/><path d="m56.435 64.82c.764.902 1.891 1.488 3.163 1.488 2.296 0 4.163-1.868 4.163-4.164 0-.552-.447-1-1-1s-1 .448-1 1c0 1.193-.971 2.164-2.163 2.164s-2.163-.971-2.163-2.164c0-.106-.03-.203-.06-.3.031-.096.06-.193.06-.3v-4.285c2.726-.271 4.8-1.624 4.8-3.257 0-1.828-2.596-1.087-5.799-1.087s-5.799-.741-5.799 1.087c0 1.633 2.074 2.986 4.799 3.257v4.285c0 .106.03.203.06.3-.031.096-.06.193-.06.3 0 1.193-.971 2.164-2.164 2.164-1.192 0-2.163-.971-2.163-2.164 0-.552-.447-1-1-1s-1 .448-1 1c0 2.296 1.867 4.164 4.163 4.164 1.272.001 2.399-.585 3.163-1.488z"/></g></svg>