<svg id="Layer_1" enable-background="new 0 0 128 128" height="512" viewBox="0 0 128 128" width="512" xmlns="http://www.w3.org/2000/svg"><path d="m91.414 105.349c1.728-.147 3.119-.631 4.113-1.489 1.16-1.002 1.786-2.444 1.862-4.286.062-1.495-.776-2.824-2.185-3.468-1.537-.701-3.312-.427-4.559.689-.554-1.959-1.403-3.778-2.642-5.305-.042-.052-.087-.114-.13-.17-.513-1.149-1.146-2.226-1.929-3.192-.003-.004-.006-.008-.009-.012-2.973-5.645-6.937-15.663-8.401-20.921-.156-.56-.451-1.056-.858-1.494 2.171-4.312 3.439-9.48 3.439-14.402 0-3.845-.808-7.119-2.311-9.742.068.002.132.01.201.01 2.479 0 5.628-1.236 7.344-4.147 2.79-4.734-.45-11.593-.589-11.883-.114-.236-.322-.412-.573-.487-.25-.073-.521-.039-.745.098-1.104.675-9.757 6.132-10.261 11.607-1.247-.771-2.642-1.369-4.187-1.769l6.669-9.442 8.17-1.442c3.06-.539 5.631-2.685 6.708-5.6l4.095-11.072c.177-.479-.068-1.012-.548-1.189-.479-.18-1.012.068-1.19.547l-2.562 6.926-2.075-2.695v-3.91c0-.512-.415-.926-.926-.926s-.925.412-.925.924v4.226c0 .204.068.403.192.565l2.976 3.866-.774 2.094c-.85 2.299-2.878 3.992-5.293 4.419l-6.502 1.147 1.538-2.474c2.528-1.385 4.111-4.101 4.055-6.995l-.051-2.616c-.01-.512-.424-.912-.944-.908-.511.01-.918.433-.908.944l.051 2.616c.044 2.275-1.241 4.406-3.273 5.429-.152.077-.28.194-.37.338l-2.751 4.425-7.352 10.41c-.155-.023-.314-.035-.471-.055-.328-.04-.653-.083-.991-.108-.524-.04-1.056-.061-1.595-.063-.027 0-.052-.003-.078-.003-.028 0-.053.003-.081.003-.035 0-.069.003-.104.004-.062 0-.122-.006-.185-.006-.634 0-1.254.035-1.868.087.021-.218-.026-.445-.166-.636l-7.749-10.568-2.745-4.416c-.09-.145-.218-.261-.37-.338-2.033-1.023-3.318-3.154-3.273-5.429l.051-2.616c.01-.511-.397-.934-.908-.944-.503.01-.934.396-.944.908l-.051 2.616c-.056 2.894 1.527 5.611 4.055 6.995l1.538 2.474-6.503-1.147c-2.414-.426-4.442-2.119-5.293-4.419l-.774-2.093 2.977-3.866c.124-.162.192-.361.192-.565v-4.227c0-.512-.415-.926-.926-.926-.512 0-.926.414-.926.926v3.91l-2.075 2.695-2.561-6.926c-.178-.479-.71-.728-1.19-.547-.48.177-.725.71-.548 1.189l4.094 11.072c1.078 2.914 3.649 5.061 6.708 5.6l8.179 1.444 7.39 10.079c-1.824.332-3.521.923-5.022 1.814-.731-5.392-9.151-10.699-10.239-11.364-.223-.136-.493-.171-.745-.098-.251.074-.459.251-.573.487-.139.29-3.379 7.149-.588 11.883 1.703 2.889 4.814 4.124 7.284 4.143-1.501 2.622-2.308 5.894-2.308 9.736 0 5.83 1.775 12.007 4.729 16.695-2.501 7.292-6.899 17.434-9.09 20.135-4.379 5.399-4.256 14.184-2.678 20.619.105.624.841 4.018 1.51 6.072-2.112.901-4.304 3.015-4.55 7.878-.013.253.079.501.254.686.175.184.417.288.671.288h2.998c-.108.563-.185 1.176-.219 1.852h25.72.827 25.72c-.157-3.114-1.167-4.963-2.399-6.061-.429-1.368-1.07-2.384-1.806-3.141.586-2.061 1.148-4.714 1.181-4.98.458-1.844.788-3.892.924-5.992z" fill="#e6e7e8"/><path d="m87.496 93.83c-.1.094-.202.171-.303.257.485 2.138.642 4.408.561 6.646 3.704-.348 4.906-2.47 5.006-4.902.107-2.604-3.29-3.857-5.264-2.001z" fill="#d4fbff"/><path d="m82.218 111.677c.731-1.713 1.746-6.459 1.792-6.819 1.529-6.205 1.706-14.68-2.489-19.851-2.522-3.109-7.517-14.995-9.823-22.159-2.808 5.101-6.932 8.684-11.533 8.684-4.11 0-7.839-2.86-10.59-7.106-2.472 7.216-6.954 17.691-9.298 20.581-4.195 5.171-4.018 13.646-2.489 19.851.046.36 1.061 5.106 1.792 6.819-2.057.575-4.559 2.304-4.815 7.363h25.721.827 25.72c-.256-5.059-2.758-6.788-4.815-7.363z" fill="#fff"/><path d="m84.997 114.456c.731-1.713 1.746-6.459 1.792-6.819 1.529-6.205 1.706-14.68-2.489-19.851-2.793-3.444-8.623-17.66-10.469-24.295-.221-.792-.715-1.458-1.426-2.008-2.796 5.818-7.237 10.049-12.239 10.049-2.927 0-5.662-1.45-7.988-3.818-2.504 7.191-6.832 17.249-9.122 20.072-4.195 5.171-4.018 13.646-2.489 19.851.046.36 1.061 5.106 1.792 6.819-2.057.575-4.559 2.304-4.815 7.363h25.72.827 25.721c-.256-5.059-2.758-6.788-4.815-7.363z" fill="#6dc9f7"/><path d="m59.721 96.945c-1.125 0-2.197.361-3.191.992v20.327h2.842.698 3.18v-20.118c-1.085-.773-2.278-1.201-3.529-1.201z" fill="#d4fbff"/><path d="m60.165 71.531c-3.348 0-6.443-1.9-8.964-4.898.214 8.996 4.144 22.777 8.964 22.777 4.819 0 8.75-13.781 8.964-22.777-2.521 2.998-5.616 4.898-8.964 4.898z" fill="#d4fbff"/><path d="m40.366 22.233s-3.197 6.649-.626 11.011c2.571 4.363 9.159 4.809 10.257 1.607 1.911-5.568-9.631-12.618-9.631-12.618z" fill="#d4fbff"/><path d="m80.221 22.233s3.197 6.649.626 11.011c-2.571 4.363-9.159 4.809-10.257 1.607-1.91-5.568 9.631-12.618 9.631-12.618z" fill="#d4fbff"/><path d="m60.165 32c-8.461 0-15.32 4.59-15.32 16.01s6.859 23.522 15.32 23.522 15.32-12.102 15.32-23.522-6.859-16.01-15.32-16.01z" fill="#6dc9f7"/><path d="m60.165 56.787c-4.555 0-8.248 3.385-8.248 7.561 0 .663.103 1.303.278 1.916 1.436 2.153 3.128 3.928 4.995 5.13.924.328 1.925.515 2.975.515 4.555 0 8.248-3.385 8.248-7.561s-3.693-7.561-8.248-7.561z" fill="#d4fbff"/><path d="m59.89 59.319c-2.734 0-4.95-1.057-4.95.961 0 2.017 2.216 6.345 4.95 6.345s4.95-4.328 4.95-6.345c-.001-2.018-2.217-.961-4.95-.961z" fill="#fa759e"/><g fill="#3a2c60"><path d="m91.531 92.334c-1.552-.709-3.345-.435-4.613.681.203.705.366 1.428.494 2.165.264-.198.529-.396.769-.622.822-.773 1.871-.702 2.519-.405.333.152 1.103.616 1.061 1.637-.054 1.307-.445 2.257-1.197 2.906-.652.563-1.594.905-2.788 1.033-.003.666-.028 1.329-.072 1.988 1.749-.147 3.159-.637 4.168-1.508 1.175-1.017 1.811-2.476 1.887-4.338.063-1.524-.791-2.88-2.228-3.537z"/><path d="m83.5 111.073c.671-2.073 1.383-5.381 1.49-6.016 1.582-6.453 1.702-15.262-2.693-20.681-2.352-2.899-7.248-14.385-9.602-21.693 2.385-4.448 3.789-9.905 3.789-15.09 0-3.804-.791-7.048-2.257-9.663.025 0 .048.003.072.003 2.501 0 5.678-1.245 7.409-4.183 2.81-4.768-.446-11.661-.585-11.953-.123-.254-.347-.445-.618-.525s-.563-.041-.805.105c-1.1.672-9.663 6.073-10.284 11.547-1.2-.728-2.53-1.304-4-1.695l6.586-9.327 8.14-1.437c3.085-.543 5.678-2.707 6.765-5.646l4.094-11.072c.191-.518-.073-1.093-.591-1.284-.517-.194-1.092.073-1.285.591l-2.515 6.804-1.979-2.569v-3.887c0-.553-.448-1-1-1s-1 .447-1 1v4.226c0 .221.073.436.208.61l2.952 3.834-.76 2.055c-.842 2.274-2.848 3.95-5.236 4.371l-6.34 1.119 1.441-2.318c2.542-1.4 4.133-4.137 4.077-7.052l-.051-2.616c-.011-.553-.448-.976-1.02-.98-.552.011-.991.468-.98 1.02l.051 2.616c.044 2.247-1.225 4.352-3.233 5.361-.164.083-.302.209-.399.365l-2.75 4.423-7.328 10.376c-.988-.14-2.015-.227-3.098-.227-.642 0-1.268.026-1.877.075l-8.215-11.16-2.743-4.413c-.097-.156-.235-.282-.4-.365-2.008-1.01-3.276-3.114-3.232-5.361l.051-2.615c.011-.552-.428-1.009-.98-1.02-.547.023-1.009.428-1.02.98l-.051 2.615c-.057 2.916 1.535 5.652 4.077 7.052l1.441 2.319-6.341-1.119c-2.389-.422-4.395-2.098-5.236-4.372l-.76-2.055 2.951-3.834c.135-.175.208-.39.208-.61v-4.225c0-.553-.448-1-1-1s-1 .447-1 1v3.886l-1.978 2.568-2.515-6.801c-.191-.52-.768-.785-1.285-.591-.518.191-.783.767-.591 1.284l4.094 11.071c1.087 2.938 3.679 5.103 6.765 5.647l8.15 1.438 7.339 10.01c-1.807.36-3.434.967-4.869 1.8-.744-5.427-9.17-10.745-10.261-11.411-.241-.146-.533-.185-.805-.105-.271.08-.496.271-.618.525-.14.292-3.395 7.186-.585 11.953 1.691 2.868 4.755 4.114 7.227 4.171-1.469 2.616-2.261 5.863-2.261 9.67 0 5.829 1.771 12.004 4.721 16.7-2.499 7.283-6.881 17.39-9.066 20.083-4.396 5.419-4.274 14.228-2.693 20.681.107.636.819 3.943 1.49 6.016-2.113.925-4.286 3.063-4.531 7.916-.014.273.085.541.274.74.188.198.451.311.725.311h52.269c.274 0 .536-.112.725-.311s.288-.467.274-.74c-.247-4.851-2.42-6.99-4.533-7.915zm-3.744-87.352c.724 1.937 1.936 6.121.23 9.016-1.389 2.356-4.167 3.389-6.193 3.174-.279-.029-.755-.106-1.206-.313-.331-.381-.682-.742-1.053-1.082-1.206-3.558 4.822-8.511 8.222-10.795zm-32.961 12.189c-2.024.212-4.805-.818-6.193-3.174-1.7-2.885-.491-7.075.231-9.015 3.308 2.219 9.081 6.958 8.285 10.494-.542.465-1.037.979-1.499 1.526-.321.102-.623.149-.824.169zm13.37-3.325c5.348 0 14.319 1.95 14.319 15.009 0 10.101-5.883 21.792-13.595 22.489v-3.648c-.323.123-.657.191-1 .191s-.677-.068-1-.191v3.574c-7.438-1.188-13.044-12.556-13.044-22.414 0-13.06 8.972-15.01 14.32-15.01zm-19.112 53.052c2.32-2.859 6.374-12.218 8.922-19.336 2.75 3.518 6.259 5.816 10.19 5.816 4.418 0 8.307-2.899 11.179-7.177 2.49 7.23 6.928 17.651 9.4 20.698 3.943 4.86 3.771 12.992 2.294 18.982-.007.031-.016.076-.02.108-.068.462-1.048 4.98-1.72 6.557-.043.101-.053.21-.062.317-.496-.082-1.003-.136-1.525-.136-.224 0-1.619.135-3.482.349-.23-4.73-.452-10.953.859-17.298.112-.541-.236-1.069-.777-1.182-.538-.109-1.07.236-1.182.777-1.372 6.639-1.117 13.309-.891 17.941-3.077.383-6.659.898-8.561 1.373v-2.875c0-.553-.448-1-1-1s-1 .447-1 1v5.988c0 .544.11 1.048.29 1.5h-6.135c.178-.452.287-.956.287-1.5v-19.311c0-.553-.448-1-1-1s-1 .447-1 1v15.847c-2.212-.319-5.484-.715-8.367-1.035.222-4.63.47-11.293-.876-17.925-.11-.541-.642-.884-1.179-.781-.542.11-.891.638-.781 1.18 1.288 6.35 1.069 12.578.844 17.311-2.033-.214-3.61-.359-4.008-.359-.409 0-.808.036-1.201.088-.012-.091-.015-.183-.052-.269-.672-1.575-1.652-6.095-1.719-6.551-.005-.038-.012-.076-.021-.114-1.476-5.99-1.649-14.122 2.294-18.983z"/><path d="m64.678 107.636c.552 0 1-.447 1-1v-4.062c0-.553-.448-1-1-1s-1 .447-1 1v4.062c0 .552.447 1 1 1z"/><path d="m64.678 99.669c.552 0 1-.447 1-1v-1.441c0-.553-.448-1-1-1s-1 .447-1 1v1.441c0 .553.447 1 1 1z"/><path d="m57.0523 48.578c0-1.055-.855-1.91-1.91-1.91s-1.91.855-1.91 1.91.855 1.91 1.91 1.91 1.91-.855 1.91-1.91z"/><circle cx="65.527" cy="48.578" r="1.91"/></g></svg>