<svg id="Layer_1" enable-background="new 0 0 128 128" height="512" viewBox="0 0 128 128" width="512" xmlns="http://www.w3.org/2000/svg"><path d="m98.631 95.925c-.617-2.96-1.886-6.117-3.704-9.198.064-3.818-.298-8.142-1.701-11.785 1.449-2.84 2.26-6.254 2.26-10.308 0-2.74-.37-5.62-1.057-8.508-.901-3.786-.901-7.707 0-11.493.687-2.888 1.057-5.768 1.057-8.508 0-4.12-.838-7.578-2.332-10.446 1.885-.773 3.727-1.969 5.38-3.591 5.22-5.124 3.412-15.113 3.333-15.536-.063-.332-.288-.609-.6-.739-2.857-1.184-11.72 4.025-16.761 9.188-4.612-3.056-10.903-4.677-18.656-4.677-7.651 0-13.878 1.578-18.473 4.556-5.062-5.123-13.809-10.243-16.643-9.066-.312.129-.537.407-.6.739-.08.423-1.887 10.413 3.333 15.536 1.758 1.726 3.73 2.968 5.741 3.73-.656 2.221-.996 4.659-.996 7.306 0 2.777.365 5.718 1.084 8.74.871 3.659.871 7.37 0 11.03-.72 3.022-1.084 5.962-1.084 8.74 0 3.847.741 7.264 2.146 10.22-2.736 4.063-3.37 9.907-3.287 14.877-1.817 3.079-3.086 6.235-3.702 9.194-4.714 1.551-8.13 5.988-8.13 11.214 0 6.512 5.298 11.81 11.81 11.81 1.302 0 2.552-.22 3.724-.611l.141 1.146c.19 1.542 1.006 2.951 2.239 3.867 1.799 1.336 4.686 2.941 8.215 3.001.079.001.158.002.235.002 3.235 0 5.741-1.131 7.287-2.093 1.401-.873 2.252-2.516 2.22-4.289l-.09-5.074c1.639.044 3.302.062 4.979.062 1.676 0 3.339-.018 4.977-.062l-.088 5.073c-.032 1.773.819 3.416 2.221 4.289 1.545.962 4.051 2.093 7.286 2.093.078 0 .157-.001.235-.002 3.53-.06 6.417-1.665 8.216-3.001 1.233-.916 2.049-2.326 2.239-3.867l.141-1.146c1.172.391 2.422.611 3.724.611 6.512 0 11.81-5.298 11.81-11.81 0-5.226-3.416-9.663-8.129-11.214z" fill="#e6e7e8"/><path d="m93.772 92.715c-.553-3.149-1.895-6.514-3.871-9.767.071-3.492-.205-7.437-1.333-10.83.384 1.156-3.885 4.523-4.764 5.152-1.997 1.431-4.224 2.518-6.546 3.308-4.815 1.637-10.005 2.023-15.057 1.728-7.021-.41-14.568-2.288-19.346-7.823-.084-.098-.164-.2-.246-.3-1.748-2.116-3.041-4.669-3.754-7.711-4.047 3.706-4.875 10.702-4.758 16.466-1.98 3.255-3.315 6.624-3.868 9.775-4.6 1.242-7.99 5.432-7.99 10.425 0 5.97 4.839 10.809 10.809 10.809 1.631 0 3.171-.372 4.558-1.018l.3 2.431c.157 1.273.845 2.445 1.843 3.186 1.621 1.204 4.326 2.748 7.636 2.804 3.089.052 5.474-1.005 6.977-1.94 1.103-.686 1.775-1.985 1.749-3.422l-.11-6.12c1.944.064 3.948.092 5.999.092s4.055-.027 5.999-.092l-.11 6.12c-.026 1.437.646 2.735 1.749 3.422 1.502.935 3.887 1.993 6.977 1.94 3.31-.056 6.015-1.6 7.636-2.804.998-.741 1.686-1.913 1.843-3.186l.3-2.431c1.387.647 2.927 1.018 4.558 1.018 5.97 0 10.809-4.839 10.809-10.809-.001-4.991-3.39-9.181-7.989-10.423z" fill="#6dc9f7"/><path d="m68.277 94.472c-2.031-.486-4.127-.763-6.277-.763s-4.246.278-6.277.763l.278 15.396c1.944.065 3.948.093 5.999.093 2.052 0 4.055-.028 5.999-.093z" fill="#d4fbff"/><g fill="#ffd7e5"><path d="m35.864 98.798c-.811-.527-1.775-.84-2.815-.84-2.862 0-5.182 2.32-5.182 5.182s2.32 5.182 5.182 5.182c1.499 0 2.838-.646 3.784-1.663z"/><path d="m90.951 97.958c-1.04 0-2.003.313-2.815.84l-.969 7.86c.946 1.017 2.285 1.663 3.784 1.663 2.862 0 5.182-2.32 5.182-5.182s-2.321-5.181-5.182-5.181z"/><path d="m43.332 115.842c-1.408 0-2.548 1.568-2.63 3.542 1.293.754 3.008 1.505 5.019 1.814.161-.485.257-1.022.257-1.593-.001-2.078-1.185-3.763-2.646-3.763z"/><path d="m49.52 115.842c-1.461 0-2.646 1.685-2.646 3.762 0 .629.119 1.213.311 1.734.068.002.132.012.2.013 1.816.028 3.38-.298 4.673-.741.063-.322.108-.655.108-1.006 0-2.077-1.185-3.762-2.646-3.762z"/><path d="m80.612 115.842c1.408 0 2.548 1.568 2.63 3.542-1.293.754-3.008 1.505-5.019 1.814-.161-.485-.257-1.022-.257-1.593 0-2.078 1.185-3.763 2.646-3.763z"/><path d="m74.423 115.842c1.461 0 2.646 1.685 2.646 3.762 0 .629-.119 1.213-.311 1.734-.068.002-.132.012-.2.013-1.816.028-3.38-.298-4.673-.741-.063-.322-.108-.655-.108-1.006.001-2.077 1.185-3.762 2.646-3.762z"/></g><path d="m43.27 12.196c-4.797-5.186-13.936-10.378-16.152-9.458 0 0-1.849 9.829 3.05 14.637 1.986 1.949 4.156 3.193 6.286 3.823 1.341-3.856 3.712-6.82 6.816-9.002z" fill="#6dc9f7"/><path d="m96.882 2.738c-2.234-.927-11.503 4.359-16.267 9.587 3.035 2.184 5.349 5.135 6.658 8.953 2.217-.601 4.488-1.871 6.559-3.903 4.899-4.808 3.05-14.637 3.05-14.637z" fill="#6dc9f7"/><path d="m88.485 29.125c0-15.607-11.926-21.801-26.637-21.801s-26.637 6.194-26.637 21.801c0 2.74.37 5.62 1.057 8.508.901 3.786.901 7.707 0 11.493-.687 2.888-1.057 5.768-1.057 8.508 0 15.607 11.926 21.801 26.637 21.801s26.637-6.194 26.637-21.801c0-2.74-.37-5.62-1.057-8.508-.901-3.786-.901-7.707 0-11.493.688-2.888 1.057-5.768 1.057-8.508z" fill="#fff"/><path d="m91.485 32.125c0-15.607-11.926-21.801-26.637-21.801s-26.637 6.194-26.637 21.801c0 2.74.37 5.62 1.057 8.508.901 3.786.901 7.707 0 11.493-.687 2.888-1.057 5.768-1.057 8.508 0 15.607 11.926 21.801 26.637 21.801s26.637-6.194 26.637-21.801c0-2.74-.37-5.62-1.057-8.508-.901-3.786-.901-7.707 0-11.493.688-2.888 1.057-5.768 1.057-8.508z" fill="#6dc9f7"/><path d="m43.587 36.81c-1.739 0-3.149.791-3.149 1.766s1.41 1.766 3.149 1.766 3.149-.791 3.149-1.766-1.41-1.766-3.149-1.766z" fill="#fa759e"/><path d="m80.413 36.81c-1.739 0-3.149.791-3.149 1.766s1.41 1.766 3.149 1.766 3.149-.791 3.149-1.766c-.001-.975-1.411-1.766-3.149-1.766z" fill="#fa759e"/><path d="m62 38.26s-8.386 12.002-8.386 16.633 3.755 8.386 8.386 8.386 8.386-3.755 8.386-8.386-8.386-16.633-8.386-16.633z" fill="#ffd7e5"/><path d="m94.608 91.916c-.616-2.958-1.871-6.11-3.686-9.189.062-3.816-.294-8.144-1.697-11.785-.408.799-.867 1.553-1.374 2.262 2.272 7.92.145 18.671.104 18.883l-2.855 23.153c-.121.986-.662 1.923-1.446 2.505-1.564 1.161-4.058 2.556-7.057 2.607-2.847.049-5.077-.946-6.431-1.79-.807-.502-1.297-1.481-1.277-2.556l.396-22.871c.009-.552-.431-1.007-.983-1.017-.544-.01-1.007.43-1.017.983l-.273 15.789c-1.618.044-3.279.071-5.011.071-1.733 0-3.395-.026-5.015-.071l-.292-16.405c-.01-.546-.456-.982-1-.982-.006 0-.012 0-.018 0-.552.01-.992.466-.982 1.018l.418 23.487c.02 1.073-.47 2.052-1.277 2.555-1.355.843-3.593 1.856-6.431 1.79-3-.051-5.493-1.446-7.057-2.607-.784-.582-1.325-1.519-1.446-2.506l-2.87-23.23c-.037-.183-2.847-14.336 1.448-22.12 3.02 4.77 8.07 8.069 14.943 9.588.542.12 1.073-.222 1.192-.761.119-.54-.222-1.073-.761-1.192-7.592-1.677-16.643-6.49-16.643-19.89 0-2.619.347-5.404 1.03-8.277.931-3.911.931-8.044 0-11.955-.683-2.873-1.03-5.658-1.03-8.277 0-18.774 17.929-20.801 25.637-20.801s25.637 2.027 25.637 20.801c0 2.621-.347 5.406-1.03 8.277-.931 3.911-.931 8.044 0 11.955.683 2.871 1.03 5.656 1.03 8.277 0 16.007-13.061 19.753-20.846 20.562-.549.057-.948.549-.891 1.098.053.514.487.896.994.896.034 0 .069-.001.104-.005 14.599-1.516 22.639-9.525 22.639-22.551 0-2.777-.365-5.717-1.084-8.74-.859-3.608-.859-7.421 0-11.029.72-3.022 1.084-5.963 1.084-8.74 0-3.835-.712-7.233-2.076-10.162.003.004.006.007.009.01-.01-.021-.023-.039-.032-.06-1.234-2.632-2.996-4.884-5.26-6.721 4.586-4.605 11.65-8.387 13.877-8.575.292 2.245.871 9.373-2.872 13.045-1.52 1.492-3.235 2.602-5.011 3.277.375.555.72 1.139 1.036 1.748 1.916-.783 3.75-2.002 5.376-3.597 5.22-5.124 3.412-15.113 3.333-15.536-.063-.332-.288-.609-.6-.739-2.827-1.173-11.907 4.236-16.762 9.186-4.612-3.055-10.902-4.677-18.655-4.677-7.648 0-13.874 1.577-18.469 4.553-4.886-4.933-13.797-10.249-16.644-9.064-.312.129-.537.407-.6.739-.08.423-1.888 10.412 3.333 15.536 1.722 1.69 3.688 2.968 5.737 3.74-.654 2.219-.993 4.653-.993 7.296 0 2.774.365 5.715 1.084 8.74.859 3.608.859 7.421 0 11.029-.72 3.025-1.084 5.965-1.084 8.74 0 3.849.742 7.268 2.148 10.225-2.735 4.062-3.366 9.907-3.284 14.873-1.813 3.077-3.068 6.227-3.683 9.184-4.726 1.544-8.152 5.988-8.152 11.223 0 6.512 5.298 11.809 11.81 11.809 1.302 0 2.551-.22 3.723-.612l.142 1.148c.19 1.542 1.007 2.951 2.239 3.866 1.799 1.336 4.685 2.941 8.215 3.001.079.001.157.002.235.002 3.235 0 5.741-1.131 7.287-2.093 1.401-.872 2.252-2.516 2.221-4.289l-.091-5.08c1.64.044 3.3.069 4.979.069 1.678 0 3.337-.025 4.977-.069l-.088 5.079c-.032 1.773.819 3.417 2.221 4.289 1.546.962 4.052 2.093 7.287 2.093.078 0 .157-.001.235-.002 3.53-.06 6.416-1.665 8.215-3.001 1.233-.915 2.049-2.325 2.239-3.866l.141-1.148c1.172.392 2.421.613 3.724.613 6.512 0 11.809-5.297 11.809-11.809 0-5.234-3.426-9.678-8.152-11.223zm-58.75-71.975c-1.771-.677-3.48-1.798-4.989-3.28-3.744-3.674-3.163-10.807-2.872-13.048 2.205.17 9.096 3.828 13.747 8.444-2.295 1.822-4.091 4.059-5.352 6.681-.025.053-.049.106-.074.159-.14.298-.274.601-.401.909-.018.046-.041.089-.059.135zm-2.578 66.711c.179 2.052.43 3.725.6 4.717-.274-.022-.55-.039-.831-.039-.506 0-1.001.043-1.491.105.395-1.562.963-3.166 1.722-4.783zm-.231 26.297c-5.409 0-9.81-4.4-9.81-9.809s4.4-9.81 9.81-9.81c.387 0 .767.026 1.141.072l2.331 18.899c-1.08.414-2.248.648-3.472.648zm59.393-21.514c-.49-.062-.985-.105-1.491-.105-.281 0-.557.017-.831.039.173-1.015.421-2.684.598-4.722.76 1.618 1.329 3.224 1.724 4.788zm-1.491 21.514c-1.224 0-2.393-.234-3.473-.648l2.328-18.898c.376-.046.757-.073 1.145-.073 5.409 0 9.809 4.4 9.809 9.81 0 5.408-4.401 9.809-9.809 9.809z" fill="#3a2c60"/><path d="m57.044 78.195c-.555-.067-1.041.342-1.098.891s.342 1.041.891 1.098c1.604.167 3.29.251 5.012.251.552 0 1-.448 1-1s-.448-1-1-1c-1.653 0-3.27-.081-4.805-.24z" fill="#3a2c60"/><path d="m50.304 25.918c-1.822 0-3.298 1.477-3.298 3.298 0 1.822 1.477 3.298 3.298 3.298 1.822 0 3.298-1.477 3.298-3.298.001-1.821-1.476-3.298-3.298-3.298z" fill="#3a2c60"/><path d="m76.691 29.216c0-1.822-1.477-3.298-3.298-3.298-1.822 0-3.298 1.477-3.298 3.298 0 1.822 1.477 3.298 3.298 3.298 1.821.001 3.298-1.476 3.298-3.298z" fill="#3a2c60"/><path d="m71.386 54.893c0-4.807-7.689-15.951-8.566-17.206-.374-.535-1.266-.535-1.64 0-.877 1.255-8.566 12.399-8.566 17.206 0 5.176 4.21 9.386 9.386 9.386 5.175 0 9.386-4.21 9.386-9.386zm-9.386 7.386c-4.073 0-7.386-3.313-7.386-7.386 0-3.171 4.755-10.93 7.386-14.86 2.631 3.929 7.386 11.687 7.386 14.86 0 4.073-3.313 7.386-7.386 7.386z" fill="#3a2c60"/><path d="m66.618 68.742c-.858-.858-2.069-1.038-2.705-.403-.636.636-.455 1.847.403 2.705s2.069 1.038 2.705.403c.635-.636.455-1.847-.403-2.705z" fill="#0089ef"/><path d="m60.087 68.339c-.636-.636-1.847-.455-2.705.403s-1.038 2.069-.403 2.705 1.847.455 2.705-.403 1.038-2.069.403-2.705z" fill="#0089ef"/></svg>