<svg id="Layer_1" enable-background="new 0 0 128 128" height="512" viewBox="0 0 128 128" width="512" xmlns="http://www.w3.org/2000/svg"><path d="m122.245 48.571c-.176-.292-.489-.476-.831-.484-.029-.001-.06-.001-.09-.001-4.571 0-12.517 9.13-14.761 11.823-1.759.663-3.43 2.342-4.273 3.301-.016-.007-.03-.014-.046-.021-.98-.441-2.043-.912-3.163-1.402v-2.378c0-.954-.439-1.828-1.205-2.397-.765-.568-1.729-.738-2.643-.463l-5.017 1.509c-3.248-1.311-6.73-2.65-10.31-3.931.444-.705 1.084-1.345 1.943-1.909.726-.476 1.135-1.303 1.068-2.158-.066-.853-.575-1.575-1.36-1.931-6.368-2.886-15.45-9.205-15.541-9.269-.29-.201-.664-.236-.984-.091-5.447 2.462-8.051 7.132-9.205 10.066-.903-.031-1.852-.053-2.916-.062-.003 0-.005 0-.008 0-.548 0-5.409.004-5.96.004 0 0-.001 0-.002 0l-.78.001c-21.801 0-35.269 13.599-37.708 18.552-.713 1.447-.713 3.108 0 4.556 2.439 4.953 15.907 18.552 37.708 18.552l1.753.001c.555.001 1.098.001 1.633.001 6.125 0 11.057-.1 17.202-1.402 1.406 1.604 4.062 3.542 8.939 4.271.049.007.099.011.147.011.238 0 .47-.085.652-.243.221-.19.348-.466.348-.757v-6.156c4.267-1.459 8.448-3.035 12.325-4.583 1.429 1.736 4.009 3.868 8.575 5.128.304.084.611.125.917.125.744 0 1.475-.244 2.09-.713.888-.676 1.396-1.702 1.396-2.814v-7.233c.03-.014.063-.028.093-.042.108-.049.217-.101.325-.157.738.457 2.099 1.233 3.47 1.689 5.942 4.458 14.146 8.483 14.588 8.699.138.067.288.101.438.101.112 0 .225-.019.333-.057.252-.089.458-.275.572-.518 3.515-7.488-.467-15.365-1.728-17.54 7.119-10.919 2.231-19.32 2.016-19.678z" fill="#e6e7e8"/><path d="m102.827 57.162s9.875-12.202 14.561-12.076c0 0 5.021 8.358-2.343 19.138 0 0 5.858 8.939 2.008 17.14 0 0-13.734-6.699-18.578-12.305-4.845-5.607 4.352-11.897 4.352-11.897z" fill="#fff"/><g fill="#fa759e"><path d="m106.087 60.423s9.875-12.202 14.561-12.076c0 0 5.021 8.358-2.343 19.138 0 0 5.858 8.939 2.008 17.14 0 0-13.734-6.699-18.578-12.305-4.844-5.607 4.352-11.897 4.352-11.897z"/><path d="m85.493 76.373c1.185 1.66 3.64 4.028 8.508 5.372 1.582.437 3.138-.797 3.138-2.438v-7.882c-3.42 1.529-7.375 3.231-11.646 4.948z"/><path d="m71.59 81.533c-3.15 1.061-5.91 1.832-8.456 2.396 1.14 1.501 3.609 3.63 8.702 4.391v-6.871c-.082.028-.164.056-.246.084z"/><path d="m94.082 58.441v-3.032c0-1.332-1.284-2.287-2.56-1.903l-5.352 1.61c2.8 1.133 5.459 2.256 7.912 3.325z"/><path d="m70.65 49.368c1.229.408 2.452.828 3.668 1.255.068.024.138.046.206.07.545-1.511 1.677-2.591 2.777-3.313.893-.586.816-1.901-.156-2.342-6.528-2.959-15.7-9.359-15.7-9.359-5.541 2.504-7.979 7.511-8.925 10.178h.001c5.382.23 10.569 1.005 18.129 3.511z"/></g><path d="m105.333 57.169c-2.416-2.301-6.797 3.305-6.797 3.305v.007c-.223-.136-.452-.268-.702-.38-.829-.373-1.7-.759-2.594-1.152-6.908-3.039-15.63-6.61-24.591-9.581-12.058-3.998-18.08-3.59-28.488-3.59-2.216 0-4.286.15-6.229.417 3.721 1.14 8.191 6.72 9.088 10.431 6.037-2.011 18.496-.23 25.249 1.222 6.915 1.487 17.516 3.187 24.192 5.591 1.214.437 2.507.59 3.789.445 5.94-.668 6.073 1.719 7.865 3.316-.372-1.188-.782-2.092-.782-2.092s2.417-5.638 0-7.939z" fill="#6dc9f7"/><path d="m105.333 65.109s2.416-5.638 0-7.939-6.797 3.305-6.797 3.305v.007c-.223-.136-.452-.268-.702-.38-7.237-3.253-17.068-7.379-27.185-10.733-12.058-3.998-18.08-3.59-28.488-3.59-20.981 0-34.392 13.08-36.811 17.994-.571 1.159-.571 2.512 0 3.672 2.42 4.912 15.83 17.992 36.812 17.992 10.667 0 17.073.257 29.429-3.904 9.779-3.294 19.221-7.262 26.231-10.413.274-.123.528-.265.77-.417v.006s2.415 1.7 5.715 2.242c4.661.765 1.026-7.842 1.026-7.842z" fill="#d4fbff"/><path d="m26.559 65.791c-2.205 0-3.992.801-3.992 1.789s1.787 1.789 3.992 1.789 3.992-.801 3.992-1.789-1.787-1.789-3.992-1.789z" fill="#fa759e"/><path d="m105.333 57.169c-2.416-2.301-6.797 3.305-6.797 3.305v.007c-.223-.136-.452-.268-.702-.38-.829-.373-1.7-.759-2.594-1.152-6.908-3.039-15.63-6.61-24.591-9.581-12.058-3.998-18.08-3.59-28.488-3.59-2.216 0-4.286.15-6.229.417 3.721 1.14 8.191 6.72 9.088 10.431 6.037-2.011 18.496-.23 25.249 1.222 6.915 1.487 17.516 3.187 24.192 5.591 1.214.437 2.507.59 3.789.445 5.94-.668 6.073 1.719 7.865 3.316-.372-1.188-.782-2.092-.782-2.092s2.417-5.638 0-7.939z" fill="#6dc9f7"/><path d="m51.867 76.271c-1.478-1.013-1.407-2.091.003-3.139 2.048-1.522 6.476-3.596 8.076-2.937 1.831.754.663 2.766-.239 3.569-.343.305-.371.826-.081 1.183 1 1.233 2.569 3.778-1.465 3.846-1.518.026-4.528-1.311-6.294-2.522z" fill="#fa759e"/><path d="m118.245 44.571c-.176-.292-.489-.476-.831-.484-.029-.001-.06-.001-.09-.001-4.571 0-12.517 9.13-14.761 11.823-1.759.663-3.43 2.342-4.273 3.301-.016-.007-.03-.014-.046-.021-.98-.44-2.042-.912-3.162-1.402v-2.379c0-.954-.439-1.828-1.205-2.397-.768-.57-1.733-.739-2.644-.464l-5.018 1.509c-3.246-1.31-6.725-2.648-10.303-3.929.549-.872 1.316-1.504 1.937-1.91.726-.476 1.135-1.303 1.068-2.158-.066-.854-.575-1.576-1.36-1.932-6.368-2.886-15.45-9.205-15.541-9.269-.29-.201-.664-.236-.984-.091-5.407 2.444-8.024 7.1-9.196 10.066-.906-.031-1.858-.053-2.924-.062-.003 0-.005 0-.008 0-.548 0-.996.442-1 .992-.004.552.439 1.003.992 1.008 2.616.022 4.634.106 6.542.274.03.003.059.004.088.004.513 0 .95-.392.995-.913.048-.55-.358-1.035-.909-1.083-.536-.047-1.084-.087-1.646-.121 1.111-2.546 3.293-6.06 7.384-8.102 1.991 1.366 9.62 6.508 15.38 9.118.147.067.186.181.192.265.005.063-.002.22-.172.331-1.217.798-2.156 1.789-2.762 2.903-.091-.032-.184-.062-.275-.094-.914-.317-1.83-.63-2.75-.935-3.599-1.193-6.826-2.049-9.867-2.616-.542-.103-1.065.257-1.166.8-.102.542.257 1.065.8 1.166 2.951.55 6.092 1.384 9.604 2.548 10.383 3.442 20.461 7.716 27.088 10.696.211.095.403.206.591.321.308.188.695.192 1.011.016.131-.074.242-.175.326-.295 1.021-1.291 3.119-3.335 4.51-3.437.312-.023.559.062.782.275 1.556 1.481.324 5.523-.23 6.822-.112.263-.106.563.017.822.487 1.027 1.696 4.277.888 5.702-.145.255-.436.604-1.285.685-1.151.104-3.521-1.145-4.807-1.994-.046-.038-.096-.072-.149-.102-.319-.176-.706-.166-1.016.028-.204.128-.419.248-.649.352-6.365 2.862-16.068 6.985-26.141 10.377-11.506 3.875-17.803 3.87-27.353 3.854l-1.756-.001c-1.004 0-1.985-.039-2.953-.099 5.247-4.36 8.421-11.3 8.421-18.731s-3.174-14.371-8.421-18.731c.968-.059 1.949-.099 2.953-.099l.784-.001c.552-.001.999-.45.998-1.002s-.449-.998-1-.998c0 0-.001 0-.002 0l-.78.001c-21.801 0-35.269 13.599-37.708 18.552-.713 1.447-.713 3.108 0 4.556 2.439 4.953 15.907 18.552 37.708 18.552l1.753.001c.555.001 1.098.001 1.633.001 6.126 0 11.058-.1 17.204-1.403 1.44 1.645 4.102 3.549 8.936 4.271.049.008.099.011.147.011.238 0 .47-.085.652-.243.221-.19.348-.466.348-.757v-6.156c4.268-1.459 8.449-3.035 12.326-4.583 1.444 1.756 4.034 3.876 8.573 5.129.304.084.611.125.917.125.744 0 1.475-.244 2.09-.713.888-.676 1.396-1.702 1.396-2.814v-7.233c.03-.014.063-.028.093-.042.108-.049.217-.101.325-.157.739.457 2.102 1.235 3.474 1.691 5.941 4.457 14.141 8.482 14.583 8.697.138.067.288.101.438.101.112 0 .225-.019.333-.057.252-.089.458-.275.572-.518 3.515-7.488-.467-15.365-1.728-17.54 7.122-10.918 2.234-19.319 2.019-19.677zm-29.087 10.689 2.651-.797c.302-.089.621-.034.874.154s.398.477.398.792v1.51c-.03-.013-.059-.025-.089-.038-1.184-.509-2.422-1.033-3.712-1.569-.039-.017-.081-.035-.122-.052zm-81.497 13.877c1.031.413 2.259.722 3.645.722 2.022 0 4.373-.652 6.905-2.578.44-.334.525-.961.191-1.401-.334-.439-.96-.526-1.401-.191-5.657 4.3-10.015 1.054-11.056.133-.038-.547.051-1.099.302-1.608 1.981-4.023 12.806-14.924 29.97-17.064 5.812 3.802 9.413 10.838 9.413 18.457s-3.602 14.656-9.413 18.457c-14.679-1.829-24.718-10.063-28.556-14.927zm63.175 17.99c-2.796-.58-4.614-1.603-5.79-2.621.05-.012.103-.029.153-.041 1.66-.417 3.421-.921 5.32-1.532.108-.035.209-.062.317-.098zm25.303-14.163v6.343c0 .483-.222.929-.608 1.223-.366.281-.826.372-1.264.251-3.63-1.002-5.828-2.584-7.141-3.99.13-.053.263-.111.394-.164 1.362-.557 2.68-1.105 3.938-1.638.122-.052.245-.104.367-.156 1.512-.643 2.937-1.261 4.257-1.844.018-.009.037-.017.057-.025zm20.407 7.026c-1.99-1.015-6.77-3.539-11.023-6.404.796-.347 1.268-.89 1.534-1.359 1.265-2.227-.093-5.868-.637-7.139.579-1.511 2.112-6.253-.397-8.643-.249-.237-.529-.409-.824-.546 3.606-4.139 8.773-9.175 11.603-9.758.886 1.941 3.303 8.905-2.583 17.519-.228.334-.232.773-.01 1.112.053.081 5.066 7.872 2.337 15.218z" fill="#3a2c60"/><path d="m26.027 56.206c-1.912 0-3.461 1.55-3.461 3.461s1.55 3.461 3.461 3.461 3.461-1.55 3.461-3.461-1.549-3.461-3.461-3.461z" fill="#3a2c60"/><path d="m61.88 71.08c-.138-.811-.689-1.454-1.553-1.809-2.397-.99-7.548 1.94-9.053 3.059-1.004.746-1.505 1.569-1.488 2.446.016.861.526 1.642 1.516 2.32 1.599 1.096 4.852 2.698 6.817 2.698h.059c.671-.011 2.713-.046 3.403-1.527.48-1.031.11-2.327-1.101-3.853.835-.796 1.604-2.138 1.4-3.334zm-3.03 4.498c.853 1.051.987 1.696.918 1.843-.042.09-.431.353-1.624.373-.01 0-.019 0-.029 0-1.165 0-3.91-1.132-5.683-2.347-.507-.348-.645-.609-.647-.708-.002-.108.139-.4.682-.803 2.228-1.656 6.144-3.207 7.099-2.815.314.129.335.25.343.295.063.371-.357 1.149-.866 1.602-.739.658-.824 1.782-.193 2.56z" fill="#3a2c60"/></svg>