<svg id="Layer_1" enable-background="new 0 0 128 128" height="512" viewBox="0 0 128 128" width="512" xmlns="http://www.w3.org/2000/svg"><path d="m92.576 51.023c1.152 0 2.22-.609 2.828-1.567.909-.132 1.724-.625 2.258-1.392l6.799-9.749c.458.157.928.253 1.411.253 4.381 0 7.941-6.77 7.941-15.121 0-5.524-1.56-10.366-3.888-13-.946-2.193-2.184-3.885-3.616-4.928-.275-.199-.633-.246-.951-.123s-.551.4-.618.734l-2.479 12.29-5.704-5.715c-.252-.253-.621-.353-.963-.261-.345.091-.614.357-.709.701-.616 2.232-.941 4.758-.941 7.302 0 6.329 1.926 11.687 4.797 14.338l-6.584 9.44c-.02.028-.038.057-.057.086h-11.663c-.721-2.378-1.639-4.527-2.734-6.36 1.054-1.064 1.662-2.51 1.662-4.016 0-2.054-1.092-3.854-2.722-4.864.987-1.908 1.345-3.768 1.033-5.55-.613-3.496-3.54-5.324-3.664-5.4-.473-.288-1.087-.14-1.375.33-.289.472-.141 1.087.33 1.375.023.015 2.28 1.424 2.739 4.041.243 1.389-.077 2.883-.927 4.459-.368-.074-.748-.114-1.138-.114-1.666 0-3.226.734-4.296 1.955-1.07-1.221-2.63-1.955-4.296-1.955-.156 0-.309.011-.461.023-.809-1.534-1.114-2.991-.882-4.348.444-2.593 2.708-4.039 2.746-4.063.469-.289.615-.903.327-1.373s-.902-.618-1.375-.33c-.124.076-3.051 1.904-3.664 5.4-.296 1.687.005 3.442.874 5.242-1.94.917-3.288 2.887-3.288 5.172 0 1.507.608 2.951 1.661 4.016-1.095 1.833-2.013 3.982-2.734 6.36h-13.292c-.019-.029-.038-.059-.058-.087l-6.584-9.439c2.871-2.651 4.797-8.009 4.797-14.338 0-2.547-.325-5.071-.94-7.302-.095-.344-.364-.61-.709-.701-.343-.092-.711.008-.963.261l-5.705 5.715-2.479-12.29c-.067-.334-.301-.611-.618-.734-.317-.124-.676-.076-.951.123-3.344 2.437-5.504 8.297-5.504 14.929 0 6.899 2.29 12.645 5.602 14.986.099.375.253.736.481 1.063l8.067 11.568c.535.767 1.35 1.26 2.258 1.392.608.958 1.676 1.567 2.829 1.567h12.365c-.166 1.253-.302 2.527-.373 3.838h-9.701c-.519 0-1.016.113-1.46.321-.092-.143-.22-.261-.374-.342l-4.411-2.331c-.059-.031-.122-.058-.187-.076-.308-.091-7.539-2.32-7.783-10.635-.013-.414-.278-.777-.669-.914-.39-.137-.825-.02-1.093.296-.057.066-5.541 6.723 2.659 14.726.432.421.957.778 1.59 1.073 10.922 4.696 11.486 4.696 11.728 4.696h9.772c.052.702.114 1.397.194 2.082h-9.966c-.241 0-.806 0-11.756 4.708-.604.282-1.129.639-1.562 1.062-8.2 8.003-2.716 14.658-2.659 14.725.193.228.474.353.762.353.111 0 .223-.019.331-.057.391-.137.656-.5.669-.914.244-8.314 7.476-10.543 7.781-10.633.065-.02.129-.045.189-.077l4.411-2.332c.153-.081.281-.199.373-.342.444.208.941.321 1.46.321h10.788c.169 0 .331-.024.493-.047.218.771.457 1.516.715 2.239h-4.129c-.241 0-.806 0-11.757 4.71-.604.282-1.129.639-1.56 1.06-8.2 8.003-2.716 14.659-2.659 14.726.193.228.474.353.762.353.111 0 .223-.019.331-.057.391-.137.656-.5.669-.914.243-8.314 7.476-10.544 7.781-10.634.065-.02.129-.045.188-.077l4.411-2.331c.154-.081.282-.199.374-.342.444.208.94.321 1.459.321h7.004l.367 1.963h-1.698c-.241 0-.807 0-11.756 4.708-.604.282-1.129.639-1.562 1.062-8.2 8.003-2.716 14.658-2.659 14.725.193.228.474.353.762.353.111 0 .223-.019.331-.057.391-.137.656-.5.669-.914.243-8.314 7.476-10.543 7.781-10.633.065-.02.129-.045.189-.077l4.411-2.332c.153-.081.281-.199.373-.342.444.208.941.321 1.46.321h2.145l.054 3.153c.008.464.106.909.289 1.314-.171.36-.287.75-.344 1.152l-.796 5.651c-.031.221-.04.441-.027.667-.484.431-.888 1.013-1.148 1.674l-2.083 5.294c-.07.178-.127.359-.169.547-.736.343-1.43 1.029-1.889 1.908l-2.169 4.15c-.623.045-1.288.239-1.905.565l-4.542 2.397c-3.246-2.678-9.592-5.813-17.718-6.464-10.191-.805-11.733 4.828-11.794 5.068-.114.451.101.92.515 1.133.412.212.921.11 1.223-.246.014-.018 1.403-1.643 3.099-1.376 1.629.262 3.216 2.205 4.588 5.619 1.064 2.647 2.843 4.462 5.286 5.393 1.346.513 2.792.717 4.243.717 4.045 0 8.134-1.59 10.227-2.547.612.557 1.68.696 2.883.332l5.436-1.651c1.177-.357 2.152-1.094 2.545-1.922.013-.027.024-.054.036-.081.837.095 1.807-.364 2.571-1.289l3.631-4.38c.757-.914 1.112-1.984 1.013-2.873.283-.231.541-.517.766-.849l3.191-4.712c.6-.885.847-1.87.744-2.7.563-.331 1.048-.891 1.356-1.612l2.242-5.247c.434-1.013.429-2.104.038-2.947.219-.299.39-.64.502-1.005l1.493-4.835h.902c.519 0 1.016-.113 1.46-.321.092.142.22.261.373.342l4.411 2.332c.061.032.124.058.189.077.075.021 7.535 2.276 7.78 10.633.013.414.278.777.669.914.108.038.22.057.331.057.288 0 .568-.125.762-.353.057-.066 5.542-6.722-2.658-14.725-.432-.421-.957-.778-1.59-1.074-10.922-4.695-11.486-4.695-11.728-4.695h-.143l.366-1.963h5.448c.512 0 1.01-.116 1.456-.327.093.145.222.266.378.348l4.411 2.331c.059.031.122.058.187.076.308.091 7.539 2.32 7.783 10.635.013.414.278.777.669.914.108.038.22.057.331.057.288 0 .568-.125.762-.353.057-.066 5.541-6.723-2.66-14.727-.432-.421-.957-.776-1.589-1.072-10.922-4.696-11.486-4.696-11.728-4.696h-2.515c.251-.708.486-1.438.7-2.192h9.683c.519 0 1.015-.113 1.459-.321.092.143.22.261.373.342l4.411 2.332c.061.032.124.058.189.077.075.021 7.536 2.276 7.781 10.633.013.414.278.777.669.914.108.038.22.057.331.057.288 0 .568-.125.762-.353.057-.066 5.541-6.722-2.658-14.724-.431-.422-.956-.779-1.59-1.075-10.922-4.695-11.486-4.695-11.728-4.695h-8.345c.081-.686.145-1.382.198-2.082h8.147c.241 0 .806 0 11.757-4.71.606-.283 1.131-.641 1.56-1.06 8.2-8.003 2.716-14.659 2.659-14.726-.268-.315-.704-.433-1.093-.296-.391.137-.656.5-.669.914-.243 8.314-7.476 10.544-7.781 10.634-.065.02-.129.045-.188.077l-4.411 2.331c-.154.081-.282.199-.374.342-.444-.208-.94-.321-1.459-.321h-8.071c-.071-1.311-.208-2.584-.373-3.838h10.736z" fill="#e6e7e8"/><g fill="#6dc9f7"><path d="m101.5 37.828c-.27 9.181-8.503 11.565-8.503 11.565l-4.411 2.331-.23 1.35c-.371-.713-1.158-1.213-2.071-1.213h-8.941c.01.407.018.814.018 1.226 0 1.22-.047 2.416-.129 3.588h9.052c.6 0 11.333-4.615 11.333-4.615.476-.222.92-.513 1.286-.87 7.627-7.443 2.596-13.362 2.596-13.362z"/><path d="m98.904 66.243c-.366-.357-.81-.648-1.286-.87 0 0-10.733-4.615-11.333-4.615h-9.509c-.266 1.693-.619 3.302-1.045 4.814h10.553c.913 0 1.7-.5 2.071-1.213l.23 1.35 4.411 2.332s8.233 2.383 8.503 11.565c.001-.002 5.032-5.92-2.595-13.363z"/><path d="m91.037 75.249c-.366-.357-.81-.648-1.286-.87 0 0-10.733-4.615-11.333-4.615h-4.171c-.59 1.345-1.247 2.561-1.965 3.614-.01.07-.01.15-.02.23l-.182.97h6.337c.913 0 1.7-.5 2.071-1.213l.23 1.35 4.411 2.332s8.233 2.383 8.503 11.565c0-.001 5.032-5.919-2.595-13.363z"/><path d="m85.365 84.026c-.366-.357-.81-.648-1.286-.871 0 0-10.733-4.615-11.333-4.615h-1.41l-.134.717c-.08.45-.3.83-.59 1.13.56.55.82 1.46.54 2.37l-.184.597h1.779c.913 0 1.7-.5 2.071-1.213l.23 1.35 4.411 2.332s8.233 2.383 8.503 11.565c-.001 0 5.03-5.919-2.597-13.362z"/><path d="m96.77 31.015c-.23-.122-.456-.262-.677-.42l-7.115 10.203c-.116.167-.199.346-.267.528-.045-.003-.089-.014-.135-.014h-12.654c.389 1.486.707 3.062.944 4.712h11.71c1.007 0 1.864-.643 2.2-1.536.789.043 1.584-.303 2.067-.995l6.691-9.594c-1.027-.605-1.963-1.597-2.764-2.884z"/></g><path d="m90.943 16.447c0 8.351 3.548 15.121 7.929 15.121s7.941-6.77 7.941-15.121c0-6.432-2.112-11.948-5.093-14.12l-2.848 14.12-7.024-7.036c-.579 2.1-.905 4.501-.905 7.036z" fill="#fff"/><path d="m93.943 19.447c0 8.351 3.548 15.121 7.929 15.121s7.941-6.77 7.941-15.121c0-6.432-2.112-11.948-5.093-14.12l-2.848 14.12-7.024-7.036c-.579 2.1-.905 4.501-.905 7.036z" fill="#fa759e"/><path d="m53.592 56.672c-.082-1.171-.13-2.366-.13-3.585 0-.412.008-.819.018-1.226h-10.706c-.913 0-1.7.5-2.071 1.213l-.23-1.35-4.411-2.331s-8.233-2.384-8.503-11.565c0 0-5.031 5.918 2.595 13.362.366.357.81.648 1.286.87 0 0 10.733 4.615 11.333 4.615h10.788c.011 0 .021-.002.031-.003z" fill="#6dc9f7"/><path d="m54.972 65.113c-.366-1.361-.673-2.798-.912-4.302-.161-.033-.327-.053-.498-.053h-10.788c-.6 0-11.333 4.615-11.333 4.615-.476.222-.92.513-1.286.87-7.627 7.444-2.595 13.362-2.595 13.362.27-9.181 8.503-11.565 8.503-11.565l4.411-2.332.23-1.35c.371.713 1.158 1.213 2.071 1.213h10.788c.532 0 1.018-.176 1.409-.458z" fill="#6dc9f7"/><path d="m48.341 74.715.23-1.35c.371.713 1.158 1.213 2.071 1.213h8.023l-.182-.97c-.02-.13-.02-.25-.02-.37-.683-1.018-1.309-2.187-1.875-3.473h-5.946c-.6 0-11.333 4.615-11.333 4.615-.476.222-.92.513-1.286.87-7.627 7.444-2.595 13.362-2.595 13.362.27-9.181 8.503-11.565 8.503-11.565z" fill="#6dc9f7"/><path d="m49.601 85.823 4.411-2.332.23-1.35c.371.713 1.158 1.213 2.071 1.213h3.209l-.039-2.257c-.01-.44.1-.85.29-1.2-.11-.2-.19-.41-.23-.64l-.134-.717h-3.095c-.6 0-11.333 4.615-11.333 4.615-.476.223-.92.513-1.286.871-7.627 7.443-2.595 13.362-2.595 13.362.268-9.182 8.501-11.565 8.501-11.565z" fill="#6dc9f7"/><path d="m54.588 41.311h-14.104c-.046 0-.089.011-.135.014-.068-.183-.151-.362-.267-.528l-7.115-10.203c-.866.619-1.8.974-2.779.974-.849 0-1.667-.261-2.434-.732.041.379.164.754.396 1.088l8.068 11.568c.483.692 1.277 1.038 2.067.995.336.893 1.193 1.536 2.2 1.536h13.475c.235-1.639.55-3.204.934-4.681-.102-.013-.202-.031-.306-.031z" fill="#6dc9f7"/><path d="m38.116 16.447c0 8.351-3.548 15.121-7.929 15.121s-7.941-6.77-7.941-15.121c0-6.432 2.112-11.948 5.093-14.12l2.848 14.12 7.024-7.036c.58 2.1.905 4.501.905 7.036z" fill="#fa759e"/><path d="m43.962 119.467-.12-.3c-2.25 1.12-15.3 7.09-19.21-2.64-4.28-10.66-9.38-4.51-9.38-4.51s1.29-5.08 10.75-4.32c8.06.65 14.39 3.86 17.39 6.43z" fill="#fa759e"/><path d="m77.362 53.087c0 8.39-2.01 15.79-5.08 20.29-.01.07-.01.15-.02.23l-1.06 5.65c-.08.45-.3.83-.59 1.13.56.55.82 1.46.54 2.37l-1.69 5.47c-.16.51-.46.93-.84 1.2.59.51.78 1.63.34 2.65l-2.25 5.25c-.38.91-1.13 1.44-1.83 1.33.61.46.55 1.75-.18 2.82l-3.19 4.71c-.33.49-.74.82-1.13.97.43.54.19 1.73-.59 2.67l-3.63 4.38c-.66.81-1.51 1.15-2.01.82l-1.02-.68.34.83c.27.65-.68 1.61-1.98 2.01l-5.44 1.65c-1 .3-1.87.16-2.08-.34l-.01-.03-.57-5.34c.1.09.19.17.28.25.04-.03.06-.05.11-.08l5.02-2.65c.72-.37 1.48-.51 2.04-.43l2.46-4.7c.47-.92 1.26-1.54 1.9-1.61.01-.3.07-.61.2-.95l2.08-5.29c.29-.73.79-1.3 1.29-1.59-.07-.3-.1-.62-.05-.98l.79-5.65c.07-.49.26-.94.51-1.29-.27-.36-.43-.82-.44-1.33l-.1-5.73c-.01-.44.1-.85.29-1.2-.11-.2-.19-.41-.23-.64l-1.06-5.65c-.02-.13-.02-.25-.02-.37-3.02-4.5-5-11.84-5-20.15 0-8.22 1.93-15.48 4.89-20-1.18-.86-1.96-2.24-1.96-3.82 0-2.61 2.11-4.72 4.72-4.72 1.92 0 3.56 1.14 4.3 2.78.74-1.64 2.38-2.78 4.3-2.78 2.6 0 4.72 2.11 4.72 4.72 0 1.58-.78 2.96-1.97 3.82 2.97 4.52 4.9 11.781 4.9 20z" fill="#6dc9f7"/><path d="m88.645 42.323c.458.025.851-.236 1.004-.652.047-.129.095-.225.148-.302l6.577-9.43c.791.402 1.627.629 2.498.629 4.506 0 7.942-4.635 8.755-11.808.063-.549-.332-1.044-.881-1.105-.554-.075-1.044.333-1.105.881-.681 6-3.4 10.032-6.769 10.032-3.756 0-6.929-6.467-6.929-14.122 0-1.732.161-3.45.469-5.054l5.752 5.761c.261.261.642.359.997.25.353-.106.618-.398.691-.76l2.49-12.346c.813.981 1.536 2.294 2.103 3.836.19.518.762.787 1.283.594.519-.189.784-.765.594-1.283-.982-2.679-2.371-4.729-4.014-5.926-.274-.199-.634-.247-.951-.123-.317.123-.551.4-.618.734l-2.479 12.289-5.705-5.715c-.252-.251-.621-.352-.963-.26-.345.091-.614.357-.709.701-.615 2.23-.94 4.755-.94 7.301 0 6.329 1.926 11.687 4.797 14.339l-6.585 9.441c-.02.028-.038.057-.057.086h-11.661c-.721-2.378-1.639-4.527-2.734-6.36 1.054-1.064 1.662-2.51 1.662-4.016 0-2.054-1.091-3.853-2.719-4.864.988-1.908 1.343-3.768 1.03-5.551-.612-3.496-3.539-5.324-3.663-5.4-.472-.288-1.087-.14-1.375.33-.289.471-.141 1.087.33 1.375.022.014 2.279 1.423 2.738 4.04.244 1.39-.071 2.884-.922 4.46-.369-.075-.751-.115-1.142-.115-1.667 0-3.227.734-4.296 1.955-1.071-1.221-2.631-1.955-4.297-1.955-.156 0-.309.011-.462.023-.81-1.534-1.112-2.991-.88-4.347.445-2.603 2.723-4.049 2.745-4.063.469-.289.615-.903.327-1.373s-.903-.618-1.375-.33c-.124.076-3.051 1.904-3.663 5.4-.296 1.685.013 3.439.881 5.237-1.944.916-3.296 2.889-3.296 5.177 0 1.506.608 2.951 1.662 4.016-1.095 1.833-2.013 3.982-2.734 6.36h-13.294c-.019-.029-.038-.059-.058-.087l-6.583-9.439c2.871-2.651 4.797-8.01 4.797-14.339 0-2.544-.325-5.068-.941-7.301-.095-.344-.364-.61-.709-.701-.344-.092-.711.009-.963.261l-5.704 5.714-2.479-12.288c-.067-.334-.301-.611-.618-.734-.317-.124-.676-.076-.951.123-3.344 2.436-5.504 8.295-5.504 14.928 0 6.899 2.291 12.646 5.602 14.987.096.37.248.731.48 1.063l8.068 11.567c.534.768 1.349 1.261 2.258 1.393.608.958 1.676 1.567 2.828 1.567h12.366c-.166 1.253-.302 2.527-.373 3.838h-9.702c-.519 0-1.015.113-1.459.321-.092-.143-.22-.261-.374-.342l-4.411-2.331c-.059-.031-.122-.058-.187-.076-.308-.091-7.54-2.32-7.783-10.635-.013-.414-.278-.777-.669-.914-.389-.137-.825-.02-1.093.296-.057.066-5.541 6.722 2.66 14.727.433.421.957.777 1.587 1.072 10.923 4.696 11.487 4.696 11.729 4.696h9.773c.052.702.114 1.397.194 2.082h-9.967c-.241 0-.806 0-11.757 4.709-.602.281-1.126.638-1.56 1.06-8.2 8.004-2.716 14.659-2.659 14.726.193.228.474.353.762.353.111 0 .223-.019.331-.057.391-.137.656-.5.669-.914.243-8.314 7.476-10.543 7.781-10.633.065-.02.129-.045.189-.077l4.411-2.332c.153-.081.281-.199.373-.342.444.208.94.321 1.459.321h10.788c.168 0 .333-.016.496-.041.217.769.456 1.512.713 2.233h-4.129c-.241 0-.806 0-11.757 4.71-.603.282-1.128.638-1.561 1.06-8.2 8.003-2.715 14.659-2.658 14.726.193.228.474.353.762.353.111 0 .223-.019.331-.057.391-.137.656-.5.669-.914.243-8.314 7.475-10.544 7.78-10.634.065-.02.129-.045.188-.077l4.411-2.331c.156-.082.285-.203.378-.348.446.211.944.327 1.456.327h7.003l.367 1.963h-1.699c-.241 0-.806 0-11.757 4.709-.603.282-1.128.638-1.561 1.06-8.199 8.003-2.715 14.659-2.658 14.726.193.228.474.353.762.353.111 0 .223-.019.331-.057.391-.137.656-.5.669-.914.243-8.314 7.475-10.544 7.782-10.635.064-.019.128-.044.187-.076l4.411-2.331c.154-.081.282-.199.374-.342.444.208.941.321 1.46.321h2.146l.054 3.153c.008.464.106.909.289 1.314-.171.36-.287.751-.344 1.152l-.796 5.648c-.031.221-.041.443-.027.67-.485.431-.888 1.013-1.148 1.674l-2.085 5.296c-.07.178-.126.359-.168.546-.736.342-1.43 1.028-1.889 1.907l-2.168 4.15c-.623.045-1.288.239-1.905.565l-4.543 2.397c-3.246-2.679-9.59-5.813-17.717-6.465-10.186-.817-11.733 4.828-11.794 5.069-.114.451.101.92.515 1.133.412.211.921.11 1.223-.246.014-.017 1.403-1.642 3.099-1.376 1.629.262 3.216 2.205 4.588 5.619 1.064 2.647 2.843 4.462 5.286 5.393 1.346.513 2.792.717 4.243.717 4.045 0 8.134-1.59 10.227-2.547.612.557 1.678.697 2.882.332l5.437-1.651c1.177-.357 2.151-1.094 2.544-1.922.013-.026.024-.054.036-.081.85.107 1.807-.364 2.573-1.289l3.629-4.38c.758-.915 1.113-1.985 1.014-2.874.282-.23.541-.516.766-.848l3.191-4.712c.601-.886.848-1.872.744-2.701.563-.332 1.047-.89 1.356-1.611l2.243-5.248c.432-1.012.427-2.104.036-2.946.219-.299.391-.639.503-1.005l1.494-4.835h.9c.519 0 1.016-.113 1.46-.321.092.143.22.261.374.342l4.411 2.331c.059.031.122.058.187.076.308.091 7.54 2.32 7.783 10.635.013.414.278.777.669.914.108.038.22.057.331.057.288 0 .568-.125.762-.353.057-.066 5.541-6.723-2.659-14.726 0 0 0 0-.001-.001-.433-.421-.957-.777-1.588-1.072-10.922-4.695-11.487-4.695-11.729-4.695h-.143l.366-1.963h5.448c.519 0 1.016-.113 1.46-.322.092.143.22.262.373.343l4.41 2.331c.06.031.123.058.188.076.308.091 7.54 2.32 7.783 10.635.013.414.278.777.669.914.108.038.22.057.331.057.288 0 .568-.125.762-.353.057-.066 5.541-6.723-2.659-14.726-.431-.421-.956-.777-1.589-1.073-10.922-4.696-11.486-4.696-11.728-4.696h-2.515c.251-.708.486-1.438.7-2.192h9.682c.519 0 1.016-.113 1.46-.321.092.143.22.261.373.342l4.411 2.332c.061.032.124.058.189.077.075.021 7.536 2.276 7.781 10.633.013.414.278.777.669.914.108.038.22.057.331.057.288 0 .568-.125.762-.353.057-.066 5.541-6.722-2.659-14.726 0 0 0 0-.001-.001-.433-.422-.958-.778-1.589-1.072-10.922-4.695-11.486-4.695-11.728-4.695h-8.344c.081-.686.145-1.382.198-2.082h8.146c.241 0 .806 0 11.756-4.709.603-.281 1.128-.638 1.562-1.061 8.2-8.004 2.716-14.659 2.659-14.726-.269-.315-.703-.433-1.093-.296-.391.137-.656.5-.669.914-.243 8.314-7.476 10.544-7.781 10.634-.065.02-.129.045-.188.077l-4.411 2.331c-.154.081-.282.199-.374.342-.444-.208-.941-.321-1.46-.321h-8.07c-.071-1.311-.208-2.584-.374-3.838h10.733c1.153 0 2.221-.609 2.829-1.567.908-.132 1.723-.625 2.258-1.392l6.799-9.749c-.608-.208-1.192-.541-1.743-.997l-6.697 9.602c-.266.382-.694.588-1.191.569-.453-.04-.837.238-.99.646-.2.531-.708.889-1.265.889h-10.848c-.149-.921-.326-1.827-.527-2.712l11.319-.002c.024.001.104.01.129.012zm-65.398-25.877c0-5.019 1.352-9.627 3.469-12.157l2.491 12.354c.073.362.339.653.691.76.355.109.736.011.997-.251l5.751-5.76c.309 1.604.47 3.322.47 5.054 0 7.655-3.173 14.122-6.929 14.122-3.761 0-6.94-6.467-6.94-14.122zm15.973 27.689c-.146-.391-.521-.647-.936-.647-.018 0-.036 0-.055.002-.472.025-.924-.187-1.191-.569l-7.244-10.386c.131.01.26.035.393.035.872 0 1.707-.227 2.498-.629l6.575 9.429c.055.078.103.176.152.308.153.413.54.667 1.002.647l13.213-.012c-.201.883-.377 1.79-.527 2.712h-12.616c-.556-.002-1.064-.359-1.264-.89zm3.644 11.541c-.864-.236-6.269-2.487-11-4.521-.398-.188-.739-.416-1.011-.681-3.822-3.73-4.214-6.979-3.786-9.152 1.792 6.484 7.708 8.695 8.604 8.995l3.899 2.061.146.864c.072.423.407.753.831.82.43.067.845-.146 1.042-.526.214-.41.678-.675 1.184-.675h9.648c-.005.298-.024.59-.024.89 0 .647.016 1.288.038 1.925zm10.698 8.895h-10.788c-.506 0-.97-.265-1.183-.674-.198-.381-.605-.591-1.043-.527-.424.066-.759.397-.831.82l-.146.864-3.899 2.062c-.896.3-6.811 2.511-8.604 8.993-.428-2.174-.036-5.421 3.785-9.15.272-.266.613-.494.982-.668 4.761-2.047 10.165-4.297 11.029-4.533h10.156c.154.961.335 1.9.543 2.813zm-4.103 8.333c-.198-.381-.612-.59-1.042-.527-.425.066-.759.396-.831.82l-.147.863-3.9 2.062c-.896.3-6.811 2.511-8.603 8.995-.428-2.175-.037-5.422 3.784-9.151.269-.261.618-.496.984-.668 4.76-2.047 10.164-4.298 11.028-4.534h4.832c.44 1.003.921 1.944 1.443 2.814h-6.366c-.505 0-.97-.265-1.182-.674zm6.854 9.45c-.506 0-.97-.265-1.183-.674-.198-.381-.614-.592-1.042-.527-.425.066-.759.396-.831.82l-.147.863-3.9 2.062c-.896.3-6.81 2.511-8.603 8.994-.428-2.175-.036-5.422 3.784-9.15.269-.261.618-.497.983-.668 4.761-2.047 10.165-4.297 11.029-4.533h1.981l.107.571c.016.084.045.169.069.253-.047.23-.075.463-.074.698-.047.237-.076.477-.072.716l.01.574h-2.111zm-26.673 37.733c-1.928-.734-3.283-2.131-4.143-4.27-1.643-4.087-3.662-6.383-6.002-6.825 1.438-.537 3.481-.866 6.356-.634 7.589.607 14.045 3.664 17.077 6.422.067.061.143.105.221.145-.48.124-.812.572-.749 1.076l.281 2.25c-2.285 1.052-8.53 3.554-13.041 1.836zm21.495-3.194-5.437 1.651c-.476.143-.785.122-.92.095l-.048-.116-.346-2.768c-.043-.341-.26-.603-.544-.749.086-.021.171-.047.25-.092.058-.033.086-.061.089-.061l5.026-2.652c.565-.299 1.09-.364 1.388-.333-.104.061-.202.137-.281.238-.344.432-.272 1.061.16 1.404.792.63 1.291 1.117 1.605 1.46-.006.142.006.285.063.423l.282.688c-.125.196-.563.593-1.287.812zm7.822-7.034-3.629 4.38c-.319.386-.623.544-.756.574l-.243-.162c-.2-.379-.813-1.277-2.611-2.706-.139-.111-.299-.164-.462-.19.169-.093.313-.233.408-.413l2.455-4.7c.373-.715.913-1.052 1.12-1.072.31-.032.563-.212.723-.458-.041.358.102.727.422.943l2.714 1.833c.07.047.146.077.221.105.028.151.089.295.19.421.061.147-.014.796-.552 1.445zm11.175-26.733-1.69 5.474c-.076.246-.217.446-.389.596-.076-.377-.363-.693-.763-.781l-3.533-.779c-.547-.117-1.074.221-1.192.761-.119.54.222 1.073.761 1.192l3.533.779c.073.016.146.023.217.023.187 0 .361-.064.515-.158.035.233.128.455.309.612.215.186.364.83.073 1.51l-2.242 5.247c-.243.567-.63.751-.758.738-.112-.019-.224-.017-.332 0-.09-.213-.243-.4-.466-.511l-2.697-1.337c-.494-.247-1.096-.043-1.34.451-.246.495-.043 1.095.451 1.34l2.697 1.337c.143.071.294.104.443.104.055 0 .109-.013.163-.022.064.149.155.288.294.394.084.133.097.79-.374 1.484l-3.191 4.712c-.049.072-.106.123-.16.185-.067-.093-.144-.181-.245-.249l-2.714-1.833c-.452-.305-1.062-.188-1.375.256.001-.01.006-.018.007-.028.012-.235.053-.437.128-.629l2.085-5.295c.225-.57.589-.935.855-1.086.389-.22.585-.67.479-1.104-.054-.226-.067-.417-.04-.604l.796-5.65c.044-.314.159-.61.333-.855.249-.354.243-.828-.016-1.175-.152-.204-.238-.471-.243-.751l-.099-5.728c-.005-.246.055-.489.177-.722.153-.294.151-.646-.007-.938-.064-.12-.106-.232-.127-.342l-1.056-5.652c-.011-.06-.008-.119-.01-.209-.005-.189-.063-.375-.169-.532-3.021-4.507-4.825-11.833-4.825-19.599 0-7.662 1.768-14.933 4.729-19.447.293-.447.184-1.046-.249-1.358-.986-.714-1.552-1.812-1.552-3.01 0-2.054 1.67-3.725 3.724-3.725 1.452 0 2.781.861 3.386 2.194.162.357.519.587.911.587s.749-.229.911-.588c.604-1.332 1.932-2.193 3.385-2.193 2.053 0 3.724 1.671 3.724 3.725 0 1.198-.565 2.296-1.552 3.01-.433.313-.542.911-.249 1.358 2.961 4.516 4.729 11.786 4.729 19.447 0 7.854-1.834 15.229-4.906 19.725-.1.145-.158.313-.172.487 0 .002-.005.111-.007.147l-1.051 5.632c-.014.072-.046.139-.073.207-.154-.149-.345-.261-.574-.286l-7.02-.775c-.552-.056-1.042.336-1.104.885-.061.549.335 1.043.885 1.104l7.02.775c.037.004.074.006.11.006.112 0 .219-.025.321-.06.041.063.073.131.128.183.269.254.46.77.283 1.344zm2.524-3.585c.863.235 6.268 2.486 11 4.52.398.188.739.416 1.012.682 3.821 3.729 4.213 6.978 3.785 9.15-1.792-6.483-7.708-8.694-8.604-8.994l-3.899-2.061-.146-.864c-.072-.423-.407-.754-.831-.82-.434-.063-.844.146-1.043.527-.213.409-.677.674-1.184.674h-.499c.057-.592-.047-1.181-.278-1.708.066-.174.121-.352.155-.536l.106-.569h.426zm5.671-8.777c.864.236 6.269 2.487 11 4.521.395.186.744.42 1.011.681 3.822 3.73 4.214 6.979 3.786 9.151-1.792-6.483-7.708-8.694-8.604-8.994l-3.899-2.062-.147-.863c-.072-.424-.406-.754-.831-.82-.426-.062-.843.147-1.041.526-.214.41-.678.675-1.184.675h-4.729c.515-.864.991-1.808 1.428-2.814h3.21zm7.867-9.006c.864.236 6.269 2.486 11.001 4.521.397.186.738.415 1.011.68 3.822 3.73 4.214 6.979 3.786 9.152-1.792-6.484-7.707-8.694-8.604-8.994l-3.899-2.062-.146-.864c-.072-.423-.407-.754-.831-.82-.434-.063-.844.146-1.043.527-.213.409-.677.674-1.184.674h-9.177c.209-.915.392-1.854.548-2.813h8.538zm-7.833-8.897h7.924c.506 0 .971.265 1.185.675.197.38.616.593 1.042.526.424-.067.759-.397.831-.82l.146-.864 3.899-2.061c.896-.3 6.811-2.511 8.604-8.994.428 2.174.036 5.421-3.785 9.15-.272.266-.613.494-.983.668-4.761 2.047-10.165 4.298-11.029 4.534h-7.899c.045-.877.067-1.744.067-2.588-.001-.074-.001-.151-.002-.226z" fill="#3a2c60"/><path d="m105.369 11.543c.294 1.567.443 3.217.443 4.903 0 .553.447 1 1 1s1-.447 1-1c0-1.81-.161-3.584-.479-5.272-.102-.543-.622-.898-1.167-.798-.542.101-.899.624-.797 1.167z" fill="#3a2c60"/><path d="m63.541 29.321c0-1.28-1.038-2.318-2.318-2.318s-2.318 1.038-2.318 2.318 1.038 2.318 2.318 2.318c1.281-.001 2.318-1.038 2.318-2.318z" fill="#3a2c60"/><path d="m69.392 31.638c1.28 0 2.318-1.038 2.318-2.318s-1.038-2.318-2.318-2.318-2.318 1.038-2.318 2.318 1.038 2.318 2.318 2.318z" fill="#3a2c60"/></svg>