<svg id="Layer_1" enable-background="new 0 0 128 128" height="512" viewBox="0 0 128 128" width="512" xmlns="http://www.w3.org/2000/svg"><path d="m90.463 103.528c1.471-.431 2.548-1.793 2.548-3.401 0-1.955-1.59-3.545-3.544-3.545-.12 0-.239.006-.357.018-.279-.702-.599-1.39-.958-2.057.756-.841 1.176-1.924 1.176-3.079 0-2.55-2.075-4.625-4.625-4.625-.92 0-1.798.267-2.547.764-.755-.69-1.483-1.42-2.178-2.181.723-.834 1.134-1.908 1.134-3.029 0-2.551-2.075-4.626-4.625-4.626-.552 0-1.093.098-1.603.286-.168-.334-.331-.672-.487-1.013.504-.336.931-.769 1.266-1.264 1.682.959 3.473 2.142 5.352 3.546.675.503 1.464.77 2.27.81 1.87 1.224 4.414.152 4.816-2.092 1.366-7.625.356-13.563-1.027-17.636-.368-1.356-.789-2.55-1.211-3.573-.606-1.472-1.907-2.518-3.479-2.8-1.588-.282-3.188.252-4.282 1.435-.581.628-1.258 1.364-2.018 2.193-.6-.854-1.426-1.545-2.41-1.965.693-1.691 1.335-3.396 1.916-5.089.333.058.669.087 1.006.087 3.309 0 6.001-2.692 6.001-6.001 0-2.589-1.637-4.831-4.011-5.659.06-.368.117-.735.169-1.101 3.017-.313 5.376-2.871 5.376-5.97 0-2.856-1.998-5.26-4.702-5.854.01-.42.002-.837-.023-1.248-.011-.183-.027-.367-.046-.553 1.748-1.417 2.654-3.625 2.387-5.903-.351-3.007-2.79-5.436-5.799-5.776-1.229-.144-2.472.065-3.574.585-.473-.292-.961-.557-1.459-.792-.556-3.095-3.302-5.44-6.501-5.44-.268 0-.54.016-.808.048-2.287.276-4.294 1.786-5.239 3.941-.322.734-.506 1.493-.549 2.262-3.077 1.858-6.151 5.127-6.069 9.092.081 3.88-3.167 8.485-8.742 9.475-2.576.456-4.354 2.869-3.964 5.377.215 1.39 1.041 2.605 2.239 3.325.739 1.814 2.54 3.049 4.521 3.049.403 0 .807-.049 1.201-.146 1.774-.438 3.177-1.908 3.575-3.746.106-.486.455-.87.912-1.002 1.747-.505 3.132-.761 4.117-.761.339 0 .534.032.633.056 2.468 1.713 5.357 2.62 8.401 2.63.001 0 .002.001.004.001.008 0 .031.001.055.002.488.003.695.362.747.473.073.156.158.465-.101.773-.773.923-1.711 1.678-2.787 2.245l-.226.119c-2.451 1.289-7.012 3.688-9.72 5.948-2.936 2.45-5.832 6.203-6.886 8.924-.216.557-.414 1.132-.587 1.711-.159.528.142 1.086.671 1.245.008.002.015 0 .023.002-.146.578-.262 1.163-.364 1.751-.01-.002-.018-.008-.028-.01-.548-.072-1.049.314-1.121.862-.146 1.118-.217 2.266-.214 3.41.001.551.449.997 1 .997h.002c.009 0 .016-.005.024-.005.016.394.037.788.071 1.181.01.116.029.231.04.347-.009.001-.017-.003-.026-.002-.547.073-.931.577-.858 1.124.231 1.721.623 3.487 1.164 5.25 2.898 9.468 11.506 15.417 19.103 20.667 6.338 4.378 11.813 8.16 11.74 12.411-.032 1.873-2.966 3.292-5.376 3.188-1.007-.046-2.431-.283-3.489-1.154-.068-.057-.134-.118-.196-.183.433.195.9.296 1.382.296 1.645 0 3.075-1.179 3.402-2.802.157-.781.009-1.611-.429-2.398-.753-1.356-1.953-2.316-3.468-2.776-3.396-1.03-6.59.106-8.212 2.814-1.393 2.326-1.389 5.396.012 8.009.095.177.197.354.311.536-.389.578-.603 1.261-.603 1.962 0 1.954 1.59 3.544 3.544 3.544.823 0 1.616-.293 2.244-.81.885.462 1.825.844 2.808 1.143-.001.033-.001.067-.001.102 0 1.954 1.59 3.544 3.544 3.544 1.807 0 3.302-1.358 3.517-3.108 1.644-.251 3.246-.762 4.781-1.524.656.671 1.558 1.063 2.518 1.063 1.954 0 3.544-1.59 3.544-3.544 0-.641-.179-1.268-.506-1.813.786-.89 1.486-1.848 2.093-2.863.179.028.359.042.542.042 1.954 0 3.544-1.59 3.544-3.544 0-1.25-.647-2.369-1.675-3.002.09-.518.157-1.031.201-1.534.045-.541.067-1.098.063-1.666z" fill="#e6e7e8"/><path d="m88.011 96.126c0-1.405-1.139-2.544-2.544-2.544-.35 0-.683.071-.986.198-.409-1.189-.94-2.339-1.587-3.433.87-.662 1.434-1.706 1.434-2.884 0-2.002-1.623-3.625-3.625-3.625-1.009 0-1.92.413-2.577 1.077-1.099-.956-2.32-2.142-3.547-3.566.927-.657 1.534-1.735 1.534-2.958 0-2.002-1.623-3.625-3.625-3.625-.753 0-1.452.23-2.031.623-.48-.885-.935-1.819-1.354-2.803 1.379-.513 2.363-1.837 2.363-3.395 0-2.002-1.623-3.625-3.625-3.625-.284 0-.558.036-.823.097-.245-1.325-.418-2.716-.51-4.169.303.062.617.094.939.094 2.583 0 4.676-2.094 4.676-4.676 0-2.28-1.633-4.177-3.793-4.59.789-1.863 1.722-4.234 2.611-6.917.519.183 1.075.287 1.657.287 2.762 0 5.001-2.239 5.001-5.001 0-2.472-1.796-4.52-4.153-4.924.169-.933.315-1.873.434-2.816.084.004.167.013.252.013 2.762 0 5.001-2.239 5.001-5.001 0-2.677-2.105-4.857-4.75-4.989.058-.68.069-1.365.026-2.051-.022-.352-.06-.71-.113-1.072 1.729-1.148 2.709-3.188 2.458-5.331-.298-2.549-2.367-4.61-4.919-4.899-.215-.024-.432-.037-.647-.037-1.021 0-2.005.274-2.864.787-.736-.498-1.514-.921-2.327-1.265-.243-2.867-2.655-5.126-5.584-5.126-.228 0-.46.014-.689.042-1.937.233-3.639 1.516-4.442 3.349-.348.795-.505 1.612-.47 2.44-3.214 1.782-6.138 4.923-6.064 8.492.089 4.301-3.465 9.397-9.568 10.48-2.044.363-3.457 2.265-3.15 4.24.191 1.229.985 2.26 2.064 2.782.485 1.587 1.964 2.745 3.708 2.745.321 0 .645-.04.962-.118 1.406-.346 2.519-1.515 2.837-2.987.184-.847.801-1.518 1.611-1.752 1.839-.531 3.317-.8 4.394-.8.583 0 .907.08 1.086.152 2.339 1.659 5.089 2.535 7.962 2.535h.034c1.512-.004 2.395 1.731 1.424 2.89-.849 1.012-1.892 1.858-3.088 2.488-2.308 1.215-7.058 3.686-9.771 5.95-2.665 2.224-5.549 5.821-6.594 8.518-1.327 3.424-1.771 7.132-1.456 10.783.188 2.18.635 4.336 1.277 6.426 2.796 9.137 11.253 14.981 18.715 20.137 6.575 4.543 12.253 8.466 12.171 13.252-.042 2.462-3.245 4.178-6.092 4.178-.11 0-.219-.002-.329-.007-1.159-.052-2.808-.335-4.079-1.381-.726-.597-1.487-1.874-1.051-2.416.215-.268.333-.268.377-.268.086 0 .413.037 1.013.506.433.338.945.517 1.483.517 1.127 0 2.182-.806 2.422-1.998.118-.589-.03-1.191-.322-1.716-.626-1.126-1.619-1.921-2.885-2.305-.749-.228-1.487-.343-2.194-.343-2.063 0-3.838.989-4.87 2.714-1.213 2.027-1.2 4.718.036 7.023.204.38.436.736.681 1.081-.52.466-.854 1.135-.854 1.889 0 1.405 1.139 2.544 2.544 2.544.848 0 1.593-.419 2.056-1.056 1.31.77 2.733 1.321 4.143 1.667-.09.26-.149.534-.149.825 0 1.405 1.139 2.544 2.544 2.544s2.544-1.139 2.544-2.544c0-.153-.019-.301-.045-.446 2.148-.199 4.211-.873 6.086-1.925.429.798 1.262 1.346 2.231 1.346 1.405 0 2.544-1.139 2.544-2.544 0-.739-.32-1.398-.822-1.863 1.14-1.177 2.132-2.52 2.928-3.989.313.138.658.218 1.023.218 1.405 0 2.544-1.139 2.544-2.544 0-1.147-.764-2.105-1.807-2.423.156-.72.272-1.453.336-2.2.071-.815.078-1.63.035-2.439.01 0 .02.003.03.003 1.405-.002 2.544-1.141 2.544-2.546z" fill="#fa759e"/><path d="m42.481 72.634c2.796 9.137 11.253 14.981 18.715 20.137 5.653 3.906 10.639 7.354 11.875 11.285 4.055-9.002-18.269-21.755-20.938-32.155-2.234-8.703 2.216-16.726 6.245-21.828 1.624-2.057 1.553-7.015-.443-8.541-2.497 1.322-6.343 3.425-8.68 5.375-2.665 2.224-5.549 5.821-6.594 8.518-1.327 3.424-1.771 7.132-1.456 10.783.187 2.179.634 4.335 1.276 6.426z" fill="#ffd7e5"/><path d="m58.41 64.442c.179-1.428 1.304-2.536 2.728-2.738 2.439-.345 6.343-1.52 9.822-5.336 1.584-1.737 2.86-3.127 3.876-4.225 1.819-1.967 5.08-1.409 6.102 1.068 1.665 4.036 3.229 10.57 1.66 19.325-.414 2.312-3.103 3.388-4.986 1.982-4.149-3.098-10.853-7.334-15.66-6.583-2.034.318-3.808-1.387-3.551-3.429z" fill="#fff"/><path d="m58.41 67.442c.179-1.428 1.304-2.536 2.728-2.738 2.439-.345 6.343-1.52 9.822-5.336 1.584-1.737 2.86-3.127 3.876-4.225 1.819-1.967 5.08-1.409 6.102 1.068 1.665 4.036 3.229 10.57 1.66 19.325-.414 2.312-3.103 3.388-4.986 1.982-4.149-3.098-10.853-7.334-15.66-6.583-2.034.318-3.808-1.387-3.551-3.429z" fill="#6dc9f7"/><g fill="#3a2c60"><path d="m58.378 19.36c-1.638 0-2.966 1.328-2.966 2.967 0 1.638 1.328 2.966 2.966 2.966s2.967-1.328 2.967-2.966c-.001-1.639-1.329-2.967-2.967-2.967z"/><path d="m43.005 39.4c1.773-.438 3.177-1.908 3.574-3.745.106-.487.455-.871.912-1.003 1.747-.505 3.132-.761 4.117-.761.339 0 .534.031.633.056 2.469 1.713 5.358 2.62 8.401 2.63.001 0 .002.001.004.001.008 0 .031.001.055.002.488.003.695.362.747.473.073.156.158.466-.1.773-.775.924-1.713 1.679-2.788 2.245l-.226.119c-2.451 1.289-7.012 3.688-9.72 5.948-2.936 2.45-5.832 6.203-6.886 8.925-.216.558-.413 1.133-.586 1.71-.159.528.142 1.086.671 1.245.529.157 1.086-.142 1.245-.671.158-.527.338-1.053.536-1.562.931-2.402 3.641-5.891 6.302-8.112 2.546-2.124 6.985-4.459 9.37-5.714l.227-.119c1.306-.688 2.446-1.606 3.389-2.729.67-.799.814-1.874.403-2.827 1.451-.347 3.202-1.091 4.454-2.685.341-.434.266-1.063-.169-1.403-.435-.343-1.064-.268-1.404.169-1.823 2.321-5.364 2.219-5.431 2.215-.006 0-.011.003-.016.003-.018 0-.035-.004-.053-.004-.002 0-.005 0-.008 0-2.661 0-5.214-.813-7.384-2.351-.063-.045-.131-.083-.203-.111-1.097-.446-3.205-.232-6.132.613-1.164.335-2.049 1.293-2.312 2.5-.237 1.098-1.061 1.973-2.098 2.229-.972.239-1.976-.07-2.677-.713.994-.185 2.156-.681 2.947-1.929.295-.466.157-1.084-.309-1.38-.468-.297-1.085-.157-1.38.31-.746 1.176-2.203 1.136-2.679 1.089-.751-.405-1.279-1.127-1.409-1.969-.224-1.442.824-2.833 2.337-3.102 6.63-1.177 10.491-6.764 10.393-11.484-.069-3.296 2.821-6.085 5.549-7.597.332-.184.53-.539.514-.918-.029-.672.101-1.344.387-1.995.662-1.51 2.059-2.567 3.645-2.758 2.576-.309 4.941 1.628 5.157 4.177.032.369.265.691.606.836.752.318 1.478.713 2.157 1.173.322.218.741.229 1.074.03.857-.513 1.873-.729 2.885-.616 2.095.237 3.793 1.93 4.038 4.022.203 1.74-.57 3.419-2.019 4.381-.322.214-.492.595-.436.978.049.335.084.665.104.989.039.624.03 1.265-.024 1.904-.023.271.065.538.243.743.179.204.433.327.704.341 2.13.105 3.799 1.858 3.799 3.99 0 2.203-1.79 3.996-4.087 3.996-.009 0-.11-.007-.12-.007-.526-.037-.974.356-1.039.874-.114.907-.257 1.836-.425 2.762-.048.263.012.533.165.752s.387.367.65.412c1.925.33 3.322 1.987 3.322 3.939 0 2.206-1.795 4.001-4.001 4.001-.444 0-.89-.077-1.325-.23-.254-.09-.533-.073-.772.046-.241.118-.424.328-.509.583-.754 2.275-1.623 4.577-2.583 6.842-.118.278-.104.595.039.861.143.267.398.455.694.512 1.119.214 2.037.927 2.546 1.881-.156.171-.302.331-.465.51-3.213 3.525-6.789 4.676-9.222 5.02-1.875.265-3.348 1.746-3.581 3.603l.992.125-1-.06c-.161 1.284.278 2.536 1.206 3.436.931.904 2.205 1.307 3.492 1.106 3.381-.53 8.674 1.743 14.907 6.396.731.546 1.597.827 2.473.827.513 0 1.03-.097 1.526-.292 1.352-.534 2.312-1.709 2.569-3.143 1.622-9.053-.04-15.81-1.72-19.884-.606-1.472-1.907-2.518-3.479-2.8-1.586-.283-3.188.252-4.282 1.435-.581.628-1.257 1.363-2.017 2.191-.599-.855-1.428-1.543-2.411-1.963.693-1.689 1.335-3.395 1.917-5.089.333.058.669.087 1.006.087 3.309 0 6.001-2.692 6.001-6.001 0-2.589-1.637-4.831-4.011-5.659.061-.368.117-.735.169-1.101 3.016-.313 5.376-2.871 5.376-5.969 0-2.856-1.998-5.261-4.702-5.854.009-.419.001-.836-.024-1.246-.011-.184-.026-.368-.046-.555 1.747-1.417 2.653-3.624 2.387-5.903-.352-3.007-2.791-5.437-5.799-5.776-1.23-.144-2.474.065-3.574.586-.472-.292-.959-.557-1.46-.792-.602-3.354-3.829-5.811-7.309-5.394-2.286.276-4.293 1.786-5.239 3.941-.322.736-.506 1.494-.549 2.262-3.077 1.858-6.151 5.127-6.069 9.092.081 3.88-3.167 8.485-8.742 9.475-2.576.456-4.354 2.868-3.964 5.377.216 1.39 1.041 2.604 2.238 3.324.74 1.841 2.507 3.05 4.522 3.05.399 0 .803-.049 1.199-.147zm32.566 13.421c.627-.679 1.544-.991 2.46-.823.91.163 1.632.744 1.983 1.593 1.578 3.828 3.137 10.191 1.6 18.769-.134.747-.633 1.358-1.335 1.636-.706.278-1.46.177-2.068-.278-4.313-3.22-10.265-6.868-15.091-6.868-.451 0-.892.032-1.321.099-.662.104-1.313-.103-1.791-.565-.472-.458-.696-1.097-.613-1.757l.007-.062c.122-.962.893-1.73 1.876-1.869 2.759-.39 6.807-1.688 10.42-5.652 1.583-1.737 2.858-3.125 3.873-4.223z"/><path d="m86.462 99.527c1.471-.431 2.549-1.793 2.549-3.401 0-1.954-1.59-3.544-3.544-3.544-.12 0-.239.006-.357.018-.279-.702-.599-1.39-.958-2.058.755-.84 1.176-1.924 1.176-3.079 0-2.55-2.075-4.625-4.625-4.625-.92 0-1.799.267-2.548.764-.755-.69-1.483-1.42-2.177-2.181.723-.833 1.134-1.907 1.134-3.029 0-.5-.1-.972-.247-1.423-1.437-1.041-3.114-2.161-4.882-3.158-.376.041-.746.11-1.098.241-.168-.334-.331-.672-.488-1.012.019-.013.036-.03.055-.043-.714-.358-1.433-.686-2.152-.973-.039.056-.089.104-.117.168-.108.251-.108.535-.001.786.419.984.889 1.956 1.395 2.889.135.248.368.427.642.494.272.064.563.015.798-.144.435-.295.943-.45 1.47-.45 1.448 0 2.625 1.178 2.625 2.625 0 .848-.416 1.648-1.112 2.143-.23.162-.38.415-.415.694s.051.561.235.774c1.128 1.309 2.356 2.543 3.648 3.667.398.346.996.324 1.368-.052.497-.503 1.16-.78 1.866-.78 1.447 0 2.625 1.178 2.625 2.625 0 .824-.379 1.585-1.04 2.088-.404.308-.514.868-.255 1.305.61 1.032 1.116 2.126 1.502 3.25.09.262.285.475.538.588.252.112.541.115.796.008.188-.079.389-.119.597-.119.852 0 1.544.692 1.544 1.544 0 .839-.672 1.523-1.507 1.544-.34-.024-.59.095-.793.309-.189.199-.288.468-.273.741.042.794.031 1.568-.032 2.3-.059.674-.166 1.372-.318 2.074-.11.509.188 1.018.687 1.169.657.199 1.098.789 1.098 1.466 0 .852-.692 1.544-1.544 1.544-.211 0-.419-.045-.618-.132-.479-.214-1.036-.021-1.284.438-.744 1.373-1.674 2.642-2.767 3.771-.188.193-.289.454-.281.723.007.27.123.523.32.707.323.299.501.699.501 1.128 0 .852-.692 1.544-1.544 1.544-.562 0-1.079-.314-1.351-.819-.127-.236-.344-.412-.602-.486-.258-.077-.534-.044-.769.088-1.807 1.014-3.721 1.619-5.688 1.801-.279.026-.534.167-.704.39-.169.223-.238.506-.189.781.016.089.029.179.029.271 0 .852-.692 1.544-1.544 1.544s-1.544-.692-1.544-1.544c0-.151.031-.315.094-.499.091-.266.066-.558-.068-.804-.135-.247-.367-.426-.64-.493-1.396-.342-2.699-.866-3.874-1.558-.443-.258-1.014-.144-1.317.275-.296.409-.751.644-1.246.644-.852 0-1.544-.692-1.544-1.544 0-.437.185-.843.521-1.144.378-.339.443-.908.149-1.323-.26-.367-.456-.678-.616-.976-1.07-1.997-1.093-4.311-.06-6.037 1.15-1.922 3.427-2.686 5.916-1.928 1.023.311 1.797.927 2.301 1.833.142.256.294.643.216 1.033-.137.682-.757 1.196-1.441 1.196-.312 0-.611-.105-.866-.305-1.165-.911-2.059-.979-2.785-.079-.97 1.204.299 3.079 1.194 3.815 1.483 1.221 3.357 1.548 4.67 1.607 3.498.168 7.411-1.951 7.466-5.153.09-5.319-5.791-9.383-12.604-14.092-7.327-5.063-15.631-10.802-18.325-19.606-.509-1.656-.877-3.314-1.094-4.929-.073-.548-.571-.927-1.125-.858-.547.073-.931.577-.858 1.124.231 1.724.623 3.49 1.164 5.25 2.897 9.468 11.505 15.417 19.104 20.668 6.337 4.379 11.81 8.16 11.737 12.41-.032 1.874-2.987 3.289-5.376 3.188-1.008-.046-2.432-.283-3.489-1.154-.068-.057-.134-.118-.196-.183.433.195.9.296 1.382.296 1.645 0 3.076-1.179 3.402-2.803.157-.781.009-1.611-.429-2.398-.754-1.355-1.954-2.315-3.468-2.775-3.381-1.024-6.59.105-8.212 2.814-1.393 2.327-1.388 5.396.013 8.01.094.175.196.352.311.535-.389.578-.602 1.261-.602 1.962 0 1.954 1.59 3.544 3.544 3.544.823 0 1.616-.293 2.244-.81.885.462 1.824.844 2.808 1.143-.001.033-.001.067-.001.102 0 1.954 1.59 3.544 3.544 3.544 1.807 0 3.302-1.358 3.517-3.107 1.643-.251 3.245-.762 4.781-1.525.656.671 1.558 1.063 2.518 1.063 1.954 0 3.544-1.59 3.544-3.544 0-.641-.179-1.268-.506-1.813.786-.89 1.486-1.848 2.093-2.863.179.028.359.042.542.042 1.954 0 3.544-1.59 3.544-3.544 0-1.25-.646-2.369-1.675-3.002.09-.518.157-1.031.201-1.533.05-.541.071-1.098.067-1.668z"/><path d="m41.107 65.031h.002c.552-.001.999-.45.998-1.002-.002-1.062.064-2.12.198-3.147.071-.547-.315-1.049-.862-1.12-.542-.07-1.049.314-1.121.862-.145 1.113-.217 2.26-.215 3.409.002.552.449.998 1 .998z"/></g></svg>