<svg id="Layer_1" enable-background="new 0 0 128 128" height="512" viewBox="0 0 128 128" width="512" xmlns="http://www.w3.org/2000/svg"><path d="m125.801 28.564c-.783-2.52-3.025-4.385-6.312-5.25-3.123-.823-6.854-.648-10.514.489-3.124.971-5.879 2.544-7.93 4.508-1.007-2.654-2.817-5.26-5.221-7.479-2.815-2.601-6.111-4.362-9.282-4.962-3.336-.632-6.164.089-7.955 2.026-3.63 3.93-1.747 11.375 4.288 16.951 3.906 3.607 8.681 5.516 12.572 5.108-.181 6.631-1.508 17.762-7.738 25.85-1.924 2.497-4.567 4.356-7.564 5.743-.074-.15-.137-.298-.215-.449-.516-.996-1.021-1.856-1.521-2.61 2.387-2.955 4.144-6.437 5.072-10.246h.75c.553 0 1-.447 1-1s-.447-1-1-1h-.344c.193-1.189.302-2.406.329-3.644h.015c.553 0 1-.447 1-1s-.447-1-1-1h-.039c-.066-1.24-.221-2.455-.453-3.644h.491c.553 0 1-.447 1-1s-.447-1-1-1h-.967c-.847-3.039-2.224-5.855-4.03-8.342-4.521-8.805-13.69-14.848-24.249-14.848-5.811 0-11.356 1.804-16.036 5.217-.446.325-2.752 2.289-3.145 2.678-1.245 1.233-2.375 2.593-3.36 4.041-.311.457-2.03 3.508-2.26 4.011-.966 2.118-1.642 4.324-2.036 6.593h-3.641c-.553 0-1 .447-1 1s.447 1 1 1h3.368c-.088.895-.137 1.797-.137 2.707 0 .314.013.625.024.937h-3.255c-.553 0-1 .447-1 1s.447 1 1 1h3.394c.134 1.241.352 2.458.647 3.644h-4.039c-.553 0-1 .447-1 1s.447 1 1 1h4.623c1 3.005 2.509 5.778 4.426 8.218-1.245.996-2.508 2.733-3.831 5.29-4.238 8.184-2.681 15.448-.581 21.482.452 2.306 1.125 4.535 2 6.632.038.751-.075 1.613-2.54 1.848-6.247.59-14.861 4.695-20.988 8.035-1.338.729-1.983 2.29-1.605 3.885.352 1.483 1.484 2.474 2.887 2.521 2.182.075 4.69.193 7.333.317 14.048.658 24.174.984 26.493-.841.419-.33.777-.797 1.084-1.414 3.364 1.637 7 1.781 11.021 1.781s7.657-.144 11.013-1.776c.309.595.664 1.056 1.075 1.395 1.269 1.046 4.806 1.412 10.175 1.412 4.281 0 9.729-.233 16.119-.541 2.723-.131 5.309-.256 7.549-.333 1.403-.047 2.536-1.037 2.888-2.521.377-1.595-.269-3.156-1.606-3.885-4.472-2.438-10.266-5.277-15.499-6.866 6.104-5.253 11.287-12.565 14.914-21.276 4.723-11.327 3.785-28.352 2.63-38.461 3.101.838 6.851.683 10.555-.469 3.659-1.138 6.834-3.111 8.938-5.558 2.214-2.577 3.003-5.385 2.22-7.904z" fill="#e6e7e8"/><path d="m120.846 24.861c-1.4-4.504-8.373-6.341-15.573-4.103-3.728 1.159-6.777 3.186-8.665 5.494-.713-2.896-2.593-6.036-5.461-8.686-5.539-5.117-12.624-6.457-15.824-2.992s-1.306 10.422 4.233 15.539c4.212 3.891 9.305 5.578 12.914 4.646-.06 7.189-1.304 19.007-7.967 27.657-2.226 2.889-5.335 4.967-8.835 6.453 3.422 7.671 1.645 14.392-.123 19.452-.456 2.35-1.138 4.581-2.019 6.663-.117 1.74.694 2.814 3.433 3.073 1.08.102 2.238.319 3.442.616 6.173-4.848 11.991-12.157 16.132-22.102 4.866-11.672 3.616-29.552 2.372-39.532 2.991 1.247 7.17 1.359 11.439.032 7.2-2.24 11.902-7.706 10.502-12.21z" fill="#6dc9f7"/><path d="m97.562 105.974c-6-3.27-14.51-7.341-20.603-7.918-2.739-.259-3.55-1.333-3.433-3.073.881-2.082 1.563-4.312 2.019-6.663 1.868-5.346 3.755-12.544-.5-20.761-.451-.871-.885-1.621-1.304-2.275-4.811 5.498-11.874 8.975-19.754 8.975-9.578 0-17.954-5.132-22.538-12.795-.132.189-.268.372-.396.565-1.27.577-2.741 2.251-4.439 5.531-4.256 8.217-2.368 15.415-.5 20.761.456 2.35 1.138 4.581 2.019 6.663.117 1.74-.694 2.814-3.433 3.073-6.093.577-14.603 4.648-20.603 7.918-1.972 1.075-1.347 4.454.837 4.529 11.034.378 30.421 1.854 33.174-.311.5-.394.888-1.105 1.192-2.036 3.461 2.044 7.378 2.19 11.531 2.19 4.143 0 8.05-.14 11.504-2.174.315.902.712 1.603 1.219 2.02 2.703 2.227 22.14.689 33.174.311 2.181-.076 2.806-3.456.834-4.53z" fill="#6dc9f7"/><circle cx="53.986" cy="48.011" fill="#6dc9f7" r="26.247"/><circle cx="50.986" cy="45.011" fill="#fff" r="26.247"/><circle cx="53.986" cy="48.011" fill="#6dc9f7" r="26.247"/><g fill="#fa759e"><circle cx="43.162" cy="54.322" r=".613"/><circle cx="39.226" cy="56.122" r=".613"/><circle cx="39.545" cy="52.324" r=".613"/><circle cx="58.495" cy="54.322" r=".613"/><circle cx="62.431" cy="56.122" r=".613"/><circle cx="62.111" cy="52.324" r=".613"/></g><path d="m121.801 24.564c-1.588-5.106-8.976-7.198-16.826-4.761-3.124.971-5.879 2.544-7.93 4.508-1.006-2.653-2.816-5.259-5.221-7.479-6.036-5.576-13.608-6.864-17.237-2.936-1.791 1.938-2.285 4.812-1.392 8.091.849 3.113 2.866 6.26 5.681 8.86 3.906 3.609 8.695 5.524 12.571 5.107-.18 6.631-1.506 17.761-7.737 25.851-1.789 2.32-4.336 4.247-7.563 5.746-.075-.151-.137-.3-.216-.452-.515-.996-1.021-1.856-1.521-2.61-.436.54-.894 1.061-1.371 1.564.35.561.719 1.199 1.117 1.966.216.417.41.83.594 1.241.002.005.001.01.003.014.78 1.748 1.282 3.438 1.568 5.076.004.021.008.043.012.064.063.367.112.731.154 1.093.007.062.015.124.022.186.035.326.059.65.077.972.006.099.012.198.016.296.013.288.018.575.018.86 0 .133 0 .266-.002.398-.004.253-.013.505-.026.756-.009.164-.019.327-.031.49-.016.221-.035.441-.057.66-.02.192-.042.384-.067.575-.024.19-.049.381-.077.57-.033.218-.069.434-.107.65-.029.164-.057.328-.088.491-.046.238-.097.474-.149.709-.031.142-.061.285-.094.427-.059.254-.124.505-.189.757-.032.124-.062.248-.096.371-.072.267-.149.531-.226.795-.032.108-.061.216-.094.324-.084.279-.173.556-.262.833-.03.092-.057.185-.087.276-.12.364-.243.727-.368 1.086-.016.046-.028.093-.037.14-.438 2.253-1.097 4.427-1.959 6.462-.043.104-.069.213-.077.324v.001c-.119 1.784.63 2.998 2.209 3.644.595.243 1.297.412 2.129.491.02.002.042.006.063.008.439.044.908.11 1.4.197.074.013.15.028.225.042.513.095 1.046.207 1.608.346.006.001.011.001.017.002 5.455 1.348 11.99 4.527 16.907 7.207.619.337.755 1.081.616 1.668-.053.225-.282.958-1.009.983-2.248.076-4.845.202-7.578.333-9.186.443-23.07 1.112-24.926-.416-.23-.19-.575-.618-.91-1.578-.001-.003-.004-.005-.005-.008-.045-.126-.114-.246-.212-.35-1.34-1.42-4.94-5.735-5.514-8.612-.703-3.538-.007-7.152 0-7.188.107-.542-.245-1.067-.786-1.175-.538-.105-1.067.244-1.175.785-.032.163-.784 4.029 0 7.969.606 3.046 3.619 6.845 5.141 8.611-2.932 1.343-6.237 1.471-9.898 1.471-3.686 0-7.01-.132-9.965-1.505 1.416-1.757 4.228-5.542 4.832-8.577.784-3.939.032-7.806 0-7.969-.107-.541-.627-.899-1.176-.785-.541.107-.894.634-.785 1.176.007.036.707 3.635 0 7.188-.692 3.479-5.143 8.571-5.188 8.623-.092.105-.157.223-.198.348 0 0-.001.001-.001.001-.321.983-.645 1.392-.859 1.561-1.915 1.507-15.905.851-25.164.415-2.651-.125-5.169-.243-7.357-.317-.727-.025-.956-.759-1.009-.982-.14-.588-.003-1.332.616-1.669 5.963-3.25 14.311-7.241 20.219-7.801 3.043-.288 4.502-1.68 4.337-4.137-.008-.111-.034-.22-.077-.322-.862-2.037-1.521-4.212-1.958-6.463-.009-.047-.021-.094-.037-.14-2.071-5.928-3.451-12.45.443-19.971 1.42-2.742 2.536-4.058 3.338-4.684 4.987 5.479 12.172 8.923 20.147 8.923 11.785 0 21.844-7.522 25.634-18.016h3.613c.553 0 1-.447 1-1s-.447-1-1-1h-2.982c.326-1.185.574-2.401.738-3.644h2.244c.553 0 1-.447 1-1s-.447-1-1-1h-2.05c.03-.526.05-1.055.05-1.588 0-.692-.035-1.376-.086-2.056h2.086c.553 0 1-.447 1-1s-.447-1-1-1h-2.304c-1.965-13.107-13.298-23.19-26.944-23.19-5.811 0-11.356 1.804-16.036 5.217-.446.325-.545.95-.219 1.396.324.446.95.545 1.396.219 4.336-3.161 9.474-4.832 14.858-4.832 12.54 0 22.97 9.191 24.917 21.19h-3.642c-.553 0-1 .447-1 1s.447 1 1 1h3.882c.055.679.091 1.363.091 2.056 0 .534-.022 1.062-.055 1.588h-3.918c-.553 0-1 .447-1 1s.447 1 1 1h3.713c-.178 1.246-.448 2.462-.801 3.644h-2.912c-.553 0-1 .447-1 1s.447 1 1 1h2.217c-3.694 9.367-12.828 16.016-23.491 16.016-10.91 0-20.223-6.957-23.743-16.667h1.236c.553 0 1-.447 1-1s-.447-1-1-1h-1.864c-.32-1.183-.554-2.399-.699-3.644h2.563c.553 0 1-.447 1-1s-.447-1-1-1h-2.716c-.011-.311-.024-.623-.024-.937 0-.911.048-1.814.142-2.707h2.597c.553 0 1-.447 1-1s-.447-1-1-1h-2.295c.373-1.981.976-3.909 1.822-5.763.229-.502.008-1.096-.495-1.325-.505-.227-1.096-.007-1.325.495-.966 2.117-1.642 4.323-2.037 6.593h-3.642c-.553 0-1 .447-1 1s.447 1 1 1h3.369c-.088.894-.136 1.796-.136 2.707 0 .314.013.625.024.937h-3.256c-.553 0-1 .447-1 1s.447 1 1 1h3.393c.134 1.241.352 2.458.647 3.644h-4.04c-.553 0-1 .447-1 1s.447 1 1 1h4.624c1 3.005 2.509 5.778 4.426 8.218-1.246.996-2.509 2.733-3.832 5.29-4.239 8.185-2.681 15.449-.58 21.482.452 2.305 1.124 4.534 1.999 6.632.039.751-.074 1.613-2.54 1.848-6.246.59-14.86 4.695-20.987 8.035-1.338.729-1.983 2.29-1.605 3.885.351 1.483 1.484 2.474 2.887 2.521 2.182.075 4.689.193 7.332.316 14.046.661 24.173.985 26.494-.84.418-.329.776-.796 1.083-1.414 3.364 1.637 7 1.781 11.021 1.781s7.657-.144 11.013-1.776c.308.595.663 1.056 1.074 1.395 1.269 1.046 4.806 1.412 10.175 1.412 4.282 0 9.729-.233 16.119-.541 2.723-.131 5.31-.256 7.55-.333 1.402-.047 2.535-1.037 2.887-2.521.378-1.595-.268-3.156-1.605-3.885-4.487-2.446-10.305-5.297-15.553-6.882 6.205-5.319 11.366-12.612 14.967-21.259 4.723-11.327 3.785-28.352 2.63-38.461 3.099.839 6.85.684 10.556-.469 7.844-2.441 12.746-8.353 11.159-13.462zm-11.755 11.551c-3.859 1.198-7.881 1.199-10.758 0-.329-.138-.705-.089-.99.127-.283.216-.431.565-.387.92 1.2 9.632 2.498 27.509-2.303 39.023-3.683 8.842-9.019 16.23-15.45 21.401-.057-.013-.109-.021-.165-.033-.414-.093-.82-.175-1.221-.246-.112-.02-.226-.043-.336-.061-.436-.071-.864-.13-1.281-.172-.033-.003-.071-.011-.104-.014-.924-.087-1.518-.264-1.897-.489-.505-.301-.629-.689-.646-1.073-.004-.095-.002-.191.003-.284.341-.816.641-1.657.919-2.509.437-1.339.805-2.715 1.081-4.124.125-.36.248-.725.369-1.094.032-.098.062-.198.094-.296.088-.274.174-.549.258-.828.037-.123.071-.247.107-.37.075-.258.149-.517.219-.78.037-.138.072-.277.108-.417.064-.25.127-.502.186-.757.035-.151.069-.303.102-.455.053-.244.104-.49.152-.737.032-.166.063-.332.093-.499.041-.234.078-.47.114-.707.028-.183.055-.365.079-.55.029-.22.052-.442.075-.664.022-.204.044-.408.061-.614.016-.195.025-.392.036-.588.014-.236.029-.47.036-.708.004-.13.001-.262.002-.393.014-1.109-.047-2.242-.207-3.401-.001-.008-.002-.016-.003-.025-.051-.369-.119-.742-.19-1.116-.014-.075-.026-.15-.041-.225-.071-.353-.157-.709-.248-1.066-.025-.1-.049-.2-.076-.3-.093-.345-.198-.692-.309-1.041-.037-.116-.074-.232-.113-.349-.115-.34-.24-.681-.373-1.024-.025-.065-.045-.129-.071-.195 3.534-1.637 6.332-3.772 8.324-6.357 6.635-8.612 8.107-20.121 8.175-28.26.003-.311-.14-.604-.385-.796s-.567-.258-.865-.18c-3.37.867-8.186-.902-11.985-4.412-2.543-2.35-4.357-5.161-5.108-7.917-.705-2.59-.375-4.795.931-6.208 2.774-3.003 9.373-1.607 14.411 3.047 2.595 2.396 4.479 5.382 5.169 8.189.09.368.381.653.75.737.37.084.755-.05.994-.342 1.833-2.239 4.817-4.125 8.188-5.172 6.552-2.035 13.108-.459 14.322 3.444 1.212 3.906-3.297 8.924-9.846 10.96z" fill="#3a2c60"/><path d="m29.271 31.263c.32 0 .635-.153.828-.438.913-1.343 1.961-2.604 3.115-3.745.392-.389.396-1.022.007-1.415-.39-.392-1.021-.395-1.415-.007-1.244 1.233-2.375 2.593-3.361 4.042-.311.457-.192 1.079.265 1.39.171.117.368.173.561.173z" fill="#3a2c60"/><path d="m46.713 60.343c-1.805 0-3.272-1.261-3.272-2.81 0-.553-.447-1-1-1s-1 .447-1 1c0 2.652 2.365 4.81 5.272 4.81 1.762 0 3.315-.799 4.272-2.014.958 1.214 2.511 2.014 4.272 2.014 2.907 0 5.272-2.157 5.272-4.81 0-.553-.447-1-1-1s-1 .447-1 1c0 1.549-1.468 2.81-3.272 2.81s-3.272-1.261-3.272-2.81v-2.678l3.665-3.268c.244-.218.071-.59-.274-.59h-8.782c-.345 0-.518.372-.274.59l3.665 3.268v2.678c.001 1.549-1.467 2.81-3.272 2.81z" fill="#3a2c60"/><path d="m41.454 38.115c-1.686 0-3.052 1.366-3.052 3.052s1.366 3.052 3.052 3.052 3.052-1.366 3.052-3.052-1.366-3.052-3.052-3.052z" fill="#3a2c60"/><path d="m60.202 44.219c1.686 0 3.052-1.366 3.052-3.052s-1.366-3.052-3.052-3.052-3.052 1.366-3.052 3.052 1.367 3.052 3.052 3.052z" fill="#3a2c60"/></svg>