<svg id="Layer_1" enable-background="new 0 0 128 128" height="512" viewBox="0 0 128 128" width="512" xmlns="http://www.w3.org/2000/svg"><path d="m104.07 85.46c-.661-2.538-1.878-4.782-3.484-6.64 1.802-3.493 2.375-7.637 1.307-11.741-.608-2.336-1.7-4.412-3.121-6.179-1.679-3.711-4.578-6.745-8.306-8.556-.13-.228-.276-.441-.414-.662.023-.499.036-1.002.036-1.508 0-2.791-.359-5.485-1.019-8.027.471.095.94.152 1.402.167.091.003.18.005.27.005 1.907 0 3.461-.706 4.395-2.004.977-1.359 1.123-3.155.411-5.058-.658-1.759-1.993-3.427-3.757-4.696s-3.77-2.002-5.647-2.066c-1.293-.044-2.43.229-3.339.781-.074-.226-.153-.451-.247-.672 1.234-1.508 1.906-3.353 1.906-5.268 0-2.506-1.141-4.859-3.142-6.506-1.26-4.013-5.49-6.673-10.023-6.146-1.751-1.945-4.355-3.091-7.086-3.091-3.463 0-6.635 1.821-8.219 4.677-3.853 1.119-6.504 4.46-6.504 8.277 0 .323.02.65.06.977-1.802 1.63-2.824 3.869-2.824 6.23 0 .253.027.501.05.75-2.009-.172-4.375.514-6.522 2.057-3.829 2.754-5.299 7.038-3.346 9.754.968 1.346 2.568 2.017 4.403 2.017.787 0 1.618-.131 2.46-.379-.638 2.392-.997 4.924-1.052 7.543-1.147 1.811-1.978 3.839-2.404 6.012-6.728 3.974-10.032 11.938-8.051 19.547.218.836.503 1.667.849 2.478-2.706 4.146-3.543 9.224-2.294 14.026.268 1.029.628 2.022 1.069 2.972-2.62 1.934-4.395 5.594-4.395 9.789 0 3.383 1.157 6.414 2.977 8.478.875 4.69 4.312 8.205 8.416 8.205 2.408 0 4.587-1.212 6.154-3.158.202.625.422 1.199.664 1.698.671 1.382 1.5 2.223 2.466 2.498.082.024.166.037.25.039l4.978.159c1.626 1.714 4.11 2.517 6.558 1.88 1.121-.292 2.101-.85 2.891-1.589 2.901 1.811 6.505 2.48 10.076 1.551 1.451-.378 2.774-.993 3.95-1.785l6.704-.214c.085-.003.169-.016.25-.039.966-.275 1.795-1.116 2.466-2.498.068-.14.132-.292.197-.442 1.4 1.195 3.1 1.902 4.935 1.902 3.763 0 6.964-2.958 8.144-7.065 2.414-1.857 4.024-5.115 4.024-8.827 0-2.382-.668-4.574-1.78-6.334 2.523-3.781 3.493-8.572 2.258-13.319z" fill="#e6e7e8"/><path d="m96.847 78.237c-.661-2.538-1.878-4.782-3.484-6.64 1.802-3.493 2.375-7.637 1.307-11.741-1.297-4.984-4.735-8.843-9.071-10.848-.225-.413-.467-.814-.724-1.202-.77 13.898-10.594 24.892-22.606 24.892-12.515 0-22.661-11.931-22.661-26.649 0-.13.014-.255.015-.384-1.259 1.915-2.124 4.085-2.507 6.376-6.448 3.57-9.924 11.168-7.982 18.63.259.995.607 1.942 1.027 2.841-2.688 3.834-3.743 8.776-2.471 13.663 1.074 4.128 3.619 7.482 6.925 9.652-.135 1.451-.033 2.947.355 4.439 1.232 4.736 4.94 8.169 9.376 9.276.01.515.074 1.036.209 1.556.933 3.584 4.595 5.734 8.18 4.801 1.121-.292 2.101-.85 2.891-1.589 2.901 1.811 6.505 2.48 10.076 1.551 3.725-.97 6.643-3.472 8.258-6.654 1.847.365 3.803.331 5.747-.175 6.13-1.595 10.068-7.338 9.612-13.437 6.151-3.672 9.423-11.075 7.528-18.358z" fill="#fff"/><path d="m99.942 81.333c-.661-2.538-1.878-4.782-3.484-6.64 1.802-3.493 2.375-7.637 1.307-11.741-1.297-4.984-4.735-8.843-9.071-10.848-.98-1.8-2.281-3.361-3.797-4.652-.621 14.065-10.515 25.245-22.629 25.245-10.274 0-18.946-8.043-21.724-19.065-.131.495-.248.995-.333 1.503-6.448 3.57-9.924 11.168-7.982 18.63.259.995.607 1.942 1.027 2.841-2.688 3.834-3.743 8.776-2.471 13.663 1.074 4.128 3.619 7.482 6.925 9.652-.135 1.451-.033 2.947.355 4.439 1.232 4.736 4.94 8.169 9.376 9.276.01.515.074 1.036.209 1.556.933 3.585 4.595 5.734 8.179 4.801 1.121-.292 2.101-.85 2.891-1.589 2.901 1.811 6.505 2.48 10.076 1.551 3.725-.97 6.642-3.472 8.258-6.654 1.847.365 3.803.331 5.747-.175 6.129-1.595 10.068-7.338 9.612-13.437 6.152-3.671 9.425-11.073 7.529-18.356z" fill="#d4fbff"/><path d="m43.946 25.734c-1.942-.751-4.762-.228-7.22 1.539-3.309 2.379-4.702 6.102-3.111 8.314 1.399 1.945 4.637 2.072 7.648.458.986-2.859 2.398-5.45 4.117-7.714-.644-.763-1.139-1.64-1.434-2.597z" fill="#fa759e"/><path d="m87.059 27.274c-3.309-2.379-7.281-2.515-8.872-.302-.016.022-.027.047-.042.069 2.281 2.636 4.088 5.835 5.261 9.406 2.74 1.149 5.501.896 6.763-.859 1.592-2.213.199-5.935-3.11-8.314z" fill="#fa759e"/><path d="m77.997 26.874c.03.264.05.532.05.804 0 4.217-3.684 7.636-8.228 7.636-1.281 0-2.493-.272-3.574-.756-1.507 1.581-3.709 2.579-6.163 2.579-2.352 0-4.469-.92-5.967-2.389-.606.306-1.3.479-2.039.479-2.361 0-4.275-1.776-4.275-3.968 0-.318.045-.626.121-.922-.999-.505-1.866-1.201-2.56-2.029-3.578 4.712-5.756 10.926-5.756 17.741 0 14.718 10.146 26.649 22.661 26.649s22.661-11.931 22.661-26.649c.001-7.532-2.66-14.328-6.931-19.175z" fill="#ffd7e5"/><path d="m79.302 19.211c0-2.378-1.172-4.502-3.008-5.902-.892-3.323-4.127-5.785-7.983-5.785-.534 0-1.055.049-1.561.139-1.495-1.916-3.923-3.163-6.667-3.163-3.35 0-6.23 1.859-7.514 4.526-3.552.845-6.178 3.836-6.178 7.397 0 .475.049.938.138 1.389-1.775 1.401-2.902 3.487-2.902 5.818 0 2.895 1.736 5.413 4.295 6.708-.076.296-.121.604-.121.922 0 2.191 1.914 3.968 4.275 3.968.738 0 1.433-.174 2.039-.479 1.499 1.469 3.615 2.389 5.967 2.389 2.454 0 4.655-.998 6.163-2.579 1.081.484 2.293.756 3.574.756 4.544 0 8.228-3.419 8.228-7.636 0-1.211-.305-2.355-.846-3.372 1.306-1.353 2.101-3.138 2.101-5.096z" fill="#d4fbff"/><path d="m51.665 53.655c-.8 0-1.449.442-1.449.988s.649.988 1.449.988 1.449-.442 1.449-.988c-.001-.545-.649-.988-1.449-.988z" fill="#fa759e"/><path d="m72.871 53.655c-.8 0-1.449.442-1.449.988s.649.988 1.449.988 1.449-.442 1.449-.988c0-.545-.649-.988-1.449-.988z" fill="#fa759e"/><path d="m79.302 19.211c0-2.378-1.172-4.502-3.008-5.902-.892-3.323-4.127-5.785-7.983-5.785-.534 0-1.055.049-1.561.139-1.495-1.916-3.923-3.163-6.667-3.163-3.35 0-6.23 1.859-7.514 4.526-3.552.845-6.178 3.836-6.178 7.397 0 .475.049.938.138 1.389-1.775 1.401-2.902 3.487-2.902 5.818 0 2.895 1.736 5.413 4.295 6.708-.076.296-.121.604-.121.922 0 2.191 1.914 3.968 4.275 3.968.738 0 1.433-.174 2.039-.479 1.499 1.469 3.615 2.389 5.967 2.389 2.454 0 4.655-.998 6.163-2.579 1.081.484 2.293.756 3.574.756 4.544 0 8.228-3.419 8.228-7.636 0-1.211-.305-2.355-.846-3.372 1.306-1.353 2.101-3.138 2.101-5.096z" fill="#d4fbff"/><path d="m27.153 106.337c0-5.252 3.405-9.51 7.605-9.51 1.819 0 3.481.809 4.789 2.142-.452-5.064-3.655-8.992-7.545-8.992-4.2 0-7.605 4.575-7.605 10.219 0 3.258 1.139 6.154 2.907 8.025-.099-.609-.151-1.239-.151-1.884z" fill="#d4fbff"/><path d="m40.546 100.177c-1.395-2.048-3.469-3.35-5.788-3.35-4.2 0-7.605 4.258-7.605 9.51s3.405 9.51 7.605 9.51c2.801 0 5.242-1.899 6.562-4.719-.601-2.965-.882-6.806-.774-10.951z" fill="#ffd7e5"/><path d="m90.828 91.558c-3.374 0-6.231 2.726-7.226 6.497 1.096-.768 2.349-1.229 3.695-1.229 4.2 0 7.605 4.258 7.605 9.51 0 1-.125 1.962-.353 2.867 2.317-1.616 3.884-4.688 3.884-8.218 0-5.206-3.405-9.427-7.605-9.427z" fill="#d4fbff"/><path d="m87.297 96.826c-1.541 0-2.973.577-4.171 1.563.304 5.823-.152 11.23-1.185 14.697 1.375 1.706 3.267 2.761 5.356 2.761 4.2 0 7.605-4.258 7.605-9.51.001-5.253-3.404-9.511-7.605-9.511z" fill="#ffd7e5"/><path d="m54.595 90.452c1.976-6.348-8.697-13.444-10.418-9.684-5.47 13.306-4.288 34.891.148 36.156l8.803.282c1.321 0 2.393-1.398 2.393-3.122-2.261-8.676-3.064-16.756-.926-23.632z" fill="#ffd7e5"/><path d="m79.565 80.768c-1.72-3.76-12.394 3.336-10.418 9.684 2.139 6.876 1.335 14.956-.926 23.632 0 1.724 1.071 3.122 2.393 3.122l8.803-.282c4.436-1.264 5.618-22.85.148-36.156z" fill="#ffd7e5"/><g fill="#3a2c60"><path d="m95.922 78.661c.275 1.108.429 2.243.457 3.372.013.544.458.976.999.976h.025c.552-.013.989-.472.975-1.024-.031-1.275-.204-2.555-.514-3.805-.133-.536-.678-.861-1.212-.729-.536.132-.862.674-.73 1.21z"/><circle cx="55.575" cy="44.843" r="2.462"/><circle cx="68.96" cy="44.843" r="2.462"/><path d="m99.433 100.986c0-3.732-1.631-7.003-4.07-8.846 1.195-1.771 2.098-3.74 2.581-5.852.124-.539-.213-1.075-.751-1.198-.538-.125-1.075.213-1.198.751-.438 1.915-1.267 3.698-2.364 5.295-.88-.369-1.821-.579-2.803-.579-2.862 0-5.394 1.708-6.958 4.322-.53-5.099-1.634-10.243-3.38-14.492-.209-.51-.793-.755-1.305-.544-.511.21-.754.794-.544 1.305 4.682 11.389 4.257 28.103 1.697 33.383-.478.986-.891 1.299-1.107 1.398l-3.901.125v-2.696c0-.552-.448-1-1-1s-1 .448-1 1v2.761l-2.715.087c-.729 0-1.348-.906-1.39-2.003 2.556-9.865 2.843-17.731.879-24.048-.164-.528-.728-.821-1.252-.658-.527.164-.822.725-.658 1.252 1.859 5.978 1.552 13.528-.939 23.083-.021.083-.032.167-.032.252 0 .382.057.745.138 1.097-.615.285-1.245.538-1.911.712-3.067.798-6.236.345-8.974-1.252.021-.184.046-.366.046-.557 0-.085-.011-.17-.032-.252-2.49-9.555-2.797-17.105-.938-23.083.164-.527-.131-1.088-.658-1.252-.525-.164-1.088.13-1.252.658-1.964 6.316-1.677 14.183.878 24.048-.042 1.098-.66 2.003-1.358 2.004l-3.176-.102v-2.746c0-.552-.448-1-1-1s-1 .448-1 1v2.682l-3.472-.111c-.217-.099-.629-.412-1.107-1.398-2.56-5.281-2.984-21.995 1.698-33.383.21-.511-.034-1.095-.544-1.305-.512-.211-1.096.034-1.305.544-1.819 4.424-2.94 9.82-3.442 15.125-1.365-3.851-4.348-6.535-7.81-6.535-.846 0-1.662.167-2.436.465-.372-.807-.682-1.647-.909-2.519-1.149-4.414-.303-9.093 2.322-12.837.205-.293.239-.673.087-.997-.406-.869-.73-1.767-.965-2.67-1.788-6.871 1.295-14.069 7.499-17.503.267-.148.452-.409.502-.71.153-.915.395-1.798.702-2.652 1.479 13.596 11.434 24.145 23.464 24.145 11.847 0 21.687-10.228 23.397-23.524 3.986 2.016 6.909 5.597 8.037 9.934.965 3.708.529 7.625-1.228 11.03-.187.363-.135.803.132 1.112.694.803 1.306 1.678 1.818 2.601.268.482.876.657 1.36.388.483-.268.657-.877.388-1.36-.472-.849-1.017-1.661-1.626-2.423 1.734-3.7 2.124-7.882 1.091-11.852-1.299-4.991-4.688-9.115-9.321-11.363-.133-.234-.28-.456-.424-.68.023-.501.037-1.006.037-1.514 0-2.813-.369-5.526-1.04-8.085.489.103.977.177 1.456.193.09.003.18.005.269.005 1.897 0 3.442-.702 4.369-1.991 1.942-2.702.476-6.967-3.339-9.71-3.13-2.25-6.717-2.665-8.98-1.254-.079-.247-.168-.492-.272-.734 1.237-1.505 1.912-3.349 1.912-5.263 0-2.5-1.139-4.846-3.137-6.488-1.147-3.667-4.737-6.2-8.854-6.2-.383 0-.77.023-1.154.068-1.75-1.944-4.35-3.09-7.078-3.09-3.456 0-6.621 1.819-8.198 4.672-3.847 1.112-6.494 4.444-6.494 8.25 0 .328.021.659.062.989-1.803 1.625-2.825 3.86-2.825 6.217 0 .27.028.535.054.8-2.011-.187-4.383.483-6.539 2.033-3.814 2.743-5.281 7.008-3.339 9.709.927 1.29 2.471 1.991 4.369 1.991.089 0 .179-.001.269-.005.745-.025 1.509-.168 2.271-.398-.651 2.412-1.022 4.963-1.077 7.607-1.157 1.817-1.994 3.854-2.42 6.037-6.724 3.964-10.027 11.918-8.049 19.519.219.84.505 1.675.854 2.49-2.708 4.142-3.548 9.216-2.299 14.015.269 1.035.637 2.03 1.085 2.983-2.628 1.922-4.411 5.586-4.411 9.786 0 3.367 1.158 6.37 2.967 8.426.857 4.699 4.292 8.225 8.395 8.225 2.419 0 4.598-1.237 6.162-3.209.208.652.435 1.249.686 1.766.666 1.374 1.489 2.208 2.445 2.481.079.023.161.036.242.038l8.836.282c1.098 0 2.066-.647 2.686-1.633 2.063 1.128 4.322 1.71 6.616 1.71 1.172 0 2.353-.15 3.521-.455.788-.205 1.544-.488 2.272-.827.618.744 1.472 1.205 2.421 1.205h.001l8.804-.282c.082-.002.163-.015.242-.038.957-.272 1.779-1.107 2.445-2.481.075-.155.147-.323.219-.491 1.4 1.21 3.1 1.933 4.942 1.933 3.758 0 6.953-2.963 8.123-7.073 2.404-1.848 4.012-5.086 4.012-8.786zm-36.185-29.317c.003-.033.019-.062.019-.096v-6.288c2.048-.42 3.585-2.09 3.585-4.089 0-.552-.448-1-1-1s-1 .448-1 1c0 1.211-1.16 2.196-2.585 2.196s-2.584-.985-2.584-2.196c0-.552-.448-1-1-1s-1 .448-1 1c0 1.999 1.537 3.669 3.584 4.089v6.288c0 .034.016.063.019.096-11.49-.61-20.68-11.866-20.68-25.62 0-6.137 1.849-11.758 4.896-16.177.406.362.838.703 1.316.995-.012.132-.018.263-.018.393 0 2.739 2.367 4.968 5.275 4.968.628 0 1.252-.106 1.838-.31 1.697 1.437 3.862 2.22 6.168 2.22 2.387 0 4.679-.87 6.391-2.408 1.063.388 2.186.584 3.346.584 4.393 0 8.073-2.891 8.998-6.745 3.176 4.463 5.111 10.201 5.111 16.48.002 13.754-9.189 25.01-20.679 25.62zm23.227-43.584c2.808 2.019 4.128 5.187 2.883 6.918-.568.791-1.612 1.192-2.945 1.155-.718-.025-1.465-.193-2.21-.464-1.115-3.211-2.732-6.121-4.736-8.602 1.492-1.186 4.491-.816 7.008.993zm-39.325-9.489c.295-.233.435-.611.361-.979-.079-.399-.119-.8-.119-1.194 0-3.024 2.225-5.666 5.409-6.424.293-.07.539-.268.669-.539 1.158-2.406 3.754-3.96 6.613-3.96 2.323 0 4.521 1.039 5.879 2.778.228.292.598.434.964.369.459-.082.925-.124 1.385-.124 3.334 0 6.22 2.074 7.017 5.044.057.213.184.402.359.536 1.662 1.267 2.615 3.128 2.615 5.107 0 1.622-.646 3.185-1.82 4.399-.301.312-.367.782-.164 1.164.483.91.729 1.887.729 2.903 0 3.659-3.242 6.635-7.228 6.635-1.11 0-2.175-.225-3.165-.668-.389-.175-.841-.084-1.133.223-1.375 1.442-3.358 2.27-5.439 2.27-2.012 0-3.883-.747-5.268-2.104-.191-.188-.444-.286-.7-.286-.153 0-.307.035-.45.107-.482.244-1.032.372-1.588.372-1.806 0-3.275-1.332-3.275-2.968 0-.218.029-.438.09-.673.117-.455-.099-.929-.517-1.141-2.311-1.17-3.747-3.398-3.747-5.816.001-1.932.92-3.767 2.523-5.031zm-9.777 17.563c-1.329.039-2.377-.364-2.945-1.155-1.245-1.731.075-4.899 2.882-6.918 1.548-1.113 3.284-1.686 4.738-1.686.409 0 .783.062 1.137.154.243.631.565 1.228.955 1.788-1.494 2.086-2.732 4.425-3.653 6.964-1.035.51-2.103.818-3.114.853zm-5.371 54.819c2.744 0 5.094 2.352 6.089 5.683-1.026-.532-2.15-.834-3.333-.834-4.296 0-7.856 3.868-8.494 8.899-.548-1.339-.868-2.881-.868-4.53 0-5.083 2.963-9.218 6.606-9.218zm2.756 23.869c-3.642 0-6.605-3.818-6.605-8.51 0-4.253 2.437-7.778 5.605-8.402v8.402c0 .552.448 1 1 1s1-.448 1-1v-8.406c1.468.29 2.778 1.201 3.762 2.523-.09 3.916.166 7.583.738 10.534-1.181 2.314-3.195 3.859-5.5 3.859zm52.539 0c-1.616 0-3.09-.762-4.238-2.009.963-3.541 1.359-8.591 1.109-13.984.652-.456 1.369-.773 2.13-.923v8.406c0 .552.448 1 1 1s1-.448 1-1v-8.402c3.168.624 5.605 4.149 5.605 8.402-.001 4.692-2.963 8.51-6.606 8.51zm0-19.02c-.626 0-1.23.103-1.818.26 1.199-2.128 3.142-3.529 5.348-3.529 3.642 0 6.605 3.781 6.605 8.428 0 2.046-.577 3.919-1.532 5.378 0-.009.001-.018.001-.028.001-5.794-3.859-10.509-8.604-10.509z"/></g></svg>