<svg id="Layer_1" enable-background="new 0 0 128 128" height="512" viewBox="0 0 128 128" width="512" xmlns="http://www.w3.org/2000/svg"><path d="m107.744 24.44c-10.363-8.745-24.475-9.249-33.061-5.222-2.582 1.211-5.057 3.246-7.28 5.533.07-.86.098-1.724.098-2.567 0-2.631-.854-5.967-1.57-8.303-.33-1.075-1.064-1.948-2.066-2.458-.997-.507-2.124-.585-3.177-.222-4.809 1.657-12.926 5.517-14.609 13.029-1.4.003-10.498.022-13.484.067-1.797-7.669-10.203-11.142-15.172-12.546-1.161-.33-2.399-.136-3.401.525-.994.657-1.651 1.713-1.803 2.896-.358 2.788-.54 5.067-.54 6.773 0 5.288.86 11.305 7.189 12.222-.835 1.54-1.498 3.114-2.071 4.521-3.519 8.639.626 16.184 6.095 21.804-2.797 4.168-5.657 8.768-7.803 14.18-.204.513.048 1.095.561 1.298.083.033.167.035.251.045-.228.602-.45 1.209-.66 1.825-.068-.041-.131-.09-.211-.114-.528-.162-1.088.135-1.25.663-.817 2.663-1.379 5.354-1.67 7.999-.059.538.323 1.018.855 1.094-.09.733-.153 1.47-.202 2.209-.008 0-.014-.005-.021-.005-.563-.049-1.016.409-1.038.961-.231 6.019 1.025 11.567 3.713 16.456-.08.613-.124 1.205-.134 1.801-.025 1.58.49 3.059 1.39 4.213-1.255 1.826-2.438 4.22-1.953 6.314.244 1.055.912 1.395 1.288 1.502.166.048.336.071.513.071 1.476 0 3.34-1.638 5.834-4.098 1.682.693 3.575.49 5.025-.535.845-.597 1.795-1.463 2.625-2.673.009-.013.026-.02.042-.017 0 0 9.112.926 12.149.926 2.676 0 9.575-.578 12.359-.82.178.131.341.281.527.402.598.389 1.222.674 1.856.859.301.32.619.668.91.987 2.724 2.977 4.691 4.985 6.294 4.985.142 0 .28-.016.416-.048.377-.089 1.053-.391 1.345-1.414.372-1.305.061-2.77-.513-4.148.905-.994 1.421-2.32 1.339-3.729-.082-1.399-.355-2.642-.7-3.715-.003-.009-.002-.019.002-.027.087-.183.159-.367.241-.55.184-.097.366-.186.551-.288 7.76-4.307 15.409-13.354 14.781-21.038-.991-12.111.771-22.085 4.597-26.03 3.893-4.014 9.446.279 9.68.464.25.197.579.265.887.179.307-.085.555-.31.668-.607.848-2.227.292-4.817-.307-6.568 1.848.682 4.516 2.054 5.593 4.521 2.686 6.154.987 15.263.97 15.354-.077.405.103.816.452 1.036.349.218.798.201 1.128-.046 9.709-7.243 14.769-15.464 15.037-24.435.322-10.718-6.566-20.431-12.565-25.491z" fill="#e6e7e8"/><path d="m103.1 21.205c-9.856-8.317-23.332-9.142-31.991-5.081-3.382 1.586-6.614 4.701-9.301 7.907-.583 1.905-1.601 3.377-3.273 4.273-.883 1.254-1.635 2.407-2.233 3.361.55 1.121 1.047 2.269 1.518 3.405 3.258 7.851-.342 14.775-5.289 20.024.369.475.727.96 1.064 1.46 6.174 9.163 16.22 27.955 8.437 44.389-.004.009-.005.018-.002.027.125.388.235.807.335 1.239 7.806-4.345 14.809-13.141 14.243-20.062-.943-11.52.475-22.27 4.876-26.808 4.583-4.725 11.018.376 11.018.376 1.261-3.313-1.104-7.764-1.104-7.764s6.288 1.199 8.241 5.673c2.845 6.52 1.035 15.942 1.035 15.942 25.86-19.291 11.422-40.77 2.426-48.361z" fill="#0089ef"/><path d="m103.1 21.205c-9.856-8.317-23.332-9.142-31.991-5.081-3.382 1.586-6.614 4.701-9.301 7.907-.583 1.905-1.601 3.377-3.273 4.273-.883 1.254-1.635 2.407-2.233 3.361.55 1.121 1.047 2.269 1.518 3.405 3.258 7.851-.342 14.775-5.289 20.024.369.475.727.96 1.064 1.46 2.468 3.662 5.551 8.864 7.87 14.837 4.846-2.54 8.145-6.288 9.23-16.751 2.553-24.615 25.078-14.186 25.078-14.186.965-2.284-.793-4.582-.793-4.582 9.495 2.599 9.839 14.137 9.839 14.137 1.59-.666 2.18-2.553 2.032-5.338 3.259 5.99 2.176 13.573.82 18.617 15.818-17.472 3.457-35.309-4.571-42.083z" fill="#d4fbff"/><path d="m15.74 106.958s-4.828 4.86-4.043 8.249c.785 3.39 7.495-5.065 8.987-5.795s-4.944-2.454-4.944-2.454z" fill="#fa759e"/><path d="m57.297 106.941s4.583 5.063 3.646 8.346c-.937 3.282-7.229-5.426-8.681-6.232s5.035-2.114 5.035-2.114z" fill="#fa759e"/><path d="m50.818 56.808c-5.084 4.769-10.869 7.838-12.154 8.49-2.032 1.031-4.441 1.021-6.432-.086-1.194-.664-7.044-3.851-12.069-8.799-.069.099-.143.194-.211.294-6.402 9.5-16.965 29.353-7.502 46.195.004.007.006.016.004.024-.094.627-.157 1.291-.169 1.995-.034 2.128 1.096 4.18 3.03 5.067 1.729.793 3.715.604 5.221-.46.845-.597 1.795-1.464 2.625-2.673.009-.013.026-.02.042-.017 0 0 9.112.926 12.149.926 3.388 0 13.554-.926 13.554-.926.015-.003.031.003.04.015.857 1.131 1.814 1.935 2.682 2.5.931.605 2.011.98 3.121.948 3.02-.087 5.303-2.607 5.137-5.463-.081-1.399-.355-2.642-.7-3.715-.003-.009-.002-.018.002-.027 7.756-16.375-2.191-35.09-8.37-44.288z" fill="#fff"/><path d="m62.031 100.969c-.003-.009-.002-.019.002-.027 7.783-16.434-2.262-35.227-8.437-44.389-.337-.501-.695-.985-1.064-1.46-5.412 5.743-12.436 9.478-13.868 10.206-2.032 1.031-4.441 1.021-6.432-.086-1.062-.59-5.808-3.178-10.38-7.223-6.422 9.959-15.568 28.72-6.557 44.758.004.007.006.016.004.024-.094.627-.157 1.291-.169 1.995-.035 2.128 1.096 4.18 3.03 5.067 1.729.793 3.715.605 5.221-.46.845-.597 1.795-1.463 2.625-2.673.009-.013.026-.02.042-.017 0 0 9.112.926 12.149.926 3.388 0 13.554-.926 13.554-.926.015-.003.031.003.04.015.857 1.131 1.814 1.935 2.682 2.5.931.606 2.011.98 3.121.948 3.02-.087 5.303-2.607 5.137-5.463-.082-1.399-.355-2.642-.7-3.715z" fill="#0089ef"/><path d="m46.723 85.407c-.291-.508-.602-.992-.925-1.458-1.396-.061-2.76-.683-3.733-1.79-.722-.822-1.146-1.851-1.257-2.923-1.687-.958-3.527-1.491-5.456-1.491-1.927 0-3.765.531-5.449 1.485-.11 1.074-.534 2.106-1.257 2.929-.976 1.111-2.345 1.734-3.746 1.792-.316.456-.621.929-.906 1.425-2.035 3.528-3.256 8.018-3.263 12.909v.052c0 3.433.599 6.667 1.653 9.513.266-.304.528-.628.778-.992.009-.013.026-.02.042-.017 0 0 9.112.926 12.149.926 3.067 0 11.685-.759 13.293-.903.708-2.19 1.162-4.578 1.283-7.099.026-.472.039-.95.039-1.428-.001-4.899-1.216-9.396-3.245-12.93z" fill="#d4fbff"/><path d="m62.501 18.185c0-2.501-.823-5.717-1.527-8.009-.514-1.674-2.307-2.599-3.962-2.029-4.581 1.579-12.951 5.473-14.109 13.104-.214-.012-.43-.02-.649-.021-.906-.003-13.984.032-14.478.087-1.26-7.737-9.741-11.221-14.626-12.602-1.833-.518-3.697.697-3.94 2.586-.262 2.039-.531 4.626-.531 6.646 0 6.493 1.379 11.303 7.863 11.342-1.162 1.832-2.03 3.844-2.818 5.778-6.696 16.44 16.019 28.76 18.508 30.144 1.992 1.107 4.4 1.117 6.432.086 2.742-1.392 25.979-13.789 19.157-30.229-.818-1.971-1.69-3.988-2.837-5.814 6.098-.457 7.517-4.853 7.517-11.069z" fill="#0089ef"/><path d="m35.721 34.126c-1.406 0-2.529 1.173-2.467 2.578l.77 17.5c.042.948.789 1.694 1.697 1.694s1.655-.746 1.697-1.694l.77-17.5c.062-1.405-1.061-2.578-2.467-2.578z" fill="#d4fbff"/><path d="m29.951 78.708c0 1.26-.465 2.494-1.305 3.45-1.596 1.816-4.238 2.345-6.358 1.195-.827-.446-1.564-.943-2.203-1.46.006-4.891 1.228-9.381 3.263-12.909 5.033 2.895 6.332 6.713 6.577 9.22.019.168.026.336.026.504z" fill="#0089ef"/><path d="m46.717 49.02c-1.008 0-1.825.557-1.825 1.245 0 .687.817 1.244 1.825 1.244s1.825-.557 1.825-1.244c0-.688-.817-1.245-1.825-1.245z" fill="#fa759e"/><path d="m24.647 49.02c-1.008 0-1.825.557-1.825 1.245 0 .687.817 1.244 1.825 1.244s1.825-.557 1.825-1.244c0-.688-.817-1.245-1.825-1.245z" fill="#fa759e"/><path d="m23.622 23.085s.948-6.322-9.009-8.218c0 0-2.966 7.27 5.471 10.589.001-.001.377-1.423 3.538-2.371z" fill="#d4fbff"/><path d="m46.741 23.085s-.948-6.322 9.009-8.218c0 0 2.966 7.27-5.471 10.589 0-.001-.377-1.423-3.538-2.371z" fill="#d4fbff"/><g fill="#3a2c60"><path d="m103.745 20.44c-10.363-8.745-24.476-9.248-33.061-5.222-2.582 1.211-5.058 3.247-7.281 5.535.07-.861.098-1.725.098-2.568 0-2.632-.854-5.967-1.571-8.302-.331-1.077-1.064-1.95-2.066-2.46-.994-.506-2.123-.585-3.178-.222-4.808 1.657-12.925 5.518-14.609 13.029-1.396.003-10.498.022-13.484.067-1.797-7.667-10.201-11.139-15.171-12.543-1.161-.329-2.398-.137-3.399.524-.995.657-1.653 1.712-1.805 2.897-.358 2.785-.539 5.064-.539 6.773 0 5.288.86 11.305 7.189 12.222-.835 1.54-1.498 3.115-2.071 4.522-3.518 8.637.627 16.182 6.096 21.802-2.796 4.166-5.657 8.764-7.804 14.182-.204.513.048 1.094.561 1.298.514.202 1.094-.049 1.298-.562 2.025-5.109 4.729-9.499 7.396-13.49 4.203 3.924 8.834 6.741 11.291 8.103l.111.062c1.165.647 2.459.972 3.763.972 1.229 0 2.467-.289 3.608-.869 1.214-.616 6.531-3.433 11.506-7.863 6.309 9.667 14.891 27.077 7.671 42.324-.117.233-.14.53-.06.779.366 1.14.586 2.306.653 3.468.064 1.104-.322 2.173-1.087 3.009-.793.866-1.887 1.361-3.079 1.396-.847.019-1.718-.247-2.547-.787-.932-.605-1.75-1.367-2.42-2.25-.209-.285-.582-.458-.939-.421v-.001c-.101.01-10.158.923-13.462.923-2.947 0-11.931-.909-11.964-.909-.388-.076-.826.108-1.05.434-.657.956-1.457 1.771-2.378 2.422-1.219.862-2.839 1.005-4.227.367-1.516-.695-2.477-2.32-2.447-4.142.01-.606.061-1.216.163-1.9.023-.208-.024-.442-.127-.625-2.62-4.663-3.836-9.94-3.617-15.687.021-.552-.409-1.017-.961-1.037-.54-.013-1.016.409-1.038.961-.23 6.004 1.019 11.538 3.713 16.457-.08.616-.124 1.207-.134 1.799-.026 1.581.49 3.061 1.391 4.215-1.255 1.826-2.44 4.217-1.955 6.313.244 1.055.912 1.395 1.288 1.502.166.048.336.071.513.071 1.593 0 3.627-1.896 6.431-4.686.683-.68 1.497-1.489 1.939-1.844.073-.047.151-.082.222-.132.043-.031.079-.07.122-.101.169-.099.299-.21.394-.327.743-.593 1.432-1.255 2.019-2.028 2.033.201 9.049.877 11.703.877 2.996 0 11.004-.695 13.132-.885.75.9 1.622 1.677 2.599 2.311.595.387 1.221.672 1.854.857.301.321.619.668.911.988 2.725 2.978 4.693 4.987 6.296 4.987.142 0 .28-.016.417-.048.376-.089 1.052-.391 1.344-1.414.572-2.003-.455-4.383-1.599-6.243-.568.36-1.213.615-1.912.739 1.036 1.613 1.966 3.58 1.593 4.936-.888-.278-2.957-2.456-4.203-3.807 1.341-.25 2.558-.911 3.491-1.929 1.134-1.238 1.706-2.828 1.61-4.478-.07-1.202-.282-2.407-.633-3.596 7.431-16.209-1.631-34.349-8.146-44.246 5.719-5.586 10.348-13.317 6.639-22.253-.401-.967-.839-1.956-1.305-2.942.511-.802 1.113-1.715 1.803-2.7 1.78-1.044 2.839-2.655 3.451-4.511 2.584-3.066 5.66-6.011 8.841-7.503 8.005-3.756 21.198-3.265 30.922 4.94 5.656 4.773 12.155 13.897 11.854 23.903-.231 7.725-4.367 14.91-12.301 21.384.357-3.33.597-9.335-1.453-14.033-2.139-4.9-8.693-6.202-8.971-6.255-.376-.071-.764.079-.992.389s-.259.724-.078 1.063c.495.934 1.51 3.453 1.333 5.638-2.842-1.692-7.561-3.045-11.082.585-4.28 4.414-6.207 14.726-5.155 27.586.492 5.997-5.552 14.457-13.511 18.981.19.623.35 1.301.466 2.03.087-.047.172-.088.259-.136 7.759-4.308 15.409-13.354 14.78-21.038-.991-12.11.771-22.084 4.597-26.03 3.891-4.01 9.446.279 9.681.464.25.197.579.264.887.179.307-.085.555-.31.668-.607.849-2.229.29-4.822-.309-6.572 1.847.678 4.513 2.047 5.594 4.526 2.686 6.153.987 15.262.97 15.353-.077.405.102.816.452 1.036.348.219.798.201 1.128-.046 9.709-7.243 14.769-15.464 15.037-24.434.32-10.721-6.57-20.434-12.567-25.496zm-91.075 94.542c-.298-1.288.511-3 1.501-4.49.232.149.473.288.727.405.673.308 1.383.486 2.098.547-1.318 1.3-3.444 3.329-4.325 3.544 0-.002 0-.004-.001-.006zm28.185-52.039c-.003-.042-.002-.079-.008-.123-.221-1.689-1.75-2.902-3.454-2.902h-3.718c-1.703 0-3.232 1.213-3.454 2.902-.003.02-.001.036-.004.056-7.125-4.399-20.722-14.777-15.567-27.43.718-1.764 1.581-3.797 2.737-5.621.194-.307.207-.695.033-1.015s-.508-.519-.872-.521c-4.943-.029-6.869-2.93-6.869-10.342 0-1.602.181-3.855.522-6.519.079-.615.407-1.142.923-1.482.35-.231.756-.351 1.168-.351.196 0 .393.027.585.081 4.482 1.267 12.008 4.341 13.698 10.864-1.619.537-5.025 1.877-7.222 4.231-.376.404-.354 1.037.049 1.414.193.18.438.269.682.269.268 0 .534-.106.731-.317 2.131-2.284 5.795-3.523 6.867-3.848.062.009.123.028.186.025.669-.048 12.675-.082 14.282-.083.591.131 4.404 1.066 7.44 3.949.193.184.441.274.688.274.265 0 .528-.104.725-.312.38-.4.364-1.033-.037-1.414-2.41-2.289-5.205-3.476-6.92-4.039 1.472-6.578 8.887-10.079 13.292-11.597.538-.185 1.112-.145 1.62.113.514.262.891.711 1.061 1.264.677 2.204 1.483 5.332 1.483 7.716 0 6.892-1.849 9.716-6.593 10.072-.35.026-.66.233-.818.547-.158.313-.141.686.046.982 1.112 1.77 1.973 3.77 2.76 5.666 5.433 13.091-9.514 23.635-16.042 27.491z"/><path d="m9.108 83.501c.503 0 .936-.379.993-.891.277-2.523.813-5.091 1.594-7.633.162-.527-.135-1.087-.663-1.249-.526-.162-1.087.135-1.25.663-.817 2.661-1.378 5.353-1.67 8-.06.549.336 1.043.885 1.104.037.004.074.006.111.006z"/><circle cx="27.968" cy="44.132" r="2.571"/><path d="m43.762 41.561c-1.42 0-2.571 1.151-2.571 2.571s1.151 2.571 2.571 2.571 2.571-1.151 2.571-2.571-1.151-2.571-2.571-2.571z"/><path d="m37.231 84.494c.198.516.616.869 1.176.993.199.044.406.063.621.063 1.196 0 2.573-.628 3.628-1.233.858.413 1.794.634 2.735.634.983 0 1.966-.233 2.859-.718.841-.453 1.634-.979 2.357-1.563.43-.348.497-.977.149-1.406-.346-.432-.977-.497-1.406-.15-.627.507-1.316.963-2.052 1.359-1.676.909-3.832.499-5.129-.977-.682-.775-1.057-1.767-1.057-2.79 0-.13.004-.259.021-.406.235-2.395 1.48-5.805 6.081-8.45.479-.275.644-.887.368-1.365-.274-.479-.886-.644-1.365-.369-5.338 3.07-6.793 7.127-7.072 9.972-.024.206-.033.413-.033.619 0 .163.031.321.044.483-1.043 1.514-2.454 3.924-1.925 5.304zm2.694-2.745c.212.377.452.74.743 1.07.056.064.118.119.176.18-.641.306-1.263.536-1.714.557.086-.4.385-1.068.795-1.807z"/><path d="m23.408 82.473c-.734-.395-1.423-.852-2.049-1.357-.429-.346-1.059-.28-1.406.15s-.28 1.059.149 1.406c.722.583 1.516 1.108 2.355 1.561.894.485 1.879.72 2.863.72.944 0 1.885-.223 2.745-.64 1.049.637 2.402 1.286 3.585 1.286.177 0 .351-.015.518-.047.564-.105.993-.444 1.207-.954.586-1.391-.816-3.92-1.817-5.458.01-.144.039-.286.039-.431 0-.206-.009-.413-.031-.602-.28-2.862-1.735-6.919-7.074-9.989-.479-.273-1.09-.109-1.365.368-.275.479-.111 1.091.368 1.366 4.601 2.646 5.846 6.056 6.083 8.468.015.13.019.259.019.389 0 1.023-.375 2.015-1.056 2.79-1.297 1.475-3.454 1.885-5.133.974zm8.098 1.125c-.439-.034-1.036-.273-1.651-.588.062-.065.128-.124.188-.191.284-.323.521-.676.73-1.044.385.749.661 1.423.733 1.823z"/></g></svg>