<svg id="Layer_1" enable-background="new 0 0 128 128" height="512" viewBox="0 0 128 128" width="512" xmlns="http://www.w3.org/2000/svg"><path d="m104.457 93.563c.453-5.699-.925-11.119-3.632-15.692-3.167-7.627-9.65-13.711-17.993-16.07-.533-.154-1.085.157-1.234.689-.012.044-.004.087-.01.131-.509-.132-1.024-.251-1.545-.354.009-.034.028-.063.033-.098.079-.546-.3-1.054-.847-1.132-.582-.085-1.171-.149-1.766-.197-.909-.072-1.812-.119-2.681-.141-.009 0-.017 0-.024 0-.542 0-.986.432-1 .976 0 .008.004.015.004.024-.519-.005-1.031 0-1.536.014 0-.004.002-.007.001-.01-.037-.552-.52-.944-1.063-.933-6.385.421-11.789 2.484-16.736 6.419.433-1.282.995-2.527 1.716-3.701 1.764-2.873 2.526-6.186 2.203-9.58-.499-5.275-3.685-9.793-8.166-12.174 2.731-2.506 7.492-7.104 10.14-10.978.302.042.609.071.922.071 3.721 0 6.748-3.027 6.748-6.748s-3.027-6.748-6.748-6.748-6.748 3.027-6.748 6.748c0 2.667 1.559 4.97 3.809 6.065-2.267 3.043-6.204 7.156-10.124 10.704-1.109-.399-2.271-.685-3.48-.819-1.867-.206-3.698-.069-5.445.355 1.265-3.103 3.108-7.973 3.877-11.737 2.521-.979 4.316-3.424 4.316-6.287 0-3.721-3.027-6.748-6.748-6.748s-6.748 3.027-6.748 6.748 3.027 6.747 6.748 6.747c.102 0 .2-.011.301-.015-.829 3.289-2.48 7.926-4.257 12.12-1.486.651-2.877 1.542-4.13 2.664-3.278 2.935-5.158 7.14-5.158 11.537 0 5.437 2.845 10.449 7.47 13.249v9.314c0 .954-.046 1.852-.142 2.742-.468 4.387-1.366 19.405 6.728 28.495 4.165 4.677 10.064 7.085 17.533 7.155 1.386.013 2.753.02 4.106.02 16.235 0 30.091-.897 39.123-1.686 1.151-.101 2.029-.973 2.136-2.121.106-1.149-.597-2.169-1.71-2.479-1.777-.495-3.777-1.088-5.927-1.779 4.296-3.551 7.208-8.765 7.684-14.76z" fill="#e6e7e8"/><path d="m51.291 58.965c1.577-2.567 2.374-5.663 2.061-8.963-.636-6.721-6.052-12.237-12.762-12.979-8.737-.967-16.133 5.848-16.133 14.39 0 5.494 2.768 10.11 7.276 12.564-.057.077.194.294.194.294v9.706c0 .954-.047 1.9-.148 2.849-.658 6.168-2.258 34.302 23.277 34.543 18.457.174 34.232-.885 43.133-1.662 1.498-.131 1.692-2.237.244-2.641-11.491-3.203-33.315-10.715-44.829-23.96-5.818-6.692-6.953-16.585-2.313-24.141z" fill="#ffd7e5"/><path d="m72.965 57.837c-10.668-.848-18.353 1.874-25.345 8.818-7.968 7.912-1.971 21.529 9.252 21.178l2.024-.063c-.113.917-.169 1.844-.092 2.784.677 8.196 7.208 14.93 15.672 15.603 11.757.935 22.045-7.838 22.98-19.594 1.17-14.696-9.795-27.557-24.491-28.726z" fill="#fff"/><path d="m75.965 60.837c-10.668-.848-18.353 1.874-25.345 8.818-7.968 7.912-1.971 21.529 9.252 21.178l2.024-.063c-.113.917-.169 1.844-.092 2.784.677 8.196 7.208 14.93 15.672 15.603 11.757.935 22.045-7.838 22.98-19.594 1.17-14.696-9.795-27.557-24.491-28.726z" fill="#6dc9f7"/><path d="m36.701 12.612c-3.174 0-5.748 2.573-5.748 5.748s2.573 5.748 5.748 5.748 5.748-2.573 5.748-5.748-2.573-5.748-5.748-5.748z" fill="#fa759e"/><path d="m57.244 14.331c-3.174 0-5.748 2.573-5.748 5.748s2.573 5.748 5.748 5.748 5.748-2.573 5.748-5.748-2.573-5.748-5.748-5.748z" fill="#fa759e"/><g fill="#3a2c60"><path d="m98.701 106.103c-1.775-.495-3.777-1.089-5.926-1.78-.632.522-1.293 1.009-1.982 1.457 2.702.897 5.199 1.644 7.37 2.249.188.053.274.177.256.369-.018.19-.125.296-.318.313-9.73.85-25.096 1.821-43.036 1.658-6.881-.065-12.284-2.247-16.059-6.485-7.547-8.475-6.679-22.771-6.233-26.952.104-.97.154-1.937.154-2.955v-9.707c0-.24-.11-.493-.272-.681-.021-.051-.059-.092-.088-.138 1.218-.068 2.428-.562 3.398-1.804.34-.436.263-1.063-.173-1.403-.434-.338-1.064-.263-1.403.173-1.886 2.418-5.345-.073-5.505-.188-.117-.087-.246-.141-.38-.17-1.95-2.335-3.047-5.349-3.047-8.646 0-3.829 1.637-7.49 4.492-10.047 2.894-2.591 6.634-3.783 10.531-3.349 6.285.695 11.28 5.775 11.877 12.08.28 2.959-.383 5.845-1.918 8.345-1.349 2.196-2.228 4.604-2.668 7.087-.145.14-.292.274-.436.417-3.956 3.929-5.035 9.567-2.817 14.717 2.186 5.077 6.891 8.178 12.351 8.178.151 0 .303-.003.455-.007.195-.006.365-.082.516-.184.119.103.237.206.358.307-.018.558-.015 1.118.032 1.681.732 8.864 7.708 15.811 16.589 16.518.6.048 1.196.071 1.788.071 11.529-.001 21.339-8.896 22.269-20.583 1.043-13.134-7.386-25.264-20.044-28.842-.531-.153-1.084.158-1.234.689-.15.532.159 1.085.69 1.234 11.743 3.321 19.562 14.575 18.592 26.76-.89 11.187-10.72 19.57-21.903 18.676-7.899-.629-14.104-6.806-14.755-14.688-.418-5.061 2.245-9.996 6.783-12.574 3.805-2.16 7.873-2.266 11.164-.29 3.072 1.844 4.92 5.209 4.824 8.781-.063 2.352-1.294 4.608-3.292 6.039-2.535 1.814-5.286 2.121-7.545.845-2.025-1.145-3.214-3.382-3.03-5.7.043-.551-.367-1.032-.918-1.076-.553-.03-1.032.368-1.076.918-.246 3.09 1.34 6.073 4.04 7.6 2.923 1.651 6.547 1.292 9.694-.959 2.504-1.793 4.047-4.639 4.127-7.611.116-4.293-2.104-8.336-5.793-10.551-3.927-2.357-8.731-2.262-13.181.267-4.35 2.471-7.19 6.837-7.735 11.604-.037-.522-.466-.931-.99-.931-.01 0-.021 0-.032.001-4.807.151-8.992-2.517-10.906-6.963-1.885-4.378-.97-9.17 2.39-12.506 5.502-5.464 11.224-8.116 18.552-8.6.551-.036.968-.513.932-1.063-.037-.552-.507-.974-1.064-.933-6.384.421-11.789 2.485-16.737 6.421.428-1.284.994-2.528 1.716-3.703 1.764-2.873 2.526-6.186 2.205-9.581-.5-5.275-3.687-9.793-8.167-12.174 2.729-2.504 7.489-7.1 10.139-10.978.303.042.61.071.925.071 3.721 0 6.748-3.026 6.748-6.747s-3.027-6.748-6.748-6.748-6.748 3.027-6.748 6.748c0 2.663 1.555 4.964 3.801 6.06-2.264 3.045-6.19 7.152-10.119 10.708-1.109-.399-2.27-.685-3.479-.818-1.867-.206-3.697-.069-5.444.355 1.264-3.102 3.103-7.972 3.869-11.734 2.525-.977 4.325-3.425 4.325-6.29 0-3.721-3.027-6.748-6.748-6.748s-6.748 3.027-6.748 6.748 3.027 6.748 6.748 6.748c.1 0 .197-.011.295-.015-.828 3.29-2.474 7.919-4.253 12.119-1.486.651-2.876 1.542-4.129 2.663-3.277 2.936-5.157 7.141-5.157 11.537 0 5.629 2.785 10.557 7.47 13.259v9.305c0 .947-.046 1.845-.142 2.743-.468 4.387-1.365 19.406 6.728 28.494 4.166 4.678 10.064 7.085 17.534 7.155 1.388.013 2.758.02 4.114.02 16.248 0 30.093-.897 39.114-1.686 1.151-.1 2.029-.972 2.136-2.12.104-1.15-.599-2.17-1.713-2.48zm-46.205-86.024c0-2.618 2.13-4.748 4.748-4.748s4.748 2.13 4.748 4.748c0 2.617-2.13 4.747-4.748 4.747s-4.748-2.13-4.748-4.747zm-20.542-1.719c0-2.618 2.13-4.748 4.748-4.748s4.748 2.13 4.748 4.748-2.13 4.748-4.748 4.748-4.748-2.13-4.748-4.748z"/><circle cx="36.701" cy="50.007" r="3.581"/><path d="m70.734 58.699c.82.02 1.686.065 2.573.136.551.043 1.097.104 1.637.182.048.008.097.011.145.011.489 0 .917-.359.988-.857.079-.546-.3-1.054-.847-1.132-.583-.085-1.171-.15-1.766-.197-.922-.073-1.825-.121-2.682-.142-.542-.008-1.01.424-1.023.976-.014.552.423 1.01.975 1.023z"/></g></svg>