<svg id="Layer_1" enable-background="new 0 0 128 128" height="512" viewBox="0 0 128 128" width="512" xmlns="http://www.w3.org/2000/svg"><path d="m90.823 58.525c.842-.07 1.63-.475 2.16-1.108l8.372-9.999c.445-.53.69-1.197.69-1.88v-7.668c0-1.654-1.402-3-3.125-3s-3.125 1.346-3.125 3v6.28c0 .212-.079.424-.223.596l-6.329 7.559c-.19.228-.48.373-.796.399l-10.097.861c.008-.247.014-.494.002-.746-.021-.435-.083-.86-.163-1.279l10.791-4.942c1.063-.486 1.751-1.557 1.751-2.728v-13.043c0-.553 0-3.947 0-4.5v-1.124c0-.95-.457-1.854-1.222-2.416l-4.287-3.155c-.445-.326-3.342-2.459-3.786-2.786l-3.904-2.872c-.645-.475-1.432-.671-2.229-.551-.792.12-1.49.542-1.965 1.188-.006.009-.012.017-.018.025-.463.641-.651 1.423-.532 2.205.12.792.542 1.49 1.188 1.965l10.349 7.616c.255.188.407.488.407.805v14.076c0 .391-.229.747-.583.909l-8.644 3.959c-.194-.446-.421-.873-.673-1.284 1.391-2.439 2.386-6.51-1.17-11.756-.253-.372-.722-.53-1.151-.385-.427.146-.703.559-.675 1.009.09 1.455.01 5.07-1.092 7.325-1.337-.695-2.837-1.115-4.426-1.163-1.919-.046-3.764.421-5.39 1.334-1.187-2.238-1.277-6.002-1.185-7.496.028-.45-.248-.863-.675-1.009-.429-.146-.897.014-1.151.385-3.727 5.497-2.455 9.705-.969 12.096-.171.305-.327.618-.465.938l-8.632-3.954c-.354-.162-.583-.519-.583-.909v-14.076c0-.316.152-.617.407-.805l10.35-7.616c.646-.475 1.067-1.173 1.188-1.965.119-.782-.069-1.563-.531-2.204-.006-.009-.013-.018-.019-.026-.475-.646-1.173-1.067-1.965-1.188-.795-.12-1.585.076-2.229.55l-11.979 8.815c-.765.563-1.222 1.466-1.222 2.415v18.668c0 1.171.688 2.241 1.751 2.728l12.864 5.892c.096.44.222.872.376 1.297l-12.709-1.083c-.314-.026-.604-.172-.795-.399l-6.328-7.559c-.144-.172-.223-.384-.223-.596v-6.28c0-1.654-1.402-3-3.125-3s-3.125 1.346-3.125 3v7.667c0 .682.244 1.349.688 1.879l8.373 10c.53.634 1.318 1.038 2.159 1.108l14.974 1.277c-.023.048-.047.096-.071.144l-14.903 1.27c-.843.072-1.63.476-2.159 1.108l-8.373 10c-.444.53-.688 1.198-.688 1.88v7.667c0 1.654 1.402 3 3.125 3s3.125-1.346 3.125-3v-6.28c0-.213.079-.425.223-.597l6.328-7.559c.19-.227.48-.372.796-.399l7.349-.625c-1.454 2.309-2.491 4.923-3.047 7.709l-8.365 2.25c-1.307.353-2.22 1.544-2.22 2.897v18.485c0 .441.101.886.29 1.285l8.473 17.858c.343.725.947 1.271 1.702 1.541.33.117.67.176 1.01.176.439 0 .876-.098 1.284-.291 1.494-.71 2.133-2.502 1.424-3.996l-8.086-17.044c-.063-.134-.097-.281-.097-.428v-14.519c0-.451.305-.849.74-.966l3.438-.925c.507 8.332 5.167 15.356 11.622 18.346 2.828 2.24 6.246 3.553 9.931 3.553 9.731 0 17.619-9.134 17.619-20.402 0-.318-.012-.633-.024-.948l1.396.375c.436.117.74.515.74.966v14.519c0 .147-.033.296-.096.428l-8.086 17.046c-.709 1.494-.07 3.287 1.424 3.996.408.193.845.291 1.283.291.34 0 .681-.059 1.01-.176.755-.27 1.359-.816 1.703-1.54l8.473-17.859c.189-.398.289-.843.289-1.285v-18.485c0-1.354-.912-2.545-2.22-2.897l-7.124-1.917c-.739-2.168-1.789-4.152-3.088-5.883-.359-.746-.759-1.467-1.196-2.16l7.344.625c.315.027.605.173.796.399l6.329 7.559c.144.172.223.384.223.597v6.28c0 1.654 1.402 3 3.125 3s3.125-1.346 3.125-3v-7.667c0-.683-.245-1.351-.689-1.88l-8.373-10c-.529-.633-1.316-1.036-2.159-1.108l-13.588-1.158c-.004-.124.004-.25.005-.374z" fill="#e6e7e8"/><path d="m56.628 38.618c-2.267-2.808-1.883-8.927-1.883-8.927-3.738 5.513-2.068 9.527-.618 11.532.658-1.022 1.508-1.907 2.501-2.605z" fill="#fa759e"/><path d="m70.804 49.47c.411-1.131.61-2.364.549-3.651-.228-4.806-4.256-8.759-9.066-8.903-5.302-.159-9.65 4.093-9.65 9.359 0 1.226.236 2.397.665 3.47 1.27 3.176.327 6.858-2.199 9.163-4.094 3.736-6.722 9.528-6.722 16.031 0 11.268 7.888 20.402 17.619 20.402s17.619-9.134 17.619-20.402c0-6.538-2.656-12.357-6.786-16.09-2.601-2.35-3.227-6.084-2.029-9.379z" fill="#fff"/><path d="m70.804 49.47c.411-1.131.61-2.364.549-3.651-.228-4.806-4.256-8.759-9.066-8.903-5.302-.159-9.65 4.093-9.65 9.359 0 1.226.236 2.397.665 3.47 1.27 3.176.327 6.858-2.199 9.163-4.094 3.736-6.722 9.528-6.722 16.031 0 11.268 7.888 20.402 17.619 20.402s17.619-9.134 17.619-20.402c0-6.538-2.656-12.357-6.786-16.09-2.601-2.35-3.227-6.084-2.029-9.379z" fill="#fff"/><path d="m67.08 38.45c1.003.66 1.881 1.501 2.574 2.481 1.391-2.089 2.743-5.983-.821-11.239 0-.001.369 5.881-1.753 8.758z" fill="#fa759e"/><g fill="#0089ef"><path d="m88.251 73.335-8.981-2.417c.225 1.301.349 2.644.349 4.021 0 .072-.009.141-.009.213l4.641 1.249c.873.235 1.48 1.027 1.48 1.931v14.519c0 .296-.066.589-.193.857l-8.086 17.045c-.473.998-.048 2.19.949 2.664.998.474 2.191.049 2.664-.949l8.472-17.859c.127-.268.193-.561.193-.857v-18.485c.002-.905-.605-1.697-1.479-1.932z"/><path d="m38.462 93.709c-.127-.268-.193-.561-.193-.857v-14.519c0-.904.607-1.696 1.48-1.931l4.641-1.249c-.001-.072-.009-.141-.009-.213 0-1.377.124-2.72.349-4.021l-8.981 2.417c-.873.235-1.48 1.027-1.48 1.931v18.486c0 .296.066.589.193.857l8.472 17.859c.473.998 1.666 1.423 2.664.949.998-.473 1.423-1.666.949-2.664z"/><path d="m84.917 19.592-11.978-8.815c-.89-.655-2.141-.464-2.796.426l-.001.001c-.654.89-.464 2.141.426 2.796l10.349 7.616c.512.377.815.975.815 1.611v14.076c0 .782-.456 1.492-1.167 1.818l-8.611 3.944c.897 1 1.583 2.186 1.989 3.489l10.622-4.865c.711-.326 1.167-1.036 1.167-1.818v-18.668c0-.636-.303-1.234-.815-1.611z"/><path d="m52.637 46.275c0-.958.147-1.88.415-2.75l-9.616-4.404c-.711-.326-1.167-1.036-1.167-1.818v-14.077c0-.636.302-1.234.815-1.611l10.349-7.615c.89-.655 1.08-1.906.426-2.796l-.001-.001c-.655-.89-1.906-1.08-2.796-.426l-11.978 8.815c-.512.377-.814.975-.814 1.611v18.668c0 .782.456 1.492 1.167 1.818l13.333 6.107c-.082-.496-.133-1.002-.133-1.521z"/><path d="m94.921 31.87c-1.174 0-2.125.895-2.125 2v6.281c0 .449-.161.885-.456 1.238l-6.329 7.558c-.361.432-.896.704-1.477.754l-14.12 1.203c-.269 1.349-.235 2.719.093 4.009l16.233-1.384c.582-.05 1.116-.322 1.477-.754l8.373-10c.295-.353.456-.789.456-1.238v-7.667c0-1.104-.952-2-2.125-2z"/><path d="m96.59 68.965-8.373-10c-.361-.432-.896-.704-1.477-.754l-15.464-1.318c.403.717.919 1.379 1.558 1.957.796.719 1.535 1.517 2.213 2.382l9.487.808c.582.05 1.116.322 1.477.754l6.329 7.559c.295.353.456.789.456 1.238v6.281c0 1.104.951 2 2.125 2 1.174 0 2.125-.895 2.125-2v-7.667c0-.451-.161-.887-.456-1.24z"/><path d="m53.661 50.911-14.195-1.21c-.582-.05-1.116-.322-1.478-.754l-6.328-7.559c-.295-.353-.456-.789-.456-1.238v-6.28c0-1.104-.951-2-2.125-2-1.174 0-2.125.895-2.125 2v7.667c0 .449.161.885.456 1.238l8.372 10c.361.432.896.704 1.477.754l16.28 1.388c.364-1.299.427-2.673.122-4.006z"/><path d="m51.103 58.908c.648-.591 1.187-1.274 1.616-2.015l-15.459 1.319c-.582.05-1.116.322-1.477.754l-8.372 10c-.295.353-.456.789-.456 1.238v7.667c0 1.104.951 2 2.125 2 1.174 0 2.125-.895 2.125-2v-6.281c0-.449.161-.885.456-1.238l6.328-7.558c.361-.432.896-.705 1.478-.754l9.486-.808c.659-.842 1.378-1.62 2.15-2.324z"/></g><path d="m70.804 49.47c.411-1.131.61-2.364.549-3.651-.228-4.806-4.256-8.759-9.066-8.903-5.302-.159-9.65 4.093-9.65 9.359 0 1.226.236 2.397.665 3.47 1.27 3.176.327 6.858-2.199 9.163-4.094 3.736-6.722 9.528-6.722 16.031 0 11.268 7.888 20.402 17.619 20.402s17.619-9.134 17.619-20.402c0-6.538-2.656-12.357-6.786-16.09-2.601-2.35-3.227-6.084-2.029-9.379z" fill="#fff"/><path d="m73.804 52.47c.411-1.131.61-2.364.549-3.651-.228-4.806-4.256-8.759-9.066-8.903-5.302-.159-9.65 4.093-9.65 9.359 0 1.226.236 2.397.665 3.47 1.27 3.176.327 6.858-2.199 9.163-4.094 3.736-6.722 9.528-6.722 16.031 0 11.268 7.888 20.402 17.619 20.402s17.619-9.134 17.619-20.402c0-6.538-2.656-12.357-6.786-16.09-2.601-2.35-3.227-6.084-2.029-9.379z" fill="#6dc9f7"/><path d="m88.511 72.37-7.124-1.917c.248.728.461 1.477.637 2.243l5.967 1.606c.436.117.74.514.74.965v18.486c0 .147-.033.295-.097.429l-8.472 17.858c-.235.497-.832.714-1.332.476-.498-.236-.711-.834-.475-1.332l8.084-17.044c.19-.398.291-.844.291-1.287v-14.52c0-1.354-.913-2.544-2.221-2.896l-2.097-.564c.091.696.153 1.403.181 2.12l1.396.376c.436.117.74.514.74.965v14.52c0 .147-.033.295-.097.429l-8.085 17.045c-.344.724-.385 1.538-.116 2.293.27.755.816 1.359 1.541 1.703.413.196.85.289 1.279.289 1.124 0 2.203-.634 2.716-1.714l8.471-17.857c.19-.398.291-.844.291-1.287v-18.489c.003-1.353-.91-2.544-2.218-2.896z" fill="#3a2c60"/><path d="m85.732 25.827c-.553 0-1 .447-1 1v13.044c0 .391-.229.747-.583.909l-10.554 4.834c.267.613.466 1.259.595 1.927l10.791-4.943c1.063-.486 1.751-1.557 1.751-2.728v-13.043c0-.553-.448-1-1-1z" fill="#3a2c60"/><path d="m84.324 20.397c.255.188.407.489.407.806v1.735c0 .553.447 1 1 1s1-.447 1-1v-1.735c0-.949-.457-1.853-1.222-2.416l-4.287-3.155c-.445-.326-1.07-.232-1.398.213-.327.444-.231 1.07.213 1.398z" fill="#3a2c60"/><path d="m94.921 30.871c-1.724 0-3.126 1.346-3.126 2.999v6.281c0 .216-.077.422-.223.597l-6.329 7.558c-.19.227-.479.372-.795.399l-10.097.861c-.021.698-.112 1.379-.278 2.031l10.545-.899c.843-.072 1.629-.476 2.158-1.108l6.329-7.558c.444-.53.689-1.198.689-1.88v-6.282c0-.551.505-.999 1.126-.999.62 0 1.125.448 1.125.999v7.668c0 .216-.077.422-.223.597l-8.374 10c-.188.226-.479.371-.795.398l-13.195 1.125c-.152.672-.214 1.351-.218 2.026l13.583-1.158c.845-.072 1.632-.477 2.159-1.108l8.374-10c.444-.532.688-1.199.688-1.879v-7.669c.002-1.654-1.4-2.999-3.123-2.999z" fill="#3a2c60"/><path d="m97.357 68.324-8.373-10c-.529-.633-1.315-1.036-2.159-1.108l-13.588-1.158c.023.694.137 1.374.32 2.034l13.098 1.116c.315.027.605.173.796.399l8.372 9.999c.146.176.224.382.224.598v7.667c0 .552-.505 1-1.126 1-.62 0-1.125-.448-1.125-1v-6.28c0-.682-.245-1.35-.689-1.88l-6.329-7.559c-.529-.633-1.315-1.036-2.158-1.108l-9.061-.772c-.014-.017-.029-.031-.042-.048-.273-.33-.556-.651-.848-.962-.039-.042-.077-.084-.116-.125-.338-.354-.684-.7-1.047-1.028-2.185-1.975-2.875-5.23-1.761-8.296.47-1.292.675-2.651.608-4.04-.047-.997-.239-1.958-.553-2.864.287.303.562.619.806.958l8.376-3.837c1.063-.486 1.751-1.557 1.751-2.728v-14.076c0-.949-.457-1.853-1.222-2.416l-10.35-7.616c-.215-.158-.355-.391-.396-.654-.04-.265.024-.528.183-.744.159-.215.392-.355.656-.396.262-.041.528.024.743.184l3.903 2.873c.446.326 1.071.232 1.398-.213.327-.444.231-1.07-.213-1.398l-3.903-2.872c-.645-.475-1.436-.671-2.229-.551-.792.121-1.49.543-1.965 1.188-.476.646-.671 1.437-.551 2.229s.542 1.49 1.188 1.965l10.35 7.615c.255.188.407.489.407.806v14.076c0 .391-.229.747-.583.909l-8.645 3.959c-.192-.44-.415-.863-.663-1.269 1.295-2.27 2.46-6.404-1.179-11.771-.254-.374-.727-.528-1.151-.385-.427.146-.703.559-.675 1.009.085 1.366.018 5.036-1.099 7.322-1.336-.694-2.833-1.112-4.419-1.16-1.917-.048-3.762.419-5.386 1.332-1.196-2.259-1.276-6.068-1.189-7.495.027-.449-.249-.862-.676-1.008-.425-.145-.896.013-1.15.385-3.781 5.578-2.419 9.809-.978 12.111-.168.3-.32.608-.456.923l-8.631-3.954c-.354-.162-.583-.519-.583-.908v-14.075c0-.316.152-.618.407-.806l10.35-7.616c1.332-.98 1.617-2.862.638-4.194-.476-.646-1.173-1.067-1.965-1.188-.791-.121-1.584.075-2.229.55l-11.98 8.815c-.765.563-1.222 1.466-1.222 2.415v18.669c0 1.17.688 2.24 1.751 2.727l12.863 5.891c.096.44.223.873.377 1.298l-12.708-1.083c-.315-.027-.606-.173-.797-.399l-6.328-7.56c-.145-.174-.222-.379-.222-.595v-6.281c0-1.653-1.402-2.999-3.126-2.999-1.723 0-3.125 1.346-3.125 2.999v7.668c0 .681.245 1.348.689 1.879l8.373 10.001c.53.632 1.316 1.035 2.158 1.107l14.975 1.276c-.023.048-.047.096-.071.144l-14.904 1.27c-.842.072-1.628.476-2.159 1.108l-8.373 10.001c-.444.532-.688 1.199-.688 1.879v7.667c0 1.654 1.402 3 3.126 3 1.723 0 3.125-1.346 3.125-3v-6.28c0-.216.077-.422.223-.597l6.326-7.558c.191-.228.482-.373.798-.4l7.348-.626c-1.454 2.308-2.491 4.923-3.047 7.71l-8.364 2.251c-1.308.353-2.221 1.543-2.221 2.896v18.486c0 .44.1.885.29 1.286l8.472 17.858c.513 1.08 1.592 1.714 2.716 1.714.43 0 .866-.093 1.28-.289 1.493-.709 2.133-2.501 1.425-3.996l-8.085-17.044c-.064-.135-.098-.283-.098-.43v-14.52c0-.451.305-.848.74-.965l3.438-.925c.676 11.1 8.727 19.9 18.553 19.9 10.267 0 18.619-9.601 18.619-21.402 0-4.579-1.247-8.93-3.516-12.53l7.345.626c.315.027.604.173.795.399l6.329 7.559c.146.175.223.381.223.597v6.28c0 1.654 1.402 3 3.126 3 1.723 0 3.125-1.346 3.125-3v-7.667c.002-.679-.242-1.346-.687-1.879.001.001.001 0 0 0zm-27.666-34.706c.711 2.252.424 4.104-.199 5.532-.333-.35-.687-.679-1.065-.98.716-1.367 1.082-3.045 1.264-4.552zm-15.804-.01c.191 1.596.589 3.385 1.392 4.793-.006.005-.011.012-.017.017-.161.138-.324.271-.478.419-.2.194-.384.4-.566.606-.729-1.484-1.096-3.436-.331-5.835zm-14.618 6.264v-18.669c0-.316.152-.617.407-.805l11.979-8.815c.178-.131.386-.193.591-.193.308 0 .611.141.808.406.326.445.23 1.073-.213 1.399l-10.35 7.616c-.765.563-1.222 1.466-1.222 2.416v14.076c0 1.17.688 2.24 1.751 2.727l8.852 4.055c-.06.281-.103.567-.14.854-.01.072-.025.144-.033.217-.021.199-.027.401-.037.603-.007.14-.024.279-.026.419l-11.784-5.398c-.355-.162-.583-.519-.583-.908zm-1.924 12.661c-.315-.027-.605-.173-.796-.399l-8.372-10c-.144-.172-.223-.384-.223-.596v-7.668c0-.551.505-.999 1.126-.999.62 0 1.125.448 1.125.999v6.281c0 .683.245 1.35.689 1.879l6.328 7.56c.53.632 1.317 1.035 2.159 1.107l13.412 1.143c.006.046.015.092.02.138.023.238.034.479.032.72 0 .078 0 .156-.003.234-.012.295-.037.592-.086.888-.001.009-.003.017-.004.026zm11.096 7.738-9.059.772c-.842.072-1.629.476-2.16 1.108l-6.327 7.559c-.444.53-.689 1.198-.689 1.88v6.28c0 .552-.505 1-1.126 1-.62 0-1.125-.448-1.125-1v-7.667c0-.216.077-.422.223-.597l8.371-9.999c.191-.228.481-.373.797-.4l13.163-1.121c-.026.024-.046.053-.072.077-.003.002-.005.005-.008.007-.019.018-.037.038-.056.055-.306.281-.601.574-.889.874-.078.081-.152.165-.229.247-.246.265-.486.537-.718.815-.032.039-.066.073-.096.11zm-8.953 15.165c-1.307.353-2.22 1.544-2.22 2.896v14.52c0 .44.1.885.289 1.285 0 0 .001 0 .001.001l8.086 17.044c.235.499.022 1.097-.475 1.333-.504.234-1.097.021-1.333-.476l-8.471-17.857c-.064-.135-.098-.283-.098-.43v-18.486c0-.451.305-.848.74-.965l7.519-2.023c-.069.644-.111 1.296-.129 1.952-.002.052-.009.105-.01.157zm22.512 18.906c-9.164 0-16.619-8.704-16.619-19.402 0-6.01 2.331-11.584 6.396-15.293 2.875-2.624 3.861-6.752 2.454-10.274-.395-.982-.594-2.024-.594-3.097 0-2.282.902-4.414 2.54-6.003 1.574-1.528 3.632-2.36 5.82-2.36.087 0 .174.001.26.004 4.263.127 7.895 3.693 8.097 7.951.054 1.122-.111 2.22-.489 3.261-1.395 3.833-.492 7.94 2.298 10.464 4.104 3.708 6.457 9.303 6.457 15.348-.001 10.697-7.456 19.401-16.62 19.401z" fill="#3a2c60"/><path d="m58.231 39.666c-1.394 0-2.524 1.13-2.524 2.524s1.13 2.524 2.524 2.524 2.524-1.13 2.524-2.524c0-1.393-1.13-2.524-2.524-2.524z" fill="#3a2c60"/><path d="m65.769 39.666c-1.394 0-2.524 1.13-2.524 2.524s1.13 2.524 2.524 2.524 2.524-1.13 2.524-2.524c0-1.393-1.13-2.524-2.524-2.524z" fill="#3a2c60"/></svg>