<svg id="Layer_1" enable-background="new 0 0 128 128" height="512" viewBox="0 0 128 128" width="512" xmlns="http://www.w3.org/2000/svg"><path d="m106.198 40.875c-8.444-7.126-19.271-7.102-25.753-4.062-4.529 2.124-8.637 7.478-10.996 11.033-.342-2.803-1.125-5.849-2.354-9.13-.627-1.673-1.348-3.241-2.148-4.679 6.068-1.255 6.893-6.923 6.893-11.854 0-2.635-.854-5.969-1.571-8.302-.33-1.076-1.063-1.949-2.065-2.458-.995-.506-2.122-.586-3.179-.222-4.808 1.657-12.925 5.516-14.607 13.029-1.397.002-10.497.021-13.485.067-1.798-7.669-10.202-11.141-15.171-12.545-1.163-.328-2.399-.136-3.4.525-.994.657-1.651 1.713-1.804 2.896-.246 1.91-.539 4.636-.539 6.774 0 5.288.86 11.304 7.188 12.223-.835 1.535-1.507 3.119-2.072 4.525-3.159 7.863-3.437 14.453-.824 19.587 1.178 2.315 2.844 4.14 4.715 5.603-2.047 3.261-4.018 6.805-5.597 10.789-.203.514.048 1.095.562 1.298.082.033.167.035.251.045-.228.602-.449 1.208-.66 1.824-.068-.041-.131-.09-.211-.115-.528-.16-1.087.135-1.249.663-.816 2.661-1.378 5.353-1.67 8-.059.538.323 1.018.855 1.094-.09.733-.153 1.469-.201 2.208-.008 0-.014-.005-.022-.005-.504-.021-1.016.409-1.037.961-.23 6.011 1.021 11.552 3.713 16.458-.081.618-.125 1.209-.134 1.797-.026 1.581.489 3.06 1.39 4.214-1.255 1.826-2.438 4.22-1.954 6.314.244 1.055.912 1.394 1.288 1.502.165.048.336.071.513.071 1.475 0 3.34-1.639 5.834-4.098 1.682.693 3.575.49 5.024-.535.845-.597 1.795-1.464 2.625-2.673.009-.013.026-.02.042-.017 0 0 9.112.926 12.149.926 2.676 0 9.575-.578 12.359-.821.178.131.341.281.527.402.594.386 1.222.673 1.856.858.3.32.618.667.909.986 2.725 2.978 4.692 4.987 6.295 4.987.142 0 .281-.016.417-.048.377-.088 1.052-.39 1.345-1.414.372-1.305.061-2.77-.513-4.148.905-.994 1.421-2.32 1.339-3.729-.081-1.399-.355-2.642-.7-3.715-.003-.009-.002-.018.002-.027.211-.447.404-.896.59-1.346 1.178-.361 2.393-.879 3.628-1.565 6.051-3.359 12.015-10.431 11.522-16.452-.76-9.28.574-16.908 3.482-19.906 2.858-2.947 6.988.241 7.162.377.25.198.578.265.887.181.307-.084.556-.311.669-.609.606-1.593.317-3.411-.09-4.769 1.34.552 3.023 1.545 3.745 3.2 2.043 4.681.747 11.643.733 11.712-.077.405.103.816.452 1.035s.797.201 1.128-.045c7.55-5.633 11.484-12.035 11.694-19.03.249-8.347-5.11-15.908-9.777-19.845zm-42.6 25.25c-.258-.461-.516-.911-.775-1.352.489-.35.962-.728 1.42-1.131-.192.837-.386 1.7-.582 2.584-.02-.034-.041-.067-.063-.101z" fill="#e6e7e8"/><path d="m101.554 37.639c-7.604-6.417-18.003-7.054-24.684-3.921-5.677 2.662-10.813 10.899-12.23 13.316-.012 3.718-.964 6.632-2.475 8.921-.641 2.672-1.365 5.819-2.078 9.203 5.074 9.925 9.284 23.596 3.439 35.938-.004.009-.005.018-.002.027.108.336.205.694.295 1.063 7.852-.485 17.884-10.325 17.294-17.527-.727-8.888.366-17.183 3.762-20.684 3.536-3.646 8.501.29 8.501.29.973-2.556-.852-5.99-.852-5.99s4.852.925 6.358 4.377c2.195 5.031.799 12.3.799 12.3 19.954-14.883 8.813-31.456 1.873-37.313z" fill="#6dc9f7"/><path d="m20.271 110.224c-.208-.066-.415-.143-.618-.236-.511-.234-.962-.554-1.355-.932-1.284 1.717-2.721 4.179-2.265 6.15.503 2.17 3.433-.514 5.869-2.918-.712-.535-1.264-1.253-1.631-2.064z" fill="#fa759e"/><path d="m62.224 113.146c-.691.02-1.365-.131-2.003-.384 2.161 2.288 4.515 4.432 5.06 2.524.261-.913.086-1.963-.289-3.004-.792.515-1.735.834-2.768.864z" fill="#fa759e"/><path d="m57.492 60.487c-5.768 3.72-13.13 4.12-14.49 4.811-2.032 1.032-4.441 1.021-6.432-.086-1.226-.682-8.448-1.687-14.125-5.643-6.324 10.251-14.253 28.033-5.657 43.333.004.007.006.016.004.024-.094.627-.157 1.291-.169 1.995-.034 2.128 1.096 4.18 3.03 5.067 1.729.793 3.715.604 5.221-.46.845-.597 1.795-1.463 2.625-2.673.009-.013.026-.02.042-.017 0 0 9.112.926 12.149.926 3.388 0 13.554-.926 13.554-.926.015-.003.031.003.04.015.857 1.131 1.814 1.935 2.682 2.5.931.606 2.011.98 3.121.948 3.02-.087 5.303-2.607 5.137-5.463-.081-1.398-.355-2.642-.7-3.715-.003-.009-.002-.019.002-.027 6.83-14.42-.069-30.656-6.034-40.609z" fill="#fff"/><path d="m66.661 103.969c-.003-.009-.002-.018.002-.027 7.703-16.266-2.056-34.835-8.243-44.098-5.875 4.318-13.984 4.726-15.418 5.454-2.032 1.032-4.441 1.021-6.432-.086-.975-.542-5.743-1.292-10.509-3.562-6.389 10.112-14.949 28.409-6.135 44.097.004.007.006.016.004.024-.094.627-.157 1.291-.169 1.995-.034 2.128 1.096 4.18 3.03 5.067 1.729.793 3.715.605 5.221-.46.845-.597 1.795-1.464 2.625-2.673.009-.013.026-.02.042-.017 0 0 9.112.926 12.149.926 3.388 0 13.554-.927 13.554-.927.015-.003.031.003.04.015.857 1.13 1.814 1.935 2.682 2.5.931.605 2.011.98 3.121.948 3.02-.087 5.303-2.607 5.137-5.463-.082-1.397-.356-2.641-.701-3.713z" fill="#6dc9f7"/><path d="m50.136 83.948c-1.396-.061-2.76-.683-3.733-1.79-.722-.822-1.146-1.851-1.257-2.923-1.687-.958-3.527-1.491-5.456-1.491-1.927 0-3.765.531-5.449 1.485-.11 1.074-.534 2.106-1.257 2.929-.977 1.111-2.345 1.734-3.746 1.792-.316.456-.621.929-.906 1.425-2.035 3.528-3.256 8.018-3.263 12.909v.052c0 3.433.599 6.667 1.653 9.513.266-.304.528-.628.778-.992.009-.013.026-.02.042-.017 0 0 9.112.926 12.149.926 3.067 0 11.685-.759 13.293-.903.708-2.19 1.162-4.578 1.283-7.099.026-.472.039-.95.039-1.428 0-4.897-1.215-9.394-3.243-12.928-.293-.509-.604-.993-.927-1.46z" fill="#d4fbff"/><path d="m66.5 18.185c0-2.501-.823-5.717-1.527-8.009-.514-1.674-2.307-2.599-3.962-2.029-4.581 1.579-12.951 5.473-14.109 13.105-.214-.012-.43-.02-.649-.021-.906-.003-13.984.032-14.478.087-1.261-7.738-9.742-11.222-14.627-12.603-1.833-.518-3.697.697-3.94 2.586-.262 2.039-.531 4.626-.531 6.646 0 6.493 1.379 11.303 7.863 11.342-1.162 1.832-1.996 3.859-2.818 5.778-11.175 26.073 16.019 28.762 18.508 30.145 1.992 1.107 4.4 1.117 6.432.086 2.742-1.392 29.886-1.587 19.157-30.229-.748-1.998-1.69-3.988-2.837-5.814 6.098-.458 7.518-4.855 7.518-11.07z" fill="#6dc9f7"/><path d="m51.154 57.551c0-5.354-5.133-11.017-11.464-11.017-6.332 0-11.464 5.663-11.464 11.017 0 2.215.888 4.25 2.366 5.882 2.938.952 5.321 1.414 5.978 1.779 1.992 1.107 4.4 1.117 6.432.086.636-.323 2.589-.585 5.071-1.148 1.906-1.732 3.081-4.046 3.081-6.599z" fill="#ffd7e5"/><path d="m34.904 79.448-.844.704c-.213.732-.566 1.423-1.078 2.006-.261.297-.558.546-.868.772 1.044.718 2.962 1.873 4.205 1.639 1.78-.334-1.415-5.121-1.415-5.121z" fill="#fa759e"/><path d="m46.403 82.158c-.517-.589-.872-1.288-1.084-2.028l-.779-.693s-3.346 4.682-1.579 5.073c1.27.281 3.297-.881 4.341-1.559-.322-.231-.63-.487-.899-.793z" fill="#fa759e"/><path d="m51.055 44.045c-1.008 0-1.825.557-1.825 1.245 0 .687.817 1.245 1.825 1.245s1.825-.557 1.825-1.245-.817-1.245-1.825-1.245z" fill="#ffd7e5"/><path d="m28.984 44.045c-1.008 0-1.825.557-1.825 1.245 0 .687.817 1.245 1.825 1.245s1.825-.557 1.825-1.245c.001-.688-.817-1.245-1.825-1.245z" fill="#ffd7e5"/><path d="m27.96 23.084s.948-6.322-9.009-8.218c0 0-2.966 7.27 5.471 10.589 0 0 .377-1.423 3.538-2.371z" fill="#d4fbff"/><path d="m51.079 23.084s-.948-6.322 9.009-8.218c0 0 2.966 7.27-5.471 10.589-.001 0-.377-1.423-3.538-2.371z" fill="#d4fbff"/><g fill="#3a2c60"><path d="m102.198 36.875c-8.444-7.127-19.271-7.102-25.753-4.062-4.53 2.125-8.639 7.48-10.997 11.036-.342-2.803-1.125-5.85-2.354-9.131-.626-1.672-1.346-3.24-2.147-4.679 6.068-1.255 6.892-6.923 6.892-11.854 0-2.632-.854-5.967-1.57-8.302-.33-1.076-1.064-1.95-2.066-2.459-.995-.506-2.124-.584-3.178-.221-4.808 1.656-12.925 5.515-14.609 13.028-1.398.002-10.496.022-13.484.068-1.797-7.669-10.203-11.142-15.171-12.546-1.162-.328-2.399-.136-3.4.525-.994.657-1.652 1.712-1.805 2.896-.245 1.914-.538 4.642-.538 6.773 0 5.288.86 11.304 7.188 12.223-.836 1.539-1.507 3.121-2.071 4.525-3.159 7.863-3.437 14.453-.824 19.587 1.179 2.318 2.849 4.145 4.723 5.609-2.048 3.26-4.023 6.792-5.605 10.783-.203.514.048 1.095.562 1.298.513.202 1.095-.048 1.298-.561 1.511-3.813 3.407-7.213 5.379-10.361 4.046 2.593 8.642 3.76 11.404 4.457.877.222 1.785.451 2.015.578 1.165.647 2.459.972 3.763.972 1.229 0 2.467-.289 3.608-.868.268-.136 1.264-.331 2.228-.52 2.762-.542 7.369-1.449 11.462-3.81 5.852 10.015 11.894 25.261 5.467 38.831-.1.225-.114.505-.039.739.366 1.139.586 2.305.653 3.467.064 1.104-.321 2.172-1.087 3.008-.794.867-1.889 1.363-3.08 1.397-.844.022-1.718-.248-2.547-.787-.936-.608-1.753-1.37-2.446-2.286-.213-.265-.574-.419-.913-.386v-.001c-.102.009-10.158.922-13.463.922-2.952 0-11.957-.912-12.047-.921h-.001c-.37-.027-.758.142-.966.445-.656.956-1.456 1.771-2.378 2.422-1.222.862-2.842 1.004-4.227.367-1.517-.695-2.478-2.321-2.448-4.142.01-.61.062-1.22.143-1.782.058-.244.017-.524-.105-.743-2.621-4.665-3.838-9.943-3.617-15.687.021-.552-.408-1.017-.961-1.038-.514-.026-1.017.408-1.037.96-.231 6.009 1.021 11.55 3.712 16.457-.08.613-.124 1.205-.134 1.799-.025 1.582.491 3.061 1.392 4.215-1.256 1.826-2.44 4.217-1.955 6.313.245 1.055.912 1.394 1.288 1.502.166.047.337.071.513.071 1.493 0 3.382-1.676 5.918-4.18-.631-.292-1.166-.715-1.613-1.217-1.325 1.301-3.31 3.172-4.156 3.378-.001-.002-.001-.003-.001-.005-.299-1.289.512-2.999 1.504-4.488.232.149.471.287.725.403.841.386 1.741.576 2.636.576 1.268 0 2.523-.381 3.579-1.128.959-.678 1.808-1.5 2.534-2.456 2.032.201 9.049.876 11.703.876 2.996 0 11.006-.695 13.133-.884.748.898 1.62 1.674 2.599 2.311.595.386 1.222.672 1.856.858.3.32.618.668.91.987 2.725 2.978 4.692 4.987 6.295 4.987.142 0 .281-.016.417-.048.377-.088 1.052-.39 1.345-1.414.353-1.239.09-2.622-.429-3.938-.485.476-1.064.861-1.714 1.125.283.818.402 1.601.225 2.246-.514-.161-1.422-.957-2.338-1.861-1.025-.024-2.019-.372-2.883-.934-.437-.284-.896-.63-1.354-1.046.459.097.917.16 1.365.149 1.738-.05 3.335-.776 4.498-2.044 1.134-1.238 1.705-2.827 1.608-4.476-.069-1.204-.281-2.41-.633-3.599 6.552-14.295.277-30.09-5.765-40.409.504-.36.991-.751 1.461-1.167-.197.864-.396 1.746-.597 2.661.493.795.996 1.639 1.501 2.522.657-3.089 1.321-5.976 1.917-8.462.162-.252.332-.497.481-.763 1.328-2.377 2.007-5.136 2.053-8.25 1.551-2.603 6.431-10.238 11.656-12.689 6.112-2.866 16.187-2.488 23.614 3.78 4.325 3.65 9.295 10.624 9.066 18.263-.173 5.751-3.192 11.118-8.981 15.977.239-2.669.299-6.968-1.194-10.389-1.698-3.891-6.868-4.918-7.087-4.96-.374-.069-.762.079-.991.388s-.26.722-.08 1.062c.344.652 1.023 2.33 1.019 3.86-2.281-1.249-5.818-2.092-8.502.676-3.348 3.451-4.858 11.474-4.042 21.462.219 2.667-1.24 6.027-4.004 9.217-2.413 2.787-5.392 4.968-8.273 6.183-.254.818-.54 1.634-.874 2.444 3.676-1.141 7.609-3.795 10.66-7.317 3.112-3.595 4.747-7.491 4.485-10.69-.759-9.281.576-16.909 3.483-19.906 2.855-2.946 6.988.241 7.162.378.25.198.578.265.887.181.307-.084.556-.311.669-.609.605-1.591.317-3.406-.088-4.764 1.341.556 3.025 1.549 3.743 3.195 2.043 4.681.747 11.642.733 11.712-.077.405.103.816.452 1.035.349.22.797.2 1.128-.045 7.55-5.632 11.484-12.035 11.694-19.029.244-8.352-5.115-15.913-9.782-19.851zm-56.9 26.832c-1.345.264-2.232.438-2.748.7-1.757.892-3.812.868-5.494-.068-.458-.254-1.226-.448-2.497-.77-4.201-1.061-12.944-3.269-16.467-10.193-2.339-4.597-2.037-10.631.897-17.935.706-1.757 1.583-3.799 2.735-5.615.194-.307.207-.696.033-1.015-.175-.319-.508-.519-.872-.521-4.942-.03-6.868-2.93-6.868-10.343 0-2.025.284-4.663.522-6.519.079-.615.406-1.142.923-1.482.35-.231.757-.35 1.169-.35.195 0 .392.026.584.081 4.482 1.267 12.007 4.339 13.697 10.863-1.619.537-5.026 1.878-7.222 4.232-.377.404-.354 1.037.05 1.414.192.18.438.269.682.269.268 0 .534-.107.731-.318 2.121-2.274 5.763-3.512 6.852-3.844.067.008.132.027.201.021.668-.047 12.673-.08 14.28-.083.589.13 4.405 1.065 7.441 3.949.193.184.441.275.688.275.265 0 .528-.104.726-.312.38-.4.363-1.033-.037-1.414-2.41-2.289-5.206-3.477-6.921-4.04 1.473-6.578 8.888-10.079 13.293-11.596.536-.186 1.111-.145 1.619.113.514.262.891.71 1.061 1.263.677 2.204 1.482 5.332 1.482 7.715 0 6.893-1.849 9.717-6.593 10.073-.35.026-.659.233-.817.546s-.141.686.046.983c1.048 1.667 1.972 3.562 2.747 5.632 3.017 8.053 3.225 14.502.619 19.168-3.686 6.601-12.049 8.24-16.542 9.121z"/><path d="m13.445 83.5c.504 0 .937-.379.993-.891.278-2.522.814-5.09 1.594-7.632.162-.528-.135-1.087-.663-1.25-.528-.16-1.087.135-1.249.663-.816 2.661-1.378 5.353-1.67 8-.061.549.336 1.043.885 1.104.037.004.074.006.11.006z"/><path d="m34.877 39.157c0-1.42-1.151-2.571-2.571-2.571s-2.571 1.151-2.571 2.571 1.151 2.571 2.571 2.571 2.571-1.151 2.571-2.571z"/><path d="m48.1 36.586c-1.42 0-2.571 1.151-2.571 2.571s1.151 2.571 2.571 2.571 2.571-1.151 2.571-2.571-1.151-2.571-2.571-2.571z"/><path d="m46.459 57.412c-.553 0-1 .448-1 1 0 1.309-1.064 2.373-2.373 2.373s-2.373-1.064-2.373-2.373v-3.418c.831-.161 1.625-.563 2.268-1.207l1.961-1.961c.234-.234.301-.537.243-.982-.221-1.689-1.75-2.902-3.454-2.902h-3.718c-1.703 0-3.232 1.213-3.454 2.902-.058.445.009.748.243.982l1.961 1.961c.56.56 1.237.918 1.95 1.113v3.512c0 1.309-1.064 2.373-2.373 2.373s-2.373-1.064-2.373-2.373c0-.552-.447-1-1-1s-1 .448-1 1c0 2.411 1.962 4.373 4.373 4.373 1.365 0 2.57-.642 3.373-1.624.803.983 2.008 1.624 3.373 1.624 2.411 0 4.373-1.962 4.373-4.373 0-.552-.447-1-1-1z"/><path d="m41.569 84.493c.197.517.615.869 1.176.993.198.044.406.064.621.064 1.196 0 2.573-.628 3.628-1.233.858.414 1.795.635 2.736.635.982 0 1.967-.234 2.859-.718.844-.455 1.637-.981 2.357-1.563.43-.347.496-.977.148-1.407-.347-.428-.976-.496-1.406-.149-.624.505-1.313.962-2.051 1.359-1.676.908-3.833.499-5.13-.976-.682-.776-1.057-1.768-1.057-2.791 0-.129.005-.259.021-.407.234-2.394 1.479-5.804 6.08-8.45.479-.275.645-.886.369-1.365s-.888-.645-1.365-.368c-5.34 3.07-6.795 7.127-7.072 9.971-.024.207-.033.413-.033.62 0 .163.031.321.044.482-1.044 1.513-2.455 3.923-1.925 5.303zm2.694-2.745c.212.377.453.74.743 1.07.056.064.119.119.177.18-.641.306-1.263.536-1.714.556.085-.398.383-1.066.794-1.806z"/><path d="m27.746 82.473c-.735-.396-1.425-.853-2.049-1.358-.431-.347-1.06-.279-1.406.149-.348.43-.281 1.06.148 1.407.721.582 1.514 1.108 2.355 1.562.894.485 1.879.719 2.862.719.944 0 1.885-.223 2.745-.639 1.049.637 2.402 1.286 3.586 1.286.177 0 .35-.015.517-.046.564-.106.993-.445 1.207-.955.585-1.391-.816-3.92-1.817-5.459.01-.144.039-.286.039-.431 0-.207-.009-.413-.031-.601-.279-2.862-1.734-6.919-7.074-9.989-.478-.277-1.09-.111-1.365.368s-.11 1.09.369 1.365c4.601 2.646 5.846 6.056 6.082 8.469.015.129.02.259.02.388 0 1.024-.375 2.015-1.056 2.79-1.296 1.475-3.453 1.886-5.132.975zm8.098 1.125c-.44-.034-1.036-.274-1.651-.589.062-.065.128-.124.188-.192.284-.323.521-.676.73-1.044.384.751.66 1.425.733 1.825z"/></g></svg>