<svg id="Layer_1" enable-background="new 0 0 128 128" height="512" viewBox="0 0 128 128" width="512" xmlns="http://www.w3.org/2000/svg"><path d="m123.525 52.298c-.049-.31-.117-.62-.217-.926-.708-2.181-2.557-3.739-4.826-4.068l-4.66-.677c.313-1.323.056-2.769-.857-3.911-1.576-1.972-4.463-2.295-6.435-.719-1.057.845-1.624 2.068-1.694 3.324l-4.537-.659c.306-1.319.049-2.756-.86-3.894-1.577-1.972-4.463-2.296-6.435-.719-1.053.841-1.619 2.057-1.694 3.306l-4.053-.589c-.682-.099-1.303-.389-1.827-.804l-1.322-2.68c.284-.097.562-.212.827-.365 1.058-.613 1.815-1.601 2.13-2.783.316-1.182.152-2.415-.461-3.473s-1.6-1.815-2.782-2.13c-1.18-.316-2.415-.153-3.473.461-.088.051-.161.12-.245.176l-2.026-4.105c1.197-.551 2.156-1.598 2.52-2.966.651-2.44-.804-4.954-3.243-5.604-1.123-.302-2.292-.154-3.315.389l-1.41-2.857c-.307-.623-.719-1.131-1.191-1.542l-1.045-2.118c-1.014-2.056-3.068-3.333-5.361-3.333s-4.347 1.277-5.361 3.333l-3.163 6.408c-.965-.443-2.037-.557-3.077-.28-2.439.651-3.894 3.165-3.243 5.604.341 1.278 1.194 2.286 2.28 2.862l-2.001 4.055c-.01-.006-.018-.015-.029-.021-1.058-.613-2.294-.775-3.473-.461-1.182.315-2.17 1.072-2.783 2.13-.612 1.058-.776 2.292-.46 3.473.315 1.182 1.072 2.17 2.13 2.783.187.108.38.2.576.28l-.722 1.463c-.562 1.136-1.646 1.924-2.901 2.107l-5.388.783c-.102-1.209-.671-2.377-1.692-3.193-1.971-1.574-4.858-1.254-6.435.72-.763.955-1.109 2.151-.973 3.366.016.143.06.277.088.417l-4.515.656c-.098-1.216-.666-2.391-1.692-3.211-1.971-1.574-4.858-1.254-6.435.72-.887 1.111-1.152 2.507-.88 3.8l-3.304.48c-2.269.329-4.118 1.888-4.826 4.068-.709 2.178-.129 4.526 1.512 6.126l2.994 2.918c-.98.84-1.615 2.072-1.615 3.46 0 2.524 2.054 4.578 4.578 4.578 1.536 0 2.891-.767 3.722-1.931.265.005.525-.091.732-.282l1.901 1.853c-.368.423-.354 1.061.055 1.457l.394.381c-.869.834-1.415 2-1.415 3.296 0 2.524 2.054 4.578 4.578 4.578 1.321 0 2.504-.571 3.341-1.47l3.332 3.186c.909.886 1.323 2.16 1.109 3.41l-.592 3.453c-.372-.098-.756-.167-1.158-.167-2.524 0-4.578 2.054-4.578 4.578 0 2.395 1.856 4.345 4.201 4.54l-.845 4.915c-.414-.123-.843-.21-1.296-.21-2.524 0-4.578 2.054-4.578 4.578 0 2.444 1.93 4.43 4.344 4.554l-.833 4.857c-.387 2.259.523 4.5 2.379 5.848.791.574 1.686.922 2.607 1.064 1.312 1.957 3.979 2.904 6.383 1.64l4.393-2.31c.723.477 1.585.759 2.515.759 2.491 0 4.515-2.003 4.567-4.482l4.04-2.124c.619.313 1.308.506 2.047.506 2.311 0 4.208-1.727 4.515-3.956l5.851-3.076c1.28-.673 2.781-.74 4.108-.21-.542.752-.869 1.667-.869 2.663 0 2.524 2.054 4.578 4.578 4.578 1.991 0 3.673-1.286 4.301-3.065l4.17 2.192c-.433.699-.695 1.515-.695 2.396 0 2.524 2.054 4.578 4.578 4.578 1.867 0 3.471-1.127 4.183-2.734l8.149 4.285c3.606 1.896 7.821-1.166 7.132-5.182l-1.484-8.653c1.551-.734 2.633-2.302 2.633-4.128 0-2.367-1.812-4.297-4.119-4.532l-.898-5.235c1.477-.76 2.5-2.283 2.5-4.056 0-2.316-1.734-4.215-3.968-4.516-.265-1.588.263-3.205 1.416-4.329l4.345-4.235c.284.056.574.09.871.09 2.524 0 4.578-2.054 4.578-4.578 0-.259-.023-.513-.065-.761l4.289-4.181c.374.099.759.168 1.162.168 2.524 0 4.578-2.054 4.578-4.578 0-.362-.057-.71-.139-1.05l2.974-2.899c2.369-2.309 1.754-6.007-.717-7.631z" fill="#e6e7e8"/><g fill="#6dc9f7"><path d="m8.658 56.369c-1.289.521-2.202 1.78-2.202 3.256 0 1.941 1.574 3.515 3.515 3.515 1.509 0 2.785-.955 3.283-2.29z"/><path d="m18.375 65.842c-1.154.576-1.955 1.756-1.955 3.134 0 1.941 1.574 3.515 3.515 3.515 1.409 0 2.616-.835 3.177-2.032z"/><path d="m49.697 22.102 2.994-6.065c-.853-.756-2.055-1.086-3.239-.771-1.876.5-2.99 2.427-2.49 4.302.359 1.345 1.454 2.287 2.735 2.534z"/><path d="m43.729 34.195 2.841-5.756c-.851-1.005-2.227-1.497-3.584-1.135-1.876.5-2.99 2.427-2.49 4.302.404 1.517 1.744 2.52 3.233 2.589z"/><path d="m73.353 21.855c.932-.418 1.681-1.223 1.965-2.287.5-1.876-.614-3.802-2.49-4.302-.902-.241-1.812-.1-2.573.311z"/><path d="m79.377 34.061c1.136-.336 2.079-1.226 2.407-2.455.5-1.876-.614-3.802-2.49-4.302-1.067-.285-2.142-.033-2.97.571z"/><path d="m32.016 40.536c.325-1.294-.097-2.716-1.207-3.603-1.517-1.212-3.728-.964-4.94.552-.939 1.175-.992 2.762-.268 3.983z"/><path d="m18.487 42.502c.333-1.299-.089-2.73-1.204-3.621-1.517-1.212-3.728-.964-4.94.552-.943 1.18-.992 2.776-.257 3.999z"/><path d="m94.552 41.265c.793-1.234.769-2.878-.197-4.087-1.212-1.517-3.423-1.764-4.94-.552-1.144.914-1.563 2.397-1.181 3.721z"/><path d="m108.067 43.228c.804-1.235.784-2.888-.187-4.103-1.212-1.517-3.423-1.764-4.94-.552-1.149.918-1.566 2.41-1.174 3.74z"/><path d="m25.967 90.061c.313 0 .61-.054.899-.131l1.079-6.289c-.564-.385-1.244-.61-1.978-.61-1.941 0-3.515 1.574-3.515 3.515s1.574 3.515 3.515 3.515z"/><path d="m24.503 103.705 1.052-6.136c-.588-.443-1.312-.716-2.105-.716-1.941 0-3.515 1.574-3.515 3.515s1.574 3.515 3.515 3.515c.37 0 .719-.073 1.053-.178z"/><path d="m67.888 102.994c-1.127.585-1.905 1.75-1.905 3.108 0 1.941 1.574 3.515 3.515 3.515s3.515-1.574 3.515-3.515c0-.15-.026-.292-.044-.437z"/><path d="m79.876 109.296c-.929.633-1.539 1.698-1.539 2.906 0 1.941 1.574 3.515 3.515 3.515s3.515-1.574 3.515-3.515c0-.007-.002-.013-.002-.02z"/></g><path d="m65.186 8.581 13.964 28.294c.716 1.451 2.1 2.456 3.701 2.689l31.225 4.537c4.032.586 5.642 5.54 2.724 8.384l-22.594 22.025c-1.158 1.129-1.687 2.756-1.414 4.351l5.334 31.099c.689 4.015-3.526 7.078-7.132 5.182l-27.928-14.683c-1.432-.753-3.143-.753-4.575 0l-27.928 14.683c-3.606 1.896-7.821-1.166-7.132-5.182l5.334-31.099c.273-1.595-.255-3.222-1.414-4.351l-22.595-22.024c-2.917-2.844-1.308-7.798 2.724-8.384l31.225-4.537c1.601-.233 2.985-1.238 3.701-2.689l13.964-28.295c1.803-3.654 7.013-3.654 8.816 0z" fill="#fff"/><path d="m68.376 11.771 13.964 28.294c.716 1.451 2.1 2.456 3.701 2.689l31.225 4.537c4.032.586 5.642 5.54 2.724 8.384l-22.594 22.025c-1.158 1.129-1.687 2.756-1.414 4.351l5.334 31.099c.689 4.015-3.526 7.078-7.132 5.182l-27.928-14.683c-1.432-.753-3.143-.753-4.575 0l-27.928 14.683c-3.606 1.896-7.821-1.166-7.132-5.182l5.334-31.099c.273-1.595-.255-3.222-1.414-4.351l-22.595-22.024c-2.917-2.844-1.308-7.798 2.724-8.384l31.225-4.537c1.601-.233 2.985-1.238 3.701-2.689l13.964-28.295c1.803-3.654 7.013-3.654 8.816 0z" fill="#fa759e"/><path d="m113.035 56.157-3.936 3.837c.186 1.766 1.663 3.147 3.478 3.147 1.941 0 3.515-1.574 3.515-3.515-.001-1.785-1.335-3.243-3.057-3.469z" fill="#6dc9f7"/><path d="m103.392 65.555-4.225 4.119c.324 1.607 1.742 2.817 3.445 2.817 1.941 0 3.515-1.574 3.515-3.515-.001-1.672-1.171-3.065-2.735-3.421z" fill="#6dc9f7"/><path d="m42.168 109.04-4.968 2.612c-.029.18-.055.362-.055.55 0 1.941 1.574 3.515 3.515 3.515s3.515-1.574 3.515-3.515c-.001-1.399-.824-2.596-2.007-3.162z" fill="#6dc9f7"/><path d="m53.288 103.194-5.486 2.884c0 .008-.002.016-.002.024 0 1.941 1.574 3.515 3.515 3.515s3.515-1.574 3.515-3.515c0-1.21-.612-2.276-1.542-2.908z" fill="#6dc9f7"/><path d="m95.37 83.031c-.652 0-1.254.189-1.778.498l1.109 6.464c.217.042.44.067.669.067 1.941 0 3.515-1.574 3.515-3.515s-1.573-3.514-3.515-3.514z" fill="#6dc9f7"/><path d="m97.887 96.853c-.706 0-1.36.213-1.911.571l1.089 6.352c.265.064.537.106.821.106 1.941 0 3.515-1.574 3.515-3.515s-1.573-3.514-3.514-3.514z" fill="#6dc9f7"/><path d="m71.918 16.146c.218 0 .437.029.652.086.649.174 1.192.589 1.528 1.17.337.582.427 1.26.254 1.908-.174.649-.59 1.192-1.171 1.529-.087.05-.179.083-.269.122l.888 1.799c.129-.06.259-.118.384-.19 1.044-.604 1.79-1.578 2.101-2.744.312-1.165.149-2.382-.454-3.425-.604-1.044-1.579-1.79-2.744-2.101-1.111-.298-2.263-.15-3.272.384l.882 1.787c.378-.212.796-.325 1.221-.325z" fill="#3a2c60"/><path d="m76.771 28.782c.608-.51 1.444-.731 2.265-.512 1.34.358 2.139 1.739 1.781 3.079-.174.649-.589 1.192-1.17 1.528-.228.132-.473.214-.722.269l.901 1.825c.282-.096.559-.211.823-.363 1.044-.604 1.79-1.579 2.101-2.744.643-2.404-.792-4.884-3.197-5.526-1.311-.35-2.63-.069-3.674.634z" fill="#3a2c60"/><path d="m69.498 108.617c-1.387 0-2.515-1.128-2.515-2.515 0-.664.264-1.262.687-1.71l-1.415-.744c-.132-.069-.268-.125-.404-.182-.542.741-.868 1.648-.868 2.635 0 2.489 2.025 4.515 4.515 4.515 1.968 0 3.621-1.276 4.235-3.037l-1.782-.937c-.249 1.127-1.253 1.975-2.453 1.975z" fill="#3a2c60"/><path d="m81.851 114.717c-1.387 0-2.515-1.128-2.515-2.515 0-.535.169-1.031.456-1.437l-1.767-.929c-.433.687-.689 1.494-.689 2.366 0 2.489 2.025 4.515 4.515 4.515 1.845 0 3.406-1.124 4.1-2.714l-1.752-.921c-.358.952-1.272 1.635-2.348 1.635z" fill="#3a2c60"/><path d="m118.996 47.139c-.701-2.157-2.53-3.7-4.775-4.026l-4.726-.687c.052-.199.104-.397.128-.605.134-1.198-.207-2.377-.96-3.319-.752-.942-1.827-1.535-3.025-1.669-1.2-.131-2.378.207-3.319.96-.942.753-1.535 1.827-1.669 3.025-.012.108-.004.214-.007.322l-4.669-.678c.05-.193.101-.386.124-.589.134-1.198-.207-2.377-.96-3.319s-1.827-1.535-3.025-1.669c-1.201-.131-2.378.207-3.319.96-.942.753-1.535 1.827-1.669 3.026-.011.102-.004.202-.007.304l-4.12-.599c-1.276-.187-2.379-.987-2.949-2.143l-13.966-28.295c-1.003-2.034-3.037-3.298-5.304-3.298-2.269 0-4.302 1.264-5.305 3.298l-3.189 6.461c-.932-.449-2.017-.586-3.092-.299-1.165.311-2.14 1.057-2.743 2.101-.604 1.044-.766 2.26-.454 3.425.311 1.165 1.056 2.14 2.1 2.744.067.039.137.066.206.101l-2.063 4.181c-.029-.018-.055-.041-.084-.058-1.045-.604-2.264-.767-3.426-.455-2.405.642-3.84 3.121-3.198 5.526.386 1.446 1.441 2.526 2.739 3.029l-.76 1.54c-.57 1.155-1.672 1.956-2.947 2.143l-5.454.792c-.004-.063.002-.126-.005-.19-.134-1.198-.727-2.273-1.669-3.026-1.943-1.553-4.791-1.234-6.346.71-.886 1.11-1.143 2.508-.852 3.796l-4.653.676c-.004-.069.002-.137-.006-.207-.134-1.199-.727-2.273-1.669-3.026-.941-.752-2.123-1.09-3.319-.96-1.199.134-2.273.727-3.026 1.669s-1.094 2.121-.96 3.319c.019.17.064.332.103.495l-3.369.49c-2.245.326-4.074 1.869-4.775 4.026-.701 2.156-.127 4.479 1.497 6.063l3.049 2.972c-1.001.824-1.651 2.056-1.651 3.452 0 2.489 2.025 4.515 4.516 4.515 1.527 0 2.865-.772 3.68-1.938.28.017.565-.071.775-.289.386-.396.378-1.028-.018-1.414l-8.956-8.732c-1.092-1.063-1.462-2.564-.991-4.014s1.652-2.445 3.16-2.665l31.227-4.537c1.927-.28 3.592-1.49 4.452-3.236l13.964-28.295c.675-1.366 1.987-2.183 3.512-2.183 1.523 0 2.836.816 3.511 2.183l13.964 28.295c.86 1.745 2.525 2.955 4.454 3.236l31.226 4.537c1.508.22 2.689 1.216 3.16 2.665s.101 2.95-.991 4.014l-22.596 22.024c-1.394 1.358-2.029 3.315-1.7 5.235l5.334 31.099c.257 1.502-.325 2.935-1.559 3.83-1.232.895-2.776 1.007-4.123.298l-27.928-14.682c-1.723-.906-3.782-.906-5.505 0l-27.93 14.683c-1.347.708-2.89.598-4.122-.298-1.233-.896-1.816-2.327-1.559-3.83l5.335-31.099c.329-1.92-.307-3.877-1.708-5.242l-4.398-4.208c-.401-.383-1.033-.367-1.414.031-.217.227-.292.528-.255.818-.453.642-1.195 1.063-2.039 1.063-1.387 0-2.515-1.128-2.515-2.515 0-.763.349-1.438.889-1.897l.941.91c.194.188.444.281.695.281.262 0 .522-.102.719-.305.384-.396.373-1.03-.023-1.414l-2.828-2.736c-.396-.384-1.029-.375-1.414.023-.384.396-.373 1.03.023 1.414l.452.437c-.888.821-1.454 1.982-1.454 3.285 0 2.489 2.025 4.515 4.515 4.515 1.328 0 2.507-.588 3.329-1.506l3.388 3.241c.923.898 1.344 2.194 1.126 3.465l-.604 3.519c-.384-.113-.787-.18-1.209-.18-2.489 0-4.515 2.025-4.515 4.515 0 2.386 1.865 4.325 4.211 4.485l-.865 5.046c-.425-.139-.874-.223-1.346-.223-2.49 0-4.516 2.025-4.516 4.516 0 2.434 1.94 4.411 4.354 4.498l-.844 4.924c-.384 2.236.519 4.453 2.354 5.786 1.037.753 2.25 1.136 3.471 1.136.94 0 1.885-.227 2.758-.687l5.257-2.764c.48 1.977 2.253 3.455 4.376 3.455 2.489 0 4.515-2.025 4.515-4.515 0-1.14-.422-2.197-1.156-3.006l3.069-1.613c.613 1.759 2.261 3.034 4.228 3.034 2.489 0 4.515-2.025 4.515-4.516 0-.969-.317-1.893-.874-2.655l4.001-2.103c1.141-.6 2.503-.6 3.644 0l27.928 14.683c2.01 1.057 4.395.885 6.23-.449 1.835-1.333 2.737-3.551 2.354-5.786l-.848-4.945c2.311-.195 4.138-2.116 4.138-4.478 0-2.489-2.025-4.515-4.515-4.515-.388 0-.769.056-1.139.157l-.858-5.002c2.242-.261 3.995-2.151 3.995-4.463 0-2.489-2.025-4.515-4.515-4.515-.336 0-.671.042-.999.122l-.594-3.461c-.218-1.271.203-2.566 1.126-3.466l3.927-3.828c.809 1.264 2.211 2.094 3.781 2.094 2.489 0 4.515-2.025 4.515-4.515 0-1.543-.778-2.905-1.996-3.719l3.535-3.446c.769 1.394 2.229 2.328 3.911 2.328 2.489 0 4.515-2.025 4.515-4.515 0-1.626-.893-3.064-2.23-3.853l2.638-2.571c1.621-1.581 2.195-3.904 1.494-6.06zm-109.025 15.001c-1.387 0-2.516-1.128-2.516-2.515 0-.853.432-1.601 1.083-2.055l3.52 3.432c-.447.682-1.211 1.138-2.087 1.138zm16.679-24.03c.496-.621 1.229-.944 1.968-.944.551 0 1.104.18 1.567.549.524.419.854 1.018.93 1.686.01.088-.007.172-.007.259l-4.898.71c-.217-.756-.087-1.6.44-2.26zm-14.061 3.797c-.074-.668.116-1.324.535-1.85.419-.524 1.018-.854 1.686-.93.095-.01.19-.016.284-.016.568 0 1.115.191 1.565.551.524.419.854 1.018.93 1.686.01.094-.008.184-.008.276l-4.901.712c-.041-.139-.074-.282-.091-.429zm36.509-21.068c-.581-.337-.996-.88-1.17-1.529-.173-.649-.083-1.326.253-1.908.337-.581.88-.996 1.528-1.17.216-.058.434-.085.647-.085.368 0 .724.085 1.048.236l-2.218 4.495c-.028-.016-.06-.022-.088-.039zm-7.637 10.51c-.356-1.34.442-2.721 1.782-3.079.216-.058.434-.085.647-.085.532 0 1.028.188 1.447.49l-2.178 4.413c-.801-.243-1.465-.872-1.698-1.739zm61.174 9.691c.075-.668.405-1.267.93-1.686.45-.359.997-.551 1.565-.551.094 0 .188.006.284.016.667.075 1.266.405 1.685.93s.609 1.182.535 1.85c-.021.187-.07.365-.131.538l-4.853-.705c-.006-.131-.029-.259-.015-.392zm-12.595-3.633c.45-.359.997-.551 1.565-.551.094 0 .188.006.283.016.668.075 1.267.405 1.686.93s.609 1.182.535 1.85c-.02.181-.067.354-.125.521l-4.878-.709c-.027-.769.288-1.541.934-2.057zm-64.074 51.654c-1.387 0-2.515-1.129-2.515-2.516s1.128-2.515 2.515-2.515c.307 0 .597.063.869.165l-.834 4.861c-.012.001-.023.005-.035.005zm-2.515 13.822c-1.387 0-2.516-1.128-2.516-2.515s1.129-2.516 2.516-2.516c.359 0 .696.083 1.004.221l-.82 4.783c-.063.006-.121.027-.184.027zm17.209 11.834c-1.359 0-2.47-1.084-2.514-2.434l3.996-2.101c.646.469 1.032 1.208 1.032 2.02 0 1.387-1.128 2.515-2.514 2.515zm10.655-6.1c-1.198 0-2.203-.842-2.454-1.966l4.298-2.259c.427.46.671 1.068.671 1.709 0 1.387-1.128 2.516-2.515 2.516zm46.572-10.764c1.387 0 2.515 1.128 2.515 2.515 0 1.374-1.106 2.494-2.475 2.516l-.84-4.896c.257-.089.528-.135.8-.135zm-2.516-13.822c1.387 0 2.515 1.128 2.515 2.515 0 1.325-1.029 2.414-2.33 2.509l-.093-.545-.752-4.385c.215-.063.436-.094.66-.094zm17.206-21.891c-1.127 0-2.09-.75-2.396-1.805l3.168-3.088c1.02.328 1.743 1.282 1.743 2.378-.001 1.387-1.129 2.515-2.515 2.515zm-7.451 6.837c0 1.387-1.128 2.515-2.515 2.515-1.019 0-1.923-.618-2.312-1.525l2.311-2.253 1.046-1.02c.887.4 1.47 1.279 1.47 2.283z" fill="#3a2c60"/><path d="m65.562 75.491c0 1.043-.849 1.892-1.892 1.892-1.044 0-1.893-.849-1.893-1.892 0-.553-.447-1-1-1s-1 .447-1 1c0 1.043-.849 1.892-1.892 1.892s-1.892-.849-1.892-1.892c0-.553-.447-1-1-1s-1 .447-1 1c0 2.146 1.746 3.892 3.892 3.892 1.152 0 2.178-.514 2.892-1.312.713.799 1.74 1.312 2.893 1.312 2.146 0 3.892-1.746 3.892-3.892 0-.553-.447-1-1-1s-1 .447-1 1z" fill="#3a2c60"/><circle cx="51.451" cy="63.605" fill="#3a2c60" r="2.826"/><circle cx="68.808" cy="63.605" fill="#3a2c60" r="2.826"/><path d="m72.055 68.976c-1.108 0-2.006.612-2.006 1.368s.898 1.368 2.006 1.368 2.006-.612 2.006-1.368-.898-1.368-2.006-1.368z" fill="#ffd7e5"/><path d="m47.8 68.976c-1.108 0-2.006.612-2.006 1.368s.898 1.368 2.006 1.368 2.006-.612 2.006-1.368-.898-1.368-2.006-1.368z" fill="#ffd7e5"/></svg>