<svg id="Layer_1" enable-background="new 0 0 128 128" height="512" viewBox="0 0 128 128" width="512" xmlns="http://www.w3.org/2000/svg"><path d="m109.636 37.568c-.637-1.67-1.641-3.207-3.027-4.484-.151-.139-.306-.274-.464-.407l-19.78-16.537c-12.227-10.223-30.024-10.282-42.319-.141 0 0-14.797 12.209-15.223 12.559l-4.922 4.062c-.163.134-.321.27-.473.409-3.348 3.045-4.602 7.493-3.356 11.9 1.056 3.733 3.743 6.653 7.24 8.022 1.432 1.294 3.239 2.248 5.365 2.65 3.7.7 10.035 2.67 13.749 4.278 2.398 2.158 5.939 6.511 10.009 12.342 1.323 1.895 3.165 3.285 5.231 4.04.554.518 1.163.966 1.813 1.343 1.91 5.018 3.551 11.348 3.003 13.405-.334 1.254-1.671 3.167-2.965 5.02-2.572 3.685-5.487 7.86-5.043 12.305.348 3.475 6.515 12.84 7.747 14.682.295.442.645.553.92.553.242 0 .427-.086.466-.105.912-.456.912-.456-1.176-6.383-1.198-3.399-2.838-8.056-2.958-9.247-.259-2.594 2.091-5.96 4.165-8.93 1.613-2.309 3.137-4.489 3.698-6.599.901-3.377-.726-9.401-2.083-13.468 2.789-.305 5.322-1.838 6.952-4.161 2.689-3.831 8.179-11.355 11.157-13.357 2.914-1.958 11.567-4.338 16.545-5.601 8.16-2.071 11.203-12.095 5.729-18.15zm-41.749 84.341-.735.483.731-.489c.001.002.002.004.004.006z" fill="#e6e7e8"/><path d="m64.203 74.903c-1.187-.001-2.342-.232-3.418-.656 1.574 4.365 3.313 10.585 2.663 13.019-.38 1.423-1.706 3.322-3.109 5.333-2.474 3.542-5.278 7.558-4.87 11.634.336 3.364 7.225 13.692 7.583 14.227.978 1.464-4.329-12.083-4.574-14.528-.296-2.962 2.167-6.489 4.341-9.601 1.561-2.235 3.035-4.346 3.552-6.285.85-3.187-.842-9.235-2.156-13.142-.005-.001-.008-.001-.012-.001z" fill="#0089ef"/><path d="m61.337 71.902c3.146-.033 6.061-1.653 7.869-4.228 2.689-3.831 8.179-11.355 11.157-13.357 2.914-1.958 11.567-4.338 16.545-5.601 8.499-2.156 11.474-12.956 5.025-18.896-.139-.128-.282-.254-.429-.377l-19.78-16.538c-11.864-9.919-29.111-9.976-41.04-.135l-20.147 16.621c-.149.123-.294.249-.435.377-6.649 6.049-3.256 17.161 5.576 18.833 4.672.884 13.562 3.795 16.045 5.442 3.341 2.215 8.833 9.74 11.532 13.606 1.819 2.606 4.77 4.25 7.948 4.254.044 0 .089 0 .134-.001z" fill="#fff"/><path d="m64.337 74.902c3.146-.033 6.061-1.653 7.869-4.228 2.689-3.831 8.179-11.355 11.157-13.357 2.914-1.958 11.567-4.338 16.545-5.601 8.499-2.156 11.474-12.956 5.025-18.896-.139-.128-.282-.254-.429-.377l-19.78-16.538c-11.864-9.919-29.111-9.976-41.04-.135l-20.147 16.621c-.149.123-.294.249-.435.377-6.649 6.049-3.256 17.161 5.576 18.833 4.672.884 13.562 3.795 16.045 5.442 3.341 2.215 8.833 9.74 11.532 13.606 1.819 2.606 4.77 4.25 7.948 4.254.044 0 .089 0 .134-.001z" fill="#6dc9f7"/><g fill="#3a2c60"><path d="m64.337 74.902c-.045 0-.089.001-.134 0-.359 0-.713-.028-1.064-.069 1.509 4.407 3.013 10.148 2.265 12.953-.471 1.768-1.896 3.809-3.406 5.971-2.272 3.254-4.848 6.942-4.516 10.273.105 1.05.928 3.587 2.087 6.931-1.617-2.817-2.976-5.53-3.106-6.829-.371-3.708 2.32-7.562 4.7-10.97 1.453-2.081 2.826-4.048 3.25-5.639.714-2.678-.96-8.681-2.435-12.901-.88-.218-1.718-.567-2.5-1.02 1.91 5.018 3.551 11.349 3.002 13.406-.333 1.251-1.667 3.162-2.963 5.018-2.573 3.685-5.489 7.86-5.045 12.306.345 3.453 6.513 12.836 7.746 14.683.295.442.646.553.921.553.242 0 .427-.086.466-.105.912-.456.912-.456-1.177-6.385-1.198-3.399-2.838-8.055-2.957-9.245-.259-2.594 2.091-5.96 4.166-8.931 1.613-2.31 3.136-4.49 3.697-6.599.9-3.376-.727-9.4-2.084-13.467-.301.033-.605.063-.913.066zm-.454 43.001.003.006-.835.55z"/><path d="m28.859 23.526c.224 0 .45-.075.636-.229l3.856-3.182c.426-.352.487-.981.135-1.408-.351-.425-.982-.485-1.408-.135l-3.856 3.182c-.426.352-.487.981-.135 1.408.198.24.484.364.772.364z"/><path d="m102.611 29.087c-.152-.141-.308-.276-.467-.41l-19.78-16.538c-12.227-10.222-30.024-10.28-42.318-.139l-4.868 4.016c-.426.352-.487.981-.135 1.408.352.426.983.485 1.408.135l4.868-4.016c11.553-9.53 28.275-9.476 39.762.131l19.781 16.538c.135.112.265.227.393.345 2.694 2.481 3.758 6.114 2.846 9.717-.946 3.739-3.728 6.533-7.439 7.475-6.093 1.545-13.963 3.794-16.856 5.74-3.066 2.061-8.47 9.412-11.418 13.612-1.651 2.353-4.291 3.773-7.072 3.802l-.11.001c-2.794-.004-5.459-1.434-7.13-3.826-2.931-4.2-8.362-11.588-11.799-13.867-2.651-1.759-11.638-4.688-16.412-5.591-3.794-.718-6.808-3.49-7.867-7.234-1.035-3.661.003-7.354 2.776-9.876.129-.118.262-.233.4-.347l4.923-4.062c.426-.352.487-.981.135-1.408-.351-.425-.981-.484-1.408-.135l-4.922 4.062c-.162.133-.319.27-.473.409-3.348 3.045-4.602 7.494-3.356 11.9 1.267 4.479 4.875 7.795 9.419 8.655 4.832.914 13.477 3.832 15.678 5.292 2.309 1.532 6.415 6.396 11.265 13.346 2.043 2.928 5.321 4.678 8.768 4.682l.144-.001c3.413-.035 6.656-1.774 8.677-4.653 4.881-6.952 8.853-11.728 10.896-13.101 2.043-1.374 7.959-3.364 16.233-5.461 4.368-1.108 7.773-4.527 8.886-8.923 1.096-4.327-.186-8.693-3.428-11.678z"/><path d="m56.716 14.999c0-1.694-1.373-3.067-3.067-3.067s-3.067 1.373-3.067 3.067 1.373 3.067 3.067 3.067 3.067-1.373 3.067-3.067z"/><circle cx="68.591" cy="14.999" r="3.067"/></g><path d="m50.582 19.863c-.868 0-1.572.48-1.572 1.072s.704 1.072 1.572 1.072 1.573-.48 1.573-1.072-.704-1.072-1.573-1.072z" fill="#fa759e"/><ellipse cx="72.23" cy="20.935" fill="#fa759e" rx="1.572" ry="1.072"/></svg>