<svg id="Layer_1" enable-background="new 0 0 128 128" height="512" viewBox="0 0 128 128" width="512" xmlns="http://www.w3.org/2000/svg"><path d="m121.563 66.589c-4.309-11.509-14.813-17.376-22.75-17.957-.41-.03-.829-.036-1.252-.03 3.097-3.334 3.783-7.847 1.655-10.587.518-.877.814-1.979.865-3.307.04-1.031-.356-2.041-1.088-2.772-.731-.731-1.748-1.123-2.771-1.087-1.485.056-2.683.423-3.603 1.063-.757-.111-1.554-.124-2.384-.014-2.375.313-4.719 1.522-6.601 3.404-.511.511-.979 1.065-1.392 1.648-.909 1.286-2.311 2.146-3.846 2.358l-2.209.31c-.338.047-.695.098-1.054.148-.181-1.098-.482-2.219-.958-3.366-.525-1.265-1.088-2.582-1.766-3.85 5.168-1.166 5.875-6.054 5.875-10.312 0-2.286-.739-5.173-1.359-7.192-.296-.963-.953-1.745-1.85-2.201-.89-.452-1.901-.524-2.845-.198-4.147 1.43-11.133 4.751-12.65 11.217-1.489.003-8.773.018-11.397.057-1.617-6.6-8.854-9.589-13.141-10.801-1.038-.295-2.147-.122-3.044.47-.89.589-1.478 1.533-1.614 2.593-.309 2.406-.466 4.375-.466 5.853 0 4.563.737 9.745 6.117 10.638-.679 1.275-1.224 2.571-1.698 3.734-.469 1.152-.769 2.279-.945 3.383-1.184-.18-2.278-.349-3.206-.493l-1.012-.156c-1.093-.168-2.117-.715-2.883-1.54-.09-.097-.183-.192-.279-.289-2.36-2.361-5.454-3.429-8.201-3.115-.107-.12-.197-.247-.313-.364-.964-.964-2.387-1.489-4.23-1.561-1.036-.038-2.041.357-2.771 1.088s-1.127 1.741-1.087 2.771c.07 1.842.596 3.265 1.561 4.23.18.18.365.349.554.507-.028.462-.029.934.02 1.418.235 2.313 1.348 4.571 3.134 6.357.711.712 1.505 1.319 2.365 1.813.095.885.397 3.723.737 7.222.053.549.542.942 1.091.898.048.498.095 1.004.143 1.519-.032 0-.061-.013-.094-.01-.55.052-.954.539-.903 1.089l.086.921c.128 1.365.253 2.707.368 3.993.046.52.483.911.995.911.03 0 .06-.001.09-.004.018-.001.032-.012.05-.015.042.549.082 1.085.119 1.611-.04-.002-.077-.017-.118-.014-.55.045-.96.527-.916 1.077l.115 1.376c.125 1.468.2 2.354.2 3.523 0 5.968-1.974 24.079-1.994 24.262-.004.036-.006.072-.006.108 0 .553.042 1.115.125 1.679-1.034.564-1.988 1.281-2.842 2.136-1.724 1.724-2.875 3.835-3.299 6.002-.555.179-1.073.472-1.492.892-.731.731-1.128 1.741-1.088 2.771.071 1.843.596 3.266 1.561 4.229 1.426 1.426 3.167 2.173 4.731 2.173.792 0 1.536-.198 2.174-.59 2.813 2.322 7.627 1.559 11.039-1.853.621-.621 1.152-1.288 1.593-1.981.926-1.457 2.491-2.385 4.193-2.675 3.285-.559 8.614-1.439 13.384-2.082 2.678 1.875 6.418 2.941 10.661 2.941.46 0 .927-.013 1.399-.038 3.018-.163 6.469-.949 9.508-2.526 5.104.642 10.241 1.388 13.219 1.807.107.015.21.04.315.061.136.15.27.301.415.446 1.239 1.24 2.666 2.138 4.136 2.689 3.45 3.114 8.194 3.566 10.823.937.315-.315.581-.664.808-1.033.05-.048.103-.09.153-.14.964-.965 1.489-2.389 1.56-4.229.04-1.031-.356-2.041-1.088-2.772-.276-.276-.601-.489-.944-.666-.387-.69-.863-1.357-1.427-1.982-.552-1.47-1.45-2.897-2.689-4.136-.405-.405-.836-.771-1.284-1.109-.358-3.344-1.061-10.154-1.468-15.633 3.899-.422 5.915 4.313 6.005 4.53.122.294.376.514.686.589.309.075.636.001.88-.202 1.514-1.264 2.211-3.303 2.532-4.864 1.052 1.285 2.291 3.292 2.075 5.438-.028.28-.067.562-.116.844-.494 2.847.762 5.578 3.278 7.13.523.323 1.637.888 3.325.919s3.435-.292 4.664-1.203c11.489-8.518 9.838-23.39 7.051-30.834z" fill="#e6e7e8"/><path d="m51.591 104.817c-1.575 0-4.079.245-6.899.6 4.907 2.714 12.549 2.86 18.401.394-4.582-.556-8.955-.994-11.502-.994z" fill="#6dc9f7"/><path d="m116.626 62.939c-3.895-10.404-13.67-16.708-21.887-17.31-.739-.054-1.508-.042-2.293.021-1.147.955-2.403 1.652-3.672 2.051.057.447.096.899.096 1.361 0 0-2 18.73-2 24.973 0 1.283.093 3.12.238 5.21 4.684-.49 7.001 5.146 7.001 5.146 2.344-1.957 2.446-6.297 2.446-6.297s4.218 3.553 3.797 7.737c-.006.061-.013.122-.02.183-.669 5.783 5.9 9.642 10.409 5.96 10.145-8.285 8.49-22.076 5.885-29.035z" fill="#6dc9f7"/><path d="m88.846 49.298c-.006.061-.014.132-.023.215-.002.018-.004.042-.006.061-.008.074-.016.156-.026.245-.035.338-.081.779-.135 1.308-.003.028-.006.055-.008.083-.347 3.393-1.019 10.187-1.431 15.83 8.726-2.506 15.788 7.268 15.788 7.268 1.688-1.309 1.337-3.776 1.337-3.776 6.036 5.958 1.428 14.769 1.428 14.769 1.475.171 2.714-.998 3.778-3.153-.056 4.166-2.091 8.008-4.391 11.04 1.76.48 3.725.207 5.424-1.101 8.516-6.557 9.552-18.878 6.315-28.39-.088-.26-.178-.513-.269-.757-3.895-10.404-13.67-16.708-21.887-17.31-.722-.053-1.472-.041-2.238.018-.018.001-.036.001-.054.003-1.147.955-2.403 1.652-3.672 2.051.057.447.096.899.096 1.361-.001-.001-.01.083-.026.235z" fill="#d4fbff"/><path d="m85.848 95.39c.007-.155.023-.308.023-.465 0 0-2-17.918-2-23.89 0-6.243 2-24.973 2-24.973 0-.462-.039-.914-.096-1.361 1.574-.495 3.139-1.429 4.485-2.774 3.571-3.571 4.245-8.686 1.507-11.425s-7.854-2.064-11.425 1.506c-.481.481-.909.991-1.282 1.519-1.067 1.509-2.694 2.517-4.525 2.771-1.192.166-2.651.372-4.263.597 1.045 12.078-15.394 20.85-17.521 21.93-1.75.889-3.825.88-5.541-.074-1.929-1.072-17.95-9.772-16.948-21.819-2.073-.313-3.904-.598-5.238-.804-1.332-.205-2.546-.86-3.464-1.848-.082-.089-.167-.176-.253-.263-3.358-3.358-8.3-3.86-11.039-1.121s-2.237 7.681 1.121 11.039c.803.803 1.698 1.438 2.631 1.909-.001.072-.01.142-.01.215 0 0 2 18.37 2 24.493 0 6.093-2 24.37-2 24.37 0 .768.087 1.514.24 2.235-1.146.534-2.259 1.294-3.251 2.287-3.574 3.573-4.25 8.691-1.511 11.43s7.856 2.062 11.43-1.511c.621-.621 1.152-1.288 1.593-1.981.926-1.457 2.491-2.385 4.193-2.675 5.672-.965 17.449-2.892 21.891-2.892 5.658 0 20.309 2.154 26.279 2.993 1.533.216 2.881 1.043 3.893 2.215.172.199.353.395.544.585 3.475 3.476 8.513 4.073 11.252 1.334s2.142-7.776-1.334-11.252c-1.027-1.021-2.186-1.787-3.381-2.3z" fill="#fff"/><path d="m88.848 98.39c.007-.155.023-.308.023-.465 0 0-2-17.918-2-23.89 0-6.243 2-24.973 2-24.973 0-.462-.039-.914-.096-1.361 1.574-.495 3.139-1.429 4.485-2.774 3.571-3.571 4.245-8.686 1.507-11.425s-7.854-2.064-11.425 1.506c-.481.481-.909.991-1.282 1.519-1.067 1.509-2.694 2.517-4.525 2.771-1.932.268-4.56.643-7.418 1.034-1.863 10.281-15.446 17.519-17.366 18.493-1.75.889-3.825.88-5.541-.074-1.79-.995-15.714-8.559-16.911-19.271-.853-.131-1.626-.251-2.275-.351-1.332-.205-2.546-.86-3.464-1.848-.082-.089-.167-.176-.253-.263-3.358-3.358-8.3-3.86-11.039-1.121s-2.237 7.681 1.121 11.039c.803.803 1.698 1.438 2.631 1.909-.001.072-.01.142-.01.215 0 0 2 18.37 2 24.493 0 6.093-2 24.37-2 24.37 0 .768.087 1.514.24 2.235-1.146.534-2.259 1.294-3.251 2.287-3.574 3.573-4.25 8.691-1.511 11.43s7.856 2.062 11.43-1.511c.621-.621 1.152-1.288 1.593-1.981.926-1.457 2.491-2.385 4.193-2.675 5.672-.965 17.449-2.892 21.891-2.892 5.658 0 20.309 2.154 26.279 2.993 1.533.216 2.881 1.043 3.893 2.215.172.199.353.395.544.585 3.475 3.476 8.513 4.073 11.252 1.334s2.142-7.776-1.334-11.252c-1.027-1.022-2.186-1.788-3.381-2.301z" fill="#6dc9f7"/><path d="m73.848 70.555c0-3.504 1.999-14.018 1.999-14.018 0-5.063-4.101-9.041-8.991-9.087-4.7 6.4-12.669 10.645-14.107 11.375-1.75.889-3.825.88-5.541-.074-1.299-.722-8.986-4.905-13.567-11.236-5.162-.309-9.624 3.784-9.625 9.066-.001 4.137.999 9.058.999 13.974 0 4.819-1 9.635-1 13.705.001 5.577 4.974 9.846 10.483 8.985 4.902-.766 10.024-1.428 13.092-1.428 4.025 0 11.444.88 17.924 1.77 5.467.751 10.335-3.497 10.334-9.014.001 0-2-10.513-2-14.018z" fill="#d4fbff"/><path d="m12.79 30.542c-.929-.929-2.329-1.221-3.561-1.269-1.579-.061-2.882 1.242-2.821 2.821.048 1.232.34 2.633 1.269 3.561 1.995 1.995 4.757 2.467 6.169 1.055 1.411-1.412.939-4.174-1.056-6.168z" fill="#fa759e"/><path d="m11.79 106.816c-.929-.928-2.329-1.221-3.561-1.269-1.579-.061-2.882 1.242-2.821 2.821.048 1.232.34 2.633 1.269 3.562 1.995 1.995 4.757 2.467 6.169 1.055s.939-4.175-1.056-6.169z" fill="#fa759e"/><path d="m92.26 27.848c-1.232.048-2.633.34-3.561 1.269-1.995 1.995-2.467 4.756-1.055 6.169s4.174.94 6.169-1.055c.929-.929 1.221-2.329 1.269-3.562.06-1.579-1.244-2.882-2.822-2.821z" fill="#fa759e"/><path d="m92.26 103.681c-1.232.047-2.633.34-3.561 1.269-1.995 1.995-2.467 4.757-1.055 6.169s4.174.94 6.169-1.055c.929-.928 1.221-2.329 1.269-3.561.06-1.58-1.244-2.883-2.822-2.822z" fill="#fa759e"/><path d="m73.284 18.24c0-2.154-.709-4.925-1.315-6.899-.443-1.442-1.987-2.239-3.413-1.748-3.947 1.36-11.157 4.715-12.154 11.289-.184-.01-.37-.017-.559-.018-.781-.003-12.047.028-12.472.075-1.087-6.666-8.393-9.668-12.601-10.857-1.579-.446-3.185.601-3.394 2.228-.226 1.757-.457 3.985-.457 5.726 0 5.593 1.188 9.737 6.773 9.771-1.001 1.579-1.749 3.312-2.428 4.978-5.769 14.163 13.8 24.776 15.944 25.968 1.716.954 3.791.963 5.541.074 2.362-1.199 22.38-11.879 16.503-26.042-.705-1.698-1.456-3.436-2.444-5.008 5.253-.395 6.476-4.183 6.476-9.537z" fill="#6dc9f7"/><path d="m59.686 44.803c-.868 0-1.572.48-1.572 1.072s.704 1.072 1.572 1.072 1.572-.48 1.572-1.072c.001-.592-.703-1.072-1.572-1.072z" fill="#fa759e"/><path d="m40.673 44.803c-.868 0-1.572.48-1.572 1.072s.704 1.072 1.572 1.072 1.572-.48 1.572-1.072c.001-.592-.703-1.072-1.572-1.072z" fill="#fa759e"/><path d="m39.791 22.46s.817-5.446-7.761-7.08c0 0-2.555 6.263 4.713 9.122 0 .001.325-1.225 3.048-2.042z" fill="#d4fbff"/><path d="m59.707 22.46s-.817-5.446 7.761-7.08c0 0 2.555 6.263-4.713 9.122-.001.001-.325-1.225-3.048-2.042z" fill="#d4fbff"/><g fill="#3a2c60"><path d="m117.563 62.588c-4.309-11.508-14.814-17.375-22.75-17.956-.41-.03-.829-.036-1.253-.03-.101.108-.195.219-.301.325-.828.828-1.743 1.48-2.688 1.989 1.418-.257 2.806-.382 4.094-.29 7.555.554 17.202 6.454 21.024 16.663 2.591 6.921 4.164 20.718-6.373 28.525-2.028 1.502-4.298 1.083-5.748.189-1.415-.872-2.777-2.667-2.358-5.086.058-.329.104-.659.136-.987.468-4.655-3.959-8.442-4.148-8.602-.294-.248-.704-.305-1.055-.146-.351.158-.58.503-.588.888-.021.861-.293 3.009-1.232 4.537-1.321-2.196-3.825-4.705-7.281-4.364.041.64.087 1.308.138 2 3.901-.418 5.915 4.311 6.005 4.529.122.294.376.514.686.589.307.075.635.002.88-.202 1.514-1.263 2.211-3.302 2.532-4.863 1.052 1.285 2.291 3.291 2.075 5.438-.028.28-.067.562-.116.843-.494 2.848.762 5.58 3.278 7.131 2.521 1.554 5.657 1.443 7.988-.284 11.492-8.518 9.842-23.39 7.055-30.836z"/><path d="m55.036 106.534c-3.209.174-6.174-.32-8.556-1.33-1.073.121-2.215.264-3.397.424 2.678 1.875 6.419 2.942 10.661 2.942.46 0 .927-.013 1.399-.038 3.018-.163 6.469-.949 9.508-2.527-1.36-.171-2.714-.334-4.028-.482-1.884.593-3.818.915-5.587 1.011z"/><path d="m15.467 63.002c.03 0 .06-.001.09-.004.55-.049.956-.535.907-1.085-.109-1.22-.228-2.488-.348-3.778l-.107-1.145c-.051-.55-.532-.948-1.088-.903-.55.052-.954.539-.903 1.089l.107 1.145c.12 1.288.238 2.554.347 3.771.046.519.482.91.995.91z"/><path d="m93.096 102.759c-.411-2.096-1.513-4.123-3.164-5.774-.917-.917-1.949-1.664-3.074-2.228-.124-1.122-1.987-18.04-1.987-23.723 0-6.119 1.975-24.68 1.994-24.866.004-.035.006-.071.006-.106 0-.221-.008-.445-.024-.682 1.5-.6 2.912-1.538 4.12-2.746 1.882-1.882 3.091-4.227 3.404-6.601.046-.347.056-.685.061-1.02.028-.027.06-.048.088-.076.964-.964 1.49-2.388 1.561-4.229.04-1.03-.356-2.04-1.087-2.771-.731-.73-1.747-1.135-2.772-1.088-1.502.058-2.709.434-3.632 1.088-2.916-.419-6.329.74-8.955 3.365-.511.511-.979 1.065-1.392 1.649-.909 1.285-2.311 2.145-3.846 2.358l-2.209.309c-.338.048-.692.097-1.054.148-.181-1.098-.482-2.218-.957-3.364-.524-1.265-1.087-2.582-1.766-3.852 5.167-1.166 5.875-6.054 5.875-10.311 0-2.283-.739-5.172-1.359-7.192-.295-.963-.952-1.745-1.849-2.201-.891-.452-1.9-.524-2.846-.198-4.146 1.428-11.132 4.749-12.65 11.216-1.488.003-8.776.02-11.397.057-1.617-6.6-8.854-9.589-13.142-10.801-1.038-.296-2.147-.122-3.042.47-.891.588-1.479 1.533-1.615 2.594-.212 1.652-.465 4.009-.465 5.853 0 4.563.737 9.745 6.116 10.637-.679 1.277-1.224 2.572-1.697 3.735-.469 1.152-.769 2.279-.945 3.383-1.167-.178-2.238-.343-3.153-.484l-1.065-.164c-1.094-.169-2.118-.716-2.882-1.538-.092-.099-.186-.197-.281-.291-1.786-1.787-4.044-2.9-6.358-3.135-.635-.065-1.249-.051-1.842.02-.107-.12-.197-.248-.314-.364-.965-.966-2.389-1.491-4.229-1.561-1.041-.033-2.04.355-2.771 1.087-.731.731-1.128 1.741-1.088 2.771.071 1.843.596 3.266 1.561 4.229.175.176.367.325.554.482-.031.47-.03.95.021 1.443.235 2.313 1.348 4.572 3.135 6.358.711.711 1.504 1.319 2.365 1.813.095.886.396 3.725.736 7.222.053.55.542.946 1.092.898.55-.053.952-.542.898-1.092-.408-4.212-.763-7.47-.761-7.474.001-.016.007-.128.007-.144.008-.385-.206-.739-.549-.913-.873-.441-1.672-1.021-2.375-1.724-1.461-1.462-2.371-3.289-2.559-5.146-.001-.007 0-.014-.001-.021.422.169.848.309 1.278.383.311.054.615.08.91.08 1.12 0 2.104-.381 2.832-1.108 1.291-1.291 1.418-3.327.545-5.265.118.005.234.003.354.015 1.857.188 3.684 1.098 5.148 2.562.076.076.151.153.226.234 1.071 1.152 2.507 1.918 4.044 2.155l1.065.164c.949.147 2.066.319 3.283.504-.17 11.052 12.878 19.275 17.405 21.785l.096.054c1.024.569 2.163.854 3.308.854 1.081 0 2.168-.254 3.171-.764 2.099-1.065 18.353-9.723 18.127-21.959.391-.055.773-.108 1.137-.159l2.206-.31c2.08-.289 3.977-1.45 5.204-3.185.348-.491.742-.959 1.173-1.39 1.735-1.735 3.859-2.704 5.814-2.859-1.362 2.176-1.412 4.649.075 6.136.728.728 1.712 1.108 2.833 1.108.294 0 .598-.026.908-.079.533-.091 1.06-.28 1.577-.517-.386 1.69-1.328 3.342-2.703 4.716-1.187 1.187-2.597 2.061-4.079 2.527-.461.146-.752.601-.691 1.08.058.452.086.83.088 1.183-.142 1.331-2 18.906-2 25.024 0 5.844 1.85 22.598 2 23.939-.002.063-.006.123-.01.185l-.011.188c-.018.415.223.799.604.963 1.132.485 2.163 1.188 3.064 2.09 1.28 1.28 2.158 2.818 2.541 4.406-1.285.212-2.318.688-3.068 1.438-1.11 1.109-1.85 2.474-2.083 3.841-.094.547-.102 1.072-.032 1.563-.181-.006-.362-.009-.548-.031-1.903-.226-3.791-1.189-5.313-2.712-.173-.173-.337-.351-.494-.532-1.217-1.406-2.819-2.313-4.511-2.551l-1.761-.249c-6.789-.963-19.426-2.754-24.657-2.754-4.112 0-14.265 1.58-22.06 2.906-2.054.35-3.828 1.488-4.868 3.125-.411.646-.9 1.255-1.456 1.811-1.574 1.573-3.51 2.581-5.452 2.838-.048.006-.094.007-.141.012.069-.49.061-1.013-.033-1.559-.234-1.367-.974-2.731-2.083-3.841-.817-.817-1.983-1.299-3.434-1.477.419-1.606 1.329-3.168 2.64-4.478.875-.875 1.874-1.577 2.967-2.088.422-.197.652-.659.555-1.114-.141-.663-.214-1.326-.218-1.974.144-1.315 2-18.453 2-24.423 0-1.25-.082-2.216-.207-3.678l-.115-1.382c-.044-.551-.529-.961-1.077-.917-.55.045-.96.527-.916 1.077l.116 1.392c.124 1.461.199 2.343.199 3.508 0 5.969-1.974 24.079-1.994 24.262-.004.036-.006.072-.006.108 0 .553.042 1.115.125 1.679-1.036.566-1.989 1.282-2.842 2.136-1.722 1.722-2.872 3.83-3.298 5.995-.558.18-1.072.478-1.495.901-.73.731-1.127 1.741-1.087 2.771.07 1.842.596 3.265 1.561 4.23 1.109 1.11 2.474 1.85 3.841 2.084.311.053.615.079.909.079 1.121 0 2.105-.381 2.833-1.108.044-.043.08-.092.121-.138.047.001.093.007.141.007.393 0 .794-.026 1.203-.08 2.375-.314 4.721-1.524 6.604-3.407.659-.659 1.24-1.384 1.729-2.152.737-1.159 2.019-1.971 3.516-2.226 10.91-1.856 18.625-2.878 21.724-2.878 5.09 0 17.636 1.778 24.376 2.734l1.763.249c1.23.173 2.363.823 3.275 1.878.188.218.386.431.594.639 1.839 1.839 4.145 3.005 6.492 3.283.576.068 1.134.074 1.676.031.056.065.108.132.169.193.728.728 1.712 1.108 2.833 1.108.294 0 .598-.026.908-.079 1.368-.234 2.732-.974 3.841-2.084.964-.964 1.49-2.388 1.561-4.229.04-1.03-.356-2.04-1.087-2.771-.522-.521-1.187-.867-1.898-1.011zm-79.957-66.755c-.603.604-1.505.552-1.99.472-.949-.163-1.957-.72-2.765-1.527-.744-.743-.941-1.983-.977-2.893-.019-.481.161-.937.504-1.28.327-.326.754-.504 1.211-.504.023 0 .046 0 .069.001.909.035 2.148.232 2.892.977 1.575 1.574 2.058 3.751 1.056 4.754zm41.48 20.642c-.212-1.431-1.513-2.455-2.965-2.455h-3.203c-1.433 0-2.715 1-2.952 2.401-6.121-3.787-17.698-12.655-13.309-23.43.616-1.513 1.355-3.257 2.346-4.82.194-.307.207-.695.033-1.015s-.508-.519-.872-.521c-4.159-.024-5.779-2.483-5.779-8.771 0-1.737.244-4.004.449-5.599.063-.489.324-.907.734-1.179.279-.185.603-.279.931-.279.156 0 .313.021.466.064 3.803 1.076 10.173 3.665 11.675 9.135-1.449.491-4.3 1.648-6.16 3.643-.376.403-.354 1.036.049 1.413.193.18.438.269.682.269.268 0 .534-.106.731-.318 1.795-1.924 4.882-2.979 5.826-3.268.053.005.103.022.157.019.124-.008.657-.016 1.433-.024 1.572-.311 3.373-.445 5.289-.445 1.804 0 3.503.123 5.008.397.246 0 .422 0 .548.001.533.119 3.757.921 6.33 3.365.193.184.441.274.688.274.265 0 .529-.104.725-.312.38-.4.364-1.033-.037-1.414-2.038-1.935-4.395-2.966-5.896-3.472 1.319-5.524 7.596-8.478 11.334-9.766.426-.146.883-.116 1.288.091.409.208.708.564.843 1.004.58 1.891 1.271 4.571 1.271 6.606 0 5.845-1.557 8.239-5.551 8.539-.35.026-.66.233-.818.547-.158.313-.141.686.046.982.954 1.519 1.692 3.233 2.367 4.86 4.626 11.142-8.083 20.147-13.707 23.478zm35.722-21.597c-.484.084-1.387.132-1.99-.472-1.002-1.003-.52-3.18 1.055-4.755.744-.743 1.984-.941 2.893-.977.493-.013.938.16 1.281.504s.522.798.503 1.279c-.036.91-.234 2.15-.977 2.894-.809.809-1.817 1.365-2.765 1.527zm-80.193 77.7c-.949-.162-1.957-.719-2.764-1.526-.744-.744-.942-1.984-.977-2.894-.019-.481.16-.936.503-1.279.327-.327.755-.505 1.212-.505.022 0 .045 0 .068.001.909.035 2.149.233 2.893.978.808.808 1.364 1.815 1.526 2.764.083.484.132 1.387-.471 1.99-.603.602-1.505.553-1.99.471zm82.957-3.393c-.808.808-1.815 1.364-2.764 1.526-.484.084-1.387.132-1.99-.472s-.554-1.506-.472-1.99c.163-.949.719-1.956 1.526-2.764.744-.744 1.984-.942 2.893-.978.023-.001.045-.001.068-.001.457 0 .885.178 1.213.506.343.343.522.797.503 1.278-.036.912-.234 2.152-.977 2.895z"/><path d="m43.535 38.377c-1.223 0-2.215.992-2.215 2.215s.992 2.215 2.215 2.215 2.215-.992 2.215-2.215-.992-2.215-2.215-2.215z"/><path d="m57.141 38.377c-1.223 0-2.215.992-2.215 2.215s.992 2.215 2.215 2.215 2.215-.992 2.215-2.215-.992-2.215-2.215-2.215z"/></g><path d="m50.18 21.466c-6.119 0-11.079 1.368-11.079 5.506 0 2.307 2.404 4.371 4.829 5.745 1.372.778 2.596 1.329 4.163 1.584l.658 14.967c.036.817.68 1.46 1.462 1.46s1.426-.643 1.462-1.46l.658-14.966c2.027-.322 3.55-1.111 5.075-2.213 1.853-1.339 3.849-3.139 3.849-5.118.002-4.137-4.958-5.505-11.077-5.505z" fill="#d4fbff"/></svg>