<svg id="Layer_1" enable-background="new 0 0 128 128" height="512" viewBox="0 0 128 128" width="512" xmlns="http://www.w3.org/2000/svg"><path d="m124.19 46.87c-.125-1.046-.87-1.866-1.897-2.091-.458-.102-.912-.069-1.324.072 2.027-3.242 3.503-7.189 3.585-11.851.018-.993-.564-1.886-1.481-2.274-.922-.394-1.975-.188-2.682.519-1.191 1.191-2.876 2.837-4.648 4.448.259-.623.465-1.271.591-1.938.156-.823-.115-1.658-.727-2.234-.606-.571-1.449-.791-2.258-.588-3.298.836-9.848 3.349-16.669 10.795-.597.652-1.168 1.286-1.713 1.902.327-.705.37-.829.395-.901.286-.828-.249-2.541-1.544-3.117-2.125-.947-4.625 1.239-7.641 6.686-3.343 6.036-5.418 11.1-6.57 14.283-.687 1.896-2.148 3.361-4.011 4.022-.531.188-1.066.393-1.598.613-.015-.026-.029-.05-.046-.073l-1.12-20.377c3.694-2.296 6.167-6.379 6.167-11.039 0-7.169-5.833-13.002-13.002-13.002s-13.002 5.833-13.002 13.002c0 4.759 2.578 8.917 6.404 11.183l-1.125 20.465c-.638-.272-1.281-.524-1.922-.753-1.829-.651-3.265-2.097-3.938-3.966-1.154-3.199-3.236-8.287-6.598-14.358-3.016-5.445-5.514-7.632-7.641-6.686-1.295.576-1.83 2.289-1.544 3.117.022.065.065.19.396.903-.545-.616-1.117-1.251-1.715-1.904-6.815-7.439-13.361-9.954-16.655-10.79-.801-.204-1.645.013-2.25.58-.616.578-.89 1.42-.733 2.252.21 1.122.636 2.277 1.163 3.384-1.935-1.939-3.809-3.998-5.125-5.482-.69-.78-1.761-1.033-2.724-.648-.972.388-1.576 1.315-1.539 2.363.153 4.495 1.612 8.316 3.582 11.465-.414-.144-.871-.174-1.329-.074-1.03.225-1.776 1.048-1.901 2.096-.956 8.019 2.112 13.831 5.774 17.798-.305-.151-.614-.306-.928-.463-.842-.421-1.827-.326-2.571.248-.749.576-1.097 1.51-.905 2.436 1.268 6.129 4.701 10.089 7.841 12.524-.22.098-.428.229-.616.394-.697.61-.988 1.546-.76 2.443l.787 3.084c1.328 5.211 8.246 7.117 12.433 7.799.699.524 1.463 1.046 2.277 1.554 2.537 4.23 6.126 7.986 10.394 10.872 5.53 3.74 11.726 5.713 17.54 5.713 2.317-.001 4.576-.314 6.705-.954.319.029.658.093 1.03.191 7.304 1.933 16.113.085 23.559-4.95 3.934-2.66 7.321-6.093 9.811-9.938 1.327-.855 2.527-1.726 3.573-2.593 3.987-.729 10.546-2.678 11.825-7.694l.787-3.084c.229-.897-.063-1.833-.76-2.443-.188-.164-.396-.296-.616-.394 3.14-2.436 6.573-6.396 7.841-12.524.191-.927-.156-1.859-.906-2.436-.745-.573-1.731-.667-2.57-.248-.322.161-.641.32-.953.476 3.657-3.963 6.755-9.787 5.797-17.815z" fill="#e6e7e8"/><path d="m119.197 42.989c-.162-1.358-1.945-1.74-2.659-.574-1.445 2.36-4.057 5.298-8.704 7.469-.121-.251-.313-.449-.541-.584 4.591-3.155 12.077-9.884 12.26-20.316.023-1.287-1.546-1.941-2.456-1.031-2.709 2.709-7.266 7.077-10.399 9.088.82-.866 3.994-3.996 4.653-7.47.195-1.028-.742-1.923-1.757-1.666-3.038.769-9.465 3.173-16.177 10.5-2.639 2.881-4.503 5.126-5.822 6.866-.235.16-.468.326-.699.497 1.585-3.245 3.37-6.928 3.52-7.363.273-.794-1.637-5.965-7.365 4.378-3.306 5.969-5.359 10.974-6.505 14.14-.779 2.152-2.46 3.859-4.617 4.623-.926.328-1.851.704-2.77 1.127-.094-.277-.156-.571-.173-.882l-1.174-21.362c0-.068-.003-.135-.004-.203 0 0 0 0-.001 0 3.69-2.047 6.191-5.979 6.191-10.498 0-6.628-5.373-12.002-12.002-12.002s-12.002 5.373-12.002 12.002c0 4.617 2.611 8.62 6.434 10.627h-.001c0 .025-.002.049-.002.074l-1.168 21.261c-.022.397-.113.768-.257 1.108-.99-.466-1.987-.878-2.984-1.233-2.124-.757-3.778-2.447-4.543-4.568-1.141-3.162-3.201-8.199-6.532-14.214-5.728-10.343-7.637-5.172-7.365-4.378.149.435 1.934 4.117 3.519 7.361-.249-.189-.492-.366-.726-.532-1.317-1.735-3.174-3.969-5.793-6.828-6.704-7.318-13.122-9.725-16.165-10.497-1.02-.259-1.948.644-1.754 1.679.73 3.891 4.318 8.313 5.146 9.186-3.156-2.026-7.986-7.22-10.838-10.438-.899-1.014-2.562-.337-2.516 1.018.342 10.013 7.415 16.556 11.969 19.75-.082.149-.134.323-.141.52-.004.106-.001.209-.003.314-4.72-2.177-7.364-5.145-8.82-7.525-.714-1.167-2.496-.778-2.658.58-1.601 13.419 8.66 20.407 12.997 22.734-.002.006-.004.011-.006.017-.609-.287-1.411-.666-2.485-1.173-2.466-1.164-5.194-2.513-7.1-3.466-1.076-.538-2.294.408-2.05 1.587 2.411 11.662 13.229 15.144 13.229 15.144-2.172-.548-3.734-1.067-4.854-1.52-1.088-.44-2.211.556-1.921 1.693l.787 3.084c1.247 4.887 8.487 6.572 11.87 7.099.842.645 1.724 1.238 2.606 1.78 2.387 4.052 5.849 7.809 10.22 10.766 7.823 5.291 16.648 6.732 23.568 4.578.003-.001.007-.001.01-.001.472.028.936.114 1.392.235 6.788 1.798 15.227.272 22.743-4.812 4.034-2.728 7.291-6.139 9.647-9.834 1.317-.839 2.643-1.779 3.86-2.806 3.567-.622 10.115-2.38 11.294-7.004l.787-3.084c.29-1.137-.833-2.133-1.921-1.693-1.12.453-2.682.972-4.854 1.52 0 0 10.818-3.482 13.229-15.144.244-1.178-.974-2.125-2.05-1.587-1.906.953-4.634 2.302-7.1 3.466-.953.45-1.693.799-2.273 1.073-.003-.01-.007-.02-.01-.03 4.445-2.438 14.363-9.417 12.786-22.626z" fill="#fff"/><path d="m65.629 37.842v3.18c-.94.49-2.02.97-3.26 1.42h-.75c-1.24-.45-2.32-.93-3.26-1.42v-3.18c0-.27.03-.55.09-.8h7.09c.06.25.09.53.09.8z" fill="#fa759e"/><path d="m68.199 28.072c-3.26-1.9-5.7 2.9-5.9 3.73l-.3 1.22-.31-1.22c-.2-.83-2.64-5.63-5.9-3.73-2.89 1.69-6.319 8.248 2.567 12.948v-3.178c0-.273.033-.546.093-.802 0 0 .871-1.636 3.546-1.636s3.546 1.636 3.546 1.636c.06.256.093.529.093.802v3.177c8.884-4.699 5.455-11.257 2.565-12.947z" fill="#0089ef"/><path d="m65.634 37.842v9.094c0 2.002-1.637 4.73-3.639 4.73-1.384 0-2.594-1.304-3.208-2.77-.274-.655-.43-1.341-.43-1.959v-9.094c0-.273.033-.546.093-.802 0 0 .871-1.637 3.546-1.637s3.546 1.637 3.546 1.637c.059.255.092.528.092.801z" fill="#fa759e"/><g fill="#3a2c60"><path d="m120.19 42.87c-.125-1.046-.87-1.866-1.897-2.091-.458-.102-.911-.069-1.324.072 2.027-3.242 3.503-7.189 3.585-11.851.018-.993-.564-1.886-1.481-2.274-.922-.394-1.976-.188-2.682.519-1.191 1.191-2.876 2.837-4.648 4.448.259-.623.465-1.271.591-1.938.156-.823-.115-1.658-.727-2.234-.606-.571-1.448-.791-2.258-.588-3.298.836-9.848 3.349-16.669 10.795-.597.652-1.168 1.286-1.713 1.902.327-.705.37-.829.395-.901.286-.828-.249-2.541-1.544-3.117-2.127-.947-4.624 1.239-7.641 6.686-3.343 6.036-5.418 11.1-6.57 14.283-.687 1.896-2.148 3.361-4.011 4.022-.545.192-1.094.402-1.64.629l-1.125-20.47c3.695-2.293 6.167-6.375 6.167-11.035 0-7.169-5.833-13.002-13.002-13.002s-13.002 5.833-13.002 13.002c0 4.76 2.576 8.922 6.404 11.185l-1.125 20.462c-.638-.272-1.281-.524-1.922-.753-1.829-.651-3.265-2.097-3.938-3.966-1.154-3.199-3.236-8.287-6.598-14.358-3.017-5.445-5.514-7.632-7.641-6.686-1.295.576-1.83 2.289-1.544 3.117.022.065.065.19.396.903-.545-.616-1.117-1.251-1.715-1.904-6.815-7.439-13.361-9.954-16.655-10.79-.801-.204-1.645.013-2.25.58-.616.578-.89 1.42-.733 2.252.21 1.122.636 2.277 1.163 3.384-1.935-1.939-3.809-3.998-5.125-5.482-.691-.78-1.76-1.033-2.724-.648-.972.388-1.576 1.315-1.539 2.363.153 4.495 1.612 8.316 3.582 11.465-.414-.144-.871-.174-1.329-.074-1.03.225-1.776 1.048-1.901 2.096-.956 8.019 2.112 13.831 5.774 17.798-.304-.151-.614-.306-.927-.463-.841-.421-1.827-.326-2.571.248-.749.576-1.097 1.51-.905 2.436 1.268 6.129 4.701 10.089 7.841 12.524-.22.098-.428.229-.616.394-.697.61-.988 1.546-.76 2.443l.787 3.084c1.328 5.211 8.246 7.117 12.433 7.799.699.524 1.463 1.046 2.277 1.554 2.537 4.23 6.126 7.986 10.394 10.872 5.53 3.74 11.726 5.713 17.54 5.713 2.317-.001 4.576-.314 6.705-.954.319.029.658.093 1.03.191 7.305 1.933 16.113.085 23.559-4.95 3.934-2.66 7.321-6.093 9.811-9.938 1.327-.855 2.527-1.726 3.573-2.593 3.987-.729 10.546-2.678 11.825-7.694l.787-3.084c.229-.897-.063-1.833-.76-2.443-.188-.164-.396-.296-.616-.394 3.14-2.436 6.573-6.396 7.841-12.524.191-.927-.156-1.859-.906-2.436-.745-.573-1.73-.667-2.57-.248-.322.161-.641.32-.953.476 3.657-3.962 6.755-9.786 5.797-17.814zm-66.812-6.332c-1.489-1.873-2.385-4.236-2.385-6.811 0-6.066 4.936-11.002 11.002-11.002s11.002 4.936 11.002 11.002c0 2.578-.898 4.943-2.39 6.817-.698 1.331-1.951 2.669-3.973 3.905v-2.607c0-.343-.04-.688-.118-1.027-.021-.085-.051-.167-.092-.244-.047-.089-1.19-2.167-4.429-2.167-3.238 0-4.382 2.078-4.429 2.167-.04.076-.07.156-.091.24-.079.336-.119.684-.119 1.031v2.608c-2.026-1.237-3.28-2.579-3.978-3.912zm11.256 1.304v9.095c0 1.56-1.33 3.729-2.639 3.729-.813 0-1.754-.887-2.287-2.157-.227-.541-.352-1.1-.352-1.572v-9.095c0-.137.012-.276.034-.412.213-.275.945-1.026 2.604-1.026 1.671 0 2.402.763 2.604 1.021.024.139.036.281.036.417zm41.293 26.893c-.443.243-.625.808-.438 1.277.103.256.306.459.563.56.257.1.543.091.793-.026l2.272-1.073c1.973-.931 4.369-2.1 7.121-3.476.211-.106.377-.018.457.044.067.052.218.198.166.446-2.259 10.927-12.455 14.361-12.558 14.395-.513.166-.802.71-.652 1.228s.674.823 1.204.693c1.975-.498 3.652-1.023 4.985-1.563.212-.085.364.013.438.076.062.055.199.206.139.443l-.787 3.084c-1.068 4.189-7.696 5.777-10.497 6.266-.175.03-.338.107-.474.222-1.073.906-2.336 1.823-3.751 2.727-.123.078-.228.183-.306.305-2.354 3.692-5.593 6.992-9.365 9.544-6.973 4.715-15.168 6.465-21.926 4.673-.568-.15-1.089-.237-1.648-.269-.101 0-.211.017-.307.046-6.917 2.154-15.407.49-22.711-4.45-4.095-2.77-7.524-6.381-9.919-10.445-.083-.141-.199-.259-.339-.345-.915-.562-1.764-1.141-2.521-1.722-.133-.102-.289-.169-.455-.194-2.953-.459-9.941-1.996-11.054-6.356l-.787-3.084c-.061-.237.077-.389.139-.443.054-.046.148-.109.276-.109.049 0 .104.01.162.033 1.333.54 3.011 1.065 4.985 1.563.53.133 1.056-.175 1.204-.693.149-.518-.14-1.062-.652-1.228-.103-.033-10.299-3.468-12.558-14.395-.052-.248.099-.395.165-.446.081-.063.247-.148.458-.044 2.752 1.376 5.148 2.545 7.12 3.476l2.485 1.174c.284.134.613.128.892-.019.236-.123.412-.336.49-.587.154-.462-.047-.968-.476-1.197-4.259-2.285-14-8.977-12.478-21.734.032-.271.229-.354.342-.378.114-.025.327-.032.471.2 1.416 2.316 4.172 5.568 9.254 7.912.309.143.664.117.95-.061.286-.18.462-.491.469-.829l.019-.366c.249-.447.119-1.01-.3-1.304-4.166-2.926-11.21-9.277-11.541-18.968-.01-.289.194-.402.282-.438.106-.043.309-.082.486.117 3.308 3.731 7.908 8.602 11.046 10.616.427.273.989.186 1.311-.204s.303-.958-.045-1.325c-.806-.852-4.21-5.071-4.889-8.684-.042-.228.082-.372.137-.424.063-.06.199-.149.389-.101 3.079.781 9.209 3.146 15.674 10.203 2.343 2.558 4.271 4.831 5.733 6.757.062.08.135.151.217.21.227.162.462.333.703.516.369.278.881.268 1.239-.025.357-.295.466-.796.263-1.212-2.685-5.493-3.3-6.839-3.438-7.164.029-.21.209-.667.479-.738.071-.016 1.608-.338 5.031 5.844 3.298 5.955 5.337 10.938 6.467 14.068.877 2.434 2.753 4.318 5.147 5.172.755.269 1.51.582 2.259.915-.065.364-.138.775-.225 1.26-.098.543.265 1.063.809 1.16.06.011.118.016.177.016.476 0 .896-.34.983-.824.208-1.163.349-1.957.438-2.459.04-.158.063-.319.085-.481.023-.132.035-.199.035-.199.002-.014-.003-.026-.001-.04.003-.037.014-.073.016-.11l1.091-19.885c.003.001.007.003.01.004v5.073c0 .743.176 1.554.508 2.346.862 2.056 2.483 3.384 4.131 3.384 2.569 0 4.639-3.135 4.639-5.729v-5.073c.085-.032.166-.073.25-.107l1.103 20.091c.014.261.062.519.125.775l-.004.001s2.315 11.696 2.937 14.803c.095.476.513.804.979.804.064 0 .131-.006.197-.02.541-.108.893-.635.784-1.177-.508-2.539-2.148-10.823-2.728-13.755.661-.285 1.324-.555 1.985-.788 2.43-.861 4.334-2.766 5.225-5.227 1.128-3.116 3.16-8.074 6.439-13.995 3.424-6.182 4.962-5.859 5.031-5.844.271.071.45.528.479.737-.141.331-.759 1.681-3.439 7.168-.202.414-.096.913.259 1.208.354.293.863.311 1.233.036.222-.164.444-.323.669-.477.089-.061.167-.135.232-.221 1.474-1.944 3.412-4.23 5.763-6.795 6.47-7.063 12.604-9.427 15.685-10.207.19-.051.332.045.396.104.054.051.174.191.133.405-.563 2.975-3.22 5.743-4.22 6.785l-.177.185c-.348.367-.366.936-.044 1.325.321.389.885.477 1.311.204 3.102-1.991 7.458-6.114 10.566-9.223.188-.189.403-.128.486-.092.101.042.268.15.263.398-.176 10.023-7.484 16.526-11.826 19.51-.281.193-.444.518-.433.858.012.342.196.653.491.827.067.04.117.092.147.156.237.493.827.704 1.324.473 5.007-2.339 7.73-5.562 9.135-7.854.144-.235.358-.229.474-.203.112.024.306.105.338.373 1.51 12.631-8.081 19.334-12.274 21.63z"/><path d="m54.325 66.938c-.55-.099-1.064.264-1.162.807-.193 1.072-.392 2.162-.575 3.156-.101.544.259 1.065.802 1.165.062.012.123.017.183.017.474 0 .894-.337.982-.818.184-.998.384-2.09.577-3.164.098-.544-.264-1.065-.807-1.163z"/><circle cx="56.914" cy="30.762" r="1.94"/><path d="m66.68 32.702c1.071 0 1.94-.869 1.94-1.94s-.869-1.94-1.94-1.94-1.94.869-1.94 1.94.869 1.94 1.94 1.94z"/><path d="m53.019 72.824c-.513-.204-1.094.048-1.297.563l-1.372 3.475c-.203.514.049 1.095.563 1.297.12.048.245.07.367.07.398 0 .774-.239.93-.633l1.372-3.475c.202-.514-.05-1.095-.563-1.297z"/></g></svg>