<svg id="Layer_1" enable-background="new 0 0 128 128" height="512" viewBox="0 0 128 128" width="512" xmlns="http://www.w3.org/2000/svg"><path d="m110.789 65.068c0-.001 0-.001 0 0-3.005-2.222-6.565-2.939-10.023-2.026-3.729.987-6.943 3.803-8.596 7.532-2.529 5.708-1.391 10.875-.388 15.433.305 1.386.593 2.695.779 3.998.396 2.763.265 5.538-.287 7.722-.217-2.976-.828-6.101-1.853-9.35-.441-1.572-.927-2.922-1.445-4.012-.002-.005-.004-.01-.007-.015-2.883-7.093-7.428-14.069-12.478-19.149-.312-.314-.626-.654-.941-1.013 7.014-3.823 12.251-9.818 14.737-17.112h4.71c.552 0 1-.448 1-1s-.448-1-1-1h-4.106c.326-1.237.57-2.508.738-3.807h3.368c.552 0 1-.448 1-1s-.448-1-1-1h-3.172c.042-.663.07-1.33.07-2.005 0-.607-.02-1.207-.052-1.802h3.154c.552 0 1-.448 1-1s-.448-1-1-1h-3.334c-.261-2.184-.746-4.279-1.436-6.271 4.55-7.759 1.582-16.151.901-17.194-1.42-2.174-7.077-1.184-10.196-.258-1.131.336-2.6.855-3.887 1.568-5.595-3.324-12.486-5.211-20.18-5.211-8.289 0-15.649 2.188-21.458 6.004-1.969-1.302-4.539-2.156-5.653-2.488-1.712-.509-7.41-1.998-8.861.225-1.033 1.582-3.633 11.759 1.942 19.528-.347 1.325-.602 2.692-.77 4.094h-3.75c-.552 0-1 .448-1 1s.448 1 1 1h3.57c-.033.595-.052 1.195-.052 1.802 0 .676.028 1.343.07 2.005h-3.588c-.552 0-1 .448-1 1s.448 1 1 1h3.784c.168 1.299.412 2.57.738 3.807h-4.522c-.552 0-1 .448-1 1s.448 1 1 1h5.126c2.457 7.209 7.604 13.148 14.496 16.976-.354.408-.706.798-1.055 1.149-9.421 9.478-20.049 29.457-14.218 44.234.216.723 1.554 4.463 2.71 6.809-3.787 1.295-5.78 4.338-5.644 8.693.017.54.459.969 1 .969h72.582c.54 0 .982-.429 1-.969.136-4.337-1.84-7.374-5.598-8.678.759-1.355 1.398-2.789 1.917-4.282 3.167-1.246 5.897-3.424 7.908-6.345 4.12-5.982 3.292-14.452 2.94-16.905-.233-1.63-.571-3.167-.899-4.655-.84-3.822-1.504-6.841-.173-9.848.539-1.216 1.584-2.187 2.663-2.473.604-.158 1.684-.327 2.142.331.333.478.11 1.458-.046 1.849-1.094 2.619.316 4.979 2.275 5.955 1.823.909 4.445.762 5.884-1.702l.069-.118c2.173-3.832 1.794-9.741-2.605-12.995z" fill="#e6e7e8"/><path d="m106.195 61.872c-2.757-2.037-6.015-2.698-9.173-1.863-3.439.91-6.406 3.515-7.938 6.97-2.395 5.406-1.295 10.403-.325 14.812.309 1.406.601 2.733.793 4.07.64 4.47.009 8.877-1.609 11.227-.202.293-.413.56-.629.816-.042.663-.103 1.32-.193 1.97-.125 2.302-.446 4.516-1.018 6.477-.087.299-.193.584-.289.877 3.167-1.135 5.871-3.216 7.901-6.164 3.913-5.682 3.113-13.833 2.774-16.196-.228-1.594-.562-3.113-.886-4.582-.845-3.843-1.575-7.162-.111-10.467.667-1.506 1.94-2.669 3.323-3.034 1.092-.288 2.476-.338 3.217.725.761 1.092.056 2.806.056 2.806-1.701 4.071 4.15 7.163 6.378 3.355.019-.033.038-.066.057-.099 1.962-3.459 1.623-8.777-2.328-11.7z" fill="#fa759e"/><path d="m16.729 120.904h72.582c.171-5.486-3.227-7.398-6.122-8.037 1.207-1.919 2.211-4.105 2.914-6.516.572-1.961.893-4.175 1.018-6.477.675-4.851-.041-10.095-1.661-15.229-.417-1.485-.885-2.8-1.385-3.853l-.002.002c-2.961-7.314-7.553-14.127-12.288-18.89-.594-.598-1.19-1.276-1.787-2.011-5.033 2.489-10.883 3.861-17.132 3.861-6.354 0-12.299-1.416-17.388-3.985-.631.783-1.26 1.505-1.887 2.136-10.042 10.102-19.457 29.415-13.98 43.206.103.417 2.034 5.838 3.241 7.757-2.896.638-6.294 2.55-6.123 8.036z" fill="#ffd7e5"/><path d="m89.825 120.904c0-4.345-3.523-7.868-7.868-7.868-2.127 0-4.053.848-5.469 2.219-.531.6-.973 1.333-1.283 2.221.006-.115.025-.228.025-.344 0-4.369-4.003-7.91-8.94-7.91-4.145 0-7.621 2.5-8.633 5.886-.162-3.153-.223-8.008.066-15.497-1.338-1.305-2.927-2.071-4.636-2.071-1.036 0-2.982.634-3.901 1.143-.197 4.74-.233 10.368-.385 15.29-1.472-2.796-4.834-4.751-8.751-4.751-5.058 0-9.187 3.261-9.516 7.383-1.405-2.147-3.827-3.569-6.585-3.569-2.127 0-4.053.848-5.469 2.219-1.098 1.24-1.831 3.036-1.749 5.649h14.925.162 16.611.017 9.783c.042-.047.031-.158-.01-.4.071.133.132.271.211.4h15.72c.259-.422.461-.874.631-1.338-.036.423-.057.862-.042 1.338z" fill="#fff"/><path d="m71.059 62.651c-.577-.448-1.435-.27-1.802.374-1.859 3.267-2.586 5.9-1.634 6.623.947.719 3.306-.641 5.992-3.241.529-.512.488-1.368-.08-1.815-.842-.663-1.666-1.312-2.476-1.941z" fill="#fa759e"/><path d="m77.267 69.233c-.43-.589-.852-1.175-1.266-1.757-.125-.175-.374-.21-.548-.077-4.468 3.38-7.331 6.991-6.447 8.2.884 1.21 5.194-.43 9.768-3.672.178-.126.22-.373.092-.544-.53-.704-1.064-1.419-1.599-2.15z" fill="#fa759e"/><path d="m80.965 74.523c-.258-.633-1.025-.892-1.629-.547-3.284 1.877-5.276 3.79-4.843 4.908.435 1.123 3.202 1.144 6.895.238.678-.166 1.066-.895.812-1.535-.395-.998-.809-2.02-1.235-3.064z" fill="#fa759e"/><path d="m33.966 62.651c.577-.448 1.435-.27 1.802.374 1.859 3.267 2.586 5.9 1.634 6.623-.947.719-3.306-.641-5.992-3.241-.529-.512-.488-1.368.08-1.815.842-.663 1.667-1.312 2.476-1.941z" fill="#fa759e"/><path d="m27.758 69.233c.43-.589.852-1.175 1.266-1.757.125-.175.374-.21.548-.077 4.468 3.38 7.331 6.991 6.447 8.2-.884 1.21-5.194-.43-9.768-3.672-.178-.126-.22-.373-.092-.544.531-.704 1.065-1.419 1.599-2.15z" fill="#fa759e"/><path d="m24.06 74.523c.258-.633 1.025-.892 1.629-.547 3.284 1.877 5.276 3.79 4.843 4.908-.435 1.123-3.202 1.144-6.895.238-.678-.166-1.066-.895-.812-1.535.395-.998.81-2.02 1.235-3.064z" fill="#fa759e"/><path d="m31.438 9.359c-3.598-2.798-12.468-4.872-13.707-2.975-.836 1.281-3.549 11.253 2.195 18.772 1.852-6.588 5.959-11.988 11.512-15.797z" fill="#fff"/><path d="m29.235 11.021c-4.166-2.047-10.474-3.215-11.504-1.638-.81 1.24-3.394 10.638 1.662 18.059 1.299-6.685 4.827-12.284 9.842-16.421z" fill="#fa759e"/><path d="m85.114 23.055c4.425-7.175 1.963-15.313 1.178-16.513-1.198-1.834-9.508-.454-13.302 1.97 5.585 3.448 9.866 8.419 12.124 14.543z" fill="#fff"/><path d="m85.745 24.965c3.56-6.887 1.292-14.284.547-15.424-.972-1.488-6.618-.857-10.743.726 4.862 3.7 8.464 8.703 10.196 14.698z" fill="#fa759e"/><path d="m52.865 3.096c-18.796 0-34.032 12.022-34.032 30.165s15.237 30.492 34.032 30.492c18.796 0 34.033-12.349 34.033-30.492-.001-18.143-15.237-30.165-34.033-30.165z" fill="#ffd7e5"/><g fill="#fa759e"><path d="m86.085 27.123c-.112-.722-.859-1.181-1.567-.965-3.595 1.1-5.931 2.516-5.734 3.695.195 1.173 2.844 1.803 6.582 1.755.736-.009 1.294-.66 1.188-1.375-.157-1.06-.311-2.098-.469-3.11z"/><path d="m86.083 36.17c.091-.724.187-1.439.285-2.147.029-.213-.128-.409-.346-.433-5.569-.608-10.13.053-10.317 1.538-.187 1.487 4.072 3.252 9.624 4.034.216.03.416-.12.44-.333.098-.874.2-1.761.314-2.659z"/><path d="m85.141 42.555c.247-.638-.133-1.352-.809-1.516-3.677-.889-6.438-.865-6.891.245-.455 1.115 1.544 3.03 4.85 4.906.607.344 1.389.081 1.644-.559.399-.996.799-2.024 1.206-3.076z"/><path d="m18.897 27.123c.112-.722.859-1.181 1.567-.965 3.595 1.1 5.931 2.516 5.734 3.695-.195 1.173-2.844 1.803-6.582 1.755-.736-.009-1.294-.66-1.188-1.375.158-1.06.312-2.098.469-3.11z"/><path d="m18.9 36.17c-.091-.724-.187-1.439-.285-2.147-.029-.213.128-.409.346-.433 5.569-.608 10.13.053 10.317 1.538.187 1.487-4.072 3.252-9.624 4.034-.216.03-.416-.12-.44-.333-.098-.874-.201-1.761-.314-2.659z"/><path d="m19.842 42.555c-.247-.638.133-1.352.809-1.516 3.677-.889 6.438-.865 6.891.245.455 1.115-1.544 3.03-4.85 4.906-.607.344-1.389.081-1.644-.559-.399-.996-.799-2.024-1.206-3.076z"/><path d="m40.778 4.573c-.919.259-1.395 1.285-.998 2.154 2.013 4.407 4.231 7.159 5.732 6.719 1.492-.437 1.88-3.917 1.21-8.675-.132-.937-1.067-1.544-1.979-1.294-1.352.37-2.675.733-3.965 1.096z"/><path d="m52.53 3.124c-.955 0-1.9-.007-2.835-.018-.282-.003-.51.229-.506.51.115 7.2 1.715 12.909 3.675 12.909 1.962 0 3.562-5.715 3.676-12.921.004-.28-.223-.511-.504-.508-1.152.016-2.321.028-3.506.028z"/><path d="m60.977 3.299c-.868-.212-1.735.387-1.837 1.275-.557 4.832-.077 8.349 1.438 8.748 1.523.401 3.684-2.455 5.584-6.973.349-.83-.121-1.784-.993-2.007-1.36-.348-2.76-.693-4.192-1.043z"/></g><path d="m66.289 57.7v-15.617c0-5.488-4.449-9.937-9.937-9.937h-6.975c-5.488 0-9.937 4.449-9.937 9.937v15.617c0 1.736.735 3.297 1.905 4.401 3.598 1.078 7.475 1.653 11.519 1.653s7.921-.575 11.519-1.653c1.172-1.105 1.906-2.666 1.906-4.401z" fill="#fff"/><path d="m106.789 61.068c0-.001 0-.001 0 0-3.005-2.222-6.565-2.939-10.023-2.026-3.729.987-6.943 3.803-8.596 7.532-2.529 5.708-1.391 10.875-.388 15.433.305 1.386.593 2.695.779 3.998.395 2.755.261 5.51-.29 7.684-.22-2.965-.829-6.077-1.85-9.313-.441-1.572-.927-2.922-1.445-4.012-.002-.005-.004-.01-.007-.015-2.883-7.093-7.428-14.069-12.478-19.149-.309-.311-.622-.657-.935-1.016 7.011-3.823 12.246-9.817 14.731-17.109h4.71c.552 0 1-.448 1-1s-.448-1-1-1h-4.106c.326-1.237.57-2.508.738-3.807h3.368c.552 0 1-.448 1-1s-.448-1-1-1h-3.172c.042-.663.07-1.33.07-2.005 0-.607-.02-1.207-.052-1.802h3.154c.552 0 1-.448 1-1s-.448-1-1-1h-3.334c-.262-2.193-.75-4.296-1.445-6.294 4.533-7.753 1.589-16.128.909-17.171-1.42-2.174-7.077-1.184-10.196-.258-1.13.336-2.592.861-3.878 1.574-5.597-3.325-12.492-5.214-20.19-5.214-8.291 0-15.652 2.189-21.462 6.006-1.968-1.302-4.535-2.159-5.649-2.49-1.712-.509-7.41-1.998-8.861.225-1.033 1.582-3.633 11.759 1.942 19.528-.347 1.325-.602 2.692-.77 4.094h-3.75c-.552 0-1 .448-1 1s.448 1 1 1h3.57c-.033.595-.052 1.195-.052 1.802 0 .676.028 1.343.07 2.005h-3.588c-.552 0-1 .448-1 1s.448 1 1 1h3.784c.168 1.299.412 2.57.738 3.807h-4.522c-.552 0-1 .448-1 1s.448 1 1 1h5.126c2.456 7.208 7.602 13.146 14.492 16.974-.353.409-.704.801-1.052 1.151-9.421 9.478-20.049 29.457-14.218 44.234.216.723 1.554 4.463 2.71 6.809-3.787 1.295-5.78 4.338-5.644 8.693.017.54.459.969 1 .969h72.582c.54 0 .982-.429 1-.969.136-4.337-1.84-7.374-5.598-8.678.759-1.355 1.398-2.789 1.917-4.282 3.167-1.246 5.897-3.424 7.908-6.345 4.12-5.982 3.292-14.452 2.94-16.905-.233-1.63-.571-3.167-.899-4.655-.84-3.822-1.504-6.841-.173-9.848.539-1.216 1.584-2.187 2.663-2.473.604-.158 1.684-.327 2.142.331.333.478.11 1.458-.046 1.849-1.094 2.619.316 4.979 2.275 5.955 1.823.909 4.445.762 5.884-1.702l.069-.118c2.176-3.834 1.797-9.743-2.602-12.997zm-30.239-53.109c4.433-1.53 8.428-1.478 8.904-.871.446.684 2.61 7.232-.218 13.601-2.213-4.866-5.729-8.994-10.231-12.119.458-.207.968-.412 1.545-.611zm-57.988-1.021c.163-.183.694-.295 1.503-.295 1.528 0 4.045.402 6.925 1.496 1.048.398 1.915.818 2.633 1.23-4.611 3.5-8.072 8.114-10.012 13.513-3.847-6.717-1.784-14.818-1.049-15.944zm1.27 26.323c0-16.899 13.892-29.165 33.032-29.165 19.141 0 33.033 12.266 33.033 29.165 0 16.813-14.201 29.492-33.033 29.492s-33.032-12.679-33.032-29.492zm62.788 78.594c-.677-.112-2.984-.345-4.71 1.267-.404.377-.425 1.01-.048 1.413.197.211.464.317.731.317.245 0 .49-.089.683-.269 1.205-1.125 3.052-.75 3.097-.741.18.04.354.013.518-.04.03.01.051.034.082.04 3.345.739 5.133 2.776 5.327 6.061h-11.589c.384-1.487.239-3.841.01-7.336-.409-6.249-.968-14.808 1.407-23.517.145-.533-.169-1.083-.702-1.228-.536-.143-1.082.169-1.228.702-2.463 9.031-1.868 18.144-1.474 24.173.192 2.941.432 6.601-.104 7.096-.042-.005-.083-.008-.125-.008h-5.814v-4.037c0-.552-.448-1-1-1s-1 .448-1 1v4.037h-2.444v-4.037c0-.552-.448-1-1-1s-1 .448-1 1v4.037h-1.539c-1.175 0-2.13-.956-2.13-2.13v-3.804c0-.552-.448-1-1-1s-1 .448-1 1v3.804c0 .83.251 1.6.674 2.248h-8.445c.423-.648.674-1.418.674-2.248v-25.083c0-.552-.448-1-1-1s-1 .448-1 1v25.084c0 1.175-.956 2.13-2.13 2.13h-1.539v-4.037c0-.552-.448-1-1-1s-1 .448-1 1v4.037h-2.444v-4.037c0-.552-.448-1-1-1s-1 .448-1 1v4.037h-5.814c-.042 0-.077.034-.119.04-.542-.527-.302-4.187-.11-7.127.394-6.03.99-15.142-1.473-24.174-.146-.533-.696-.847-1.228-.702-.533.146-.847.695-.702 1.228 2.375 8.708 1.816 17.268 1.407 23.517-.229 3.495-.374 5.848.01 7.335h-11.589c.193-3.285 1.981-5.322 5.327-6.061.001 0 .002-.002.004-.002h.004c.018-.004 1.88-.39 3.092.743.193.18.438.269.683.269.267 0 .534-.106.731-.317.377-.403.355-1.036-.048-1.413-1.387-1.296-3.152-1.399-4.143-1.332-1.119-2.103-2.678-6.442-2.809-6.921-.011-.044-.024-.087-.042-.129-5.537-13.942 4.713-33.03 13.76-42.131.486-.489.969-1.04 1.451-1.614 5.004 2.408 10.814 3.758 17.114 3.758 6.193 0 11.913-1.304 16.859-3.636.449.529.899 1.037 1.352 1.492 4.886 4.915 9.285 11.68 12.07 18.56.016.041.035.08.057.118.458.978.894 2.199 1.304 3.659 1.695 5.375 2.242 10.351 1.616 14.875-.127 2.357-.457 4.46-.979 6.251-.6 2.056-1.455 3.994-2.523 5.783zm25.903-38.285-.921-.406c-.855 1.462-2.296 1.415-3.271.93-1.128-.563-1.975-1.831-1.319-3.399.093-.227.883-2.262-.161-3.758-.855-1.227-2.38-1.624-4.293-1.121-1.668.441-3.194 1.82-3.981 3.597-1.597 3.605-.797 7.239.049 11.089.319 1.45.649 2.95.872 4.507.326 2.271 1.1 10.103-2.608 15.487-1.487 2.16-3.339 3.823-5.521 4.962.015-.064.026-.132.041-.196.035-.155.066-.315.098-.472.069-.334.134-.674.192-1.021.029-.175.058-.351.084-.53.055-.366.102-.738.145-1.116.018-.155.038-.308.053-.465.054-.539.099-1.087.128-1.646.071-.514.127-1.054.171-1.634.002-.03.007-.058.009-.088.161-.201.321-.411.475-.635 1.752-2.545 2.449-7.23 1.775-11.935-.197-1.375-.493-2.72-.806-4.144-.938-4.258-2-9.084.263-14.192 1.41-3.18 4.131-5.576 7.279-6.409 2.858-.755 5.814-.151 8.322 1.701 3.506 2.595 3.797 7.326 2.053 10.401z" fill="#3a2c60"/><path d="m57.569 103.793c-.552 0-1 .448-1 1v4.429c0 .552.448 1 1 1s1-.448 1-1v-4.429c0-.552-.448-1-1-1z" fill="#3a2c60"/><path d="m57.569 91.572c-.552 0-1 .448-1 1v7.553c0 .552.448 1 1 1s1-.448 1-1v-7.553c0-.552-.448-1-1-1z" fill="#3a2c60"/><circle cx="40.259" cy="30.358" fill="#3a2c60" r="3.047"/><circle cx="65.47" cy="30.358" fill="#3a2c60" r="3.047"/><path d="m58.492 60.88c3.654 0 6.627-2.973 6.627-6.627 0-.552-.448-1-1-1s-1 .448-1 1c0 2.551-2.076 4.627-4.627 4.627s-4.627-2.076-4.627-4.627v-8.658l5.144-5.144c.321-.321.094-.871-.361-.871h-11.566c-.455 0-.682.55-.361.871l5.144 5.144v8.658c0 2.551-2.075 4.627-4.626 4.627s-4.627-2.076-4.627-4.627c0-.552-.448-1-1-1s-1 .448-1 1c0 3.654 2.973 6.627 6.627 6.627 2.375 0 4.456-1.26 5.626-3.143 1.17 1.883 3.251 3.143 5.627 3.143z" fill="#3a2c60"/><circle cx="47.038" cy="46.652" fill="#fa759e" r=".83"/><circle cx="41.703" cy="49.092" fill="#fa759e" r=".83"/><circle cx="42.136" cy="43.944" fill="#fa759e" r=".83"/><circle cx="58.399" cy="46.518" fill="#fa759e" r=".83"/><circle cx="63.734" cy="48.958" fill="#fa759e" r=".83"/><circle cx="63.3" cy="43.81" fill="#fa759e" r=".83"/></svg>