<svg id="Layer_1" enable-background="new 0 0 128 128" height="512" viewBox="0 0 128 128" width="512" xmlns="http://www.w3.org/2000/svg"><path d="m124.271 78.314c-.193-.244-.407-.465-.622-.685-.375-1.061-.894-2.052-1.594-2.936-4.222-5.328-12.293-5.508-20.275-.526-.297-.266-.633-.512-.963-.754-.335-.247-.705-.52-.892-.725-.703-1.64-1.102-3.4-1.102-5.215v-15.095c0-5.584-1.788-10.748-4.815-14.962-1.268-2.536-2.926-4.835-4.897-6.824.606-1.399.946-2.94.946-4.559 0-6.347-5.163-11.51-11.51-11.51-5.185 0-9.577 3.448-11.012 8.171h-.121c-1.435-4.723-5.826-8.171-11.012-8.171-6.347 0-11.51 5.163-11.51 11.51 0 .891.112 1.755.304 2.589-6.057 4.896-9.941 12.38-9.941 20.757v15.095c0 .973-.135 1.948-.376 2.907-.051.171-.092.35-.141.522-.502 1.685-1.358 3.304-2.54 4.74-.611.742-1.173 1.555-1.678 2.424-8.305-5.867-18.066-6.093-22.596-.374-4.723 5.961-1.703 16.246 6.731 22.929 1.502 1.189 3.072 2.182 4.664 2.987 1.113.798 2.253 1.5 3.409 2.084l-3.727 1.591c-.451.192-.695.685-.577 1.16.118.477.56.804 1.054.756.756-.058 3.075.011 3.788 1.126.64 1.002-.09 2.733-.814 4.011-.25.441-.13 1 .279 1.3.411.301.98.245 1.324-.128.854-.92 3.563-3.217 5.777-2.87 1.182.192 2.177 1.153 2.959 2.854-.022.125-.051.243-.064.374-.087.883.109 2.042.919 2.648 1.114.836 2.272.042 2.894-.386.147-.102.292-.202.434-.284.534-.303 1.167-.192 1.652.291.18.18.358.421.547.677.308.418.658.893 1.134 1.241.381.279.837.424 1.293.424.274 0 .548-.053.806-.159.654-.272 1.093-.847 1.203-1.577.059-.387.011-.74-.026-1.025-.017-.125-.036-.25-.037-.376-.004-.429.276-.801.542-.934.355-.176.841-.145 1.353-.11l2.622.175c.285.008.555-.081.757-.274.748-.715.826-1.961.572-2.877-.161-.584-.429-1.071-.665-1.501-.079-.145-.159-.289-.233-.437-.309-.611-.695-1.882-1.037-3.552.684.082 1.376.135 2.082.135 12.923 4.956 24.54 5.856 34.63 2.011-.181.613-.358 1.097-.514 1.407-.074.148-.154.292-.233.437-.236.43-.505.917-.665 1.5-.254.918-.176 2.164.572 2.878.203.193.491.288.757.274l2.621-.175c.514-.035.999-.065 1.353.11.267.132.548.505.543.935-.001.126-.021.251-.037.376-.038.284-.085.639-.025 1.024.11.729.548 1.305 1.202 1.577.257.106.531.159.806.159.455 0 .912-.145 1.293-.424.477-.349.825-.822 1.134-1.24.188-.256.366-.498.547-.678.485-.483 1.117-.594 1.651-.291.144.082.288.184.436.284.622.428 1.782 1.223 2.894.386.81-.606 1.006-1.766.92-2.649-.054-.545-.192-1.025-.326-1.49-.032-.111-.061-.222-.091-.332.614-.801 1.316-1.276 2.104-1.404 2.216-.353 4.923 1.95 5.776 2.87.347.374.917.429 1.324.128.41-.3.53-.858.28-1.3-.725-1.277-1.454-3.009-.814-4.01.714-1.116 3.035-1.186 3.789-1.127.483.046.936-.279 1.054-.756.118-.476-.126-.968-.577-1.16l-1.182-.505c2.361-.873 4.729-2.188 6.942-3.942 8.014-6.351 10.955-15.987 6.568-21.525z" fill="#e6e7e8"/><path d="m26.171 96.606-10.774 4.598s8.085-.699 3.928 6.626c0 0 6.882-7.456 10.401.289l5.564-9.221z" fill="#fa759e"/><path d="m96.775 96.606 10.774 4.598s-8.085-.699-3.928 6.626c0 0-6.882-7.456-10.401.289l-5.564-9.221z" fill="#fa759e"/><path d="m117.271 71.314c-4.06-5.125-12.009-4.933-19.668.156-.457-.769-1.928-1.504-2.494-2.191-2.056-2.498-3.286-5.571-3.286-8.806v-5.253l-.026-11.002c-.304-6.832-3.277-12.969-7.902-17.396.738-1.437 1.162-3.062 1.162-4.789 0-5.804-4.705-10.51-10.51-10.51-4.999 0-9.175 3.494-10.24 8.171h-1.666c-1.064-4.677-5.24-8.171-10.24-8.171-5.804 0-10.51 4.706-10.51 10.51 0 1.029.154 2.021.43 2.96-6.118 4.695-10.067 12.077-10.067 20.385v15.095c0 3.235-1.23 6.308-3.286 8.806-.825 1.002-1.529 2.105-2.118 3.275-7.963-6.125-17.813-6.707-22.144-1.24-4.387 5.538-1.446 15.174 6.569 21.524 7.592 6.014 17.004 6.912 21.706 2.286 2.752 1.791 6.03 2.841 9.558 2.841 14.83 5.688 27.942 6.039 38.998 0 3.012 0 5.846-.761 8.324-2.097 4.924 3.756 13.687 2.636 20.839-3.029 8.017-6.351 10.958-15.987 6.571-21.525z" fill="#fff"/><path d="m120.271 74.314c-4.06-5.125-12.009-4.933-19.668.156-.457-.769-1.928-1.504-2.494-2.191-2.056-2.498-3.286-5.571-3.286-8.806v-5.253l-.026-11.002c-.304-6.832-3.277-12.969-7.902-17.396.738-1.437 1.162-3.062 1.162-4.789 0-5.804-4.705-10.51-10.51-10.51-4.999 0-9.175 3.494-10.24 8.171h-1.666c-1.064-4.677-5.24-8.171-10.24-8.171-5.804 0-10.51 4.706-10.51 10.51 0 1.029.154 2.021.43 2.96-6.118 4.695-10.067 12.077-10.067 20.385v15.095c0 3.235-1.23 6.308-3.286 8.806-.825 1.002-1.529 2.105-2.118 3.275-7.963-6.125-17.813-6.707-22.144-1.24-4.387 5.538-1.446 15.174 6.569 21.524 7.592 6.014 17.004 6.912 21.706 2.286 2.752 1.791 6.03 2.841 9.558 2.841 14.83 5.688 27.942 6.039 38.998 0 3.012 0 5.846-.761 8.324-2.097 4.924 3.756 13.687 2.636 20.839-3.029 8.017-6.351 10.958-15.987 6.571-21.525z" fill="#fa759e"/><path d="m65.739 87.086c-2.276 1.568-5.274 1.781-7.613.31-5.607-3.525-13.198-3.894-13.198 1.92 0 7.399 7.678 13.398 17.149 13.398s17.149-5.999 17.149-13.398c-.001-5.844-7.99-6.019-13.487-2.23z" fill="#fff"/><g fill="#ffd7e5"><circle cx="112.807" cy="83.166" r="1.122"/><circle cx="110.015" cy="72.554" r="1.122"/><circle cx="116.075" cy="76.711" r="1.122"/><circle cx="8.565" cy="83.166" r="1.122"/><circle cx="11.357" cy="72.554" r="1.122"/><circle cx="5.296" cy="76.711" r="1.122"/><path d="m80.767 38.4c-1.782 0-3.227.985-3.227 2.201 0 1.215 1.445 2.2 3.227 2.2s3.227-.985 3.227-2.2c0-1.216-1.445-2.201-3.227-2.201z"/><path d="m43.258 38.4c-1.782 0-3.227.985-3.227 2.201 0 1.215 1.445 2.2 3.227 2.2s3.227-.985 3.227-2.2c0-1.216-1.445-2.201-3.227-2.201z"/></g><path d="m42.757 76.567c-1.098 4.678-.918 9.631-1.105 14.501-.234 6.086 1.079 12.039 1.952 13.765.29.574.648 1.103.827 1.751.18.649.124 1.484-.299 1.888-.874-.058-1.748-.116-2.622-.174-.628-.042-1.276-.079-1.864.213s-1.106 1.006-1.097 1.839c.004.417.137.833.075 1.242-.137.905-1.113 1.102-1.722.656s-1.009-1.265-1.566-1.82c-.802-.799-1.932-.978-2.854-.451-.736.421-1.535 1.261-2.233.738-.438-.329-.589-1.09-.524-1.751s.297-1.27.454-1.904c.714-2.899-.364-6.626-.569-9.6-.245-3.557-.264-7.144-.13-10.71.285-7.569.094-15.68 2.278-22.722z" fill="#fa759e"/><path d="m81.396 76.567c1.098 4.678.918 9.631 1.105 14.501.234 6.086-1.079 12.039-1.952 13.765-.29.574-.648 1.103-.827 1.751-.18.649-.124 1.484.299 1.888.874-.058 1.748-.116 2.622-.174.628-.042 1.276-.079 1.864.213s1.106 1.006 1.097 1.839c-.004.417-.137.833-.075 1.242.137.905 1.113 1.102 1.722.656s1.009-1.265 1.566-1.82c.802-.799 1.932-.978 2.854-.451.736.421 1.535 1.261 2.233.738.438-.329.589-1.09.524-1.751s-.297-1.27-.454-1.904c-.714-2.899.364-6.626.569-9.6.245-3.557.264-7.144.13-10.71-.285-7.569-.821-14.873-3.005-21.915z" fill="#fa759e"/><path d="m118.056 70.693c-4.223-5.327-12.296-5.506-20.275-.525-.297-.267-.634-.513-.964-.756-.358-.263-.765-.561-.935-.768-1.012-1.229-1.786-2.592-2.304-4.015-.077-.272-.14-.55-.224-.82-.021-.066-.063-.117-.095-.175-.285-1.04-.435-2.102-.435-3.161 0-.553-.447-1-1-1s-1 .447-1 1c0 1.505.267 3.01.754 4.466l.01-.011c1.627 5.589 1.808 11.875 1.969 17.967.035 1.307.069 2.606.118 3.894.144 3.799.102 7.267-.129 10.604-.061.893-.205 1.863-.358 2.891-.354 2.377-.72 4.834-.183 7.017.052.212.112.421.172.63.114.396.222.77.258 1.131.034.356-.032.658-.092.792-.163-.072-.429-.254-.599-.371-.194-.133-.388-.265-.575-.372-1.306-.747-2.938-.503-4.056.61-.289.287-.522.604-.747.909-.244.331-.475.645-.704.813-.06.044-.13.04-.143 0-.016-.104.007-.277.031-.461.027-.206.053-.413.055-.619.012-1.144-.651-2.247-1.652-2.745-.841-.419-1.73-.356-2.374-.315l-1.947.129c-.013-.162-.003-.368.056-.579.099-.356.288-.701.489-1.066.091-.165.182-.33.267-.499.99-1.959 2.292-8.163 2.058-14.255-.041-1.084-.064-2.172-.088-3.26-.082-3.784-.166-7.698-1.042-11.432-.127-.539-.666-.867-1.202-.745-.538.126-.871.664-.745 1.202.828 3.529.91 7.336.989 11.018.023 1.1.048 2.198.09 3.293.079 2.042-.023 4.058-.22 5.893-.077.021-.152.049-.222.087-10.403 5.684-23.244 5.664-38.16-.056-.008-.003-.017-.002-.024-.004-.199-1.843-.302-3.868-.224-5.92.042-1.092.066-2.188.089-3.284.079-3.685.161-7.494.99-11.026.126-.538-.208-1.076-.745-1.202-.539-.124-1.076.208-1.202.745-.876 3.736-.961 7.652-1.042 11.44-.023 1.085-.046 2.17-.088 3.251-.234 6.094 1.068 12.297 2.058 14.255.085.168.176.333.267.498.201.366.391.711.489 1.068.059.211.068.416.056.578l-1.946-.129c-.647-.042-1.534-.102-2.377.315-1 .498-1.664 1.602-1.651 2.745.002.206.027.413.055.618.024.185.047.357.038.493-.022.01-.094.009-.149-.031-.229-.168-.461-.481-.706-.813-.225-.306-.458-.621-.745-.907-1.118-1.114-2.748-1.36-4.057-.611-.188.108-.381.239-.575.372-.169.116-.432.297-.595.37-.064-.141-.129-.439-.095-.789.036-.363.144-.738.258-1.135.06-.208.12-.417.172-.628.538-2.183.171-4.642-.183-7.019-.153-1.027-.297-1.997-.359-2.889-.229-3.336-.271-6.805-.128-10.604.039-1.048.072-2.118.106-3.202.211-6.843.43-13.918 2.272-19.857.006-.021.001-.042.006-.062.253-1.052.393-2.122.393-3.193v-15.098c0-7.731 3.526-14.873 9.675-19.592.328-.251.467-.678.351-1.074-.258-.881-.389-1.782-.389-2.679 0-5.244 4.266-9.511 9.51-9.511 4.464 0 8.273 3.04 9.264 7.394.104.455.508.778.975.778h1.666c.467 0 .872-.323.975-.778.99-4.354 4.801-7.394 9.265-7.394 5.244 0 9.51 4.267 9.51 9.511 0 1.515-.354 2.972-1.052 4.331-.202.394-.121.873.198 1.18 4.614 4.417 7.311 10.354 7.594 16.718.024.553.53.973 1.043.955.552-.024.979-.492.955-1.043-.295-6.64-3.021-12.85-7.692-17.567.634-1.45.954-2.985.954-4.573 0-6.347-5.163-11.511-11.51-11.511-5.134 0-9.553 3.321-11.01 8.172h-.126c-1.457-4.851-5.875-8.172-11.009-8.172-6.347 0-11.51 5.164-11.51 11.511 0 .862.1 1.728.296 2.579-6.321 5.099-9.933 12.63-9.933 20.766v15.095c0 .974-.135 1.95-.376 2.91-.051.169-.092.347-.14.519-.502 1.685-1.358 3.305-2.541 4.742-.611.742-1.173 1.554-1.678 2.423-8.305-5.865-18.065-6.092-22.596-.374-4.722 5.962-1.702 16.247 6.731 22.93 5.872 4.651 12.777 6.392 18.066 4.977.075.64.164 1.293.266 1.976.26 1.742.52 3.528.392 5.094-.903-1.114-1.977-1.804-3.231-2.006-.266-.042-.531-.063-.794-.063-1.398 0-2.753.56-3.878 1.235.116-.997-.06-1.863-.527-2.592-.468-.73-1.158-1.206-1.896-1.515l2.21-.943c-.846-.311-1.694-.667-2.535-1.093l-3.727 1.591c-.451.192-.695.685-.577 1.16s.563.801 1.054.756c.754-.056 3.076.011 3.788 1.126.64 1.002-.09 2.733-.814 4.011-.25.441-.13 1 .279 1.3.411.302.98.245 1.324-.128.854-.919 3.565-3.228 5.777-2.87 1.182.192 2.177 1.153 2.958 2.853-.021.124-.051.242-.064.373-.087.882.109 2.041.919 2.649 1.114.837 2.272.041 2.894-.386.147-.102.292-.202.435-.284.531-.306 1.166-.195 1.652.292.18.179.358.421.547.677.308.418.657.892 1.133 1.24.381.279.837.424 1.293.424.274 0 .548-.053.806-.159.654-.272 1.093-.847 1.203-1.577.059-.387.011-.741-.026-1.025-.017-.126-.036-.251-.037-.377-.004-.428.276-.8.542-.933.358-.178.864-.146 1.354-.11l2.622.174c.278.011.553-.081.756-.274.749-.713.827-1.959.573-2.878-.161-.582-.429-1.069-.665-1.498-.08-.145-.159-.289-.234-.438-.4-.792-.93-2.679-1.324-5.124 7.346 2.712 14.218 4.081 20.571 4.081 6.256 0 12.006-1.332 17.22-3.963-.392 2.389-.912 4.227-1.306 5.006-.075.148-.154.293-.234.438-.236.43-.504.916-.664 1.498-.254.919-.176 2.166.573 2.879.201.192.476.278.755.273l2.623-.174c.585-.039 1.021-.054 1.352.11.267.132.548.505.543.934-.001.126-.021.251-.037.376-.038.285-.085.64-.025 1.025.11.729.548 1.305 1.202 1.577.257.106.531.159.806.159.455 0 .912-.145 1.293-.424.477-.349.825-.822 1.133-1.239.188-.257.367-.499.548-.679.485-.483 1.117-.598 1.651-.291.144.082.288.184.436.284.622.429 1.778 1.222 2.896.385.808-.607 1.004-1.767.918-2.649-.054-.544-.192-1.024-.326-1.489-.031-.108-.06-.217-.089-.325.613-.804 1.314-1.283 2.102-1.411 2.209-.35 4.923 1.95 5.776 2.87.347.375.917.429 1.324.128.41-.3.53-.858.28-1.3-.725-1.277-1.454-3.009-.814-4.01.714-1.117 3.035-1.184 3.789-1.127.485.048.936-.279 1.054-.756.118-.476-.126-.968-.577-1.16l-1.183-.505c-1.018.376-2.034.668-3.037.878l.169.072c-.738.309-1.428.785-1.896 1.515-.467.729-.643 1.595-.526 2.592-1.336-.803-2.993-1.44-4.673-1.173-.752.121-1.433.435-2.058.891.026-1.272.228-2.638.427-3.977.082-.551.16-1.086.227-1.608 4.962.518 10.881-1.346 15.931-5.347 8.43-6.682 11.449-16.969 6.728-22.93zm-106.157 21.361c-7.57-5.997-10.443-15.022-6.406-20.119 3.842-4.848 12.748-4.366 20.125.964v4.934c0 .553.448 1 1 1s1-.447 1-1v-4.673c.042-.053.097-.095.128-.156.491-.976 1.07-1.863 1.7-2.681-.581 4.377-.728 8.967-.859 13.2-.034 1.08-.066 2.146-.106 3.188-.013.332-.016.649-.025.977-9.784-7.305-17.797-11.8-17.888-11.852-.482-.266-1.091-.095-1.36.388-.269.482-.096 1.091.387 1.36.094.052 8.631 4.843 18.813 12.569-.018 2.211.034 4.327.153 6.386-4.714 1.415-11.237-.187-16.662-4.485zm98.182 0c-4.664 3.695-10.077 5.429-14.511 4.942.169-2.693.217-5.481.15-8.447 9.206-6.778 16.578-10.916 16.666-10.964.482-.27.656-.878.388-1.36-.271-.483-.882-.653-1.36-.388-.086.048-6.969 3.91-15.759 10.283-.037-1.087-.07-2.178-.098-3.278-.111-4.163-.232-8.417-.804-12.525.268.239.56.471.882.707.343.252.744.55.971.79v4.897c0 .553.447 1 1 1s1-.447 1-1v-4.686c7.15-4.564 14.292-4.624 17.884-.09 4.035 5.096 1.161 14.123-6.409 20.119z" fill="#3a2c60"/><path d="m91.81 48.581c-.001 0-.002 0-.002 0-.553.001-.999.45-.998 1.002l.013 5.639c.001.552.448.998 1 .998h.002c.553-.001.999-.45.998-1.002l-.013-5.639c-.001-.552-.448-.998-1-.998z" fill="#3a2c60"/><path d="m51.122 25.024c1.652 0 2.991-1.339 2.991-2.991s-1.339-2.991-2.991-2.991-2.991 1.339-2.991 2.991 1.339 2.991 2.991 2.991z" fill="#3a2c60"/><path d="m77.54 22.033c0-1.652-1.339-2.991-2.991-2.991s-2.991 1.339-2.991 2.991 1.339 2.991 2.991 2.991c1.651 0 2.991-1.339 2.991-2.991z" fill="#3a2c60"/><path d="m47.091 48.55c-.004 0-.008 0-.011 0-.466-.013-1.06-.725-1.316-1.202-.257-.487-.86-.678-1.349-.42-.489.256-.678.86-.422 1.35.107.205 1.021 1.842 2.536 2.193.708 5.587 7.77 9.994 16.365 9.994 8.605 0 15.674-4.417 16.366-10.015.864-.241 1.657-.946 2.364-2.12.285-.473.133-1.088-.341-1.372-.473-.286-1.088-.132-1.372.341-.479.797-.964 1.252-1.33 1.252-.004 0-.007 0-.011 0-.466-.013-1.062-.726-1.317-1.204-.257-.486-.86-.676-1.348-.418-.489.256-.679.86-.422 1.35.089.17.723 1.323 1.793 1.918-.539 4.614-6.775 8.269-14.382 8.269-7.649 0-13.91-3.696-14.388-8.346.582-.365 1.128-.957 1.629-1.789.285-.473.132-1.088-.341-1.372-.472-.285-1.087-.131-1.373.341-.48.795-.964 1.25-1.33 1.25z" fill="#3a2c60"/></svg>