<svg id="Layer_1" enable-background="new 0 0 128 128" height="512" viewBox="0 0 128 128" width="512" xmlns="http://www.w3.org/2000/svg"><path d="m123.656 70.434-6.287-2.765c1.51-.652 2.57-2.153 2.57-3.899 0-2.026-1.427-3.718-3.327-4.141-.86-4.26-2.636-8.234-5.143-11.754-6.128-11.365-19.135-19.253-34.058-19.253-19.628 0-35.94 13.643-37.639 30.9h-1.036c-.224 0-.439.033-.654.066.408-.909.739-1.86.975-2.85.985-4.124.305-8.384-1.914-11.997-2.22-3.612-5.713-6.144-9.837-7.128-8.516-2.035-17.092 3.239-19.125 11.751-2.032 8.513 3.24 17.092 11.752 19.125 1.233.294 2.479.44 3.716.44 2.085 0 4.144-.421 6.078-1.232 2.344 3.42 5.983 5.896 9.31 7.595-2.572 4.457-4.275 10.231-2.404 16.831.194.683.656 1.103 1.026 1.44l.165.152c.621.586 1.447 1.132 2.424 1.585.134.763.307 1.536.53 2.321.205.725.701 1.176 1.1 1.538l.181.167c1.77 1.669 5.047 3.053 8.901 3.053 2.818 0 5.945-.74 9.017-2.65.954-.593 1.524-1.648 1.488-2.753-.075-2.355-.077-7.425.957-12.006h29.782c1.034 4.582 1.032 9.651.957 12.006-.036 1.104.534 2.159 1.488 2.753 3.072 1.911 6.198 2.651 9.018 2.651 3.854 0 7.132-1.385 8.9-3.054l.181-.167c.398-.362.895-.813 1.1-1.537.134-.471.245-.938.346-1.401.548-.289 1.038-.599 1.44-.924l.181-.142c.411-.32.922-.719 1.145-1.392 2.345-7.088-.362-13.159-3.795-17.547.267-.49.511-.994.729-1.511l9.601-2.385c.415-.104.719-.459.755-.885.037-.427-.202-.829-.594-1.001z" fill="#e6e7e8"/><path d="m107.954 73.296c-.581.968-1.26 1.868-2.028 2.687 2.754 4.454 4.653 10.092 3.386 16.552.677-.316 1.256-.661 1.694-1.016.404-.327.853-.612 1.005-1.071 2.287-6.915-.471-12.816-4.057-17.152z" fill="#fa759e"/><path d="m41.375 74.956c-.414-.524-.79-1.077-1.135-1.652-.281-.013-.565-.056-.849-.165-.897-.344-1.899-.768-2.946-1.267-2.828 4.469-4.749 10.274-2.848 16.976.138.488.548.791.916 1.139.62.585 1.534 1.151 2.651 1.599-.988-6.565 1.255-12.238 4.211-16.63z" fill="#fa759e"/><path d="m110.205 64.369v.841c0 1.994-.386 3.894-1.061 5.65l10.11-2.511z" fill="#ffd7e5"/><path d="m40.018 64.017c1.794 1.626 2.929 3.93 3.057 6.438.084 1.659-1.293 2.917-2.828 2.849.344.57.712 1.125 1.123 1.646 1.463-2.168 3.097-4.027 4.604-5.519 2.698-2.672 6.861-3.165 10.083-1.156 3.137 1.955 4.227 5.914 2.726 9.292-.468 1.054-.843 2.207-1.146 3.402h31.355c-.303-1.194-.678-2.348-1.146-3.402-1.5-3.379-.411-7.337 2.726-9.292 3.222-2.008 7.385-1.515 10.083 1.156 1.741 1.724 3.648 3.94 5.268 6.555 2.648-2.819 4.282-6.603 4.282-10.776v-1.194h-70.187z" fill="#d4fbff"/><path d="m110.139 57.522c-1.145-17.236-17.145-30.901-36.728-30.901s-35.583 13.665-36.728 30.901z" fill="#fff"/><path d="m111.692 57.522c.396 0 .77.081 1.121.211-2.585-15.897-17.888-28.111-36.402-28.111-18.432 0-33.684 12.106-36.369 27.901h71.65z" fill="#0089ef"/><g fill="#ffd7e5"><path d="m111.692 57.522h-76.956c-1.042 0-1.958.499-2.552 1.261 1.052 1.301 2.601 2.595 4.911 3.439 1.107.404 2.081 1.032 2.923 1.795h71.674c1.794 0 3.247-1.454 3.247-3.247.001-1.794-1.453-3.248-3.247-3.248z"/><path d="m37.095 62.222c-2.525-.922-4.147-2.382-5.197-3.801-1.474 2.161-3.474 3.885-5.787 5.008 3.058 5.069 9.226 8.153 13.28 9.71 1.837.705 3.784-.72 3.684-2.685-.187-3.685-2.514-6.966-5.98-8.232z"/><ellipse cx="19.62" cy="50.05" rx="14.872" ry="14.872" transform="matrix(.852 -.524 .524 .852 -23.299 17.679)"/></g><ellipse cx="22.034" cy="55.16" fill="#fa759e" rx="3.55" ry="1.753"/><path d="m45.974 69.431c-4.979 4.931-11.381 13.813-8.232 24.918.152.535.601.868 1.005 1.249 2.584 2.438 9.728 4.62 16.703.281.647-.403 1.042-1.11 1.018-1.872-.095-2.956-.098-11.005 2.316-16.44 1.5-3.379.411-7.337-2.726-9.292-3.223-2.009-7.387-1.516-10.084 1.156z" fill="#ffd7e5"/><path d="m100.655 69.431c4.979 4.931 11.381 13.813 8.232 24.918-.152.535-.601.868-1.005 1.249-2.584 2.438-9.728 4.62-16.703.281-.647-.403-1.042-1.11-1.018-1.872.095-2.956.098-11.005-2.316-16.44-1.5-3.379-.411-7.337 2.726-9.292 3.223-2.009 7.386-1.516 10.084 1.156z" fill="#ffd7e5"/><path d="m119.655 67.434-6.286-2.765c1.51-.652 2.57-2.153 2.57-3.9 0-2.342-1.905-4.248-4.247-4.248h-.645c-1.699-17.257-18.008-30.9-37.636-30.9s-35.937 13.643-37.636 30.9h-1.039c-.223 0-.438.026-.651.06.407-.907.737-1.856.973-2.844.985-4.124.305-8.384-1.914-11.997-2.22-3.612-5.713-6.144-9.837-7.128-8.515-2.036-17.093 3.239-19.125 11.751-2.032 8.513 3.239 17.093 11.751 19.125 1.233.294 2.479.44 3.717.44 2.091 0 4.155-.422 6.095-1.239 2.342 3.418 5.973 5.899 9.294 7.6-2.572 4.457-4.276 10.232-2.404 16.832.194.684.656 1.104 1.027 1.441l.164.15c.62.585 1.447 1.127 2.423 1.579.134.765.308 1.541.531 2.328.205.725.701 1.176 1.1 1.538l.181.166c1.769 1.67 5.046 3.054 8.9 3.054 2.818 0 5.946-.741 9.018-2.651.954-.593 1.524-1.648 1.488-2.753-.075-2.355-.077-7.425.957-12.006h29.782c1.034 4.582 1.032 9.651.957 12.006-.036 1.105.534 2.16 1.488 2.753 3.072 1.911 6.198 2.651 9.018 2.651 3.854 0 7.132-1.385 8.9-3.054l.181-.167c.398-.362.895-.813 1.1-1.537.134-.472.245-.939.346-1.403.548-.288 1.038-.597 1.44-.922l.181-.142c.411-.32.922-.719 1.145-1.392 2.346-7.093-.368-13.167-3.805-17.555.266-.487.511-.986.729-1.5l9.61-2.387c.415-.104.719-.459.755-.885.035-.425-.204-.827-.596-.999zm-10.623-10.913h-15.888l-9.926-21.674 7.425-2.696c.184-.067.322-.192.434-.337 9.874 5.038 16.841 14.143 17.955 24.707zm-43.42-21.243h15.604l9.729 21.243h-34.882zm23.116-4.558-7.047 2.558h-16.54l-7.047-2.558c4.653-1.982 9.848-3.099 15.317-3.099 5.47 0 10.664 1.117 15.317 3.099zm-32.984 1.096c.112.144.25.27.434.336l7.433 2.698-9.741 21.671h-16.08c1.114-10.564 8.081-19.668 17.954-24.705zm-39.346 31.727c-1.582-.378-3.026-1.027-4.318-1.867 2.162-.863 3.696-2.975 3.696-5.441 0-.552-.447-1-1-1s-1 .448-1 1c0 2.078-1.654 3.766-3.714 3.846-3.45-3.299-5.121-8.284-3.935-13.253 1.52-6.361 7.221-10.651 13.493-10.651 1.063 0 2.144.124 3.222.381 3.604.861 6.657 3.073 8.598 6.23 1.939 3.157 2.534 6.88 1.673 10.484-.86 3.604-3.073 6.657-6.23 8.597-3.158 1.94-6.883 2.533-10.485 1.674zm11.138.254c.131-.075.264-.144.393-.224 1.554-.955 2.893-2.156 4.009-3.531 1.123 1.197 2.668 2.335 4.813 3.119 3.064 1.119 5.154 4.002 5.324 7.344.03.596-.229 1.139-.711 1.488-.477.345-1.063.425-1.616.212-3.613-1.387-9.131-4.085-12.212-8.408zm8.426 26.046c-.305-.196-.563-.394-.763-.583l-.191-.176c-.211-.192-.411-.374-.449-.508-1.688-5.953-.241-11.187 2.26-15.428.783.353 1.532.664 2.215.926.207.079.418.137.631.178.161.249.336.486.509.726-2.545 3.967-4.572 9.038-4.212 14.865zm19.506 4.196c.012.394-.197.773-.547.991-2.636 1.64-5.228 2.27-7.536 2.325v-6.571c0-.552-.447-1-1-1s-1 .448-1 1v6.477c-.816-.098-1.572-.266-2.268-.474v-6.003c0-.552-.447-1-1-1s-1 .448-1 1v5.214c-.72-.366-1.296-.761-1.685-1.127l-.209-.192c-.253-.229-.471-.428-.521-.603-2.936-10.35 2.717-18.728 7.975-23.935 1.398-1.385 3.229-2.102 5.074-2.102 1.3 0 2.607.356 3.775 1.084 2.683 1.672 3.667 5.052 2.341 8.038-2.475 5.577-2.503 13.661-2.399 16.878zm3.486-14.071c.217-.694.462-1.364.743-1.996 1.735-3.906.427-8.342-3.111-10.547-3.617-2.255-8.272-1.722-11.314 1.295-.398.394-.816.827-1.245 1.292-.163-1.838-.788-3.55-1.789-4.995h23.081c.553 0 1-.448 1-1s-.447-1-1-1h-24.919c-.872-.729-1.859-1.331-2.963-1.734-1.695-.619-2.938-1.497-3.859-2.426.339-.207.732-.334 1.158-.334h76.956c1.239 0 2.247 1.008 2.247 2.248s-1.008 2.248-2.247 2.248h-31.034c-.553 0-1 .448-1 1s.447 1 1 1h28.547v.194c0 3.44-1.201 6.594-3.185 9.104-1.543-2.286-3.23-4.175-4.663-5.594h.001c-3.046-3.017-7.698-3.548-11.316-1.294-3.537 2.205-4.846 6.641-3.11 10.546.281.632.526 1.302.743 1.996h-28.721zm48.971 14.108c-.05.174-.268.373-.521.602l-.209.192c-1.017.96-3.296 2.116-6.214 2.413v-6.5c0-.552-.447-1-1-1s-1 .448-1 1v6.561c-1.056-.045-2.168-.213-3.314-.542v-6.019c0-.552-.447-1-1-1s-1 .448-1 1v5.275c-.649-.291-1.302-.619-1.96-1.029-.35-.217-.559-.597-.547-.991.104-3.217.076-11.301-2.4-16.879-1.326-2.985-.342-6.365 2.34-8.038 1.169-.728 2.476-1.083 3.776-1.083 1.845 0 3.676.717 5.074 2.102 5.258 5.208 10.911 13.586 7.975 23.936zm3.137-3.942c-.031.093-.274.285-.45.422.529-5.586-1.162-10.502-3.471-14.456.31-.36.602-.733.881-1.119 3.063 4.091 4.993 9.247 3.04 15.153zm-.424-20.675c.303-1.148.484-2.342.534-3.572l4.998 2.198z" fill="#3a2c60"/><path d="m76.658 63.017h-7.34c-.553 0-1 .448-1 1s.447 1 1 1h7.34c.553 0 1-.448 1-1s-.447-1-1-1z" fill="#3a2c60"/><ellipse cx="18.483" cy="47.699" fill="#3a2c60" rx="4.179" ry="4.179" transform="matrix(.852 -.524 .524 .852 -22.236 16.735)"/></svg>