<svg id="Layer_1" enable-background="new 0 0 128 128" height="512" viewBox="0 0 128 128" width="512" xmlns="http://www.w3.org/2000/svg"><path d="m127.023 83.144c-.482-1.786-2.681-2.35-4.523-2.559 2.453-2.503 3.153-4.389 2.142-5.736-.551-.735-2.005-2.672-12.876 3.519-5.134-2.213-9.513-6.203-12.063-11.008-2.321-4.371-3.365-9.227-4.375-13.923-1.065-4.952-2.166-10.071-4.752-14.776-4.844-8.813-14.312-14.702-25.327-15.755-1.114-.107-2.22-.148-3.319-.154-2.602-1.762-23.069-15.048-39.846-8.942-8.714 3.171-14.824 11.048-18.16 23.412-.003.009-.002.019-.004.028-.004.017-.004.035-.008.052-.019.103-.022.206-.008.308.002.018.002.036.005.054.021.113.064.22.123.321.006.011.006.023.013.034s.019.016.026.027c.016.023.028.049.046.072.056.067.121.125.19.175.018.013.037.021.056.032.083.051.171.09.265.115.023.006.043.015.066.02.087.018.176.027.265.021.168-.012 14.672-.932 26.046 4.956-1.945 4.379-3.253 9.182-3.812 14.29-2.09 19.099 7 37.846 22.62 46.647 4.459 2.512 9.05 4.053 13.635 4.859.07.158.171.304.319.411l10.882 7.849c1.177.849 2.539 1.275 3.902 1.275 1.299 0 2.601-.387 3.746-1.163 2.347-1.59 3.419-4.395 2.731-7.145-.018-.071-.044-.141-.077-.207l-.283-.563c4.39.789 9.29.495 14.347.025 6.442-.599 13.904-2.603 20.869-5.212 2.984-1.118 2.912-5.233.229-6.406-.003-.071.005-.14-.001-.212-.157-1.968-1.467-3.494-3.349-3.954.209-.135.432-.277.635-.409 7.31-4.755 10.278-7.956 9.625-10.378z" fill="#e6e7e8"/><path d="m33.688 30.435c5.954-7.167 14.912-10.626 23.91-10.668l.02-.018s-44.622-31.134-56.728 13.733c0 0 15.542-1.097 27.419 5.507 1.434-3.057 3.214-5.947 5.379-8.554z" fill="#fa759e"/><path d="m116.149 77.417c2.272-1.98 4.721-4.597 3.693-5.968-1.344-1.792-8.513 2.019-12.008 4.032-5.499-2.242-10.227-6.4-13.016-11.653-4.833-9.103-4.152-19.647-9.12-28.687-10.066-18.314-38.628-20.813-52.01-4.706-5.471 6.586-8.574 14.94-9.5 23.4-1.971 18 6.059 36.619 22.116 45.668 15.255 8.596 33.289 5.873 48.674-.854 6.287-2.748 12.135-6.231 17.875-9.965 17.931-11.665 4.505-11.082 3.296-11.267z" fill="#0089ef"/><path d="m67.576 21.137c-11.839-3.434-25.702-.555-33.888 9.298-5.471 6.586-8.574 14.94-9.5 23.4-.343 3.138-.383 6.294-.128 9.414.94 11.532 12.876 11.11 22.12 4.153 33.4-25.137 26.832-39.621 21.396-46.265z" fill="#d4fbff"/><circle cx="52.89" cy="34.931" fill="#fff" r="11.109"/><path d="m60.352 104.832 10.882 7.849c4.29 3.094 10.107-.847 8.824-5.978l-1.504-2.992c-5.396 1.336-11.585 1.536-18.202 1.121z" fill="#ffd7e5"/><path d="m69.564 64.19c-8.341 6.162-9.292 21.157-5.124 28.948 5.787 10.818 16.294 10.627 27.575 9.579 6.442-.599 13.904-2.603 20.869-5.212 3.237-1.213 2.886-5.962-.503-6.645-7.112-1.434-14.01-4.725-19.785-11.944-5.096-6.37-7.049-13.058-12.553-15.494-3.961-1.755-7.608-1.353-10.479.768z" fill="#fff"/><path d="m72.564 65.19c-8.341 6.162-9.292 21.157-5.124 28.948 5.787 10.818 16.294 10.627 27.575 9.579 6.442-.599 13.904-2.603 20.869-5.212 3.237-1.213 2.886-5.962-.503-6.645-7.112-1.434-14.01-4.725-19.785-11.944-5.096-6.37-7.049-13.058-12.553-15.494-3.961-1.755-7.608-1.353-10.479.768z" fill="#6dc9f7"/><g fill="#3a2c60"><path d="m123.023 79.144c-.482-1.786-2.681-2.35-4.523-2.559 2.453-2.502 3.153-4.388 2.142-5.736-.551-.735-2.005-2.672-12.876 3.519-5.133-2.213-9.512-6.203-12.063-11.008-2.321-4.372-3.365-9.227-4.375-13.923-1.065-4.951-2.166-10.071-4.752-14.777-4.844-8.812-14.312-14.701-25.326-15.754-1.114-.106-2.219-.147-3.318-.153-2.594-1.758-23.07-15.052-39.848-8.943-8.714 3.171-14.824 11.048-18.16 23.412-.003.009-.002.019-.004.028-.004.017-.004.035-.008.052-.019.103-.022.206-.008.308.002.018.002.036.005.054.021.114.065.221.124.322.006.01.006.023.013.033.01.016.025.028.036.043.013.018.021.038.036.056.015.019.035.032.052.049.028.029.056.057.086.082s.062.047.095.068c.037.024.073.046.113.065.033.015.066.027.101.039.041.014.082.028.125.037.038.008.077.011.116.014.029.002.056.01.085.01.011 0 .021-.004.032-.004.013 0 .025.003.038.002.149-.01 14.672-.953 26.049 4.951-1.946 4.381-3.255 9.186-3.815 14.295-2.09 19.1 7 37.846 22.62 46.647 4.458 2.512 9.05 4.053 13.635 4.859.07.158.171.304.319.411l10.882 7.85c1.177.849 2.539 1.275 3.902 1.275 1.3 0 2.601-.387 3.746-1.163 2.347-1.59 3.419-4.394 2.731-7.144-.018-.071-.043-.141-.077-.207l-.851-1.693c.643-.138 1.281-.282 1.914-.437.643.027 1.29.044 1.946.044 2.638 0 5.375-.199 8.149-.457 6.053-.563 13.556-2.435 21.127-5.271 1.912-.716 3.042-2.504 2.877-4.555-.157-1.968-1.466-3.494-3.348-3.954.209-.135.431-.277.634-.409 7.307-4.755 10.275-7.956 9.622-10.378zm-104.26-67.453c13.148-4.787 29.365 3.497 35.636 7.214-4.277.399-8.344 1.561-11.995 3.406-.016.008-.032.016-.048.024-.397.202-.788.412-1.175.63-.121.068-.241.138-.362.207-.342.198-.681.399-1.014.61-.168.106-.331.218-.496.327-.428.283-.849.575-1.262.879-.295.217-.59.434-.877.662-.189.151-.372.308-.558.464-.27.226-.538.454-.8.689-.171.153-.339.309-.505.466-.282.266-.558.538-.829.816-.134.137-.27.271-.401.411-.397.423-.786.854-1.158 1.302-.479.577-.944 1.173-1.394 1.786-3.3-1.379-7.815-2.828-12.862-3.241 3.724-3.521 2.779-13.646-4.714-14.158 1.498-1.03 3.099-1.869 4.814-2.494zm-13.75 20.734c9.494-4.13 19.359-1.595 25.35.844-.172.262-.336.531-.503.798-.72 1.144-1.403 2.316-2.016 3.541-8.132-4.198-17.528-5.065-22.831-5.183zm74.1 74.625c.525 2.286-.648 4.026-1.937 4.899-1.308.887-3.401 1.333-5.356-.078l-8.157-5.884c3.165.092 6.049.006 8.703-.248.046-.004.091-.009.137-.013.347-.034.692-.07 1.031-.11 1.531-.162 3.043-.382 4.531-.653zm35.006-13.005c.072.896-.301 2.017-1.549 2.505-22.929 5.585-32.501-7.33-32.9-7.887-.319-.448-.942-.553-1.393-.235-.45.32-.556.944-.236 1.395.087.122 7.399 10.095 23.786 10.095.023 0 .049-.002.072-.002-3.58.906-6.967 1.526-9.975 1.805-11.338 1.055-21.167 1.1-26.601-9.055-4.16-7.775-2.745-22.071 4.836-27.672 2.689-1.986 5.967-2.215 9.479-.659 3.288 1.455 5.292 4.708 7.611 8.475.782 1.269 1.59 2.581 2.503 3.923.311.458.933.576 1.389.264.457-.311.575-.933.264-1.389-.887-1.304-1.684-2.597-2.453-3.847-2.495-4.05-4.649-7.548-8.505-9.255-4.146-1.835-8.224-1.523-11.478.88-8.568 6.33-9.966 21.71-5.412 30.224 3.006 5.618 7.249 8.404 12.191 9.659-.954.167-1.942.31-2.974.421-8.488.813-17.507-.282-25.981-5.057-14.932-8.414-23.618-26.373-21.613-44.688.966-8.82 4.173-16.729 9.275-22.87 5.481-6.598 14.009-10.337 23.276-10.337 1.099 0 2.209.053 3.325.159 10.355.99 19.239 6.496 23.764 14.727 2.445 4.449 3.515 9.423 4.549 14.234 1.039 4.829 2.113 9.823 4.564 14.44 2.841 5.351 7.77 9.765 13.521 12.109.286.118.608.095.876-.059 7.65-4.407 10.331-4.589 10.709-4.299.179.238-.089 1.598-3.55 4.614-.293.256-.412.659-.303 1.033s.424.651.809.709c.128.02.374.035.699.052 3.588.179 4.293.833 4.395 1.208.095.35.115 2.391-8.784 8.181-.704.458-1.46.941-2.235 1.432-3.648-.99-6.873-2.458-9.784-4.471-.455-.315-1.078-.201-1.391.253-.314.454-.201 1.077.253 1.391 3.791 2.622 8.053 4.384 13.032 5.388 1.322.266 1.868 1.314 1.939 2.206z"/><path d="m93.377 78.29c-.345-.432-.976-.501-1.405-.156-.432.345-.501.974-.156 1.405 1.439 1.799 3.006 3.429 4.657 4.845.188.162.42.241.65.241.282 0 .562-.118.76-.349.359-.419.311-1.05-.108-1.41-1.557-1.335-3.037-2.874-4.398-4.576z"/><path d="m52.89 29.681c-2.9 0-5.25 2.351-5.25 5.25 0 2.9 2.351 5.25 5.25 5.25s5.25-2.351 5.25-5.25c0-2.9-2.351-5.25-5.25-5.25z"/></g></svg>