<svg id="Layer_1" enable-background="new 0 0 128 128" height="512" viewBox="0 0 128 128" width="512" xmlns="http://www.w3.org/2000/svg"><path d="m110.735 49.586c-1.159-6.574-7.451-10.981-14.024-9.82-.02.003-.044.011-.065.015.013-.016.032-.033.045-.049 4.291-5.113 3.622-12.764-1.492-17.055-2.478-2.079-5.615-3.073-8.837-2.786-3.222.281-6.14 1.801-8.218 4.278-.013.015-.027.037-.04.053 0-.021.003-.046.003-.067 0-6.676-5.431-12.106-12.106-12.106s-12.105 5.431-12.105 12.106c0 .02.003.046.003.067-.013-.016-.027-.038-.04-.053-4.29-5.113-11.943-5.782-17.056-1.492-2.478 2.078-3.996 4.997-4.278 8.219-.282 3.221.708 6.359 2.787 8.836.013.016.032.033.045.049-.021-.004-.046-.011-.066-.015-3.184-.565-6.396.151-9.046 2.006s-4.417 4.63-4.978 7.814c-.563 3.185.15 6.397 2.005 9.046 1.854 2.649 4.63 4.417 7.814 4.978.02.003.047.004.068.008-.018.01-.043.021-.061.031-2.801 1.616-4.804 4.228-5.641 7.351-.837 3.124-.407 6.386 1.209 9.187.955 1.654 2.255 2.975 3.744 3.972-.809 4.803.046 8.647 2.69 10.172.872.504 1.882.72 3.026.649 1.583 5.525 5.215 10.132 10.209 13.384h-1.011c-1.557 0-2.823 1.267-2.823 2.823s1.267 2.823 2.823 2.823h2.873l-.209.218c-1.076 1.124-1.037 2.915.087 3.993 1.083 1.036 2.961.991 3.992-.087l2.752-2.874 2.723 3.028c.534.594 1.3.935 2.1.935.697 0 1.366-.257 1.888-.724 1.157-1.041 1.253-2.83.212-3.988l-1.069-1.189c1.478.169 2.989.273 4.539.273 1.832 0 3.617-.125 5.347-.361l-1.803 2.006c-1.042 1.157-.947 2.947.213 3.99.52.465 1.188.722 1.886.722.8 0 1.564-.341 2.1-.936l2.723-3.027 2.753 2.874c1.043 1.09 2.903 1.131 3.991.086.545-.521.854-1.225.87-1.979s-.262-1.469-.783-2.014l-.209-.218h2.873c1.557 0 2.823-1.267 2.823-2.823s-1.267-2.823-2.823-2.823h-2.294c5.613-3.274 9.712-8.155 11.417-14.114 1.163.084 2.2-.134 3.099-.646.001-.001.002-.001.003-.002 2.296-1.324 3.331-4.38 2.915-8.604-.024-.239-.066-.488-.098-.731 2.137-1.047 3.916-2.702 5.132-4.809 1.617-2.8 2.047-6.063 1.209-9.187-.837-3.123-2.84-5.733-5.641-7.351-.018-.01-.042-.021-.061-.031.02-.003.048-.004.068-.008 6.572-1.158 10.977-7.449 9.818-14.023z" fill="#e6e7e8"/><path d="m62.001 9.049c-6.134 0-11.106 4.973-11.106 11.106 0 6.134 11.106 33.318 11.106 33.318s11.106-27.185 11.106-33.318-4.972-11.106-11.106-11.106z" fill="#6dc9f7"/><path d="m50.895 20.155s8.955-7.94 22.101 0l-1.23 6.105s-9.62-5.239-19.641 0z" fill="#d4fbff"/><path d="m49.092 20.811c-3.943-4.699-10.948-5.312-15.647-1.369s-5.312 10.948-1.369 15.646c3.943 4.699 29.924 18.385 29.924 18.385s-8.965-27.963-12.908-32.662z" fill="#6dc9f7"/><path d="m32.077 35.089s1.756-11.838 16.93-14.206l2.982 5.468s-10.737 2.17-15.046 12.625z" fill="#d4fbff"/><path d="m31.117 36.75c-6.041-1.065-11.801 2.968-12.866 9.009s2.969 11.801 9.009 12.866c6.041 1.065 34.741-5.152 34.741-5.152s-24.843-15.657-30.884-16.723z" fill="#6dc9f7"/><path d="m27.26 58.625s-6.264-10.198 3.838-21.765l5.799 2.272s-6.83 8.564-3.411 19.342z" fill="#d4fbff"/><path d="m27.593 60.514c-5.312 3.067-7.132 9.859-4.065 15.171s9.859 7.132 15.171 4.065 23.301-26.277 23.301-26.277-29.095 3.975-34.407 7.041z" fill="#6dc9f7"/><path d="m38.7 79.751s-11.354-3.785-11.05-19.14l5.902-1.987s.273 10.951 9.82 17.009z" fill="#d4fbff"/><path d="m96.408 60.514c-5.312-3.067-34.407-7.041-34.407-7.041s17.989 23.21 23.301 26.277 12.104 1.247 15.171-4.065c3.067-5.311 1.247-12.104-4.065-15.171z" fill="#6dc9f7"/><path d="m96.408 60.514s2.399 11.725-11.05 19.14l-4.672-4.118s9.347-5.712 9.82-17.009z" fill="#d4fbff"/><path d="m105.75 45.759c-1.065-6.041-6.825-10.074-12.866-9.009s-30.883 16.723-30.883 16.723 28.7 6.217 34.741 5.152c6.04-1.065 10.073-6.825 9.008-12.866z" fill="#6dc9f7"/><path d="m92.884 36.75s9.374 7.44 3.838 21.765l-6.226-.151s3.489-10.384-3.411-19.342z" fill="#d4fbff"/><path d="m90.556 19.442c-4.699-3.943-11.704-3.33-15.647 1.369-3.943 4.698-12.909 32.662-12.909 32.662s25.982-13.686 29.924-18.385c3.944-4.698 3.331-11.703-1.368-15.646z" fill="#6dc9f7"/><path d="m74.91 20.811s11.963-.326 16.93 14.206l-4.867 3.886s-4.002-10.197-15.046-12.625z" fill="#d4fbff"/><path d="m52.765 106.476c-.085-.304-.243-.592-.488-.826-.582-.556-1.434-.644-2.11-.288h-8.847c-1.007 0-1.824.816-1.824 1.824s.816 1.824 1.824 1.824h5.215l-1.828 1.909c-.697.727-.672 1.882.056 2.579.353.338.808.506 1.261.506.479 0 .959-.188 1.317-.562l3.498-3.652 3.442 3.829c.36.4.858.604 1.357.604.434 0 .87-.155 1.219-.467.749-.673.81-1.826.137-2.576z" fill="#d4fbff"/><path d="m81.165 106.091h-8.847c-.676-.357-1.529-.269-2.11.288-.245.234-.403.522-.488.826l-4.228 4.703c-.673.749-.612 1.903.137 2.576.349.313.784.467 1.219.467.499 0 .997-.204 1.357-.604l3.442-3.829 3.498 3.652c.358.374.838.562 1.317.562.454 0 .908-.168 1.261-.506.727-.697.752-1.851.056-2.579l-1.828-1.909h5.215c1.007 0 1.824-.816 1.824-1.824-.001-1.006-.817-1.823-1.825-1.823z" fill="#d4fbff"/><path d="m55.63 23.523c1.687-.859 3.59-1.353 5.613-1.353 2.01 0 3.903.489 5.582 1.338.28-.452.521-.969.702-1.531.742-2.291.236-4.5-1.117-4.94-.994-.318-2.16.399-3.008 1.695-.465-1.149-1.247-1.907-2.136-1.907-.937 0-1.753.856-2.201 2.111-.897-1.288-2.111-1.981-3.097-1.614-1.337.481-1.753 2.714-.929 4.972.164.446.366.855.591 1.229z" fill="#0089ef"/><path d="m75.36 57.061c-1.762-1.328-3.638-2.442-5.601-3.301-2.959 1.018-3.894-3.532-4.152-7.59-1.358.514-2.827.799-4.365.799-2.238 0-4.332-.601-6.144-1.639l-1.208 7.746c-2.592.905-5.046 2.274-7.304 3.978-.717-.147-1.508-.106-2.348.09 5.168 6.904 18.952 21.014 34.007.131-1.042-.32-2.012-.401-2.885-.214z" fill="#fa759e"/><path d="m92.89 89.462c-.954.546-2.095.652-3.342.408-2.739 11.265-14.387 18.723-28.342 18.723-13.947 0-25.595-7.458-28.342-18.715-1.223.228-2.339.122-3.269-.416-4.002-2.307-3.114-11.338 1.981-20.174 3.823-6.611 8.909-11.216 12.903-12.146 5.168 6.904 18.952 21.014 34.007.131 3.913 1.166 8.746 5.665 12.414 12.015 5.104 8.836 5.992 17.868 1.99 20.174z" fill="#ffd7e5"/><path d="m61.243 22.17c-6.848 0-12.4 5.551-12.4 12.399s5.552 12.4 12.4 12.4 12.4-5.552 12.4-12.4-5.552-12.399-12.4-12.399z" fill="#fff"/><path d="m64.243 25.17c-6.848 0-12.4 5.551-12.4 12.399s5.552 12.4 12.4 12.4 12.4-5.552 12.4-12.4-5.552-12.399-12.4-12.399z" fill="#fa759e"/><path d="m65.593 40.453s-1.013 15.576 4.414 13.222c5.426-2.354-4.414-13.222-4.414-13.222z" fill="#0089ef"/><path d="m56.836 40.166s3.305-1.024 4.407-1.024 4.407 1.024 4.407 1.024c.446 0 .772.422.659.854l-4.407 16.827c-.178.678-1.141.678-1.318 0l-4.407-16.827c-.114-.431.212-.854.659-.854z" fill="#d4fbff"/><path d="m58.401 43.404 2.531-.913c.255-.092.533-.094.789-.006l2.768.95c.722.248 1.486-.239 1.567-.998l.102-.956c.057-.534-.251-1.039-.751-1.234l-3.977-1.545c-.283-.11-.598-.107-.88.008l-3.057 1.249c-.465.19-.76.651-.738 1.153l.054 1.227c.037.8.838 1.337 1.592 1.065z" fill="#0089ef"/><g fill="#3a2c60"><path d="m106.735 45.585c-1.159-6.573-7.46-10.979-14.024-9.819-.02.004-.044.01-.065.014.013-.015.033-.033.045-.048 2.079-2.477 3.068-5.615 2.786-8.836-.281-3.222-1.801-6.141-4.278-8.219s-5.611-3.072-8.836-2.786c-3.222.281-6.141 1.801-8.219 4.278-.013.016-.027.037-.041.053 0-.021.003-.047.003-.067 0-6.676-5.431-12.106-12.106-12.106s-12.105 5.431-12.105 12.106c0 .02.003.045.003.065-.013-.016-.027-.036-.04-.052-4.291-5.114-11.942-5.782-17.055-1.492-2.478 2.078-3.997 4.997-4.278 8.219-.282 3.221.707 6.359 2.786 8.836.013.016.031.033.045.05-.02-.004-.045-.012-.064-.015-6.577-1.163-12.865 3.246-14.024 9.819-.563 3.185.15 6.397 2.005 9.046 1.854 2.649 4.63 4.417 7.814 4.979.02.004.048.004.069.008-.018.01-.044.021-.062.031-2.8 1.617-4.804 4.228-5.641 7.351-.837 3.124-.407 6.387 1.209 9.187.952 1.649 2.25 2.963 3.734 3.958-.092.537-.166 1.066-.217 1.582-.415 4.225.621 7.279 2.915 8.602.873.505 1.887.721 3.027.651 1.583 5.525 5.215 10.132 10.209 13.384h-1.01c-1.558 0-2.824 1.267-2.824 2.823s1.267 2.823 2.824 2.823h2.872l-.209.218c-.521.545-.8 1.26-.783 2.014s.325 1.457.869 1.978c1.08 1.036 2.953.998 3.994-.085l2.752-2.874 2.722 3.027c.535.595 1.301.936 2.101.936.696 0 1.366-.257 1.888-.725 1.156-1.04 1.252-2.829.211-3.987l-1.069-1.189c1.478.169 2.989.273 4.539.273 1.832 0 3.617-.125 5.347-.361l-1.803 2.006c-.505.562-.761 1.285-.721 2.038.04.754.371 1.446.932 1.949.52.468 1.19.725 1.888.725.8 0 1.564-.341 2.101-.936l2.722-3.028 2.753 2.874c1.037 1.082 2.912 1.122 3.991.087.545-.521.854-1.225.87-1.979.017-.754-.262-1.47-.783-2.014l-.209-.218h2.873c1.557 0 2.823-1.267 2.823-2.823s-1.267-2.823-2.823-2.823h-2.294c5.613-3.274 9.712-8.155 11.418-14.114 1.163.082 2.201-.134 3.098-.648.001 0 .002 0 .002-.001 2.297-1.323 3.332-4.379 2.916-8.603-.024-.241-.066-.491-.099-.736 2.136-1.047 3.917-2.698 5.133-4.804 1.617-2.8 2.047-6.063 1.21-9.187-.837-3.123-2.841-5.733-5.641-7.351-.018-.01-.041-.021-.06-.031.02-.003.047-.004.066-.008 6.572-1.16 10.977-7.451 9.818-14.025zm-13.677-7.851c5.483-.96 10.739 2.71 11.708 8.198.967 5.487-2.711 10.739-8.198 11.708-3.145.554-13.343-1.039-22.65-2.785-.709-.449-1.425-.864-2.148-1.24.381-.433.646-.949.774-1.543.197-.909.047-1.956-.297-3.044 4.888-2.737 10.632-6.075 14.88-8.912 2.598-1.279 4.711-2.166 5.931-2.382zm-46.605 20.298c.261.036.526-.022.736-.181 2.257-1.702 4.622-2.991 7.03-3.831.349-.122.603-.426.659-.79l.999-6.403c.288.126.58.243.877.349l2.862 10.924c.197.752.851 1.256 1.627 1.256s1.43-.504 1.627-1.256l2.171-8.292c.406 2.006 1.094 3.761 2.258 4.58.389.274.943.53 1.656.53.23 0 .48-.033.743-.095 1.724.786 3.42 1.799 5.061 3.036.232.176.531.238.812.179.285-.061.587-.086.911-.073-4.689 6.062-9.598 9.177-14.607 9.271-6.565-.019-12.145-5.228-15.422-9.204zm14.79-34.863c6.286 0 11.399 5.114 11.399 11.4 0 3.33-1.447 6.314-3.733 8.397-.581-.795-1.134-1.49-1.585-2.034.021-.397-.095-.789-.345-1.112-.283-.367-.695-.597-1.149-.645-.308-.094-.922-.277-1.616-.463l-2.421-.941c-.524-.204-1.101-.198-1.621.014l-3.058 1.248c-.005.002-.009.007-.015.009-.178.052-.335.1-.446.134-.454.048-.866.277-1.149.645-.321.416-.429.946-.296 1.453l.904 3.45c-3.711-1.88-6.269-5.717-6.269-10.155 0-6.286 5.114-11.4 11.4-11.4zm-5.265-1.218c-.432-1.184-.48-2.438-.126-3.197.085-.18.231-.41.465-.494.419-.155 1.215.223 1.929 1.247.214.307.575.468.953.42.371-.05.683-.303.809-.655.31-.865.815-1.447 1.259-1.447.419 0 .894.504 1.209 1.283.14.345.459.584.83.62.363.03.73-.137.934-.448.591-.904 1.376-1.447 1.861-1.292.615.2 1.105 1.733.476 3.682l-.001.001c-.058.181-.134.351-.208.522-1.58-.656-3.309-1.023-5.124-1.023-1.826 0-3.566.37-5.154 1.034-.037-.086-.08-.165-.112-.253zm14.612 29.698c-.112.521-.415.862-.981 1.108-.634.271-.952.141-1.159-.005-1.304-.917-1.851-4.853-1.93-8.595l.164-.626c.024-.035.049-.069.07-.105 2.134 2.798 4.244 6.34 3.836 8.223zm-6.028-10.655c-.019.375-.037.846-.048 1.393l-2.468-.847c-.23-.078-.471-.118-.711-.118-.252 0-.504.044-.741.13l-2.531.913c-.073.024-.134.003-.169-.021-.036-.024-.08-.069-.084-.147l-.054-1.228c-.003-.065.034-.121.086-.157 1.272-.369 2.854-.767 3.401-.767.404 0 1.374.218 2.367.48zm-5.822 3.351 2.532-.913c.04-.013.084-.017.124 0l2.768.949c.071.025.144.038.216.055l-3.137 11.981-3.131-11.954c.211-.012.422-.043.628-.118zm16.935-22.891c1.735-2.067 4.172-3.336 6.861-3.571.301-.026.6-.04.898-.04 2.369 0 4.642.824 6.479 2.365 2.067 1.735 3.336 4.172 3.571 6.861s-.591 5.309-2.325 7.377c-1.968 2.344-10.163 7.342-18.104 11.84-.432.437-.909.827-1.404 1.193-.449-.976-1.013-1.952-1.606-2.868 2.805-2.452 4.596-6.031 4.596-10.043 0-2.625-.77-5.069-2.079-7.138.033-.111.063-.218.095-.327 1.17-2.656 2.221-4.698 3.018-5.649zm-13.674-11.405c5.572 0 10.106 4.534 10.106 10.106 0 1.097-.397 2.976-1.05 5.322-.85-.917-1.825-1.713-2.9-2.364.12-.268.23-.543.322-.83.923-2.854.149-5.576-1.766-6.199-1.042-.337-2.185.017-3.168.926-.626-.76-1.423-1.186-2.279-1.186-.931 0-1.779.496-2.42 1.376-1.026-.879-2.199-1.198-3.216-.819-.688.248-1.237.774-1.589 1.525-.587 1.253-.565 3.021.059 4.732.062.168.135.327.207.487-.587.357-1.15.75-1.674 1.19-.464-1.803-.738-3.251-.738-4.161 0-5.571 4.533-10.105 10.106-10.105zm-29.159 24.397c-1.734-2.068-2.561-4.688-2.325-7.377s1.504-5.126 3.571-6.861c1.89-1.585 4.194-2.359 6.487-2.359 2.887 0 5.755 1.227 7.751 3.605.692.824 1.574 2.47 2.559 4.625-1.899 2.313-3.042 5.271-3.042 8.49 0 4.723 2.463 8.87 6.166 11.252l-.226 1.451c-4.95-2.958-11.07-6.489-15.89-8.869-2.416-1.612-4.252-3.005-5.051-3.957zm-5.408 23.195c-2.659-.47-4.976-1.945-6.524-4.156s-2.143-4.894-1.674-7.552c.864-4.896 5.14-8.353 9.949-8.353.58 0 1.169.051 1.759.154 3.43.605 13.862 6.475 22.508 11.663l-.458 2.939c-1.505.567-2.987 1.309-4.437 2.189-4.974.838-10.44 1.855-14.727 2.902-2.882.316-5.175.428-6.396.214zm-3.04 17.545c-1.35-2.338-1.708-5.061-1.01-7.669.699-2.607 2.371-4.786 4.709-6.136 1.751-1.011 6.454-2.18 12.036-3.292-3.311 2.224-6.727 6.043-9.419 10.701-1.776 3.081-3.085 6.255-3.85 9.241-.967-.766-1.813-1.715-2.466-2.845zm31.855 36.661c.304.338.276.86-.061 1.163-.33.297-.87.267-1.164-.062l-3.441-3.828c-.187-.206-.45-.326-.729-.331-.005 0-.011 0-.016 0-.272 0-.533.111-.723.309l-3.496 3.651c-.308.319-.85.33-1.167.024-.158-.151-.249-.356-.253-.576-.005-.22.076-.429.229-.588l1.828-1.909c.276-.289.354-.716.197-1.084s-.52-.607-.92-.607h-5.213c-.454 0-.824-.369-.824-.823s.37-.823.824-.823h4.643c2.337 1.091 4.875 1.938 7.588 2.483zm24.917-4.755c.454 0 .823.369.823.823s-.369.823-.823.823h-5.215c-.4 0-.763.239-.92.607s-.079.795.197 1.084l1.829 1.91c.152.158.233.367.229.587s-.095.424-.255.577c-.317.305-.86.291-1.163-.025l-3.498-3.652c-.192-.2-.447-.272-.738-.309-.278.005-.542.125-.729.331l-3.441 3.829c-.296.328-.835.357-1.164.062-.163-.146-.26-.349-.271-.568s.063-.431.211-.594l3.548-3.947c1.731-.396 3.389-.912 4.965-1.538zm11.225-18.496c-.628.359-1.415.462-2.329.334-.29-.3-.847-.895-1.547-1.744-.352-.424-.98-.484-1.408-.135-.426.352-.486.982-.135 1.408.613.742 1.119 1.299 1.46 1.66-2.825 10.469-13.68 17.474-27.227 17.474-13.447 0-24.241-6.909-27.162-17.257 1.397-1.031 4.459-4.162 7.678-13.16.187-.521-.085-1.093-.604-1.278-.519-.187-1.092.085-1.278.604-3.467 9.692-6.66 12.039-7.245 12.402-.997.173-1.84.071-2.499-.309-1.552-.895-2.253-3.327-1.925-6.675.361-3.671 1.878-7.979 4.271-12.132 3.285-5.68 7.787-10.133 11.47-11.432 3.37 4.34 9.769 10.885 17.73 10.885.043 0 .087 0 .13-.001.038 0 .076-.005.115-.005.042 0 .083.006.126.005 5.9-.053 11.566-3.68 16.849-10.784 3.654 1.425 7.967 5.775 11.176 11.331 2.398 4.152 3.918 8.462 4.28 12.134.327 3.348-.374 5.78-1.926 6.675zm8.226-21.079c.699 2.608.341 5.331-1.01 7.669-.913 1.581-2.224 2.826-3.772 3.7-.722-3.229-2.118-6.722-4.068-10.098-2.563-4.437-5.738-8.091-8.881-10.347 2.451.386 4.826.719 6.945.951 2.813.689 5.004 1.368 6.078 1.988 2.338 1.351 4.01 3.529 4.708 6.137z"/><path d="m82.815 77.416c-.275-.774-.51-1.553-.695-2.313-.132-.536-.674-.864-1.21-.733-.536.132-.864.673-.733 1.21.203.825.456 1.669.754 2.507.146.409.531.665.942.665.111 0 .225-.019.335-.058.52-.186.792-.757.607-1.278z"/><path d="m83.968 80.257c-.251-.491-.854-.686-1.346-.436-.492.252-.687.854-.436 1.346.535 1.046 1.324 2.496 2.695 4.434.195.275.504.423.817.423.199 0 .401-.06.576-.184.451-.319.559-.943.239-1.394-1.296-1.835-2.041-3.203-2.545-4.189z"/><path d="m55.181 34.17c1.093 0 1.979-.958 1.979-2.139s-.886-2.139-1.979-2.139-1.979.958-1.979 2.139.886 2.139 1.979 2.139z"/><path d="m67.304 34.651c1.093 0 1.979-.958 1.979-2.139s-.886-2.139-1.979-2.139-1.979.958-1.979 2.139c.001 1.182.887 2.139 1.979 2.139z"/></g></svg>