<svg id="Layer_1" enable-background="new 0 0 128 128" height="512" viewBox="0 0 128 128" width="512" xmlns="http://www.w3.org/2000/svg"><path d="m122.53 87.428c-.279-2.022-9.242-6.585-13.262-7.741.944-1.187 1.739-2.497 2.336-3.913l9.601-2.385c.415-.104.719-.459.755-.885s-.202-.829-.594-1.001l-6.287-2.765c1.51-.652 2.57-2.153 2.57-3.899 0-2.026-1.427-3.719-3.327-4.141-.86-4.26-2.636-8.234-5.143-11.754-6.127-11.365-19.135-19.253-34.059-19.253-19.628 0-35.94 13.643-37.639 30.9h-1.036c-.226 0-.444.033-.661.067.408-.903.744-1.852.983-2.851.985-4.124.305-8.384-1.915-11.997-2.219-3.612-5.713-6.144-9.836-7.128-4.123-.983-8.384-.305-11.996 1.915-3.612 2.219-6.144 5.712-7.128 9.836-2.032 8.513 3.239 17.092 11.752 19.125 1.235.295 2.47.436 3.687.436 2.128 0 4.194-.441 6.1-1.238 3.352 4.9 9.376 7.875 13.312 9.387.203.078.411.134.62.175 2.707 4.205 7.232 7.131 12.464 7.638 2.854 4.97 6.802 10.3 11.276 11.997 6.104 2.316 15.317 4.356 20.085 4.356 1.14 0 2.027-.117 2.555-.375.569-.277.795-.677.884-.964.727-2.338-7.414-10.951-12.477-14.933h20.008c.007 0 .015-.001.022-.001 3.275 2.816 7.385 5.643 10.733 5.684.114.001.23.002.348.002 5.017 0 13.249-1.259 14.875-3.102.399-.452.435-.898.394-1.192z" fill="#e6e7e8"/><path d="m107.459 64.439v.841c0 1.994-.386 3.894-1.061 5.65l10.11-2.511z" fill="#d4fbff"/><path d="m35.238 64.086v1.194c0 8.703 7.055 15.758 15.758 15.758h40.704c8.703 0 15.758-7.055 15.758-15.758v-1.194z" fill="#d4fbff"/><path d="m37.339 55.575c-.167.7-.397 1.367-.654 2.017h70.708c-1.145-17.236-17.145-30.901-36.728-30.901-15.253 0-28.331 8.291-33.91 20.102 1.042 2.708 1.309 5.746.584 8.782z" fill="#fff"/><path d="m73.665 29.691c-18.432 0-33.684 12.106-36.369 27.901h71.65c.396 0 .77.081 1.12.211-2.585-15.898-17.888-28.112-36.401-28.112z" fill="#0089ef"/><path d="m108.946 57.591h-72.26c-.048.121-.096.241-.146.36.263.117.524.235.81.34 2.675.977 4.658 3.159 5.516 5.795h66.081c1.794 0 3.247-1.454 3.247-3.247 0-1.794-1.454-3.248-3.248-3.248z" fill="#ffd7e5"/><path d="m37.349 58.292c-.285-.104-.547-.222-.81-.34-1.171 2.753-3.113 5.013-5.508 6.586 2.868 2.194 6.136 3.72 8.613 4.671 1.837.705 3.784-.72 3.684-2.685-.186-3.685-2.513-6.966-5.979-8.232z" fill="#d4fbff"/><ellipse cx="22.874" cy="52.12" fill="#d4fbff" rx="14.872" ry="14.872" transform="matrix(.952 -.305 .305 .952 -14.825 9.476)"/><ellipse cx="25.288" cy="57.23" fill="#fa759e" rx="3.55" ry="1.753"/><path d="m45.597 71.782s6.838 17.986 15.403 21.236 21.647 5.484 22.215 3.656-11.009-14.21-14.869-15.636c-3.859-1.426-3.453-12.212-22.749-9.256z" fill="#d4fbff"/><path d="m86.779 75.776s9.508 10.87 15.69 10.945c6.181.075 14.812-1.726 14.614-3.156-.197-1.43-10.927-7.142-13.7-7.15-2.775-.007-5.732-7.687-16.604-.639z" fill="#d4fbff"/><g fill="#3a2c60"><path d="m74.551 63.086h-5.958c-.552 0-1 .448-1 1s.448 1 1 1h5.958c.552 0 1-.448 1-1s-.448-1-1-1z"/><circle cx="21.737" cy="49.769" r="4.179"/><path d="m118.074 83.428c-.279-2.025-9.272-6.601-13.283-7.747.943-1.182 1.729-2.491 2.329-3.899l9.628-2.392c.415-.104.719-.459.755-.885s-.202-.829-.594-1.001l-6.287-2.765c1.51-.652 2.57-2.153 2.57-3.899 0-2.342-1.905-4.248-4.248-4.248h-.646c-1.698-17.257-18.007-30.9-37.636-30.9-14.769 0-27.637 7.737-33.839 18.913-2.073-3.843-5.694-6.83-10.265-7.922-8.511-2.035-17.089 3.237-19.122 11.75s3.239 17.092 11.751 19.125c1.235.295 2.47.436 3.687.436 2.904 0 5.695-.815 8.112-2.255 1.141.828 2.322 1.554 3.486 2.187 1.189 7.451 7.295 13.26 14.883 14.004 2.856 4.977 6.809 10.323 11.291 12.023 6.104 2.316 15.317 4.356 20.085 4.356 1.14 0 2.026-.117 2.555-.375.569-.277.795-.677.884-.964.726-2.339-7.415-10.951-12.478-14.933h20.008c.008 0 .015-.001.023-.001 3.274 2.816 7.385 5.643 10.733 5.684.114.001.23.002.348.002 5.017 0 13.248-1.259 14.874-3.102.4-.453.436-.898.396-1.192zm-10.181-13.9c.304-1.147.483-2.342.533-3.571l4.997 2.198zm-1.608-12.937h-15.887l-9.926-21.673 7.426-2.696c.184-.067.322-.192.434-.337 9.873 5.037 16.84 14.142 17.953 24.706zm-43.419-21.243h15.604l9.729 21.243h-34.883zm23.116-4.558-7.047 2.558h-16.541l-7.03-2.552c4.65-1.98 9.835-3.105 15.301-3.105 5.47 0 10.664 1.117 15.317 3.099zm-32.975 1.108c.111.139.246.259.425.324l7.433 2.698-9.741 21.671h-13.036c.076-.26.16-.517.224-.784.728-3.048.506-6.098-.452-8.86 3.104-6.346 8.452-11.632 15.147-15.049zm-33.355 33.715c-1.582-.378-3.026-1.027-4.318-1.867 2.162-.863 3.696-2.975 3.696-5.441 0-.552-.448-1-1-1s-1 .448-1 1c0 2.078-1.655 3.767-3.714 3.846-3.45-3.299-5.121-8.284-3.934-13.253 1.519-6.361 7.221-10.651 13.493-10.651 1.063 0 2.144.124 3.222.381 7.44 1.776 12.047 9.275 10.271 16.715-1.778 7.439-9.28 12.044-16.716 10.27zm17.392-6.365c3.043 1.129 5.117 3.999 5.287 7.327.03.596-.229 1.139-.711 1.488-.476.346-1.065.423-1.616.212-2.069-.795-4.759-2.026-7.262-3.738 1.774-1.407 3.251-3.201 4.302-5.289zm45.1 36.993c-2.235.593-12.716-1.094-20.79-4.158-6.821-2.588-12.683-15.51-14.35-19.489 12.446-1.59 15.566 2.944 17.866 6.285.963 1.398 1.794 2.605 3.128 3.098 3.486 1.287 13.087 11.757 14.146 14.264zm-13.579-16.203c-.685-.327-1.291-1.199-2.046-2.294-2.525-3.667-6.34-9.209-21.073-6.95-.298.045-.561.224-.712.485-.152.261-.178.577-.071.859.12.316 1.398 3.632 3.497 7.616-5.54-1.085-9.973-5.278-11.412-10.686.901.415 1.763.778 2.538 1.076.433.166.884.248 1.332.248.77 0 1.53-.241 2.175-.708 1.025-.744 1.599-1.943 1.535-3.209-.024-.471-.088-.933-.172-1.387h20.438c.552 0 1-.448 1-1s-.448-1-1-1h-21.034c-.733-1.814-1.956-3.373-3.544-4.495h11.752.002.003 57.173c1.239 0 2.248 1.008 2.248 2.248s-1.008 2.248-2.248 2.248h-30.395c-.552 0-1 .448-1 1s.448 1 1 1h27.908v.194c0 3.79-1.452 7.235-3.809 9.85-.333-.196-.709-.467-1.101-.754-2.537-1.859-6.783-4.967-15.313.561-.244.158-.406.414-.446.701-.04.288.046.578.238.796.146.167 1.508 1.711 3.493 3.604h-20.956zm33.916 5.683c-4.286-.052-11.052-6.388-14.156-9.727 6.674-3.936 9.76-1.677 12.042-.005 1.042.764 1.942 1.423 3.013 1.426 2.135.006 10.644 4.421 12.47 6.122-1.596.881-7.753 2.269-13.369 2.184z"/></g></svg>