<svg id="Layer_1" enable-background="new 0 0 128 128" height="512" viewBox="0 0 128 128" width="512" xmlns="http://www.w3.org/2000/svg"><path d="m125.021 33.758c-1.351-4.346-7.6-6.136-14.228-4.077-2.537.789-4.785 2.051-6.492 3.625-.864-2.155-2.352-4.262-4.303-6.063-2.368-2.188-5.144-3.671-7.816-4.176-2.841-.535-5.25.08-6.782 1.739-1.167 1.263-1.716 3.007-1.587 5.042.207 3.287 2.153 6.782 5.205 9.349 3.342 2.81 5.189 3.301 8.542 4.192l.06.016-.002.351c-.025 5.711-.056 12.819-5.062 19.316-1.651 2.141-3.841 3.191-6.265 3.527-.462-8.164-1.161-16.072-1.432-17.762-.525-3.269-2.047-6.705-4.274-9.806-3.806-7.417-11.595-14.09-20.438-14.527-13.462-.682-24.916 11.579-25.795 22.555-.024.296-.076.871-.147 1.67-1.796 20.062-2.239 31.374-1.35 34.569.292 2.174.815 4.296 1.556 6.312-.015.717-.215 1.601-2.829 1.836-6.464.583-15.909 4.732-22.694 8.11-1.79.891-2.402 2.853-2.081 4.331.301 1.385 1.336 2.273 2.702 2.319.393.014.81.03 1.222.046.055 1.025.665 1.916 1.812 1.955 11.737.402 32.383 1.986 35.43-.331.549-.418.99-1.171 1.347-2.151 3.615 2.159 7.791 2.314 12.223 2.314 4.016 0 7.816-.14 11.184-1.773.408.135.878.253 1.417.353.282.529.6.963.969 1.256 2.997 2.383 23.693.733 35.43.331 2.32-.08 2.453-3.64.21-4.756-.13-.065-.267-.131-.399-.197.052-1.364-.611-2.93-2.155-3.698-1.502-.748-3.139-1.533-4.841-2.31 4.087-3.703 6.523-8.763 7.227-15.104.897-8.077-1.162-21.019-2.667-30.468-.362-2.273-.687-4.313-.93-6.032 2.557.628 5.61.476 8.625-.46 3.078-.957 5.75-2.619 7.524-4.681 1.885-2.191 2.554-4.586 1.884-6.742z" fill="#e6e7e8"/><path d="m120.066 30.055c-1.167-3.753-6.976-5.283-12.976-3.419-3.106.965-5.646 2.654-7.22 4.577-.594-2.413-2.161-5.029-4.55-7.237-4.615-4.263-10.518-5.379-13.185-2.493s-1.282 8.903 3.527 12.947c3.419 2.874 5.097 3.167 8.962 4.208-.05 5.99.276 13.837-5.276 21.044-1.863 2.418-4.312 3.587-7.001 3.939.434 8.038.612 16.084-.1 18.471-.287 2.177-.81 4.27-1.545 6.252.227.036.452.074.71.097 4.521.408 10.551 2.615 16.086 5.064 4.193-3.261 7.279-8.17 8.091-15.474 1.164-10.472-2.769-29.515-3.806-37.83 2.492 1.039 5.974 1.132 9.531.026 6.001-1.865 9.919-6.419 8.752-10.172z" fill="#6dc9f7"/><path d="m103.752 96.45c-6.738-3.354-16.016-7.439-22.338-8.009-2.835-.256-3.742-1.312-3.741-3.009.752-2.008 1.284-4.131 1.576-6.34 1.465-4.915-.839-33.832-1.389-37.256-1.482-9.226-10.88-19.797-21.761-20.334-12.699-.626-23.891 10.927-24.751 21.636-.226 2.82-2.977 31.039-1.512 35.954.291 2.209.823 4.333 1.576 6.34.001 1.697-.905 2.753-3.74 3.009-6.322.571-15.6 4.655-22.338 8.009-2.244 1.117-2.11 4.677.21 4.756 11.737.402 32.383 1.986 35.43-.331.549-.418.99-1.17 1.347-2.15 3.615 2.159 7.791 2.314 12.223 2.314 4.421 0 8.586-.148 12.195-2.297.368.949.818 1.691 1.376 2.134 2.996 2.383 23.693.733 35.43.331 2.317-.08 2.451-3.64.207-4.757z" fill="#fff"/><path d="m106.752 99.45c-6.738-3.354-16.016-7.439-22.338-8.009-2.835-.256-3.742-1.312-3.741-3.009.752-2.008 1.284-4.131 1.576-6.34 1.465-4.915-.839-33.832-1.389-37.256-1.482-9.226-10.88-19.797-21.761-20.334-12.699-.626-23.891 10.927-24.751 21.636-.226 2.82-2.977 31.039-1.512 35.954.291 2.209.823 4.333 1.576 6.34.001 1.697-.905 2.753-3.74 3.009-6.322.571-15.6 4.655-22.338 8.009-2.244 1.117-2.11 4.677.21 4.756 11.737.402 32.383 1.986 35.43-.331.549-.418.99-1.17 1.347-2.15 3.615 2.159 7.791 2.314 12.223 2.314 4.421 0 8.586-.148 12.195-2.297.368.949.818 1.691 1.376 2.134 2.996 2.383 23.693.733 35.43.331 2.317-.08 2.451-3.64.207-4.757z" fill="#6dc9f7"/><path d="m49.092 70.074c-2.272 0-4.319-.861-5.781-2.24l2.673 13.52c.459 2.322 3.806 2.245 4.157-.096l1.829-12.196z" fill="#fff"/><path d="m59.993 70.074-2.389-.895 2.407 12.174c.459 2.322 3.806 2.245 4.157-.096l2.088-13.921c-1.471 1.668-3.728 2.738-6.263 2.738z" fill="#fff"/><path d="m59.993 53.831h-10.901c-4.437 0-8.033 3.271-8.033 7.306v1.63c0 4.035 3.597 7.306 8.033 7.306l4.153-1.46c.944-.332 1.992-.322 2.928.029l3.821 1.431c4.437 0 8.033-3.271 8.033-7.306v-1.63c0-4.035-3.597-7.306-8.034-7.306z" fill="#d4fbff"/><circle cx="61.403" cy="64.148" fill="#fa759e" r=".958"/><circle cx="63.467" cy="60.64" fill="#fa759e" r=".958"/><circle cx="59.88" cy="60.64" fill="#fa759e" r=".958"/><circle cx="47.437" cy="64.148" fill="#fa759e" r=".958"/><circle cx="49.501" cy="60.64" fill="#fa759e" r=".958"/><circle cx="45.915" cy="60.64" fill="#fa759e" r=".958"/><g fill="#3a2c60"><path d="m121.021 29.758c-1.352-4.347-7.601-6.135-14.227-4.076-2.537.788-4.786 2.05-6.492 3.625-.864-2.155-2.351-4.262-4.303-6.064-5.097-4.709-11.509-5.777-14.598-2.437-1.167 1.263-1.716 3.007-1.587 5.042.207 3.287 2.153 6.782 5.205 9.349 3.344 2.811 5.191 3.302 8.546 4.194l.055.015-.002.35c-.025 5.712-.056 12.819-5.062 19.317-1.651 2.143-3.84 3.193-6.265 3.529.039.68.075 1.361.11 2.041 2.947-.371 5.658-1.648 7.739-4.349 5.418-7.033 5.451-14.517 5.478-20.529l.006-1.116c.004-.456-.3-.856-.74-.975l-.805-.215c-3.276-.872-4.771-1.27-7.773-3.793-2.642-2.221-4.323-5.19-4.496-7.943-.093-1.477.273-2.707 1.06-3.559 2.25-2.434 7.64-1.269 11.771 2.548 2.138 1.976 3.69 4.433 4.258 6.742.091.367.381.652.751.736.369.083.754-.049.994-.343 1.507-1.841 3.964-3.392 6.743-4.255 5.371-1.67 10.74-.407 11.724 2.76.984 3.166-2.722 7.251-8.093 8.921-3.179.988-6.486.989-8.849.005-.328-.137-.706-.09-.99.127-.284.216-.432.565-.387.92.252 2.025.668 4.64 1.15 7.666 1.486 9.336 3.521 22.123 2.654 29.931-.687 6.176-3.161 10.994-7.291 14.407-5.45-2.376-11.336-4.481-15.803-4.884-2.614-.235-2.814-1.119-2.829-1.836.274-.747.521-1.515.734-2.286.147-.532-.165-1.083-.697-1.23-.532-.146-1.083.164-1.23.697-.214.774-.464 1.546-.744 2.292-.042.111-.063.23-.063.35-.003 3.586 3.5 3.901 4.65 4.006 6.156.556 15.352 4.607 21.982 7.909.866.431 1.17 1.412 1.018 2.116-.104.479-.379.73-.815.746-2.397.082-5.168.216-8.085.357-9.795.474-24.597 1.191-26.688-.472-.265-.211-.523-.57-.763-1.041.036-.104.066-.211.066-.327v-11.576c0-.553-.448-1-1-1s-1 .447-1 1v10.83c-3.308 1.893-7.166 2.059-11.496 2.059-4.208 0-7.968-.167-11.223-1.918v-10.971c0-.553-.448-1-1-1s-1 .447-1 1v11.387c-.365.944-.717 1.363-.953 1.542-2.151 1.636-17.068.933-26.939.468-2.83-.134-5.517-.26-7.851-.34-.438-.016-.712-.267-.816-.746-.153-.704.151-1.686 1.017-2.116 6.631-3.302 15.827-7.354 21.983-7.909 1.151-.104 4.653-.42 4.65-4.006 0-.119-.021-.238-.063-.35-.73-1.948-1.242-4.007-1.521-6.12-.007-.053-.018-.104-.033-.155-.573-1.922-.795-9.362 1.402-33.896.073-.81.125-1.393.148-1.691.809-10.081 11.334-21.34 23.704-20.716 10.51.518 19.41 10.688 20.824 19.492.417 2.601 1.801 19.59 1.854 29.696.003.551.45.995 1 .995h.005c.552-.003.998-.453.995-1.005-.055-10.405-1.444-27.287-1.88-30.003-1.536-9.562-11.236-20.608-22.7-21.174-13.455-.675-24.916 11.579-25.795 22.554-.024.296-.076.872-.147 1.673-1.796 20.059-2.238 31.371-1.35 34.566.292 2.175.815 4.297 1.556 6.312-.015.717-.216 1.601-2.829 1.836-6.466.584-15.91 4.733-22.695 8.11-1.79.892-2.401 2.854-2.08 4.332.3 1.384 1.335 2.272 2.702 2.319 2.327.08 5.004.206 7.826.34 14.938.703 25.708 1.054 28.244-.874.465-.354.87-.864 1.223-1.545 3.539 1.758 7.43 1.912 11.742 1.912s8.201-.153 11.731-1.906c.354.656.756 1.16 1.216 1.525 1.376 1.095 5.26 1.475 10.969 1.475 4.616 0 10.425-.249 17.061-.57 2.907-.141 5.668-.274 8.058-.356 1.366-.047 2.4-.936 2.701-2.319.321-1.479-.291-3.44-2.08-4.332-1.514-.754-3.165-1.546-4.882-2.328 4.095-3.701 6.564-8.74 7.268-15.085.897-8.076-1.162-21.017-2.666-30.466-.362-2.273-.687-4.313-.931-6.034 2.56.631 5.611.478 8.625-.459 6.627-2.061 10.76-7.08 9.409-11.425z"/><path d="m79.699 75.021c-.566-.046-1.023.392-1.054.943-.092 1.673-.244 2.469-.355 2.841-.158.529.144 1.087.673 1.244.095.028.191.042.286.042.431 0 .828-.28.958-.714.209-.702.352-1.782.436-3.304.03-.55-.393-1.022-.944-1.052z"/><path d="m73.996 66.534c.096.475.513.803.979.803.065 0 .132-.006.198-.02.542-.109.892-.637.783-1.178-1.261-6.26-7.199-7.36-10.167-7.067-.55.055-.951.544-.897 1.094.054.549.549.95 1.093.896.28-.026 6.789-.597 8.011 5.472z"/><path d="m70.259 74.502c.039.005.076.007.114.007.501 0 .934-.377.992-.888.447-3.943-1.439-6.542-3.629-8.097.021-.221.034-.444.034-.67 0-.553-.448-1-1-1-.41 0-.76.247-.914.6-.719-.323-1.41-.548-2.001-.676-.541-.12-1.069.226-1.187.764-.118.539.224 1.071.762 1.19.097.022.982.232 2.041.768-.686 1.962-2.535 3.382-4.728 3.382-2.772 0-5.028-2.255-5.028-5.027v-7.865c.614-.149 1.197-.423 1.677-.85l2.419-2.157c.267-.238.078-.644-.299-.644h-9.593c-.377 0-.566.406-.299.644l2.419 2.157c.48.428 1.063.701 1.677.85v7.864c0 2.772-2.255 5.027-5.028 5.027-2.271 0-4.172-1.522-4.794-3.593.856-.382 1.521-.538 1.604-.556.539-.117.88-.649.764-1.188s-.651-.883-1.189-.766c-.483.104-1.034.277-1.61.51-.181-.256-.465-.434-.802-.434-.552 0-1 .447-1 1 0 .118.012.233.018.35-2.387 1.506-4.596 4.185-4.116 8.417.058.511.491.888.992.888.038 0 .076-.002.114-.007.549-.062.943-.558.881-1.105-.344-3.031 1.046-4.922 2.569-6.069.047.124.094.248.148.368l2.738 13.852c.294 1.485 1.541 2.507 3.046 2.507.026 0 .052-.001.078-.001 1.54-.036 2.775-1.125 3.004-2.648l1.625-10.831c.792-.564 1.459-1.288 1.96-2.125.546.913 1.289 1.693 2.176 2.277l2.14 10.822c.293 1.485 1.54 2.507 3.045 2.507.026 0 .052-.001.077-.001 1.541-.036 2.776-1.125 3.004-2.648l2.062-13.743c1.35 1.169 2.471 2.978 2.159 5.734-.065.547.329 1.042.878 1.104zm-21.106 6.606c-.103.682-.621.936-1.073.945-.01.001-.02.001-.029.001-.445 0-.955-.234-1.086-.896l-2.054-10.387c1.092.699 2.386 1.11 3.776 1.11.655 0 1.287-.097 1.89-.265zm14.027 0c-.103.682-.621.936-1.073.945-.01.001-.02.001-.029.001-.445 0-.955-.234-1.085-.896l-1.873-9.474c.522.124 1.064.197 1.623.197 1.491 0 2.873-.47 4.011-1.265z"/><path d="m42.942 61.062c.554.053 1.037-.349 1.091-.896.054-.55-.347-1.039-.897-1.094-2.964-.294-8.906.807-10.167 7.067-.109.541.242 1.068.783 1.178.066.014.133.02.198.02.466 0 .884-.328.979-.803 1.217-6.039 7.734-5.496 8.013-5.472z"/><circle cx="46.732" cy="43.641" r="2.543"/><circle cx="62.353" cy="43.641" r="2.543"/></g></svg>