<svg id="Layer_1" enable-background="new 0 0 128 128" height="512" viewBox="0 0 128 128" width="512" xmlns="http://www.w3.org/2000/svg"><path d="m102.329 78.527c.458-2.953-.905-6.506-4.265-7.91-2.489-1.039-5.107-.925-7.373.312-2.437 1.332-4.197 3.85-4.71 6.734-.777 4.374.946 7.871 2.331 10.682.434.879.843 1.71 1.183 2.55 1.071 2.652 1.38 5.517.771 7.128-.587 1.553-1.654 2.629-3.168 3.224-.027-4.918-1.141-9.873-4.122-13.461-1.961-2.361-5.184-10.83-8.755-22.921 5.442-6.801 9.002-16.49 9.002-25.103 0-2.64-.357-5.048-1.028-7.228 2.331-.414 4.776-1.64 6.976-3.799 1.46-1.433 2.267-3.352 2.692-5.29.467-2.134-.467-4.036-1.98-5.115-.264-1.514-1.103-2.884-2.438-3.828-1.98-1.399-4.484-1.481-6.537-.207-3.014 1.87-6.358 4.479-8.443 7.11-2.45-1.165-5.285-1.962-8.492-2.354l1.574-11.483c.167-1.221-.782-2.309-2.014-2.309h-9.773c-1.233 0-2.182 1.088-2.014 2.309l1.589 11.589c-2.881.423-5.441 1.19-7.684 2.26-2.084-2.635-5.433-5.249-8.452-7.122-2.052-1.273-4.557-1.192-6.537.207-2 1.414-2.917 3.773-2.396 6.157.533 2.431 1.531 4.379 2.968 5.79 1.467 1.44 3.096 2.521 4.768 3.237.261.215.524.421.79.612-1.223 2.724-1.877 5.882-1.877 9.464 0 8.601 3.549 18.274 8.978 25.074-3.575 12.107-6.801 20.588-8.763 22.951-4.916 5.918-4.777 15.551-3.005 22.609.117.686.935 4.396 1.695 6.662-2.367.98-4.831 3.292-5.108 8.634-.014.273.084.541.273.74.188.199.451.312.725.312h58.685c.274 0 .537-.112.725-.312.189-.199.288-.467.273-.74-.277-5.342-2.741-7.653-5.108-8.634.76-2.267 1.578-5.977 1.695-6.662.155-.618.292-1.261.42-1.914.164-.022.326-.035.491-.064 4.698-.834 8.182-3.661 9.808-7.961 1.828-4.83-.17-10.509-.827-12.134-.435-1.078-.921-2.063-1.392-3.019-1.179-2.394-2.109-4.283-1.728-6.438.146-.824.632-1.57 1.235-1.9.25-.137.864-.428 1.156-.172.172.151.218.682.177.982-.057.369-.044.711-.003 1.04-1.165 1.477-2.184 4.939 4.432 11.387 0-.001 7.203-6.037 2.58-11.676z" fill="#e6e7e8"/><path d="m93.68 67.541c-2.202-.918-4.514-.823-6.509.266-2.173 1.187-3.745 3.441-4.205 6.031-.719 4.052.855 7.246 2.244 10.064.443.898.861 1.747 1.213 2.619 1.176 2.914 1.482 5.998.78 7.855-1.065 2.814-3.323 3.841-5.116 4.204-.062 1.705-.244 3.391-.527 4.993.384-.03.77-.072 1.157-.141 4.337-.771 7.55-3.374 9.047-7.33 1.7-4.491-.197-9.866-.819-11.407-.419-1.039-.898-2.01-1.361-2.949-1.21-2.457-2.255-4.578-1.816-7.055.2-1.129.868-2.126 1.741-2.603.69-.377 1.617-.64 2.294-.045.696.612.505 1.887.505 1.887-.473 3.034 3.996 4.151 4.868 1.207.008-.025.015-.051.022-.077.751-2.663-.362-6.201-3.518-7.519z" fill="#0089ef"/><path d="m77.434 11.144c-3.32 2.06-6.823 4.904-8.68 7.533 2.963 1.556 5.387 3.772 7.041 6.731 2.146-.507 4.363-1.701 6.374-3.675 1.46-1.433 2.267-3.352 2.692-5.29.934-4.26-3.72-7.599-7.427-5.299z" fill="#fff"/><path d="m41.359 18.69c-1.854-2.633-5.363-5.482-8.688-7.546-3.707-2.3-8.36 1.039-7.428 5.3.424 1.938 1.231 3.857 2.692 5.29 2.02 1.983 4.248 3.177 6.404 3.681 1.65-2.955 4.066-5.169 7.02-6.725z" fill="#fff"/><path d="m80.434 14.144c-3.05 1.893-6.257 4.446-8.198 6.888 2.244 1.944 3.958 4.467 4.966 7.632 2.617-.208 5.454-1.463 7.968-3.93 1.46-1.433 2.267-3.352 2.692-5.29.933-4.261-3.721-7.6-7.428-5.3z" fill="#0089ef"/><path d="m41.563 18.587c-1.752-1.622-3.856-3.18-5.891-4.443-3.707-2.3-8.36 1.039-7.428 5.3.424 1.938 1.231 3.857 2.692 5.29.865.849 1.769 1.552 2.688 2.121 1.654-3.759 4.428-6.468 7.939-8.268z" fill="#0089ef"/><path d="m78.989 113.669c.821-1.878 1.961-7.082 2.012-7.477 1.717-6.804 1.915-16.098-2.794-21.768-2.762-3.326-6.747-15.811-9.074-23.713-.34.413-.686.817-1.041 1.206-1.528-1.989-3.924-3.276-6.626-3.276h-12.792c-2.702 0-5.098 1.288-6.626 3.276-.363-.397-.718-.811-1.066-1.234-2.327 7.901-6.317 20.412-9.083 23.742-4.709 5.67-4.511 14.964-2.794 21.768.051.395 1.191 5.599 2.012 7.477-2.31.63-5.119 2.526-5.406 8.074h28.878.929 28.878c-.289-5.549-3.098-7.445-5.407-8.075z" fill="#d4fbff"/><g fill="#0089ef"><path d="m76.697 102.712c-.445.07-.774.454-.774.905s.328.834.774.904l4.527.71c.238-1.065.438-2.177.587-3.322z"/><path d="m67.914 102.217c-.445.07-.774.454-.774.905s.328.834.774.904l4.527.71c.238-1.065.438-2.177.587-3.322z"/><path d="m68.491 107.283c-.445.07-.774.454-.774.905s.328.834.774.904l4.527.71c.238-1.065.438-2.177.587-3.322z"/><path d="m75.923 96.824c0 .451.328.834.774.904l5.389.846c.042-1.162.027-2.331-.061-3.49l-5.328.836c-.446.07-.774.453-.774.904z"/><path d="m67.14 78.634c-.445.07-.774.454-.774.904s.328.834.774.904l9.534 1.496c-.637-1.25-1.304-2.787-1.976-4.491z"/><path d="m65.57 89.798 16.095 2.526c-.435-2.34-1.217-4.557-2.44-6.477l-13.655 2.142c-.445.07-.774.454-.774.904s.329.835.774.905z"/><path d="m33.662 102.712c.445.07.774.454.774.905s-.328.834-.774.904l-4.527.71c-.238-1.065-.438-2.177-.587-3.322z"/><path d="m41.911 102.217c.445.07.774.454.774.905s-.328.834-.774.904l-4.527.71c-.238-1.065-.438-2.177-.587-3.322z"/><path d="m41.499 107.943c.445.07.774.454.774.905s-.328.834-.774.904l-4.527.71c-.238-1.065-.438-2.177-.587-3.322z"/><path d="m34.436 96.824c0 .451-.328.834-.774.904l-5.389.846c-.042-1.162-.027-2.331.061-3.49l5.328.836c.446.07.774.453.774.904z"/><path d="m43.219 78.634c.445.07.774.454.774.904s-.328.834-.774.904l-9.534 1.496c.637-1.25 1.304-2.787 1.976-4.491z"/><path d="m44.789 89.798-16.095 2.526c.435-2.34 1.217-4.557 2.44-6.477l13.655 2.143c.445.07.774.454.774.904s-.329.834-.774.904z"/></g><path d="m48.674 58.64h12.791c2.702 0 5.098 1.288 6.626 3.276 6.115-6.694 10.132-17.24 10.132-26.156 0-14.326-10.366-20.012-23.153-20.012s-23.153 5.686-23.153 20.012c0 8.916 4.016 19.461 10.132 26.156 1.527-1.989 3.923-3.276 6.625-3.276z" fill="#d4fbff"/><path d="m77.709 37.856-9.282-2.712c-.445-.07-.774-.454-.774-.904 0-.451.328-.835.774-.904l9.282-2.712c.555-.087 1.057.342 1.057.904v5.424c.001.562-.501.991-1.057.904z" fill="#0089ef"/><path d="m61.317 16.257-1.281 11.423c-.05.448.233.866.668.985s.892-.096 1.077-.507l4.724-10.497c-1.618-.626-3.357-1.09-5.188-1.404z" fill="#0089ef"/><path d="m74.948 24.047c-.918-1.32-2.01-2.466-3.246-3.452l-5.789 7.476c-.276.356-.251.861.058 1.189s.811.382 1.183.127z" fill="#0089ef"/><path d="m48.778 16.257 1.281 11.423c.05.448-.233.866-.668.985s-.892-.096-1.077-.507l-4.724-10.497c1.618-.626 3.357-1.09 5.188-1.404z" fill="#0089ef"/><path d="m35.147 24.047c.918-1.32 2.01-2.466 3.246-3.452l5.789 7.476c.276.356.251.861-.058 1.189s-.811.382-1.183.127z" fill="#0089ef"/><path d="m68.188 42.399c-.445.07-.774.454-.774.905s.328.834.774.904l8.62 1.353c.43-1.557.764-3.122 1.001-4.671z" fill="#0089ef"/><path d="m75.923 48.385-12.296 1.929c-.445.07-.774.454-.774.904 0 .451.328.835.774.905l10.035 1.575c.866-1.711 1.624-3.495 2.261-5.313z" fill="#0089ef"/><path d="m32.61 37.856 9.282-2.712c.445-.07.774-.454.774-.904 0-.451-.328-.835-.774-.904l-9.282-2.712c-.555-.087-1.057.342-1.057.904v5.424c-.001.562.501.991 1.057.904z" fill="#0089ef"/><path d="m42.131 42.399c.445.07.774.454.774.905s-.328.834-.774.904l-8.62 1.353c-.43-1.557-.764-3.122-1.001-4.671z" fill="#0089ef"/><path d="m34.396 48.385 12.296 1.929c.445.07.774.454.774.904 0 .451-.328.835-.774.905l-10.035 1.575c-.866-1.711-1.624-3.495-2.261-5.313z" fill="#0089ef"/><path d="m59.016 58.64c-.056-.666-.108-1.295-.155-1.868-.247-3.013-2.057-4.414-3.809-4.298-1.752-.116-3.561 1.284-3.809 4.298-.047.573-.099 1.202-.155 1.868z" fill="#fff"/><path d="m62.522 105.181c.494-6.804.551-16.098-.804-21.768-.321-1.341-.698-4.173-1.079-7.59h-11.173c-.381 3.418-.758 6.25-1.079 7.59-1.356 5.67-1.299 14.963-.804 21.768.015.395.343 5.599.579 7.477-.665.63-1.474 2.527-1.556 8.074h8.313.267 8.313c-.083-5.547-.891-7.443-1.556-8.074.236-1.878.565-7.083.579-7.477z" fill="#fff"/><path d="m61.465 58.64h-12.791c-4.617 0-8.36 3.743-8.36 8.36v.462c0 4.617 3.743 8.36 8.36 8.36h12.791c4.617 0 8.36-3.743 8.36-8.36v-.462c0-4.617-3.743-8.36-8.36-8.36z" fill="#ffd7e5"/><path d="m48.276 65.351c-1.477 0-2.673 1.264-2.673 2.823s1.197 2.823 2.673 2.823 2.673-1.264 2.673-2.823-1.197-2.823-2.673-2.823z" fill="#fa759e"/><path d="m61.863 65.351c-1.476 0-2.673 1.264-2.673 2.823s1.197 2.823 2.673 2.823 2.673-1.264 2.673-2.823-1.197-2.823-2.673-2.823z" fill="#fa759e"/><path d="m98.329 74.527c.458-2.953-.906-6.507-4.264-7.909-2.487-1.038-5.105-.927-7.374.311-2.437 1.332-4.198 3.85-4.71 6.734-.777 4.375.946 7.872 2.341 10.701.431.875.837 1.7 1.173 2.531 1.07 2.653 1.38 5.517.771 7.127-.587 1.55-1.658 2.617-3.169 3.21-.029-4.913-1.144-9.862-4.122-13.448-1.961-2.361-5.186-10.839-8.759-22.938 5.441-6.8 9.006-16.475 9.006-25.087 0-3.706-.702-6.955-2.009-9.741 1.981-.684 3.931-1.877 5.657-3.571 1.437-1.41 2.436-3.358 2.968-5.79.522-2.384-.396-4.743-2.396-6.157-1.98-1.399-4.484-1.48-6.537-.207-3.016 1.872-6.348 4.482-8.432 7.115-2.453-1.168-5.291-1.967-8.503-2.36l1.574-11.483c.167-1.221-.782-2.309-2.014-2.309h-9.77c-1.233 0-2.182 1.088-2.014 2.309l1.589 11.589c-2.886.423-5.45 1.193-7.696 2.266-2.083-2.637-5.42-5.253-8.441-7.127-2.053-1.274-4.557-1.193-6.536.207-2 1.414-2.917 3.773-2.396 6.157.532 2.431 1.53 4.379 2.968 5.79 1.735 1.703 3.695 2.9 5.686 3.582-1.304 2.784-2.004 6.03-2.004 9.73 0 8.598 3.555 18.257 8.982 25.056-3.576 12.114-6.805 20.605-8.768 22.969-4.917 5.919-4.778 15.551-3.005 22.609.117.686.934 4.395 1.695 6.662-2.367.979-4.831 3.292-5.108 8.634-.014.273.084.541.273.74.188.199.451.312.725.312h58.685c.274 0 .537-.112.725-.312.189-.199.288-.467.273-.74-.277-5.342-2.741-7.653-5.108-8.634.761-2.268 1.578-5.977 1.695-6.662.155-.617.292-1.258.419-1.91.164-.021.327-.039.491-.068 4.698-.834 8.181-3.661 9.807-7.96 1.829-4.831-.17-10.51-.826-12.135-.437-1.082-.944-2.11-1.393-3.021-1.178-2.393-2.108-4.282-1.726-6.436.146-.824.631-1.57 1.236-1.899.251-.137.864-.427 1.155-.172.171.151.217.681.176.982-.057.369-.044.711-.003 1.039-1.165 1.477-2.183 4.939 4.432 11.387.001.002 7.205-6.034 2.581-11.673zm-57.015-7.527c0-4.059 3.302-7.36 7.36-7.36h12.791c4.058 0 7.36 3.302 7.36 7.36v.462c0 4.059-3.302 7.36-7.36 7.36h-12.791c-4.058 0-7.36-3.302-7.36-7.36zm36.647-55.007c1.621-1.008 3.298-.586 4.327.141 1.043.738 2.011 2.202 1.596 4.097-.448 2.046-1.26 3.657-2.415 4.79-1.601 1.572-3.408 2.654-5.215 3.222-1.475-2.396-3.486-4.365-5.996-5.876 1.697-2.039 4.437-4.347 7.703-6.374zm-49.326 9.028c-1.155-1.134-1.968-2.745-2.415-4.79-.415-1.895.553-3.358 1.596-4.097.594-.42 1.403-.736 2.292-.736.653 0 1.349.17 2.034.596 3.274 2.031 6.019 4.345 7.714 6.387-2.503 1.512-4.509 3.48-5.98 5.873-1.814-.567-3.631-1.654-5.241-3.233zm20.972-3.882.447 3.262c.315 2.295 2.276 4.005 4.592 4.005s4.277-1.71 4.592-4.005l.463-3.375c7.978.979 17.522 5.017 17.522 18.735 0 8.557-3.646 18.231-9.114 24.655-1.697-1.712-4.048-2.776-6.643-2.776h-12.792c-2.596 0-4.946 1.063-6.643 2.776-5.469-6.424-9.114-16.098-9.114-24.655-.001-13.245 8.896-17.465 16.69-18.622zm30.424 88.807c-.008.033-.017.078-.021.111-.072.488-1.191 5.504-1.937 7.211-.072.164-.081.341-.06.515-.835-.218-1.713-.347-2.627-.347-.427 0-.844.033-1.255.085-.307-5.142-.567-11.83 1.192-18.642.138-.535-.184-1.08-.718-1.218-.537-.143-1.08.184-1.218.718-1.817 7.036-1.557 14.119-1.258 19.177-4.184.507-9.624 1.2-12.438 2.026v-18.758c0-.553-.448-1-1-1s-1 .447-1 1v22.177c0 .634.17 1.222.445 1.741h-6.164c.275-.52.445-1.107.445-1.741v-5.808c0-.553-.448-1-1-1s-1 .447-1 1v2.025c-4.069-.617-8.204-1.131-12.468-1.156.309-5.085.651-12.409-1.228-19.682-.138-.534-.683-.86-1.218-.718-.535.138-.856.683-.718 1.218 1.767 6.844 1.497 13.563 1.188 18.714-.584-.103-1.186-.158-1.804-.158-.708 0-1.397.073-2.06.205-.004-.127-.022-.254-.074-.373-.746-1.707-1.865-6.723-1.937-7.206-.005-.039-.012-.077-.022-.116-1.662-6.585-1.853-15.529 2.594-20.884 2.029-2.443 4.578-9.238 6.787-16.034.749 4.417 4.592 7.794 9.218 7.794h12.791c4.602 0 8.43-3.342 9.207-7.725 2.204 6.773 4.743 13.531 6.765 15.965 4.446 5.355 4.254 14.299 2.593 20.884zm8.999-34.736c-1.133.618-1.994 1.885-2.246 3.306-.497 2.799.667 5.164 1.903 7.673.453.919.922 1.868 1.331 2.881.587 1.455 2.382 6.526.811 10.68-1.342 3.547-4.21 5.895-8.077 6.648.137-.99.239-2.002.296-3.026 1.888-.544 4.012-1.796 5.089-4.642.798-2.11.497-5.399-.788-8.582-.363-.9-.786-1.758-1.243-2.688-1.386-2.811-2.818-5.718-2.156-9.447.407-2.293 1.791-4.285 3.7-5.328 1.726-.942 3.73-1.019 5.645-.221 1.944.813 2.953 2.636 3.097 4.461l-3.062.754c.019-.593-.067-1.685-.866-2.386-.873-.769-2.125-.798-3.434-.083z" fill="#3a2c60"/><path d="m51.416 104.087c-.552 0-1 .447-1 1v4.106c0 .553.448 1 1 1s1-.447 1-1v-4.106c0-.553-.448-1-1-1z" fill="#3a2c60"/><path d="m51.416 95.824c-.552 0-1 .447-1 1v4.263c0 .553.448 1 1 1s1-.447 1-1v-4.263c0-.553-.448-1-1-1z" fill="#3a2c60"/><path d="m47.43 44.927c1.583 0 2.867-1.356 2.867-3.028s-1.284-3.028-2.867-3.028-2.867 1.355-2.867 3.028 1.283 3.028 2.867 3.028z" fill="#3a2c60"/><path d="m62.854 44.927c1.583 0 2.867-1.356 2.867-3.028s-1.284-3.028-2.867-3.028-2.867 1.355-2.867 3.028 1.284 3.028 2.867 3.028z" fill="#3a2c60"/></svg>